M48
; DRILL file {KiCad 5.1.5+dfsg1-2build2} date Mon 14 Nov 2022 11:38:42 CET
; FORMAT={-:-/ absolute / metric / decimal}
; #@! TF.CreationDate,2022-11-14T11:38:42+01:00
; #@! TF.GenerationSoftware,Kicad,Pcbnew,5.1.5+dfsg1-2build2
; #@! TF.FileFunction,Plated,1,2,PTH
FMAT,2
METRIC
T1C0.400
T2C0.650
T3C0.900
T4C1.000
T5C1.200
%
G90
G05
T1
X67.183Y-130.683
X69.342Y-130.265
X70.017Y-119.29
X71.299Y-113.75
X71.467Y-119.29
X71.755Y-99.822
X73.131Y-106.828
X74.422Y-109.982
X74.803Y-121.412
X75.057Y-107.026
X76.067Y-117.989
X76.708Y-99.568
X77.343Y-114.554
X77.417Y-113.557
X77.724Y-126.746
X78.613Y-122.682
X78.867Y-113.284
X79.287Y-107.784
X79.295Y-105.378
X80.645Y-118.491
X80.899Y-114.554
X81.195Y-107.061
X81.407Y-103.759
X82.423Y-119.507
X83.439Y-109.728
X83.46Y-104.013
X85.725Y-107.188
X85.725Y-111.252
X86.85Y-103.288
X86.868Y-106.299
X87.884Y-117.221
X88.646Y-124.079
X88.9Y-114.046
X89.154Y-128.143
X89.81Y-105.283
X91.329Y-127.619
X92.06Y-115.189
X92.06Y-121.793
T2
X65.405Y-106.807
X65.405Y-108.077
X65.405Y-109.347
X65.405Y-110.617
X65.405Y-111.887
X65.405Y-113.157
X65.405Y-114.427
X66.675Y-106.807
X66.675Y-108.077
X66.675Y-109.347
X66.675Y-110.617
X66.675Y-111.887
X66.675Y-113.157
X66.675Y-114.427
T3
X65.532Y-119.38
X65.532Y-121.92
X65.532Y-129.54
X65.532Y-132.08
X65.532Y-124.46
X65.532Y-127.0
X65.532Y-134.62
X65.532Y-137.16
T4
X65.532Y-91.567
X65.532Y-94.107
X65.532Y-96.647
X65.532Y-99.187
X65.532Y-101.727
X68.072Y-91.567
X68.072Y-94.107
X68.072Y-96.647
X68.072Y-99.187
X68.072Y-101.727
T5
X77.216Y-86.995
X80.716Y-86.995
T0
M30
