%TF.GenerationSoftware,KiCad,Pcbnew,5.1.5+dfsg1-2build2*%
%TF.CreationDate,2022-11-14T11:38:36+01:00*%
%TF.ProjectId,ebus,65627573-2e6b-4696-9361-645f70636258,rev?*%
%TF.SameCoordinates,Original*%
%TF.FileFunction,Copper,L2,Bot*%
%TF.FilePolarity,Positive*%
%FSLAX46Y46*%
G04 Gerber Fmt 4.6, Leading zero omitted, Abs format (unit mm)*
G04 Created by KiCad (PCBNEW 5.1.5+dfsg1-2build2) date 2022-11-14 11:38:36*
%MOMM*%
%LPD*%
G04 APERTURE LIST*
%TA.AperFunction,ComponentPad*%
%ADD10O,1.000000X1.000000*%
%TD*%
%TA.AperFunction,ComponentPad*%
%ADD11R,1.000000X1.000000*%
%TD*%
%TA.AperFunction,ComponentPad*%
%ADD12O,1.700000X1.700000*%
%TD*%
%TA.AperFunction,ComponentPad*%
%ADD13R,1.700000X1.700000*%
%TD*%
%TA.AperFunction,ComponentPad*%
%ADD14C,2.400000*%
%TD*%
%TA.AperFunction,ComponentPad*%
%ADD15R,2.400000X2.400000*%
%TD*%
%TA.AperFunction,ComponentPad*%
%ADD16C,1.800000*%
%TD*%
%TA.AperFunction,ComponentPad*%
%ADD17R,1.800000X1.800000*%
%TD*%
%TA.AperFunction,ViaPad*%
%ADD18C,0.800000*%
%TD*%
%TA.AperFunction,Conductor*%
%ADD19C,0.250000*%
%TD*%
%TA.AperFunction,Conductor*%
%ADD20C,0.500000*%
%TD*%
%TA.AperFunction,NonConductor*%
%ADD21C,0.254000*%
%TD*%
G04 APERTURE END LIST*
D10*
%TO.P,J8,14*%
%TO.N,MP7*%
X66675000Y-114427000D03*
%TO.P,J8,13*%
%TO.N,MP13*%
X65405000Y-114427000D03*
%TO.P,J8,12*%
%TO.N,MP6*%
X66675000Y-113157000D03*
%TO.P,J8,11*%
%TO.N,MP12*%
X65405000Y-113157000D03*
%TO.P,J8,10*%
%TO.N,MP5*%
X66675000Y-111887000D03*
%TO.P,J8,9*%
%TO.N,MP11*%
X65405000Y-111887000D03*
%TO.P,J8,8*%
%TO.N,MP4*%
X66675000Y-110617000D03*
%TO.P,J8,7*%
%TO.N,MP10*%
X65405000Y-110617000D03*
%TO.P,J8,6*%
%TO.N,MP3*%
X66675000Y-109347000D03*
%TO.P,J8,5*%
%TO.N,MP9*%
X65405000Y-109347000D03*
%TO.P,J8,4*%
%TO.N,N/C*%
X66675000Y-108077000D03*
%TO.P,J8,3*%
%TO.N,MP4*%
X65405000Y-108077000D03*
%TO.P,J8,2*%
%TO.N,MP1*%
X66675000Y-106807000D03*
D11*
%TO.P,J8,1*%
%TO.N,GNDD*%
X65405000Y-106807000D03*
%TD*%
D12*
%TO.P,J3,10*%
%TO.N,RX*%
X65532000Y-101727000D03*
%TO.P,J3,9*%
%TO.N,N/C*%
X68072000Y-101727000D03*
%TO.P,J3,8*%
%TO.N,TX*%
X65532000Y-99187000D03*
%TO.P,J3,7*%
%TO.N,N/C*%
X68072000Y-99187000D03*
%TO.P,J3,6*%
%TO.N,GNDREF*%
X65532000Y-96647000D03*
%TO.P,J3,5*%
%TO.N,N/C*%
X68072000Y-96647000D03*
%TO.P,J3,4*%
X65532000Y-94107000D03*
%TO.P,J3,3*%
X68072000Y-94107000D03*
%TO.P,J3,2*%
X65532000Y-91567000D03*
D13*
%TO.P,J3,1*%
%TO.N,+3V3*%
X68072000Y-91567000D03*
%TD*%
D14*
%TO.P,J1,2*%
%TO.N,+24V*%
X80716000Y-86995000D03*
D15*
%TO.P,J1,1*%
%TO.N,Net-(D3-Pad3)*%
X77216000Y-86995000D03*
%TD*%
D16*
%TO.P,D6,2*%
%TO.N,Net-(D6-Pad2)*%
X65532000Y-121920000D03*
D17*
%TO.P,D6,1*%
%TO.N,GNDREF*%
X65532000Y-119380000D03*
%TD*%
D16*
%TO.P,D5,2*%
%TO.N,Net-(D5-Pad2)*%
X65532000Y-137160000D03*
D17*
%TO.P,D5,1*%
%TO.N,GNDD*%
X65532000Y-134620000D03*
%TD*%
D16*
%TO.P,D4,2*%
%TO.N,Net-(D4-Pad2)*%
X65532000Y-127000000D03*
D17*
%TO.P,D4,1*%
%TO.N,RX*%
X65532000Y-124460000D03*
%TD*%
D16*
%TO.P,D2,2*%
%TO.N,MP11*%
X65532000Y-132080000D03*
D17*
%TO.P,D2,1*%
%TO.N,MP12*%
X65532000Y-129540000D03*
%TD*%
D18*
%TO.N,GNDD*%
X77343000Y-114554000D03*
X80899000Y-114554000D03*
X89810010Y-105283000D03*
X87884000Y-117221000D03*
X74422000Y-109982000D03*
X75057000Y-107025999D03*
X86849999Y-103288000D03*
%TO.N,SIGNAL*%
X83439000Y-109728000D03*
X78867000Y-113284000D03*
%TO.N,GNDREF*%
X76066653Y-117989347D03*
%TO.N,+3V3*%
X71299007Y-113750250D03*
X73130654Y-106828346D03*
%TO.N,Net-(D3-Pad3)*%
X71755000Y-99822000D03*
%TO.N,RX*%
X78613000Y-122682000D03*
%TO.N,+24V*%
X76708000Y-99568000D03*
%TO.N,MP1*%
X79295001Y-105378345D03*
X79286654Y-107784346D03*
X77416999Y-113556740D03*
X91329359Y-127618641D03*
X89154000Y-128143000D03*
%TO.N,MP5*%
X77724000Y-126746000D03*
X88900000Y-114046000D03*
X81195011Y-107061000D03*
%TO.N,MP6*%
X70017000Y-119290000D03*
X71467000Y-119290000D03*
%TO.N,MP11*%
X67183000Y-130683000D03*
%TO.N,MP12*%
X82423000Y-119507000D03*
%TO.N,MP13*%
X74803000Y-121412000D03*
X80645000Y-118491000D03*
%TO.N,MP10*%
X92060029Y-115189000D03*
X92060029Y-121793000D03*
X69342000Y-130265000D03*
%TO.N,MP9*%
X88646000Y-124079000D03*
X83460010Y-104013000D03*
%TO.N,MP4*%
X81407000Y-103759000D03*
%TO.N,MP7*%
X85725000Y-111252000D03*
X85725000Y-107188000D03*
%TO.N,MP3*%
X86868000Y-106299000D03*
%TD*%
D19*
%TO.N,GNDD*%
X77343000Y-114554000D02*
X80899000Y-114554000D01*
X87884000Y-107209010D02*
X87884000Y-117221000D01*
X89810010Y-105283000D02*
X87884000Y-107209010D01*
X74422000Y-107660999D02*
X75057000Y-107025999D01*
X74422000Y-109982000D02*
X74422000Y-107660999D01*
X83657008Y-105283000D02*
X89244325Y-105283000D01*
X82735009Y-103664999D02*
X82735009Y-104361001D01*
X89244325Y-105283000D02*
X89810010Y-105283000D01*
X83112008Y-103288000D02*
X82735009Y-103664999D01*
X86849999Y-103288000D02*
X83112008Y-103288000D01*
X66941000Y-104521000D02*
X82931000Y-104521000D01*
X65405000Y-106057000D02*
X66941000Y-104521000D01*
X65405000Y-106807000D02*
X65405000Y-106057000D01*
X82931000Y-104521000D02*
X83657008Y-105283000D01*
X82735009Y-104361001D02*
X82931000Y-104521000D01*
X77343000Y-114554000D02*
X76454000Y-114554000D01*
X74422000Y-112522000D02*
X74422000Y-109982000D01*
X76454000Y-114554000D02*
X74422000Y-112522000D01*
%TO.N,SIGNAL*%
X83439000Y-109728000D02*
X82423000Y-109728000D01*
X82423000Y-109728000D02*
X78867000Y-113284000D01*
%TO.N,GNDREF*%
X76066653Y-117989347D02*
X74041000Y-120015000D01*
X74041000Y-120015000D02*
X67437000Y-120015000D01*
X66802000Y-119380000D02*
X65532000Y-119380000D01*
X67437000Y-120015000D02*
X66802000Y-119380000D01*
%TO.N,+3V3*%
X71299007Y-108659993D02*
X73130654Y-106828346D01*
X71299007Y-113750250D02*
X71299007Y-108659993D01*
D20*
%TO.N,Net-(D3-Pad3)*%
X71755000Y-89105000D02*
X71755000Y-99822000D01*
X73865000Y-86995000D02*
X77216000Y-86995000D01*
X71755000Y-89105000D02*
X73865000Y-86995000D01*
D19*
%TO.N,RX*%
X76835000Y-124460000D02*
X78613000Y-122682000D01*
X65532000Y-124460000D02*
X76835000Y-124460000D01*
D20*
%TO.N,+24V*%
X80716000Y-95560000D02*
X76708000Y-99568000D01*
X80716000Y-95560000D02*
X80716000Y-86995000D01*
D19*
%TO.N,MP1*%
X68103655Y-105378345D02*
X79295001Y-105378345D01*
X66675000Y-106807000D02*
X68103655Y-105378345D01*
X77416999Y-109654001D02*
X77416999Y-113556740D01*
X79286654Y-107784346D02*
X77416999Y-109654001D01*
X89678359Y-127618641D02*
X89154000Y-128143000D01*
X91329359Y-127618641D02*
X89678359Y-127618641D01*
%TO.N,MP5*%
X88900000Y-117475000D02*
X88900000Y-114046000D01*
X79629000Y-126746000D02*
X77724000Y-126746000D01*
X88900000Y-117475000D02*
X79629000Y-126746000D01*
X78141999Y-113632001D02*
X78141999Y-110114012D01*
X78141999Y-110114012D02*
X81195011Y-107061000D01*
X80550999Y-113828999D02*
X80276008Y-114103990D01*
X81247001Y-113828999D02*
X80550999Y-113828999D01*
X81624001Y-114205999D02*
X81247001Y-113828999D01*
X81624001Y-114902001D02*
X81624001Y-114205999D01*
X81247001Y-115279001D02*
X81624001Y-114902001D01*
X70067001Y-115279001D02*
X81247001Y-115279001D01*
X78613988Y-114103990D02*
X78141999Y-113632001D01*
X80276008Y-114103990D02*
X78613988Y-114103990D01*
X66675000Y-111887000D02*
X70067001Y-115279001D01*
%TO.N,MP6*%
X70017000Y-119290000D02*
X71467000Y-119290000D01*
%TO.N,MP11*%
X67100999Y-130765001D02*
X67183000Y-130683000D01*
X64371999Y-130765001D02*
X67100999Y-130765001D01*
X63856990Y-130249992D02*
X64371999Y-130765001D01*
X63856990Y-113435010D02*
X63856990Y-130249992D01*
X65405000Y-111887000D02*
X63856990Y-113435010D01*
%TO.N,MP12*%
X82423000Y-120396000D02*
X82423000Y-119507000D01*
X73279000Y-129540000D02*
X82423000Y-120396000D01*
X64306999Y-127588001D02*
X64988998Y-128270000D01*
X64306999Y-114255001D02*
X64306999Y-127588001D01*
X65405000Y-113157000D02*
X64306999Y-114255001D01*
X66548000Y-128270000D02*
X67818000Y-129540000D01*
X64988998Y-128270000D02*
X66548000Y-128270000D01*
X67818000Y-129540000D02*
X73279000Y-129540000D01*
X65532000Y-129540000D02*
X67818000Y-129540000D01*
%TO.N,MP13*%
X77724000Y-121412000D02*
X80645000Y-118491000D01*
X74803000Y-121412000D02*
X77724000Y-121412000D01*
X76791654Y-119423346D02*
X75202999Y-121012001D01*
X76791654Y-117641346D02*
X76791654Y-119423346D01*
X76414654Y-117264346D02*
X76791654Y-117641346D01*
X67535240Y-117264346D02*
X76414654Y-117264346D01*
X65405000Y-115134106D02*
X67535240Y-117264346D01*
X75202999Y-121012001D02*
X74803000Y-121412000D01*
X65405000Y-114427000D02*
X65405000Y-115134106D01*
%TO.N,MP10*%
X92060029Y-115189000D02*
X92060029Y-121793000D01*
X83588029Y-130265000D02*
X92060029Y-121793000D01*
X69342000Y-130265000D02*
X83588029Y-130265000D01*
%TO.N,MP9*%
X90535011Y-104934999D02*
X89613012Y-104013000D01*
X90535011Y-122189989D02*
X90535011Y-104934999D01*
X88646000Y-124079000D02*
X90535011Y-122189989D01*
X87198000Y-102562999D02*
X87575000Y-102939999D01*
X87575000Y-103941000D02*
X87503000Y-104013000D01*
X83200599Y-102562999D02*
X87198000Y-102562999D01*
X82766598Y-102997000D02*
X83200599Y-102562999D01*
X66993588Y-102997000D02*
X82766598Y-102997000D01*
X63596010Y-106394578D02*
X66993588Y-102997000D01*
X63596010Y-108245116D02*
X63596010Y-106394578D01*
X87575000Y-102939999D02*
X87575000Y-103941000D01*
X64697894Y-109347000D02*
X63596010Y-108245116D01*
X65405000Y-109347000D02*
X64697894Y-109347000D01*
X87503000Y-104013000D02*
X83460010Y-104013000D01*
X89613012Y-104013000D02*
X87503000Y-104013000D01*
%TO.N,MP4*%
X66867998Y-103759000D02*
X81407000Y-103759000D01*
X64579999Y-106046999D02*
X66867998Y-103759000D01*
X64579999Y-107959105D02*
X64579999Y-106046999D01*
X64697894Y-108077000D02*
X64579999Y-107959105D01*
X65405000Y-108077000D02*
X64697894Y-108077000D01*
%TO.N,MP7*%
X85725000Y-111252000D02*
X85725000Y-107188000D01*
X85725000Y-111817685D02*
X85725000Y-111252000D01*
X81813674Y-115729011D02*
X85725000Y-111817685D01*
X67977011Y-115729011D02*
X81813674Y-115729011D01*
X66675000Y-114427000D02*
X67977011Y-115729011D01*
%TO.N,MP3*%
X86672345Y-106103345D02*
X86868000Y-106299000D01*
X69918655Y-106103345D02*
X86672345Y-106103345D01*
X66675000Y-109347000D02*
X69918655Y-106103345D01*
%TD*%
D21*
G36*
X92685000Y-145509722D02*
G01*
X92641254Y-145955882D01*
X92521055Y-146353999D01*
X92325819Y-146721185D01*
X92062977Y-147043461D01*
X91742548Y-147308542D01*
X91376731Y-147506339D01*
X90979461Y-147629314D01*
X90535274Y-147676000D01*
X66072278Y-147676000D01*
X65626118Y-147632254D01*
X65228001Y-147512055D01*
X64860815Y-147316819D01*
X64538539Y-147053977D01*
X64273458Y-146733548D01*
X64075661Y-146367731D01*
X63952686Y-145970461D01*
X63906000Y-145526274D01*
X63906000Y-144432872D01*
X64694000Y-144432872D01*
X64694000Y-144873128D01*
X64779890Y-145304925D01*
X64948369Y-145711669D01*
X65192962Y-146077729D01*
X65504271Y-146389038D01*
X65870331Y-146633631D01*
X66277075Y-146802110D01*
X66708872Y-146888000D01*
X67149128Y-146888000D01*
X67580925Y-146802110D01*
X67987669Y-146633631D01*
X68353729Y-146389038D01*
X68665038Y-146077729D01*
X68909631Y-145711669D01*
X69078110Y-145304925D01*
X69164000Y-144873128D01*
X69164000Y-144432872D01*
X87427000Y-144432872D01*
X87427000Y-144873128D01*
X87512890Y-145304925D01*
X87681369Y-145711669D01*
X87925962Y-146077729D01*
X88237271Y-146389038D01*
X88603331Y-146633631D01*
X89010075Y-146802110D01*
X89441872Y-146888000D01*
X89882128Y-146888000D01*
X90313925Y-146802110D01*
X90720669Y-146633631D01*
X91086729Y-146389038D01*
X91398038Y-146077729D01*
X91642631Y-145711669D01*
X91811110Y-145304925D01*
X91897000Y-144873128D01*
X91897000Y-144432872D01*
X91811110Y-144001075D01*
X91642631Y-143594331D01*
X91398038Y-143228271D01*
X91086729Y-142916962D01*
X90720669Y-142672369D01*
X90313925Y-142503890D01*
X89882128Y-142418000D01*
X89441872Y-142418000D01*
X89010075Y-142503890D01*
X88603331Y-142672369D01*
X88237271Y-142916962D01*
X87925962Y-143228271D01*
X87681369Y-143594331D01*
X87512890Y-144001075D01*
X87427000Y-144432872D01*
X69164000Y-144432872D01*
X69078110Y-144001075D01*
X68909631Y-143594331D01*
X68665038Y-143228271D01*
X68353729Y-142916962D01*
X67987669Y-142672369D01*
X67580925Y-142503890D01*
X67149128Y-142418000D01*
X66708872Y-142418000D01*
X66277075Y-142503890D01*
X65870331Y-142672369D01*
X65504271Y-142916962D01*
X65192962Y-143228271D01*
X64948369Y-143594331D01*
X64779890Y-144001075D01*
X64694000Y-144432872D01*
X63906000Y-144432872D01*
X63906000Y-131365734D01*
X63947723Y-131399975D01*
X64079752Y-131470547D01*
X64118147Y-131482194D01*
X64055989Y-131632257D01*
X63997000Y-131928816D01*
X63997000Y-132231184D01*
X64055989Y-132527743D01*
X64171701Y-132807095D01*
X64339688Y-133058505D01*
X64406127Y-133124944D01*
X64387820Y-133130498D01*
X64277506Y-133189463D01*
X64180815Y-133268815D01*
X64101463Y-133365506D01*
X64042498Y-133475820D01*
X64006188Y-133595518D01*
X63993928Y-133720000D01*
X63993928Y-135520000D01*
X64006188Y-135644482D01*
X64042498Y-135764180D01*
X64101463Y-135874494D01*
X64180815Y-135971185D01*
X64277506Y-136050537D01*
X64387820Y-136109502D01*
X64406127Y-136115056D01*
X64339688Y-136181495D01*
X64171701Y-136432905D01*
X64055989Y-136712257D01*
X63997000Y-137008816D01*
X63997000Y-137311184D01*
X64055989Y-137607743D01*
X64171701Y-137887095D01*
X64339688Y-138138505D01*
X64553495Y-138352312D01*
X64804905Y-138520299D01*
X65084257Y-138636011D01*
X65380816Y-138695000D01*
X65683184Y-138695000D01*
X65979743Y-138636011D01*
X66259095Y-138520299D01*
X66510505Y-138352312D01*
X66724312Y-138138505D01*
X66892299Y-137887095D01*
X67008011Y-137607743D01*
X67067000Y-137311184D01*
X67067000Y-137008816D01*
X67008011Y-136712257D01*
X66892299Y-136432905D01*
X66724312Y-136181495D01*
X66657873Y-136115056D01*
X66676180Y-136109502D01*
X66786494Y-136050537D01*
X66883185Y-135971185D01*
X66962537Y-135874494D01*
X67021502Y-135764180D01*
X67057812Y-135644482D01*
X67070072Y-135520000D01*
X67070072Y-133720000D01*
X67057812Y-133595518D01*
X67021502Y-133475820D01*
X66962537Y-133365506D01*
X66883185Y-133268815D01*
X66786494Y-133189463D01*
X66676180Y-133130498D01*
X66657873Y-133124944D01*
X66724312Y-133058505D01*
X66892299Y-132807095D01*
X67008011Y-132527743D01*
X67067000Y-132231184D01*
X67067000Y-131928816D01*
X67022760Y-131706403D01*
X67081061Y-131718000D01*
X67284939Y-131718000D01*
X67484898Y-131678226D01*
X67673256Y-131600205D01*
X67842774Y-131486937D01*
X67986937Y-131342774D01*
X68100205Y-131173256D01*
X68178226Y-130984898D01*
X68218000Y-130784939D01*
X68218000Y-130581061D01*
X68178226Y-130381102D01*
X68144632Y-130300000D01*
X68307000Y-130300000D01*
X68307000Y-130366939D01*
X68346774Y-130566898D01*
X68424795Y-130755256D01*
X68538063Y-130924774D01*
X68682226Y-131068937D01*
X68851744Y-131182205D01*
X69040102Y-131260226D01*
X69240061Y-131300000D01*
X69443939Y-131300000D01*
X69643898Y-131260226D01*
X69832256Y-131182205D01*
X70001774Y-131068937D01*
X70045711Y-131025000D01*
X83550707Y-131025000D01*
X83588029Y-131028676D01*
X83625351Y-131025000D01*
X83625362Y-131025000D01*
X83737015Y-131014003D01*
X83880276Y-130970546D01*
X84012305Y-130899974D01*
X84128030Y-130805001D01*
X84151833Y-130775997D01*
X86886769Y-128041061D01*
X88119000Y-128041061D01*
X88119000Y-128244939D01*
X88158774Y-128444898D01*
X88236795Y-128633256D01*
X88350063Y-128802774D01*
X88494226Y-128946937D01*
X88663744Y-129060205D01*
X88852102Y-129138226D01*
X89052061Y-129178000D01*
X89255939Y-129178000D01*
X89455898Y-129138226D01*
X89644256Y-129060205D01*
X89813774Y-128946937D01*
X89957937Y-128802774D01*
X90071205Y-128633256D01*
X90149226Y-128444898D01*
X90162405Y-128378641D01*
X90625648Y-128378641D01*
X90669585Y-128422578D01*
X90839103Y-128535846D01*
X91027461Y-128613867D01*
X91227420Y-128653641D01*
X91431298Y-128653641D01*
X91631257Y-128613867D01*
X91819615Y-128535846D01*
X91989133Y-128422578D01*
X92133296Y-128278415D01*
X92246564Y-128108897D01*
X92324585Y-127920539D01*
X92364359Y-127720580D01*
X92364359Y-127516702D01*
X92324585Y-127316743D01*
X92246564Y-127128385D01*
X92133296Y-126958867D01*
X91989133Y-126814704D01*
X91819615Y-126701436D01*
X91631257Y-126623415D01*
X91431298Y-126583641D01*
X91227420Y-126583641D01*
X91027461Y-126623415D01*
X90839103Y-126701436D01*
X90669585Y-126814704D01*
X90625648Y-126858641D01*
X89715692Y-126858641D01*
X89678359Y-126854964D01*
X89641026Y-126858641D01*
X89529373Y-126869638D01*
X89386112Y-126913095D01*
X89254083Y-126983667D01*
X89138358Y-127078640D01*
X89114559Y-127107639D01*
X89114198Y-127108000D01*
X89052061Y-127108000D01*
X88852102Y-127147774D01*
X88663744Y-127225795D01*
X88494226Y-127339063D01*
X88350063Y-127483226D01*
X88236795Y-127652744D01*
X88158774Y-127841102D01*
X88119000Y-128041061D01*
X86886769Y-128041061D01*
X92099831Y-122828000D01*
X92161968Y-122828000D01*
X92361927Y-122788226D01*
X92550285Y-122710205D01*
X92685000Y-122620191D01*
X92685000Y-145509722D01*
G37*
X92685000Y-145509722D02*
X92641254Y-145955882D01*
X92521055Y-146353999D01*
X92325819Y-146721185D01*
X92062977Y-147043461D01*
X91742548Y-147308542D01*
X91376731Y-147506339D01*
X90979461Y-147629314D01*
X90535274Y-147676000D01*
X66072278Y-147676000D01*
X65626118Y-147632254D01*
X65228001Y-147512055D01*
X64860815Y-147316819D01*
X64538539Y-147053977D01*
X64273458Y-146733548D01*
X64075661Y-146367731D01*
X63952686Y-145970461D01*
X63906000Y-145526274D01*
X63906000Y-144432872D01*
X64694000Y-144432872D01*
X64694000Y-144873128D01*
X64779890Y-145304925D01*
X64948369Y-145711669D01*
X65192962Y-146077729D01*
X65504271Y-146389038D01*
X65870331Y-146633631D01*
X66277075Y-146802110D01*
X66708872Y-146888000D01*
X67149128Y-146888000D01*
X67580925Y-146802110D01*
X67987669Y-146633631D01*
X68353729Y-146389038D01*
X68665038Y-146077729D01*
X68909631Y-145711669D01*
X69078110Y-145304925D01*
X69164000Y-144873128D01*
X69164000Y-144432872D01*
X87427000Y-144432872D01*
X87427000Y-144873128D01*
X87512890Y-145304925D01*
X87681369Y-145711669D01*
X87925962Y-146077729D01*
X88237271Y-146389038D01*
X88603331Y-146633631D01*
X89010075Y-146802110D01*
X89441872Y-146888000D01*
X89882128Y-146888000D01*
X90313925Y-146802110D01*
X90720669Y-146633631D01*
X91086729Y-146389038D01*
X91398038Y-146077729D01*
X91642631Y-145711669D01*
X91811110Y-145304925D01*
X91897000Y-144873128D01*
X91897000Y-144432872D01*
X91811110Y-144001075D01*
X91642631Y-143594331D01*
X91398038Y-143228271D01*
X91086729Y-142916962D01*
X90720669Y-142672369D01*
X90313925Y-142503890D01*
X89882128Y-142418000D01*
X89441872Y-142418000D01*
X89010075Y-142503890D01*
X88603331Y-142672369D01*
X88237271Y-142916962D01*
X87925962Y-143228271D01*
X87681369Y-143594331D01*
X87512890Y-144001075D01*
X87427000Y-144432872D01*
X69164000Y-144432872D01*
X69078110Y-144001075D01*
X68909631Y-143594331D01*
X68665038Y-143228271D01*
X68353729Y-142916962D01*
X67987669Y-142672369D01*
X67580925Y-142503890D01*
X67149128Y-142418000D01*
X66708872Y-142418000D01*
X66277075Y-142503890D01*
X65870331Y-142672369D01*
X65504271Y-142916962D01*
X65192962Y-143228271D01*
X64948369Y-143594331D01*
X64779890Y-144001075D01*
X64694000Y-144432872D01*
X63906000Y-144432872D01*
X63906000Y-131365734D01*
X63947723Y-131399975D01*
X64079752Y-131470547D01*
X64118147Y-131482194D01*
X64055989Y-131632257D01*
X63997000Y-131928816D01*
X63997000Y-132231184D01*
X64055989Y-132527743D01*
X64171701Y-132807095D01*
X64339688Y-133058505D01*
X64406127Y-133124944D01*
X64387820Y-133130498D01*
X64277506Y-133189463D01*
X64180815Y-133268815D01*
X64101463Y-133365506D01*
X64042498Y-133475820D01*
X64006188Y-133595518D01*
X63993928Y-133720000D01*
X63993928Y-135520000D01*
X64006188Y-135644482D01*
X64042498Y-135764180D01*
X64101463Y-135874494D01*
X64180815Y-135971185D01*
X64277506Y-136050537D01*
X64387820Y-136109502D01*
X64406127Y-136115056D01*
X64339688Y-136181495D01*
X64171701Y-136432905D01*
X64055989Y-136712257D01*
X63997000Y-137008816D01*
X63997000Y-137311184D01*
X64055989Y-137607743D01*
X64171701Y-137887095D01*
X64339688Y-138138505D01*
X64553495Y-138352312D01*
X64804905Y-138520299D01*
X65084257Y-138636011D01*
X65380816Y-138695000D01*
X65683184Y-138695000D01*
X65979743Y-138636011D01*
X66259095Y-138520299D01*
X66510505Y-138352312D01*
X66724312Y-138138505D01*
X66892299Y-137887095D01*
X67008011Y-137607743D01*
X67067000Y-137311184D01*
X67067000Y-137008816D01*
X67008011Y-136712257D01*
X66892299Y-136432905D01*
X66724312Y-136181495D01*
X66657873Y-136115056D01*
X66676180Y-136109502D01*
X66786494Y-136050537D01*
X66883185Y-135971185D01*
X66962537Y-135874494D01*
X67021502Y-135764180D01*
X67057812Y-135644482D01*
X67070072Y-135520000D01*
X67070072Y-133720000D01*
X67057812Y-133595518D01*
X67021502Y-133475820D01*
X66962537Y-133365506D01*
X66883185Y-133268815D01*
X66786494Y-133189463D01*
X66676180Y-133130498D01*
X66657873Y-133124944D01*
X66724312Y-133058505D01*
X66892299Y-132807095D01*
X67008011Y-132527743D01*
X67067000Y-132231184D01*
X67067000Y-131928816D01*
X67022760Y-131706403D01*
X67081061Y-131718000D01*
X67284939Y-131718000D01*
X67484898Y-131678226D01*
X67673256Y-131600205D01*
X67842774Y-131486937D01*
X67986937Y-131342774D01*
X68100205Y-131173256D01*
X68178226Y-130984898D01*
X68218000Y-130784939D01*
X68218000Y-130581061D01*
X68178226Y-130381102D01*
X68144632Y-130300000D01*
X68307000Y-130300000D01*
X68307000Y-130366939D01*
X68346774Y-130566898D01*
X68424795Y-130755256D01*
X68538063Y-130924774D01*
X68682226Y-131068937D01*
X68851744Y-131182205D01*
X69040102Y-131260226D01*
X69240061Y-131300000D01*
X69443939Y-131300000D01*
X69643898Y-131260226D01*
X69832256Y-131182205D01*
X70001774Y-131068937D01*
X70045711Y-131025000D01*
X83550707Y-131025000D01*
X83588029Y-131028676D01*
X83625351Y-131025000D01*
X83625362Y-131025000D01*
X83737015Y-131014003D01*
X83880276Y-130970546D01*
X84012305Y-130899974D01*
X84128030Y-130805001D01*
X84151833Y-130775997D01*
X86886769Y-128041061D01*
X88119000Y-128041061D01*
X88119000Y-128244939D01*
X88158774Y-128444898D01*
X88236795Y-128633256D01*
X88350063Y-128802774D01*
X88494226Y-128946937D01*
X88663744Y-129060205D01*
X88852102Y-129138226D01*
X89052061Y-129178000D01*
X89255939Y-129178000D01*
X89455898Y-129138226D01*
X89644256Y-129060205D01*
X89813774Y-128946937D01*
X89957937Y-128802774D01*
X90071205Y-128633256D01*
X90149226Y-128444898D01*
X90162405Y-128378641D01*
X90625648Y-128378641D01*
X90669585Y-128422578D01*
X90839103Y-128535846D01*
X91027461Y-128613867D01*
X91227420Y-128653641D01*
X91431298Y-128653641D01*
X91631257Y-128613867D01*
X91819615Y-128535846D01*
X91989133Y-128422578D01*
X92133296Y-128278415D01*
X92246564Y-128108897D01*
X92324585Y-127920539D01*
X92364359Y-127720580D01*
X92364359Y-127516702D01*
X92324585Y-127316743D01*
X92246564Y-127128385D01*
X92133296Y-126958867D01*
X91989133Y-126814704D01*
X91819615Y-126701436D01*
X91631257Y-126623415D01*
X91431298Y-126583641D01*
X91227420Y-126583641D01*
X91027461Y-126623415D01*
X90839103Y-126701436D01*
X90669585Y-126814704D01*
X90625648Y-126858641D01*
X89715692Y-126858641D01*
X89678359Y-126854964D01*
X89641026Y-126858641D01*
X89529373Y-126869638D01*
X89386112Y-126913095D01*
X89254083Y-126983667D01*
X89138358Y-127078640D01*
X89114559Y-127107639D01*
X89114198Y-127108000D01*
X89052061Y-127108000D01*
X88852102Y-127147774D01*
X88663744Y-127225795D01*
X88494226Y-127339063D01*
X88350063Y-127483226D01*
X88236795Y-127652744D01*
X88158774Y-127841102D01*
X88119000Y-128041061D01*
X86886769Y-128041061D01*
X92099831Y-122828000D01*
X92161968Y-122828000D01*
X92361927Y-122788226D01*
X92550285Y-122710205D01*
X92685000Y-122620191D01*
X92685000Y-145509722D01*
G36*
X89775011Y-121875187D02*
G01*
X88606199Y-123044000D01*
X88544061Y-123044000D01*
X88344102Y-123083774D01*
X88155744Y-123161795D01*
X87986226Y-123275063D01*
X87842063Y-123419226D01*
X87728795Y-123588744D01*
X87650774Y-123777102D01*
X87611000Y-123977061D01*
X87611000Y-124180939D01*
X87650774Y-124380898D01*
X87728795Y-124569256D01*
X87842063Y-124738774D01*
X87940758Y-124837469D01*
X83273228Y-129505000D01*
X74388801Y-129505000D01*
X76763081Y-127130721D01*
X76806795Y-127236256D01*
X76920063Y-127405774D01*
X77064226Y-127549937D01*
X77233744Y-127663205D01*
X77422102Y-127741226D01*
X77622061Y-127781000D01*
X77825939Y-127781000D01*
X78025898Y-127741226D01*
X78214256Y-127663205D01*
X78383774Y-127549937D01*
X78427711Y-127506000D01*
X79591678Y-127506000D01*
X79629000Y-127509676D01*
X79666322Y-127506000D01*
X79666333Y-127506000D01*
X79777986Y-127495003D01*
X79921247Y-127451546D01*
X80053276Y-127380974D01*
X80169001Y-127286001D01*
X80192804Y-127256997D01*
X89411004Y-118038798D01*
X89440001Y-118015001D01*
X89512057Y-117927201D01*
X89534974Y-117899277D01*
X89605546Y-117767247D01*
X89629396Y-117688622D01*
X89649003Y-117623986D01*
X89660000Y-117512333D01*
X89660000Y-117512323D01*
X89663676Y-117475000D01*
X89660000Y-117437677D01*
X89660000Y-114749711D01*
X89703937Y-114705774D01*
X89775011Y-114599403D01*
X89775011Y-121875187D01*
G37*
X89775011Y-121875187D02*
X88606199Y-123044000D01*
X88544061Y-123044000D01*
X88344102Y-123083774D01*
X88155744Y-123161795D01*
X87986226Y-123275063D01*
X87842063Y-123419226D01*
X87728795Y-123588744D01*
X87650774Y-123777102D01*
X87611000Y-123977061D01*
X87611000Y-124180939D01*
X87650774Y-124380898D01*
X87728795Y-124569256D01*
X87842063Y-124738774D01*
X87940758Y-124837469D01*
X83273228Y-129505000D01*
X74388801Y-129505000D01*
X76763081Y-127130721D01*
X76806795Y-127236256D01*
X76920063Y-127405774D01*
X77064226Y-127549937D01*
X77233744Y-127663205D01*
X77422102Y-127741226D01*
X77622061Y-127781000D01*
X77825939Y-127781000D01*
X78025898Y-127741226D01*
X78214256Y-127663205D01*
X78383774Y-127549937D01*
X78427711Y-127506000D01*
X79591678Y-127506000D01*
X79629000Y-127509676D01*
X79666322Y-127506000D01*
X79666333Y-127506000D01*
X79777986Y-127495003D01*
X79921247Y-127451546D01*
X80053276Y-127380974D01*
X80169001Y-127286001D01*
X80192804Y-127256997D01*
X89411004Y-118038798D01*
X89440001Y-118015001D01*
X89512057Y-117927201D01*
X89534974Y-117899277D01*
X89605546Y-117767247D01*
X89629396Y-117688622D01*
X89649003Y-117623986D01*
X89660000Y-117512333D01*
X89660000Y-117512323D01*
X89663676Y-117475000D01*
X89660000Y-117437677D01*
X89660000Y-114749711D01*
X89703937Y-114705774D01*
X89775011Y-114599403D01*
X89775011Y-121875187D01*
G36*
X72964199Y-128780000D02*
G01*
X68132802Y-128780000D01*
X67111804Y-127759003D01*
X67088001Y-127729999D01*
X66972276Y-127635026D01*
X66938020Y-127616715D01*
X67008011Y-127447743D01*
X67067000Y-127151184D01*
X67067000Y-126848816D01*
X67008011Y-126552257D01*
X66892299Y-126272905D01*
X66724312Y-126021495D01*
X66657873Y-125955056D01*
X66676180Y-125949502D01*
X66786494Y-125890537D01*
X66883185Y-125811185D01*
X66962537Y-125714494D01*
X67021502Y-125604180D01*
X67057812Y-125484482D01*
X67070072Y-125360000D01*
X67070072Y-125220000D01*
X76524199Y-125220000D01*
X72964199Y-128780000D01*
G37*
X72964199Y-128780000D02*
X68132802Y-128780000D01*
X67111804Y-127759003D01*
X67088001Y-127729999D01*
X66972276Y-127635026D01*
X66938020Y-127616715D01*
X67008011Y-127447743D01*
X67067000Y-127151184D01*
X67067000Y-126848816D01*
X67008011Y-126552257D01*
X66892299Y-126272905D01*
X66724312Y-126021495D01*
X66657873Y-125955056D01*
X66676180Y-125949502D01*
X66786494Y-125890537D01*
X66883185Y-125811185D01*
X66962537Y-125714494D01*
X67021502Y-125604180D01*
X67057812Y-125484482D01*
X67070072Y-125360000D01*
X67070072Y-125220000D01*
X76524199Y-125220000D01*
X72964199Y-128780000D01*
G36*
X87124001Y-116517288D02*
G01*
X87080063Y-116561226D01*
X86966795Y-116730744D01*
X86888774Y-116919102D01*
X86849000Y-117119061D01*
X86849000Y-117322939D01*
X86888774Y-117522898D01*
X86966795Y-117711256D01*
X87080063Y-117880774D01*
X87224226Y-118024937D01*
X87254819Y-118045379D01*
X79314199Y-125986000D01*
X78427711Y-125986000D01*
X78383774Y-125942063D01*
X78214256Y-125828795D01*
X78108721Y-125785081D01*
X82934004Y-120959798D01*
X82963001Y-120936001D01*
X83057974Y-120820276D01*
X83128546Y-120688247D01*
X83172003Y-120544986D01*
X83183000Y-120433333D01*
X83183000Y-120433323D01*
X83186676Y-120396000D01*
X83183000Y-120358677D01*
X83183000Y-120210711D01*
X83226937Y-120166774D01*
X83340205Y-119997256D01*
X83418226Y-119808898D01*
X83458000Y-119608939D01*
X83458000Y-119405061D01*
X83418226Y-119205102D01*
X83340205Y-119016744D01*
X83226937Y-118847226D01*
X83082774Y-118703063D01*
X82913256Y-118589795D01*
X82724898Y-118511774D01*
X82524939Y-118472000D01*
X82321061Y-118472000D01*
X82121102Y-118511774D01*
X81932744Y-118589795D01*
X81763226Y-118703063D01*
X81619063Y-118847226D01*
X81615536Y-118852505D01*
X81640226Y-118792898D01*
X81680000Y-118592939D01*
X81680000Y-118389061D01*
X81640226Y-118189102D01*
X81562205Y-118000744D01*
X81448937Y-117831226D01*
X81304774Y-117687063D01*
X81135256Y-117573795D01*
X80946898Y-117495774D01*
X80746939Y-117456000D01*
X80543061Y-117456000D01*
X80343102Y-117495774D01*
X80154744Y-117573795D01*
X79985226Y-117687063D01*
X79841063Y-117831226D01*
X79727795Y-118000744D01*
X79649774Y-118189102D01*
X79610000Y-118389061D01*
X79610000Y-118451198D01*
X77409199Y-120652000D01*
X76637802Y-120652000D01*
X77302662Y-119987141D01*
X77331655Y-119963347D01*
X77355449Y-119934354D01*
X77355453Y-119934350D01*
X77426627Y-119847623D01*
X77426628Y-119847622D01*
X77497200Y-119715593D01*
X77540657Y-119572332D01*
X77551654Y-119460679D01*
X77551654Y-119460670D01*
X77555330Y-119423347D01*
X77551654Y-119386024D01*
X77551654Y-117678679D01*
X77555331Y-117641346D01*
X77540657Y-117492360D01*
X77497200Y-117349099D01*
X77451897Y-117264345D01*
X77426628Y-117217070D01*
X77331655Y-117101345D01*
X77302652Y-117077543D01*
X76978458Y-116753349D01*
X76954655Y-116724345D01*
X76838930Y-116629372D01*
X76706901Y-116558800D01*
X76563640Y-116515343D01*
X76451987Y-116504346D01*
X76451976Y-116504346D01*
X76414654Y-116500670D01*
X76377332Y-116504346D01*
X69977000Y-116504346D01*
X69977000Y-116489011D01*
X81776352Y-116489011D01*
X81813674Y-116492687D01*
X81850996Y-116489011D01*
X81851007Y-116489011D01*
X81962660Y-116478014D01*
X82105921Y-116434557D01*
X82237950Y-116363985D01*
X82353675Y-116269012D01*
X82377478Y-116240008D01*
X86236004Y-112381483D01*
X86265001Y-112357686D01*
X86359974Y-112241961D01*
X86430546Y-112109932D01*
X86473987Y-111966724D01*
X86528937Y-111911774D01*
X86642205Y-111742256D01*
X86720226Y-111553898D01*
X86760000Y-111353939D01*
X86760000Y-111150061D01*
X86720226Y-110950102D01*
X86642205Y-110761744D01*
X86528937Y-110592226D01*
X86485000Y-110548289D01*
X86485000Y-107891711D01*
X86528937Y-107847774D01*
X86642205Y-107678256D01*
X86720226Y-107489898D01*
X86751800Y-107331163D01*
X86766061Y-107334000D01*
X86969939Y-107334000D01*
X87124000Y-107303356D01*
X87124001Y-116517288D01*
G37*
X87124001Y-116517288D02*
X87080063Y-116561226D01*
X86966795Y-116730744D01*
X86888774Y-116919102D01*
X86849000Y-117119061D01*
X86849000Y-117322939D01*
X86888774Y-117522898D01*
X86966795Y-117711256D01*
X87080063Y-117880774D01*
X87224226Y-118024937D01*
X87254819Y-118045379D01*
X79314199Y-125986000D01*
X78427711Y-125986000D01*
X78383774Y-125942063D01*
X78214256Y-125828795D01*
X78108721Y-125785081D01*
X82934004Y-120959798D01*
X82963001Y-120936001D01*
X83057974Y-120820276D01*
X83128546Y-120688247D01*
X83172003Y-120544986D01*
X83183000Y-120433333D01*
X83183000Y-120433323D01*
X83186676Y-120396000D01*
X83183000Y-120358677D01*
X83183000Y-120210711D01*
X83226937Y-120166774D01*
X83340205Y-119997256D01*
X83418226Y-119808898D01*
X83458000Y-119608939D01*
X83458000Y-119405061D01*
X83418226Y-119205102D01*
X83340205Y-119016744D01*
X83226937Y-118847226D01*
X83082774Y-118703063D01*
X82913256Y-118589795D01*
X82724898Y-118511774D01*
X82524939Y-118472000D01*
X82321061Y-118472000D01*
X82121102Y-118511774D01*
X81932744Y-118589795D01*
X81763226Y-118703063D01*
X81619063Y-118847226D01*
X81615536Y-118852505D01*
X81640226Y-118792898D01*
X81680000Y-118592939D01*
X81680000Y-118389061D01*
X81640226Y-118189102D01*
X81562205Y-118000744D01*
X81448937Y-117831226D01*
X81304774Y-117687063D01*
X81135256Y-117573795D01*
X80946898Y-117495774D01*
X80746939Y-117456000D01*
X80543061Y-117456000D01*
X80343102Y-117495774D01*
X80154744Y-117573795D01*
X79985226Y-117687063D01*
X79841063Y-117831226D01*
X79727795Y-118000744D01*
X79649774Y-118189102D01*
X79610000Y-118389061D01*
X79610000Y-118451198D01*
X77409199Y-120652000D01*
X76637802Y-120652000D01*
X77302662Y-119987141D01*
X77331655Y-119963347D01*
X77355449Y-119934354D01*
X77355453Y-119934350D01*
X77426627Y-119847623D01*
X77426628Y-119847622D01*
X77497200Y-119715593D01*
X77540657Y-119572332D01*
X77551654Y-119460679D01*
X77551654Y-119460670D01*
X77555330Y-119423347D01*
X77551654Y-119386024D01*
X77551654Y-117678679D01*
X77555331Y-117641346D01*
X77540657Y-117492360D01*
X77497200Y-117349099D01*
X77451897Y-117264345D01*
X77426628Y-117217070D01*
X77331655Y-117101345D01*
X77302652Y-117077543D01*
X76978458Y-116753349D01*
X76954655Y-116724345D01*
X76838930Y-116629372D01*
X76706901Y-116558800D01*
X76563640Y-116515343D01*
X76451987Y-116504346D01*
X76451976Y-116504346D01*
X76414654Y-116500670D01*
X76377332Y-116504346D01*
X69977000Y-116504346D01*
X69977000Y-116489011D01*
X81776352Y-116489011D01*
X81813674Y-116492687D01*
X81850996Y-116489011D01*
X81851007Y-116489011D01*
X81962660Y-116478014D01*
X82105921Y-116434557D01*
X82237950Y-116363985D01*
X82353675Y-116269012D01*
X82377478Y-116240008D01*
X86236004Y-112381483D01*
X86265001Y-112357686D01*
X86359974Y-112241961D01*
X86430546Y-112109932D01*
X86473987Y-111966724D01*
X86528937Y-111911774D01*
X86642205Y-111742256D01*
X86720226Y-111553898D01*
X86760000Y-111353939D01*
X86760000Y-111150061D01*
X86720226Y-110950102D01*
X86642205Y-110761744D01*
X86528937Y-110592226D01*
X86485000Y-110548289D01*
X86485000Y-107891711D01*
X86528937Y-107847774D01*
X86642205Y-107678256D01*
X86720226Y-107489898D01*
X86751800Y-107331163D01*
X86766061Y-107334000D01*
X86969939Y-107334000D01*
X87124000Y-107303356D01*
X87124001Y-116517288D01*
G36*
X67012724Y-120649974D02*
G01*
X67144753Y-120720546D01*
X67288014Y-120764003D01*
X67437000Y-120778677D01*
X67474333Y-120775000D01*
X73983846Y-120775000D01*
X73885795Y-120921744D01*
X73807774Y-121110102D01*
X73768000Y-121310061D01*
X73768000Y-121513939D01*
X73807774Y-121713898D01*
X73885795Y-121902256D01*
X73999063Y-122071774D01*
X74143226Y-122215937D01*
X74312744Y-122329205D01*
X74501102Y-122407226D01*
X74701061Y-122447000D01*
X74904939Y-122447000D01*
X75104898Y-122407226D01*
X75293256Y-122329205D01*
X75462774Y-122215937D01*
X75506711Y-122172000D01*
X77686678Y-122172000D01*
X77707610Y-122174062D01*
X77695795Y-122191744D01*
X77617774Y-122380102D01*
X77578000Y-122580061D01*
X77578000Y-122642198D01*
X76520199Y-123700000D01*
X67070072Y-123700000D01*
X67070072Y-123560000D01*
X67057812Y-123435518D01*
X67021502Y-123315820D01*
X66962537Y-123205506D01*
X66883185Y-123108815D01*
X66786494Y-123029463D01*
X66676180Y-122970498D01*
X66657873Y-122964944D01*
X66724312Y-122898505D01*
X66892299Y-122647095D01*
X67008011Y-122367743D01*
X67067000Y-122071184D01*
X67067000Y-121768816D01*
X67008011Y-121472257D01*
X66892299Y-121192905D01*
X66724312Y-120941495D01*
X66657873Y-120875056D01*
X66676180Y-120869502D01*
X66786494Y-120810537D01*
X66883185Y-120731185D01*
X66962537Y-120634494D01*
X66972088Y-120616625D01*
X67012724Y-120649974D01*
G37*
X67012724Y-120649974D02*
X67144753Y-120720546D01*
X67288014Y-120764003D01*
X67437000Y-120778677D01*
X67474333Y-120775000D01*
X73983846Y-120775000D01*
X73885795Y-120921744D01*
X73807774Y-121110102D01*
X73768000Y-121310061D01*
X73768000Y-121513939D01*
X73807774Y-121713898D01*
X73885795Y-121902256D01*
X73999063Y-122071774D01*
X74143226Y-122215937D01*
X74312744Y-122329205D01*
X74501102Y-122407226D01*
X74701061Y-122447000D01*
X74904939Y-122447000D01*
X75104898Y-122407226D01*
X75293256Y-122329205D01*
X75462774Y-122215937D01*
X75506711Y-122172000D01*
X77686678Y-122172000D01*
X77707610Y-122174062D01*
X77695795Y-122191744D01*
X77617774Y-122380102D01*
X77578000Y-122580061D01*
X77578000Y-122642198D01*
X76520199Y-123700000D01*
X67070072Y-123700000D01*
X67070072Y-123560000D01*
X67057812Y-123435518D01*
X67021502Y-123315820D01*
X66962537Y-123205506D01*
X66883185Y-123108815D01*
X66786494Y-123029463D01*
X66676180Y-122970498D01*
X66657873Y-122964944D01*
X66724312Y-122898505D01*
X66892299Y-122647095D01*
X67008011Y-122367743D01*
X67067000Y-122071184D01*
X67067000Y-121768816D01*
X67008011Y-121472257D01*
X66892299Y-121192905D01*
X66724312Y-120941495D01*
X66657873Y-120875056D01*
X66676180Y-120869502D01*
X66786494Y-120810537D01*
X66883185Y-120731185D01*
X66962537Y-120634494D01*
X66972088Y-120616625D01*
X67012724Y-120649974D01*
G36*
X81427774Y-119205102D02*
G01*
X81388000Y-119405061D01*
X81388000Y-119608939D01*
X81427774Y-119808898D01*
X81505795Y-119997256D01*
X81602385Y-120141813D01*
X79536722Y-122207477D01*
X79530205Y-122191744D01*
X79416937Y-122022226D01*
X79272774Y-121878063D01*
X79103256Y-121764795D01*
X78914898Y-121686774D01*
X78714939Y-121647000D01*
X78563801Y-121647000D01*
X80684802Y-119526000D01*
X80746939Y-119526000D01*
X80946898Y-119486226D01*
X81135256Y-119408205D01*
X81304774Y-119294937D01*
X81448937Y-119150774D01*
X81452464Y-119145495D01*
X81427774Y-119205102D01*
G37*
X81427774Y-119205102D02*
X81388000Y-119405061D01*
X81388000Y-119608939D01*
X81427774Y-119808898D01*
X81505795Y-119997256D01*
X81602385Y-120141813D01*
X79536722Y-122207477D01*
X79530205Y-122191744D01*
X79416937Y-122022226D01*
X79272774Y-121878063D01*
X79103256Y-121764795D01*
X78914898Y-121686774D01*
X78714939Y-121647000D01*
X78563801Y-121647000D01*
X80684802Y-119526000D01*
X80746939Y-119526000D01*
X80946898Y-119486226D01*
X81135256Y-119408205D01*
X81304774Y-119294937D01*
X81448937Y-119150774D01*
X81452464Y-119145495D01*
X81427774Y-119205102D01*
G36*
X91300029Y-115892711D02*
G01*
X91300030Y-121089288D01*
X91295011Y-121094307D01*
X91295011Y-115887693D01*
X91300029Y-115892711D01*
G37*
X91300029Y-115892711D02*
X91300030Y-121089288D01*
X91295011Y-121094307D01*
X91295011Y-115887693D01*
X91300029Y-115892711D01*
G36*
X76031655Y-119108542D02*
G01*
X74763199Y-120377000D01*
X74753801Y-120377000D01*
X76031655Y-119099147D01*
X76031655Y-119108542D01*
G37*
X76031655Y-119108542D02*
X74763199Y-120377000D01*
X74753801Y-120377000D01*
X76031655Y-119099147D01*
X76031655Y-119108542D01*
G36*
X73726199Y-119255000D02*
G01*
X72502000Y-119255000D01*
X72502000Y-119188061D01*
X72462226Y-118988102D01*
X72384205Y-118799744D01*
X72270937Y-118630226D01*
X72126774Y-118486063D01*
X71957256Y-118372795D01*
X71768898Y-118294774D01*
X71568939Y-118255000D01*
X71365061Y-118255000D01*
X71165102Y-118294774D01*
X70976744Y-118372795D01*
X70807226Y-118486063D01*
X70763289Y-118530000D01*
X70720711Y-118530000D01*
X70676774Y-118486063D01*
X70507256Y-118372795D01*
X70318898Y-118294774D01*
X70118939Y-118255000D01*
X69915061Y-118255000D01*
X69715102Y-118294774D01*
X69526744Y-118372795D01*
X69357226Y-118486063D01*
X69213063Y-118630226D01*
X69099795Y-118799744D01*
X69021774Y-118988102D01*
X68982000Y-119188061D01*
X68982000Y-119255000D01*
X67751802Y-119255000D01*
X67365803Y-118869002D01*
X67342001Y-118839999D01*
X67226276Y-118745026D01*
X67094247Y-118674454D01*
X67070072Y-118667121D01*
X67070072Y-118480000D01*
X67057812Y-118355518D01*
X67021860Y-118237000D01*
X69850000Y-118237000D01*
X69874776Y-118234560D01*
X69898601Y-118227333D01*
X69920557Y-118215597D01*
X69939803Y-118199803D01*
X69955597Y-118180557D01*
X69967333Y-118158601D01*
X69974560Y-118134776D01*
X69977000Y-118110000D01*
X69977000Y-118024346D01*
X74956852Y-118024346D01*
X73726199Y-119255000D01*
G37*
X73726199Y-119255000D02*
X72502000Y-119255000D01*
X72502000Y-119188061D01*
X72462226Y-118988102D01*
X72384205Y-118799744D01*
X72270937Y-118630226D01*
X72126774Y-118486063D01*
X71957256Y-118372795D01*
X71768898Y-118294774D01*
X71568939Y-118255000D01*
X71365061Y-118255000D01*
X71165102Y-118294774D01*
X70976744Y-118372795D01*
X70807226Y-118486063D01*
X70763289Y-118530000D01*
X70720711Y-118530000D01*
X70676774Y-118486063D01*
X70507256Y-118372795D01*
X70318898Y-118294774D01*
X70118939Y-118255000D01*
X69915061Y-118255000D01*
X69715102Y-118294774D01*
X69526744Y-118372795D01*
X69357226Y-118486063D01*
X69213063Y-118630226D01*
X69099795Y-118799744D01*
X69021774Y-118988102D01*
X68982000Y-119188061D01*
X68982000Y-119255000D01*
X67751802Y-119255000D01*
X67365803Y-118869002D01*
X67342001Y-118839999D01*
X67226276Y-118745026D01*
X67094247Y-118674454D01*
X67070072Y-118667121D01*
X67070072Y-118480000D01*
X67057812Y-118355518D01*
X67021860Y-118237000D01*
X69850000Y-118237000D01*
X69874776Y-118234560D01*
X69898601Y-118227333D01*
X69920557Y-118215597D01*
X69939803Y-118199803D01*
X69955597Y-118180557D01*
X69967333Y-118158601D01*
X69974560Y-118134776D01*
X69977000Y-118110000D01*
X69977000Y-118024346D01*
X74956852Y-118024346D01*
X73726199Y-119255000D01*
G36*
X73662000Y-109278289D02*
G01*
X73618063Y-109322226D01*
X73504795Y-109491744D01*
X73426774Y-109680102D01*
X73387000Y-109880061D01*
X73387000Y-110083939D01*
X73426774Y-110283898D01*
X73504795Y-110472256D01*
X73618063Y-110641774D01*
X73662001Y-110685712D01*
X73662000Y-112484677D01*
X73658324Y-112522000D01*
X73662000Y-112559322D01*
X73662000Y-112559332D01*
X73672997Y-112670985D01*
X73703942Y-112772998D01*
X73716454Y-112814246D01*
X73787026Y-112946276D01*
X73813376Y-112978383D01*
X73881999Y-113062001D01*
X73911003Y-113085804D01*
X75344199Y-114519001D01*
X71993967Y-114519001D01*
X72102944Y-114410024D01*
X72216212Y-114240506D01*
X72294233Y-114052148D01*
X72334007Y-113852189D01*
X72334007Y-113648311D01*
X72294233Y-113448352D01*
X72216212Y-113259994D01*
X72102944Y-113090476D01*
X72059007Y-113046539D01*
X72059007Y-108974794D01*
X73170456Y-107863346D01*
X73232593Y-107863346D01*
X73432552Y-107823572D01*
X73620910Y-107745551D01*
X73662001Y-107718095D01*
X73662000Y-109278289D01*
G37*
X73662000Y-109278289D02*
X73618063Y-109322226D01*
X73504795Y-109491744D01*
X73426774Y-109680102D01*
X73387000Y-109880061D01*
X73387000Y-110083939D01*
X73426774Y-110283898D01*
X73504795Y-110472256D01*
X73618063Y-110641774D01*
X73662001Y-110685712D01*
X73662000Y-112484677D01*
X73658324Y-112522000D01*
X73662000Y-112559322D01*
X73662000Y-112559332D01*
X73672997Y-112670985D01*
X73703942Y-112772998D01*
X73716454Y-112814246D01*
X73787026Y-112946276D01*
X73813376Y-112978383D01*
X73881999Y-113062001D01*
X73911003Y-113085804D01*
X75344199Y-114519001D01*
X71993967Y-114519001D01*
X72102944Y-114410024D01*
X72216212Y-114240506D01*
X72294233Y-114052148D01*
X72334007Y-113852189D01*
X72334007Y-113648311D01*
X72294233Y-113448352D01*
X72216212Y-113259994D01*
X72102944Y-113090476D01*
X72059007Y-113046539D01*
X72059007Y-108974794D01*
X73170456Y-107863346D01*
X73232593Y-107863346D01*
X73432552Y-107823572D01*
X73620910Y-107745551D01*
X73662001Y-107718095D01*
X73662000Y-109278289D01*
G36*
X70788005Y-108096194D02*
G01*
X70759007Y-108119992D01*
X70735209Y-108148990D01*
X70735208Y-108148991D01*
X70664033Y-108235717D01*
X70593461Y-108367747D01*
X70563843Y-108465388D01*
X70550005Y-108511007D01*
X70539565Y-108617001D01*
X70535331Y-108659993D01*
X70539008Y-108697325D01*
X70539007Y-113046539D01*
X70495070Y-113090476D01*
X70381802Y-113259994D01*
X70303781Y-113448352D01*
X70264007Y-113648311D01*
X70264007Y-113852189D01*
X70303781Y-114052148D01*
X70381802Y-114240506D01*
X70495070Y-114410024D01*
X70604047Y-114519001D01*
X70381803Y-114519001D01*
X69977000Y-114114198D01*
X69977000Y-107119802D01*
X70233457Y-106863345D01*
X72020853Y-106863345D01*
X70788005Y-108096194D01*
G37*
X70788005Y-108096194D02*
X70759007Y-108119992D01*
X70735209Y-108148990D01*
X70735208Y-108148991D01*
X70664033Y-108235717D01*
X70593461Y-108367747D01*
X70563843Y-108465388D01*
X70550005Y-108511007D01*
X70539565Y-108617001D01*
X70535331Y-108659993D01*
X70539008Y-108697325D01*
X70539007Y-113046539D01*
X70495070Y-113090476D01*
X70381802Y-113259994D01*
X70303781Y-113448352D01*
X70264007Y-113648311D01*
X70264007Y-113852189D01*
X70303781Y-114052148D01*
X70381802Y-114240506D01*
X70495070Y-114410024D01*
X70604047Y-114519001D01*
X70381803Y-114519001D01*
X69977000Y-114114198D01*
X69977000Y-107119802D01*
X70233457Y-106863345D01*
X72020853Y-106863345D01*
X70788005Y-108096194D01*
G36*
X90964881Y-83761746D02*
G01*
X91362999Y-83881945D01*
X91730185Y-84077181D01*
X92052459Y-84340022D01*
X92317542Y-84660452D01*
X92515338Y-85026267D01*
X92638314Y-85423537D01*
X92685001Y-85867736D01*
X92685001Y-114361809D01*
X92550285Y-114271795D01*
X92361927Y-114193774D01*
X92161968Y-114154000D01*
X91958090Y-114154000D01*
X91758131Y-114193774D01*
X91569773Y-114271795D01*
X91400255Y-114385063D01*
X91295011Y-114490307D01*
X91295011Y-104972321D01*
X91298687Y-104934998D01*
X91295011Y-104897675D01*
X91295011Y-104897666D01*
X91284014Y-104786013D01*
X91240557Y-104642752D01*
X91169985Y-104510723D01*
X91132089Y-104464546D01*
X91098810Y-104423995D01*
X91098806Y-104423991D01*
X91075012Y-104394998D01*
X91046019Y-104371204D01*
X90176815Y-103502002D01*
X90153013Y-103472999D01*
X90037288Y-103378026D01*
X89905259Y-103307454D01*
X89761998Y-103263997D01*
X89650345Y-103253000D01*
X89650334Y-103253000D01*
X89613012Y-103249324D01*
X89575690Y-103253000D01*
X88335000Y-103253000D01*
X88335000Y-102977332D01*
X88338677Y-102939999D01*
X88324003Y-102791013D01*
X88280546Y-102647752D01*
X88235244Y-102562999D01*
X88209974Y-102515723D01*
X88115001Y-102399998D01*
X88085998Y-102376196D01*
X87761804Y-102052002D01*
X87738001Y-102022998D01*
X87622276Y-101928025D01*
X87490247Y-101857453D01*
X87346986Y-101813996D01*
X87235333Y-101802999D01*
X87235322Y-101802999D01*
X87198000Y-101799323D01*
X87160678Y-101802999D01*
X83237921Y-101802999D01*
X83200598Y-101799323D01*
X83163275Y-101802999D01*
X83163266Y-101802999D01*
X83051613Y-101813996D01*
X82908352Y-101857453D01*
X82776322Y-101928025D01*
X82733745Y-101962968D01*
X82660598Y-102022998D01*
X82636795Y-102052002D01*
X82451797Y-102237000D01*
X69468103Y-102237000D01*
X69499932Y-102160158D01*
X69557000Y-101873260D01*
X69557000Y-101580740D01*
X69499932Y-101293842D01*
X69387990Y-101023589D01*
X69225475Y-100780368D01*
X69018632Y-100573525D01*
X68844240Y-100457000D01*
X69018632Y-100340475D01*
X69225475Y-100133632D01*
X69387990Y-99890411D01*
X69458550Y-99720061D01*
X70720000Y-99720061D01*
X70720000Y-99923939D01*
X70759774Y-100123898D01*
X70837795Y-100312256D01*
X70951063Y-100481774D01*
X71095226Y-100625937D01*
X71264744Y-100739205D01*
X71453102Y-100817226D01*
X71653061Y-100857000D01*
X71856939Y-100857000D01*
X72056898Y-100817226D01*
X72245256Y-100739205D01*
X72414774Y-100625937D01*
X72558937Y-100481774D01*
X72672205Y-100312256D01*
X72750226Y-100123898D01*
X72790000Y-99923939D01*
X72790000Y-99720061D01*
X72750226Y-99520102D01*
X72672205Y-99331744D01*
X72640000Y-99283546D01*
X72640000Y-89471578D01*
X74231579Y-87880000D01*
X75377928Y-87880000D01*
X75377928Y-88195000D01*
X75390188Y-88319482D01*
X75426498Y-88439180D01*
X75485463Y-88549494D01*
X75564815Y-88646185D01*
X75661506Y-88725537D01*
X75771820Y-88784502D01*
X75891518Y-88820812D01*
X76016000Y-88833072D01*
X78416000Y-88833072D01*
X78540482Y-88820812D01*
X78660180Y-88784502D01*
X78770494Y-88725537D01*
X78867185Y-88646185D01*
X78946537Y-88549494D01*
X79005502Y-88439180D01*
X79041812Y-88319482D01*
X79054072Y-88195000D01*
X79054072Y-87777838D01*
X79089844Y-87864199D01*
X79290662Y-88164744D01*
X79546256Y-88420338D01*
X79831001Y-88610599D01*
X79831000Y-95193421D01*
X76462957Y-98561465D01*
X76406102Y-98572774D01*
X76217744Y-98650795D01*
X76048226Y-98764063D01*
X75904063Y-98908226D01*
X75790795Y-99077744D01*
X75712774Y-99266102D01*
X75673000Y-99466061D01*
X75673000Y-99669939D01*
X75712774Y-99869898D01*
X75790795Y-100058256D01*
X75904063Y-100227774D01*
X76048226Y-100371937D01*
X76217744Y-100485205D01*
X76406102Y-100563226D01*
X76606061Y-100603000D01*
X76809939Y-100603000D01*
X77009898Y-100563226D01*
X77198256Y-100485205D01*
X77367774Y-100371937D01*
X77511937Y-100227774D01*
X77625205Y-100058256D01*
X77703226Y-99869898D01*
X77714535Y-99813043D01*
X81311050Y-96216528D01*
X81344817Y-96188817D01*
X81455411Y-96054059D01*
X81537589Y-95900313D01*
X81588195Y-95733490D01*
X81601000Y-95603477D01*
X81601000Y-95603469D01*
X81605281Y-95560000D01*
X81601000Y-95516531D01*
X81601000Y-88610598D01*
X81885744Y-88420338D01*
X82141338Y-88164744D01*
X82342156Y-87864199D01*
X82480482Y-87530250D01*
X82551000Y-87175732D01*
X82551000Y-86814268D01*
X82492640Y-86520872D01*
X87427000Y-86520872D01*
X87427000Y-86961128D01*
X87512890Y-87392925D01*
X87681369Y-87799669D01*
X87925962Y-88165729D01*
X88237271Y-88477038D01*
X88603331Y-88721631D01*
X89010075Y-88890110D01*
X89441872Y-88976000D01*
X89882128Y-88976000D01*
X90313925Y-88890110D01*
X90720669Y-88721631D01*
X91086729Y-88477038D01*
X91398038Y-88165729D01*
X91642631Y-87799669D01*
X91811110Y-87392925D01*
X91897000Y-86961128D01*
X91897000Y-86520872D01*
X91811110Y-86089075D01*
X91642631Y-85682331D01*
X91398038Y-85316271D01*
X91086729Y-85004962D01*
X90720669Y-84760369D01*
X90313925Y-84591890D01*
X89882128Y-84506000D01*
X89441872Y-84506000D01*
X89010075Y-84591890D01*
X88603331Y-84760369D01*
X88237271Y-85004962D01*
X87925962Y-85316271D01*
X87681369Y-85682331D01*
X87512890Y-86089075D01*
X87427000Y-86520872D01*
X82492640Y-86520872D01*
X82480482Y-86459750D01*
X82342156Y-86125801D01*
X82141338Y-85825256D01*
X81885744Y-85569662D01*
X81585199Y-85368844D01*
X81251250Y-85230518D01*
X80896732Y-85160000D01*
X80535268Y-85160000D01*
X80180750Y-85230518D01*
X79846801Y-85368844D01*
X79546256Y-85569662D01*
X79290662Y-85825256D01*
X79089844Y-86125801D01*
X79054072Y-86212162D01*
X79054072Y-85795000D01*
X79041812Y-85670518D01*
X79005502Y-85550820D01*
X78946537Y-85440506D01*
X78867185Y-85343815D01*
X78770494Y-85264463D01*
X78660180Y-85205498D01*
X78540482Y-85169188D01*
X78416000Y-85156928D01*
X76016000Y-85156928D01*
X75891518Y-85169188D01*
X75771820Y-85205498D01*
X75661506Y-85264463D01*
X75564815Y-85343815D01*
X75485463Y-85440506D01*
X75426498Y-85550820D01*
X75390188Y-85670518D01*
X75377928Y-85795000D01*
X75377928Y-86110000D01*
X73908469Y-86110000D01*
X73865000Y-86105719D01*
X73821531Y-86110000D01*
X73821523Y-86110000D01*
X73691510Y-86122805D01*
X73524686Y-86173411D01*
X73370941Y-86255589D01*
X73269953Y-86338468D01*
X73269951Y-86338470D01*
X73236183Y-86366183D01*
X73208470Y-86399951D01*
X71159956Y-88448466D01*
X71126183Y-88476183D01*
X71015589Y-88610942D01*
X70933411Y-88764688D01*
X70882805Y-88931511D01*
X70870000Y-89061524D01*
X70870000Y-89061531D01*
X70865719Y-89105000D01*
X70870000Y-89148469D01*
X70870001Y-99283544D01*
X70837795Y-99331744D01*
X70759774Y-99520102D01*
X70720000Y-99720061D01*
X69458550Y-99720061D01*
X69499932Y-99620158D01*
X69557000Y-99333260D01*
X69557000Y-99040740D01*
X69499932Y-98753842D01*
X69387990Y-98483589D01*
X69225475Y-98240368D01*
X69018632Y-98033525D01*
X68844240Y-97917000D01*
X69018632Y-97800475D01*
X69225475Y-97593632D01*
X69387990Y-97350411D01*
X69499932Y-97080158D01*
X69557000Y-96793260D01*
X69557000Y-96500740D01*
X69499932Y-96213842D01*
X69387990Y-95943589D01*
X69225475Y-95700368D01*
X69018632Y-95493525D01*
X68844240Y-95377000D01*
X69018632Y-95260475D01*
X69225475Y-95053632D01*
X69387990Y-94810411D01*
X69499932Y-94540158D01*
X69557000Y-94253260D01*
X69557000Y-93960740D01*
X69499932Y-93673842D01*
X69387990Y-93403589D01*
X69225475Y-93160368D01*
X69093620Y-93028513D01*
X69166180Y-93006502D01*
X69276494Y-92947537D01*
X69373185Y-92868185D01*
X69452537Y-92771494D01*
X69511502Y-92661180D01*
X69547812Y-92541482D01*
X69560072Y-92417000D01*
X69560072Y-90717000D01*
X69547812Y-90592518D01*
X69511502Y-90472820D01*
X69452537Y-90362506D01*
X69373185Y-90265815D01*
X69276494Y-90186463D01*
X69166180Y-90127498D01*
X69046482Y-90091188D01*
X68922000Y-90078928D01*
X67222000Y-90078928D01*
X67097518Y-90091188D01*
X66977820Y-90127498D01*
X66867506Y-90186463D01*
X66770815Y-90265815D01*
X66691463Y-90362506D01*
X66632498Y-90472820D01*
X66610487Y-90545380D01*
X66478632Y-90413525D01*
X66235411Y-90251010D01*
X65965158Y-90139068D01*
X65678260Y-90082000D01*
X65385740Y-90082000D01*
X65098842Y-90139068D01*
X64828589Y-90251010D01*
X64585368Y-90413525D01*
X64378525Y-90620368D01*
X64216010Y-90863589D01*
X64104068Y-91133842D01*
X64047000Y-91420740D01*
X64047000Y-91713260D01*
X64104068Y-92000158D01*
X64216010Y-92270411D01*
X64378525Y-92513632D01*
X64585368Y-92720475D01*
X64759760Y-92837000D01*
X64585368Y-92953525D01*
X64378525Y-93160368D01*
X64216010Y-93403589D01*
X64104068Y-93673842D01*
X64047000Y-93960740D01*
X64047000Y-94253260D01*
X64104068Y-94540158D01*
X64216010Y-94810411D01*
X64378525Y-95053632D01*
X64585368Y-95260475D01*
X64759760Y-95377000D01*
X64585368Y-95493525D01*
X64378525Y-95700368D01*
X64216010Y-95943589D01*
X64104068Y-96213842D01*
X64047000Y-96500740D01*
X64047000Y-96793260D01*
X64104068Y-97080158D01*
X64216010Y-97350411D01*
X64378525Y-97593632D01*
X64585368Y-97800475D01*
X64759760Y-97917000D01*
X64585368Y-98033525D01*
X64378525Y-98240368D01*
X64216010Y-98483589D01*
X64104068Y-98753842D01*
X64047000Y-99040740D01*
X64047000Y-99333260D01*
X64104068Y-99620158D01*
X64216010Y-99890411D01*
X64378525Y-100133632D01*
X64585368Y-100340475D01*
X64759760Y-100457000D01*
X64585368Y-100573525D01*
X64378525Y-100780368D01*
X64216010Y-101023589D01*
X64104068Y-101293842D01*
X64047000Y-101580740D01*
X64047000Y-101873260D01*
X64104068Y-102160158D01*
X64216010Y-102430411D01*
X64378525Y-102673632D01*
X64585368Y-102880475D01*
X64828589Y-103042990D01*
X65098842Y-103154932D01*
X65385740Y-103212000D01*
X65678260Y-103212000D01*
X65710125Y-103205662D01*
X65537787Y-103378000D01*
X63906000Y-103378000D01*
X63906000Y-86520872D01*
X64694000Y-86520872D01*
X64694000Y-86961128D01*
X64779890Y-87392925D01*
X64948369Y-87799669D01*
X65192962Y-88165729D01*
X65504271Y-88477038D01*
X65870331Y-88721631D01*
X66277075Y-88890110D01*
X66708872Y-88976000D01*
X67149128Y-88976000D01*
X67580925Y-88890110D01*
X67987669Y-88721631D01*
X68353729Y-88477038D01*
X68665038Y-88165729D01*
X68909631Y-87799669D01*
X69078110Y-87392925D01*
X69164000Y-86961128D01*
X69164000Y-86520872D01*
X69078110Y-86089075D01*
X68909631Y-85682331D01*
X68665038Y-85316271D01*
X68353729Y-85004962D01*
X67987669Y-84760369D01*
X67580925Y-84591890D01*
X67149128Y-84506000D01*
X66708872Y-84506000D01*
X66277075Y-84591890D01*
X65870331Y-84760369D01*
X65504271Y-85004962D01*
X65192962Y-85316271D01*
X64948369Y-85682331D01*
X64779890Y-86089075D01*
X64694000Y-86520872D01*
X63906000Y-86520872D01*
X63906000Y-85884278D01*
X63949746Y-85438119D01*
X64069945Y-85040001D01*
X64265181Y-84672815D01*
X64528022Y-84350541D01*
X64848452Y-84085458D01*
X65214267Y-83887662D01*
X65611537Y-83764686D01*
X66055726Y-83718000D01*
X90518722Y-83718000D01*
X90964881Y-83761746D01*
G37*
X90964881Y-83761746D02*
X91362999Y-83881945D01*
X91730185Y-84077181D01*
X92052459Y-84340022D01*
X92317542Y-84660452D01*
X92515338Y-85026267D01*
X92638314Y-85423537D01*
X92685001Y-85867736D01*
X92685001Y-114361809D01*
X92550285Y-114271795D01*
X92361927Y-114193774D01*
X92161968Y-114154000D01*
X91958090Y-114154000D01*
X91758131Y-114193774D01*
X91569773Y-114271795D01*
X91400255Y-114385063D01*
X91295011Y-114490307D01*
X91295011Y-104972321D01*
X91298687Y-104934998D01*
X91295011Y-104897675D01*
X91295011Y-104897666D01*
X91284014Y-104786013D01*
X91240557Y-104642752D01*
X91169985Y-104510723D01*
X91132089Y-104464546D01*
X91098810Y-104423995D01*
X91098806Y-104423991D01*
X91075012Y-104394998D01*
X91046019Y-104371204D01*
X90176815Y-103502002D01*
X90153013Y-103472999D01*
X90037288Y-103378026D01*
X89905259Y-103307454D01*
X89761998Y-103263997D01*
X89650345Y-103253000D01*
X89650334Y-103253000D01*
X89613012Y-103249324D01*
X89575690Y-103253000D01*
X88335000Y-103253000D01*
X88335000Y-102977332D01*
X88338677Y-102939999D01*
X88324003Y-102791013D01*
X88280546Y-102647752D01*
X88235244Y-102562999D01*
X88209974Y-102515723D01*
X88115001Y-102399998D01*
X88085998Y-102376196D01*
X87761804Y-102052002D01*
X87738001Y-102022998D01*
X87622276Y-101928025D01*
X87490247Y-101857453D01*
X87346986Y-101813996D01*
X87235333Y-101802999D01*
X87235322Y-101802999D01*
X87198000Y-101799323D01*
X87160678Y-101802999D01*
X83237921Y-101802999D01*
X83200598Y-101799323D01*
X83163275Y-101802999D01*
X83163266Y-101802999D01*
X83051613Y-101813996D01*
X82908352Y-101857453D01*
X82776322Y-101928025D01*
X82733745Y-101962968D01*
X82660598Y-102022998D01*
X82636795Y-102052002D01*
X82451797Y-102237000D01*
X69468103Y-102237000D01*
X69499932Y-102160158D01*
X69557000Y-101873260D01*
X69557000Y-101580740D01*
X69499932Y-101293842D01*
X69387990Y-101023589D01*
X69225475Y-100780368D01*
X69018632Y-100573525D01*
X68844240Y-100457000D01*
X69018632Y-100340475D01*
X69225475Y-100133632D01*
X69387990Y-99890411D01*
X69458550Y-99720061D01*
X70720000Y-99720061D01*
X70720000Y-99923939D01*
X70759774Y-100123898D01*
X70837795Y-100312256D01*
X70951063Y-100481774D01*
X71095226Y-100625937D01*
X71264744Y-100739205D01*
X71453102Y-100817226D01*
X71653061Y-100857000D01*
X71856939Y-100857000D01*
X72056898Y-100817226D01*
X72245256Y-100739205D01*
X72414774Y-100625937D01*
X72558937Y-100481774D01*
X72672205Y-100312256D01*
X72750226Y-100123898D01*
X72790000Y-99923939D01*
X72790000Y-99720061D01*
X72750226Y-99520102D01*
X72672205Y-99331744D01*
X72640000Y-99283546D01*
X72640000Y-89471578D01*
X74231579Y-87880000D01*
X75377928Y-87880000D01*
X75377928Y-88195000D01*
X75390188Y-88319482D01*
X75426498Y-88439180D01*
X75485463Y-88549494D01*
X75564815Y-88646185D01*
X75661506Y-88725537D01*
X75771820Y-88784502D01*
X75891518Y-88820812D01*
X76016000Y-88833072D01*
X78416000Y-88833072D01*
X78540482Y-88820812D01*
X78660180Y-88784502D01*
X78770494Y-88725537D01*
X78867185Y-88646185D01*
X78946537Y-88549494D01*
X79005502Y-88439180D01*
X79041812Y-88319482D01*
X79054072Y-88195000D01*
X79054072Y-87777838D01*
X79089844Y-87864199D01*
X79290662Y-88164744D01*
X79546256Y-88420338D01*
X79831001Y-88610599D01*
X79831000Y-95193421D01*
X76462957Y-98561465D01*
X76406102Y-98572774D01*
X76217744Y-98650795D01*
X76048226Y-98764063D01*
X75904063Y-98908226D01*
X75790795Y-99077744D01*
X75712774Y-99266102D01*
X75673000Y-99466061D01*
X75673000Y-99669939D01*
X75712774Y-99869898D01*
X75790795Y-100058256D01*
X75904063Y-100227774D01*
X76048226Y-100371937D01*
X76217744Y-100485205D01*
X76406102Y-100563226D01*
X76606061Y-100603000D01*
X76809939Y-100603000D01*
X77009898Y-100563226D01*
X77198256Y-100485205D01*
X77367774Y-100371937D01*
X77511937Y-100227774D01*
X77625205Y-100058256D01*
X77703226Y-99869898D01*
X77714535Y-99813043D01*
X81311050Y-96216528D01*
X81344817Y-96188817D01*
X81455411Y-96054059D01*
X81537589Y-95900313D01*
X81588195Y-95733490D01*
X81601000Y-95603477D01*
X81601000Y-95603469D01*
X81605281Y-95560000D01*
X81601000Y-95516531D01*
X81601000Y-88610598D01*
X81885744Y-88420338D01*
X82141338Y-88164744D01*
X82342156Y-87864199D01*
X82480482Y-87530250D01*
X82551000Y-87175732D01*
X82551000Y-86814268D01*
X82492640Y-86520872D01*
X87427000Y-86520872D01*
X87427000Y-86961128D01*
X87512890Y-87392925D01*
X87681369Y-87799669D01*
X87925962Y-88165729D01*
X88237271Y-88477038D01*
X88603331Y-88721631D01*
X89010075Y-88890110D01*
X89441872Y-88976000D01*
X89882128Y-88976000D01*
X90313925Y-88890110D01*
X90720669Y-88721631D01*
X91086729Y-88477038D01*
X91398038Y-88165729D01*
X91642631Y-87799669D01*
X91811110Y-87392925D01*
X91897000Y-86961128D01*
X91897000Y-86520872D01*
X91811110Y-86089075D01*
X91642631Y-85682331D01*
X91398038Y-85316271D01*
X91086729Y-85004962D01*
X90720669Y-84760369D01*
X90313925Y-84591890D01*
X89882128Y-84506000D01*
X89441872Y-84506000D01*
X89010075Y-84591890D01*
X88603331Y-84760369D01*
X88237271Y-85004962D01*
X87925962Y-85316271D01*
X87681369Y-85682331D01*
X87512890Y-86089075D01*
X87427000Y-86520872D01*
X82492640Y-86520872D01*
X82480482Y-86459750D01*
X82342156Y-86125801D01*
X82141338Y-85825256D01*
X81885744Y-85569662D01*
X81585199Y-85368844D01*
X81251250Y-85230518D01*
X80896732Y-85160000D01*
X80535268Y-85160000D01*
X80180750Y-85230518D01*
X79846801Y-85368844D01*
X79546256Y-85569662D01*
X79290662Y-85825256D01*
X79089844Y-86125801D01*
X79054072Y-86212162D01*
X79054072Y-85795000D01*
X79041812Y-85670518D01*
X79005502Y-85550820D01*
X78946537Y-85440506D01*
X78867185Y-85343815D01*
X78770494Y-85264463D01*
X78660180Y-85205498D01*
X78540482Y-85169188D01*
X78416000Y-85156928D01*
X76016000Y-85156928D01*
X75891518Y-85169188D01*
X75771820Y-85205498D01*
X75661506Y-85264463D01*
X75564815Y-85343815D01*
X75485463Y-85440506D01*
X75426498Y-85550820D01*
X75390188Y-85670518D01*
X75377928Y-85795000D01*
X75377928Y-86110000D01*
X73908469Y-86110000D01*
X73865000Y-86105719D01*
X73821531Y-86110000D01*
X73821523Y-86110000D01*
X73691510Y-86122805D01*
X73524686Y-86173411D01*
X73370941Y-86255589D01*
X73269953Y-86338468D01*
X73269951Y-86338470D01*
X73236183Y-86366183D01*
X73208470Y-86399951D01*
X71159956Y-88448466D01*
X71126183Y-88476183D01*
X71015589Y-88610942D01*
X70933411Y-88764688D01*
X70882805Y-88931511D01*
X70870000Y-89061524D01*
X70870000Y-89061531D01*
X70865719Y-89105000D01*
X70870000Y-89148469D01*
X70870001Y-99283544D01*
X70837795Y-99331744D01*
X70759774Y-99520102D01*
X70720000Y-99720061D01*
X69458550Y-99720061D01*
X69499932Y-99620158D01*
X69557000Y-99333260D01*
X69557000Y-99040740D01*
X69499932Y-98753842D01*
X69387990Y-98483589D01*
X69225475Y-98240368D01*
X69018632Y-98033525D01*
X68844240Y-97917000D01*
X69018632Y-97800475D01*
X69225475Y-97593632D01*
X69387990Y-97350411D01*
X69499932Y-97080158D01*
X69557000Y-96793260D01*
X69557000Y-96500740D01*
X69499932Y-96213842D01*
X69387990Y-95943589D01*
X69225475Y-95700368D01*
X69018632Y-95493525D01*
X68844240Y-95377000D01*
X69018632Y-95260475D01*
X69225475Y-95053632D01*
X69387990Y-94810411D01*
X69499932Y-94540158D01*
X69557000Y-94253260D01*
X69557000Y-93960740D01*
X69499932Y-93673842D01*
X69387990Y-93403589D01*
X69225475Y-93160368D01*
X69093620Y-93028513D01*
X69166180Y-93006502D01*
X69276494Y-92947537D01*
X69373185Y-92868185D01*
X69452537Y-92771494D01*
X69511502Y-92661180D01*
X69547812Y-92541482D01*
X69560072Y-92417000D01*
X69560072Y-90717000D01*
X69547812Y-90592518D01*
X69511502Y-90472820D01*
X69452537Y-90362506D01*
X69373185Y-90265815D01*
X69276494Y-90186463D01*
X69166180Y-90127498D01*
X69046482Y-90091188D01*
X68922000Y-90078928D01*
X67222000Y-90078928D01*
X67097518Y-90091188D01*
X66977820Y-90127498D01*
X66867506Y-90186463D01*
X66770815Y-90265815D01*
X66691463Y-90362506D01*
X66632498Y-90472820D01*
X66610487Y-90545380D01*
X66478632Y-90413525D01*
X66235411Y-90251010D01*
X65965158Y-90139068D01*
X65678260Y-90082000D01*
X65385740Y-90082000D01*
X65098842Y-90139068D01*
X64828589Y-90251010D01*
X64585368Y-90413525D01*
X64378525Y-90620368D01*
X64216010Y-90863589D01*
X64104068Y-91133842D01*
X64047000Y-91420740D01*
X64047000Y-91713260D01*
X64104068Y-92000158D01*
X64216010Y-92270411D01*
X64378525Y-92513632D01*
X64585368Y-92720475D01*
X64759760Y-92837000D01*
X64585368Y-92953525D01*
X64378525Y-93160368D01*
X64216010Y-93403589D01*
X64104068Y-93673842D01*
X64047000Y-93960740D01*
X64047000Y-94253260D01*
X64104068Y-94540158D01*
X64216010Y-94810411D01*
X64378525Y-95053632D01*
X64585368Y-95260475D01*
X64759760Y-95377000D01*
X64585368Y-95493525D01*
X64378525Y-95700368D01*
X64216010Y-95943589D01*
X64104068Y-96213842D01*
X64047000Y-96500740D01*
X64047000Y-96793260D01*
X64104068Y-97080158D01*
X64216010Y-97350411D01*
X64378525Y-97593632D01*
X64585368Y-97800475D01*
X64759760Y-97917000D01*
X64585368Y-98033525D01*
X64378525Y-98240368D01*
X64216010Y-98483589D01*
X64104068Y-98753842D01*
X64047000Y-99040740D01*
X64047000Y-99333260D01*
X64104068Y-99620158D01*
X64216010Y-99890411D01*
X64378525Y-100133632D01*
X64585368Y-100340475D01*
X64759760Y-100457000D01*
X64585368Y-100573525D01*
X64378525Y-100780368D01*
X64216010Y-101023589D01*
X64104068Y-101293842D01*
X64047000Y-101580740D01*
X64047000Y-101873260D01*
X64104068Y-102160158D01*
X64216010Y-102430411D01*
X64378525Y-102673632D01*
X64585368Y-102880475D01*
X64828589Y-103042990D01*
X65098842Y-103154932D01*
X65385740Y-103212000D01*
X65678260Y-103212000D01*
X65710125Y-103205662D01*
X65537787Y-103378000D01*
X63906000Y-103378000D01*
X63906000Y-86520872D01*
X64694000Y-86520872D01*
X64694000Y-86961128D01*
X64779890Y-87392925D01*
X64948369Y-87799669D01*
X65192962Y-88165729D01*
X65504271Y-88477038D01*
X65870331Y-88721631D01*
X66277075Y-88890110D01*
X66708872Y-88976000D01*
X67149128Y-88976000D01*
X67580925Y-88890110D01*
X67987669Y-88721631D01*
X68353729Y-88477038D01*
X68665038Y-88165729D01*
X68909631Y-87799669D01*
X69078110Y-87392925D01*
X69164000Y-86961128D01*
X69164000Y-86520872D01*
X69078110Y-86089075D01*
X68909631Y-85682331D01*
X68665038Y-85316271D01*
X68353729Y-85004962D01*
X67987669Y-84760369D01*
X67580925Y-84591890D01*
X67149128Y-84506000D01*
X66708872Y-84506000D01*
X66277075Y-84591890D01*
X65870331Y-84760369D01*
X65504271Y-85004962D01*
X65192962Y-85316271D01*
X64948369Y-85682331D01*
X64779890Y-86089075D01*
X64694000Y-86520872D01*
X63906000Y-86520872D01*
X63906000Y-85884278D01*
X63949746Y-85438119D01*
X64069945Y-85040001D01*
X64265181Y-84672815D01*
X64528022Y-84350541D01*
X64848452Y-84085458D01*
X65214267Y-83887662D01*
X65611537Y-83764686D01*
X66055726Y-83718000D01*
X90518722Y-83718000D01*
X90964881Y-83761746D01*
G36*
X84729774Y-106886102D02*
G01*
X84690000Y-107086061D01*
X84690000Y-107289939D01*
X84729774Y-107489898D01*
X84807795Y-107678256D01*
X84921063Y-107847774D01*
X84965001Y-107891712D01*
X84965000Y-110548289D01*
X84921063Y-110592226D01*
X84807795Y-110761744D01*
X84729774Y-110950102D01*
X84690000Y-111150061D01*
X84690000Y-111353939D01*
X84729774Y-111553898D01*
X84783728Y-111684155D01*
X82376399Y-114091485D01*
X82373004Y-114057013D01*
X82329547Y-113913752D01*
X82258975Y-113781723D01*
X82164002Y-113665998D01*
X82134998Y-113642195D01*
X81810805Y-113318002D01*
X81787002Y-113288998D01*
X81671277Y-113194025D01*
X81539248Y-113123453D01*
X81395987Y-113079996D01*
X81284334Y-113068999D01*
X81284323Y-113068999D01*
X81247001Y-113065323D01*
X81209679Y-113068999D01*
X80588321Y-113068999D01*
X80550998Y-113065323D01*
X80513676Y-113068999D01*
X80513666Y-113068999D01*
X80402013Y-113079996D01*
X80258752Y-113123453D01*
X80126723Y-113194025D01*
X80010998Y-113288998D01*
X79987195Y-113318002D01*
X79961207Y-113343990D01*
X79902000Y-113343990D01*
X79902000Y-113323801D01*
X82736546Y-110489257D01*
X82779226Y-110531937D01*
X82948744Y-110645205D01*
X83137102Y-110723226D01*
X83337061Y-110763000D01*
X83540939Y-110763000D01*
X83740898Y-110723226D01*
X83929256Y-110645205D01*
X84098774Y-110531937D01*
X84242937Y-110387774D01*
X84356205Y-110218256D01*
X84434226Y-110029898D01*
X84474000Y-109829939D01*
X84474000Y-109626061D01*
X84434226Y-109426102D01*
X84356205Y-109237744D01*
X84242937Y-109068226D01*
X84098774Y-108924063D01*
X83929256Y-108810795D01*
X83740898Y-108732774D01*
X83540939Y-108693000D01*
X83337061Y-108693000D01*
X83137102Y-108732774D01*
X82948744Y-108810795D01*
X82779226Y-108924063D01*
X82735289Y-108968000D01*
X82460322Y-108968000D01*
X82422999Y-108964324D01*
X82385676Y-108968000D01*
X82385667Y-108968000D01*
X82274014Y-108978997D01*
X82130753Y-109022454D01*
X81998724Y-109093026D01*
X81998722Y-109093027D01*
X81998723Y-109093027D01*
X81911996Y-109164201D01*
X81911992Y-109164205D01*
X81882999Y-109187999D01*
X81859205Y-109216992D01*
X78901999Y-112174200D01*
X78901999Y-110428813D01*
X81234813Y-108096000D01*
X81296950Y-108096000D01*
X81496909Y-108056226D01*
X81685267Y-107978205D01*
X81854785Y-107864937D01*
X81998948Y-107720774D01*
X82112216Y-107551256D01*
X82190237Y-107362898D01*
X82230011Y-107162939D01*
X82230011Y-106959061D01*
X82210972Y-106863345D01*
X84739200Y-106863345D01*
X84729774Y-106886102D01*
G37*
X84729774Y-106886102D02*
X84690000Y-107086061D01*
X84690000Y-107289939D01*
X84729774Y-107489898D01*
X84807795Y-107678256D01*
X84921063Y-107847774D01*
X84965001Y-107891712D01*
X84965000Y-110548289D01*
X84921063Y-110592226D01*
X84807795Y-110761744D01*
X84729774Y-110950102D01*
X84690000Y-111150061D01*
X84690000Y-111353939D01*
X84729774Y-111553898D01*
X84783728Y-111684155D01*
X82376399Y-114091485D01*
X82373004Y-114057013D01*
X82329547Y-113913752D01*
X82258975Y-113781723D01*
X82164002Y-113665998D01*
X82134998Y-113642195D01*
X81810805Y-113318002D01*
X81787002Y-113288998D01*
X81671277Y-113194025D01*
X81539248Y-113123453D01*
X81395987Y-113079996D01*
X81284334Y-113068999D01*
X81284323Y-113068999D01*
X81247001Y-113065323D01*
X81209679Y-113068999D01*
X80588321Y-113068999D01*
X80550998Y-113065323D01*
X80513676Y-113068999D01*
X80513666Y-113068999D01*
X80402013Y-113079996D01*
X80258752Y-113123453D01*
X80126723Y-113194025D01*
X80010998Y-113288998D01*
X79987195Y-113318002D01*
X79961207Y-113343990D01*
X79902000Y-113343990D01*
X79902000Y-113323801D01*
X82736546Y-110489257D01*
X82779226Y-110531937D01*
X82948744Y-110645205D01*
X83137102Y-110723226D01*
X83337061Y-110763000D01*
X83540939Y-110763000D01*
X83740898Y-110723226D01*
X83929256Y-110645205D01*
X84098774Y-110531937D01*
X84242937Y-110387774D01*
X84356205Y-110218256D01*
X84434226Y-110029898D01*
X84474000Y-109829939D01*
X84474000Y-109626061D01*
X84434226Y-109426102D01*
X84356205Y-109237744D01*
X84242937Y-109068226D01*
X84098774Y-108924063D01*
X83929256Y-108810795D01*
X83740898Y-108732774D01*
X83540939Y-108693000D01*
X83337061Y-108693000D01*
X83137102Y-108732774D01*
X82948744Y-108810795D01*
X82779226Y-108924063D01*
X82735289Y-108968000D01*
X82460322Y-108968000D01*
X82422999Y-108964324D01*
X82385676Y-108968000D01*
X82385667Y-108968000D01*
X82274014Y-108978997D01*
X82130753Y-109022454D01*
X81998724Y-109093026D01*
X81998722Y-109093027D01*
X81998723Y-109093027D01*
X81911996Y-109164201D01*
X81911992Y-109164205D01*
X81882999Y-109187999D01*
X81859205Y-109216992D01*
X78901999Y-112174200D01*
X78901999Y-110428813D01*
X81234813Y-108096000D01*
X81296950Y-108096000D01*
X81496909Y-108056226D01*
X81685267Y-107978205D01*
X81854785Y-107864937D01*
X81998948Y-107720774D01*
X82112216Y-107551256D01*
X82190237Y-107362898D01*
X82230011Y-107162939D01*
X82230011Y-106959061D01*
X82210972Y-106863345D01*
X84739200Y-106863345D01*
X84729774Y-106886102D01*
G36*
X89775012Y-113492597D02*
G01*
X89703937Y-113386226D01*
X89559774Y-113242063D01*
X89390256Y-113128795D01*
X89201898Y-113050774D01*
X89001939Y-113011000D01*
X88798061Y-113011000D01*
X88644000Y-113041644D01*
X88644000Y-107523811D01*
X89775012Y-106392800D01*
X89775012Y-113492597D01*
G37*
X89775012Y-113492597D02*
X89703937Y-113386226D01*
X89559774Y-113242063D01*
X89390256Y-113128795D01*
X89201898Y-113050774D01*
X89001939Y-113011000D01*
X88798061Y-113011000D01*
X88644000Y-113041644D01*
X88644000Y-107523811D01*
X89775012Y-106392800D01*
X89775012Y-113492597D01*
G36*
X78796398Y-106867141D02*
G01*
X78626880Y-106980409D01*
X78482717Y-107124572D01*
X78369449Y-107294090D01*
X78291428Y-107482448D01*
X78251654Y-107682407D01*
X78251654Y-107744544D01*
X76906001Y-109090198D01*
X76876998Y-109114000D01*
X76824423Y-109178063D01*
X76782025Y-109229725D01*
X76742471Y-109303725D01*
X76711453Y-109361755D01*
X76667996Y-109505016D01*
X76656999Y-109616669D01*
X76656999Y-109616679D01*
X76653323Y-109654001D01*
X76656999Y-109691324D01*
X76657000Y-112853028D01*
X76613062Y-112896966D01*
X76499794Y-113066484D01*
X76421773Y-113254842D01*
X76389897Y-113415095D01*
X75182000Y-112207199D01*
X75182000Y-110685711D01*
X75225937Y-110641774D01*
X75339205Y-110472256D01*
X75417226Y-110283898D01*
X75457000Y-110083939D01*
X75457000Y-109880061D01*
X75417226Y-109680102D01*
X75339205Y-109491744D01*
X75225937Y-109322226D01*
X75182000Y-109278289D01*
X75182000Y-108056412D01*
X75358898Y-108021225D01*
X75547256Y-107943204D01*
X75716774Y-107829936D01*
X75860937Y-107685773D01*
X75974205Y-107516255D01*
X76052226Y-107327897D01*
X76092000Y-107127938D01*
X76092000Y-106924060D01*
X76079923Y-106863345D01*
X78805562Y-106863345D01*
X78796398Y-106867141D01*
G37*
X78796398Y-106867141D02*
X78626880Y-106980409D01*
X78482717Y-107124572D01*
X78369449Y-107294090D01*
X78291428Y-107482448D01*
X78251654Y-107682407D01*
X78251654Y-107744544D01*
X76906001Y-109090198D01*
X76876998Y-109114000D01*
X76824423Y-109178063D01*
X76782025Y-109229725D01*
X76742471Y-109303725D01*
X76711453Y-109361755D01*
X76667996Y-109505016D01*
X76656999Y-109616669D01*
X76656999Y-109616679D01*
X76653323Y-109654001D01*
X76656999Y-109691324D01*
X76657000Y-112853028D01*
X76613062Y-112896966D01*
X76499794Y-113066484D01*
X76421773Y-113254842D01*
X76389897Y-113415095D01*
X75182000Y-112207199D01*
X75182000Y-110685711D01*
X75225937Y-110641774D01*
X75339205Y-110472256D01*
X75417226Y-110283898D01*
X75457000Y-110083939D01*
X75457000Y-109880061D01*
X75417226Y-109680102D01*
X75339205Y-109491744D01*
X75225937Y-109322226D01*
X75182000Y-109278289D01*
X75182000Y-108056412D01*
X75358898Y-108021225D01*
X75547256Y-107943204D01*
X75716774Y-107829936D01*
X75860937Y-107685773D01*
X75974205Y-107516255D01*
X76052226Y-107327897D01*
X76092000Y-107127938D01*
X76092000Y-106924060D01*
X76079923Y-106863345D01*
X78805562Y-106863345D01*
X78796398Y-106867141D01*
G36*
X80160011Y-106959061D02*
G01*
X80160011Y-107021198D01*
X80073614Y-107107595D01*
X79946428Y-106980409D01*
X79776910Y-106867141D01*
X79767746Y-106863345D01*
X80179050Y-106863345D01*
X80160011Y-106959061D01*
G37*
X80160011Y-106959061D02*
X80160011Y-107021198D01*
X80073614Y-107107595D01*
X79946428Y-106980409D01*
X79776910Y-106867141D01*
X79767746Y-106863345D01*
X80179050Y-106863345D01*
X80160011Y-106959061D01*
G36*
X87889420Y-106128789D02*
G01*
X87872356Y-106043000D01*
X87975208Y-106043000D01*
X87889420Y-106128789D01*
G37*
X87889420Y-106128789D02*
X87872356Y-106043000D01*
X87975208Y-106043000D01*
X87889420Y-106128789D01*
G36*
X82664777Y-105343345D02*
G01*
X80330001Y-105343345D01*
X80330001Y-105281000D01*
X82605377Y-105281000D01*
X82664777Y-105343345D01*
G37*
X82664777Y-105343345D02*
X80330001Y-105343345D01*
X80330001Y-105281000D01*
X82605377Y-105281000D01*
X82664777Y-105343345D01*
G36*
X66918525Y-100133632D02*
G01*
X67125368Y-100340475D01*
X67299760Y-100457000D01*
X67125368Y-100573525D01*
X66918525Y-100780368D01*
X66802000Y-100954760D01*
X66685475Y-100780368D01*
X66478632Y-100573525D01*
X66304240Y-100457000D01*
X66478632Y-100340475D01*
X66685475Y-100133632D01*
X66802000Y-99959240D01*
X66918525Y-100133632D01*
G37*
X66918525Y-100133632D02*
X67125368Y-100340475D01*
X67299760Y-100457000D01*
X67125368Y-100573525D01*
X66918525Y-100780368D01*
X66802000Y-100954760D01*
X66685475Y-100780368D01*
X66478632Y-100573525D01*
X66304240Y-100457000D01*
X66478632Y-100340475D01*
X66685475Y-100133632D01*
X66802000Y-99959240D01*
X66918525Y-100133632D01*
G36*
X66918525Y-97593632D02*
G01*
X67125368Y-97800475D01*
X67299760Y-97917000D01*
X67125368Y-98033525D01*
X66918525Y-98240368D01*
X66802000Y-98414760D01*
X66685475Y-98240368D01*
X66478632Y-98033525D01*
X66304240Y-97917000D01*
X66478632Y-97800475D01*
X66685475Y-97593632D01*
X66802000Y-97419240D01*
X66918525Y-97593632D01*
G37*
X66918525Y-97593632D02*
X67125368Y-97800475D01*
X67299760Y-97917000D01*
X67125368Y-98033525D01*
X66918525Y-98240368D01*
X66802000Y-98414760D01*
X66685475Y-98240368D01*
X66478632Y-98033525D01*
X66304240Y-97917000D01*
X66478632Y-97800475D01*
X66685475Y-97593632D01*
X66802000Y-97419240D01*
X66918525Y-97593632D01*
G36*
X66918525Y-95053632D02*
G01*
X67125368Y-95260475D01*
X67299760Y-95377000D01*
X67125368Y-95493525D01*
X66918525Y-95700368D01*
X66802000Y-95874760D01*
X66685475Y-95700368D01*
X66478632Y-95493525D01*
X66304240Y-95377000D01*
X66478632Y-95260475D01*
X66685475Y-95053632D01*
X66802000Y-94879240D01*
X66918525Y-95053632D01*
G37*
X66918525Y-95053632D02*
X67125368Y-95260475D01*
X67299760Y-95377000D01*
X67125368Y-95493525D01*
X66918525Y-95700368D01*
X66802000Y-95874760D01*
X66685475Y-95700368D01*
X66478632Y-95493525D01*
X66304240Y-95377000D01*
X66478632Y-95260475D01*
X66685475Y-95053632D01*
X66802000Y-94879240D01*
X66918525Y-95053632D01*
G36*
X66632498Y-92661180D02*
G01*
X66691463Y-92771494D01*
X66770815Y-92868185D01*
X66867506Y-92947537D01*
X66977820Y-93006502D01*
X67050380Y-93028513D01*
X66918525Y-93160368D01*
X66802000Y-93334760D01*
X66685475Y-93160368D01*
X66478632Y-92953525D01*
X66304240Y-92837000D01*
X66478632Y-92720475D01*
X66610487Y-92588620D01*
X66632498Y-92661180D01*
G37*
X66632498Y-92661180D02*
X66691463Y-92771494D01*
X66770815Y-92868185D01*
X66867506Y-92947537D01*
X66977820Y-93006502D01*
X67050380Y-93028513D01*
X66918525Y-93160368D01*
X66802000Y-93334760D01*
X66685475Y-93160368D01*
X66478632Y-92953525D01*
X66304240Y-92837000D01*
X66478632Y-92720475D01*
X66610487Y-92588620D01*
X66632498Y-92661180D01*
M02*
