%TF.GenerationSoftware,KiCad,Pcbnew,5.1.5+dfsg1-2build2*%
%TF.CreationDate,2021-11-04T20:17:12+01:00*%
%TF.ProjectId,ebus-adapter,65627573-2d61-4646-9170-7465722e6b69,rev?*%
%TF.SameCoordinates,Original*%
%TF.FileFunction,Copper,L1,Top*%
%TF.FilePolarity,Positive*%
%FSLAX46Y46*%
G04 Gerber Fmt 4.6, Leading zero omitted, Abs format (unit mm)*
G04 Created by KiCad (PCBNEW 5.1.5+dfsg1-2build2) date 2021-11-04 20:17:12*
%MOMM*%
%LPD*%
G04 APERTURE LIST*
%TA.AperFunction,SMDPad,CuDef*%
%ADD10R,2.400000X4.400000*%
%TD*%
%TA.AperFunction,ComponentPad*%
%ADD11O,1.000000X1.000000*%
%TD*%
%TA.AperFunction,ComponentPad*%
%ADD12R,1.000000X1.000000*%
%TD*%
%TA.AperFunction,SMDPad,CuDef*%
%ADD13R,2.000000X0.640000*%
%TD*%
%TA.AperFunction,SMDPad,CuDef*%
%ADD14R,10.800000X9.400000*%
%TD*%
%TA.AperFunction,SMDPad,CuDef*%
%ADD15R,1.100000X4.600000*%
%TD*%
%TA.AperFunction,SMDPad,CuDef*%
%ADD16R,0.640000X2.000000*%
%TD*%
%TA.AperFunction,ComponentPad*%
%ADD17O,1.700000X1.700000*%
%TD*%
%TA.AperFunction,ComponentPad*%
%ADD18R,1.700000X1.700000*%
%TD*%
%TA.AperFunction,SMDPad,CuDef*%
%ADD19C,0.100000*%
%TD*%
%TA.AperFunction,SMDPad,CuDef*%
%ADD20R,0.800000X0.900000*%
%TD*%
%TA.AperFunction,SMDPad,CuDef*%
%ADD21R,1.200000X0.900000*%
%TD*%
%TA.AperFunction,ComponentPad*%
%ADD22C,2.400000*%
%TD*%
%TA.AperFunction,ComponentPad*%
%ADD23R,2.400000X2.400000*%
%TD*%
%TA.AperFunction,ComponentPad*%
%ADD24C,1.800000*%
%TD*%
%TA.AperFunction,ComponentPad*%
%ADD25R,1.800000X1.800000*%
%TD*%
%TA.AperFunction,ViaPad*%
%ADD26C,0.800000*%
%TD*%
%TA.AperFunction,Conductor*%
%ADD27C,0.250000*%
%TD*%
%TA.AperFunction,Conductor*%
%ADD28C,0.500000*%
%TD*%
%TA.AperFunction,Conductor*%
%ADD29C,0.254000*%
%TD*%
G04 APERTURE END LIST*
D10*
%TO.P,D3,1*%
%TO.N,GNDD*%
X76768000Y-110276000D03*
%TO.P,D3,2*%
%TO.N,+24V*%
X76768000Y-102576000D03*
%TO.P,D3,3*%
%TO.N,Net-(D3-Pad3)*%
X71568000Y-102576000D03*
%TO.P,D3,4*%
%TO.N,SIGNAL*%
X71568000Y-110276000D03*
%TD*%
D11*
%TO.P,J8,14*%
%TO.N,MP7*%
X82296000Y-85979000D03*
%TO.P,J8,13*%
%TO.N,MP13*%
X82296000Y-87249000D03*
%TO.P,J8,12*%
%TO.N,MP6*%
X81026000Y-85979000D03*
%TO.P,J8,11*%
%TO.N,MP12*%
X81026000Y-87249000D03*
%TO.P,J8,10*%
%TO.N,MP5*%
X79756000Y-85979000D03*
%TO.P,J8,9*%
%TO.N,MP11*%
X79756000Y-87249000D03*
%TO.P,J8,8*%
%TO.N,MP4*%
X78486000Y-85979000D03*
%TO.P,J8,7*%
%TO.N,MP10*%
X78486000Y-87249000D03*
%TO.P,J8,6*%
%TO.N,MP3*%
X77216000Y-85979000D03*
%TO.P,J8,5*%
%TO.N,MP9*%
X77216000Y-87249000D03*
%TO.P,J8,4*%
%TO.N,N/C*%
X75946000Y-85979000D03*
%TO.P,J8,3*%
%TO.N,MP4*%
X75946000Y-87249000D03*
%TO.P,J8,2*%
%TO.N,MP1*%
X74676000Y-85979000D03*
D12*
%TO.P,J8,1*%
%TO.N,GNDD*%
X74676000Y-87249000D03*
%TD*%
D13*
%TO.P,U4,4*%
%TO.N,RX*%
X84480000Y-125095000D03*
%TO.P,U4,3*%
%TO.N,GNDREF*%
X84480000Y-122555000D03*
%TO.P,U4,2*%
%TO.N,MP10*%
X90780000Y-122555000D03*
%TO.P,U4,1*%
%TO.N,MP9*%
X90780000Y-125095000D03*
%TD*%
D14*
%TO.P,U3,2*%
%TO.N,GNDD*%
X79375000Y-143329000D03*
D15*
%TO.P,U3,3*%
%TO.N,MP5*%
X76835000Y-134179000D03*
%TO.P,U3,1*%
%TO.N,MP1*%
X81915000Y-134179000D03*
%TD*%
D16*
%TO.P,U2,4*%
%TO.N,MP12*%
X81915000Y-116815000D03*
%TO.P,U2,3*%
%TO.N,MP13*%
X79375000Y-116815000D03*
%TO.P,U2,2*%
%TO.N,TX*%
X79375000Y-110515000D03*
%TO.P,U2,1*%
%TO.N,Net-(R13-Pad2)*%
X81915000Y-110515000D03*
%TD*%
D17*
%TO.P,J3,10*%
%TO.N,TX*%
X65532000Y-101727000D03*
%TO.P,J3,9*%
%TO.N,N/C*%
X68072000Y-101727000D03*
%TO.P,J3,8*%
%TO.N,RX*%
X65532000Y-99187000D03*
%TO.P,J3,7*%
%TO.N,N/C*%
X68072000Y-99187000D03*
%TO.P,J3,6*%
%TO.N,GNDREF*%
X65532000Y-96647000D03*
%TO.P,J3,5*%
%TO.N,N/C*%
X68072000Y-96647000D03*
%TO.P,J3,4*%
X65532000Y-94107000D03*
%TO.P,J3,3*%
X68072000Y-94107000D03*
%TO.P,J3,2*%
X65532000Y-91567000D03*
D18*
%TO.P,J3,1*%
%TO.N,+3V3*%
X68072000Y-91567000D03*
%TD*%
%TA.AperFunction,SMDPad,CuDef*%
D19*
%TO.P,U1,8*%
%TO.N,MP5*%
G36*
X91579703Y-113365722D02*
G01*
X91594264Y-113367882D01*
X91608543Y-113371459D01*
X91622403Y-113376418D01*
X91635710Y-113382712D01*
X91648336Y-113390280D01*
X91660159Y-113399048D01*
X91671066Y-113408934D01*
X91680952Y-113419841D01*
X91689720Y-113431664D01*
X91697288Y-113444290D01*
X91703582Y-113457597D01*
X91708541Y-113471457D01*
X91712118Y-113485736D01*
X91714278Y-113500297D01*
X91715000Y-113515000D01*
X91715000Y-113815000D01*
X91714278Y-113829703D01*
X91712118Y-113844264D01*
X91708541Y-113858543D01*
X91703582Y-113872403D01*
X91697288Y-113885710D01*
X91689720Y-113898336D01*
X91680952Y-113910159D01*
X91671066Y-113921066D01*
X91660159Y-113930952D01*
X91648336Y-113939720D01*
X91635710Y-113947288D01*
X91622403Y-113953582D01*
X91608543Y-113958541D01*
X91594264Y-113962118D01*
X91579703Y-113964278D01*
X91565000Y-113965000D01*
X89915000Y-113965000D01*
X89900297Y-113964278D01*
X89885736Y-113962118D01*
X89871457Y-113958541D01*
X89857597Y-113953582D01*
X89844290Y-113947288D01*
X89831664Y-113939720D01*
X89819841Y-113930952D01*
X89808934Y-113921066D01*
X89799048Y-113910159D01*
X89790280Y-113898336D01*
X89782712Y-113885710D01*
X89776418Y-113872403D01*
X89771459Y-113858543D01*
X89767882Y-113844264D01*
X89765722Y-113829703D01*
X89765000Y-113815000D01*
X89765000Y-113515000D01*
X89765722Y-113500297D01*
X89767882Y-113485736D01*
X89771459Y-113471457D01*
X89776418Y-113457597D01*
X89782712Y-113444290D01*
X89790280Y-113431664D01*
X89799048Y-113419841D01*
X89808934Y-113408934D01*
X89819841Y-113399048D01*
X89831664Y-113390280D01*
X89844290Y-113382712D01*
X89857597Y-113376418D01*
X89871457Y-113371459D01*
X89885736Y-113367882D01*
X89900297Y-113365722D01*
X89915000Y-113365000D01*
X91565000Y-113365000D01*
X91579703Y-113365722D01*
G37*
%TD.AperFunction*%
%TA.AperFunction,SMDPad,CuDef*%
%TO.P,U1,7*%
%TO.N,MP10*%
G36*
X91579703Y-114635722D02*
G01*
X91594264Y-114637882D01*
X91608543Y-114641459D01*
X91622403Y-114646418D01*
X91635710Y-114652712D01*
X91648336Y-114660280D01*
X91660159Y-114669048D01*
X91671066Y-114678934D01*
X91680952Y-114689841D01*
X91689720Y-114701664D01*
X91697288Y-114714290D01*
X91703582Y-114727597D01*
X91708541Y-114741457D01*
X91712118Y-114755736D01*
X91714278Y-114770297D01*
X91715000Y-114785000D01*
X91715000Y-115085000D01*
X91714278Y-115099703D01*
X91712118Y-115114264D01*
X91708541Y-115128543D01*
X91703582Y-115142403D01*
X91697288Y-115155710D01*
X91689720Y-115168336D01*
X91680952Y-115180159D01*
X91671066Y-115191066D01*
X91660159Y-115200952D01*
X91648336Y-115209720D01*
X91635710Y-115217288D01*
X91622403Y-115223582D01*
X91608543Y-115228541D01*
X91594264Y-115232118D01*
X91579703Y-115234278D01*
X91565000Y-115235000D01*
X89915000Y-115235000D01*
X89900297Y-115234278D01*
X89885736Y-115232118D01*
X89871457Y-115228541D01*
X89857597Y-115223582D01*
X89844290Y-115217288D01*
X89831664Y-115209720D01*
X89819841Y-115200952D01*
X89808934Y-115191066D01*
X89799048Y-115180159D01*
X89790280Y-115168336D01*
X89782712Y-115155710D01*
X89776418Y-115142403D01*
X89771459Y-115128543D01*
X89767882Y-115114264D01*
X89765722Y-115099703D01*
X89765000Y-115085000D01*
X89765000Y-114785000D01*
X89765722Y-114770297D01*
X89767882Y-114755736D01*
X89771459Y-114741457D01*
X89776418Y-114727597D01*
X89782712Y-114714290D01*
X89790280Y-114701664D01*
X89799048Y-114689841D01*
X89808934Y-114678934D01*
X89819841Y-114669048D01*
X89831664Y-114660280D01*
X89844290Y-114652712D01*
X89857597Y-114646418D01*
X89871457Y-114641459D01*
X89885736Y-114637882D01*
X89900297Y-114635722D01*
X89915000Y-114635000D01*
X91565000Y-114635000D01*
X91579703Y-114635722D01*
G37*
%TD.AperFunction*%
%TA.AperFunction,SMDPad,CuDef*%
%TO.P,U1,6*%
%TO.N,MP7*%
G36*
X91579703Y-115905722D02*
G01*
X91594264Y-115907882D01*
X91608543Y-115911459D01*
X91622403Y-115916418D01*
X91635710Y-115922712D01*
X91648336Y-115930280D01*
X91660159Y-115939048D01*
X91671066Y-115948934D01*
X91680952Y-115959841D01*
X91689720Y-115971664D01*
X91697288Y-115984290D01*
X91703582Y-115997597D01*
X91708541Y-116011457D01*
X91712118Y-116025736D01*
X91714278Y-116040297D01*
X91715000Y-116055000D01*
X91715000Y-116355000D01*
X91714278Y-116369703D01*
X91712118Y-116384264D01*
X91708541Y-116398543D01*
X91703582Y-116412403D01*
X91697288Y-116425710D01*
X91689720Y-116438336D01*
X91680952Y-116450159D01*
X91671066Y-116461066D01*
X91660159Y-116470952D01*
X91648336Y-116479720D01*
X91635710Y-116487288D01*
X91622403Y-116493582D01*
X91608543Y-116498541D01*
X91594264Y-116502118D01*
X91579703Y-116504278D01*
X91565000Y-116505000D01*
X89915000Y-116505000D01*
X89900297Y-116504278D01*
X89885736Y-116502118D01*
X89871457Y-116498541D01*
X89857597Y-116493582D01*
X89844290Y-116487288D01*
X89831664Y-116479720D01*
X89819841Y-116470952D01*
X89808934Y-116461066D01*
X89799048Y-116450159D01*
X89790280Y-116438336D01*
X89782712Y-116425710D01*
X89776418Y-116412403D01*
X89771459Y-116398543D01*
X89767882Y-116384264D01*
X89765722Y-116369703D01*
X89765000Y-116355000D01*
X89765000Y-116055000D01*
X89765722Y-116040297D01*
X89767882Y-116025736D01*
X89771459Y-116011457D01*
X89776418Y-115997597D01*
X89782712Y-115984290D01*
X89790280Y-115971664D01*
X89799048Y-115959841D01*
X89808934Y-115948934D01*
X89819841Y-115939048D01*
X89831664Y-115930280D01*
X89844290Y-115922712D01*
X89857597Y-115916418D01*
X89871457Y-115911459D01*
X89885736Y-115907882D01*
X89900297Y-115905722D01*
X89915000Y-115905000D01*
X91565000Y-115905000D01*
X91579703Y-115905722D01*
G37*
%TD.AperFunction*%
%TA.AperFunction,SMDPad,CuDef*%
%TO.P,U1,5*%
%TO.N,MP4*%
G36*
X91579703Y-117175722D02*
G01*
X91594264Y-117177882D01*
X91608543Y-117181459D01*
X91622403Y-117186418D01*
X91635710Y-117192712D01*
X91648336Y-117200280D01*
X91660159Y-117209048D01*
X91671066Y-117218934D01*
X91680952Y-117229841D01*
X91689720Y-117241664D01*
X91697288Y-117254290D01*
X91703582Y-117267597D01*
X91708541Y-117281457D01*
X91712118Y-117295736D01*
X91714278Y-117310297D01*
X91715000Y-117325000D01*
X91715000Y-117625000D01*
X91714278Y-117639703D01*
X91712118Y-117654264D01*
X91708541Y-117668543D01*
X91703582Y-117682403D01*
X91697288Y-117695710D01*
X91689720Y-117708336D01*
X91680952Y-117720159D01*
X91671066Y-117731066D01*
X91660159Y-117740952D01*
X91648336Y-117749720D01*
X91635710Y-117757288D01*
X91622403Y-117763582D01*
X91608543Y-117768541D01*
X91594264Y-117772118D01*
X91579703Y-117774278D01*
X91565000Y-117775000D01*
X89915000Y-117775000D01*
X89900297Y-117774278D01*
X89885736Y-117772118D01*
X89871457Y-117768541D01*
X89857597Y-117763582D01*
X89844290Y-117757288D01*
X89831664Y-117749720D01*
X89819841Y-117740952D01*
X89808934Y-117731066D01*
X89799048Y-117720159D01*
X89790280Y-117708336D01*
X89782712Y-117695710D01*
X89776418Y-117682403D01*
X89771459Y-117668543D01*
X89767882Y-117654264D01*
X89765722Y-117639703D01*
X89765000Y-117625000D01*
X89765000Y-117325000D01*
X89765722Y-117310297D01*
X89767882Y-117295736D01*
X89771459Y-117281457D01*
X89776418Y-117267597D01*
X89782712Y-117254290D01*
X89790280Y-117241664D01*
X89799048Y-117229841D01*
X89808934Y-117218934D01*
X89819841Y-117209048D01*
X89831664Y-117200280D01*
X89844290Y-117192712D01*
X89857597Y-117186418D01*
X89871457Y-117181459D01*
X89885736Y-117177882D01*
X89900297Y-117175722D01*
X89915000Y-117175000D01*
X91565000Y-117175000D01*
X91579703Y-117175722D01*
G37*
%TD.AperFunction*%
%TA.AperFunction,SMDPad,CuDef*%
%TO.P,U1,4*%
%TO.N,GNDD*%
G36*
X86629703Y-117175722D02*
G01*
X86644264Y-117177882D01*
X86658543Y-117181459D01*
X86672403Y-117186418D01*
X86685710Y-117192712D01*
X86698336Y-117200280D01*
X86710159Y-117209048D01*
X86721066Y-117218934D01*
X86730952Y-117229841D01*
X86739720Y-117241664D01*
X86747288Y-117254290D01*
X86753582Y-117267597D01*
X86758541Y-117281457D01*
X86762118Y-117295736D01*
X86764278Y-117310297D01*
X86765000Y-117325000D01*
X86765000Y-117625000D01*
X86764278Y-117639703D01*
X86762118Y-117654264D01*
X86758541Y-117668543D01*
X86753582Y-117682403D01*
X86747288Y-117695710D01*
X86739720Y-117708336D01*
X86730952Y-117720159D01*
X86721066Y-117731066D01*
X86710159Y-117740952D01*
X86698336Y-117749720D01*
X86685710Y-117757288D01*
X86672403Y-117763582D01*
X86658543Y-117768541D01*
X86644264Y-117772118D01*
X86629703Y-117774278D01*
X86615000Y-117775000D01*
X84965000Y-117775000D01*
X84950297Y-117774278D01*
X84935736Y-117772118D01*
X84921457Y-117768541D01*
X84907597Y-117763582D01*
X84894290Y-117757288D01*
X84881664Y-117749720D01*
X84869841Y-117740952D01*
X84858934Y-117731066D01*
X84849048Y-117720159D01*
X84840280Y-117708336D01*
X84832712Y-117695710D01*
X84826418Y-117682403D01*
X84821459Y-117668543D01*
X84817882Y-117654264D01*
X84815722Y-117639703D01*
X84815000Y-117625000D01*
X84815000Y-117325000D01*
X84815722Y-117310297D01*
X84817882Y-117295736D01*
X84821459Y-117281457D01*
X84826418Y-117267597D01*
X84832712Y-117254290D01*
X84840280Y-117241664D01*
X84849048Y-117229841D01*
X84858934Y-117218934D01*
X84869841Y-117209048D01*
X84881664Y-117200280D01*
X84894290Y-117192712D01*
X84907597Y-117186418D01*
X84921457Y-117181459D01*
X84935736Y-117177882D01*
X84950297Y-117175722D01*
X84965000Y-117175000D01*
X86615000Y-117175000D01*
X86629703Y-117175722D01*
G37*
%TD.AperFunction*%
%TA.AperFunction,SMDPad,CuDef*%
%TO.P,U1,3*%
%TO.N,MP4*%
G36*
X86629703Y-115905722D02*
G01*
X86644264Y-115907882D01*
X86658543Y-115911459D01*
X86672403Y-115916418D01*
X86685710Y-115922712D01*
X86698336Y-115930280D01*
X86710159Y-115939048D01*
X86721066Y-115948934D01*
X86730952Y-115959841D01*
X86739720Y-115971664D01*
X86747288Y-115984290D01*
X86753582Y-115997597D01*
X86758541Y-116011457D01*
X86762118Y-116025736D01*
X86764278Y-116040297D01*
X86765000Y-116055000D01*
X86765000Y-116355000D01*
X86764278Y-116369703D01*
X86762118Y-116384264D01*
X86758541Y-116398543D01*
X86753582Y-116412403D01*
X86747288Y-116425710D01*
X86739720Y-116438336D01*
X86730952Y-116450159D01*
X86721066Y-116461066D01*
X86710159Y-116470952D01*
X86698336Y-116479720D01*
X86685710Y-116487288D01*
X86672403Y-116493582D01*
X86658543Y-116498541D01*
X86644264Y-116502118D01*
X86629703Y-116504278D01*
X86615000Y-116505000D01*
X84965000Y-116505000D01*
X84950297Y-116504278D01*
X84935736Y-116502118D01*
X84921457Y-116498541D01*
X84907597Y-116493582D01*
X84894290Y-116487288D01*
X84881664Y-116479720D01*
X84869841Y-116470952D01*
X84858934Y-116461066D01*
X84849048Y-116450159D01*
X84840280Y-116438336D01*
X84832712Y-116425710D01*
X84826418Y-116412403D01*
X84821459Y-116398543D01*
X84817882Y-116384264D01*
X84815722Y-116369703D01*
X84815000Y-116355000D01*
X84815000Y-116055000D01*
X84815722Y-116040297D01*
X84817882Y-116025736D01*
X84821459Y-116011457D01*
X84826418Y-115997597D01*
X84832712Y-115984290D01*
X84840280Y-115971664D01*
X84849048Y-115959841D01*
X84858934Y-115948934D01*
X84869841Y-115939048D01*
X84881664Y-115930280D01*
X84894290Y-115922712D01*
X84907597Y-115916418D01*
X84921457Y-115911459D01*
X84935736Y-115907882D01*
X84950297Y-115905722D01*
X84965000Y-115905000D01*
X86615000Y-115905000D01*
X86629703Y-115905722D01*
G37*
%TD.AperFunction*%
%TA.AperFunction,SMDPad,CuDef*%
%TO.P,U1,2*%
%TO.N,MP3*%
G36*
X86629703Y-114635722D02*
G01*
X86644264Y-114637882D01*
X86658543Y-114641459D01*
X86672403Y-114646418D01*
X86685710Y-114652712D01*
X86698336Y-114660280D01*
X86710159Y-114669048D01*
X86721066Y-114678934D01*
X86730952Y-114689841D01*
X86739720Y-114701664D01*
X86747288Y-114714290D01*
X86753582Y-114727597D01*
X86758541Y-114741457D01*
X86762118Y-114755736D01*
X86764278Y-114770297D01*
X86765000Y-114785000D01*
X86765000Y-115085000D01*
X86764278Y-115099703D01*
X86762118Y-115114264D01*
X86758541Y-115128543D01*
X86753582Y-115142403D01*
X86747288Y-115155710D01*
X86739720Y-115168336D01*
X86730952Y-115180159D01*
X86721066Y-115191066D01*
X86710159Y-115200952D01*
X86698336Y-115209720D01*
X86685710Y-115217288D01*
X86672403Y-115223582D01*
X86658543Y-115228541D01*
X86644264Y-115232118D01*
X86629703Y-115234278D01*
X86615000Y-115235000D01*
X84965000Y-115235000D01*
X84950297Y-115234278D01*
X84935736Y-115232118D01*
X84921457Y-115228541D01*
X84907597Y-115223582D01*
X84894290Y-115217288D01*
X84881664Y-115209720D01*
X84869841Y-115200952D01*
X84858934Y-115191066D01*
X84849048Y-115180159D01*
X84840280Y-115168336D01*
X84832712Y-115155710D01*
X84826418Y-115142403D01*
X84821459Y-115128543D01*
X84817882Y-115114264D01*
X84815722Y-115099703D01*
X84815000Y-115085000D01*
X84815000Y-114785000D01*
X84815722Y-114770297D01*
X84817882Y-114755736D01*
X84821459Y-114741457D01*
X84826418Y-114727597D01*
X84832712Y-114714290D01*
X84840280Y-114701664D01*
X84849048Y-114689841D01*
X84858934Y-114678934D01*
X84869841Y-114669048D01*
X84881664Y-114660280D01*
X84894290Y-114652712D01*
X84907597Y-114646418D01*
X84921457Y-114641459D01*
X84935736Y-114637882D01*
X84950297Y-114635722D01*
X84965000Y-114635000D01*
X86615000Y-114635000D01*
X86629703Y-114635722D01*
G37*
%TD.AperFunction*%
%TA.AperFunction,SMDPad,CuDef*%
%TO.P,U1,1*%
%TO.N,MP7*%
G36*
X86629703Y-113365722D02*
G01*
X86644264Y-113367882D01*
X86658543Y-113371459D01*
X86672403Y-113376418D01*
X86685710Y-113382712D01*
X86698336Y-113390280D01*
X86710159Y-113399048D01*
X86721066Y-113408934D01*
X86730952Y-113419841D01*
X86739720Y-113431664D01*
X86747288Y-113444290D01*
X86753582Y-113457597D01*
X86758541Y-113471457D01*
X86762118Y-113485736D01*
X86764278Y-113500297D01*
X86765000Y-113515000D01*
X86765000Y-113815000D01*
X86764278Y-113829703D01*
X86762118Y-113844264D01*
X86758541Y-113858543D01*
X86753582Y-113872403D01*
X86747288Y-113885710D01*
X86739720Y-113898336D01*
X86730952Y-113910159D01*
X86721066Y-113921066D01*
X86710159Y-113930952D01*
X86698336Y-113939720D01*
X86685710Y-113947288D01*
X86672403Y-113953582D01*
X86658543Y-113958541D01*
X86644264Y-113962118D01*
X86629703Y-113964278D01*
X86615000Y-113965000D01*
X84965000Y-113965000D01*
X84950297Y-113964278D01*
X84935736Y-113962118D01*
X84921457Y-113958541D01*
X84907597Y-113953582D01*
X84894290Y-113947288D01*
X84881664Y-113939720D01*
X84869841Y-113930952D01*
X84858934Y-113921066D01*
X84849048Y-113910159D01*
X84840280Y-113898336D01*
X84832712Y-113885710D01*
X84826418Y-113872403D01*
X84821459Y-113858543D01*
X84817882Y-113844264D01*
X84815722Y-113829703D01*
X84815000Y-113815000D01*
X84815000Y-113515000D01*
X84815722Y-113500297D01*
X84817882Y-113485736D01*
X84821459Y-113471457D01*
X84826418Y-113457597D01*
X84832712Y-113444290D01*
X84840280Y-113431664D01*
X84849048Y-113419841D01*
X84858934Y-113408934D01*
X84869841Y-113399048D01*
X84881664Y-113390280D01*
X84894290Y-113382712D01*
X84907597Y-113376418D01*
X84921457Y-113371459D01*
X84935736Y-113367882D01*
X84950297Y-113365722D01*
X84965000Y-113365000D01*
X86615000Y-113365000D01*
X86629703Y-113365722D01*
G37*
%TD.AperFunction*%
%TD*%
D20*
%TO.P,Q1,3*%
%TO.N,MP6*%
X73787000Y-125492000D03*
%TO.P,Q1,2*%
%TO.N,GNDD*%
X74737000Y-127492000D03*
%TO.P,Q1,1*%
%TO.N,MP13*%
X72837000Y-127492000D03*
%TD*%
%TO.P,D7,3*%
%TO.N,MP1*%
X89789000Y-129175000D03*
%TO.P,D7,2*%
%TO.N,N/C*%
X90739000Y-131175000D03*
%TO.P,D7,1*%
%TO.N,SIGNAL*%
X88839000Y-131175000D03*
%TD*%
D21*
%TO.P,D1,2*%
%TO.N,MP6*%
X74930000Y-122935000D03*
%TO.P,D1,1*%
%TO.N,SIGNAL*%
X74930000Y-119635000D03*
%TD*%
%TA.AperFunction,SMDPad,CuDef*%
D19*
%TO.P,R19,2*%
%TO.N,+3V3*%
G36*
X71141504Y-121046204D02*
G01*
X71165773Y-121049804D01*
X71189571Y-121055765D01*
X71212671Y-121064030D01*
X71234849Y-121074520D01*
X71255893Y-121087133D01*
X71275598Y-121101747D01*
X71293777Y-121118223D01*
X71310253Y-121136402D01*
X71324867Y-121156107D01*
X71337480Y-121177151D01*
X71347970Y-121199329D01*
X71356235Y-121222429D01*
X71362196Y-121246227D01*
X71365796Y-121270496D01*
X71367000Y-121295000D01*
X71367000Y-122545000D01*
X71365796Y-122569504D01*
X71362196Y-122593773D01*
X71356235Y-122617571D01*
X71347970Y-122640671D01*
X71337480Y-122662849D01*
X71324867Y-122683893D01*
X71310253Y-122703598D01*
X71293777Y-122721777D01*
X71275598Y-122738253D01*
X71255893Y-122752867D01*
X71234849Y-122765480D01*
X71212671Y-122775970D01*
X71189571Y-122784235D01*
X71165773Y-122790196D01*
X71141504Y-122793796D01*
X71117000Y-122795000D01*
X70367000Y-122795000D01*
X70342496Y-122793796D01*
X70318227Y-122790196D01*
X70294429Y-122784235D01*
X70271329Y-122775970D01*
X70249151Y-122765480D01*
X70228107Y-122752867D01*
X70208402Y-122738253D01*
X70190223Y-122721777D01*
X70173747Y-122703598D01*
X70159133Y-122683893D01*
X70146520Y-122662849D01*
X70136030Y-122640671D01*
X70127765Y-122617571D01*
X70121804Y-122593773D01*
X70118204Y-122569504D01*
X70117000Y-122545000D01*
X70117000Y-121295000D01*
X70118204Y-121270496D01*
X70121804Y-121246227D01*
X70127765Y-121222429D01*
X70136030Y-121199329D01*
X70146520Y-121177151D01*
X70159133Y-121156107D01*
X70173747Y-121136402D01*
X70190223Y-121118223D01*
X70208402Y-121101747D01*
X70228107Y-121087133D01*
X70249151Y-121074520D01*
X70271329Y-121064030D01*
X70294429Y-121055765D01*
X70318227Y-121049804D01*
X70342496Y-121046204D01*
X70367000Y-121045000D01*
X71117000Y-121045000D01*
X71141504Y-121046204D01*
G37*
%TD.AperFunction*%
%TA.AperFunction,SMDPad,CuDef*%
%TO.P,R19,1*%
%TO.N,Net-(D6-Pad2)*%
G36*
X68341504Y-121046204D02*
G01*
X68365773Y-121049804D01*
X68389571Y-121055765D01*
X68412671Y-121064030D01*
X68434849Y-121074520D01*
X68455893Y-121087133D01*
X68475598Y-121101747D01*
X68493777Y-121118223D01*
X68510253Y-121136402D01*
X68524867Y-121156107D01*
X68537480Y-121177151D01*
X68547970Y-121199329D01*
X68556235Y-121222429D01*
X68562196Y-121246227D01*
X68565796Y-121270496D01*
X68567000Y-121295000D01*
X68567000Y-122545000D01*
X68565796Y-122569504D01*
X68562196Y-122593773D01*
X68556235Y-122617571D01*
X68547970Y-122640671D01*
X68537480Y-122662849D01*
X68524867Y-122683893D01*
X68510253Y-122703598D01*
X68493777Y-122721777D01*
X68475598Y-122738253D01*
X68455893Y-122752867D01*
X68434849Y-122765480D01*
X68412671Y-122775970D01*
X68389571Y-122784235D01*
X68365773Y-122790196D01*
X68341504Y-122793796D01*
X68317000Y-122795000D01*
X67567000Y-122795000D01*
X67542496Y-122793796D01*
X67518227Y-122790196D01*
X67494429Y-122784235D01*
X67471329Y-122775970D01*
X67449151Y-122765480D01*
X67428107Y-122752867D01*
X67408402Y-122738253D01*
X67390223Y-122721777D01*
X67373747Y-122703598D01*
X67359133Y-122683893D01*
X67346520Y-122662849D01*
X67336030Y-122640671D01*
X67327765Y-122617571D01*
X67321804Y-122593773D01*
X67318204Y-122569504D01*
X67317000Y-122545000D01*
X67317000Y-121295000D01*
X67318204Y-121270496D01*
X67321804Y-121246227D01*
X67327765Y-121222429D01*
X67336030Y-121199329D01*
X67346520Y-121177151D01*
X67359133Y-121156107D01*
X67373747Y-121136402D01*
X67390223Y-121118223D01*
X67408402Y-121101747D01*
X67428107Y-121087133D01*
X67449151Y-121074520D01*
X67471329Y-121064030D01*
X67494429Y-121055765D01*
X67518227Y-121049804D01*
X67542496Y-121046204D01*
X67567000Y-121045000D01*
X68317000Y-121045000D01*
X68341504Y-121046204D01*
G37*
%TD.AperFunction*%
%TD*%
%TA.AperFunction,SMDPad,CuDef*%
%TO.P,R17,2*%
%TO.N,MP5*%
G36*
X71141504Y-136286204D02*
G01*
X71165773Y-136289804D01*
X71189571Y-136295765D01*
X71212671Y-136304030D01*
X71234849Y-136314520D01*
X71255893Y-136327133D01*
X71275598Y-136341747D01*
X71293777Y-136358223D01*
X71310253Y-136376402D01*
X71324867Y-136396107D01*
X71337480Y-136417151D01*
X71347970Y-136439329D01*
X71356235Y-136462429D01*
X71362196Y-136486227D01*
X71365796Y-136510496D01*
X71367000Y-136535000D01*
X71367000Y-137785000D01*
X71365796Y-137809504D01*
X71362196Y-137833773D01*
X71356235Y-137857571D01*
X71347970Y-137880671D01*
X71337480Y-137902849D01*
X71324867Y-137923893D01*
X71310253Y-137943598D01*
X71293777Y-137961777D01*
X71275598Y-137978253D01*
X71255893Y-137992867D01*
X71234849Y-138005480D01*
X71212671Y-138015970D01*
X71189571Y-138024235D01*
X71165773Y-138030196D01*
X71141504Y-138033796D01*
X71117000Y-138035000D01*
X70367000Y-138035000D01*
X70342496Y-138033796D01*
X70318227Y-138030196D01*
X70294429Y-138024235D01*
X70271329Y-138015970D01*
X70249151Y-138005480D01*
X70228107Y-137992867D01*
X70208402Y-137978253D01*
X70190223Y-137961777D01*
X70173747Y-137943598D01*
X70159133Y-137923893D01*
X70146520Y-137902849D01*
X70136030Y-137880671D01*
X70127765Y-137857571D01*
X70121804Y-137833773D01*
X70118204Y-137809504D01*
X70117000Y-137785000D01*
X70117000Y-136535000D01*
X70118204Y-136510496D01*
X70121804Y-136486227D01*
X70127765Y-136462429D01*
X70136030Y-136439329D01*
X70146520Y-136417151D01*
X70159133Y-136396107D01*
X70173747Y-136376402D01*
X70190223Y-136358223D01*
X70208402Y-136341747D01*
X70228107Y-136327133D01*
X70249151Y-136314520D01*
X70271329Y-136304030D01*
X70294429Y-136295765D01*
X70318227Y-136289804D01*
X70342496Y-136286204D01*
X70367000Y-136285000D01*
X71117000Y-136285000D01*
X71141504Y-136286204D01*
G37*
%TD.AperFunction*%
%TA.AperFunction,SMDPad,CuDef*%
%TO.P,R17,1*%
%TO.N,Net-(D5-Pad2)*%
G36*
X68341504Y-136286204D02*
G01*
X68365773Y-136289804D01*
X68389571Y-136295765D01*
X68412671Y-136304030D01*
X68434849Y-136314520D01*
X68455893Y-136327133D01*
X68475598Y-136341747D01*
X68493777Y-136358223D01*
X68510253Y-136376402D01*
X68524867Y-136396107D01*
X68537480Y-136417151D01*
X68547970Y-136439329D01*
X68556235Y-136462429D01*
X68562196Y-136486227D01*
X68565796Y-136510496D01*
X68567000Y-136535000D01*
X68567000Y-137785000D01*
X68565796Y-137809504D01*
X68562196Y-137833773D01*
X68556235Y-137857571D01*
X68547970Y-137880671D01*
X68537480Y-137902849D01*
X68524867Y-137923893D01*
X68510253Y-137943598D01*
X68493777Y-137961777D01*
X68475598Y-137978253D01*
X68455893Y-137992867D01*
X68434849Y-138005480D01*
X68412671Y-138015970D01*
X68389571Y-138024235D01*
X68365773Y-138030196D01*
X68341504Y-138033796D01*
X68317000Y-138035000D01*
X67567000Y-138035000D01*
X67542496Y-138033796D01*
X67518227Y-138030196D01*
X67494429Y-138024235D01*
X67471329Y-138015970D01*
X67449151Y-138005480D01*
X67428107Y-137992867D01*
X67408402Y-137978253D01*
X67390223Y-137961777D01*
X67373747Y-137943598D01*
X67359133Y-137923893D01*
X67346520Y-137902849D01*
X67336030Y-137880671D01*
X67327765Y-137857571D01*
X67321804Y-137833773D01*
X67318204Y-137809504D01*
X67317000Y-137785000D01*
X67317000Y-136535000D01*
X67318204Y-136510496D01*
X67321804Y-136486227D01*
X67327765Y-136462429D01*
X67336030Y-136439329D01*
X67346520Y-136417151D01*
X67359133Y-136396107D01*
X67373747Y-136376402D01*
X67390223Y-136358223D01*
X67408402Y-136341747D01*
X67428107Y-136327133D01*
X67449151Y-136314520D01*
X67471329Y-136304030D01*
X67494429Y-136295765D01*
X67518227Y-136289804D01*
X67542496Y-136286204D01*
X67567000Y-136285000D01*
X68317000Y-136285000D01*
X68341504Y-136286204D01*
G37*
%TD.AperFunction*%
%TD*%
%TA.AperFunction,SMDPad,CuDef*%
%TO.P,R16,2*%
%TO.N,+3V3*%
G36*
X71141504Y-126126204D02*
G01*
X71165773Y-126129804D01*
X71189571Y-126135765D01*
X71212671Y-126144030D01*
X71234849Y-126154520D01*
X71255893Y-126167133D01*
X71275598Y-126181747D01*
X71293777Y-126198223D01*
X71310253Y-126216402D01*
X71324867Y-126236107D01*
X71337480Y-126257151D01*
X71347970Y-126279329D01*
X71356235Y-126302429D01*
X71362196Y-126326227D01*
X71365796Y-126350496D01*
X71367000Y-126375000D01*
X71367000Y-127625000D01*
X71365796Y-127649504D01*
X71362196Y-127673773D01*
X71356235Y-127697571D01*
X71347970Y-127720671D01*
X71337480Y-127742849D01*
X71324867Y-127763893D01*
X71310253Y-127783598D01*
X71293777Y-127801777D01*
X71275598Y-127818253D01*
X71255893Y-127832867D01*
X71234849Y-127845480D01*
X71212671Y-127855970D01*
X71189571Y-127864235D01*
X71165773Y-127870196D01*
X71141504Y-127873796D01*
X71117000Y-127875000D01*
X70367000Y-127875000D01*
X70342496Y-127873796D01*
X70318227Y-127870196D01*
X70294429Y-127864235D01*
X70271329Y-127855970D01*
X70249151Y-127845480D01*
X70228107Y-127832867D01*
X70208402Y-127818253D01*
X70190223Y-127801777D01*
X70173747Y-127783598D01*
X70159133Y-127763893D01*
X70146520Y-127742849D01*
X70136030Y-127720671D01*
X70127765Y-127697571D01*
X70121804Y-127673773D01*
X70118204Y-127649504D01*
X70117000Y-127625000D01*
X70117000Y-126375000D01*
X70118204Y-126350496D01*
X70121804Y-126326227D01*
X70127765Y-126302429D01*
X70136030Y-126279329D01*
X70146520Y-126257151D01*
X70159133Y-126236107D01*
X70173747Y-126216402D01*
X70190223Y-126198223D01*
X70208402Y-126181747D01*
X70228107Y-126167133D01*
X70249151Y-126154520D01*
X70271329Y-126144030D01*
X70294429Y-126135765D01*
X70318227Y-126129804D01*
X70342496Y-126126204D01*
X70367000Y-126125000D01*
X71117000Y-126125000D01*
X71141504Y-126126204D01*
G37*
%TD.AperFunction*%
%TA.AperFunction,SMDPad,CuDef*%
%TO.P,R16,1*%
%TO.N,Net-(D4-Pad2)*%
G36*
X68341504Y-126126204D02*
G01*
X68365773Y-126129804D01*
X68389571Y-126135765D01*
X68412671Y-126144030D01*
X68434849Y-126154520D01*
X68455893Y-126167133D01*
X68475598Y-126181747D01*
X68493777Y-126198223D01*
X68510253Y-126216402D01*
X68524867Y-126236107D01*
X68537480Y-126257151D01*
X68547970Y-126279329D01*
X68556235Y-126302429D01*
X68562196Y-126326227D01*
X68565796Y-126350496D01*
X68567000Y-126375000D01*
X68567000Y-127625000D01*
X68565796Y-127649504D01*
X68562196Y-127673773D01*
X68556235Y-127697571D01*
X68547970Y-127720671D01*
X68537480Y-127742849D01*
X68524867Y-127763893D01*
X68510253Y-127783598D01*
X68493777Y-127801777D01*
X68475598Y-127818253D01*
X68455893Y-127832867D01*
X68434849Y-127845480D01*
X68412671Y-127855970D01*
X68389571Y-127864235D01*
X68365773Y-127870196D01*
X68341504Y-127873796D01*
X68317000Y-127875000D01*
X67567000Y-127875000D01*
X67542496Y-127873796D01*
X67518227Y-127870196D01*
X67494429Y-127864235D01*
X67471329Y-127855970D01*
X67449151Y-127845480D01*
X67428107Y-127832867D01*
X67408402Y-127818253D01*
X67390223Y-127801777D01*
X67373747Y-127783598D01*
X67359133Y-127763893D01*
X67346520Y-127742849D01*
X67336030Y-127720671D01*
X67327765Y-127697571D01*
X67321804Y-127673773D01*
X67318204Y-127649504D01*
X67317000Y-127625000D01*
X67317000Y-126375000D01*
X67318204Y-126350496D01*
X67321804Y-126326227D01*
X67327765Y-126302429D01*
X67336030Y-126279329D01*
X67346520Y-126257151D01*
X67359133Y-126236107D01*
X67373747Y-126216402D01*
X67390223Y-126198223D01*
X67408402Y-126181747D01*
X67428107Y-126167133D01*
X67449151Y-126154520D01*
X67471329Y-126144030D01*
X67494429Y-126135765D01*
X67518227Y-126129804D01*
X67542496Y-126126204D01*
X67567000Y-126125000D01*
X68317000Y-126125000D01*
X68341504Y-126126204D01*
G37*
%TD.AperFunction*%
%TD*%
%TA.AperFunction,SMDPad,CuDef*%
%TO.P,R15,2*%
%TO.N,+3V3*%
G36*
X78634504Y-93106204D02*
G01*
X78658773Y-93109804D01*
X78682571Y-93115765D01*
X78705671Y-93124030D01*
X78727849Y-93134520D01*
X78748893Y-93147133D01*
X78768598Y-93161747D01*
X78786777Y-93178223D01*
X78803253Y-93196402D01*
X78817867Y-93216107D01*
X78830480Y-93237151D01*
X78840970Y-93259329D01*
X78849235Y-93282429D01*
X78855196Y-93306227D01*
X78858796Y-93330496D01*
X78860000Y-93355000D01*
X78860000Y-94605000D01*
X78858796Y-94629504D01*
X78855196Y-94653773D01*
X78849235Y-94677571D01*
X78840970Y-94700671D01*
X78830480Y-94722849D01*
X78817867Y-94743893D01*
X78803253Y-94763598D01*
X78786777Y-94781777D01*
X78768598Y-94798253D01*
X78748893Y-94812867D01*
X78727849Y-94825480D01*
X78705671Y-94835970D01*
X78682571Y-94844235D01*
X78658773Y-94850196D01*
X78634504Y-94853796D01*
X78610000Y-94855000D01*
X77860000Y-94855000D01*
X77835496Y-94853796D01*
X77811227Y-94850196D01*
X77787429Y-94844235D01*
X77764329Y-94835970D01*
X77742151Y-94825480D01*
X77721107Y-94812867D01*
X77701402Y-94798253D01*
X77683223Y-94781777D01*
X77666747Y-94763598D01*
X77652133Y-94743893D01*
X77639520Y-94722849D01*
X77629030Y-94700671D01*
X77620765Y-94677571D01*
X77614804Y-94653773D01*
X77611204Y-94629504D01*
X77610000Y-94605000D01*
X77610000Y-93355000D01*
X77611204Y-93330496D01*
X77614804Y-93306227D01*
X77620765Y-93282429D01*
X77629030Y-93259329D01*
X77639520Y-93237151D01*
X77652133Y-93216107D01*
X77666747Y-93196402D01*
X77683223Y-93178223D01*
X77701402Y-93161747D01*
X77721107Y-93147133D01*
X77742151Y-93134520D01*
X77764329Y-93124030D01*
X77787429Y-93115765D01*
X77811227Y-93109804D01*
X77835496Y-93106204D01*
X77860000Y-93105000D01*
X78610000Y-93105000D01*
X78634504Y-93106204D01*
G37*
%TD.AperFunction*%
%TA.AperFunction,SMDPad,CuDef*%
%TO.P,R15,1*%
%TO.N,RX*%
G36*
X75834504Y-93106204D02*
G01*
X75858773Y-93109804D01*
X75882571Y-93115765D01*
X75905671Y-93124030D01*
X75927849Y-93134520D01*
X75948893Y-93147133D01*
X75968598Y-93161747D01*
X75986777Y-93178223D01*
X76003253Y-93196402D01*
X76017867Y-93216107D01*
X76030480Y-93237151D01*
X76040970Y-93259329D01*
X76049235Y-93282429D01*
X76055196Y-93306227D01*
X76058796Y-93330496D01*
X76060000Y-93355000D01*
X76060000Y-94605000D01*
X76058796Y-94629504D01*
X76055196Y-94653773D01*
X76049235Y-94677571D01*
X76040970Y-94700671D01*
X76030480Y-94722849D01*
X76017867Y-94743893D01*
X76003253Y-94763598D01*
X75986777Y-94781777D01*
X75968598Y-94798253D01*
X75948893Y-94812867D01*
X75927849Y-94825480D01*
X75905671Y-94835970D01*
X75882571Y-94844235D01*
X75858773Y-94850196D01*
X75834504Y-94853796D01*
X75810000Y-94855000D01*
X75060000Y-94855000D01*
X75035496Y-94853796D01*
X75011227Y-94850196D01*
X74987429Y-94844235D01*
X74964329Y-94835970D01*
X74942151Y-94825480D01*
X74921107Y-94812867D01*
X74901402Y-94798253D01*
X74883223Y-94781777D01*
X74866747Y-94763598D01*
X74852133Y-94743893D01*
X74839520Y-94722849D01*
X74829030Y-94700671D01*
X74820765Y-94677571D01*
X74814804Y-94653773D01*
X74811204Y-94629504D01*
X74810000Y-94605000D01*
X74810000Y-93355000D01*
X74811204Y-93330496D01*
X74814804Y-93306227D01*
X74820765Y-93282429D01*
X74829030Y-93259329D01*
X74839520Y-93237151D01*
X74852133Y-93216107D01*
X74866747Y-93196402D01*
X74883223Y-93178223D01*
X74901402Y-93161747D01*
X74921107Y-93147133D01*
X74942151Y-93134520D01*
X74964329Y-93124030D01*
X74987429Y-93115765D01*
X75011227Y-93109804D01*
X75035496Y-93106204D01*
X75060000Y-93105000D01*
X75810000Y-93105000D01*
X75834504Y-93106204D01*
G37*
%TD.AperFunction*%
%TD*%
%TA.AperFunction,SMDPad,CuDef*%
%TO.P,R14,2*%
%TO.N,MP5*%
G36*
X82184504Y-104536204D02*
G01*
X82208773Y-104539804D01*
X82232571Y-104545765D01*
X82255671Y-104554030D01*
X82277849Y-104564520D01*
X82298893Y-104577133D01*
X82318598Y-104591747D01*
X82336777Y-104608223D01*
X82353253Y-104626402D01*
X82367867Y-104646107D01*
X82380480Y-104667151D01*
X82390970Y-104689329D01*
X82399235Y-104712429D01*
X82405196Y-104736227D01*
X82408796Y-104760496D01*
X82410000Y-104785000D01*
X82410000Y-106035000D01*
X82408796Y-106059504D01*
X82405196Y-106083773D01*
X82399235Y-106107571D01*
X82390970Y-106130671D01*
X82380480Y-106152849D01*
X82367867Y-106173893D01*
X82353253Y-106193598D01*
X82336777Y-106211777D01*
X82318598Y-106228253D01*
X82298893Y-106242867D01*
X82277849Y-106255480D01*
X82255671Y-106265970D01*
X82232571Y-106274235D01*
X82208773Y-106280196D01*
X82184504Y-106283796D01*
X82160000Y-106285000D01*
X81410000Y-106285000D01*
X81385496Y-106283796D01*
X81361227Y-106280196D01*
X81337429Y-106274235D01*
X81314329Y-106265970D01*
X81292151Y-106255480D01*
X81271107Y-106242867D01*
X81251402Y-106228253D01*
X81233223Y-106211777D01*
X81216747Y-106193598D01*
X81202133Y-106173893D01*
X81189520Y-106152849D01*
X81179030Y-106130671D01*
X81170765Y-106107571D01*
X81164804Y-106083773D01*
X81161204Y-106059504D01*
X81160000Y-106035000D01*
X81160000Y-104785000D01*
X81161204Y-104760496D01*
X81164804Y-104736227D01*
X81170765Y-104712429D01*
X81179030Y-104689329D01*
X81189520Y-104667151D01*
X81202133Y-104646107D01*
X81216747Y-104626402D01*
X81233223Y-104608223D01*
X81251402Y-104591747D01*
X81271107Y-104577133D01*
X81292151Y-104564520D01*
X81314329Y-104554030D01*
X81337429Y-104545765D01*
X81361227Y-104539804D01*
X81385496Y-104536204D01*
X81410000Y-104535000D01*
X82160000Y-104535000D01*
X82184504Y-104536204D01*
G37*
%TD.AperFunction*%
%TA.AperFunction,SMDPad,CuDef*%
%TO.P,R14,1*%
%TO.N,MP9*%
G36*
X84984504Y-104536204D02*
G01*
X85008773Y-104539804D01*
X85032571Y-104545765D01*
X85055671Y-104554030D01*
X85077849Y-104564520D01*
X85098893Y-104577133D01*
X85118598Y-104591747D01*
X85136777Y-104608223D01*
X85153253Y-104626402D01*
X85167867Y-104646107D01*
X85180480Y-104667151D01*
X85190970Y-104689329D01*
X85199235Y-104712429D01*
X85205196Y-104736227D01*
X85208796Y-104760496D01*
X85210000Y-104785000D01*
X85210000Y-106035000D01*
X85208796Y-106059504D01*
X85205196Y-106083773D01*
X85199235Y-106107571D01*
X85190970Y-106130671D01*
X85180480Y-106152849D01*
X85167867Y-106173893D01*
X85153253Y-106193598D01*
X85136777Y-106211777D01*
X85118598Y-106228253D01*
X85098893Y-106242867D01*
X85077849Y-106255480D01*
X85055671Y-106265970D01*
X85032571Y-106274235D01*
X85008773Y-106280196D01*
X84984504Y-106283796D01*
X84960000Y-106285000D01*
X84210000Y-106285000D01*
X84185496Y-106283796D01*
X84161227Y-106280196D01*
X84137429Y-106274235D01*
X84114329Y-106265970D01*
X84092151Y-106255480D01*
X84071107Y-106242867D01*
X84051402Y-106228253D01*
X84033223Y-106211777D01*
X84016747Y-106193598D01*
X84002133Y-106173893D01*
X83989520Y-106152849D01*
X83979030Y-106130671D01*
X83970765Y-106107571D01*
X83964804Y-106083773D01*
X83961204Y-106059504D01*
X83960000Y-106035000D01*
X83960000Y-104785000D01*
X83961204Y-104760496D01*
X83964804Y-104736227D01*
X83970765Y-104712429D01*
X83979030Y-104689329D01*
X83989520Y-104667151D01*
X84002133Y-104646107D01*
X84016747Y-104626402D01*
X84033223Y-104608223D01*
X84051402Y-104591747D01*
X84071107Y-104577133D01*
X84092151Y-104564520D01*
X84114329Y-104554030D01*
X84137429Y-104545765D01*
X84161227Y-104539804D01*
X84185496Y-104536204D01*
X84210000Y-104535000D01*
X84960000Y-104535000D01*
X84984504Y-104536204D01*
G37*
%TD.AperFunction*%
%TD*%
%TA.AperFunction,SMDPad,CuDef*%
%TO.P,R13,2*%
%TO.N,Net-(R13-Pad2)*%
G36*
X91334504Y-93106204D02*
G01*
X91358773Y-93109804D01*
X91382571Y-93115765D01*
X91405671Y-93124030D01*
X91427849Y-93134520D01*
X91448893Y-93147133D01*
X91468598Y-93161747D01*
X91486777Y-93178223D01*
X91503253Y-93196402D01*
X91517867Y-93216107D01*
X91530480Y-93237151D01*
X91540970Y-93259329D01*
X91549235Y-93282429D01*
X91555196Y-93306227D01*
X91558796Y-93330496D01*
X91560000Y-93355000D01*
X91560000Y-94605000D01*
X91558796Y-94629504D01*
X91555196Y-94653773D01*
X91549235Y-94677571D01*
X91540970Y-94700671D01*
X91530480Y-94722849D01*
X91517867Y-94743893D01*
X91503253Y-94763598D01*
X91486777Y-94781777D01*
X91468598Y-94798253D01*
X91448893Y-94812867D01*
X91427849Y-94825480D01*
X91405671Y-94835970D01*
X91382571Y-94844235D01*
X91358773Y-94850196D01*
X91334504Y-94853796D01*
X91310000Y-94855000D01*
X90560000Y-94855000D01*
X90535496Y-94853796D01*
X90511227Y-94850196D01*
X90487429Y-94844235D01*
X90464329Y-94835970D01*
X90442151Y-94825480D01*
X90421107Y-94812867D01*
X90401402Y-94798253D01*
X90383223Y-94781777D01*
X90366747Y-94763598D01*
X90352133Y-94743893D01*
X90339520Y-94722849D01*
X90329030Y-94700671D01*
X90320765Y-94677571D01*
X90314804Y-94653773D01*
X90311204Y-94629504D01*
X90310000Y-94605000D01*
X90310000Y-93355000D01*
X90311204Y-93330496D01*
X90314804Y-93306227D01*
X90320765Y-93282429D01*
X90329030Y-93259329D01*
X90339520Y-93237151D01*
X90352133Y-93216107D01*
X90366747Y-93196402D01*
X90383223Y-93178223D01*
X90401402Y-93161747D01*
X90421107Y-93147133D01*
X90442151Y-93134520D01*
X90464329Y-93124030D01*
X90487429Y-93115765D01*
X90511227Y-93109804D01*
X90535496Y-93106204D01*
X90560000Y-93105000D01*
X91310000Y-93105000D01*
X91334504Y-93106204D01*
G37*
%TD.AperFunction*%
%TA.AperFunction,SMDPad,CuDef*%
%TO.P,R13,1*%
%TO.N,+3V3*%
G36*
X88534504Y-93106204D02*
G01*
X88558773Y-93109804D01*
X88582571Y-93115765D01*
X88605671Y-93124030D01*
X88627849Y-93134520D01*
X88648893Y-93147133D01*
X88668598Y-93161747D01*
X88686777Y-93178223D01*
X88703253Y-93196402D01*
X88717867Y-93216107D01*
X88730480Y-93237151D01*
X88740970Y-93259329D01*
X88749235Y-93282429D01*
X88755196Y-93306227D01*
X88758796Y-93330496D01*
X88760000Y-93355000D01*
X88760000Y-94605000D01*
X88758796Y-94629504D01*
X88755196Y-94653773D01*
X88749235Y-94677571D01*
X88740970Y-94700671D01*
X88730480Y-94722849D01*
X88717867Y-94743893D01*
X88703253Y-94763598D01*
X88686777Y-94781777D01*
X88668598Y-94798253D01*
X88648893Y-94812867D01*
X88627849Y-94825480D01*
X88605671Y-94835970D01*
X88582571Y-94844235D01*
X88558773Y-94850196D01*
X88534504Y-94853796D01*
X88510000Y-94855000D01*
X87760000Y-94855000D01*
X87735496Y-94853796D01*
X87711227Y-94850196D01*
X87687429Y-94844235D01*
X87664329Y-94835970D01*
X87642151Y-94825480D01*
X87621107Y-94812867D01*
X87601402Y-94798253D01*
X87583223Y-94781777D01*
X87566747Y-94763598D01*
X87552133Y-94743893D01*
X87539520Y-94722849D01*
X87529030Y-94700671D01*
X87520765Y-94677571D01*
X87514804Y-94653773D01*
X87511204Y-94629504D01*
X87510000Y-94605000D01*
X87510000Y-93355000D01*
X87511204Y-93330496D01*
X87514804Y-93306227D01*
X87520765Y-93282429D01*
X87529030Y-93259329D01*
X87539520Y-93237151D01*
X87552133Y-93216107D01*
X87566747Y-93196402D01*
X87583223Y-93178223D01*
X87601402Y-93161747D01*
X87621107Y-93147133D01*
X87642151Y-93134520D01*
X87664329Y-93124030D01*
X87687429Y-93115765D01*
X87711227Y-93109804D01*
X87735496Y-93106204D01*
X87760000Y-93105000D01*
X88510000Y-93105000D01*
X88534504Y-93106204D01*
G37*
%TD.AperFunction*%
%TD*%
%TA.AperFunction,SMDPad,CuDef*%
%TO.P,R11,2*%
%TO.N,MP5*%
G36*
X91334504Y-96916204D02*
G01*
X91358773Y-96919804D01*
X91382571Y-96925765D01*
X91405671Y-96934030D01*
X91427849Y-96944520D01*
X91448893Y-96957133D01*
X91468598Y-96971747D01*
X91486777Y-96988223D01*
X91503253Y-97006402D01*
X91517867Y-97026107D01*
X91530480Y-97047151D01*
X91540970Y-97069329D01*
X91549235Y-97092429D01*
X91555196Y-97116227D01*
X91558796Y-97140496D01*
X91560000Y-97165000D01*
X91560000Y-98415000D01*
X91558796Y-98439504D01*
X91555196Y-98463773D01*
X91549235Y-98487571D01*
X91540970Y-98510671D01*
X91530480Y-98532849D01*
X91517867Y-98553893D01*
X91503253Y-98573598D01*
X91486777Y-98591777D01*
X91468598Y-98608253D01*
X91448893Y-98622867D01*
X91427849Y-98635480D01*
X91405671Y-98645970D01*
X91382571Y-98654235D01*
X91358773Y-98660196D01*
X91334504Y-98663796D01*
X91310000Y-98665000D01*
X90560000Y-98665000D01*
X90535496Y-98663796D01*
X90511227Y-98660196D01*
X90487429Y-98654235D01*
X90464329Y-98645970D01*
X90442151Y-98635480D01*
X90421107Y-98622867D01*
X90401402Y-98608253D01*
X90383223Y-98591777D01*
X90366747Y-98573598D01*
X90352133Y-98553893D01*
X90339520Y-98532849D01*
X90329030Y-98510671D01*
X90320765Y-98487571D01*
X90314804Y-98463773D01*
X90311204Y-98439504D01*
X90310000Y-98415000D01*
X90310000Y-97165000D01*
X90311204Y-97140496D01*
X90314804Y-97116227D01*
X90320765Y-97092429D01*
X90329030Y-97069329D01*
X90339520Y-97047151D01*
X90352133Y-97026107D01*
X90366747Y-97006402D01*
X90383223Y-96988223D01*
X90401402Y-96971747D01*
X90421107Y-96957133D01*
X90442151Y-96944520D01*
X90464329Y-96934030D01*
X90487429Y-96925765D01*
X90511227Y-96919804D01*
X90535496Y-96916204D01*
X90560000Y-96915000D01*
X91310000Y-96915000D01*
X91334504Y-96916204D01*
G37*
%TD.AperFunction*%
%TA.AperFunction,SMDPad,CuDef*%
%TO.P,R11,1*%
%TO.N,MP7*%
G36*
X88534504Y-96916204D02*
G01*
X88558773Y-96919804D01*
X88582571Y-96925765D01*
X88605671Y-96934030D01*
X88627849Y-96944520D01*
X88648893Y-96957133D01*
X88668598Y-96971747D01*
X88686777Y-96988223D01*
X88703253Y-97006402D01*
X88717867Y-97026107D01*
X88730480Y-97047151D01*
X88740970Y-97069329D01*
X88749235Y-97092429D01*
X88755196Y-97116227D01*
X88758796Y-97140496D01*
X88760000Y-97165000D01*
X88760000Y-98415000D01*
X88758796Y-98439504D01*
X88755196Y-98463773D01*
X88749235Y-98487571D01*
X88740970Y-98510671D01*
X88730480Y-98532849D01*
X88717867Y-98553893D01*
X88703253Y-98573598D01*
X88686777Y-98591777D01*
X88668598Y-98608253D01*
X88648893Y-98622867D01*
X88627849Y-98635480D01*
X88605671Y-98645970D01*
X88582571Y-98654235D01*
X88558773Y-98660196D01*
X88534504Y-98663796D01*
X88510000Y-98665000D01*
X87760000Y-98665000D01*
X87735496Y-98663796D01*
X87711227Y-98660196D01*
X87687429Y-98654235D01*
X87664329Y-98645970D01*
X87642151Y-98635480D01*
X87621107Y-98622867D01*
X87601402Y-98608253D01*
X87583223Y-98591777D01*
X87566747Y-98573598D01*
X87552133Y-98553893D01*
X87539520Y-98532849D01*
X87529030Y-98510671D01*
X87520765Y-98487571D01*
X87514804Y-98463773D01*
X87511204Y-98439504D01*
X87510000Y-98415000D01*
X87510000Y-97165000D01*
X87511204Y-97140496D01*
X87514804Y-97116227D01*
X87520765Y-97092429D01*
X87529030Y-97069329D01*
X87539520Y-97047151D01*
X87552133Y-97026107D01*
X87566747Y-97006402D01*
X87583223Y-96988223D01*
X87601402Y-96971747D01*
X87621107Y-96957133D01*
X87642151Y-96944520D01*
X87664329Y-96934030D01*
X87687429Y-96925765D01*
X87711227Y-96919804D01*
X87735496Y-96916204D01*
X87760000Y-96915000D01*
X88510000Y-96915000D01*
X88534504Y-96916204D01*
G37*
%TD.AperFunction*%
%TD*%
%TA.AperFunction,SMDPad,CuDef*%
%TO.P,R10,2*%
%TO.N,MP4*%
G36*
X82184504Y-100726204D02*
G01*
X82208773Y-100729804D01*
X82232571Y-100735765D01*
X82255671Y-100744030D01*
X82277849Y-100754520D01*
X82298893Y-100767133D01*
X82318598Y-100781747D01*
X82336777Y-100798223D01*
X82353253Y-100816402D01*
X82367867Y-100836107D01*
X82380480Y-100857151D01*
X82390970Y-100879329D01*
X82399235Y-100902429D01*
X82405196Y-100926227D01*
X82408796Y-100950496D01*
X82410000Y-100975000D01*
X82410000Y-102225000D01*
X82408796Y-102249504D01*
X82405196Y-102273773D01*
X82399235Y-102297571D01*
X82390970Y-102320671D01*
X82380480Y-102342849D01*
X82367867Y-102363893D01*
X82353253Y-102383598D01*
X82336777Y-102401777D01*
X82318598Y-102418253D01*
X82298893Y-102432867D01*
X82277849Y-102445480D01*
X82255671Y-102455970D01*
X82232571Y-102464235D01*
X82208773Y-102470196D01*
X82184504Y-102473796D01*
X82160000Y-102475000D01*
X81410000Y-102475000D01*
X81385496Y-102473796D01*
X81361227Y-102470196D01*
X81337429Y-102464235D01*
X81314329Y-102455970D01*
X81292151Y-102445480D01*
X81271107Y-102432867D01*
X81251402Y-102418253D01*
X81233223Y-102401777D01*
X81216747Y-102383598D01*
X81202133Y-102363893D01*
X81189520Y-102342849D01*
X81179030Y-102320671D01*
X81170765Y-102297571D01*
X81164804Y-102273773D01*
X81161204Y-102249504D01*
X81160000Y-102225000D01*
X81160000Y-100975000D01*
X81161204Y-100950496D01*
X81164804Y-100926227D01*
X81170765Y-100902429D01*
X81179030Y-100879329D01*
X81189520Y-100857151D01*
X81202133Y-100836107D01*
X81216747Y-100816402D01*
X81233223Y-100798223D01*
X81251402Y-100781747D01*
X81271107Y-100767133D01*
X81292151Y-100754520D01*
X81314329Y-100744030D01*
X81337429Y-100735765D01*
X81361227Y-100729804D01*
X81385496Y-100726204D01*
X81410000Y-100725000D01*
X82160000Y-100725000D01*
X82184504Y-100726204D01*
G37*
%TD.AperFunction*%
%TA.AperFunction,SMDPad,CuDef*%
%TO.P,R10,1*%
%TO.N,MP7*%
G36*
X84984504Y-100726204D02*
G01*
X85008773Y-100729804D01*
X85032571Y-100735765D01*
X85055671Y-100744030D01*
X85077849Y-100754520D01*
X85098893Y-100767133D01*
X85118598Y-100781747D01*
X85136777Y-100798223D01*
X85153253Y-100816402D01*
X85167867Y-100836107D01*
X85180480Y-100857151D01*
X85190970Y-100879329D01*
X85199235Y-100902429D01*
X85205196Y-100926227D01*
X85208796Y-100950496D01*
X85210000Y-100975000D01*
X85210000Y-102225000D01*
X85208796Y-102249504D01*
X85205196Y-102273773D01*
X85199235Y-102297571D01*
X85190970Y-102320671D01*
X85180480Y-102342849D01*
X85167867Y-102363893D01*
X85153253Y-102383598D01*
X85136777Y-102401777D01*
X85118598Y-102418253D01*
X85098893Y-102432867D01*
X85077849Y-102445480D01*
X85055671Y-102455970D01*
X85032571Y-102464235D01*
X85008773Y-102470196D01*
X84984504Y-102473796D01*
X84960000Y-102475000D01*
X84210000Y-102475000D01*
X84185496Y-102473796D01*
X84161227Y-102470196D01*
X84137429Y-102464235D01*
X84114329Y-102455970D01*
X84092151Y-102445480D01*
X84071107Y-102432867D01*
X84051402Y-102418253D01*
X84033223Y-102401777D01*
X84016747Y-102383598D01*
X84002133Y-102363893D01*
X83989520Y-102342849D01*
X83979030Y-102320671D01*
X83970765Y-102297571D01*
X83964804Y-102273773D01*
X83961204Y-102249504D01*
X83960000Y-102225000D01*
X83960000Y-100975000D01*
X83961204Y-100950496D01*
X83964804Y-100926227D01*
X83970765Y-100902429D01*
X83979030Y-100879329D01*
X83989520Y-100857151D01*
X84002133Y-100836107D01*
X84016747Y-100816402D01*
X84033223Y-100798223D01*
X84051402Y-100781747D01*
X84071107Y-100767133D01*
X84092151Y-100754520D01*
X84114329Y-100744030D01*
X84137429Y-100735765D01*
X84161227Y-100729804D01*
X84185496Y-100726204D01*
X84210000Y-100725000D01*
X84960000Y-100725000D01*
X84984504Y-100726204D01*
G37*
%TD.AperFunction*%
%TD*%
%TA.AperFunction,SMDPad,CuDef*%
%TO.P,R9,2*%
%TO.N,MP5*%
G36*
X84984504Y-93106204D02*
G01*
X85008773Y-93109804D01*
X85032571Y-93115765D01*
X85055671Y-93124030D01*
X85077849Y-93134520D01*
X85098893Y-93147133D01*
X85118598Y-93161747D01*
X85136777Y-93178223D01*
X85153253Y-93196402D01*
X85167867Y-93216107D01*
X85180480Y-93237151D01*
X85190970Y-93259329D01*
X85199235Y-93282429D01*
X85205196Y-93306227D01*
X85208796Y-93330496D01*
X85210000Y-93355000D01*
X85210000Y-94605000D01*
X85208796Y-94629504D01*
X85205196Y-94653773D01*
X85199235Y-94677571D01*
X85190970Y-94700671D01*
X85180480Y-94722849D01*
X85167867Y-94743893D01*
X85153253Y-94763598D01*
X85136777Y-94781777D01*
X85118598Y-94798253D01*
X85098893Y-94812867D01*
X85077849Y-94825480D01*
X85055671Y-94835970D01*
X85032571Y-94844235D01*
X85008773Y-94850196D01*
X84984504Y-94853796D01*
X84960000Y-94855000D01*
X84210000Y-94855000D01*
X84185496Y-94853796D01*
X84161227Y-94850196D01*
X84137429Y-94844235D01*
X84114329Y-94835970D01*
X84092151Y-94825480D01*
X84071107Y-94812867D01*
X84051402Y-94798253D01*
X84033223Y-94781777D01*
X84016747Y-94763598D01*
X84002133Y-94743893D01*
X83989520Y-94722849D01*
X83979030Y-94700671D01*
X83970765Y-94677571D01*
X83964804Y-94653773D01*
X83961204Y-94629504D01*
X83960000Y-94605000D01*
X83960000Y-93355000D01*
X83961204Y-93330496D01*
X83964804Y-93306227D01*
X83970765Y-93282429D01*
X83979030Y-93259329D01*
X83989520Y-93237151D01*
X84002133Y-93216107D01*
X84016747Y-93196402D01*
X84033223Y-93178223D01*
X84051402Y-93161747D01*
X84071107Y-93147133D01*
X84092151Y-93134520D01*
X84114329Y-93124030D01*
X84137429Y-93115765D01*
X84161227Y-93109804D01*
X84185496Y-93106204D01*
X84210000Y-93105000D01*
X84960000Y-93105000D01*
X84984504Y-93106204D01*
G37*
%TD.AperFunction*%
%TA.AperFunction,SMDPad,CuDef*%
%TO.P,R9,1*%
%TO.N,MP4*%
G36*
X82184504Y-93106204D02*
G01*
X82208773Y-93109804D01*
X82232571Y-93115765D01*
X82255671Y-93124030D01*
X82277849Y-93134520D01*
X82298893Y-93147133D01*
X82318598Y-93161747D01*
X82336777Y-93178223D01*
X82353253Y-93196402D01*
X82367867Y-93216107D01*
X82380480Y-93237151D01*
X82390970Y-93259329D01*
X82399235Y-93282429D01*
X82405196Y-93306227D01*
X82408796Y-93330496D01*
X82410000Y-93355000D01*
X82410000Y-94605000D01*
X82408796Y-94629504D01*
X82405196Y-94653773D01*
X82399235Y-94677571D01*
X82390970Y-94700671D01*
X82380480Y-94722849D01*
X82367867Y-94743893D01*
X82353253Y-94763598D01*
X82336777Y-94781777D01*
X82318598Y-94798253D01*
X82298893Y-94812867D01*
X82277849Y-94825480D01*
X82255671Y-94835970D01*
X82232571Y-94844235D01*
X82208773Y-94850196D01*
X82184504Y-94853796D01*
X82160000Y-94855000D01*
X81410000Y-94855000D01*
X81385496Y-94853796D01*
X81361227Y-94850196D01*
X81337429Y-94844235D01*
X81314329Y-94835970D01*
X81292151Y-94825480D01*
X81271107Y-94812867D01*
X81251402Y-94798253D01*
X81233223Y-94781777D01*
X81216747Y-94763598D01*
X81202133Y-94743893D01*
X81189520Y-94722849D01*
X81179030Y-94700671D01*
X81170765Y-94677571D01*
X81164804Y-94653773D01*
X81161204Y-94629504D01*
X81160000Y-94605000D01*
X81160000Y-93355000D01*
X81161204Y-93330496D01*
X81164804Y-93306227D01*
X81170765Y-93282429D01*
X81179030Y-93259329D01*
X81189520Y-93237151D01*
X81202133Y-93216107D01*
X81216747Y-93196402D01*
X81233223Y-93178223D01*
X81251402Y-93161747D01*
X81271107Y-93147133D01*
X81292151Y-93134520D01*
X81314329Y-93124030D01*
X81337429Y-93115765D01*
X81361227Y-93109804D01*
X81385496Y-93106204D01*
X81410000Y-93105000D01*
X82160000Y-93105000D01*
X82184504Y-93106204D01*
G37*
%TD.AperFunction*%
%TD*%
%TA.AperFunction,SMDPad,CuDef*%
%TO.P,R7,2*%
%TO.N,GNDD*%
G36*
X84984504Y-96916204D02*
G01*
X85008773Y-96919804D01*
X85032571Y-96925765D01*
X85055671Y-96934030D01*
X85077849Y-96944520D01*
X85098893Y-96957133D01*
X85118598Y-96971747D01*
X85136777Y-96988223D01*
X85153253Y-97006402D01*
X85167867Y-97026107D01*
X85180480Y-97047151D01*
X85190970Y-97069329D01*
X85199235Y-97092429D01*
X85205196Y-97116227D01*
X85208796Y-97140496D01*
X85210000Y-97165000D01*
X85210000Y-98415000D01*
X85208796Y-98439504D01*
X85205196Y-98463773D01*
X85199235Y-98487571D01*
X85190970Y-98510671D01*
X85180480Y-98532849D01*
X85167867Y-98553893D01*
X85153253Y-98573598D01*
X85136777Y-98591777D01*
X85118598Y-98608253D01*
X85098893Y-98622867D01*
X85077849Y-98635480D01*
X85055671Y-98645970D01*
X85032571Y-98654235D01*
X85008773Y-98660196D01*
X84984504Y-98663796D01*
X84960000Y-98665000D01*
X84210000Y-98665000D01*
X84185496Y-98663796D01*
X84161227Y-98660196D01*
X84137429Y-98654235D01*
X84114329Y-98645970D01*
X84092151Y-98635480D01*
X84071107Y-98622867D01*
X84051402Y-98608253D01*
X84033223Y-98591777D01*
X84016747Y-98573598D01*
X84002133Y-98553893D01*
X83989520Y-98532849D01*
X83979030Y-98510671D01*
X83970765Y-98487571D01*
X83964804Y-98463773D01*
X83961204Y-98439504D01*
X83960000Y-98415000D01*
X83960000Y-97165000D01*
X83961204Y-97140496D01*
X83964804Y-97116227D01*
X83970765Y-97092429D01*
X83979030Y-97069329D01*
X83989520Y-97047151D01*
X84002133Y-97026107D01*
X84016747Y-97006402D01*
X84033223Y-96988223D01*
X84051402Y-96971747D01*
X84071107Y-96957133D01*
X84092151Y-96944520D01*
X84114329Y-96934030D01*
X84137429Y-96925765D01*
X84161227Y-96919804D01*
X84185496Y-96916204D01*
X84210000Y-96915000D01*
X84960000Y-96915000D01*
X84984504Y-96916204D01*
G37*
%TD.AperFunction*%
%TA.AperFunction,SMDPad,CuDef*%
%TO.P,R7,1*%
%TO.N,MP4*%
G36*
X82184504Y-96916204D02*
G01*
X82208773Y-96919804D01*
X82232571Y-96925765D01*
X82255671Y-96934030D01*
X82277849Y-96944520D01*
X82298893Y-96957133D01*
X82318598Y-96971747D01*
X82336777Y-96988223D01*
X82353253Y-97006402D01*
X82367867Y-97026107D01*
X82380480Y-97047151D01*
X82390970Y-97069329D01*
X82399235Y-97092429D01*
X82405196Y-97116227D01*
X82408796Y-97140496D01*
X82410000Y-97165000D01*
X82410000Y-98415000D01*
X82408796Y-98439504D01*
X82405196Y-98463773D01*
X82399235Y-98487571D01*
X82390970Y-98510671D01*
X82380480Y-98532849D01*
X82367867Y-98553893D01*
X82353253Y-98573598D01*
X82336777Y-98591777D01*
X82318598Y-98608253D01*
X82298893Y-98622867D01*
X82277849Y-98635480D01*
X82255671Y-98645970D01*
X82232571Y-98654235D01*
X82208773Y-98660196D01*
X82184504Y-98663796D01*
X82160000Y-98665000D01*
X81410000Y-98665000D01*
X81385496Y-98663796D01*
X81361227Y-98660196D01*
X81337429Y-98654235D01*
X81314329Y-98645970D01*
X81292151Y-98635480D01*
X81271107Y-98622867D01*
X81251402Y-98608253D01*
X81233223Y-98591777D01*
X81216747Y-98573598D01*
X81202133Y-98553893D01*
X81189520Y-98532849D01*
X81179030Y-98510671D01*
X81170765Y-98487571D01*
X81164804Y-98463773D01*
X81161204Y-98439504D01*
X81160000Y-98415000D01*
X81160000Y-97165000D01*
X81161204Y-97140496D01*
X81164804Y-97116227D01*
X81170765Y-97092429D01*
X81179030Y-97069329D01*
X81189520Y-97047151D01*
X81202133Y-97026107D01*
X81216747Y-97006402D01*
X81233223Y-96988223D01*
X81251402Y-96971747D01*
X81271107Y-96957133D01*
X81292151Y-96944520D01*
X81314329Y-96934030D01*
X81337429Y-96925765D01*
X81361227Y-96919804D01*
X81385496Y-96916204D01*
X81410000Y-96915000D01*
X82160000Y-96915000D01*
X82184504Y-96916204D01*
G37*
%TD.AperFunction*%
%TD*%
%TA.AperFunction,SMDPad,CuDef*%
%TO.P,R6,2*%
%TO.N,MP5*%
G36*
X71141504Y-131206204D02*
G01*
X71165773Y-131209804D01*
X71189571Y-131215765D01*
X71212671Y-131224030D01*
X71234849Y-131234520D01*
X71255893Y-131247133D01*
X71275598Y-131261747D01*
X71293777Y-131278223D01*
X71310253Y-131296402D01*
X71324867Y-131316107D01*
X71337480Y-131337151D01*
X71347970Y-131359329D01*
X71356235Y-131382429D01*
X71362196Y-131406227D01*
X71365796Y-131430496D01*
X71367000Y-131455000D01*
X71367000Y-132705000D01*
X71365796Y-132729504D01*
X71362196Y-132753773D01*
X71356235Y-132777571D01*
X71347970Y-132800671D01*
X71337480Y-132822849D01*
X71324867Y-132843893D01*
X71310253Y-132863598D01*
X71293777Y-132881777D01*
X71275598Y-132898253D01*
X71255893Y-132912867D01*
X71234849Y-132925480D01*
X71212671Y-132935970D01*
X71189571Y-132944235D01*
X71165773Y-132950196D01*
X71141504Y-132953796D01*
X71117000Y-132955000D01*
X70367000Y-132955000D01*
X70342496Y-132953796D01*
X70318227Y-132950196D01*
X70294429Y-132944235D01*
X70271329Y-132935970D01*
X70249151Y-132925480D01*
X70228107Y-132912867D01*
X70208402Y-132898253D01*
X70190223Y-132881777D01*
X70173747Y-132863598D01*
X70159133Y-132843893D01*
X70146520Y-132822849D01*
X70136030Y-132800671D01*
X70127765Y-132777571D01*
X70121804Y-132753773D01*
X70118204Y-132729504D01*
X70117000Y-132705000D01*
X70117000Y-131455000D01*
X70118204Y-131430496D01*
X70121804Y-131406227D01*
X70127765Y-131382429D01*
X70136030Y-131359329D01*
X70146520Y-131337151D01*
X70159133Y-131316107D01*
X70173747Y-131296402D01*
X70190223Y-131278223D01*
X70208402Y-131261747D01*
X70228107Y-131247133D01*
X70249151Y-131234520D01*
X70271329Y-131224030D01*
X70294429Y-131215765D01*
X70318227Y-131209804D01*
X70342496Y-131206204D01*
X70367000Y-131205000D01*
X71117000Y-131205000D01*
X71141504Y-131206204D01*
G37*
%TD.AperFunction*%
%TA.AperFunction,SMDPad,CuDef*%
%TO.P,R6,1*%
%TO.N,MP11*%
G36*
X68341504Y-131206204D02*
G01*
X68365773Y-131209804D01*
X68389571Y-131215765D01*
X68412671Y-131224030D01*
X68434849Y-131234520D01*
X68455893Y-131247133D01*
X68475598Y-131261747D01*
X68493777Y-131278223D01*
X68510253Y-131296402D01*
X68524867Y-131316107D01*
X68537480Y-131337151D01*
X68547970Y-131359329D01*
X68556235Y-131382429D01*
X68562196Y-131406227D01*
X68565796Y-131430496D01*
X68567000Y-131455000D01*
X68567000Y-132705000D01*
X68565796Y-132729504D01*
X68562196Y-132753773D01*
X68556235Y-132777571D01*
X68547970Y-132800671D01*
X68537480Y-132822849D01*
X68524867Y-132843893D01*
X68510253Y-132863598D01*
X68493777Y-132881777D01*
X68475598Y-132898253D01*
X68455893Y-132912867D01*
X68434849Y-132925480D01*
X68412671Y-132935970D01*
X68389571Y-132944235D01*
X68365773Y-132950196D01*
X68341504Y-132953796D01*
X68317000Y-132955000D01*
X67567000Y-132955000D01*
X67542496Y-132953796D01*
X67518227Y-132950196D01*
X67494429Y-132944235D01*
X67471329Y-132935970D01*
X67449151Y-132925480D01*
X67428107Y-132912867D01*
X67408402Y-132898253D01*
X67390223Y-132881777D01*
X67373747Y-132863598D01*
X67359133Y-132843893D01*
X67346520Y-132822849D01*
X67336030Y-132800671D01*
X67327765Y-132777571D01*
X67321804Y-132753773D01*
X67318204Y-132729504D01*
X67317000Y-132705000D01*
X67317000Y-131455000D01*
X67318204Y-131430496D01*
X67321804Y-131406227D01*
X67327765Y-131382429D01*
X67336030Y-131359329D01*
X67346520Y-131337151D01*
X67359133Y-131316107D01*
X67373747Y-131296402D01*
X67390223Y-131278223D01*
X67408402Y-131261747D01*
X67428107Y-131247133D01*
X67449151Y-131234520D01*
X67471329Y-131224030D01*
X67494429Y-131215765D01*
X67518227Y-131209804D01*
X67542496Y-131206204D01*
X67567000Y-131205000D01*
X68317000Y-131205000D01*
X68341504Y-131206204D01*
G37*
%TD.AperFunction*%
%TD*%
%TA.AperFunction,SMDPad,CuDef*%
%TO.P,R4,2*%
%TO.N,MP3*%
G36*
X88534504Y-104536204D02*
G01*
X88558773Y-104539804D01*
X88582571Y-104545765D01*
X88605671Y-104554030D01*
X88627849Y-104564520D01*
X88648893Y-104577133D01*
X88668598Y-104591747D01*
X88686777Y-104608223D01*
X88703253Y-104626402D01*
X88717867Y-104646107D01*
X88730480Y-104667151D01*
X88740970Y-104689329D01*
X88749235Y-104712429D01*
X88755196Y-104736227D01*
X88758796Y-104760496D01*
X88760000Y-104785000D01*
X88760000Y-106035000D01*
X88758796Y-106059504D01*
X88755196Y-106083773D01*
X88749235Y-106107571D01*
X88740970Y-106130671D01*
X88730480Y-106152849D01*
X88717867Y-106173893D01*
X88703253Y-106193598D01*
X88686777Y-106211777D01*
X88668598Y-106228253D01*
X88648893Y-106242867D01*
X88627849Y-106255480D01*
X88605671Y-106265970D01*
X88582571Y-106274235D01*
X88558773Y-106280196D01*
X88534504Y-106283796D01*
X88510000Y-106285000D01*
X87760000Y-106285000D01*
X87735496Y-106283796D01*
X87711227Y-106280196D01*
X87687429Y-106274235D01*
X87664329Y-106265970D01*
X87642151Y-106255480D01*
X87621107Y-106242867D01*
X87601402Y-106228253D01*
X87583223Y-106211777D01*
X87566747Y-106193598D01*
X87552133Y-106173893D01*
X87539520Y-106152849D01*
X87529030Y-106130671D01*
X87520765Y-106107571D01*
X87514804Y-106083773D01*
X87511204Y-106059504D01*
X87510000Y-106035000D01*
X87510000Y-104785000D01*
X87511204Y-104760496D01*
X87514804Y-104736227D01*
X87520765Y-104712429D01*
X87529030Y-104689329D01*
X87539520Y-104667151D01*
X87552133Y-104646107D01*
X87566747Y-104626402D01*
X87583223Y-104608223D01*
X87601402Y-104591747D01*
X87621107Y-104577133D01*
X87642151Y-104564520D01*
X87664329Y-104554030D01*
X87687429Y-104545765D01*
X87711227Y-104539804D01*
X87735496Y-104536204D01*
X87760000Y-104535000D01*
X88510000Y-104535000D01*
X88534504Y-104536204D01*
G37*
%TD.AperFunction*%
%TA.AperFunction,SMDPad,CuDef*%
%TO.P,R4,1*%
%TO.N,GNDD*%
G36*
X91334504Y-104536204D02*
G01*
X91358773Y-104539804D01*
X91382571Y-104545765D01*
X91405671Y-104554030D01*
X91427849Y-104564520D01*
X91448893Y-104577133D01*
X91468598Y-104591747D01*
X91486777Y-104608223D01*
X91503253Y-104626402D01*
X91517867Y-104646107D01*
X91530480Y-104667151D01*
X91540970Y-104689329D01*
X91549235Y-104712429D01*
X91555196Y-104736227D01*
X91558796Y-104760496D01*
X91560000Y-104785000D01*
X91560000Y-106035000D01*
X91558796Y-106059504D01*
X91555196Y-106083773D01*
X91549235Y-106107571D01*
X91540970Y-106130671D01*
X91530480Y-106152849D01*
X91517867Y-106173893D01*
X91503253Y-106193598D01*
X91486777Y-106211777D01*
X91468598Y-106228253D01*
X91448893Y-106242867D01*
X91427849Y-106255480D01*
X91405671Y-106265970D01*
X91382571Y-106274235D01*
X91358773Y-106280196D01*
X91334504Y-106283796D01*
X91310000Y-106285000D01*
X90560000Y-106285000D01*
X90535496Y-106283796D01*
X90511227Y-106280196D01*
X90487429Y-106274235D01*
X90464329Y-106265970D01*
X90442151Y-106255480D01*
X90421107Y-106242867D01*
X90401402Y-106228253D01*
X90383223Y-106211777D01*
X90366747Y-106193598D01*
X90352133Y-106173893D01*
X90339520Y-106152849D01*
X90329030Y-106130671D01*
X90320765Y-106107571D01*
X90314804Y-106083773D01*
X90311204Y-106059504D01*
X90310000Y-106035000D01*
X90310000Y-104785000D01*
X90311204Y-104760496D01*
X90314804Y-104736227D01*
X90320765Y-104712429D01*
X90329030Y-104689329D01*
X90339520Y-104667151D01*
X90352133Y-104646107D01*
X90366747Y-104626402D01*
X90383223Y-104608223D01*
X90401402Y-104591747D01*
X90421107Y-104577133D01*
X90442151Y-104564520D01*
X90464329Y-104554030D01*
X90487429Y-104545765D01*
X90511227Y-104539804D01*
X90535496Y-104536204D01*
X90560000Y-104535000D01*
X91310000Y-104535000D01*
X91334504Y-104536204D01*
G37*
%TD.AperFunction*%
%TD*%
%TA.AperFunction,SMDPad,CuDef*%
%TO.P,R3,2*%
%TO.N,SIGNAL*%
G36*
X91334504Y-100726204D02*
G01*
X91358773Y-100729804D01*
X91382571Y-100735765D01*
X91405671Y-100744030D01*
X91427849Y-100754520D01*
X91448893Y-100767133D01*
X91468598Y-100781747D01*
X91486777Y-100798223D01*
X91503253Y-100816402D01*
X91517867Y-100836107D01*
X91530480Y-100857151D01*
X91540970Y-100879329D01*
X91549235Y-100902429D01*
X91555196Y-100926227D01*
X91558796Y-100950496D01*
X91560000Y-100975000D01*
X91560000Y-102225000D01*
X91558796Y-102249504D01*
X91555196Y-102273773D01*
X91549235Y-102297571D01*
X91540970Y-102320671D01*
X91530480Y-102342849D01*
X91517867Y-102363893D01*
X91503253Y-102383598D01*
X91486777Y-102401777D01*
X91468598Y-102418253D01*
X91448893Y-102432867D01*
X91427849Y-102445480D01*
X91405671Y-102455970D01*
X91382571Y-102464235D01*
X91358773Y-102470196D01*
X91334504Y-102473796D01*
X91310000Y-102475000D01*
X90560000Y-102475000D01*
X90535496Y-102473796D01*
X90511227Y-102470196D01*
X90487429Y-102464235D01*
X90464329Y-102455970D01*
X90442151Y-102445480D01*
X90421107Y-102432867D01*
X90401402Y-102418253D01*
X90383223Y-102401777D01*
X90366747Y-102383598D01*
X90352133Y-102363893D01*
X90339520Y-102342849D01*
X90329030Y-102320671D01*
X90320765Y-102297571D01*
X90314804Y-102273773D01*
X90311204Y-102249504D01*
X90310000Y-102225000D01*
X90310000Y-100975000D01*
X90311204Y-100950496D01*
X90314804Y-100926227D01*
X90320765Y-100902429D01*
X90329030Y-100879329D01*
X90339520Y-100857151D01*
X90352133Y-100836107D01*
X90366747Y-100816402D01*
X90383223Y-100798223D01*
X90401402Y-100781747D01*
X90421107Y-100767133D01*
X90442151Y-100754520D01*
X90464329Y-100744030D01*
X90487429Y-100735765D01*
X90511227Y-100729804D01*
X90535496Y-100726204D01*
X90560000Y-100725000D01*
X91310000Y-100725000D01*
X91334504Y-100726204D01*
G37*
%TD.AperFunction*%
%TA.AperFunction,SMDPad,CuDef*%
%TO.P,R3,1*%
%TO.N,MP3*%
G36*
X88534504Y-100726204D02*
G01*
X88558773Y-100729804D01*
X88582571Y-100735765D01*
X88605671Y-100744030D01*
X88627849Y-100754520D01*
X88648893Y-100767133D01*
X88668598Y-100781747D01*
X88686777Y-100798223D01*
X88703253Y-100816402D01*
X88717867Y-100836107D01*
X88730480Y-100857151D01*
X88740970Y-100879329D01*
X88749235Y-100902429D01*
X88755196Y-100926227D01*
X88758796Y-100950496D01*
X88760000Y-100975000D01*
X88760000Y-102225000D01*
X88758796Y-102249504D01*
X88755196Y-102273773D01*
X88749235Y-102297571D01*
X88740970Y-102320671D01*
X88730480Y-102342849D01*
X88717867Y-102363893D01*
X88703253Y-102383598D01*
X88686777Y-102401777D01*
X88668598Y-102418253D01*
X88648893Y-102432867D01*
X88627849Y-102445480D01*
X88605671Y-102455970D01*
X88582571Y-102464235D01*
X88558773Y-102470196D01*
X88534504Y-102473796D01*
X88510000Y-102475000D01*
X87760000Y-102475000D01*
X87735496Y-102473796D01*
X87711227Y-102470196D01*
X87687429Y-102464235D01*
X87664329Y-102455970D01*
X87642151Y-102445480D01*
X87621107Y-102432867D01*
X87601402Y-102418253D01*
X87583223Y-102401777D01*
X87566747Y-102383598D01*
X87552133Y-102363893D01*
X87539520Y-102342849D01*
X87529030Y-102320671D01*
X87520765Y-102297571D01*
X87514804Y-102273773D01*
X87511204Y-102249504D01*
X87510000Y-102225000D01*
X87510000Y-100975000D01*
X87511204Y-100950496D01*
X87514804Y-100926227D01*
X87520765Y-100902429D01*
X87529030Y-100879329D01*
X87539520Y-100857151D01*
X87552133Y-100836107D01*
X87566747Y-100816402D01*
X87583223Y-100798223D01*
X87601402Y-100781747D01*
X87621107Y-100767133D01*
X87642151Y-100754520D01*
X87664329Y-100744030D01*
X87687429Y-100735765D01*
X87711227Y-100729804D01*
X87735496Y-100726204D01*
X87760000Y-100725000D01*
X88510000Y-100725000D01*
X88534504Y-100726204D01*
G37*
%TD.AperFunction*%
%TD*%
%TA.AperFunction,SMDPad,CuDef*%
%TO.P,R1,2*%
%TO.N,GNDD*%
G36*
X75834504Y-96916204D02*
G01*
X75858773Y-96919804D01*
X75882571Y-96925765D01*
X75905671Y-96934030D01*
X75927849Y-96944520D01*
X75948893Y-96957133D01*
X75968598Y-96971747D01*
X75986777Y-96988223D01*
X76003253Y-97006402D01*
X76017867Y-97026107D01*
X76030480Y-97047151D01*
X76040970Y-97069329D01*
X76049235Y-97092429D01*
X76055196Y-97116227D01*
X76058796Y-97140496D01*
X76060000Y-97165000D01*
X76060000Y-98415000D01*
X76058796Y-98439504D01*
X76055196Y-98463773D01*
X76049235Y-98487571D01*
X76040970Y-98510671D01*
X76030480Y-98532849D01*
X76017867Y-98553893D01*
X76003253Y-98573598D01*
X75986777Y-98591777D01*
X75968598Y-98608253D01*
X75948893Y-98622867D01*
X75927849Y-98635480D01*
X75905671Y-98645970D01*
X75882571Y-98654235D01*
X75858773Y-98660196D01*
X75834504Y-98663796D01*
X75810000Y-98665000D01*
X75060000Y-98665000D01*
X75035496Y-98663796D01*
X75011227Y-98660196D01*
X74987429Y-98654235D01*
X74964329Y-98645970D01*
X74942151Y-98635480D01*
X74921107Y-98622867D01*
X74901402Y-98608253D01*
X74883223Y-98591777D01*
X74866747Y-98573598D01*
X74852133Y-98553893D01*
X74839520Y-98532849D01*
X74829030Y-98510671D01*
X74820765Y-98487571D01*
X74814804Y-98463773D01*
X74811204Y-98439504D01*
X74810000Y-98415000D01*
X74810000Y-97165000D01*
X74811204Y-97140496D01*
X74814804Y-97116227D01*
X74820765Y-97092429D01*
X74829030Y-97069329D01*
X74839520Y-97047151D01*
X74852133Y-97026107D01*
X74866747Y-97006402D01*
X74883223Y-96988223D01*
X74901402Y-96971747D01*
X74921107Y-96957133D01*
X74942151Y-96944520D01*
X74964329Y-96934030D01*
X74987429Y-96925765D01*
X75011227Y-96919804D01*
X75035496Y-96916204D01*
X75060000Y-96915000D01*
X75810000Y-96915000D01*
X75834504Y-96916204D01*
G37*
%TD.AperFunction*%
%TA.AperFunction,SMDPad,CuDef*%
%TO.P,R1,1*%
%TO.N,MP13*%
G36*
X78634504Y-96916204D02*
G01*
X78658773Y-96919804D01*
X78682571Y-96925765D01*
X78705671Y-96934030D01*
X78727849Y-96944520D01*
X78748893Y-96957133D01*
X78768598Y-96971747D01*
X78786777Y-96988223D01*
X78803253Y-97006402D01*
X78817867Y-97026107D01*
X78830480Y-97047151D01*
X78840970Y-97069329D01*
X78849235Y-97092429D01*
X78855196Y-97116227D01*
X78858796Y-97140496D01*
X78860000Y-97165000D01*
X78860000Y-98415000D01*
X78858796Y-98439504D01*
X78855196Y-98463773D01*
X78849235Y-98487571D01*
X78840970Y-98510671D01*
X78830480Y-98532849D01*
X78817867Y-98553893D01*
X78803253Y-98573598D01*
X78786777Y-98591777D01*
X78768598Y-98608253D01*
X78748893Y-98622867D01*
X78727849Y-98635480D01*
X78705671Y-98645970D01*
X78682571Y-98654235D01*
X78658773Y-98660196D01*
X78634504Y-98663796D01*
X78610000Y-98665000D01*
X77860000Y-98665000D01*
X77835496Y-98663796D01*
X77811227Y-98660196D01*
X77787429Y-98654235D01*
X77764329Y-98645970D01*
X77742151Y-98635480D01*
X77721107Y-98622867D01*
X77701402Y-98608253D01*
X77683223Y-98591777D01*
X77666747Y-98573598D01*
X77652133Y-98553893D01*
X77639520Y-98532849D01*
X77629030Y-98510671D01*
X77620765Y-98487571D01*
X77614804Y-98463773D01*
X77611204Y-98439504D01*
X77610000Y-98415000D01*
X77610000Y-97165000D01*
X77611204Y-97140496D01*
X77614804Y-97116227D01*
X77620765Y-97092429D01*
X77629030Y-97069329D01*
X77639520Y-97047151D01*
X77652133Y-97026107D01*
X77666747Y-97006402D01*
X77683223Y-96988223D01*
X77701402Y-96971747D01*
X77721107Y-96957133D01*
X77742151Y-96944520D01*
X77764329Y-96934030D01*
X77787429Y-96925765D01*
X77811227Y-96919804D01*
X77835496Y-96916204D01*
X77860000Y-96915000D01*
X78610000Y-96915000D01*
X78634504Y-96916204D01*
G37*
%TD.AperFunction*%
%TD*%
%TA.AperFunction,SMDPad,CuDef*%
%TO.P,C6,2*%
%TO.N,GNDD*%
G36*
X80539504Y-128539204D02*
G01*
X80563773Y-128542804D01*
X80587571Y-128548765D01*
X80610671Y-128557030D01*
X80632849Y-128567520D01*
X80653893Y-128580133D01*
X80673598Y-128594747D01*
X80691777Y-128611223D01*
X80708253Y-128629402D01*
X80722867Y-128649107D01*
X80735480Y-128670151D01*
X80745970Y-128692329D01*
X80754235Y-128715429D01*
X80760196Y-128739227D01*
X80763796Y-128763496D01*
X80765000Y-128788000D01*
X80765000Y-130038000D01*
X80763796Y-130062504D01*
X80760196Y-130086773D01*
X80754235Y-130110571D01*
X80745970Y-130133671D01*
X80735480Y-130155849D01*
X80722867Y-130176893D01*
X80708253Y-130196598D01*
X80691777Y-130214777D01*
X80673598Y-130231253D01*
X80653893Y-130245867D01*
X80632849Y-130258480D01*
X80610671Y-130268970D01*
X80587571Y-130277235D01*
X80563773Y-130283196D01*
X80539504Y-130286796D01*
X80515000Y-130288000D01*
X79765000Y-130288000D01*
X79740496Y-130286796D01*
X79716227Y-130283196D01*
X79692429Y-130277235D01*
X79669329Y-130268970D01*
X79647151Y-130258480D01*
X79626107Y-130245867D01*
X79606402Y-130231253D01*
X79588223Y-130214777D01*
X79571747Y-130196598D01*
X79557133Y-130176893D01*
X79544520Y-130155849D01*
X79534030Y-130133671D01*
X79525765Y-130110571D01*
X79519804Y-130086773D01*
X79516204Y-130062504D01*
X79515000Y-130038000D01*
X79515000Y-128788000D01*
X79516204Y-128763496D01*
X79519804Y-128739227D01*
X79525765Y-128715429D01*
X79534030Y-128692329D01*
X79544520Y-128670151D01*
X79557133Y-128649107D01*
X79571747Y-128629402D01*
X79588223Y-128611223D01*
X79606402Y-128594747D01*
X79626107Y-128580133D01*
X79647151Y-128567520D01*
X79669329Y-128557030D01*
X79692429Y-128548765D01*
X79716227Y-128542804D01*
X79740496Y-128539204D01*
X79765000Y-128538000D01*
X80515000Y-128538000D01*
X80539504Y-128539204D01*
G37*
%TD.AperFunction*%
%TA.AperFunction,SMDPad,CuDef*%
%TO.P,C6,1*%
%TO.N,MP5*%
G36*
X77739504Y-128539204D02*
G01*
X77763773Y-128542804D01*
X77787571Y-128548765D01*
X77810671Y-128557030D01*
X77832849Y-128567520D01*
X77853893Y-128580133D01*
X77873598Y-128594747D01*
X77891777Y-128611223D01*
X77908253Y-128629402D01*
X77922867Y-128649107D01*
X77935480Y-128670151D01*
X77945970Y-128692329D01*
X77954235Y-128715429D01*
X77960196Y-128739227D01*
X77963796Y-128763496D01*
X77965000Y-128788000D01*
X77965000Y-130038000D01*
X77963796Y-130062504D01*
X77960196Y-130086773D01*
X77954235Y-130110571D01*
X77945970Y-130133671D01*
X77935480Y-130155849D01*
X77922867Y-130176893D01*
X77908253Y-130196598D01*
X77891777Y-130214777D01*
X77873598Y-130231253D01*
X77853893Y-130245867D01*
X77832849Y-130258480D01*
X77810671Y-130268970D01*
X77787571Y-130277235D01*
X77763773Y-130283196D01*
X77739504Y-130286796D01*
X77715000Y-130288000D01*
X76965000Y-130288000D01*
X76940496Y-130286796D01*
X76916227Y-130283196D01*
X76892429Y-130277235D01*
X76869329Y-130268970D01*
X76847151Y-130258480D01*
X76826107Y-130245867D01*
X76806402Y-130231253D01*
X76788223Y-130214777D01*
X76771747Y-130196598D01*
X76757133Y-130176893D01*
X76744520Y-130155849D01*
X76734030Y-130133671D01*
X76725765Y-130110571D01*
X76719804Y-130086773D01*
X76716204Y-130062504D01*
X76715000Y-130038000D01*
X76715000Y-128788000D01*
X76716204Y-128763496D01*
X76719804Y-128739227D01*
X76725765Y-128715429D01*
X76734030Y-128692329D01*
X76744520Y-128670151D01*
X76757133Y-128649107D01*
X76771747Y-128629402D01*
X76788223Y-128611223D01*
X76806402Y-128594747D01*
X76826107Y-128580133D01*
X76847151Y-128567520D01*
X76869329Y-128557030D01*
X76892429Y-128548765D01*
X76916227Y-128542804D01*
X76940496Y-128539204D01*
X76965000Y-128538000D01*
X77715000Y-128538000D01*
X77739504Y-128539204D01*
G37*
%TD.AperFunction*%
%TD*%
%TA.AperFunction,SMDPad,CuDef*%
%TO.P,C1,2*%
%TO.N,GNDD*%
G36*
X83708504Y-128539204D02*
G01*
X83732773Y-128542804D01*
X83756571Y-128548765D01*
X83779671Y-128557030D01*
X83801849Y-128567520D01*
X83822893Y-128580133D01*
X83842598Y-128594747D01*
X83860777Y-128611223D01*
X83877253Y-128629402D01*
X83891867Y-128649107D01*
X83904480Y-128670151D01*
X83914970Y-128692329D01*
X83923235Y-128715429D01*
X83929196Y-128739227D01*
X83932796Y-128763496D01*
X83934000Y-128788000D01*
X83934000Y-130038000D01*
X83932796Y-130062504D01*
X83929196Y-130086773D01*
X83923235Y-130110571D01*
X83914970Y-130133671D01*
X83904480Y-130155849D01*
X83891867Y-130176893D01*
X83877253Y-130196598D01*
X83860777Y-130214777D01*
X83842598Y-130231253D01*
X83822893Y-130245867D01*
X83801849Y-130258480D01*
X83779671Y-130268970D01*
X83756571Y-130277235D01*
X83732773Y-130283196D01*
X83708504Y-130286796D01*
X83684000Y-130288000D01*
X82934000Y-130288000D01*
X82909496Y-130286796D01*
X82885227Y-130283196D01*
X82861429Y-130277235D01*
X82838329Y-130268970D01*
X82816151Y-130258480D01*
X82795107Y-130245867D01*
X82775402Y-130231253D01*
X82757223Y-130214777D01*
X82740747Y-130196598D01*
X82726133Y-130176893D01*
X82713520Y-130155849D01*
X82703030Y-130133671D01*
X82694765Y-130110571D01*
X82688804Y-130086773D01*
X82685204Y-130062504D01*
X82684000Y-130038000D01*
X82684000Y-128788000D01*
X82685204Y-128763496D01*
X82688804Y-128739227D01*
X82694765Y-128715429D01*
X82703030Y-128692329D01*
X82713520Y-128670151D01*
X82726133Y-128649107D01*
X82740747Y-128629402D01*
X82757223Y-128611223D01*
X82775402Y-128594747D01*
X82795107Y-128580133D01*
X82816151Y-128567520D01*
X82838329Y-128557030D01*
X82861429Y-128548765D01*
X82885227Y-128542804D01*
X82909496Y-128539204D01*
X82934000Y-128538000D01*
X83684000Y-128538000D01*
X83708504Y-128539204D01*
G37*
%TD.AperFunction*%
%TA.AperFunction,SMDPad,CuDef*%
%TO.P,C1,1*%
%TO.N,MP1*%
G36*
X86508504Y-128539204D02*
G01*
X86532773Y-128542804D01*
X86556571Y-128548765D01*
X86579671Y-128557030D01*
X86601849Y-128567520D01*
X86622893Y-128580133D01*
X86642598Y-128594747D01*
X86660777Y-128611223D01*
X86677253Y-128629402D01*
X86691867Y-128649107D01*
X86704480Y-128670151D01*
X86714970Y-128692329D01*
X86723235Y-128715429D01*
X86729196Y-128739227D01*
X86732796Y-128763496D01*
X86734000Y-128788000D01*
X86734000Y-130038000D01*
X86732796Y-130062504D01*
X86729196Y-130086773D01*
X86723235Y-130110571D01*
X86714970Y-130133671D01*
X86704480Y-130155849D01*
X86691867Y-130176893D01*
X86677253Y-130196598D01*
X86660777Y-130214777D01*
X86642598Y-130231253D01*
X86622893Y-130245867D01*
X86601849Y-130258480D01*
X86579671Y-130268970D01*
X86556571Y-130277235D01*
X86532773Y-130283196D01*
X86508504Y-130286796D01*
X86484000Y-130288000D01*
X85734000Y-130288000D01*
X85709496Y-130286796D01*
X85685227Y-130283196D01*
X85661429Y-130277235D01*
X85638329Y-130268970D01*
X85616151Y-130258480D01*
X85595107Y-130245867D01*
X85575402Y-130231253D01*
X85557223Y-130214777D01*
X85540747Y-130196598D01*
X85526133Y-130176893D01*
X85513520Y-130155849D01*
X85503030Y-130133671D01*
X85494765Y-130110571D01*
X85488804Y-130086773D01*
X85485204Y-130062504D01*
X85484000Y-130038000D01*
X85484000Y-128788000D01*
X85485204Y-128763496D01*
X85488804Y-128739227D01*
X85494765Y-128715429D01*
X85503030Y-128692329D01*
X85513520Y-128670151D01*
X85526133Y-128649107D01*
X85540747Y-128629402D01*
X85557223Y-128611223D01*
X85575402Y-128594747D01*
X85595107Y-128580133D01*
X85616151Y-128567520D01*
X85638329Y-128557030D01*
X85661429Y-128548765D01*
X85685227Y-128542804D01*
X85709496Y-128539204D01*
X85734000Y-128538000D01*
X86484000Y-128538000D01*
X86508504Y-128539204D01*
G37*
%TD.AperFunction*%
%TD*%
D22*
%TO.P,J1,2*%
%TO.N,+24V*%
X65532000Y-112593000D03*
D23*
%TO.P,J1,1*%
%TO.N,Net-(D3-Pad3)*%
X65532000Y-109093000D03*
%TD*%
D24*
%TO.P,D6,2*%
%TO.N,Net-(D6-Pad2)*%
X65532000Y-121920000D03*
D25*
%TO.P,D6,1*%
%TO.N,GNDREF*%
X65532000Y-119380000D03*
%TD*%
D24*
%TO.P,D5,2*%
%TO.N,Net-(D5-Pad2)*%
X65532000Y-137160000D03*
D25*
%TO.P,D5,1*%
%TO.N,GNDD*%
X65532000Y-134620000D03*
%TD*%
D24*
%TO.P,D4,2*%
%TO.N,Net-(D4-Pad2)*%
X65532000Y-127000000D03*
D25*
%TO.P,D4,1*%
%TO.N,RX*%
X65532000Y-124460000D03*
%TD*%
D24*
%TO.P,D2,2*%
%TO.N,MP11*%
X65532000Y-132080000D03*
D25*
%TO.P,D2,1*%
%TO.N,MP12*%
X65532000Y-129540000D03*
%TD*%
D26*
%TO.N,GNDD*%
X85979000Y-97790000D03*
X73914000Y-97790000D03*
X77343000Y-114554000D03*
X80899000Y-114554000D03*
X89810010Y-105283000D03*
X87884000Y-117221000D03*
X74422000Y-109982000D03*
%TO.N,SIGNAL*%
X83439000Y-109728000D03*
X78867000Y-113284000D03*
%TO.N,GNDREF*%
X108331000Y-90297000D03*
X76066653Y-117989347D03*
X105163613Y-111379000D03*
%TO.N,+3V3*%
X115697000Y-127889000D03*
X122428000Y-132842000D03*
X71299007Y-113750250D03*
X107696000Y-92456000D03*
%TO.N,RX*%
X78613000Y-122682000D03*
X116586000Y-128651000D03*
X117983000Y-135890000D03*
X104288058Y-109368058D03*
%TO.N,TX*%
X119253000Y-124079000D03*
X117856000Y-129794000D03*
X72771000Y-106172000D03*
X104713603Y-110367836D03*
%TO.N,+5VP*%
X121468158Y-92145842D03*
X120206647Y-93571353D03*
%TO.N,GPIO0*%
X113895447Y-131421447D03*
X115062000Y-132461000D03*
%TO.N,P_RX*%
X102235000Y-124079000D03*
X114427000Y-136779000D03*
%TO.N,P_TX*%
X103215583Y-124275116D03*
X115316000Y-139827000D03*
%TO.N,MP1*%
X76927862Y-91601138D03*
X88519000Y-128270000D03*
%TO.N,MP5*%
X77724000Y-126746000D03*
X88900000Y-114046000D03*
X86074006Y-91604980D03*
X86106000Y-93853000D03*
%TO.N,MP6*%
X85074003Y-91604980D03*
X86849999Y-103288000D03*
X86854847Y-106539847D03*
X76327000Y-123317000D03*
%TO.N,MP11*%
X80010000Y-91604980D03*
X76745720Y-97065000D03*
X79295001Y-107569000D03*
%TO.N,MP12*%
X82423000Y-119507000D03*
X81028861Y-91526505D03*
X91260011Y-119507000D03*
%TO.N,MP13*%
X74803000Y-121412000D03*
X80645000Y-118491000D03*
X82072346Y-91508326D03*
X80518000Y-97065000D03*
%TO.N,MP10*%
X78997346Y-91592329D03*
X92060029Y-115189000D03*
X92060029Y-121793000D03*
%TO.N,MP9*%
X88646000Y-124079000D03*
X83460010Y-104013000D03*
X77978000Y-91604980D03*
X75401000Y-96266000D03*
X76835000Y-99775998D03*
%TO.N,MP4*%
X87074009Y-91604980D03*
X81026000Y-95631000D03*
X73575998Y-87376000D03*
%TO.N,MP7*%
X85725000Y-111252000D03*
X85725000Y-107188000D03*
X84074000Y-91604980D03*
X85090000Y-95905010D03*
%TO.N,MP3*%
X88074012Y-91604980D03*
X87884000Y-99949000D03*
%TD*%
D27*
%TO.N,GNDD*%
X69215000Y-131793810D02*
X70706810Y-130302000D01*
X69215000Y-134620000D02*
X69215000Y-131793810D01*
X65532000Y-134620000D02*
X69215000Y-134620000D01*
X74737000Y-128192000D02*
X74737000Y-127492000D01*
X72627000Y-130302000D02*
X74737000Y-128192000D01*
X70706810Y-130302000D02*
X72627000Y-130302000D01*
X84585000Y-97790000D02*
X85979000Y-97790000D01*
X73914000Y-97790000D02*
X75435000Y-97790000D01*
X76200000Y-115697000D02*
X77343000Y-114554000D01*
X74549000Y-115697000D02*
X76200000Y-115697000D01*
X85490000Y-117175000D02*
X85790000Y-117475000D01*
X85113232Y-117175000D02*
X85490000Y-117175000D01*
X82492232Y-114554000D02*
X85113232Y-117175000D01*
X80899000Y-114554000D02*
X82492232Y-114554000D01*
X89937010Y-105410000D02*
X89810010Y-105283000D01*
X90935000Y-105410000D02*
X89937010Y-105410000D01*
X86044000Y-117221000D02*
X85790000Y-117475000D01*
X87884000Y-117221000D02*
X86044000Y-117221000D01*
X80140000Y-129413000D02*
X83309000Y-129413000D01*
X74737000Y-126792000D02*
X74737000Y-127492000D01*
X75508001Y-126020999D02*
X74737000Y-126792000D01*
X78072001Y-126020999D02*
X75508001Y-126020999D01*
X80140000Y-128088998D02*
X78072001Y-126020999D01*
X80140000Y-129413000D02*
X80140000Y-128088998D01*
X79515000Y-129413000D02*
X80140000Y-129413000D01*
X79375000Y-129553000D02*
X79515000Y-129413000D01*
X79375000Y-143329000D02*
X79375000Y-129553000D01*
X85025000Y-143329000D02*
X79375000Y-143329000D01*
X91464001Y-136889999D02*
X85025000Y-143329000D01*
X91464001Y-128778589D02*
X91464001Y-136889999D01*
X81501999Y-124449999D02*
X87135411Y-124449999D01*
X87135411Y-124449999D02*
X91464001Y-128778589D01*
X74549000Y-117497000D02*
X81501999Y-124449999D01*
X74549000Y-115697000D02*
X74549000Y-117497000D01*
X76474000Y-109982000D02*
X76768000Y-110276000D01*
X74422000Y-109982000D02*
X76474000Y-109982000D01*
%TO.N,SIGNAL*%
X90514001Y-128464999D02*
X89176002Y-127127000D01*
X89924002Y-130475000D02*
X90514001Y-129885001D01*
X90514001Y-129885001D02*
X90514001Y-128464999D01*
X89489000Y-130475000D02*
X89924002Y-130475000D01*
X88839000Y-131125000D02*
X89489000Y-130475000D01*
X88839000Y-131175000D02*
X88839000Y-131125000D01*
X81722000Y-127127000D02*
X74930000Y-120335000D01*
X89176002Y-127127000D02*
X81722000Y-127127000D01*
X74930000Y-120335000D02*
X74930000Y-119635000D01*
X74147000Y-119635000D02*
X74930000Y-119635000D01*
X72009000Y-117497000D02*
X74147000Y-119635000D01*
X72009000Y-115697000D02*
X72009000Y-117497000D01*
X85630190Y-109728000D02*
X83439000Y-109728000D01*
X89085010Y-106273180D02*
X85630190Y-109728000D01*
X89085010Y-102824990D02*
X89085010Y-106273180D01*
X90310000Y-101600000D02*
X89085010Y-102824990D01*
X90935000Y-101600000D02*
X90310000Y-101600000D01*
X72009000Y-113897000D02*
X72009000Y-115697000D01*
X72622000Y-113284000D02*
X72009000Y-113897000D01*
X78867000Y-113284000D02*
X72622000Y-113284000D01*
X72126000Y-113284000D02*
X71568000Y-112726000D01*
X71568000Y-112726000D02*
X71568000Y-110276000D01*
X72622000Y-113284000D02*
X72126000Y-113284000D01*
%TO.N,GNDREF*%
X66682000Y-119380000D02*
X65532000Y-119380000D01*
X67215190Y-119380000D02*
X66682000Y-119380000D01*
X68892010Y-121056820D02*
X67215190Y-119380000D01*
X68892010Y-123484992D02*
X68892010Y-121056820D01*
X66692001Y-125685001D02*
X68892010Y-123484992D01*
X64371999Y-125685001D02*
X66692001Y-125685001D01*
X63556990Y-98622010D02*
X63556990Y-124869992D01*
X63556990Y-124869992D02*
X64371999Y-125685001D01*
X65532000Y-96647000D02*
X63556990Y-98622010D01*
X108034000Y-86106000D02*
X106934000Y-86106000D01*
X108331000Y-86403000D02*
X108034000Y-86106000D01*
X108331000Y-90297000D02*
X108331000Y-86403000D01*
X80632306Y-122555000D02*
X76066653Y-117989347D01*
X84480000Y-122555000D02*
X80632306Y-122555000D01*
X101353613Y-115189000D02*
X99822000Y-115189000D01*
X105163613Y-111379000D02*
X101353613Y-115189000D01*
%TO.N,+3V3*%
X69172000Y-91567000D02*
X68072000Y-91567000D01*
X75197000Y-91567000D02*
X69172000Y-91567000D01*
X88135000Y-93105000D02*
X88135000Y-93980000D01*
X87809990Y-92779990D02*
X88135000Y-93105000D01*
X78235000Y-93105000D02*
X78560010Y-92779990D01*
X78560010Y-92779990D02*
X87809990Y-92779990D01*
X78235000Y-93980000D02*
X78235000Y-93105000D01*
X70742000Y-127000000D02*
X70742000Y-121920000D01*
X77610000Y-93980000D02*
X78235000Y-93980000D01*
X119830998Y-132842000D02*
X122428000Y-132842000D01*
X117130999Y-130142001D02*
X119830998Y-132842000D01*
X117311001Y-129265997D02*
X117130999Y-129445999D01*
X117311001Y-128302999D02*
X117311001Y-129265997D01*
X116897002Y-127889000D02*
X117311001Y-128302999D01*
X117130999Y-129445999D02*
X117130999Y-130142001D01*
X115697000Y-127889000D02*
X116897002Y-127889000D01*
X70742000Y-114307257D02*
X71299007Y-113750250D01*
X70742000Y-121920000D02*
X70742000Y-114307257D01*
X75946000Y-92329000D02*
X75197000Y-91567000D01*
X77610000Y-93980000D02*
X75946000Y-92329000D01*
X106934000Y-91694000D02*
X107696000Y-92456000D01*
X102235000Y-91694000D02*
X106934000Y-91694000D01*
D28*
%TO.N,Net-(D3-Pad3)*%
X71568000Y-104757000D02*
X71568000Y-102576000D01*
X67232000Y-109093000D02*
X71568000Y-104757000D01*
X65532000Y-109093000D02*
X67232000Y-109093000D01*
D27*
%TO.N,Net-(D4-Pad2)*%
X65532000Y-127000000D02*
X67942000Y-127000000D01*
%TO.N,RX*%
X81026000Y-125095000D02*
X84480000Y-125095000D01*
X78613000Y-122682000D02*
X81026000Y-125095000D01*
X64682001Y-100036999D02*
X65532000Y-99187000D01*
X64006999Y-100712001D02*
X64682001Y-100036999D01*
X64006999Y-124084999D02*
X64006999Y-100712001D01*
X64382000Y-124460000D02*
X64006999Y-124084999D01*
X65532000Y-124460000D02*
X64382000Y-124460000D01*
X66381999Y-98337001D02*
X65532000Y-99187000D01*
X70778001Y-98011999D02*
X66707001Y-98011999D01*
X74810000Y-93980000D02*
X70778001Y-98011999D01*
X66707001Y-98011999D02*
X66381999Y-98337001D01*
X75435000Y-93980000D02*
X74810000Y-93980000D01*
X116586000Y-134493000D02*
X117983000Y-135890000D01*
X116586000Y-128651000D02*
X116586000Y-134493000D01*
X100544999Y-100163999D02*
X99695000Y-99314000D01*
X104288058Y-102168056D02*
X102609003Y-100489001D01*
X104288058Y-109368058D02*
X104288058Y-102168056D01*
X102609003Y-100489001D02*
X100870001Y-100489001D01*
X100870001Y-100489001D02*
X100544999Y-100163999D01*
%TO.N,Net-(D5-Pad2)*%
X67942000Y-137160000D02*
X65532000Y-137160000D01*
%TO.N,Net-(D6-Pad2)*%
X65532000Y-121920000D02*
X67942000Y-121920000D01*
%TO.N,TX*%
X119253000Y-128397000D02*
X117856000Y-129794000D01*
X119253000Y-124079000D02*
X119253000Y-128397000D01*
X76649002Y-106172000D02*
X72771000Y-106172000D01*
X79375000Y-108897998D02*
X76649002Y-106172000D01*
X79375000Y-110515000D02*
X79375000Y-108897998D01*
X103563057Y-109782975D02*
X103563057Y-104843943D01*
X104147918Y-110367836D02*
X103563057Y-109782975D01*
X104713603Y-110367836D02*
X104147918Y-110367836D01*
X103563057Y-104843943D02*
X101716114Y-102997000D01*
X100838000Y-102997000D02*
X99695000Y-101854000D01*
X101716114Y-102997000D02*
X100838000Y-102997000D01*
%TO.N,Net-(R13-Pad2)*%
X82485000Y-110515000D02*
X81915000Y-110515000D01*
X91885010Y-106273180D02*
X87643190Y-110515000D01*
X91885010Y-94305010D02*
X91885010Y-106273180D01*
X87643190Y-110515000D02*
X82485000Y-110515000D01*
X91560000Y-93980000D02*
X91885010Y-94305010D01*
X90935000Y-93980000D02*
X91560000Y-93980000D01*
%TO.N,+5VP*%
X121468158Y-92309842D02*
X120206647Y-93571353D01*
X121468158Y-92145842D02*
X121468158Y-92309842D01*
D28*
%TO.N,+24V*%
X75068000Y-105276000D02*
X76768000Y-103576000D01*
X72357998Y-105276000D02*
X75068000Y-105276000D01*
X69917999Y-107715999D02*
X72357998Y-105276000D01*
X69917999Y-108207001D02*
X69917999Y-107715999D01*
X76768000Y-103576000D02*
X76768000Y-102576000D01*
X65532000Y-112593000D02*
X69917999Y-108207001D01*
D27*
%TO.N,GPIO0*%
X114022447Y-131421447D02*
X115062000Y-132461000D01*
X113895447Y-131421447D02*
X114022447Y-131421447D01*
%TO.N,P_RX*%
X102235000Y-124079000D02*
X102235000Y-125349000D01*
X113665000Y-136779000D02*
X114427000Y-136779000D01*
X102235000Y-125349000D02*
X113665000Y-136779000D01*
%TO.N,P_TX*%
X115316000Y-136375533D02*
X115316000Y-139827000D01*
X103215583Y-124275116D02*
X115316000Y-136375533D01*
%TO.N,MP1*%
X86347000Y-129175000D02*
X86109000Y-129413000D01*
X89789000Y-129175000D02*
X86347000Y-129175000D01*
X86109000Y-130288000D02*
X86109000Y-129413000D01*
X82715000Y-134179000D02*
X86109000Y-130785000D01*
X86109000Y-130785000D02*
X86109000Y-130288000D01*
X81915000Y-134179000D02*
X82715000Y-134179000D01*
X76820996Y-91694000D02*
X77089000Y-91694000D01*
X72850997Y-87724001D02*
X76820996Y-91694000D01*
X72850997Y-87027999D02*
X72850997Y-87724001D01*
X73899996Y-85979000D02*
X72850997Y-87027999D01*
X74676000Y-85979000D02*
X73899996Y-85979000D01*
X88884000Y-128270000D02*
X89789000Y-129175000D01*
X88519000Y-128270000D02*
X88884000Y-128270000D01*
%TO.N,MP5*%
X70742000Y-137160000D02*
X70742000Y-132080000D01*
X90359000Y-114046000D02*
X90740000Y-113665000D01*
X88900000Y-114046000D02*
X90359000Y-114046000D01*
X90935000Y-96915000D02*
X90935000Y-97790000D01*
X84910010Y-95180010D02*
X89200010Y-95180010D01*
X84585000Y-94855000D02*
X84910010Y-95180010D01*
X82410000Y-105410000D02*
X81785000Y-105410000D01*
X82735010Y-105084990D02*
X82410000Y-105410000D01*
X82735010Y-96704990D02*
X82735010Y-105084990D01*
X84585000Y-94855000D02*
X82735010Y-96704990D01*
X84585000Y-93980000D02*
X84585000Y-94855000D01*
X91548180Y-92779990D02*
X90321820Y-92779990D01*
X92335020Y-108794982D02*
X92335020Y-93566830D01*
X89408000Y-93693810D02*
X89408000Y-95250000D01*
X88500001Y-112630001D02*
X92335020Y-108794982D01*
X88500001Y-113646001D02*
X88500001Y-112630001D01*
X92335020Y-93566830D02*
X91548180Y-92779990D01*
X88900000Y-114046000D02*
X88500001Y-113646001D01*
X89408000Y-95250000D02*
X90935000Y-96915000D01*
X90321820Y-92779990D02*
X89408000Y-93693810D01*
X89200010Y-95180010D02*
X89408000Y-95250000D01*
X77340000Y-127130000D02*
X77724000Y-126746000D01*
X77340000Y-129413000D02*
X77340000Y-127130000D01*
X76835000Y-129918000D02*
X77340000Y-129413000D01*
X76835000Y-134179000D02*
X76835000Y-129918000D01*
X72390000Y-132080000D02*
X77724000Y-126746000D01*
X70742000Y-132080000D02*
X72390000Y-132080000D01*
X86074006Y-87899594D02*
X86074006Y-91604980D01*
X82878402Y-84703990D02*
X86074006Y-87899594D01*
X81031010Y-84703990D02*
X82878402Y-84703990D01*
X79756000Y-85979000D02*
X81031010Y-84703990D01*
X84712000Y-93853000D02*
X84585000Y-93980000D01*
X86106000Y-93853000D02*
X84712000Y-93853000D01*
%TO.N,MP6*%
X74437000Y-125492000D02*
X73787000Y-125492000D01*
X74930000Y-124999000D02*
X74437000Y-125492000D01*
X74930000Y-122935000D02*
X74930000Y-124999000D01*
X85074003Y-87536001D02*
X85074003Y-91604980D01*
X82692001Y-85153999D02*
X85074003Y-87536001D01*
X81851001Y-85153999D02*
X82692001Y-85153999D01*
X81026000Y-85979000D02*
X81851001Y-85153999D01*
X86849999Y-106534999D02*
X86854847Y-106539847D01*
X86849999Y-103288000D02*
X86849999Y-106534999D01*
X75312000Y-123317000D02*
X74930000Y-122935000D01*
X76327000Y-123317000D02*
X75312000Y-123317000D01*
%TO.N,MP11*%
X67942000Y-132080000D02*
X65532000Y-132080000D01*
X79756000Y-91350980D02*
X80010000Y-91604980D01*
X79756000Y-87249000D02*
X79756000Y-91350980D01*
X79295001Y-101117999D02*
X79295001Y-107569000D01*
X76745720Y-98568718D02*
X79295001Y-101117999D01*
X76745720Y-97065000D02*
X76745720Y-98568718D01*
%TO.N,MP12*%
X82423000Y-117323000D02*
X81915000Y-116815000D01*
X82423000Y-119507000D02*
X82423000Y-117323000D01*
X81026000Y-91523644D02*
X81028861Y-91526505D01*
X81026000Y-87249000D02*
X81026000Y-91523644D01*
X91260011Y-119507000D02*
X82423000Y-119507000D01*
%TO.N,MP13*%
X72837000Y-123392998D02*
X74803000Y-121426998D01*
X74803000Y-121426998D02*
X74803000Y-121412000D01*
X72837000Y-127492000D02*
X72837000Y-123392998D01*
X80645000Y-118085000D02*
X79375000Y-116815000D01*
X80645000Y-118491000D02*
X80645000Y-118085000D01*
X78860000Y-97790000D02*
X78235000Y-97790000D01*
X80020001Y-98950001D02*
X78860000Y-97790000D01*
X80020001Y-116739999D02*
X80020001Y-98950001D01*
X79945000Y-116815000D02*
X80020001Y-116739999D01*
X79375000Y-116815000D02*
X79945000Y-116815000D01*
X82296000Y-91284672D02*
X82072346Y-91508326D01*
X82296000Y-87249000D02*
X82296000Y-91284672D01*
X78960000Y-97065000D02*
X78235000Y-97790000D01*
X80518000Y-97065000D02*
X78960000Y-97065000D01*
%TO.N,MP10*%
X78486000Y-91080983D02*
X78997346Y-91592329D01*
X78486000Y-87249000D02*
X78486000Y-91080983D01*
X90994000Y-115189000D02*
X90740000Y-114935000D01*
X92060029Y-115189000D02*
X90994000Y-115189000D01*
X91542000Y-121793000D02*
X90780000Y-122555000D01*
X92060029Y-121793000D02*
X91542000Y-121793000D01*
%TO.N,MP9*%
X90334000Y-124079000D02*
X88646000Y-124079000D01*
X90780000Y-124525000D02*
X90334000Y-124079000D01*
X90780000Y-125095000D02*
X90780000Y-124525000D01*
X83460010Y-104285010D02*
X84585000Y-105410000D01*
X83460010Y-104013000D02*
X83460010Y-104285010D01*
X77216000Y-90863970D02*
X78232000Y-91879970D01*
X77216000Y-87249000D02*
X77216000Y-90863970D01*
X74826996Y-99775998D02*
X76835000Y-99775998D01*
X73188999Y-98138001D02*
X74826996Y-99775998D01*
X73188999Y-97441999D02*
X73188999Y-98138001D01*
X74364998Y-96266000D02*
X73188999Y-97441999D01*
X75401000Y-96266000D02*
X74364998Y-96266000D01*
%TO.N,MP4*%
X81785000Y-101600000D02*
X81785000Y-97790000D01*
X81785000Y-97790000D02*
X81785000Y-93980000D01*
X86765000Y-116205000D02*
X85790000Y-116205000D01*
X88495000Y-116205000D02*
X86765000Y-116205000D01*
X89765000Y-117475000D02*
X88495000Y-116205000D01*
X90740000Y-117475000D02*
X89765000Y-117475000D01*
X84815000Y-116205000D02*
X80470011Y-111860011D01*
X85790000Y-116205000D02*
X84815000Y-116205000D01*
X81160000Y-101600000D02*
X81785000Y-101600000D01*
X80470011Y-102289989D02*
X81160000Y-101600000D01*
X80470011Y-111860011D02*
X80470011Y-102289989D01*
X87074009Y-88263187D02*
X87074009Y-91604980D01*
X83064803Y-84253981D02*
X87074009Y-88263187D01*
X80211019Y-84253981D02*
X83064803Y-84253981D01*
X78486000Y-85979000D02*
X80211019Y-84253981D01*
X81026000Y-94739000D02*
X81785000Y-93980000D01*
X81026000Y-95631000D02*
X81026000Y-94739000D01*
X73575998Y-87734000D02*
X73575998Y-87376000D01*
X73915999Y-88074001D02*
X73575998Y-87734000D01*
X75828105Y-88074001D02*
X73915999Y-88074001D01*
X75946000Y-87956106D02*
X75828105Y-88074001D01*
X75946000Y-87249000D02*
X75946000Y-87956106D01*
%TO.N,MP7*%
X86765000Y-113665000D02*
X85790000Y-113665000D01*
X87225000Y-113665000D02*
X86765000Y-113665000D01*
X89765000Y-116205000D02*
X87225000Y-113665000D01*
X90740000Y-116205000D02*
X89765000Y-116205000D01*
X83960000Y-101600000D02*
X84585000Y-101600000D01*
X83634990Y-101274990D02*
X83960000Y-101600000D01*
X83971820Y-96589990D02*
X83634990Y-96926820D01*
X87510000Y-97790000D02*
X86309990Y-96589990D01*
X83634990Y-96926820D02*
X83634990Y-101274990D01*
X88135000Y-97790000D02*
X87510000Y-97790000D01*
X85790000Y-111317000D02*
X85725000Y-111252000D01*
X85790000Y-113665000D02*
X85790000Y-111317000D01*
X85210000Y-101600000D02*
X84585000Y-101600000D01*
X86124999Y-102514999D02*
X85210000Y-101600000D01*
X86124999Y-106788001D02*
X86124999Y-102514999D01*
X85725000Y-107188000D02*
X86124999Y-106788001D01*
X84074000Y-87757000D02*
X84074000Y-91604980D01*
X82296000Y-85979000D02*
X84074000Y-87757000D01*
X85139305Y-96520000D02*
X85852000Y-96520000D01*
X85090000Y-95905010D02*
X85090000Y-96470695D01*
X85090000Y-96470695D02*
X85139305Y-96520000D01*
X85852000Y-96520000D02*
X83971820Y-96589990D01*
X86309990Y-96589990D02*
X85852000Y-96520000D01*
%TO.N,MP3*%
X88135000Y-101600000D02*
X88135000Y-105410000D01*
X84201000Y-114935000D02*
X80920021Y-111654021D01*
X85790000Y-114935000D02*
X84201000Y-114935000D01*
X80920021Y-109604977D02*
X82447998Y-108077000D01*
X80920021Y-111654021D02*
X80920021Y-109604977D01*
X88135000Y-106285000D02*
X88135000Y-105410000D01*
X86343000Y-108077000D02*
X88135000Y-106285000D01*
X82447998Y-108077000D02*
X86343000Y-108077000D01*
X88074012Y-88626780D02*
X88074012Y-91604980D01*
X83251204Y-83803972D02*
X88074012Y-88626780D01*
X79391028Y-83803972D02*
X83251204Y-83803972D01*
X77216000Y-85979000D02*
X79391028Y-83803972D01*
X87884000Y-101349000D02*
X88135000Y-101600000D01*
X87884000Y-99949000D02*
X87884000Y-101349000D01*
%TD*%
D29*
%TO.N,GNDD*%
G36*
X84251200Y-116716002D02*
G01*
X84274999Y-116745001D01*
X84291350Y-116758420D01*
X84308730Y-116790936D01*
X84284463Y-116820506D01*
X84225498Y-116930820D01*
X84189188Y-117050518D01*
X84176928Y-117175000D01*
X84180000Y-117189250D01*
X84338750Y-117348000D01*
X85663000Y-117348000D01*
X85663000Y-117328000D01*
X85917000Y-117328000D01*
X85917000Y-117348000D01*
X87241250Y-117348000D01*
X87400000Y-117189250D01*
X87403072Y-117175000D01*
X87390812Y-117050518D01*
X87364870Y-116965000D01*
X88180199Y-116965000D01*
X89201201Y-117986003D01*
X89224999Y-118015001D01*
X89241350Y-118028420D01*
X89259742Y-118062829D01*
X89357749Y-118182251D01*
X89477171Y-118280258D01*
X89613418Y-118353084D01*
X89761255Y-118397929D01*
X89915000Y-118413072D01*
X91565000Y-118413072D01*
X91718745Y-118397929D01*
X91866582Y-118353084D01*
X92002829Y-118280258D01*
X92122251Y-118182251D01*
X92220258Y-118062829D01*
X92293084Y-117926582D01*
X92337929Y-117778745D01*
X92353072Y-117625000D01*
X92353072Y-117325000D01*
X92337929Y-117171255D01*
X92293084Y-117023418D01*
X92220258Y-116887171D01*
X92181546Y-116840000D01*
X92220258Y-116792829D01*
X92293084Y-116656582D01*
X92337929Y-116508745D01*
X92353072Y-116355000D01*
X92353072Y-116185987D01*
X92361927Y-116184226D01*
X92550285Y-116106205D01*
X92685000Y-116016191D01*
X92685000Y-120965809D01*
X92550285Y-120875795D01*
X92361927Y-120797774D01*
X92161968Y-120758000D01*
X91958090Y-120758000D01*
X91758131Y-120797774D01*
X91569773Y-120875795D01*
X91400255Y-120989063D01*
X91324554Y-121064764D01*
X91249753Y-121087454D01*
X91117724Y-121158026D01*
X91001999Y-121252999D01*
X90978201Y-121281998D01*
X90663270Y-121596928D01*
X89780000Y-121596928D01*
X89655518Y-121609188D01*
X89535820Y-121645498D01*
X89425506Y-121704463D01*
X89328815Y-121783815D01*
X89249463Y-121880506D01*
X89190498Y-121990820D01*
X89154188Y-122110518D01*
X89141928Y-122235000D01*
X89141928Y-122875000D01*
X89154188Y-122999482D01*
X89190498Y-123119180D01*
X89249463Y-123229494D01*
X89263897Y-123247082D01*
X89136256Y-123161795D01*
X88947898Y-123083774D01*
X88747939Y-123044000D01*
X88544061Y-123044000D01*
X88344102Y-123083774D01*
X88155744Y-123161795D01*
X87986226Y-123275063D01*
X87842063Y-123419226D01*
X87728795Y-123588744D01*
X87650774Y-123777102D01*
X87611000Y-123977061D01*
X87611000Y-124180939D01*
X87650774Y-124380898D01*
X87728795Y-124569256D01*
X87842063Y-124738774D01*
X87986226Y-124882937D01*
X88155744Y-124996205D01*
X88344102Y-125074226D01*
X88544061Y-125114000D01*
X88747939Y-125114000D01*
X88947898Y-125074226D01*
X89136256Y-124996205D01*
X89141928Y-124992415D01*
X89141928Y-125415000D01*
X89154188Y-125539482D01*
X89190498Y-125659180D01*
X89249463Y-125769494D01*
X89328815Y-125866185D01*
X89425506Y-125945537D01*
X89535820Y-126004502D01*
X89655518Y-126040812D01*
X89780000Y-126053072D01*
X91780000Y-126053072D01*
X91904482Y-126040812D01*
X92024180Y-126004502D01*
X92134494Y-125945537D01*
X92231185Y-125866185D01*
X92310537Y-125769494D01*
X92369502Y-125659180D01*
X92405812Y-125539482D01*
X92418072Y-125415000D01*
X92418072Y-124775000D01*
X92405812Y-124650518D01*
X92369502Y-124530820D01*
X92310537Y-124420506D01*
X92231185Y-124323815D01*
X92134494Y-124244463D01*
X92024180Y-124185498D01*
X91904482Y-124149188D01*
X91780000Y-124136928D01*
X91434326Y-124136928D01*
X91414974Y-124100724D01*
X91320001Y-123984999D01*
X91290997Y-123961196D01*
X90897804Y-123568003D01*
X90874001Y-123538999D01*
X90842409Y-123513072D01*
X91780000Y-123513072D01*
X91904482Y-123500812D01*
X92024180Y-123464502D01*
X92134494Y-123405537D01*
X92231185Y-123326185D01*
X92310537Y-123229494D01*
X92369502Y-123119180D01*
X92405812Y-122999482D01*
X92418072Y-122875000D01*
X92418072Y-122764970D01*
X92550285Y-122710205D01*
X92685000Y-122620191D01*
X92685000Y-145509722D01*
X92641254Y-145955882D01*
X92521055Y-146353999D01*
X92325819Y-146721185D01*
X92062977Y-147043461D01*
X91742548Y-147308542D01*
X91376731Y-147506339D01*
X90979461Y-147629314D01*
X90535274Y-147676000D01*
X85412826Y-147676000D01*
X85410570Y-144432872D01*
X87427000Y-144432872D01*
X87427000Y-144873128D01*
X87512890Y-145304925D01*
X87681369Y-145711669D01*
X87925962Y-146077729D01*
X88237271Y-146389038D01*
X88603331Y-146633631D01*
X89010075Y-146802110D01*
X89441872Y-146888000D01*
X89882128Y-146888000D01*
X90313925Y-146802110D01*
X90720669Y-146633631D01*
X91086729Y-146389038D01*
X91398038Y-146077729D01*
X91642631Y-145711669D01*
X91811110Y-145304925D01*
X91897000Y-144873128D01*
X91897000Y-144432872D01*
X91811110Y-144001075D01*
X91642631Y-143594331D01*
X91398038Y-143228271D01*
X91086729Y-142916962D01*
X90720669Y-142672369D01*
X90313925Y-142503890D01*
X89882128Y-142418000D01*
X89441872Y-142418000D01*
X89010075Y-142503890D01*
X88603331Y-142672369D01*
X88237271Y-142916962D01*
X87925962Y-143228271D01*
X87681369Y-143594331D01*
X87512890Y-144001075D01*
X87427000Y-144432872D01*
X85410570Y-144432872D01*
X85410000Y-143614750D01*
X85251250Y-143456000D01*
X79502000Y-143456000D01*
X79502000Y-143476000D01*
X79248000Y-143476000D01*
X79248000Y-143456000D01*
X73498750Y-143456000D01*
X73340000Y-143614750D01*
X73337174Y-147676000D01*
X66072278Y-147676000D01*
X65626118Y-147632254D01*
X65228001Y-147512055D01*
X64860815Y-147316819D01*
X64538539Y-147053977D01*
X64273458Y-146733548D01*
X64075661Y-146367731D01*
X63952686Y-145970461D01*
X63906000Y-145526274D01*
X63906000Y-144432872D01*
X64694000Y-144432872D01*
X64694000Y-144873128D01*
X64779890Y-145304925D01*
X64948369Y-145711669D01*
X65192962Y-146077729D01*
X65504271Y-146389038D01*
X65870331Y-146633631D01*
X66277075Y-146802110D01*
X66708872Y-146888000D01*
X67149128Y-146888000D01*
X67580925Y-146802110D01*
X67987669Y-146633631D01*
X68353729Y-146389038D01*
X68665038Y-146077729D01*
X68909631Y-145711669D01*
X69078110Y-145304925D01*
X69164000Y-144873128D01*
X69164000Y-144432872D01*
X69078110Y-144001075D01*
X68909631Y-143594331D01*
X68665038Y-143228271D01*
X68353729Y-142916962D01*
X67987669Y-142672369D01*
X67580925Y-142503890D01*
X67149128Y-142418000D01*
X66708872Y-142418000D01*
X66277075Y-142503890D01*
X65870331Y-142672369D01*
X65504271Y-142916962D01*
X65192962Y-143228271D01*
X64948369Y-143594331D01*
X64779890Y-144001075D01*
X64694000Y-144432872D01*
X63906000Y-144432872D01*
X63906000Y-135520000D01*
X63993928Y-135520000D01*
X64006188Y-135644482D01*
X64042498Y-135764180D01*
X64101463Y-135874494D01*
X64180815Y-135971185D01*
X64277506Y-136050537D01*
X64387820Y-136109502D01*
X64406127Y-136115056D01*
X64339688Y-136181495D01*
X64171701Y-136432905D01*
X64055989Y-136712257D01*
X63997000Y-137008816D01*
X63997000Y-137311184D01*
X64055989Y-137607743D01*
X64171701Y-137887095D01*
X64339688Y-138138505D01*
X64553495Y-138352312D01*
X64804905Y-138520299D01*
X65084257Y-138636011D01*
X65380816Y-138695000D01*
X65683184Y-138695000D01*
X65979743Y-138636011D01*
X66259095Y-138520299D01*
X66510505Y-138352312D01*
X66724312Y-138138505D01*
X66742440Y-138111374D01*
X66746528Y-138124850D01*
X66828595Y-138278386D01*
X66939038Y-138412962D01*
X67073614Y-138523405D01*
X67227150Y-138605472D01*
X67393746Y-138656008D01*
X67567000Y-138673072D01*
X68317000Y-138673072D01*
X68490254Y-138656008D01*
X68656850Y-138605472D01*
X68810386Y-138523405D01*
X68944962Y-138412962D01*
X69055405Y-138278386D01*
X69137472Y-138124850D01*
X69188008Y-137958254D01*
X69205072Y-137785000D01*
X69205072Y-136535000D01*
X69188008Y-136361746D01*
X69137472Y-136195150D01*
X69055405Y-136041614D01*
X68944962Y-135907038D01*
X68810386Y-135796595D01*
X68656850Y-135714528D01*
X68490254Y-135663992D01*
X68317000Y-135646928D01*
X67567000Y-135646928D01*
X67393746Y-135663992D01*
X67227150Y-135714528D01*
X67073614Y-135796595D01*
X66939038Y-135907038D01*
X66828595Y-136041614D01*
X66746528Y-136195150D01*
X66742440Y-136208626D01*
X66724312Y-136181495D01*
X66657873Y-136115056D01*
X66676180Y-136109502D01*
X66786494Y-136050537D01*
X66883185Y-135971185D01*
X66962537Y-135874494D01*
X67021502Y-135764180D01*
X67057812Y-135644482D01*
X67070072Y-135520000D01*
X67067000Y-134905750D01*
X66908250Y-134747000D01*
X65659000Y-134747000D01*
X65659000Y-134767000D01*
X65405000Y-134767000D01*
X65405000Y-134747000D01*
X64155750Y-134747000D01*
X63997000Y-134905750D01*
X63993928Y-135520000D01*
X63906000Y-135520000D01*
X63906000Y-126285734D01*
X63947723Y-126319975D01*
X64079752Y-126390547D01*
X64118147Y-126402194D01*
X64055989Y-126552257D01*
X63997000Y-126848816D01*
X63997000Y-127151184D01*
X64055989Y-127447743D01*
X64171701Y-127727095D01*
X64339688Y-127978505D01*
X64406127Y-128044944D01*
X64387820Y-128050498D01*
X64277506Y-128109463D01*
X64180815Y-128188815D01*
X64101463Y-128285506D01*
X64042498Y-128395820D01*
X64006188Y-128515518D01*
X63993928Y-128640000D01*
X63993928Y-130440000D01*
X64006188Y-130564482D01*
X64042498Y-130684180D01*
X64101463Y-130794494D01*
X64180815Y-130891185D01*
X64277506Y-130970537D01*
X64387820Y-131029502D01*
X64406127Y-131035056D01*
X64339688Y-131101495D01*
X64171701Y-131352905D01*
X64055989Y-131632257D01*
X63997000Y-131928816D01*
X63997000Y-132231184D01*
X64055989Y-132527743D01*
X64171701Y-132807095D01*
X64339688Y-133058505D01*
X64406127Y-133124944D01*
X64387820Y-133130498D01*
X64277506Y-133189463D01*
X64180815Y-133268815D01*
X64101463Y-133365506D01*
X64042498Y-133475820D01*
X64006188Y-133595518D01*
X63993928Y-133720000D01*
X63997000Y-134334250D01*
X64155750Y-134493000D01*
X65405000Y-134493000D01*
X65405000Y-134473000D01*
X65659000Y-134473000D01*
X65659000Y-134493000D01*
X66908250Y-134493000D01*
X67067000Y-134334250D01*
X67070072Y-133720000D01*
X67057812Y-133595518D01*
X67021502Y-133475820D01*
X66962537Y-133365506D01*
X66883185Y-133268815D01*
X66786494Y-133189463D01*
X66676180Y-133130498D01*
X66657873Y-133124944D01*
X66724312Y-133058505D01*
X66742440Y-133031374D01*
X66746528Y-133044850D01*
X66828595Y-133198386D01*
X66939038Y-133332962D01*
X67073614Y-133443405D01*
X67227150Y-133525472D01*
X67393746Y-133576008D01*
X67567000Y-133593072D01*
X68317000Y-133593072D01*
X68490254Y-133576008D01*
X68656850Y-133525472D01*
X68810386Y-133443405D01*
X68944962Y-133332962D01*
X69055405Y-133198386D01*
X69137472Y-133044850D01*
X69188008Y-132878254D01*
X69205072Y-132705000D01*
X69205072Y-131455000D01*
X69478928Y-131455000D01*
X69478928Y-132705000D01*
X69495992Y-132878254D01*
X69546528Y-133044850D01*
X69628595Y-133198386D01*
X69739038Y-133332962D01*
X69873614Y-133443405D01*
X69982001Y-133501339D01*
X69982000Y-135738661D01*
X69873614Y-135796595D01*
X69739038Y-135907038D01*
X69628595Y-136041614D01*
X69546528Y-136195150D01*
X69495992Y-136361746D01*
X69478928Y-136535000D01*
X69478928Y-137785000D01*
X69495992Y-137958254D01*
X69546528Y-138124850D01*
X69628595Y-138278386D01*
X69739038Y-138412962D01*
X69873614Y-138523405D01*
X70027150Y-138605472D01*
X70193746Y-138656008D01*
X70367000Y-138673072D01*
X71117000Y-138673072D01*
X71290254Y-138656008D01*
X71379288Y-138629000D01*
X73336928Y-138629000D01*
X73340000Y-143043250D01*
X73498750Y-143202000D01*
X79248000Y-143202000D01*
X79248000Y-138152750D01*
X79502000Y-138152750D01*
X79502000Y-143202000D01*
X85251250Y-143202000D01*
X85410000Y-143043250D01*
X85413072Y-138629000D01*
X85400812Y-138504518D01*
X85364502Y-138384820D01*
X85305537Y-138274506D01*
X85226185Y-138177815D01*
X85129494Y-138098463D01*
X85019180Y-138039498D01*
X84899482Y-138003188D01*
X84775000Y-137990928D01*
X79660750Y-137994000D01*
X79502000Y-138152750D01*
X79248000Y-138152750D01*
X79089250Y-137994000D01*
X73975000Y-137990928D01*
X73850518Y-138003188D01*
X73730820Y-138039498D01*
X73620506Y-138098463D01*
X73523815Y-138177815D01*
X73444463Y-138274506D01*
X73385498Y-138384820D01*
X73349188Y-138504518D01*
X73336928Y-138629000D01*
X71379288Y-138629000D01*
X71456850Y-138605472D01*
X71610386Y-138523405D01*
X71744962Y-138412962D01*
X71855405Y-138278386D01*
X71937472Y-138124850D01*
X71988008Y-137958254D01*
X72005072Y-137785000D01*
X72005072Y-136535000D01*
X71988008Y-136361746D01*
X71937472Y-136195150D01*
X71855405Y-136041614D01*
X71744962Y-135907038D01*
X71610386Y-135796595D01*
X71502000Y-135738661D01*
X71502000Y-133501339D01*
X71610386Y-133443405D01*
X71744962Y-133332962D01*
X71855405Y-133198386D01*
X71937472Y-133044850D01*
X71988008Y-132878254D01*
X71991776Y-132840000D01*
X72352678Y-132840000D01*
X72390000Y-132843676D01*
X72427322Y-132840000D01*
X72427333Y-132840000D01*
X72538986Y-132829003D01*
X72682247Y-132785546D01*
X72814276Y-132714974D01*
X72930001Y-132620001D01*
X72953804Y-132590997D01*
X76076928Y-129467874D01*
X76076928Y-129861103D01*
X76071324Y-129918000D01*
X76075001Y-129955332D01*
X76075001Y-131279129D01*
X76040820Y-131289498D01*
X75930506Y-131348463D01*
X75833815Y-131427815D01*
X75754463Y-131524506D01*
X75695498Y-131634820D01*
X75659188Y-131754518D01*
X75646928Y-131879000D01*
X75646928Y-136479000D01*
X75659188Y-136603482D01*
X75695498Y-136723180D01*
X75754463Y-136833494D01*
X75833815Y-136930185D01*
X75930506Y-137009537D01*
X76040820Y-137068502D01*
X76160518Y-137104812D01*
X76285000Y-137117072D01*
X77385000Y-137117072D01*
X77509482Y-137104812D01*
X77629180Y-137068502D01*
X77739494Y-137009537D01*
X77836185Y-136930185D01*
X77915537Y-136833494D01*
X77974502Y-136723180D01*
X78010812Y-136603482D01*
X78023072Y-136479000D01*
X78023072Y-131879000D01*
X78010812Y-131754518D01*
X77974502Y-131634820D01*
X77915537Y-131524506D01*
X77836185Y-131427815D01*
X77739494Y-131348463D01*
X77629180Y-131289498D01*
X77595000Y-131279130D01*
X77595000Y-130926072D01*
X77715000Y-130926072D01*
X77888254Y-130909008D01*
X78054850Y-130858472D01*
X78208386Y-130776405D01*
X78342962Y-130665962D01*
X78453405Y-130531386D01*
X78535472Y-130377850D01*
X78562727Y-130288000D01*
X78876928Y-130288000D01*
X78889188Y-130412482D01*
X78925498Y-130532180D01*
X78984463Y-130642494D01*
X79063815Y-130739185D01*
X79160506Y-130818537D01*
X79270820Y-130877502D01*
X79390518Y-130913812D01*
X79515000Y-130926072D01*
X79854250Y-130923000D01*
X80013000Y-130764250D01*
X80013000Y-129540000D01*
X80267000Y-129540000D01*
X80267000Y-130764250D01*
X80425750Y-130923000D01*
X80765000Y-130926072D01*
X80889482Y-130913812D01*
X81009180Y-130877502D01*
X81119494Y-130818537D01*
X81216185Y-130739185D01*
X81295537Y-130642494D01*
X81354502Y-130532180D01*
X81390812Y-130412482D01*
X81403072Y-130288000D01*
X82045928Y-130288000D01*
X82058188Y-130412482D01*
X82094498Y-130532180D01*
X82153463Y-130642494D01*
X82232815Y-130739185D01*
X82329506Y-130818537D01*
X82439820Y-130877502D01*
X82559518Y-130913812D01*
X82684000Y-130926072D01*
X83023250Y-130923000D01*
X83182000Y-130764250D01*
X83182000Y-129540000D01*
X83436000Y-129540000D01*
X83436000Y-130764250D01*
X83594750Y-130923000D01*
X83934000Y-130926072D01*
X84058482Y-130913812D01*
X84178180Y-130877502D01*
X84288494Y-130818537D01*
X84385185Y-130739185D01*
X84464537Y-130642494D01*
X84523502Y-130532180D01*
X84559812Y-130412482D01*
X84572072Y-130288000D01*
X84569000Y-129698750D01*
X84410250Y-129540000D01*
X83436000Y-129540000D01*
X83182000Y-129540000D01*
X82207750Y-129540000D01*
X82049000Y-129698750D01*
X82045928Y-130288000D01*
X81403072Y-130288000D01*
X81400000Y-129698750D01*
X81241250Y-129540000D01*
X80267000Y-129540000D01*
X80013000Y-129540000D01*
X79038750Y-129540000D01*
X78880000Y-129698750D01*
X78876928Y-130288000D01*
X78562727Y-130288000D01*
X78586008Y-130211254D01*
X78603072Y-130038000D01*
X78603072Y-128788000D01*
X78586008Y-128614746D01*
X78562728Y-128538000D01*
X78876928Y-128538000D01*
X78880000Y-129127250D01*
X79038750Y-129286000D01*
X80013000Y-129286000D01*
X80013000Y-128061750D01*
X80267000Y-128061750D01*
X80267000Y-129286000D01*
X81241250Y-129286000D01*
X81400000Y-129127250D01*
X81403072Y-128538000D01*
X82045928Y-128538000D01*
X82049000Y-129127250D01*
X82207750Y-129286000D01*
X83182000Y-129286000D01*
X83182000Y-128061750D01*
X83436000Y-128061750D01*
X83436000Y-129286000D01*
X84410250Y-129286000D01*
X84569000Y-129127250D01*
X84572072Y-128538000D01*
X84559812Y-128413518D01*
X84523502Y-128293820D01*
X84464537Y-128183506D01*
X84385185Y-128086815D01*
X84288494Y-128007463D01*
X84178180Y-127948498D01*
X84058482Y-127912188D01*
X83934000Y-127899928D01*
X83594750Y-127903000D01*
X83436000Y-128061750D01*
X83182000Y-128061750D01*
X83023250Y-127903000D01*
X82684000Y-127899928D01*
X82559518Y-127912188D01*
X82439820Y-127948498D01*
X82329506Y-128007463D01*
X82232815Y-128086815D01*
X82153463Y-128183506D01*
X82094498Y-128293820D01*
X82058188Y-128413518D01*
X82045928Y-128538000D01*
X81403072Y-128538000D01*
X81390812Y-128413518D01*
X81354502Y-128293820D01*
X81295537Y-128183506D01*
X81216185Y-128086815D01*
X81119494Y-128007463D01*
X81009180Y-127948498D01*
X80889482Y-127912188D01*
X80765000Y-127899928D01*
X80425750Y-127903000D01*
X80267000Y-128061750D01*
X80013000Y-128061750D01*
X79854250Y-127903000D01*
X79515000Y-127899928D01*
X79390518Y-127912188D01*
X79270820Y-127948498D01*
X79160506Y-128007463D01*
X79063815Y-128086815D01*
X78984463Y-128183506D01*
X78925498Y-128293820D01*
X78889188Y-128413518D01*
X78876928Y-128538000D01*
X78562728Y-128538000D01*
X78535472Y-128448150D01*
X78453405Y-128294614D01*
X78342962Y-128160038D01*
X78208386Y-128049595D01*
X78100000Y-127991661D01*
X78100000Y-127710532D01*
X78214256Y-127663205D01*
X78383774Y-127549937D01*
X78527937Y-127405774D01*
X78641205Y-127236256D01*
X78719226Y-127047898D01*
X78759000Y-126847939D01*
X78759000Y-126644061D01*
X78719226Y-126444102D01*
X78641205Y-126255744D01*
X78527937Y-126086226D01*
X78383774Y-125942063D01*
X78214256Y-125828795D01*
X78025898Y-125750774D01*
X77825939Y-125711000D01*
X77622061Y-125711000D01*
X77422102Y-125750774D01*
X77233744Y-125828795D01*
X77064226Y-125942063D01*
X76920063Y-126086226D01*
X76806795Y-126255744D01*
X76728774Y-126444102D01*
X76689000Y-126644061D01*
X76689000Y-126706198D01*
X75694724Y-127700474D01*
X75613250Y-127619000D01*
X74864000Y-127619000D01*
X74864000Y-128418250D01*
X74920474Y-128474724D01*
X72075199Y-131320000D01*
X71991776Y-131320000D01*
X71988008Y-131281746D01*
X71937472Y-131115150D01*
X71855405Y-130961614D01*
X71744962Y-130827038D01*
X71610386Y-130716595D01*
X71456850Y-130634528D01*
X71290254Y-130583992D01*
X71117000Y-130566928D01*
X70367000Y-130566928D01*
X70193746Y-130583992D01*
X70027150Y-130634528D01*
X69873614Y-130716595D01*
X69739038Y-130827038D01*
X69628595Y-130961614D01*
X69546528Y-131115150D01*
X69495992Y-131281746D01*
X69478928Y-131455000D01*
X69205072Y-131455000D01*
X69188008Y-131281746D01*
X69137472Y-131115150D01*
X69055405Y-130961614D01*
X68944962Y-130827038D01*
X68810386Y-130716595D01*
X68656850Y-130634528D01*
X68490254Y-130583992D01*
X68317000Y-130566928D01*
X67567000Y-130566928D01*
X67393746Y-130583992D01*
X67227150Y-130634528D01*
X67073614Y-130716595D01*
X66939038Y-130827038D01*
X66828595Y-130961614D01*
X66746528Y-131115150D01*
X66742440Y-131128626D01*
X66724312Y-131101495D01*
X66657873Y-131035056D01*
X66676180Y-131029502D01*
X66786494Y-130970537D01*
X66883185Y-130891185D01*
X66962537Y-130794494D01*
X67021502Y-130684180D01*
X67057812Y-130564482D01*
X67070072Y-130440000D01*
X67070072Y-128640000D01*
X67057812Y-128515518D01*
X67021502Y-128395820D01*
X66962537Y-128285506D01*
X66883185Y-128188815D01*
X66786494Y-128109463D01*
X66676180Y-128050498D01*
X66657873Y-128044944D01*
X66724312Y-127978505D01*
X66742440Y-127951374D01*
X66746528Y-127964850D01*
X66828595Y-128118386D01*
X66939038Y-128252962D01*
X67073614Y-128363405D01*
X67227150Y-128445472D01*
X67393746Y-128496008D01*
X67567000Y-128513072D01*
X68317000Y-128513072D01*
X68490254Y-128496008D01*
X68656850Y-128445472D01*
X68810386Y-128363405D01*
X68944962Y-128252962D01*
X69055405Y-128118386D01*
X69137472Y-127964850D01*
X69188008Y-127798254D01*
X69205072Y-127625000D01*
X69205072Y-126375000D01*
X69188008Y-126201746D01*
X69137472Y-126035150D01*
X69055405Y-125881614D01*
X68944962Y-125747038D01*
X68810386Y-125636595D01*
X68656850Y-125554528D01*
X68490254Y-125503992D01*
X68317000Y-125486928D01*
X67964875Y-125486928D01*
X69403014Y-124048790D01*
X69432011Y-124024993D01*
X69526984Y-123909268D01*
X69597556Y-123777239D01*
X69641013Y-123633978D01*
X69652010Y-123522325D01*
X69652010Y-123522324D01*
X69655687Y-123484992D01*
X69652010Y-123447659D01*
X69652010Y-123066917D01*
X69739038Y-123172962D01*
X69873614Y-123283405D01*
X69982001Y-123341339D01*
X69982000Y-125578661D01*
X69873614Y-125636595D01*
X69739038Y-125747038D01*
X69628595Y-125881614D01*
X69546528Y-126035150D01*
X69495992Y-126201746D01*
X69478928Y-126375000D01*
X69478928Y-127625000D01*
X69495992Y-127798254D01*
X69546528Y-127964850D01*
X69628595Y-128118386D01*
X69739038Y-128252962D01*
X69873614Y-128363405D01*
X70027150Y-128445472D01*
X70193746Y-128496008D01*
X70367000Y-128513072D01*
X71117000Y-128513072D01*
X71290254Y-128496008D01*
X71456850Y-128445472D01*
X71610386Y-128363405D01*
X71744962Y-128252962D01*
X71834617Y-128143717D01*
X71847498Y-128186180D01*
X71906463Y-128296494D01*
X71985815Y-128393185D01*
X72082506Y-128472537D01*
X72192820Y-128531502D01*
X72312518Y-128567812D01*
X72437000Y-128580072D01*
X73237000Y-128580072D01*
X73361482Y-128567812D01*
X73481180Y-128531502D01*
X73591494Y-128472537D01*
X73688185Y-128393185D01*
X73767537Y-128296494D01*
X73787000Y-128260082D01*
X73806463Y-128296494D01*
X73885815Y-128393185D01*
X73982506Y-128472537D01*
X74092820Y-128531502D01*
X74212518Y-128567812D01*
X74337000Y-128580072D01*
X74451250Y-128577000D01*
X74610000Y-128418250D01*
X74610000Y-127619000D01*
X74590000Y-127619000D01*
X74590000Y-127365000D01*
X74610000Y-127365000D01*
X74610000Y-126565750D01*
X74864000Y-126565750D01*
X74864000Y-127365000D01*
X75613250Y-127365000D01*
X75772000Y-127206250D01*
X75775072Y-127042000D01*
X75762812Y-126917518D01*
X75726502Y-126797820D01*
X75667537Y-126687506D01*
X75588185Y-126590815D01*
X75491494Y-126511463D01*
X75381180Y-126452498D01*
X75261482Y-126416188D01*
X75137000Y-126403928D01*
X75022750Y-126407000D01*
X74864000Y-126565750D01*
X74610000Y-126565750D01*
X74525393Y-126481143D01*
X74541494Y-126472537D01*
X74638185Y-126393185D01*
X74717537Y-126296494D01*
X74776502Y-126186180D01*
X74781532Y-126169599D01*
X74861276Y-126126974D01*
X74977001Y-126032001D01*
X75000804Y-126002997D01*
X75440997Y-125562804D01*
X75470001Y-125539001D01*
X75564974Y-125423276D01*
X75635546Y-125291247D01*
X75679003Y-125147986D01*
X75690000Y-125036333D01*
X75690000Y-125036324D01*
X75693676Y-124999001D01*
X75690000Y-124961678D01*
X75690000Y-124136154D01*
X75836744Y-124234205D01*
X76025102Y-124312226D01*
X76225061Y-124352000D01*
X76428939Y-124352000D01*
X76628898Y-124312226D01*
X76817256Y-124234205D01*
X76986774Y-124120937D01*
X77130937Y-123976774D01*
X77244205Y-123807256D01*
X77268588Y-123748390D01*
X81158200Y-127638002D01*
X81181999Y-127667001D01*
X81223819Y-127701322D01*
X81297724Y-127761974D01*
X81429753Y-127832546D01*
X81573014Y-127876003D01*
X81722000Y-127890677D01*
X81759333Y-127887000D01*
X87557368Y-127887000D01*
X87523774Y-127968102D01*
X87484000Y-128168061D01*
X87484000Y-128371939D01*
X87492565Y-128415000D01*
X87286753Y-128415000D01*
X87222405Y-128294614D01*
X87111962Y-128160038D01*
X86977386Y-128049595D01*
X86823850Y-127967528D01*
X86657254Y-127916992D01*
X86484000Y-127899928D01*
X85734000Y-127899928D01*
X85560746Y-127916992D01*
X85394150Y-127967528D01*
X85240614Y-128049595D01*
X85106038Y-128160038D01*
X84995595Y-128294614D01*
X84913528Y-128448150D01*
X84862992Y-128614746D01*
X84845928Y-128788000D01*
X84845928Y-130038000D01*
X84862992Y-130211254D01*
X84913528Y-130377850D01*
X84995595Y-130531386D01*
X85106038Y-130665962D01*
X85131961Y-130687237D01*
X83103072Y-132716127D01*
X83103072Y-131879000D01*
X83090812Y-131754518D01*
X83054502Y-131634820D01*
X82995537Y-131524506D01*
X82916185Y-131427815D01*
X82819494Y-131348463D01*
X82709180Y-131289498D01*
X82589482Y-131253188D01*
X82465000Y-131240928D01*
X81365000Y-131240928D01*
X81240518Y-131253188D01*
X81120820Y-131289498D01*
X81010506Y-131348463D01*
X80913815Y-131427815D01*
X80834463Y-131524506D01*
X80775498Y-131634820D01*
X80739188Y-131754518D01*
X80726928Y-131879000D01*
X80726928Y-136479000D01*
X80739188Y-136603482D01*
X80775498Y-136723180D01*
X80834463Y-136833494D01*
X80913815Y-136930185D01*
X81010506Y-137009537D01*
X81120820Y-137068502D01*
X81240518Y-137104812D01*
X81365000Y-137117072D01*
X82465000Y-137117072D01*
X82589482Y-137104812D01*
X82709180Y-137068502D01*
X82819494Y-137009537D01*
X82916185Y-136930185D01*
X82995537Y-136833494D01*
X83054502Y-136723180D01*
X83090812Y-136603482D01*
X83103072Y-136479000D01*
X83103072Y-134833326D01*
X83139276Y-134813974D01*
X83255001Y-134719001D01*
X83278804Y-134689997D01*
X86620004Y-131348798D01*
X86649001Y-131325001D01*
X86743974Y-131209276D01*
X86814546Y-131077247D01*
X86858003Y-130933986D01*
X86867752Y-130835006D01*
X86977386Y-130776405D01*
X87111962Y-130665962D01*
X87222405Y-130531386D01*
X87304472Y-130377850D01*
X87355008Y-130211254D01*
X87372072Y-130038000D01*
X87372072Y-129935000D01*
X88834680Y-129935000D01*
X88858463Y-129979494D01*
X88881560Y-130007638D01*
X88802270Y-130086928D01*
X88439000Y-130086928D01*
X88314518Y-130099188D01*
X88194820Y-130135498D01*
X88084506Y-130194463D01*
X87987815Y-130273815D01*
X87908463Y-130370506D01*
X87849498Y-130480820D01*
X87813188Y-130600518D01*
X87800928Y-130725000D01*
X87800928Y-131625000D01*
X87813188Y-131749482D01*
X87849498Y-131869180D01*
X87908463Y-131979494D01*
X87987815Y-132076185D01*
X88084506Y-132155537D01*
X88194820Y-132214502D01*
X88314518Y-132250812D01*
X88439000Y-132263072D01*
X89239000Y-132263072D01*
X89363482Y-132250812D01*
X89483180Y-132214502D01*
X89593494Y-132155537D01*
X89690185Y-132076185D01*
X89769537Y-131979494D01*
X89789000Y-131943082D01*
X89808463Y-131979494D01*
X89887815Y-132076185D01*
X89984506Y-132155537D01*
X90094820Y-132214502D01*
X90214518Y-132250812D01*
X90339000Y-132263072D01*
X91139000Y-132263072D01*
X91263482Y-132250812D01*
X91383180Y-132214502D01*
X91493494Y-132155537D01*
X91590185Y-132076185D01*
X91669537Y-131979494D01*
X91728502Y-131869180D01*
X91764812Y-131749482D01*
X91777072Y-131625000D01*
X91777072Y-130725000D01*
X91764812Y-130600518D01*
X91728502Y-130480820D01*
X91669537Y-130370506D01*
X91590185Y-130273815D01*
X91493494Y-130194463D01*
X91383180Y-130135498D01*
X91263482Y-130099188D01*
X91243813Y-130097251D01*
X91263004Y-130033987D01*
X91274001Y-129922334D01*
X91274001Y-129922333D01*
X91277678Y-129885001D01*
X91274001Y-129847668D01*
X91274001Y-128502321D01*
X91277677Y-128464998D01*
X91274001Y-128427675D01*
X91274001Y-128427666D01*
X91263004Y-128316013D01*
X91219547Y-128172752D01*
X91148975Y-128040723D01*
X91054002Y-127924998D01*
X91025004Y-127901200D01*
X89739806Y-126616003D01*
X89716003Y-126586999D01*
X89600278Y-126492026D01*
X89468249Y-126421454D01*
X89324988Y-126377997D01*
X89213335Y-126367000D01*
X89213324Y-126367000D01*
X89176002Y-126363324D01*
X89138680Y-126367000D01*
X82036802Y-126367000D01*
X81524802Y-125855000D01*
X83019636Y-125855000D01*
X83028815Y-125866185D01*
X83125506Y-125945537D01*
X83235820Y-126004502D01*
X83355518Y-126040812D01*
X83480000Y-126053072D01*
X85480000Y-126053072D01*
X85604482Y-126040812D01*
X85724180Y-126004502D01*
X85834494Y-125945537D01*
X85931185Y-125866185D01*
X86010537Y-125769494D01*
X86069502Y-125659180D01*
X86105812Y-125539482D01*
X86118072Y-125415000D01*
X86118072Y-124775000D01*
X86105812Y-124650518D01*
X86069502Y-124530820D01*
X86010537Y-124420506D01*
X85931185Y-124323815D01*
X85834494Y-124244463D01*
X85724180Y-124185498D01*
X85604482Y-124149188D01*
X85480000Y-124136928D01*
X83480000Y-124136928D01*
X83355518Y-124149188D01*
X83235820Y-124185498D01*
X83125506Y-124244463D01*
X83028815Y-124323815D01*
X83019636Y-124335000D01*
X81340802Y-124335000D01*
X80139695Y-123133893D01*
X80187301Y-123172962D01*
X80208030Y-123189974D01*
X80340059Y-123260546D01*
X80483320Y-123304003D01*
X80594973Y-123315000D01*
X80594982Y-123315000D01*
X80632305Y-123318676D01*
X80669628Y-123315000D01*
X83019636Y-123315000D01*
X83028815Y-123326185D01*
X83125506Y-123405537D01*
X83235820Y-123464502D01*
X83355518Y-123500812D01*
X83480000Y-123513072D01*
X85480000Y-123513072D01*
X85604482Y-123500812D01*
X85724180Y-123464502D01*
X85834494Y-123405537D01*
X85931185Y-123326185D01*
X86010537Y-123229494D01*
X86069502Y-123119180D01*
X86105812Y-122999482D01*
X86118072Y-122875000D01*
X86118072Y-122235000D01*
X86105812Y-122110518D01*
X86069502Y-121990820D01*
X86010537Y-121880506D01*
X85931185Y-121783815D01*
X85834494Y-121704463D01*
X85724180Y-121645498D01*
X85604482Y-121609188D01*
X85480000Y-121596928D01*
X83480000Y-121596928D01*
X83355518Y-121609188D01*
X83235820Y-121645498D01*
X83125506Y-121704463D01*
X83028815Y-121783815D01*
X83019636Y-121795000D01*
X80947109Y-121795000D01*
X77101653Y-117949546D01*
X77101653Y-117887408D01*
X77061879Y-117687449D01*
X76983858Y-117499091D01*
X76870590Y-117329573D01*
X76726427Y-117185410D01*
X76556909Y-117072142D01*
X76368551Y-116994121D01*
X76168592Y-116954347D01*
X75964714Y-116954347D01*
X75764755Y-116994121D01*
X75576397Y-117072142D01*
X75406879Y-117185410D01*
X75262716Y-117329573D01*
X75149448Y-117499091D01*
X75071427Y-117687449D01*
X75031653Y-117887408D01*
X75031653Y-118091286D01*
X75071427Y-118291245D01*
X75149448Y-118479603D01*
X75194433Y-118546928D01*
X74330000Y-118546928D01*
X74205518Y-118559188D01*
X74159845Y-118573043D01*
X72769000Y-117182199D01*
X72769000Y-114211801D01*
X72936802Y-114044000D01*
X78163289Y-114044000D01*
X78207226Y-114087937D01*
X78376744Y-114201205D01*
X78565102Y-114279226D01*
X78765061Y-114319000D01*
X78968939Y-114319000D01*
X79168898Y-114279226D01*
X79260001Y-114241490D01*
X79260001Y-115176928D01*
X79055000Y-115176928D01*
X78930518Y-115189188D01*
X78810820Y-115225498D01*
X78700506Y-115284463D01*
X78603815Y-115363815D01*
X78524463Y-115460506D01*
X78465498Y-115570820D01*
X78429188Y-115690518D01*
X78416928Y-115815000D01*
X78416928Y-117815000D01*
X78429188Y-117939482D01*
X78465498Y-118059180D01*
X78524463Y-118169494D01*
X78603815Y-118266185D01*
X78700506Y-118345537D01*
X78810820Y-118404502D01*
X78930518Y-118440812D01*
X79055000Y-118453072D01*
X79610000Y-118453072D01*
X79610000Y-118592939D01*
X79649774Y-118792898D01*
X79727795Y-118981256D01*
X79841063Y-119150774D01*
X79985226Y-119294937D01*
X80154744Y-119408205D01*
X80343102Y-119486226D01*
X80543061Y-119526000D01*
X80746939Y-119526000D01*
X80946898Y-119486226D01*
X81135256Y-119408205D01*
X81304774Y-119294937D01*
X81448937Y-119150774D01*
X81452464Y-119145495D01*
X81427774Y-119205102D01*
X81388000Y-119405061D01*
X81388000Y-119608939D01*
X81427774Y-119808898D01*
X81505795Y-119997256D01*
X81619063Y-120166774D01*
X81763226Y-120310937D01*
X81932744Y-120424205D01*
X82121102Y-120502226D01*
X82321061Y-120542000D01*
X82524939Y-120542000D01*
X82724898Y-120502226D01*
X82913256Y-120424205D01*
X83082774Y-120310937D01*
X83126711Y-120267000D01*
X90556300Y-120267000D01*
X90600237Y-120310937D01*
X90769755Y-120424205D01*
X90958113Y-120502226D01*
X91158072Y-120542000D01*
X91361950Y-120542000D01*
X91561909Y-120502226D01*
X91750267Y-120424205D01*
X91919785Y-120310937D01*
X92063948Y-120166774D01*
X92177216Y-119997256D01*
X92255237Y-119808898D01*
X92295011Y-119608939D01*
X92295011Y-119405061D01*
X92255237Y-119205102D01*
X92177216Y-119016744D01*
X92063948Y-118847226D01*
X91919785Y-118703063D01*
X91750267Y-118589795D01*
X91561909Y-118511774D01*
X91361950Y-118472000D01*
X91158072Y-118472000D01*
X90958113Y-118511774D01*
X90769755Y-118589795D01*
X90600237Y-118703063D01*
X90556300Y-118747000D01*
X83183000Y-118747000D01*
X83183000Y-117775000D01*
X84176928Y-117775000D01*
X84189188Y-117899482D01*
X84225498Y-118019180D01*
X84284463Y-118129494D01*
X84363815Y-118226185D01*
X84460506Y-118305537D01*
X84570820Y-118364502D01*
X84690518Y-118400812D01*
X84815000Y-118413072D01*
X85504250Y-118410000D01*
X85663000Y-118251250D01*
X85663000Y-117602000D01*
X85917000Y-117602000D01*
X85917000Y-118251250D01*
X86075750Y-118410000D01*
X86765000Y-118413072D01*
X86889482Y-118400812D01*
X87009180Y-118364502D01*
X87119494Y-118305537D01*
X87216185Y-118226185D01*
X87295537Y-118129494D01*
X87354502Y-118019180D01*
X87390812Y-117899482D01*
X87403072Y-117775000D01*
X87400000Y-117760750D01*
X87241250Y-117602000D01*
X85917000Y-117602000D01*
X85663000Y-117602000D01*
X84338750Y-117602000D01*
X84180000Y-117760750D01*
X84176928Y-117775000D01*
X83183000Y-117775000D01*
X83183000Y-117360322D01*
X83186676Y-117322999D01*
X83183000Y-117285676D01*
X83183000Y-117285667D01*
X83172003Y-117174014D01*
X83128546Y-117030753D01*
X83057974Y-116898724D01*
X82963001Y-116782999D01*
X82934002Y-116759200D01*
X82873072Y-116698270D01*
X82873072Y-115815000D01*
X82860812Y-115690518D01*
X82824502Y-115570820D01*
X82765537Y-115460506D01*
X82686185Y-115363815D01*
X82589494Y-115284463D01*
X82479180Y-115225498D01*
X82359482Y-115189188D01*
X82235000Y-115176928D01*
X81595000Y-115176928D01*
X81470518Y-115189188D01*
X81350820Y-115225498D01*
X81240506Y-115284463D01*
X81143815Y-115363815D01*
X81064463Y-115460506D01*
X81005498Y-115570820D01*
X80969188Y-115690518D01*
X80956928Y-115815000D01*
X80956928Y-117322126D01*
X80705170Y-117070368D01*
X80725547Y-117032246D01*
X80769004Y-116888985D01*
X80780001Y-116777332D01*
X80780001Y-116777322D01*
X80783677Y-116740000D01*
X80780001Y-116702677D01*
X80780001Y-113244802D01*
X84251200Y-116716002D01*
G37*
X84251200Y-116716002D02*
X84274999Y-116745001D01*
X84291350Y-116758420D01*
X84308730Y-116790936D01*
X84284463Y-116820506D01*
X84225498Y-116930820D01*
X84189188Y-117050518D01*
X84176928Y-117175000D01*
X84180000Y-117189250D01*
X84338750Y-117348000D01*
X85663000Y-117348000D01*
X85663000Y-117328000D01*
X85917000Y-117328000D01*
X85917000Y-117348000D01*
X87241250Y-117348000D01*
X87400000Y-117189250D01*
X87403072Y-117175000D01*
X87390812Y-117050518D01*
X87364870Y-116965000D01*
X88180199Y-116965000D01*
X89201201Y-117986003D01*
X89224999Y-118015001D01*
X89241350Y-118028420D01*
X89259742Y-118062829D01*
X89357749Y-118182251D01*
X89477171Y-118280258D01*
X89613418Y-118353084D01*
X89761255Y-118397929D01*
X89915000Y-118413072D01*
X91565000Y-118413072D01*
X91718745Y-118397929D01*
X91866582Y-118353084D01*
X92002829Y-118280258D01*
X92122251Y-118182251D01*
X92220258Y-118062829D01*
X92293084Y-117926582D01*
X92337929Y-117778745D01*
X92353072Y-117625000D01*
X92353072Y-117325000D01*
X92337929Y-117171255D01*
X92293084Y-117023418D01*
X92220258Y-116887171D01*
X92181546Y-116840000D01*
X92220258Y-116792829D01*
X92293084Y-116656582D01*
X92337929Y-116508745D01*
X92353072Y-116355000D01*
X92353072Y-116185987D01*
X92361927Y-116184226D01*
X92550285Y-116106205D01*
X92685000Y-116016191D01*
X92685000Y-120965809D01*
X92550285Y-120875795D01*
X92361927Y-120797774D01*
X92161968Y-120758000D01*
X91958090Y-120758000D01*
X91758131Y-120797774D01*
X91569773Y-120875795D01*
X91400255Y-120989063D01*
X91324554Y-121064764D01*
X91249753Y-121087454D01*
X91117724Y-121158026D01*
X91001999Y-121252999D01*
X90978201Y-121281998D01*
X90663270Y-121596928D01*
X89780000Y-121596928D01*
X89655518Y-121609188D01*
X89535820Y-121645498D01*
X89425506Y-121704463D01*
X89328815Y-121783815D01*
X89249463Y-121880506D01*
X89190498Y-121990820D01*
X89154188Y-122110518D01*
X89141928Y-122235000D01*
X89141928Y-122875000D01*
X89154188Y-122999482D01*
X89190498Y-123119180D01*
X89249463Y-123229494D01*
X89263897Y-123247082D01*
X89136256Y-123161795D01*
X88947898Y-123083774D01*
X88747939Y-123044000D01*
X88544061Y-123044000D01*
X88344102Y-123083774D01*
X88155744Y-123161795D01*
X87986226Y-123275063D01*
X87842063Y-123419226D01*
X87728795Y-123588744D01*
X87650774Y-123777102D01*
X87611000Y-123977061D01*
X87611000Y-124180939D01*
X87650774Y-124380898D01*
X87728795Y-124569256D01*
X87842063Y-124738774D01*
X87986226Y-124882937D01*
X88155744Y-124996205D01*
X88344102Y-125074226D01*
X88544061Y-125114000D01*
X88747939Y-125114000D01*
X88947898Y-125074226D01*
X89136256Y-124996205D01*
X89141928Y-124992415D01*
X89141928Y-125415000D01*
X89154188Y-125539482D01*
X89190498Y-125659180D01*
X89249463Y-125769494D01*
X89328815Y-125866185D01*
X89425506Y-125945537D01*
X89535820Y-126004502D01*
X89655518Y-126040812D01*
X89780000Y-126053072D01*
X91780000Y-126053072D01*
X91904482Y-126040812D01*
X92024180Y-126004502D01*
X92134494Y-125945537D01*
X92231185Y-125866185D01*
X92310537Y-125769494D01*
X92369502Y-125659180D01*
X92405812Y-125539482D01*
X92418072Y-125415000D01*
X92418072Y-124775000D01*
X92405812Y-124650518D01*
X92369502Y-124530820D01*
X92310537Y-124420506D01*
X92231185Y-124323815D01*
X92134494Y-124244463D01*
X92024180Y-124185498D01*
X91904482Y-124149188D01*
X91780000Y-124136928D01*
X91434326Y-124136928D01*
X91414974Y-124100724D01*
X91320001Y-123984999D01*
X91290997Y-123961196D01*
X90897804Y-123568003D01*
X90874001Y-123538999D01*
X90842409Y-123513072D01*
X91780000Y-123513072D01*
X91904482Y-123500812D01*
X92024180Y-123464502D01*
X92134494Y-123405537D01*
X92231185Y-123326185D01*
X92310537Y-123229494D01*
X92369502Y-123119180D01*
X92405812Y-122999482D01*
X92418072Y-122875000D01*
X92418072Y-122764970D01*
X92550285Y-122710205D01*
X92685000Y-122620191D01*
X92685000Y-145509722D01*
X92641254Y-145955882D01*
X92521055Y-146353999D01*
X92325819Y-146721185D01*
X92062977Y-147043461D01*
X91742548Y-147308542D01*
X91376731Y-147506339D01*
X90979461Y-147629314D01*
X90535274Y-147676000D01*
X85412826Y-147676000D01*
X85410570Y-144432872D01*
X87427000Y-144432872D01*
X87427000Y-144873128D01*
X87512890Y-145304925D01*
X87681369Y-145711669D01*
X87925962Y-146077729D01*
X88237271Y-146389038D01*
X88603331Y-146633631D01*
X89010075Y-146802110D01*
X89441872Y-146888000D01*
X89882128Y-146888000D01*
X90313925Y-146802110D01*
X90720669Y-146633631D01*
X91086729Y-146389038D01*
X91398038Y-146077729D01*
X91642631Y-145711669D01*
X91811110Y-145304925D01*
X91897000Y-144873128D01*
X91897000Y-144432872D01*
X91811110Y-144001075D01*
X91642631Y-143594331D01*
X91398038Y-143228271D01*
X91086729Y-142916962D01*
X90720669Y-142672369D01*
X90313925Y-142503890D01*
X89882128Y-142418000D01*
X89441872Y-142418000D01*
X89010075Y-142503890D01*
X88603331Y-142672369D01*
X88237271Y-142916962D01*
X87925962Y-143228271D01*
X87681369Y-143594331D01*
X87512890Y-144001075D01*
X87427000Y-144432872D01*
X85410570Y-144432872D01*
X85410000Y-143614750D01*
X85251250Y-143456000D01*
X79502000Y-143456000D01*
X79502000Y-143476000D01*
X79248000Y-143476000D01*
X79248000Y-143456000D01*
X73498750Y-143456000D01*
X73340000Y-143614750D01*
X73337174Y-147676000D01*
X66072278Y-147676000D01*
X65626118Y-147632254D01*
X65228001Y-147512055D01*
X64860815Y-147316819D01*
X64538539Y-147053977D01*
X64273458Y-146733548D01*
X64075661Y-146367731D01*
X63952686Y-145970461D01*
X63906000Y-145526274D01*
X63906000Y-144432872D01*
X64694000Y-144432872D01*
X64694000Y-144873128D01*
X64779890Y-145304925D01*
X64948369Y-145711669D01*
X65192962Y-146077729D01*
X65504271Y-146389038D01*
X65870331Y-146633631D01*
X66277075Y-146802110D01*
X66708872Y-146888000D01*
X67149128Y-146888000D01*
X67580925Y-146802110D01*
X67987669Y-146633631D01*
X68353729Y-146389038D01*
X68665038Y-146077729D01*
X68909631Y-145711669D01*
X69078110Y-145304925D01*
X69164000Y-144873128D01*
X69164000Y-144432872D01*
X69078110Y-144001075D01*
X68909631Y-143594331D01*
X68665038Y-143228271D01*
X68353729Y-142916962D01*
X67987669Y-142672369D01*
X67580925Y-142503890D01*
X67149128Y-142418000D01*
X66708872Y-142418000D01*
X66277075Y-142503890D01*
X65870331Y-142672369D01*
X65504271Y-142916962D01*
X65192962Y-143228271D01*
X64948369Y-143594331D01*
X64779890Y-144001075D01*
X64694000Y-144432872D01*
X63906000Y-144432872D01*
X63906000Y-135520000D01*
X63993928Y-135520000D01*
X64006188Y-135644482D01*
X64042498Y-135764180D01*
X64101463Y-135874494D01*
X64180815Y-135971185D01*
X64277506Y-136050537D01*
X64387820Y-136109502D01*
X64406127Y-136115056D01*
X64339688Y-136181495D01*
X64171701Y-136432905D01*
X64055989Y-136712257D01*
X63997000Y-137008816D01*
X63997000Y-137311184D01*
X64055989Y-137607743D01*
X64171701Y-137887095D01*
X64339688Y-138138505D01*
X64553495Y-138352312D01*
X64804905Y-138520299D01*
X65084257Y-138636011D01*
X65380816Y-138695000D01*
X65683184Y-138695000D01*
X65979743Y-138636011D01*
X66259095Y-138520299D01*
X66510505Y-138352312D01*
X66724312Y-138138505D01*
X66742440Y-138111374D01*
X66746528Y-138124850D01*
X66828595Y-138278386D01*
X66939038Y-138412962D01*
X67073614Y-138523405D01*
X67227150Y-138605472D01*
X67393746Y-138656008D01*
X67567000Y-138673072D01*
X68317000Y-138673072D01*
X68490254Y-138656008D01*
X68656850Y-138605472D01*
X68810386Y-138523405D01*
X68944962Y-138412962D01*
X69055405Y-138278386D01*
X69137472Y-138124850D01*
X69188008Y-137958254D01*
X69205072Y-137785000D01*
X69205072Y-136535000D01*
X69188008Y-136361746D01*
X69137472Y-136195150D01*
X69055405Y-136041614D01*
X68944962Y-135907038D01*
X68810386Y-135796595D01*
X68656850Y-135714528D01*
X68490254Y-135663992D01*
X68317000Y-135646928D01*
X67567000Y-135646928D01*
X67393746Y-135663992D01*
X67227150Y-135714528D01*
X67073614Y-135796595D01*
X66939038Y-135907038D01*
X66828595Y-136041614D01*
X66746528Y-136195150D01*
X66742440Y-136208626D01*
X66724312Y-136181495D01*
X66657873Y-136115056D01*
X66676180Y-136109502D01*
X66786494Y-136050537D01*
X66883185Y-135971185D01*
X66962537Y-135874494D01*
X67021502Y-135764180D01*
X67057812Y-135644482D01*
X67070072Y-135520000D01*
X67067000Y-134905750D01*
X66908250Y-134747000D01*
X65659000Y-134747000D01*
X65659000Y-134767000D01*
X65405000Y-134767000D01*
X65405000Y-134747000D01*
X64155750Y-134747000D01*
X63997000Y-134905750D01*
X63993928Y-135520000D01*
X63906000Y-135520000D01*
X63906000Y-126285734D01*
X63947723Y-126319975D01*
X64079752Y-126390547D01*
X64118147Y-126402194D01*
X64055989Y-126552257D01*
X63997000Y-126848816D01*
X63997000Y-127151184D01*
X64055989Y-127447743D01*
X64171701Y-127727095D01*
X64339688Y-127978505D01*
X64406127Y-128044944D01*
X64387820Y-128050498D01*
X64277506Y-128109463D01*
X64180815Y-128188815D01*
X64101463Y-128285506D01*
X64042498Y-128395820D01*
X64006188Y-128515518D01*
X63993928Y-128640000D01*
X63993928Y-130440000D01*
X64006188Y-130564482D01*
X64042498Y-130684180D01*
X64101463Y-130794494D01*
X64180815Y-130891185D01*
X64277506Y-130970537D01*
X64387820Y-131029502D01*
X64406127Y-131035056D01*
X64339688Y-131101495D01*
X64171701Y-131352905D01*
X64055989Y-131632257D01*
X63997000Y-131928816D01*
X63997000Y-132231184D01*
X64055989Y-132527743D01*
X64171701Y-132807095D01*
X64339688Y-133058505D01*
X64406127Y-133124944D01*
X64387820Y-133130498D01*
X64277506Y-133189463D01*
X64180815Y-133268815D01*
X64101463Y-133365506D01*
X64042498Y-133475820D01*
X64006188Y-133595518D01*
X63993928Y-133720000D01*
X63997000Y-134334250D01*
X64155750Y-134493000D01*
X65405000Y-134493000D01*
X65405000Y-134473000D01*
X65659000Y-134473000D01*
X65659000Y-134493000D01*
X66908250Y-134493000D01*
X67067000Y-134334250D01*
X67070072Y-133720000D01*
X67057812Y-133595518D01*
X67021502Y-133475820D01*
X66962537Y-133365506D01*
X66883185Y-133268815D01*
X66786494Y-133189463D01*
X66676180Y-133130498D01*
X66657873Y-133124944D01*
X66724312Y-133058505D01*
X66742440Y-133031374D01*
X66746528Y-133044850D01*
X66828595Y-133198386D01*
X66939038Y-133332962D01*
X67073614Y-133443405D01*
X67227150Y-133525472D01*
X67393746Y-133576008D01*
X67567000Y-133593072D01*
X68317000Y-133593072D01*
X68490254Y-133576008D01*
X68656850Y-133525472D01*
X68810386Y-133443405D01*
X68944962Y-133332962D01*
X69055405Y-133198386D01*
X69137472Y-133044850D01*
X69188008Y-132878254D01*
X69205072Y-132705000D01*
X69205072Y-131455000D01*
X69478928Y-131455000D01*
X69478928Y-132705000D01*
X69495992Y-132878254D01*
X69546528Y-133044850D01*
X69628595Y-133198386D01*
X69739038Y-133332962D01*
X69873614Y-133443405D01*
X69982001Y-133501339D01*
X69982000Y-135738661D01*
X69873614Y-135796595D01*
X69739038Y-135907038D01*
X69628595Y-136041614D01*
X69546528Y-136195150D01*
X69495992Y-136361746D01*
X69478928Y-136535000D01*
X69478928Y-137785000D01*
X69495992Y-137958254D01*
X69546528Y-138124850D01*
X69628595Y-138278386D01*
X69739038Y-138412962D01*
X69873614Y-138523405D01*
X70027150Y-138605472D01*
X70193746Y-138656008D01*
X70367000Y-138673072D01*
X71117000Y-138673072D01*
X71290254Y-138656008D01*
X71379288Y-138629000D01*
X73336928Y-138629000D01*
X73340000Y-143043250D01*
X73498750Y-143202000D01*
X79248000Y-143202000D01*
X79248000Y-138152750D01*
X79502000Y-138152750D01*
X79502000Y-143202000D01*
X85251250Y-143202000D01*
X85410000Y-143043250D01*
X85413072Y-138629000D01*
X85400812Y-138504518D01*
X85364502Y-138384820D01*
X85305537Y-138274506D01*
X85226185Y-138177815D01*
X85129494Y-138098463D01*
X85019180Y-138039498D01*
X84899482Y-138003188D01*
X84775000Y-137990928D01*
X79660750Y-137994000D01*
X79502000Y-138152750D01*
X79248000Y-138152750D01*
X79089250Y-137994000D01*
X73975000Y-137990928D01*
X73850518Y-138003188D01*
X73730820Y-138039498D01*
X73620506Y-138098463D01*
X73523815Y-138177815D01*
X73444463Y-138274506D01*
X73385498Y-138384820D01*
X73349188Y-138504518D01*
X73336928Y-138629000D01*
X71379288Y-138629000D01*
X71456850Y-138605472D01*
X71610386Y-138523405D01*
X71744962Y-138412962D01*
X71855405Y-138278386D01*
X71937472Y-138124850D01*
X71988008Y-137958254D01*
X72005072Y-137785000D01*
X72005072Y-136535000D01*
X71988008Y-136361746D01*
X71937472Y-136195150D01*
X71855405Y-136041614D01*
X71744962Y-135907038D01*
X71610386Y-135796595D01*
X71502000Y-135738661D01*
X71502000Y-133501339D01*
X71610386Y-133443405D01*
X71744962Y-133332962D01*
X71855405Y-133198386D01*
X71937472Y-133044850D01*
X71988008Y-132878254D01*
X71991776Y-132840000D01*
X72352678Y-132840000D01*
X72390000Y-132843676D01*
X72427322Y-132840000D01*
X72427333Y-132840000D01*
X72538986Y-132829003D01*
X72682247Y-132785546D01*
X72814276Y-132714974D01*
X72930001Y-132620001D01*
X72953804Y-132590997D01*
X76076928Y-129467874D01*
X76076928Y-129861103D01*
X76071324Y-129918000D01*
X76075001Y-129955332D01*
X76075001Y-131279129D01*
X76040820Y-131289498D01*
X75930506Y-131348463D01*
X75833815Y-131427815D01*
X75754463Y-131524506D01*
X75695498Y-131634820D01*
X75659188Y-131754518D01*
X75646928Y-131879000D01*
X75646928Y-136479000D01*
X75659188Y-136603482D01*
X75695498Y-136723180D01*
X75754463Y-136833494D01*
X75833815Y-136930185D01*
X75930506Y-137009537D01*
X76040820Y-137068502D01*
X76160518Y-137104812D01*
X76285000Y-137117072D01*
X77385000Y-137117072D01*
X77509482Y-137104812D01*
X77629180Y-137068502D01*
X77739494Y-137009537D01*
X77836185Y-136930185D01*
X77915537Y-136833494D01*
X77974502Y-136723180D01*
X78010812Y-136603482D01*
X78023072Y-136479000D01*
X78023072Y-131879000D01*
X78010812Y-131754518D01*
X77974502Y-131634820D01*
X77915537Y-131524506D01*
X77836185Y-131427815D01*
X77739494Y-131348463D01*
X77629180Y-131289498D01*
X77595000Y-131279130D01*
X77595000Y-130926072D01*
X77715000Y-130926072D01*
X77888254Y-130909008D01*
X78054850Y-130858472D01*
X78208386Y-130776405D01*
X78342962Y-130665962D01*
X78453405Y-130531386D01*
X78535472Y-130377850D01*
X78562727Y-130288000D01*
X78876928Y-130288000D01*
X78889188Y-130412482D01*
X78925498Y-130532180D01*
X78984463Y-130642494D01*
X79063815Y-130739185D01*
X79160506Y-130818537D01*
X79270820Y-130877502D01*
X79390518Y-130913812D01*
X79515000Y-130926072D01*
X79854250Y-130923000D01*
X80013000Y-130764250D01*
X80013000Y-129540000D01*
X80267000Y-129540000D01*
X80267000Y-130764250D01*
X80425750Y-130923000D01*
X80765000Y-130926072D01*
X80889482Y-130913812D01*
X81009180Y-130877502D01*
X81119494Y-130818537D01*
X81216185Y-130739185D01*
X81295537Y-130642494D01*
X81354502Y-130532180D01*
X81390812Y-130412482D01*
X81403072Y-130288000D01*
X82045928Y-130288000D01*
X82058188Y-130412482D01*
X82094498Y-130532180D01*
X82153463Y-130642494D01*
X82232815Y-130739185D01*
X82329506Y-130818537D01*
X82439820Y-130877502D01*
X82559518Y-130913812D01*
X82684000Y-130926072D01*
X83023250Y-130923000D01*
X83182000Y-130764250D01*
X83182000Y-129540000D01*
X83436000Y-129540000D01*
X83436000Y-130764250D01*
X83594750Y-130923000D01*
X83934000Y-130926072D01*
X84058482Y-130913812D01*
X84178180Y-130877502D01*
X84288494Y-130818537D01*
X84385185Y-130739185D01*
X84464537Y-130642494D01*
X84523502Y-130532180D01*
X84559812Y-130412482D01*
X84572072Y-130288000D01*
X84569000Y-129698750D01*
X84410250Y-129540000D01*
X83436000Y-129540000D01*
X83182000Y-129540000D01*
X82207750Y-129540000D01*
X82049000Y-129698750D01*
X82045928Y-130288000D01*
X81403072Y-130288000D01*
X81400000Y-129698750D01*
X81241250Y-129540000D01*
X80267000Y-129540000D01*
X80013000Y-129540000D01*
X79038750Y-129540000D01*
X78880000Y-129698750D01*
X78876928Y-130288000D01*
X78562727Y-130288000D01*
X78586008Y-130211254D01*
X78603072Y-130038000D01*
X78603072Y-128788000D01*
X78586008Y-128614746D01*
X78562728Y-128538000D01*
X78876928Y-128538000D01*
X78880000Y-129127250D01*
X79038750Y-129286000D01*
X80013000Y-129286000D01*
X80013000Y-128061750D01*
X80267000Y-128061750D01*
X80267000Y-129286000D01*
X81241250Y-129286000D01*
X81400000Y-129127250D01*
X81403072Y-128538000D01*
X82045928Y-128538000D01*
X82049000Y-129127250D01*
X82207750Y-129286000D01*
X83182000Y-129286000D01*
X83182000Y-128061750D01*
X83436000Y-128061750D01*
X83436000Y-129286000D01*
X84410250Y-129286000D01*
X84569000Y-129127250D01*
X84572072Y-128538000D01*
X84559812Y-128413518D01*
X84523502Y-128293820D01*
X84464537Y-128183506D01*
X84385185Y-128086815D01*
X84288494Y-128007463D01*
X84178180Y-127948498D01*
X84058482Y-127912188D01*
X83934000Y-127899928D01*
X83594750Y-127903000D01*
X83436000Y-128061750D01*
X83182000Y-128061750D01*
X83023250Y-127903000D01*
X82684000Y-127899928D01*
X82559518Y-127912188D01*
X82439820Y-127948498D01*
X82329506Y-128007463D01*
X82232815Y-128086815D01*
X82153463Y-128183506D01*
X82094498Y-128293820D01*
X82058188Y-128413518D01*
X82045928Y-128538000D01*
X81403072Y-128538000D01*
X81390812Y-128413518D01*
X81354502Y-128293820D01*
X81295537Y-128183506D01*
X81216185Y-128086815D01*
X81119494Y-128007463D01*
X81009180Y-127948498D01*
X80889482Y-127912188D01*
X80765000Y-127899928D01*
X80425750Y-127903000D01*
X80267000Y-128061750D01*
X80013000Y-128061750D01*
X79854250Y-127903000D01*
X79515000Y-127899928D01*
X79390518Y-127912188D01*
X79270820Y-127948498D01*
X79160506Y-128007463D01*
X79063815Y-128086815D01*
X78984463Y-128183506D01*
X78925498Y-128293820D01*
X78889188Y-128413518D01*
X78876928Y-128538000D01*
X78562728Y-128538000D01*
X78535472Y-128448150D01*
X78453405Y-128294614D01*
X78342962Y-128160038D01*
X78208386Y-128049595D01*
X78100000Y-127991661D01*
X78100000Y-127710532D01*
X78214256Y-127663205D01*
X78383774Y-127549937D01*
X78527937Y-127405774D01*
X78641205Y-127236256D01*
X78719226Y-127047898D01*
X78759000Y-126847939D01*
X78759000Y-126644061D01*
X78719226Y-126444102D01*
X78641205Y-126255744D01*
X78527937Y-126086226D01*
X78383774Y-125942063D01*
X78214256Y-125828795D01*
X78025898Y-125750774D01*
X77825939Y-125711000D01*
X77622061Y-125711000D01*
X77422102Y-125750774D01*
X77233744Y-125828795D01*
X77064226Y-125942063D01*
X76920063Y-126086226D01*
X76806795Y-126255744D01*
X76728774Y-126444102D01*
X76689000Y-126644061D01*
X76689000Y-126706198D01*
X75694724Y-127700474D01*
X75613250Y-127619000D01*
X74864000Y-127619000D01*
X74864000Y-128418250D01*
X74920474Y-128474724D01*
X72075199Y-131320000D01*
X71991776Y-131320000D01*
X71988008Y-131281746D01*
X71937472Y-131115150D01*
X71855405Y-130961614D01*
X71744962Y-130827038D01*
X71610386Y-130716595D01*
X71456850Y-130634528D01*
X71290254Y-130583992D01*
X71117000Y-130566928D01*
X70367000Y-130566928D01*
X70193746Y-130583992D01*
X70027150Y-130634528D01*
X69873614Y-130716595D01*
X69739038Y-130827038D01*
X69628595Y-130961614D01*
X69546528Y-131115150D01*
X69495992Y-131281746D01*
X69478928Y-131455000D01*
X69205072Y-131455000D01*
X69188008Y-131281746D01*
X69137472Y-131115150D01*
X69055405Y-130961614D01*
X68944962Y-130827038D01*
X68810386Y-130716595D01*
X68656850Y-130634528D01*
X68490254Y-130583992D01*
X68317000Y-130566928D01*
X67567000Y-130566928D01*
X67393746Y-130583992D01*
X67227150Y-130634528D01*
X67073614Y-130716595D01*
X66939038Y-130827038D01*
X66828595Y-130961614D01*
X66746528Y-131115150D01*
X66742440Y-131128626D01*
X66724312Y-131101495D01*
X66657873Y-131035056D01*
X66676180Y-131029502D01*
X66786494Y-130970537D01*
X66883185Y-130891185D01*
X66962537Y-130794494D01*
X67021502Y-130684180D01*
X67057812Y-130564482D01*
X67070072Y-130440000D01*
X67070072Y-128640000D01*
X67057812Y-128515518D01*
X67021502Y-128395820D01*
X66962537Y-128285506D01*
X66883185Y-128188815D01*
X66786494Y-128109463D01*
X66676180Y-128050498D01*
X66657873Y-128044944D01*
X66724312Y-127978505D01*
X66742440Y-127951374D01*
X66746528Y-127964850D01*
X66828595Y-128118386D01*
X66939038Y-128252962D01*
X67073614Y-128363405D01*
X67227150Y-128445472D01*
X67393746Y-128496008D01*
X67567000Y-128513072D01*
X68317000Y-128513072D01*
X68490254Y-128496008D01*
X68656850Y-128445472D01*
X68810386Y-128363405D01*
X68944962Y-128252962D01*
X69055405Y-128118386D01*
X69137472Y-127964850D01*
X69188008Y-127798254D01*
X69205072Y-127625000D01*
X69205072Y-126375000D01*
X69188008Y-126201746D01*
X69137472Y-126035150D01*
X69055405Y-125881614D01*
X68944962Y-125747038D01*
X68810386Y-125636595D01*
X68656850Y-125554528D01*
X68490254Y-125503992D01*
X68317000Y-125486928D01*
X67964875Y-125486928D01*
X69403014Y-124048790D01*
X69432011Y-124024993D01*
X69526984Y-123909268D01*
X69597556Y-123777239D01*
X69641013Y-123633978D01*
X69652010Y-123522325D01*
X69652010Y-123522324D01*
X69655687Y-123484992D01*
X69652010Y-123447659D01*
X69652010Y-123066917D01*
X69739038Y-123172962D01*
X69873614Y-123283405D01*
X69982001Y-123341339D01*
X69982000Y-125578661D01*
X69873614Y-125636595D01*
X69739038Y-125747038D01*
X69628595Y-125881614D01*
X69546528Y-126035150D01*
X69495992Y-126201746D01*
X69478928Y-126375000D01*
X69478928Y-127625000D01*
X69495992Y-127798254D01*
X69546528Y-127964850D01*
X69628595Y-128118386D01*
X69739038Y-128252962D01*
X69873614Y-128363405D01*
X70027150Y-128445472D01*
X70193746Y-128496008D01*
X70367000Y-128513072D01*
X71117000Y-128513072D01*
X71290254Y-128496008D01*
X71456850Y-128445472D01*
X71610386Y-128363405D01*
X71744962Y-128252962D01*
X71834617Y-128143717D01*
X71847498Y-128186180D01*
X71906463Y-128296494D01*
X71985815Y-128393185D01*
X72082506Y-128472537D01*
X72192820Y-128531502D01*
X72312518Y-128567812D01*
X72437000Y-128580072D01*
X73237000Y-128580072D01*
X73361482Y-128567812D01*
X73481180Y-128531502D01*
X73591494Y-128472537D01*
X73688185Y-128393185D01*
X73767537Y-128296494D01*
X73787000Y-128260082D01*
X73806463Y-128296494D01*
X73885815Y-128393185D01*
X73982506Y-128472537D01*
X74092820Y-128531502D01*
X74212518Y-128567812D01*
X74337000Y-128580072D01*
X74451250Y-128577000D01*
X74610000Y-128418250D01*
X74610000Y-127619000D01*
X74590000Y-127619000D01*
X74590000Y-127365000D01*
X74610000Y-127365000D01*
X74610000Y-126565750D01*
X74864000Y-126565750D01*
X74864000Y-127365000D01*
X75613250Y-127365000D01*
X75772000Y-127206250D01*
X75775072Y-127042000D01*
X75762812Y-126917518D01*
X75726502Y-126797820D01*
X75667537Y-126687506D01*
X75588185Y-126590815D01*
X75491494Y-126511463D01*
X75381180Y-126452498D01*
X75261482Y-126416188D01*
X75137000Y-126403928D01*
X75022750Y-126407000D01*
X74864000Y-126565750D01*
X74610000Y-126565750D01*
X74525393Y-126481143D01*
X74541494Y-126472537D01*
X74638185Y-126393185D01*
X74717537Y-126296494D01*
X74776502Y-126186180D01*
X74781532Y-126169599D01*
X74861276Y-126126974D01*
X74977001Y-126032001D01*
X75000804Y-126002997D01*
X75440997Y-125562804D01*
X75470001Y-125539001D01*
X75564974Y-125423276D01*
X75635546Y-125291247D01*
X75679003Y-125147986D01*
X75690000Y-125036333D01*
X75690000Y-125036324D01*
X75693676Y-124999001D01*
X75690000Y-124961678D01*
X75690000Y-124136154D01*
X75836744Y-124234205D01*
X76025102Y-124312226D01*
X76225061Y-124352000D01*
X76428939Y-124352000D01*
X76628898Y-124312226D01*
X76817256Y-124234205D01*
X76986774Y-124120937D01*
X77130937Y-123976774D01*
X77244205Y-123807256D01*
X77268588Y-123748390D01*
X81158200Y-127638002D01*
X81181999Y-127667001D01*
X81223819Y-127701322D01*
X81297724Y-127761974D01*
X81429753Y-127832546D01*
X81573014Y-127876003D01*
X81722000Y-127890677D01*
X81759333Y-127887000D01*
X87557368Y-127887000D01*
X87523774Y-127968102D01*
X87484000Y-128168061D01*
X87484000Y-128371939D01*
X87492565Y-128415000D01*
X87286753Y-128415000D01*
X87222405Y-128294614D01*
X87111962Y-128160038D01*
X86977386Y-128049595D01*
X86823850Y-127967528D01*
X86657254Y-127916992D01*
X86484000Y-127899928D01*
X85734000Y-127899928D01*
X85560746Y-127916992D01*
X85394150Y-127967528D01*
X85240614Y-128049595D01*
X85106038Y-128160038D01*
X84995595Y-128294614D01*
X84913528Y-128448150D01*
X84862992Y-128614746D01*
X84845928Y-128788000D01*
X84845928Y-130038000D01*
X84862992Y-130211254D01*
X84913528Y-130377850D01*
X84995595Y-130531386D01*
X85106038Y-130665962D01*
X85131961Y-130687237D01*
X83103072Y-132716127D01*
X83103072Y-131879000D01*
X83090812Y-131754518D01*
X83054502Y-131634820D01*
X82995537Y-131524506D01*
X82916185Y-131427815D01*
X82819494Y-131348463D01*
X82709180Y-131289498D01*
X82589482Y-131253188D01*
X82465000Y-131240928D01*
X81365000Y-131240928D01*
X81240518Y-131253188D01*
X81120820Y-131289498D01*
X81010506Y-131348463D01*
X80913815Y-131427815D01*
X80834463Y-131524506D01*
X80775498Y-131634820D01*
X80739188Y-131754518D01*
X80726928Y-131879000D01*
X80726928Y-136479000D01*
X80739188Y-136603482D01*
X80775498Y-136723180D01*
X80834463Y-136833494D01*
X80913815Y-136930185D01*
X81010506Y-137009537D01*
X81120820Y-137068502D01*
X81240518Y-137104812D01*
X81365000Y-137117072D01*
X82465000Y-137117072D01*
X82589482Y-137104812D01*
X82709180Y-137068502D01*
X82819494Y-137009537D01*
X82916185Y-136930185D01*
X82995537Y-136833494D01*
X83054502Y-136723180D01*
X83090812Y-136603482D01*
X83103072Y-136479000D01*
X83103072Y-134833326D01*
X83139276Y-134813974D01*
X83255001Y-134719001D01*
X83278804Y-134689997D01*
X86620004Y-131348798D01*
X86649001Y-131325001D01*
X86743974Y-131209276D01*
X86814546Y-131077247D01*
X86858003Y-130933986D01*
X86867752Y-130835006D01*
X86977386Y-130776405D01*
X87111962Y-130665962D01*
X87222405Y-130531386D01*
X87304472Y-130377850D01*
X87355008Y-130211254D01*
X87372072Y-130038000D01*
X87372072Y-129935000D01*
X88834680Y-129935000D01*
X88858463Y-129979494D01*
X88881560Y-130007638D01*
X88802270Y-130086928D01*
X88439000Y-130086928D01*
X88314518Y-130099188D01*
X88194820Y-130135498D01*
X88084506Y-130194463D01*
X87987815Y-130273815D01*
X87908463Y-130370506D01*
X87849498Y-130480820D01*
X87813188Y-130600518D01*
X87800928Y-130725000D01*
X87800928Y-131625000D01*
X87813188Y-131749482D01*
X87849498Y-131869180D01*
X87908463Y-131979494D01*
X87987815Y-132076185D01*
X88084506Y-132155537D01*
X88194820Y-132214502D01*
X88314518Y-132250812D01*
X88439000Y-132263072D01*
X89239000Y-132263072D01*
X89363482Y-132250812D01*
X89483180Y-132214502D01*
X89593494Y-132155537D01*
X89690185Y-132076185D01*
X89769537Y-131979494D01*
X89789000Y-131943082D01*
X89808463Y-131979494D01*
X89887815Y-132076185D01*
X89984506Y-132155537D01*
X90094820Y-132214502D01*
X90214518Y-132250812D01*
X90339000Y-132263072D01*
X91139000Y-132263072D01*
X91263482Y-132250812D01*
X91383180Y-132214502D01*
X91493494Y-132155537D01*
X91590185Y-132076185D01*
X91669537Y-131979494D01*
X91728502Y-131869180D01*
X91764812Y-131749482D01*
X91777072Y-131625000D01*
X91777072Y-130725000D01*
X91764812Y-130600518D01*
X91728502Y-130480820D01*
X91669537Y-130370506D01*
X91590185Y-130273815D01*
X91493494Y-130194463D01*
X91383180Y-130135498D01*
X91263482Y-130099188D01*
X91243813Y-130097251D01*
X91263004Y-130033987D01*
X91274001Y-129922334D01*
X91274001Y-129922333D01*
X91277678Y-129885001D01*
X91274001Y-129847668D01*
X91274001Y-128502321D01*
X91277677Y-128464998D01*
X91274001Y-128427675D01*
X91274001Y-128427666D01*
X91263004Y-128316013D01*
X91219547Y-128172752D01*
X91148975Y-128040723D01*
X91054002Y-127924998D01*
X91025004Y-127901200D01*
X89739806Y-126616003D01*
X89716003Y-126586999D01*
X89600278Y-126492026D01*
X89468249Y-126421454D01*
X89324988Y-126377997D01*
X89213335Y-126367000D01*
X89213324Y-126367000D01*
X89176002Y-126363324D01*
X89138680Y-126367000D01*
X82036802Y-126367000D01*
X81524802Y-125855000D01*
X83019636Y-125855000D01*
X83028815Y-125866185D01*
X83125506Y-125945537D01*
X83235820Y-126004502D01*
X83355518Y-126040812D01*
X83480000Y-126053072D01*
X85480000Y-126053072D01*
X85604482Y-126040812D01*
X85724180Y-126004502D01*
X85834494Y-125945537D01*
X85931185Y-125866185D01*
X86010537Y-125769494D01*
X86069502Y-125659180D01*
X86105812Y-125539482D01*
X86118072Y-125415000D01*
X86118072Y-124775000D01*
X86105812Y-124650518D01*
X86069502Y-124530820D01*
X86010537Y-124420506D01*
X85931185Y-124323815D01*
X85834494Y-124244463D01*
X85724180Y-124185498D01*
X85604482Y-124149188D01*
X85480000Y-124136928D01*
X83480000Y-124136928D01*
X83355518Y-124149188D01*
X83235820Y-124185498D01*
X83125506Y-124244463D01*
X83028815Y-124323815D01*
X83019636Y-124335000D01*
X81340802Y-124335000D01*
X80139695Y-123133893D01*
X80187301Y-123172962D01*
X80208030Y-123189974D01*
X80340059Y-123260546D01*
X80483320Y-123304003D01*
X80594973Y-123315000D01*
X80594982Y-123315000D01*
X80632305Y-123318676D01*
X80669628Y-123315000D01*
X83019636Y-123315000D01*
X83028815Y-123326185D01*
X83125506Y-123405537D01*
X83235820Y-123464502D01*
X83355518Y-123500812D01*
X83480000Y-123513072D01*
X85480000Y-123513072D01*
X85604482Y-123500812D01*
X85724180Y-123464502D01*
X85834494Y-123405537D01*
X85931185Y-123326185D01*
X86010537Y-123229494D01*
X86069502Y-123119180D01*
X86105812Y-122999482D01*
X86118072Y-122875000D01*
X86118072Y-122235000D01*
X86105812Y-122110518D01*
X86069502Y-121990820D01*
X86010537Y-121880506D01*
X85931185Y-121783815D01*
X85834494Y-121704463D01*
X85724180Y-121645498D01*
X85604482Y-121609188D01*
X85480000Y-121596928D01*
X83480000Y-121596928D01*
X83355518Y-121609188D01*
X83235820Y-121645498D01*
X83125506Y-121704463D01*
X83028815Y-121783815D01*
X83019636Y-121795000D01*
X80947109Y-121795000D01*
X77101653Y-117949546D01*
X77101653Y-117887408D01*
X77061879Y-117687449D01*
X76983858Y-117499091D01*
X76870590Y-117329573D01*
X76726427Y-117185410D01*
X76556909Y-117072142D01*
X76368551Y-116994121D01*
X76168592Y-116954347D01*
X75964714Y-116954347D01*
X75764755Y-116994121D01*
X75576397Y-117072142D01*
X75406879Y-117185410D01*
X75262716Y-117329573D01*
X75149448Y-117499091D01*
X75071427Y-117687449D01*
X75031653Y-117887408D01*
X75031653Y-118091286D01*
X75071427Y-118291245D01*
X75149448Y-118479603D01*
X75194433Y-118546928D01*
X74330000Y-118546928D01*
X74205518Y-118559188D01*
X74159845Y-118573043D01*
X72769000Y-117182199D01*
X72769000Y-114211801D01*
X72936802Y-114044000D01*
X78163289Y-114044000D01*
X78207226Y-114087937D01*
X78376744Y-114201205D01*
X78565102Y-114279226D01*
X78765061Y-114319000D01*
X78968939Y-114319000D01*
X79168898Y-114279226D01*
X79260001Y-114241490D01*
X79260001Y-115176928D01*
X79055000Y-115176928D01*
X78930518Y-115189188D01*
X78810820Y-115225498D01*
X78700506Y-115284463D01*
X78603815Y-115363815D01*
X78524463Y-115460506D01*
X78465498Y-115570820D01*
X78429188Y-115690518D01*
X78416928Y-115815000D01*
X78416928Y-117815000D01*
X78429188Y-117939482D01*
X78465498Y-118059180D01*
X78524463Y-118169494D01*
X78603815Y-118266185D01*
X78700506Y-118345537D01*
X78810820Y-118404502D01*
X78930518Y-118440812D01*
X79055000Y-118453072D01*
X79610000Y-118453072D01*
X79610000Y-118592939D01*
X79649774Y-118792898D01*
X79727795Y-118981256D01*
X79841063Y-119150774D01*
X79985226Y-119294937D01*
X80154744Y-119408205D01*
X80343102Y-119486226D01*
X80543061Y-119526000D01*
X80746939Y-119526000D01*
X80946898Y-119486226D01*
X81135256Y-119408205D01*
X81304774Y-119294937D01*
X81448937Y-119150774D01*
X81452464Y-119145495D01*
X81427774Y-119205102D01*
X81388000Y-119405061D01*
X81388000Y-119608939D01*
X81427774Y-119808898D01*
X81505795Y-119997256D01*
X81619063Y-120166774D01*
X81763226Y-120310937D01*
X81932744Y-120424205D01*
X82121102Y-120502226D01*
X82321061Y-120542000D01*
X82524939Y-120542000D01*
X82724898Y-120502226D01*
X82913256Y-120424205D01*
X83082774Y-120310937D01*
X83126711Y-120267000D01*
X90556300Y-120267000D01*
X90600237Y-120310937D01*
X90769755Y-120424205D01*
X90958113Y-120502226D01*
X91158072Y-120542000D01*
X91361950Y-120542000D01*
X91561909Y-120502226D01*
X91750267Y-120424205D01*
X91919785Y-120310937D01*
X92063948Y-120166774D01*
X92177216Y-119997256D01*
X92255237Y-119808898D01*
X92295011Y-119608939D01*
X92295011Y-119405061D01*
X92255237Y-119205102D01*
X92177216Y-119016744D01*
X92063948Y-118847226D01*
X91919785Y-118703063D01*
X91750267Y-118589795D01*
X91561909Y-118511774D01*
X91361950Y-118472000D01*
X91158072Y-118472000D01*
X90958113Y-118511774D01*
X90769755Y-118589795D01*
X90600237Y-118703063D01*
X90556300Y-118747000D01*
X83183000Y-118747000D01*
X83183000Y-117775000D01*
X84176928Y-117775000D01*
X84189188Y-117899482D01*
X84225498Y-118019180D01*
X84284463Y-118129494D01*
X84363815Y-118226185D01*
X84460506Y-118305537D01*
X84570820Y-118364502D01*
X84690518Y-118400812D01*
X84815000Y-118413072D01*
X85504250Y-118410000D01*
X85663000Y-118251250D01*
X85663000Y-117602000D01*
X85917000Y-117602000D01*
X85917000Y-118251250D01*
X86075750Y-118410000D01*
X86765000Y-118413072D01*
X86889482Y-118400812D01*
X87009180Y-118364502D01*
X87119494Y-118305537D01*
X87216185Y-118226185D01*
X87295537Y-118129494D01*
X87354502Y-118019180D01*
X87390812Y-117899482D01*
X87403072Y-117775000D01*
X87400000Y-117760750D01*
X87241250Y-117602000D01*
X85917000Y-117602000D01*
X85663000Y-117602000D01*
X84338750Y-117602000D01*
X84180000Y-117760750D01*
X84176928Y-117775000D01*
X83183000Y-117775000D01*
X83183000Y-117360322D01*
X83186676Y-117322999D01*
X83183000Y-117285676D01*
X83183000Y-117285667D01*
X83172003Y-117174014D01*
X83128546Y-117030753D01*
X83057974Y-116898724D01*
X82963001Y-116782999D01*
X82934002Y-116759200D01*
X82873072Y-116698270D01*
X82873072Y-115815000D01*
X82860812Y-115690518D01*
X82824502Y-115570820D01*
X82765537Y-115460506D01*
X82686185Y-115363815D01*
X82589494Y-115284463D01*
X82479180Y-115225498D01*
X82359482Y-115189188D01*
X82235000Y-115176928D01*
X81595000Y-115176928D01*
X81470518Y-115189188D01*
X81350820Y-115225498D01*
X81240506Y-115284463D01*
X81143815Y-115363815D01*
X81064463Y-115460506D01*
X81005498Y-115570820D01*
X80969188Y-115690518D01*
X80956928Y-115815000D01*
X80956928Y-117322126D01*
X80705170Y-117070368D01*
X80725547Y-117032246D01*
X80769004Y-116888985D01*
X80780001Y-116777332D01*
X80780001Y-116777322D01*
X80783677Y-116740000D01*
X80780001Y-116702677D01*
X80780001Y-113244802D01*
X84251200Y-116716002D01*
G36*
X72111226Y-106975937D02*
G01*
X72280744Y-107089205D01*
X72469102Y-107167226D01*
X72669061Y-107207000D01*
X72872939Y-107207000D01*
X73072898Y-107167226D01*
X73261256Y-107089205D01*
X73430774Y-106975937D01*
X73474711Y-106932000D01*
X76334201Y-106932000D01*
X76948475Y-107546275D01*
X76895000Y-107599750D01*
X76895000Y-110149000D01*
X76915000Y-110149000D01*
X76915000Y-110403000D01*
X76895000Y-110403000D01*
X76895000Y-110423000D01*
X76641000Y-110423000D01*
X76641000Y-110403000D01*
X75091750Y-110403000D01*
X74933000Y-110561750D01*
X74929928Y-112476000D01*
X74934655Y-112524000D01*
X73401345Y-112524000D01*
X73406072Y-112476000D01*
X73406072Y-108076000D01*
X74929928Y-108076000D01*
X74933000Y-109990250D01*
X75091750Y-110149000D01*
X76641000Y-110149000D01*
X76641000Y-107599750D01*
X76482250Y-107441000D01*
X75568000Y-107437928D01*
X75443518Y-107450188D01*
X75323820Y-107486498D01*
X75213506Y-107545463D01*
X75116815Y-107624815D01*
X75037463Y-107721506D01*
X74978498Y-107831820D01*
X74942188Y-107951518D01*
X74929928Y-108076000D01*
X73406072Y-108076000D01*
X73393812Y-107951518D01*
X73357502Y-107831820D01*
X73298537Y-107721506D01*
X73219185Y-107624815D01*
X73122494Y-107545463D01*
X73012180Y-107486498D01*
X72892482Y-107450188D01*
X72768000Y-107437928D01*
X71447648Y-107437928D01*
X72010433Y-106875144D01*
X72111226Y-106975937D01*
G37*
X72111226Y-106975937D02*
X72280744Y-107089205D01*
X72469102Y-107167226D01*
X72669061Y-107207000D01*
X72872939Y-107207000D01*
X73072898Y-107167226D01*
X73261256Y-107089205D01*
X73430774Y-106975937D01*
X73474711Y-106932000D01*
X76334201Y-106932000D01*
X76948475Y-107546275D01*
X76895000Y-107599750D01*
X76895000Y-110149000D01*
X76915000Y-110149000D01*
X76915000Y-110403000D01*
X76895000Y-110403000D01*
X76895000Y-110423000D01*
X76641000Y-110423000D01*
X76641000Y-110403000D01*
X75091750Y-110403000D01*
X74933000Y-110561750D01*
X74929928Y-112476000D01*
X74934655Y-112524000D01*
X73401345Y-112524000D01*
X73406072Y-112476000D01*
X73406072Y-108076000D01*
X74929928Y-108076000D01*
X74933000Y-109990250D01*
X75091750Y-110149000D01*
X76641000Y-110149000D01*
X76641000Y-107599750D01*
X76482250Y-107441000D01*
X75568000Y-107437928D01*
X75443518Y-107450188D01*
X75323820Y-107486498D01*
X75213506Y-107545463D01*
X75116815Y-107624815D01*
X75037463Y-107721506D01*
X74978498Y-107831820D01*
X74942188Y-107951518D01*
X74929928Y-108076000D01*
X73406072Y-108076000D01*
X73393812Y-107951518D01*
X73357502Y-107831820D01*
X73298537Y-107721506D01*
X73219185Y-107624815D01*
X73122494Y-107545463D01*
X73012180Y-107486498D01*
X72892482Y-107450188D01*
X72768000Y-107437928D01*
X71447648Y-107437928D01*
X72010433Y-106875144D01*
X72111226Y-106975937D01*
G36*
X90066614Y-102963405D02*
G01*
X90220150Y-103045472D01*
X90386746Y-103096008D01*
X90560000Y-103113072D01*
X91125011Y-103113072D01*
X91125011Y-103995739D01*
X91062000Y-104058750D01*
X91062000Y-105283000D01*
X91082000Y-105283000D01*
X91082000Y-105537000D01*
X91062000Y-105537000D01*
X91062000Y-105557000D01*
X90808000Y-105557000D01*
X90808000Y-105537000D01*
X90788000Y-105537000D01*
X90788000Y-105283000D01*
X90808000Y-105283000D01*
X90808000Y-104058750D01*
X90649250Y-103900000D01*
X90310000Y-103896928D01*
X90185518Y-103909188D01*
X90065820Y-103945498D01*
X89955506Y-104004463D01*
X89858815Y-104083815D01*
X89845010Y-104100636D01*
X89845010Y-103139791D01*
X90041779Y-102943023D01*
X90066614Y-102963405D01*
G37*
X90066614Y-102963405D02*
X90220150Y-103045472D01*
X90386746Y-103096008D01*
X90560000Y-103113072D01*
X91125011Y-103113072D01*
X91125011Y-103995739D01*
X91062000Y-104058750D01*
X91062000Y-105283000D01*
X91082000Y-105283000D01*
X91082000Y-105537000D01*
X91062000Y-105537000D01*
X91062000Y-105557000D01*
X90808000Y-105557000D01*
X90808000Y-105537000D01*
X90788000Y-105537000D01*
X90788000Y-105283000D01*
X90808000Y-105283000D01*
X90808000Y-104058750D01*
X90649250Y-103900000D01*
X90310000Y-103896928D01*
X90185518Y-103909188D01*
X90065820Y-103945498D01*
X89955506Y-104004463D01*
X89858815Y-104083815D01*
X89845010Y-104100636D01*
X89845010Y-103139791D01*
X90041779Y-102943023D01*
X90066614Y-102963405D01*
G36*
X85948817Y-97303618D02*
G01*
X86871928Y-98226731D01*
X86871928Y-98415000D01*
X86888992Y-98588254D01*
X86939528Y-98754850D01*
X87021595Y-98908386D01*
X87132038Y-99042962D01*
X87241988Y-99133195D01*
X87224226Y-99145063D01*
X87080063Y-99289226D01*
X86966795Y-99458744D01*
X86888774Y-99647102D01*
X86849000Y-99847061D01*
X86849000Y-100050939D01*
X86888774Y-100250898D01*
X86966795Y-100439256D01*
X87009819Y-100503646D01*
X86939528Y-100635150D01*
X86888992Y-100801746D01*
X86871928Y-100975000D01*
X86871928Y-102225000D01*
X86874686Y-102253000D01*
X86839720Y-102253000D01*
X86830545Y-102222752D01*
X86799034Y-102163799D01*
X86759973Y-102090722D01*
X86688798Y-102003996D01*
X86665000Y-101974998D01*
X86636002Y-101951200D01*
X85848072Y-101163271D01*
X85848072Y-100975000D01*
X85831008Y-100801746D01*
X85780472Y-100635150D01*
X85698405Y-100481614D01*
X85587962Y-100347038D01*
X85453386Y-100236595D01*
X85299850Y-100154528D01*
X85133254Y-100103992D01*
X84960000Y-100086928D01*
X84394990Y-100086928D01*
X84394990Y-99204260D01*
X84458000Y-99141250D01*
X84458000Y-97917000D01*
X84712000Y-97917000D01*
X84712000Y-99141250D01*
X84870750Y-99300000D01*
X85210000Y-99303072D01*
X85334482Y-99290812D01*
X85454180Y-99254502D01*
X85564494Y-99195537D01*
X85661185Y-99116185D01*
X85740537Y-99019494D01*
X85799502Y-98909180D01*
X85835812Y-98789482D01*
X85848072Y-98665000D01*
X85845000Y-98075750D01*
X85686250Y-97917000D01*
X84712000Y-97917000D01*
X84458000Y-97917000D01*
X84438000Y-97917000D01*
X84438000Y-97663000D01*
X84458000Y-97663000D01*
X84458000Y-97643000D01*
X84712000Y-97643000D01*
X84712000Y-97663000D01*
X85686250Y-97663000D01*
X85845000Y-97504250D01*
X85846128Y-97287925D01*
X85948817Y-97303618D01*
G37*
X85948817Y-97303618D02*
X86871928Y-98226731D01*
X86871928Y-98415000D01*
X86888992Y-98588254D01*
X86939528Y-98754850D01*
X87021595Y-98908386D01*
X87132038Y-99042962D01*
X87241988Y-99133195D01*
X87224226Y-99145063D01*
X87080063Y-99289226D01*
X86966795Y-99458744D01*
X86888774Y-99647102D01*
X86849000Y-99847061D01*
X86849000Y-100050939D01*
X86888774Y-100250898D01*
X86966795Y-100439256D01*
X87009819Y-100503646D01*
X86939528Y-100635150D01*
X86888992Y-100801746D01*
X86871928Y-100975000D01*
X86871928Y-102225000D01*
X86874686Y-102253000D01*
X86839720Y-102253000D01*
X86830545Y-102222752D01*
X86799034Y-102163799D01*
X86759973Y-102090722D01*
X86688798Y-102003996D01*
X86665000Y-101974998D01*
X86636002Y-101951200D01*
X85848072Y-101163271D01*
X85848072Y-100975000D01*
X85831008Y-100801746D01*
X85780472Y-100635150D01*
X85698405Y-100481614D01*
X85587962Y-100347038D01*
X85453386Y-100236595D01*
X85299850Y-100154528D01*
X85133254Y-100103992D01*
X84960000Y-100086928D01*
X84394990Y-100086928D01*
X84394990Y-99204260D01*
X84458000Y-99141250D01*
X84458000Y-97917000D01*
X84712000Y-97917000D01*
X84712000Y-99141250D01*
X84870750Y-99300000D01*
X85210000Y-99303072D01*
X85334482Y-99290812D01*
X85454180Y-99254502D01*
X85564494Y-99195537D01*
X85661185Y-99116185D01*
X85740537Y-99019494D01*
X85799502Y-98909180D01*
X85835812Y-98789482D01*
X85848072Y-98665000D01*
X85845000Y-98075750D01*
X85686250Y-97917000D01*
X84712000Y-97917000D01*
X84458000Y-97917000D01*
X84438000Y-97917000D01*
X84438000Y-97663000D01*
X84458000Y-97663000D01*
X84458000Y-97643000D01*
X84712000Y-97643000D01*
X84712000Y-97663000D01*
X85686250Y-97663000D01*
X85845000Y-97504250D01*
X85846128Y-97287925D01*
X85948817Y-97303618D01*
G36*
X74333750Y-97663000D02*
G01*
X75308000Y-97663000D01*
X75308000Y-97643000D01*
X75562000Y-97643000D01*
X75562000Y-97663000D01*
X75582000Y-97663000D01*
X75582000Y-97917000D01*
X75562000Y-97917000D01*
X75562000Y-97937000D01*
X75308000Y-97937000D01*
X75308000Y-97917000D01*
X74333750Y-97917000D01*
X74188275Y-98062475D01*
X73948999Y-97823200D01*
X73948999Y-97756800D01*
X74188275Y-97517525D01*
X74333750Y-97663000D01*
G37*
X74333750Y-97663000D02*
X75308000Y-97663000D01*
X75308000Y-97643000D01*
X75562000Y-97643000D01*
X75562000Y-97663000D01*
X75582000Y-97663000D01*
X75582000Y-97917000D01*
X75562000Y-97917000D01*
X75562000Y-97937000D01*
X75308000Y-97937000D01*
X75308000Y-97917000D01*
X74333750Y-97917000D01*
X74188275Y-98062475D01*
X73948999Y-97823200D01*
X73948999Y-97756800D01*
X74188275Y-97517525D01*
X74333750Y-97663000D01*
G36*
X74803000Y-87122000D02*
G01*
X74814026Y-87122000D01*
X74811000Y-87137212D01*
X74811000Y-87314001D01*
X74610998Y-87314001D01*
X74610998Y-87274061D01*
X74579160Y-87114000D01*
X74787788Y-87114000D01*
X74803000Y-87110974D01*
X74803000Y-87122000D01*
G37*
X74803000Y-87122000D02*
X74814026Y-87122000D01*
X74811000Y-87137212D01*
X74811000Y-87314001D01*
X74610998Y-87314001D01*
X74610998Y-87274061D01*
X74579160Y-87114000D01*
X74787788Y-87114000D01*
X74803000Y-87110974D01*
X74803000Y-87122000D01*
%TD*%
M02*
