%TF.GenerationSoftware,KiCad,Pcbnew,5.1.5+dfsg1-2build2*%
%TF.CreationDate,2022-11-14T11:38:36+01:00*%
%TF.ProjectId,ebus,65627573-2e6b-4696-9361-645f70636258,rev?*%
%TF.SameCoordinates,Original*%
%TF.FileFunction,Legend,Bot*%
%TF.FilePolarity,Positive*%
%FSLAX46Y46*%
G04 Gerber Fmt 4.6, Leading zero omitted, Abs format (unit mm)*
G04 Created by KiCad (PCBNEW 5.1.5+dfsg1-2build2) date 2022-11-14 11:38:36*
%MOMM*%
%LPD*%
G04 APERTURE LIST*
%ADD10C,0.400000*%
%ADD11C,0.200000*%
%ADD12C,0.150000*%
%ADD13C,0.120000*%
G04 APERTURE END LIST*
D10*
X83851095Y-136874047D02*
X84232047Y-137064523D01*
X84993952Y-137064523D01*
X85374904Y-136874047D01*
X85565380Y-136493095D01*
X85565380Y-134969285D01*
X85374904Y-134588333D01*
X84993952Y-134397857D01*
X84232047Y-134397857D01*
X83851095Y-134588333D01*
X83660619Y-134969285D01*
X83660619Y-135350238D01*
X85565380Y-135731190D01*
X80613000Y-134969285D02*
X80041571Y-135159761D01*
X79851095Y-135350238D01*
X79660619Y-135731190D01*
X79660619Y-136302619D01*
X79851095Y-136683571D01*
X80041571Y-136874047D01*
X80422523Y-137064523D01*
X81946333Y-137064523D01*
X81946333Y-133064523D01*
X80613000Y-133064523D01*
X80232047Y-133255000D01*
X80041571Y-133445476D01*
X79851095Y-133826428D01*
X79851095Y-134207380D01*
X80041571Y-134588333D01*
X80232047Y-134778809D01*
X80613000Y-134969285D01*
X81946333Y-134969285D01*
X77946333Y-133064523D02*
X77946333Y-136302619D01*
X77755857Y-136683571D01*
X77565380Y-136874047D01*
X77184428Y-137064523D01*
X76422523Y-137064523D01*
X76041571Y-136874047D01*
X75851095Y-136683571D01*
X75660619Y-136302619D01*
X75660619Y-133064523D01*
X73946333Y-136874047D02*
X73374904Y-137064523D01*
X72422523Y-137064523D01*
X72041571Y-136874047D01*
X71851095Y-136683571D01*
X71660619Y-136302619D01*
X71660619Y-135921666D01*
X71851095Y-135540714D01*
X72041571Y-135350238D01*
X72422523Y-135159761D01*
X73184428Y-134969285D01*
X73565380Y-134778809D01*
X73755857Y-134588333D01*
X73946333Y-134207380D01*
X73946333Y-133826428D01*
X73755857Y-133445476D01*
X73565380Y-133255000D01*
X73184428Y-133064523D01*
X72232047Y-133064523D01*
X71660619Y-133255000D01*
D11*
X85077285Y-139164142D02*
X84934428Y-139235571D01*
X84648714Y-139235571D01*
X84505857Y-139164142D01*
X84434428Y-139021285D01*
X84434428Y-138949857D01*
X84505857Y-138807000D01*
X84648714Y-138735571D01*
X84863000Y-138735571D01*
X85005857Y-138664142D01*
X85077285Y-138521285D01*
X85077285Y-138449857D01*
X85005857Y-138307000D01*
X84863000Y-138235571D01*
X84648714Y-138235571D01*
X84505857Y-138307000D01*
X83791571Y-139235571D02*
X83791571Y-138235571D01*
X83791571Y-138378428D02*
X83720142Y-138307000D01*
X83577285Y-138235571D01*
X83363000Y-138235571D01*
X83220142Y-138307000D01*
X83148714Y-138449857D01*
X83148714Y-139235571D01*
X83148714Y-138449857D02*
X83077285Y-138307000D01*
X82934428Y-138235571D01*
X82720142Y-138235571D01*
X82577285Y-138307000D01*
X82505857Y-138449857D01*
X82505857Y-139235571D01*
X81148714Y-139235571D02*
X81148714Y-138449857D01*
X81220142Y-138307000D01*
X81363000Y-138235571D01*
X81648714Y-138235571D01*
X81791571Y-138307000D01*
X81148714Y-139164142D02*
X81291571Y-139235571D01*
X81648714Y-139235571D01*
X81791571Y-139164142D01*
X81863000Y-139021285D01*
X81863000Y-138878428D01*
X81791571Y-138735571D01*
X81648714Y-138664142D01*
X81291571Y-138664142D01*
X81148714Y-138592714D01*
X80434428Y-139235571D02*
X80434428Y-138235571D01*
X80434428Y-138521285D02*
X80363000Y-138378428D01*
X80291571Y-138307000D01*
X80148714Y-138235571D01*
X80005857Y-138235571D01*
X79720142Y-138235571D02*
X79148714Y-138235571D01*
X79505857Y-137735571D02*
X79505857Y-139021285D01*
X79434428Y-139164142D01*
X79291571Y-139235571D01*
X79148714Y-139235571D01*
X77505857Y-139235571D02*
X77505857Y-137735571D01*
X76863000Y-139235571D02*
X76863000Y-138449857D01*
X76934428Y-138307000D01*
X77077285Y-138235571D01*
X77291571Y-138235571D01*
X77434428Y-138307000D01*
X77505857Y-138378428D01*
X75934428Y-139235571D02*
X76077285Y-139164142D01*
X76148714Y-139092714D01*
X76220142Y-138949857D01*
X76220142Y-138521285D01*
X76148714Y-138378428D01*
X76077285Y-138307000D01*
X75934428Y-138235571D01*
X75720142Y-138235571D01*
X75577285Y-138307000D01*
X75505857Y-138378428D01*
X75434428Y-138521285D01*
X75434428Y-138949857D01*
X75505857Y-139092714D01*
X75577285Y-139164142D01*
X75720142Y-139235571D01*
X75934428Y-139235571D01*
X74791571Y-139235571D02*
X74791571Y-138235571D01*
X74791571Y-138378428D02*
X74720142Y-138307000D01*
X74577285Y-138235571D01*
X74363000Y-138235571D01*
X74220142Y-138307000D01*
X74148714Y-138449857D01*
X74148714Y-139235571D01*
X74148714Y-138449857D02*
X74077285Y-138307000D01*
X73934428Y-138235571D01*
X73720142Y-138235571D01*
X73577285Y-138307000D01*
X73505857Y-138449857D01*
X73505857Y-139235571D01*
X72220142Y-139164142D02*
X72363000Y-139235571D01*
X72648714Y-139235571D01*
X72791571Y-139164142D01*
X72863000Y-139021285D01*
X72863000Y-138449857D01*
X72791571Y-138307000D01*
X72648714Y-138235571D01*
X72363000Y-138235571D01*
X72220142Y-138307000D01*
X72148714Y-138449857D01*
X72148714Y-138592714D01*
X72863000Y-138735571D01*
D12*
X73715571Y-83375714D02*
X73715571Y-83709047D01*
X74239380Y-83851904D02*
X74239380Y-83375714D01*
X73239380Y-83375714D01*
X73239380Y-83851904D01*
X73715571Y-84613809D02*
X73763190Y-84756666D01*
X73810809Y-84804285D01*
X73906047Y-84851904D01*
X74048904Y-84851904D01*
X74144142Y-84804285D01*
X74191761Y-84756666D01*
X74239380Y-84661428D01*
X74239380Y-84280476D01*
X73239380Y-84280476D01*
X73239380Y-84613809D01*
X73287000Y-84709047D01*
X73334619Y-84756666D01*
X73429857Y-84804285D01*
X73525095Y-84804285D01*
X73620333Y-84756666D01*
X73667952Y-84709047D01*
X73715571Y-84613809D01*
X73715571Y-84280476D01*
X73239380Y-85280476D02*
X74048904Y-85280476D01*
X74144142Y-85328095D01*
X74191761Y-85375714D01*
X74239380Y-85470952D01*
X74239380Y-85661428D01*
X74191761Y-85756666D01*
X74144142Y-85804285D01*
X74048904Y-85851904D01*
X73239380Y-85851904D01*
X74191761Y-86280476D02*
X74239380Y-86423333D01*
X74239380Y-86661428D01*
X74191761Y-86756666D01*
X74144142Y-86804285D01*
X74048904Y-86851904D01*
X73953666Y-86851904D01*
X73858428Y-86804285D01*
X73810809Y-86756666D01*
X73763190Y-86661428D01*
X73715571Y-86470952D01*
X73667952Y-86375714D01*
X73620333Y-86328095D01*
X73525095Y-86280476D01*
X73429857Y-86280476D01*
X73334619Y-86328095D01*
X73287000Y-86375714D01*
X73239380Y-86470952D01*
X73239380Y-86709047D01*
X73287000Y-86851904D01*
D13*
%TO.C,J1*%
X82271000Y-86995000D02*
G75*
G03X82271000Y-86995000I-1555000J0D01*
G01*
X75056000Y-84895000D02*
X82876000Y-84895000D01*
X75056000Y-90455000D02*
X82876000Y-90455000D01*
X75056000Y-83335000D02*
X82876000Y-83335000D01*
X75056000Y-90455000D02*
X75056000Y-83335000D01*
X82876000Y-90455000D02*
X82876000Y-83335000D01*
X74816000Y-84835000D02*
X74816000Y-83095000D01*
X74816000Y-83095000D02*
X76316000Y-83095000D01*
X77243011Y-85439508D02*
G75*
G03X76608000Y-85563000I-27011J-1555492D01*
G01*
X75783891Y-86387258D02*
G75*
G03X75784000Y-87603000I1432109J-607742D01*
G01*
X76608258Y-88427109D02*
G75*
G03X77824000Y-88427000I607742J1432109D01*
G01*
X78648109Y-87602742D02*
G75*
G03X78648000Y-86387000I-1432109J607742D01*
G01*
X77823587Y-85563615D02*
G75*
G03X77216000Y-85440000I-607587J-1431385D01*
G01*
%TD*%
M02*
