%TF.GenerationSoftware,KiCad,Pcbnew,5.1.5+dfsg1-2build2*%
%TF.CreationDate,2022-11-14T11:38:36+01:00*%
%TF.ProjectId,ebus,65627573-2e6b-4696-9361-645f70636258,rev?*%
%TF.SameCoordinates,Original*%
%TF.FileFunction,Legend,Top*%
%TF.FilePolarity,Positive*%
%FSLAX46Y46*%
G04 Gerber Fmt 4.6, Leading zero omitted, Abs format (unit mm)*
G04 Created by KiCad (PCBNEW 5.1.5+dfsg1-2build2) date 2022-11-14 11:38:36*
%MOMM*%
%LPD*%
G04 APERTURE LIST*
%ADD10C,0.125000*%
%ADD11C,0.200000*%
%ADD12C,0.400000*%
%ADD13C,0.150000*%
%ADD14C,0.120000*%
G04 APERTURE END LIST*
D10*
X63448428Y-106160142D02*
X63424619Y-106136333D01*
X63400809Y-106064904D01*
X63400809Y-106017285D01*
X63424619Y-105945857D01*
X63472238Y-105898238D01*
X63519857Y-105874428D01*
X63615095Y-105850619D01*
X63686523Y-105850619D01*
X63781761Y-105874428D01*
X63829380Y-105898238D01*
X63877000Y-105945857D01*
X63900809Y-106017285D01*
X63900809Y-106064904D01*
X63877000Y-106136333D01*
X63853190Y-106160142D01*
X63900809Y-106469666D02*
X63900809Y-106564904D01*
X63877000Y-106612523D01*
X63829380Y-106660142D01*
X63734142Y-106683952D01*
X63567476Y-106683952D01*
X63472238Y-106660142D01*
X63424619Y-106612523D01*
X63400809Y-106564904D01*
X63400809Y-106469666D01*
X63424619Y-106422047D01*
X63472238Y-106374428D01*
X63567476Y-106350619D01*
X63734142Y-106350619D01*
X63829380Y-106374428D01*
X63877000Y-106422047D01*
X63900809Y-106469666D01*
X63400809Y-106898238D02*
X63900809Y-106898238D01*
X63543666Y-107064904D01*
X63900809Y-107231571D01*
X63400809Y-107231571D01*
X63400809Y-114712761D02*
X63400809Y-114427047D01*
X63400809Y-114569904D02*
X63900809Y-114569904D01*
X63829380Y-114522285D01*
X63781761Y-114474666D01*
X63757952Y-114427047D01*
X63900809Y-114879428D02*
X63900809Y-115188952D01*
X63710333Y-115022285D01*
X63710333Y-115093714D01*
X63686523Y-115141333D01*
X63662714Y-115165142D01*
X63615095Y-115188952D01*
X63496047Y-115188952D01*
X63448428Y-115165142D01*
X63424619Y-115141333D01*
X63400809Y-115093714D01*
X63400809Y-114950857D01*
X63424619Y-114903238D01*
X63448428Y-114879428D01*
X63400809Y-113315761D02*
X63400809Y-113030047D01*
X63400809Y-113172904D02*
X63900809Y-113172904D01*
X63829380Y-113125285D01*
X63781761Y-113077666D01*
X63757952Y-113030047D01*
X63853190Y-113506238D02*
X63877000Y-113530047D01*
X63900809Y-113577666D01*
X63900809Y-113696714D01*
X63877000Y-113744333D01*
X63853190Y-113768142D01*
X63805571Y-113791952D01*
X63757952Y-113791952D01*
X63686523Y-113768142D01*
X63400809Y-113482428D01*
X63400809Y-113791952D01*
X63400809Y-111918761D02*
X63400809Y-111633047D01*
X63400809Y-111775904D02*
X63900809Y-111775904D01*
X63829380Y-111728285D01*
X63781761Y-111680666D01*
X63757952Y-111633047D01*
X63400809Y-112394952D02*
X63400809Y-112109238D01*
X63400809Y-112252095D02*
X63900809Y-112252095D01*
X63829380Y-112204476D01*
X63781761Y-112156857D01*
X63757952Y-112109238D01*
X63400809Y-110521761D02*
X63400809Y-110236047D01*
X63400809Y-110378904D02*
X63900809Y-110378904D01*
X63829380Y-110331285D01*
X63781761Y-110283666D01*
X63757952Y-110236047D01*
X63900809Y-110831285D02*
X63900809Y-110878904D01*
X63877000Y-110926523D01*
X63853190Y-110950333D01*
X63805571Y-110974142D01*
X63710333Y-110997952D01*
X63591285Y-110997952D01*
X63496047Y-110974142D01*
X63448428Y-110950333D01*
X63424619Y-110926523D01*
X63400809Y-110878904D01*
X63400809Y-110831285D01*
X63424619Y-110783666D01*
X63448428Y-110759857D01*
X63496047Y-110736047D01*
X63591285Y-110712238D01*
X63710333Y-110712238D01*
X63805571Y-110736047D01*
X63853190Y-110759857D01*
X63877000Y-110783666D01*
X63900809Y-110831285D01*
X63400809Y-109251761D02*
X63400809Y-109347000D01*
X63424619Y-109394619D01*
X63448428Y-109418428D01*
X63519857Y-109466047D01*
X63615095Y-109489857D01*
X63805571Y-109489857D01*
X63853190Y-109466047D01*
X63877000Y-109442238D01*
X63900809Y-109394619D01*
X63900809Y-109299380D01*
X63877000Y-109251761D01*
X63853190Y-109227952D01*
X63805571Y-109204142D01*
X63686523Y-109204142D01*
X63638904Y-109227952D01*
X63615095Y-109251761D01*
X63591285Y-109299380D01*
X63591285Y-109394619D01*
X63615095Y-109442238D01*
X63638904Y-109466047D01*
X63686523Y-109489857D01*
X63734142Y-108172238D02*
X63400809Y-108172238D01*
X63924619Y-108053190D02*
X63567476Y-107934142D01*
X63567476Y-108243666D01*
X68599809Y-114260333D02*
X68599809Y-114593666D01*
X68099809Y-114379380D01*
X68599809Y-113252238D02*
X68599809Y-113157000D01*
X68576000Y-113109380D01*
X68552190Y-113085571D01*
X68480761Y-113037952D01*
X68385523Y-113014142D01*
X68195047Y-113014142D01*
X68147428Y-113037952D01*
X68123619Y-113061761D01*
X68099809Y-113109380D01*
X68099809Y-113204619D01*
X68123619Y-113252238D01*
X68147428Y-113276047D01*
X68195047Y-113299857D01*
X68314095Y-113299857D01*
X68361714Y-113276047D01*
X68385523Y-113252238D01*
X68409333Y-113204619D01*
X68409333Y-113109380D01*
X68385523Y-113061761D01*
X68361714Y-113037952D01*
X68314095Y-113014142D01*
X68599809Y-112006047D02*
X68599809Y-111767952D01*
X68361714Y-111744142D01*
X68385523Y-111767952D01*
X68409333Y-111815571D01*
X68409333Y-111934619D01*
X68385523Y-111982238D01*
X68361714Y-112006047D01*
X68314095Y-112029857D01*
X68195047Y-112029857D01*
X68147428Y-112006047D01*
X68123619Y-111982238D01*
X68099809Y-111934619D01*
X68099809Y-111815571D01*
X68123619Y-111767952D01*
X68147428Y-111744142D01*
X68433142Y-110712238D02*
X68099809Y-110712238D01*
X68623619Y-110593190D02*
X68266476Y-110474142D01*
X68266476Y-110783666D01*
X68599809Y-109180333D02*
X68599809Y-109489857D01*
X68409333Y-109323190D01*
X68409333Y-109394619D01*
X68385523Y-109442238D01*
X68361714Y-109466047D01*
X68314095Y-109489857D01*
X68195047Y-109489857D01*
X68147428Y-109466047D01*
X68123619Y-109442238D01*
X68099809Y-109394619D01*
X68099809Y-109251761D01*
X68123619Y-109204142D01*
X68147428Y-109180333D01*
X68099809Y-106949857D02*
X68099809Y-106664142D01*
X68099809Y-106807000D02*
X68599809Y-106807000D01*
X68528380Y-106759380D01*
X68480761Y-106711761D01*
X68456952Y-106664142D01*
D11*
X121927142Y-110684428D02*
X121641428Y-109684428D01*
X121355714Y-110398714D01*
X121070000Y-109684428D01*
X120784285Y-110684428D01*
X120212857Y-109684428D02*
X120212857Y-110684428D01*
X120212857Y-111184428D02*
X120284285Y-111113000D01*
X120212857Y-111041571D01*
X120141428Y-111113000D01*
X120212857Y-111184428D01*
X120212857Y-111041571D01*
X119712857Y-110684428D02*
X119141428Y-110684428D01*
X119498571Y-109684428D02*
X119498571Y-110970142D01*
X119427142Y-111113000D01*
X119284285Y-111184428D01*
X119141428Y-111184428D01*
X118641428Y-109684428D02*
X118641428Y-110684428D01*
X118641428Y-111184428D02*
X118712857Y-111113000D01*
X118641428Y-111041571D01*
X118570000Y-111113000D01*
X118641428Y-111184428D01*
X118641428Y-111041571D01*
X116784285Y-109684428D02*
X116784285Y-110684428D01*
X116784285Y-110541571D02*
X116712857Y-110613000D01*
X116570000Y-110684428D01*
X116355714Y-110684428D01*
X116212857Y-110613000D01*
X116141428Y-110470142D01*
X116141428Y-109684428D01*
X116141428Y-110470142D02*
X116070000Y-110613000D01*
X115927142Y-110684428D01*
X115712857Y-110684428D01*
X115570000Y-110613000D01*
X115498571Y-110470142D01*
X115498571Y-109684428D01*
X114570000Y-109684428D02*
X114712857Y-109755857D01*
X114784285Y-109827285D01*
X114855714Y-109970142D01*
X114855714Y-110398714D01*
X114784285Y-110541571D01*
X114712857Y-110613000D01*
X114570000Y-110684428D01*
X114355714Y-110684428D01*
X114212857Y-110613000D01*
X114141428Y-110541571D01*
X114070000Y-110398714D01*
X114070000Y-109970142D01*
X114141428Y-109827285D01*
X114212857Y-109755857D01*
X114355714Y-109684428D01*
X114570000Y-109684428D01*
X112784285Y-109684428D02*
X112784285Y-111184428D01*
X112784285Y-109755857D02*
X112927142Y-109684428D01*
X113212857Y-109684428D01*
X113355714Y-109755857D01*
X113427142Y-109827285D01*
X113498571Y-109970142D01*
X113498571Y-110398714D01*
X113427142Y-110541571D01*
X113355714Y-110613000D01*
X113212857Y-110684428D01*
X112927142Y-110684428D01*
X112784285Y-110613000D01*
X111427142Y-110684428D02*
X111427142Y-109684428D01*
X112070000Y-110684428D02*
X112070000Y-109898714D01*
X111998571Y-109755857D01*
X111855714Y-109684428D01*
X111641428Y-109684428D01*
X111498571Y-109755857D01*
X111427142Y-109827285D01*
X110498571Y-109684428D02*
X110641428Y-109755857D01*
X110712857Y-109898714D01*
X110712857Y-111184428D01*
X109355714Y-109755857D02*
X109498571Y-109684428D01*
X109784285Y-109684428D01*
X109927142Y-109755857D01*
X109998571Y-109898714D01*
X109998571Y-110470142D01*
X109927142Y-110613000D01*
X109784285Y-110684428D01*
X109498571Y-110684428D01*
X109355714Y-110613000D01*
X109284285Y-110470142D01*
X109284285Y-110327285D01*
X109998571Y-110184428D01*
D12*
X120808095Y-112426952D02*
X121189047Y-112236476D01*
X121950952Y-112236476D01*
X122331904Y-112426952D01*
X122522380Y-112807904D01*
X122522380Y-114331714D01*
X122331904Y-114712666D01*
X121950952Y-114903142D01*
X121189047Y-114903142D01*
X120808095Y-114712666D01*
X120617619Y-114331714D01*
X120617619Y-113950761D01*
X122522380Y-113569809D01*
X117570000Y-114331714D02*
X116998571Y-114141238D01*
X116808095Y-113950761D01*
X116617619Y-113569809D01*
X116617619Y-112998380D01*
X116808095Y-112617428D01*
X116998571Y-112426952D01*
X117379523Y-112236476D01*
X118903333Y-112236476D01*
X118903333Y-116236476D01*
X117570000Y-116236476D01*
X117189047Y-116046000D01*
X116998571Y-115855523D01*
X116808095Y-115474571D01*
X116808095Y-115093619D01*
X116998571Y-114712666D01*
X117189047Y-114522190D01*
X117570000Y-114331714D01*
X118903333Y-114331714D01*
X114903333Y-116236476D02*
X114903333Y-112998380D01*
X114712857Y-112617428D01*
X114522380Y-112426952D01*
X114141428Y-112236476D01*
X113379523Y-112236476D01*
X112998571Y-112426952D01*
X112808095Y-112617428D01*
X112617619Y-112998380D01*
X112617619Y-116236476D01*
X110903333Y-112426952D02*
X110331904Y-112236476D01*
X109379523Y-112236476D01*
X108998571Y-112426952D01*
X108808095Y-112617428D01*
X108617619Y-112998380D01*
X108617619Y-113379333D01*
X108808095Y-113760285D01*
X108998571Y-113950761D01*
X109379523Y-114141238D01*
X110141428Y-114331714D01*
X110522380Y-114522190D01*
X110712857Y-114712666D01*
X110903333Y-115093619D01*
X110903333Y-115474571D01*
X110712857Y-115855523D01*
X110522380Y-116046000D01*
X110141428Y-116236476D01*
X109189047Y-116236476D01*
X108617619Y-116046000D01*
D13*
X63966285Y-121667857D02*
X63216285Y-121667857D01*
X63502000Y-121667857D02*
X63466285Y-121596428D01*
X63466285Y-121453571D01*
X63502000Y-121382142D01*
X63537714Y-121346428D01*
X63609142Y-121310714D01*
X63823428Y-121310714D01*
X63894857Y-121346428D01*
X63930571Y-121382142D01*
X63966285Y-121453571D01*
X63966285Y-121596428D01*
X63930571Y-121667857D01*
X63966285Y-120882142D02*
X63930571Y-120953571D01*
X63859142Y-120989285D01*
X63216285Y-120989285D01*
X63466285Y-120275000D02*
X63966285Y-120275000D01*
X63466285Y-120596428D02*
X63859142Y-120596428D01*
X63930571Y-120560714D01*
X63966285Y-120489285D01*
X63966285Y-120382142D01*
X63930571Y-120310714D01*
X63894857Y-120275000D01*
X63930571Y-119632142D02*
X63966285Y-119703571D01*
X63966285Y-119846428D01*
X63930571Y-119917857D01*
X63859142Y-119953571D01*
X63573428Y-119953571D01*
X63502000Y-119917857D01*
X63466285Y-119846428D01*
X63466285Y-119703571D01*
X63502000Y-119632142D01*
X63573428Y-119596428D01*
X63644857Y-119596428D01*
X63716285Y-119953571D01*
X63466285Y-126783571D02*
X64073428Y-126783571D01*
X64144857Y-126819285D01*
X64180571Y-126855000D01*
X64216285Y-126926428D01*
X64216285Y-127033571D01*
X64180571Y-127105000D01*
X63930571Y-126783571D02*
X63966285Y-126855000D01*
X63966285Y-126997857D01*
X63930571Y-127069285D01*
X63894857Y-127105000D01*
X63823428Y-127140714D01*
X63609142Y-127140714D01*
X63537714Y-127105000D01*
X63502000Y-127069285D01*
X63466285Y-126997857D01*
X63466285Y-126855000D01*
X63502000Y-126783571D01*
X63966285Y-126426428D02*
X63466285Y-126426428D01*
X63609142Y-126426428D02*
X63537714Y-126390714D01*
X63502000Y-126355000D01*
X63466285Y-126283571D01*
X63466285Y-126212142D01*
X63930571Y-125676428D02*
X63966285Y-125747857D01*
X63966285Y-125890714D01*
X63930571Y-125962142D01*
X63859142Y-125997857D01*
X63573428Y-125997857D01*
X63502000Y-125962142D01*
X63466285Y-125890714D01*
X63466285Y-125747857D01*
X63502000Y-125676428D01*
X63573428Y-125640714D01*
X63644857Y-125640714D01*
X63716285Y-125997857D01*
X63930571Y-125033571D02*
X63966285Y-125105000D01*
X63966285Y-125247857D01*
X63930571Y-125319285D01*
X63859142Y-125355000D01*
X63573428Y-125355000D01*
X63502000Y-125319285D01*
X63466285Y-125247857D01*
X63466285Y-125105000D01*
X63502000Y-125033571D01*
X63573428Y-124997857D01*
X63644857Y-124997857D01*
X63716285Y-125355000D01*
X63466285Y-124676428D02*
X63966285Y-124676428D01*
X63537714Y-124676428D02*
X63502000Y-124640714D01*
X63466285Y-124569285D01*
X63466285Y-124462142D01*
X63502000Y-124390714D01*
X63573428Y-124355000D01*
X63966285Y-124355000D01*
X63966285Y-131524285D02*
X63466285Y-131524285D01*
X63609142Y-131524285D02*
X63537714Y-131488571D01*
X63502000Y-131452857D01*
X63466285Y-131381428D01*
X63466285Y-131310000D01*
X63930571Y-130774285D02*
X63966285Y-130845714D01*
X63966285Y-130988571D01*
X63930571Y-131060000D01*
X63859142Y-131095714D01*
X63573428Y-131095714D01*
X63502000Y-131060000D01*
X63466285Y-130988571D01*
X63466285Y-130845714D01*
X63502000Y-130774285D01*
X63573428Y-130738571D01*
X63644857Y-130738571D01*
X63716285Y-131095714D01*
X63966285Y-130095714D02*
X63216285Y-130095714D01*
X63930571Y-130095714D02*
X63966285Y-130167142D01*
X63966285Y-130310000D01*
X63930571Y-130381428D01*
X63894857Y-130417142D01*
X63823428Y-130452857D01*
X63609142Y-130452857D01*
X63537714Y-130417142D01*
X63502000Y-130381428D01*
X63466285Y-130310000D01*
X63466285Y-130167142D01*
X63502000Y-130095714D01*
X63466285Y-137642000D02*
X63966285Y-137463428D01*
X63466285Y-137284857D02*
X63966285Y-137463428D01*
X64144857Y-137534857D01*
X64180571Y-137570571D01*
X64216285Y-137642000D01*
X63930571Y-136713428D02*
X63966285Y-136784857D01*
X63966285Y-136927714D01*
X63930571Y-136999142D01*
X63859142Y-137034857D01*
X63573428Y-137034857D01*
X63502000Y-136999142D01*
X63466285Y-136927714D01*
X63466285Y-136784857D01*
X63502000Y-136713428D01*
X63573428Y-136677714D01*
X63644857Y-136677714D01*
X63716285Y-137034857D01*
X63966285Y-136249142D02*
X63930571Y-136320571D01*
X63859142Y-136356285D01*
X63216285Y-136356285D01*
X63966285Y-135856285D02*
X63930571Y-135927714D01*
X63859142Y-135963428D01*
X63216285Y-135963428D01*
X63966285Y-135463428D02*
X63930571Y-135534857D01*
X63894857Y-135570571D01*
X63823428Y-135606285D01*
X63609142Y-135606285D01*
X63537714Y-135570571D01*
X63502000Y-135534857D01*
X63466285Y-135463428D01*
X63466285Y-135356285D01*
X63502000Y-135284857D01*
X63537714Y-135249142D01*
X63609142Y-135213428D01*
X63823428Y-135213428D01*
X63894857Y-135249142D01*
X63930571Y-135284857D01*
X63966285Y-135356285D01*
X63966285Y-135463428D01*
X63466285Y-134963428D02*
X63966285Y-134820571D01*
X63609142Y-134677714D01*
X63966285Y-134534857D01*
X63466285Y-134392000D01*
D10*
X69593666Y-92600333D02*
X69593666Y-92167000D01*
X69860333Y-92400333D01*
X69860333Y-92300333D01*
X69893666Y-92233666D01*
X69927000Y-92200333D01*
X69993666Y-92167000D01*
X70160333Y-92167000D01*
X70227000Y-92200333D01*
X70260333Y-92233666D01*
X70293666Y-92300333D01*
X70293666Y-92500333D01*
X70260333Y-92567000D01*
X70227000Y-92600333D01*
X70227000Y-91867000D02*
X70260333Y-91833666D01*
X70293666Y-91867000D01*
X70260333Y-91900333D01*
X70227000Y-91867000D01*
X70293666Y-91867000D01*
X69593666Y-91600333D02*
X69593666Y-91167000D01*
X69860333Y-91400333D01*
X69860333Y-91300333D01*
X69893666Y-91233666D01*
X69927000Y-91200333D01*
X69993666Y-91167000D01*
X70160333Y-91167000D01*
X70227000Y-91200333D01*
X70260333Y-91233666D01*
X70293666Y-91300333D01*
X70293666Y-91500333D01*
X70260333Y-91567000D01*
X70227000Y-91600333D01*
X69593666Y-90967000D02*
X70293666Y-90733666D01*
X69593666Y-90500333D01*
D13*
X64070666Y-101970666D02*
X63737333Y-102204000D01*
X64070666Y-102370666D02*
X63370666Y-102370666D01*
X63370666Y-102104000D01*
X63404000Y-102037333D01*
X63437333Y-102004000D01*
X63504000Y-101970666D01*
X63604000Y-101970666D01*
X63670666Y-102004000D01*
X63704000Y-102037333D01*
X63737333Y-102104000D01*
X63737333Y-102370666D01*
X63370666Y-101737333D02*
X64070666Y-101270666D01*
X63370666Y-101270666D02*
X64070666Y-101737333D01*
X63370666Y-99593333D02*
X63370666Y-99193333D01*
X64070666Y-99393333D02*
X63370666Y-99393333D01*
X63370666Y-99026666D02*
X64070666Y-98560000D01*
X63370666Y-98560000D02*
X64070666Y-99026666D01*
X63404000Y-97053333D02*
X63370666Y-97120000D01*
X63370666Y-97220000D01*
X63404000Y-97320000D01*
X63470666Y-97386666D01*
X63537333Y-97420000D01*
X63670666Y-97453333D01*
X63770666Y-97453333D01*
X63904000Y-97420000D01*
X63970666Y-97386666D01*
X64037333Y-97320000D01*
X64070666Y-97220000D01*
X64070666Y-97153333D01*
X64037333Y-97053333D01*
X64004000Y-97020000D01*
X63770666Y-97020000D01*
X63770666Y-97153333D01*
X64070666Y-96720000D02*
X63370666Y-96720000D01*
X64070666Y-96320000D01*
X63370666Y-96320000D01*
X64070666Y-95986666D02*
X63370666Y-95986666D01*
X63370666Y-95820000D01*
X63404000Y-95720000D01*
X63470666Y-95653333D01*
X63537333Y-95620000D01*
X63670666Y-95586666D01*
X63770666Y-95586666D01*
X63904000Y-95620000D01*
X63970666Y-95653333D01*
X64037333Y-95720000D01*
X64070666Y-95820000D01*
X64070666Y-95986666D01*
D14*
%TO.C,D3*%
X75368000Y-101066000D02*
X72968000Y-101066000D01*
X78328000Y-106426000D02*
X78328000Y-101066000D01*
X70008000Y-111786000D02*
X70008000Y-101066000D01*
X74168000Y-111786000D02*
X72968000Y-111786000D01*
%TO.C,J8*%
X64275000Y-106047000D02*
X65405000Y-106047000D01*
X64275000Y-106807000D02*
X64275000Y-106047000D01*
X66982530Y-106112000D02*
X67805000Y-106112000D01*
X66165000Y-106112000D02*
X66367470Y-106112000D01*
X66165000Y-106243529D02*
X66165000Y-106112000D01*
X66165000Y-107513529D02*
X66165000Y-107370471D01*
X65968471Y-107567000D02*
X66111529Y-107567000D01*
X64275000Y-107567000D02*
X64841529Y-107567000D01*
X67805000Y-106112000D02*
X67805000Y-115122000D01*
X64275000Y-107567000D02*
X64275000Y-115122000D01*
X65712530Y-115122000D02*
X66367470Y-115122000D01*
X66982530Y-115122000D02*
X67805000Y-115122000D01*
X64275000Y-115122000D02*
X65097470Y-115122000D01*
%TO.C,U4*%
X85230000Y-125825000D02*
X85230000Y-125675000D01*
X90030000Y-125825000D02*
X85230000Y-125825000D01*
X90030000Y-125675000D02*
X90030000Y-125825000D01*
X90030000Y-121825000D02*
X90030000Y-121975000D01*
X85230000Y-121825000D02*
X90030000Y-121825000D01*
X85230000Y-121975000D02*
X85230000Y-121825000D01*
X90030000Y-125675000D02*
X91730000Y-125675000D01*
%TO.C,U3*%
X75985000Y-137004000D02*
X75985000Y-135904000D01*
X74175000Y-137004000D02*
X75985000Y-137004000D01*
X74175000Y-138504000D02*
X74175000Y-137004000D01*
X82765000Y-137004000D02*
X82765000Y-131879000D01*
X84575000Y-137004000D02*
X82765000Y-137004000D01*
X84575000Y-138504000D02*
X84575000Y-137004000D01*
%TO.C,U2*%
X82645000Y-116065000D02*
X82495000Y-116065000D01*
X82645000Y-111265000D02*
X82645000Y-116065000D01*
X82495000Y-111265000D02*
X82645000Y-111265000D01*
X78645000Y-111265000D02*
X78795000Y-111265000D01*
X78645000Y-116065000D02*
X78645000Y-111265000D01*
X78795000Y-116065000D02*
X78645000Y-116065000D01*
X82495000Y-111265000D02*
X82495000Y-109565000D01*
%TO.C,J3*%
X68072000Y-90237000D02*
X69402000Y-90237000D01*
X69402000Y-90237000D02*
X69402000Y-91567000D01*
X66802000Y-90237000D02*
X66802000Y-92837000D01*
X66802000Y-92837000D02*
X69402000Y-92837000D01*
X69402000Y-92837000D02*
X69402000Y-103057000D01*
X64202000Y-103057000D02*
X69402000Y-103057000D01*
X64202000Y-90237000D02*
X64202000Y-103057000D01*
X64202000Y-90237000D02*
X66802000Y-90237000D01*
%TO.C,U1*%
X88265000Y-118130000D02*
X90215000Y-118130000D01*
X88265000Y-118130000D02*
X86315000Y-118130000D01*
X88265000Y-113010000D02*
X90215000Y-113010000D01*
X88265000Y-113010000D02*
X84815000Y-113010000D01*
%TO.C,Q1*%
X75367000Y-125732000D02*
X74437000Y-125732000D01*
X72207000Y-125732000D02*
X73137000Y-125732000D01*
X72207000Y-125732000D02*
X72207000Y-127892000D01*
X75367000Y-125732000D02*
X75367000Y-127192000D01*
%TO.C,D7*%
X91369000Y-129415000D02*
X90439000Y-129415000D01*
X88209000Y-129415000D02*
X89139000Y-129415000D01*
X88209000Y-129415000D02*
X88209000Y-131575000D01*
X91369000Y-129415000D02*
X91369000Y-130875000D01*
%TO.C,D1*%
X75930000Y-119035000D02*
X73930000Y-119035000D01*
X73930000Y-119035000D02*
X73930000Y-122935000D01*
X75930000Y-119035000D02*
X75930000Y-122935000D01*
%TO.C,R19*%
X68739936Y-121010000D02*
X69944064Y-121010000D01*
X68739936Y-122830000D02*
X69944064Y-122830000D01*
%TO.C,R17*%
X68739936Y-136250000D02*
X69944064Y-136250000D01*
X68739936Y-138070000D02*
X69944064Y-138070000D01*
%TO.C,R16*%
X68739936Y-126090000D02*
X69944064Y-126090000D01*
X68739936Y-127910000D02*
X69944064Y-127910000D01*
%TO.C,R15*%
X76232936Y-93070000D02*
X77437064Y-93070000D01*
X76232936Y-94890000D02*
X77437064Y-94890000D01*
%TO.C,R14*%
X83787064Y-106320000D02*
X82582936Y-106320000D01*
X83787064Y-104500000D02*
X82582936Y-104500000D01*
%TO.C,R13*%
X88932936Y-93070000D02*
X90137064Y-93070000D01*
X88932936Y-94890000D02*
X90137064Y-94890000D01*
%TO.C,R11*%
X88932936Y-96880000D02*
X90137064Y-96880000D01*
X88932936Y-98700000D02*
X90137064Y-98700000D01*
%TO.C,R10*%
X83787064Y-102510000D02*
X82582936Y-102510000D01*
X83787064Y-100690000D02*
X82582936Y-100690000D01*
%TO.C,R9*%
X82582936Y-93070000D02*
X83787064Y-93070000D01*
X82582936Y-94890000D02*
X83787064Y-94890000D01*
%TO.C,R7*%
X82582936Y-96880000D02*
X83787064Y-96880000D01*
X82582936Y-98700000D02*
X83787064Y-98700000D01*
%TO.C,R6*%
X68739936Y-131170000D02*
X69944064Y-131170000D01*
X68739936Y-132990000D02*
X69944064Y-132990000D01*
%TO.C,R4*%
X90137064Y-106320000D02*
X88932936Y-106320000D01*
X90137064Y-104500000D02*
X88932936Y-104500000D01*
%TO.C,R3*%
X88932936Y-100690000D02*
X90137064Y-100690000D01*
X88932936Y-102510000D02*
X90137064Y-102510000D01*
%TO.C,R1*%
X77437064Y-98700000D02*
X76232936Y-98700000D01*
X77437064Y-96880000D02*
X76232936Y-96880000D01*
%TO.C,C6*%
X78137936Y-128503000D02*
X79342064Y-128503000D01*
X78137936Y-130323000D02*
X79342064Y-130323000D01*
%TO.C,C1*%
X85311064Y-130323000D02*
X84106936Y-130323000D01*
X85311064Y-128503000D02*
X84106936Y-128503000D01*
%TO.C,D6*%
X64322000Y-119090000D02*
X60462000Y-119090000D01*
X64322000Y-122210000D02*
X60462000Y-122210000D01*
X64322000Y-119090000D02*
X64322000Y-122210000D01*
X64322000Y-122610000D02*
X63202000Y-122610000D01*
X63202000Y-122610000D02*
X63202000Y-122210000D01*
X63202000Y-122210000D02*
X64322000Y-122210000D01*
X64322000Y-122210000D02*
X64322000Y-122610000D01*
X64452000Y-119380000D02*
X64322000Y-119380000D01*
X64322000Y-119380000D02*
X64322000Y-119380000D01*
X64322000Y-119380000D02*
X64452000Y-119380000D01*
X64452000Y-119380000D02*
X64452000Y-119380000D01*
X64452000Y-121920000D02*
X64322000Y-121920000D01*
X64322000Y-121920000D02*
X64322000Y-121920000D01*
X64322000Y-121920000D02*
X64452000Y-121920000D01*
X64452000Y-121920000D02*
X64452000Y-121920000D01*
X60462000Y-122210000D02*
G75*
G02X60462000Y-119090000I0J1560000D01*
G01*
%TO.C,D5*%
X64322000Y-134330000D02*
X60462000Y-134330000D01*
X64322000Y-137450000D02*
X60462000Y-137450000D01*
X64322000Y-134330000D02*
X64322000Y-137450000D01*
X64322000Y-137850000D02*
X63202000Y-137850000D01*
X63202000Y-137850000D02*
X63202000Y-137450000D01*
X63202000Y-137450000D02*
X64322000Y-137450000D01*
X64322000Y-137450000D02*
X64322000Y-137850000D01*
X64452000Y-134620000D02*
X64322000Y-134620000D01*
X64322000Y-134620000D02*
X64322000Y-134620000D01*
X64322000Y-134620000D02*
X64452000Y-134620000D01*
X64452000Y-134620000D02*
X64452000Y-134620000D01*
X64452000Y-137160000D02*
X64322000Y-137160000D01*
X64322000Y-137160000D02*
X64322000Y-137160000D01*
X64322000Y-137160000D02*
X64452000Y-137160000D01*
X64452000Y-137160000D02*
X64452000Y-137160000D01*
X60462000Y-137450000D02*
G75*
G02X60462000Y-134330000I0J1560000D01*
G01*
%TO.C,D4*%
X64322000Y-124170000D02*
X60462000Y-124170000D01*
X64322000Y-127290000D02*
X60462000Y-127290000D01*
X64322000Y-124170000D02*
X64322000Y-127290000D01*
X64322000Y-127690000D02*
X63202000Y-127690000D01*
X63202000Y-127690000D02*
X63202000Y-127290000D01*
X63202000Y-127290000D02*
X64322000Y-127290000D01*
X64322000Y-127290000D02*
X64322000Y-127690000D01*
X64452000Y-124460000D02*
X64322000Y-124460000D01*
X64322000Y-124460000D02*
X64322000Y-124460000D01*
X64322000Y-124460000D02*
X64452000Y-124460000D01*
X64452000Y-124460000D02*
X64452000Y-124460000D01*
X64452000Y-127000000D02*
X64322000Y-127000000D01*
X64322000Y-127000000D02*
X64322000Y-127000000D01*
X64322000Y-127000000D02*
X64452000Y-127000000D01*
X64452000Y-127000000D02*
X64452000Y-127000000D01*
X60462000Y-127290000D02*
G75*
G02X60462000Y-124170000I0J1560000D01*
G01*
%TO.C,D2*%
X64322000Y-129250000D02*
X60462000Y-129250000D01*
X64322000Y-132370000D02*
X60462000Y-132370000D01*
X64322000Y-129250000D02*
X64322000Y-132370000D01*
X64322000Y-132770000D02*
X63202000Y-132770000D01*
X63202000Y-132770000D02*
X63202000Y-132370000D01*
X63202000Y-132370000D02*
X64322000Y-132370000D01*
X64322000Y-132370000D02*
X64322000Y-132770000D01*
X64452000Y-129540000D02*
X64322000Y-129540000D01*
X64322000Y-129540000D02*
X64322000Y-129540000D01*
X64322000Y-129540000D02*
X64452000Y-129540000D01*
X64452000Y-129540000D02*
X64452000Y-129540000D01*
X64452000Y-132080000D02*
X64322000Y-132080000D01*
X64322000Y-132080000D02*
X64322000Y-132080000D01*
X64322000Y-132080000D02*
X64452000Y-132080000D01*
X64452000Y-132080000D02*
X64452000Y-132080000D01*
X60462000Y-132370000D02*
G75*
G02X60462000Y-129250000I0J1560000D01*
G01*
%TO.C,D3*%
D13*
X73302904Y-111450380D02*
X73302904Y-110450380D01*
X73541000Y-110450380D01*
X73683857Y-110498000D01*
X73779095Y-110593238D01*
X73826714Y-110688476D01*
X73874333Y-110878952D01*
X73874333Y-111021809D01*
X73826714Y-111212285D01*
X73779095Y-111307523D01*
X73683857Y-111402761D01*
X73541000Y-111450380D01*
X73302904Y-111450380D01*
X74207666Y-110450380D02*
X74826714Y-110450380D01*
X74493380Y-110831333D01*
X74636238Y-110831333D01*
X74731476Y-110878952D01*
X74779095Y-110926571D01*
X74826714Y-111021809D01*
X74826714Y-111259904D01*
X74779095Y-111355142D01*
X74731476Y-111402761D01*
X74636238Y-111450380D01*
X74350523Y-111450380D01*
X74255285Y-111402761D01*
X74207666Y-111355142D01*
%TO.C,U4*%
X86868095Y-124547380D02*
X86868095Y-125356904D01*
X86915714Y-125452142D01*
X86963333Y-125499761D01*
X87058571Y-125547380D01*
X87249047Y-125547380D01*
X87344285Y-125499761D01*
X87391904Y-125452142D01*
X87439523Y-125356904D01*
X87439523Y-124547380D01*
X88344285Y-124880714D02*
X88344285Y-125547380D01*
X88106190Y-124499761D02*
X87868095Y-125214047D01*
X88487142Y-125214047D01*
%TO.C,U3*%
X78613095Y-136993380D02*
X78613095Y-137802904D01*
X78660714Y-137898142D01*
X78708333Y-137945761D01*
X78803571Y-137993380D01*
X78994047Y-137993380D01*
X79089285Y-137945761D01*
X79136904Y-137898142D01*
X79184523Y-137802904D01*
X79184523Y-136993380D01*
X79565476Y-136993380D02*
X80184523Y-136993380D01*
X79851190Y-137374333D01*
X79994047Y-137374333D01*
X80089285Y-137421952D01*
X80136904Y-137469571D01*
X80184523Y-137564809D01*
X80184523Y-137802904D01*
X80136904Y-137898142D01*
X80089285Y-137945761D01*
X79994047Y-137993380D01*
X79708333Y-137993380D01*
X79613095Y-137945761D01*
X79565476Y-137898142D01*
%TO.C,U2*%
X79883095Y-114133380D02*
X79883095Y-114942904D01*
X79930714Y-115038142D01*
X79978333Y-115085761D01*
X80073571Y-115133380D01*
X80264047Y-115133380D01*
X80359285Y-115085761D01*
X80406904Y-115038142D01*
X80454523Y-114942904D01*
X80454523Y-114133380D01*
X80883095Y-114228619D02*
X80930714Y-114181000D01*
X81025952Y-114133380D01*
X81264047Y-114133380D01*
X81359285Y-114181000D01*
X81406904Y-114228619D01*
X81454523Y-114323857D01*
X81454523Y-114419095D01*
X81406904Y-114561952D01*
X80835476Y-115133380D01*
X81454523Y-115133380D01*
%TO.C,U1*%
X87503095Y-116419380D02*
X87503095Y-117228904D01*
X87550714Y-117324142D01*
X87598333Y-117371761D01*
X87693571Y-117419380D01*
X87884047Y-117419380D01*
X87979285Y-117371761D01*
X88026904Y-117324142D01*
X88074523Y-117228904D01*
X88074523Y-116419380D01*
X89074523Y-117419380D02*
X88503095Y-117419380D01*
X88788809Y-117419380D02*
X88788809Y-116419380D01*
X88693571Y-116562238D01*
X88598333Y-116657476D01*
X88503095Y-116705095D01*
%TO.C,Q1*%
X75342761Y-125515619D02*
X75247523Y-125468000D01*
X75152285Y-125372761D01*
X75009428Y-125229904D01*
X74914190Y-125182285D01*
X74818952Y-125182285D01*
X74866571Y-125420380D02*
X74771333Y-125372761D01*
X74676095Y-125277523D01*
X74628476Y-125087047D01*
X74628476Y-124753714D01*
X74676095Y-124563238D01*
X74771333Y-124468000D01*
X74866571Y-124420380D01*
X75057047Y-124420380D01*
X75152285Y-124468000D01*
X75247523Y-124563238D01*
X75295142Y-124753714D01*
X75295142Y-125087047D01*
X75247523Y-125277523D01*
X75152285Y-125372761D01*
X75057047Y-125420380D01*
X74866571Y-125420380D01*
X76247523Y-125420380D02*
X75676095Y-125420380D01*
X75961809Y-125420380D02*
X75961809Y-124420380D01*
X75866571Y-124563238D01*
X75771333Y-124658476D01*
X75676095Y-124706095D01*
%TO.C,D7*%
X89050904Y-128214380D02*
X89050904Y-127214380D01*
X89289000Y-127214380D01*
X89431857Y-127262000D01*
X89527095Y-127357238D01*
X89574714Y-127452476D01*
X89622333Y-127642952D01*
X89622333Y-127785809D01*
X89574714Y-127976285D01*
X89527095Y-128071523D01*
X89431857Y-128166761D01*
X89289000Y-128214380D01*
X89050904Y-128214380D01*
X89955666Y-127214380D02*
X90622333Y-127214380D01*
X90193761Y-128214380D01*
%TO.C,D1*%
X74191904Y-118689380D02*
X74191904Y-117689380D01*
X74430000Y-117689380D01*
X74572857Y-117737000D01*
X74668095Y-117832238D01*
X74715714Y-117927476D01*
X74763333Y-118117952D01*
X74763333Y-118260809D01*
X74715714Y-118451285D01*
X74668095Y-118546523D01*
X74572857Y-118641761D01*
X74430000Y-118689380D01*
X74191904Y-118689380D01*
X75715714Y-118689380D02*
X75144285Y-118689380D01*
X75430000Y-118689380D02*
X75430000Y-117689380D01*
X75334761Y-117832238D01*
X75239523Y-117927476D01*
X75144285Y-117975095D01*
%TO.C,R19*%
X69461142Y-120594380D02*
X69127809Y-120118190D01*
X68889714Y-120594380D02*
X68889714Y-119594380D01*
X69270666Y-119594380D01*
X69365904Y-119642000D01*
X69413523Y-119689619D01*
X69461142Y-119784857D01*
X69461142Y-119927714D01*
X69413523Y-120022952D01*
X69365904Y-120070571D01*
X69270666Y-120118190D01*
X68889714Y-120118190D01*
X70413523Y-120594380D02*
X69842095Y-120594380D01*
X70127809Y-120594380D02*
X70127809Y-119594380D01*
X70032571Y-119737238D01*
X69937333Y-119832476D01*
X69842095Y-119880095D01*
X70889714Y-120594380D02*
X71080190Y-120594380D01*
X71175428Y-120546761D01*
X71223047Y-120499142D01*
X71318285Y-120356285D01*
X71365904Y-120165809D01*
X71365904Y-119784857D01*
X71318285Y-119689619D01*
X71270666Y-119642000D01*
X71175428Y-119594380D01*
X70984952Y-119594380D01*
X70889714Y-119642000D01*
X70842095Y-119689619D01*
X70794476Y-119784857D01*
X70794476Y-120022952D01*
X70842095Y-120118190D01*
X70889714Y-120165809D01*
X70984952Y-120213428D01*
X71175428Y-120213428D01*
X71270666Y-120165809D01*
X71318285Y-120118190D01*
X71365904Y-120022952D01*
%TO.C,R17*%
X69842142Y-135961380D02*
X69508809Y-135485190D01*
X69270714Y-135961380D02*
X69270714Y-134961380D01*
X69651666Y-134961380D01*
X69746904Y-135009000D01*
X69794523Y-135056619D01*
X69842142Y-135151857D01*
X69842142Y-135294714D01*
X69794523Y-135389952D01*
X69746904Y-135437571D01*
X69651666Y-135485190D01*
X69270714Y-135485190D01*
X70794523Y-135961380D02*
X70223095Y-135961380D01*
X70508809Y-135961380D02*
X70508809Y-134961380D01*
X70413571Y-135104238D01*
X70318333Y-135199476D01*
X70223095Y-135247095D01*
X71127857Y-134961380D02*
X71794523Y-134961380D01*
X71365952Y-135961380D01*
%TO.C,R16*%
X69588142Y-125674380D02*
X69254809Y-125198190D01*
X69016714Y-125674380D02*
X69016714Y-124674380D01*
X69397666Y-124674380D01*
X69492904Y-124722000D01*
X69540523Y-124769619D01*
X69588142Y-124864857D01*
X69588142Y-125007714D01*
X69540523Y-125102952D01*
X69492904Y-125150571D01*
X69397666Y-125198190D01*
X69016714Y-125198190D01*
X70540523Y-125674380D02*
X69969095Y-125674380D01*
X70254809Y-125674380D02*
X70254809Y-124674380D01*
X70159571Y-124817238D01*
X70064333Y-124912476D01*
X69969095Y-124960095D01*
X71397666Y-124674380D02*
X71207190Y-124674380D01*
X71111952Y-124722000D01*
X71064333Y-124769619D01*
X70969095Y-124912476D01*
X70921476Y-125102952D01*
X70921476Y-125483904D01*
X70969095Y-125579142D01*
X71016714Y-125626761D01*
X71111952Y-125674380D01*
X71302428Y-125674380D01*
X71397666Y-125626761D01*
X71445285Y-125579142D01*
X71492904Y-125483904D01*
X71492904Y-125245809D01*
X71445285Y-125150571D01*
X71397666Y-125102952D01*
X71302428Y-125055333D01*
X71111952Y-125055333D01*
X71016714Y-125102952D01*
X70969095Y-125150571D01*
X70921476Y-125245809D01*
%TO.C,R15*%
X76192142Y-92612380D02*
X75858809Y-92136190D01*
X75620714Y-92612380D02*
X75620714Y-91612380D01*
X76001666Y-91612380D01*
X76096904Y-91660000D01*
X76144523Y-91707619D01*
X76192142Y-91802857D01*
X76192142Y-91945714D01*
X76144523Y-92040952D01*
X76096904Y-92088571D01*
X76001666Y-92136190D01*
X75620714Y-92136190D01*
X77144523Y-92612380D02*
X76573095Y-92612380D01*
X76858809Y-92612380D02*
X76858809Y-91612380D01*
X76763571Y-91755238D01*
X76668333Y-91850476D01*
X76573095Y-91898095D01*
X78049285Y-91612380D02*
X77573095Y-91612380D01*
X77525476Y-92088571D01*
X77573095Y-92040952D01*
X77668333Y-91993333D01*
X77906428Y-91993333D01*
X78001666Y-92040952D01*
X78049285Y-92088571D01*
X78096904Y-92183809D01*
X78096904Y-92421904D01*
X78049285Y-92517142D01*
X78001666Y-92564761D01*
X77906428Y-92612380D01*
X77668333Y-92612380D01*
X77573095Y-92564761D01*
X77525476Y-92517142D01*
%TO.C,R14*%
X82669142Y-104084380D02*
X82335809Y-103608190D01*
X82097714Y-104084380D02*
X82097714Y-103084380D01*
X82478666Y-103084380D01*
X82573904Y-103132000D01*
X82621523Y-103179619D01*
X82669142Y-103274857D01*
X82669142Y-103417714D01*
X82621523Y-103512952D01*
X82573904Y-103560571D01*
X82478666Y-103608190D01*
X82097714Y-103608190D01*
X83621523Y-104084380D02*
X83050095Y-104084380D01*
X83335809Y-104084380D02*
X83335809Y-103084380D01*
X83240571Y-103227238D01*
X83145333Y-103322476D01*
X83050095Y-103370095D01*
X84478666Y-103417714D02*
X84478666Y-104084380D01*
X84240571Y-103036761D02*
X84002476Y-103751047D01*
X84621523Y-103751047D01*
%TO.C,R13*%
X88892142Y-92612380D02*
X88558809Y-92136190D01*
X88320714Y-92612380D02*
X88320714Y-91612380D01*
X88701666Y-91612380D01*
X88796904Y-91660000D01*
X88844523Y-91707619D01*
X88892142Y-91802857D01*
X88892142Y-91945714D01*
X88844523Y-92040952D01*
X88796904Y-92088571D01*
X88701666Y-92136190D01*
X88320714Y-92136190D01*
X89844523Y-92612380D02*
X89273095Y-92612380D01*
X89558809Y-92612380D02*
X89558809Y-91612380D01*
X89463571Y-91755238D01*
X89368333Y-91850476D01*
X89273095Y-91898095D01*
X90177857Y-91612380D02*
X90796904Y-91612380D01*
X90463571Y-91993333D01*
X90606428Y-91993333D01*
X90701666Y-92040952D01*
X90749285Y-92088571D01*
X90796904Y-92183809D01*
X90796904Y-92421904D01*
X90749285Y-92517142D01*
X90701666Y-92564761D01*
X90606428Y-92612380D01*
X90320714Y-92612380D01*
X90225476Y-92564761D01*
X90177857Y-92517142D01*
%TO.C,R11*%
X88892142Y-96422380D02*
X88558809Y-95946190D01*
X88320714Y-96422380D02*
X88320714Y-95422380D01*
X88701666Y-95422380D01*
X88796904Y-95470000D01*
X88844523Y-95517619D01*
X88892142Y-95612857D01*
X88892142Y-95755714D01*
X88844523Y-95850952D01*
X88796904Y-95898571D01*
X88701666Y-95946190D01*
X88320714Y-95946190D01*
X89844523Y-96422380D02*
X89273095Y-96422380D01*
X89558809Y-96422380D02*
X89558809Y-95422380D01*
X89463571Y-95565238D01*
X89368333Y-95660476D01*
X89273095Y-95708095D01*
X90796904Y-96422380D02*
X90225476Y-96422380D01*
X90511190Y-96422380D02*
X90511190Y-95422380D01*
X90415952Y-95565238D01*
X90320714Y-95660476D01*
X90225476Y-95708095D01*
%TO.C,R10*%
X82542142Y-100147380D02*
X82208809Y-99671190D01*
X81970714Y-100147380D02*
X81970714Y-99147380D01*
X82351666Y-99147380D01*
X82446904Y-99195000D01*
X82494523Y-99242619D01*
X82542142Y-99337857D01*
X82542142Y-99480714D01*
X82494523Y-99575952D01*
X82446904Y-99623571D01*
X82351666Y-99671190D01*
X81970714Y-99671190D01*
X83494523Y-100147380D02*
X82923095Y-100147380D01*
X83208809Y-100147380D02*
X83208809Y-99147380D01*
X83113571Y-99290238D01*
X83018333Y-99385476D01*
X82923095Y-99433095D01*
X84113571Y-99147380D02*
X84208809Y-99147380D01*
X84304047Y-99195000D01*
X84351666Y-99242619D01*
X84399285Y-99337857D01*
X84446904Y-99528333D01*
X84446904Y-99766428D01*
X84399285Y-99956904D01*
X84351666Y-100052142D01*
X84304047Y-100099761D01*
X84208809Y-100147380D01*
X84113571Y-100147380D01*
X84018333Y-100099761D01*
X83970714Y-100052142D01*
X83923095Y-99956904D01*
X83875476Y-99766428D01*
X83875476Y-99528333D01*
X83923095Y-99337857D01*
X83970714Y-99242619D01*
X84018333Y-99195000D01*
X84113571Y-99147380D01*
%TO.C,R9*%
X83018333Y-92612380D02*
X82685000Y-92136190D01*
X82446904Y-92612380D02*
X82446904Y-91612380D01*
X82827857Y-91612380D01*
X82923095Y-91660000D01*
X82970714Y-91707619D01*
X83018333Y-91802857D01*
X83018333Y-91945714D01*
X82970714Y-92040952D01*
X82923095Y-92088571D01*
X82827857Y-92136190D01*
X82446904Y-92136190D01*
X83494523Y-92612380D02*
X83685000Y-92612380D01*
X83780238Y-92564761D01*
X83827857Y-92517142D01*
X83923095Y-92374285D01*
X83970714Y-92183809D01*
X83970714Y-91802857D01*
X83923095Y-91707619D01*
X83875476Y-91660000D01*
X83780238Y-91612380D01*
X83589761Y-91612380D01*
X83494523Y-91660000D01*
X83446904Y-91707619D01*
X83399285Y-91802857D01*
X83399285Y-92040952D01*
X83446904Y-92136190D01*
X83494523Y-92183809D01*
X83589761Y-92231428D01*
X83780238Y-92231428D01*
X83875476Y-92183809D01*
X83923095Y-92136190D01*
X83970714Y-92040952D01*
%TO.C,R7*%
X83018333Y-96464380D02*
X82685000Y-95988190D01*
X82446904Y-96464380D02*
X82446904Y-95464380D01*
X82827857Y-95464380D01*
X82923095Y-95512000D01*
X82970714Y-95559619D01*
X83018333Y-95654857D01*
X83018333Y-95797714D01*
X82970714Y-95892952D01*
X82923095Y-95940571D01*
X82827857Y-95988190D01*
X82446904Y-95988190D01*
X83351666Y-95464380D02*
X84018333Y-95464380D01*
X83589761Y-96464380D01*
%TO.C,R6*%
X70572333Y-130754380D02*
X70239000Y-130278190D01*
X70000904Y-130754380D02*
X70000904Y-129754380D01*
X70381857Y-129754380D01*
X70477095Y-129802000D01*
X70524714Y-129849619D01*
X70572333Y-129944857D01*
X70572333Y-130087714D01*
X70524714Y-130182952D01*
X70477095Y-130230571D01*
X70381857Y-130278190D01*
X70000904Y-130278190D01*
X71429476Y-129754380D02*
X71239000Y-129754380D01*
X71143761Y-129802000D01*
X71096142Y-129849619D01*
X71000904Y-129992476D01*
X70953285Y-130182952D01*
X70953285Y-130563904D01*
X71000904Y-130659142D01*
X71048523Y-130706761D01*
X71143761Y-130754380D01*
X71334238Y-130754380D01*
X71429476Y-130706761D01*
X71477095Y-130659142D01*
X71524714Y-130563904D01*
X71524714Y-130325809D01*
X71477095Y-130230571D01*
X71429476Y-130182952D01*
X71334238Y-130135333D01*
X71143761Y-130135333D01*
X71048523Y-130182952D01*
X71000904Y-130230571D01*
X70953285Y-130325809D01*
%TO.C,R4*%
X89368333Y-103957380D02*
X89035000Y-103481190D01*
X88796904Y-103957380D02*
X88796904Y-102957380D01*
X89177857Y-102957380D01*
X89273095Y-103005000D01*
X89320714Y-103052619D01*
X89368333Y-103147857D01*
X89368333Y-103290714D01*
X89320714Y-103385952D01*
X89273095Y-103433571D01*
X89177857Y-103481190D01*
X88796904Y-103481190D01*
X90225476Y-103290714D02*
X90225476Y-103957380D01*
X89987380Y-102909761D02*
X89749285Y-103624047D01*
X90368333Y-103624047D01*
%TO.C,R3*%
X89368333Y-100232380D02*
X89035000Y-99756190D01*
X88796904Y-100232380D02*
X88796904Y-99232380D01*
X89177857Y-99232380D01*
X89273095Y-99280000D01*
X89320714Y-99327619D01*
X89368333Y-99422857D01*
X89368333Y-99565714D01*
X89320714Y-99660952D01*
X89273095Y-99708571D01*
X89177857Y-99756190D01*
X88796904Y-99756190D01*
X89701666Y-99232380D02*
X90320714Y-99232380D01*
X89987380Y-99613333D01*
X90130238Y-99613333D01*
X90225476Y-99660952D01*
X90273095Y-99708571D01*
X90320714Y-99803809D01*
X90320714Y-100041904D01*
X90273095Y-100137142D01*
X90225476Y-100184761D01*
X90130238Y-100232380D01*
X89844523Y-100232380D01*
X89749285Y-100184761D01*
X89701666Y-100137142D01*
%TO.C,R1*%
X76668333Y-96464380D02*
X76335000Y-95988190D01*
X76096904Y-96464380D02*
X76096904Y-95464380D01*
X76477857Y-95464380D01*
X76573095Y-95512000D01*
X76620714Y-95559619D01*
X76668333Y-95654857D01*
X76668333Y-95797714D01*
X76620714Y-95892952D01*
X76573095Y-95940571D01*
X76477857Y-95988190D01*
X76096904Y-95988190D01*
X77620714Y-96464380D02*
X77049285Y-96464380D01*
X77335000Y-96464380D02*
X77335000Y-95464380D01*
X77239761Y-95607238D01*
X77144523Y-95702476D01*
X77049285Y-95750095D01*
%TO.C,C6*%
X78573333Y-127865142D02*
X78525714Y-127912761D01*
X78382857Y-127960380D01*
X78287619Y-127960380D01*
X78144761Y-127912761D01*
X78049523Y-127817523D01*
X78001904Y-127722285D01*
X77954285Y-127531809D01*
X77954285Y-127388952D01*
X78001904Y-127198476D01*
X78049523Y-127103238D01*
X78144761Y-127008000D01*
X78287619Y-126960380D01*
X78382857Y-126960380D01*
X78525714Y-127008000D01*
X78573333Y-127055619D01*
X79430476Y-126960380D02*
X79240000Y-126960380D01*
X79144761Y-127008000D01*
X79097142Y-127055619D01*
X79001904Y-127198476D01*
X78954285Y-127388952D01*
X78954285Y-127769904D01*
X79001904Y-127865142D01*
X79049523Y-127912761D01*
X79144761Y-127960380D01*
X79335238Y-127960380D01*
X79430476Y-127912761D01*
X79478095Y-127865142D01*
X79525714Y-127769904D01*
X79525714Y-127531809D01*
X79478095Y-127436571D01*
X79430476Y-127388952D01*
X79335238Y-127341333D01*
X79144761Y-127341333D01*
X79049523Y-127388952D01*
X79001904Y-127436571D01*
X78954285Y-127531809D01*
%TO.C,C1*%
X84542333Y-127865142D02*
X84494714Y-127912761D01*
X84351857Y-127960380D01*
X84256619Y-127960380D01*
X84113761Y-127912761D01*
X84018523Y-127817523D01*
X83970904Y-127722285D01*
X83923285Y-127531809D01*
X83923285Y-127388952D01*
X83970904Y-127198476D01*
X84018523Y-127103238D01*
X84113761Y-127008000D01*
X84256619Y-126960380D01*
X84351857Y-126960380D01*
X84494714Y-127008000D01*
X84542333Y-127055619D01*
X85494714Y-127960380D02*
X84923285Y-127960380D01*
X85209000Y-127960380D02*
X85209000Y-126960380D01*
X85113761Y-127103238D01*
X85018523Y-127198476D01*
X84923285Y-127246095D01*
%TO.C,D6*%
X67889380Y-120118095D02*
X66889380Y-120118095D01*
X66889380Y-119880000D01*
X66937000Y-119737142D01*
X67032238Y-119641904D01*
X67127476Y-119594285D01*
X67317952Y-119546666D01*
X67460809Y-119546666D01*
X67651285Y-119594285D01*
X67746523Y-119641904D01*
X67841761Y-119737142D01*
X67889380Y-119880000D01*
X67889380Y-120118095D01*
X66889380Y-118689523D02*
X66889380Y-118880000D01*
X66937000Y-118975238D01*
X66984619Y-119022857D01*
X67127476Y-119118095D01*
X67317952Y-119165714D01*
X67698904Y-119165714D01*
X67794142Y-119118095D01*
X67841761Y-119070476D01*
X67889380Y-118975238D01*
X67889380Y-118784761D01*
X67841761Y-118689523D01*
X67794142Y-118641904D01*
X67698904Y-118594285D01*
X67460809Y-118594285D01*
X67365571Y-118641904D01*
X67317952Y-118689523D01*
X67270333Y-118784761D01*
X67270333Y-118975238D01*
X67317952Y-119070476D01*
X67365571Y-119118095D01*
X67460809Y-119165714D01*
%TO.C,D5*%
X67889380Y-135358095D02*
X66889380Y-135358095D01*
X66889380Y-135120000D01*
X66937000Y-134977142D01*
X67032238Y-134881904D01*
X67127476Y-134834285D01*
X67317952Y-134786666D01*
X67460809Y-134786666D01*
X67651285Y-134834285D01*
X67746523Y-134881904D01*
X67841761Y-134977142D01*
X67889380Y-135120000D01*
X67889380Y-135358095D01*
X66889380Y-133881904D02*
X66889380Y-134358095D01*
X67365571Y-134405714D01*
X67317952Y-134358095D01*
X67270333Y-134262857D01*
X67270333Y-134024761D01*
X67317952Y-133929523D01*
X67365571Y-133881904D01*
X67460809Y-133834285D01*
X67698904Y-133834285D01*
X67794142Y-133881904D01*
X67841761Y-133929523D01*
X67889380Y-134024761D01*
X67889380Y-134262857D01*
X67841761Y-134358095D01*
X67794142Y-134405714D01*
%TO.C,D4*%
X67889380Y-125198095D02*
X66889380Y-125198095D01*
X66889380Y-124960000D01*
X66937000Y-124817142D01*
X67032238Y-124721904D01*
X67127476Y-124674285D01*
X67317952Y-124626666D01*
X67460809Y-124626666D01*
X67651285Y-124674285D01*
X67746523Y-124721904D01*
X67841761Y-124817142D01*
X67889380Y-124960000D01*
X67889380Y-125198095D01*
X67222714Y-123769523D02*
X67889380Y-123769523D01*
X66841761Y-124007619D02*
X67556047Y-124245714D01*
X67556047Y-123626666D01*
%TO.C,D2*%
X67889380Y-130278095D02*
X66889380Y-130278095D01*
X66889380Y-130040000D01*
X66937000Y-129897142D01*
X67032238Y-129801904D01*
X67127476Y-129754285D01*
X67317952Y-129706666D01*
X67460809Y-129706666D01*
X67651285Y-129754285D01*
X67746523Y-129801904D01*
X67841761Y-129897142D01*
X67889380Y-130040000D01*
X67889380Y-130278095D01*
X66984619Y-129325714D02*
X66937000Y-129278095D01*
X66889380Y-129182857D01*
X66889380Y-128944761D01*
X66937000Y-128849523D01*
X66984619Y-128801904D01*
X67079857Y-128754285D01*
X67175095Y-128754285D01*
X67317952Y-128801904D01*
X67889380Y-129373333D01*
X67889380Y-128754285D01*
%TD*%
M02*
