%TF.GenerationSoftware,KiCad,Pcbnew,5.1.5+dfsg1-2build2*%
%TF.CreationDate,2021-11-04T20:17:12+01:00*%
%TF.ProjectId,ebus-adapter,65627573-2d61-4646-9170-7465722e6b69,rev?*%
%TF.SameCoordinates,Original*%
%TF.FileFunction,Legend,Bot*%
%TF.FilePolarity,Positive*%
%FSLAX46Y46*%
G04 Gerber Fmt 4.6, Leading zero omitted, Abs format (unit mm)*
G04 Created by KiCad (PCBNEW 5.1.5+dfsg1-2build2) date 2021-11-04 20:17:12*
%MOMM*%
%LPD*%
G04 APERTURE LIST*
%ADD10C,0.400000*%
%ADD11C,0.200000*%
%ADD12C,0.150000*%
%ADD13C,0.120000*%
G04 APERTURE END LIST*
D10*
X83851095Y-136874047D02*
X84232047Y-137064523D01*
X84993952Y-137064523D01*
X85374904Y-136874047D01*
X85565380Y-136493095D01*
X85565380Y-134969285D01*
X85374904Y-134588333D01*
X84993952Y-134397857D01*
X84232047Y-134397857D01*
X83851095Y-134588333D01*
X83660619Y-134969285D01*
X83660619Y-135350238D01*
X85565380Y-135731190D01*
X80613000Y-134969285D02*
X80041571Y-135159761D01*
X79851095Y-135350238D01*
X79660619Y-135731190D01*
X79660619Y-136302619D01*
X79851095Y-136683571D01*
X80041571Y-136874047D01*
X80422523Y-137064523D01*
X81946333Y-137064523D01*
X81946333Y-133064523D01*
X80613000Y-133064523D01*
X80232047Y-133255000D01*
X80041571Y-133445476D01*
X79851095Y-133826428D01*
X79851095Y-134207380D01*
X80041571Y-134588333D01*
X80232047Y-134778809D01*
X80613000Y-134969285D01*
X81946333Y-134969285D01*
X77946333Y-133064523D02*
X77946333Y-136302619D01*
X77755857Y-136683571D01*
X77565380Y-136874047D01*
X77184428Y-137064523D01*
X76422523Y-137064523D01*
X76041571Y-136874047D01*
X75851095Y-136683571D01*
X75660619Y-136302619D01*
X75660619Y-133064523D01*
X73946333Y-136874047D02*
X73374904Y-137064523D01*
X72422523Y-137064523D01*
X72041571Y-136874047D01*
X71851095Y-136683571D01*
X71660619Y-136302619D01*
X71660619Y-135921666D01*
X71851095Y-135540714D01*
X72041571Y-135350238D01*
X72422523Y-135159761D01*
X73184428Y-134969285D01*
X73565380Y-134778809D01*
X73755857Y-134588333D01*
X73946333Y-134207380D01*
X73946333Y-133826428D01*
X73755857Y-133445476D01*
X73565380Y-133255000D01*
X73184428Y-133064523D01*
X72232047Y-133064523D01*
X71660619Y-133255000D01*
D11*
X85077285Y-139164142D02*
X84934428Y-139235571D01*
X84648714Y-139235571D01*
X84505857Y-139164142D01*
X84434428Y-139021285D01*
X84434428Y-138949857D01*
X84505857Y-138807000D01*
X84648714Y-138735571D01*
X84863000Y-138735571D01*
X85005857Y-138664142D01*
X85077285Y-138521285D01*
X85077285Y-138449857D01*
X85005857Y-138307000D01*
X84863000Y-138235571D01*
X84648714Y-138235571D01*
X84505857Y-138307000D01*
X83791571Y-139235571D02*
X83791571Y-138235571D01*
X83791571Y-138378428D02*
X83720142Y-138307000D01*
X83577285Y-138235571D01*
X83363000Y-138235571D01*
X83220142Y-138307000D01*
X83148714Y-138449857D01*
X83148714Y-139235571D01*
X83148714Y-138449857D02*
X83077285Y-138307000D01*
X82934428Y-138235571D01*
X82720142Y-138235571D01*
X82577285Y-138307000D01*
X82505857Y-138449857D01*
X82505857Y-139235571D01*
X81148714Y-139235571D02*
X81148714Y-138449857D01*
X81220142Y-138307000D01*
X81363000Y-138235571D01*
X81648714Y-138235571D01*
X81791571Y-138307000D01*
X81148714Y-139164142D02*
X81291571Y-139235571D01*
X81648714Y-139235571D01*
X81791571Y-139164142D01*
X81863000Y-139021285D01*
X81863000Y-138878428D01*
X81791571Y-138735571D01*
X81648714Y-138664142D01*
X81291571Y-138664142D01*
X81148714Y-138592714D01*
X80434428Y-139235571D02*
X80434428Y-138235571D01*
X80434428Y-138521285D02*
X80363000Y-138378428D01*
X80291571Y-138307000D01*
X80148714Y-138235571D01*
X80005857Y-138235571D01*
X79720142Y-138235571D02*
X79148714Y-138235571D01*
X79505857Y-137735571D02*
X79505857Y-139021285D01*
X79434428Y-139164142D01*
X79291571Y-139235571D01*
X79148714Y-139235571D01*
X77505857Y-139235571D02*
X77505857Y-137735571D01*
X76863000Y-139235571D02*
X76863000Y-138449857D01*
X76934428Y-138307000D01*
X77077285Y-138235571D01*
X77291571Y-138235571D01*
X77434428Y-138307000D01*
X77505857Y-138378428D01*
X75934428Y-139235571D02*
X76077285Y-139164142D01*
X76148714Y-139092714D01*
X76220142Y-138949857D01*
X76220142Y-138521285D01*
X76148714Y-138378428D01*
X76077285Y-138307000D01*
X75934428Y-138235571D01*
X75720142Y-138235571D01*
X75577285Y-138307000D01*
X75505857Y-138378428D01*
X75434428Y-138521285D01*
X75434428Y-138949857D01*
X75505857Y-139092714D01*
X75577285Y-139164142D01*
X75720142Y-139235571D01*
X75934428Y-139235571D01*
X74791571Y-139235571D02*
X74791571Y-138235571D01*
X74791571Y-138378428D02*
X74720142Y-138307000D01*
X74577285Y-138235571D01*
X74363000Y-138235571D01*
X74220142Y-138307000D01*
X74148714Y-138449857D01*
X74148714Y-139235571D01*
X74148714Y-138449857D02*
X74077285Y-138307000D01*
X73934428Y-138235571D01*
X73720142Y-138235571D01*
X73577285Y-138307000D01*
X73505857Y-138449857D01*
X73505857Y-139235571D01*
X72220142Y-139164142D02*
X72363000Y-139235571D01*
X72648714Y-139235571D01*
X72791571Y-139164142D01*
X72863000Y-139021285D01*
X72863000Y-138449857D01*
X72791571Y-138307000D01*
X72648714Y-138235571D01*
X72363000Y-138235571D01*
X72220142Y-138307000D01*
X72148714Y-138449857D01*
X72148714Y-138592714D01*
X72863000Y-138735571D01*
D12*
X67500285Y-105592571D02*
X67166952Y-105592571D01*
X67024095Y-106116380D02*
X67500285Y-106116380D01*
X67500285Y-105116380D01*
X67024095Y-105116380D01*
X66262190Y-105592571D02*
X66119333Y-105640190D01*
X66071714Y-105687809D01*
X66024095Y-105783047D01*
X66024095Y-105925904D01*
X66071714Y-106021142D01*
X66119333Y-106068761D01*
X66214571Y-106116380D01*
X66595523Y-106116380D01*
X66595523Y-105116380D01*
X66262190Y-105116380D01*
X66166952Y-105164000D01*
X66119333Y-105211619D01*
X66071714Y-105306857D01*
X66071714Y-105402095D01*
X66119333Y-105497333D01*
X66166952Y-105544952D01*
X66262190Y-105592571D01*
X66595523Y-105592571D01*
X65595523Y-105116380D02*
X65595523Y-105925904D01*
X65547904Y-106021142D01*
X65500285Y-106068761D01*
X65405047Y-106116380D01*
X65214571Y-106116380D01*
X65119333Y-106068761D01*
X65071714Y-106021142D01*
X65024095Y-105925904D01*
X65024095Y-105116380D01*
X64595523Y-106068761D02*
X64452666Y-106116380D01*
X64214571Y-106116380D01*
X64119333Y-106068761D01*
X64071714Y-106021142D01*
X64024095Y-105925904D01*
X64024095Y-105830666D01*
X64071714Y-105735428D01*
X64119333Y-105687809D01*
X64214571Y-105640190D01*
X64405047Y-105592571D01*
X64500285Y-105544952D01*
X64547904Y-105497333D01*
X64595523Y-105402095D01*
X64595523Y-105306857D01*
X64547904Y-105211619D01*
X64500285Y-105164000D01*
X64405047Y-105116380D01*
X64166952Y-105116380D01*
X64024095Y-105164000D01*
D13*
%TO.C,J1*%
X67087000Y-112593000D02*
G75*
G03X67087000Y-112593000I-1555000J0D01*
G01*
X67632000Y-106933000D02*
X67632000Y-114753000D01*
X62072000Y-106933000D02*
X62072000Y-114753000D01*
X69192000Y-106933000D02*
X69192000Y-114753000D01*
X62072000Y-106933000D02*
X69192000Y-106933000D01*
X62072000Y-114753000D02*
X69192000Y-114753000D01*
X67692000Y-106693000D02*
X69432000Y-106693000D01*
X69432000Y-106693000D02*
X69432000Y-108193000D01*
X67087492Y-109120011D02*
G75*
G03X66964000Y-108485000I-1555492J27011D01*
G01*
X66139742Y-107660891D02*
G75*
G03X64924000Y-107661000I-607742J-1432109D01*
G01*
X64099891Y-108485258D02*
G75*
G03X64100000Y-109701000I1432109J-607742D01*
G01*
X64924258Y-110525109D02*
G75*
G03X66140000Y-110525000I607742J1432109D01*
G01*
X66963385Y-109700587D02*
G75*
G03X67087000Y-109093000I-1431385J607587D01*
G01*
%TD*%
M02*
