M48
; DRILL file {KiCad 5.1.5+dfsg1-2build2} date Thu 04 Nov 2021 20:27:09 CET
; FORMAT={-:-/ absolute / inch / decimal}
; #@! TF.CreationDate,2021-11-04T20:27:09+01:00
; #@! TF.GenerationSoftware,Kicad,Pcbnew,5.1.5+dfsg1-2build2
FMAT,2
INCH
T1C0.0157
T2C0.0256
T3C0.0354
T4C0.0394
T5C0.0472
T6C0.1260
%
G90
G05
T1
X2.807Y-4.4784
X2.865Y-4.18
X2.8967Y-3.44
X2.91Y-3.85
X2.93Y-4.33
X2.945Y-4.78
X2.9685Y-3.79
X2.9948Y-4.6452
X3.005Y-4.855
X3.0215Y-3.8215
X3.025Y-3.9282
X3.0287Y-3.6063
X3.045Y-4.51
X3.06Y-4.99
X3.07Y-3.6065
X3.095Y-4.83
X3.105Y-4.46
X3.1101Y-3.606
X3.1219Y-4.235
X3.15Y-3.6065
X3.17Y-3.8215
X3.175Y-4.665
X3.185Y-4.51
X3.19Y-3.765
X3.1901Y-3.6034
X3.2312Y-3.6027
X3.245Y-4.705
X3.285Y-4.32
X3.2858Y-4.095
X3.31Y-3.6065
X3.3494Y-3.6065
X3.35Y-3.7758
X3.375Y-4.22
X3.375Y-4.38
X3.385Y-3.85
X3.3887Y-3.6065
X3.39Y-3.695
X3.4193Y-4.0665
X3.4195Y-4.1945
X3.4281Y-3.6065
X3.46Y-3.935
X3.46Y-4.615
X3.4675Y-3.6065
X3.485Y-5.05
X3.49Y-4.885
X3.5Y-4.49
X3.5358Y-4.145
X3.5929Y-4.705
X3.6244Y-4.535
X3.6244Y-4.795
T2
X2.94Y-3.385
X2.94Y-3.435
X2.99Y-3.385
X2.99Y-3.435
X3.04Y-3.385
X3.04Y-3.435
X3.09Y-3.385
X3.09Y-3.435
X3.14Y-3.385
X3.14Y-3.435
X3.19Y-3.385
X3.19Y-3.435
X3.24Y-3.385
X3.24Y-3.435
T3
X2.58Y-4.7
X2.58Y-4.8
X2.58Y-4.9
X2.58Y-5.0
X2.58Y-5.3
X2.58Y-5.4
X2.58Y-5.1
X2.58Y-5.2
T4
X2.58Y-3.605
X2.58Y-3.705
X2.58Y-3.805
X2.58Y-3.905
X2.58Y-4.005
X2.68Y-3.605
X2.68Y-3.705
X2.68Y-3.805
X2.68Y-3.905
X2.68Y-4.005
T5
X2.58Y-4.295
X2.58Y-4.4328
T6
X3.53Y-3.415
X2.635Y-3.415
X3.53Y-5.695
X2.635Y-5.695
T0
M30
