%TF.GenerationSoftware,KiCad,Pcbnew,5.1.5+dfsg1-2build2*%
%TF.CreationDate,2021-11-04T20:17:57+01:00*%
%TF.ProjectId,ebus-esp,65627573-2d65-4737-902e-6b696361645f,rev?*%
%TF.SameCoordinates,Original*%
%TF.FileFunction,Legend,Bot*%
%TF.FilePolarity,Positive*%
%FSLAX46Y46*%
G04 Gerber Fmt 4.6, Leading zero omitted, Abs format (unit mm)*
G04 Created by KiCad (PCBNEW 5.1.5+dfsg1-2build2) date 2021-11-04 20:17:57*
%MOMM*%
%LPD*%
G04 APERTURE LIST*
%ADD10C,0.125000*%
%ADD11C,0.150000*%
%ADD12C,0.200000*%
%ADD13C,0.400000*%
%ADD14C,0.120000*%
%ADD15C,0.127000*%
G04 APERTURE END LIST*
D10*
X101627809Y-125341000D02*
X102127809Y-125341000D01*
X102127809Y-125007666D02*
X102127809Y-124912428D01*
X102104000Y-124864809D01*
X102056380Y-124817190D01*
X101961142Y-124793380D01*
X101794476Y-124793380D01*
X101699238Y-124817190D01*
X101651619Y-124864809D01*
X101627809Y-124912428D01*
X101627809Y-125007666D01*
X101651619Y-125055285D01*
X101699238Y-125102904D01*
X101794476Y-125126714D01*
X101961142Y-125126714D01*
X102056380Y-125102904D01*
X102104000Y-125055285D01*
X102127809Y-125007666D01*
X101961142Y-124364809D02*
X101627809Y-124364809D01*
X102151619Y-124483857D02*
X101794476Y-124602904D01*
X101794476Y-124293380D01*
X101627809Y-128119095D02*
X102127809Y-128119095D01*
X102127809Y-127785761D02*
X102127809Y-127690523D01*
X102104000Y-127642904D01*
X102056380Y-127595285D01*
X101961142Y-127571476D01*
X101794476Y-127571476D01*
X101699238Y-127595285D01*
X101651619Y-127642904D01*
X101627809Y-127690523D01*
X101627809Y-127785761D01*
X101651619Y-127833380D01*
X101699238Y-127881000D01*
X101794476Y-127904809D01*
X101961142Y-127904809D01*
X102056380Y-127881000D01*
X102104000Y-127833380D01*
X102127809Y-127785761D01*
X101627809Y-127095285D02*
X101627809Y-127381000D01*
X101627809Y-127238142D02*
X102127809Y-127238142D01*
X102056380Y-127285761D01*
X102008761Y-127333380D01*
X101984952Y-127381000D01*
X102080190Y-126904809D02*
X102104000Y-126881000D01*
X102127809Y-126833380D01*
X102127809Y-126714333D01*
X102104000Y-126666714D01*
X102080190Y-126642904D01*
X102032571Y-126619095D01*
X101984952Y-126619095D01*
X101913523Y-126642904D01*
X101627809Y-126928619D01*
X101627809Y-126619095D01*
X101627809Y-130659095D02*
X102127809Y-130659095D01*
X102127809Y-130325761D02*
X102127809Y-130230523D01*
X102104000Y-130182904D01*
X102056380Y-130135285D01*
X101961142Y-130111476D01*
X101794476Y-130111476D01*
X101699238Y-130135285D01*
X101651619Y-130182904D01*
X101627809Y-130230523D01*
X101627809Y-130325761D01*
X101651619Y-130373380D01*
X101699238Y-130421000D01*
X101794476Y-130444809D01*
X101961142Y-130444809D01*
X102056380Y-130421000D01*
X102104000Y-130373380D01*
X102127809Y-130325761D01*
X101627809Y-129635285D02*
X101627809Y-129921000D01*
X101627809Y-129778142D02*
X102127809Y-129778142D01*
X102056380Y-129825761D01*
X102008761Y-129873380D01*
X101984952Y-129921000D01*
X102127809Y-129468619D02*
X102127809Y-129159095D01*
X101937333Y-129325761D01*
X101937333Y-129254333D01*
X101913523Y-129206714D01*
X101889714Y-129182904D01*
X101842095Y-129159095D01*
X101723047Y-129159095D01*
X101675428Y-129182904D01*
X101651619Y-129206714D01*
X101627809Y-129254333D01*
X101627809Y-129397190D01*
X101651619Y-129444809D01*
X101675428Y-129468619D01*
X101627809Y-133199095D02*
X102127809Y-133199095D01*
X102127809Y-132865761D02*
X102127809Y-132770523D01*
X102104000Y-132722904D01*
X102056380Y-132675285D01*
X101961142Y-132651476D01*
X101794476Y-132651476D01*
X101699238Y-132675285D01*
X101651619Y-132722904D01*
X101627809Y-132770523D01*
X101627809Y-132865761D01*
X101651619Y-132913380D01*
X101699238Y-132961000D01*
X101794476Y-132984809D01*
X101961142Y-132984809D01*
X102056380Y-132961000D01*
X102104000Y-132913380D01*
X102127809Y-132865761D01*
X101627809Y-132175285D02*
X101627809Y-132461000D01*
X101627809Y-132318142D02*
X102127809Y-132318142D01*
X102056380Y-132365761D01*
X102008761Y-132413380D01*
X101984952Y-132461000D01*
X101961142Y-131746714D02*
X101627809Y-131746714D01*
X102151619Y-131865761D02*
X101794476Y-131984809D01*
X101794476Y-131675285D01*
X101627809Y-135739095D02*
X102127809Y-135739095D01*
X102127809Y-135405761D02*
X102127809Y-135310523D01*
X102104000Y-135262904D01*
X102056380Y-135215285D01*
X101961142Y-135191476D01*
X101794476Y-135191476D01*
X101699238Y-135215285D01*
X101651619Y-135262904D01*
X101627809Y-135310523D01*
X101627809Y-135405761D01*
X101651619Y-135453380D01*
X101699238Y-135501000D01*
X101794476Y-135524809D01*
X101961142Y-135524809D01*
X102056380Y-135501000D01*
X102104000Y-135453380D01*
X102127809Y-135405761D01*
X101627809Y-134715285D02*
X101627809Y-135001000D01*
X101627809Y-134858142D02*
X102127809Y-134858142D01*
X102056380Y-134905761D01*
X102008761Y-134953380D01*
X101984952Y-135001000D01*
X102127809Y-134286714D02*
X102127809Y-134381952D01*
X102104000Y-134429571D01*
X102080190Y-134453380D01*
X102008761Y-134501000D01*
X101913523Y-134524809D01*
X101723047Y-134524809D01*
X101675428Y-134501000D01*
X101651619Y-134477190D01*
X101627809Y-134429571D01*
X101627809Y-134334333D01*
X101651619Y-134286714D01*
X101675428Y-134262904D01*
X101723047Y-134239095D01*
X101842095Y-134239095D01*
X101889714Y-134262904D01*
X101913523Y-134286714D01*
X101937333Y-134334333D01*
X101937333Y-134429571D01*
X101913523Y-134477190D01*
X101889714Y-134501000D01*
X101842095Y-134524809D01*
X102104000Y-137921952D02*
X102127809Y-137969571D01*
X102127809Y-138041000D01*
X102104000Y-138112428D01*
X102056380Y-138160047D01*
X102008761Y-138183857D01*
X101913523Y-138207666D01*
X101842095Y-138207666D01*
X101746857Y-138183857D01*
X101699238Y-138160047D01*
X101651619Y-138112428D01*
X101627809Y-138041000D01*
X101627809Y-137993380D01*
X101651619Y-137921952D01*
X101675428Y-137898142D01*
X101842095Y-137898142D01*
X101842095Y-137993380D01*
X101627809Y-137683857D02*
X102127809Y-137683857D01*
X101627809Y-137398142D01*
X102127809Y-137398142D01*
X101627809Y-137160047D02*
X102127809Y-137160047D01*
X102127809Y-137041000D01*
X102104000Y-136969571D01*
X102056380Y-136921952D01*
X102008761Y-136898142D01*
X101913523Y-136874333D01*
X101842095Y-136874333D01*
X101746857Y-136898142D01*
X101699238Y-136921952D01*
X101651619Y-136969571D01*
X101627809Y-137041000D01*
X101627809Y-137160047D01*
X101677000Y-108342000D02*
X101677000Y-107808666D01*
X101410333Y-108075333D02*
X101943666Y-108075333D01*
X102110333Y-107142000D02*
X102110333Y-107475333D01*
X101777000Y-107508666D01*
X101810333Y-107475333D01*
X101843666Y-107408666D01*
X101843666Y-107242000D01*
X101810333Y-107175333D01*
X101777000Y-107142000D01*
X101710333Y-107108666D01*
X101543666Y-107108666D01*
X101477000Y-107142000D01*
X101443666Y-107175333D01*
X101410333Y-107242000D01*
X101410333Y-107408666D01*
X101443666Y-107475333D01*
X101477000Y-107508666D01*
X102110333Y-106908666D02*
X101410333Y-106675333D01*
X102110333Y-106442000D01*
X102110333Y-110848666D02*
X102110333Y-110448666D01*
X101410333Y-110648666D02*
X102110333Y-110648666D01*
X102110333Y-110282000D02*
X101410333Y-109815333D01*
X102110333Y-109815333D02*
X101410333Y-110282000D01*
X102110333Y-109415333D02*
X102110333Y-109348666D01*
X102077000Y-109282000D01*
X102043666Y-109248666D01*
X101977000Y-109215333D01*
X101843666Y-109182000D01*
X101677000Y-109182000D01*
X101543666Y-109215333D01*
X101477000Y-109248666D01*
X101443666Y-109282000D01*
X101410333Y-109348666D01*
X101410333Y-109415333D01*
X101443666Y-109482000D01*
X101477000Y-109515333D01*
X101543666Y-109548666D01*
X101677000Y-109582000D01*
X101843666Y-109582000D01*
X101977000Y-109548666D01*
X102043666Y-109515333D01*
X102077000Y-109482000D01*
X102110333Y-109415333D01*
X101410333Y-113099000D02*
X101743666Y-113332333D01*
X101410333Y-113499000D02*
X102110333Y-113499000D01*
X102110333Y-113232333D01*
X102077000Y-113165666D01*
X102043666Y-113132333D01*
X101977000Y-113099000D01*
X101877000Y-113099000D01*
X101810333Y-113132333D01*
X101777000Y-113165666D01*
X101743666Y-113232333D01*
X101743666Y-113499000D01*
X102110333Y-112865666D02*
X101410333Y-112399000D01*
X102110333Y-112399000D02*
X101410333Y-112865666D01*
X102110333Y-111999000D02*
X102110333Y-111932333D01*
X102077000Y-111865666D01*
X102043666Y-111832333D01*
X101977000Y-111799000D01*
X101843666Y-111765666D01*
X101677000Y-111765666D01*
X101543666Y-111799000D01*
X101477000Y-111832333D01*
X101443666Y-111865666D01*
X101410333Y-111932333D01*
X101410333Y-111999000D01*
X101443666Y-112065666D01*
X101477000Y-112099000D01*
X101543666Y-112132333D01*
X101677000Y-112165666D01*
X101843666Y-112165666D01*
X101977000Y-112132333D01*
X102043666Y-112099000D01*
X102077000Y-112065666D01*
X102110333Y-111999000D01*
X102077000Y-115722333D02*
X102110333Y-115789000D01*
X102110333Y-115889000D01*
X102077000Y-115989000D01*
X102010333Y-116055666D01*
X101943666Y-116089000D01*
X101810333Y-116122333D01*
X101710333Y-116122333D01*
X101577000Y-116089000D01*
X101510333Y-116055666D01*
X101443666Y-115989000D01*
X101410333Y-115889000D01*
X101410333Y-115822333D01*
X101443666Y-115722333D01*
X101477000Y-115689000D01*
X101710333Y-115689000D01*
X101710333Y-115822333D01*
X101410333Y-115389000D02*
X102110333Y-115389000D01*
X101410333Y-114989000D01*
X102110333Y-114989000D01*
X101410333Y-114655666D02*
X102110333Y-114655666D01*
X102110333Y-114489000D01*
X102077000Y-114389000D01*
X102010333Y-114322333D01*
X101943666Y-114289000D01*
X101810333Y-114255666D01*
X101710333Y-114255666D01*
X101577000Y-114289000D01*
X101510333Y-114322333D01*
X101443666Y-114389000D01*
X101410333Y-114489000D01*
X101410333Y-114655666D01*
X101410333Y-118302000D02*
X102110333Y-118302000D01*
X102110333Y-117835333D02*
X102110333Y-117702000D01*
X102077000Y-117635333D01*
X102010333Y-117568666D01*
X101877000Y-117535333D01*
X101643666Y-117535333D01*
X101510333Y-117568666D01*
X101443666Y-117635333D01*
X101410333Y-117702000D01*
X101410333Y-117835333D01*
X101443666Y-117902000D01*
X101510333Y-117968666D01*
X101643666Y-118002000D01*
X101877000Y-118002000D01*
X102010333Y-117968666D01*
X102077000Y-117902000D01*
X102110333Y-117835333D01*
X102110333Y-117102000D02*
X102110333Y-117035333D01*
X102077000Y-116968666D01*
X102043666Y-116935333D01*
X101977000Y-116902000D01*
X101843666Y-116868666D01*
X101677000Y-116868666D01*
X101543666Y-116902000D01*
X101477000Y-116935333D01*
X101443666Y-116968666D01*
X101410333Y-117035333D01*
X101410333Y-117102000D01*
X101443666Y-117168666D01*
X101477000Y-117202000D01*
X101543666Y-117235333D01*
X101677000Y-117268666D01*
X101843666Y-117268666D01*
X101977000Y-117235333D01*
X102043666Y-117202000D01*
X102077000Y-117168666D01*
X102110333Y-117102000D01*
X101410333Y-120525333D02*
X101743666Y-120758666D01*
X101410333Y-120925333D02*
X102110333Y-120925333D01*
X102110333Y-120658666D01*
X102077000Y-120592000D01*
X102043666Y-120558666D01*
X101977000Y-120525333D01*
X101877000Y-120525333D01*
X101810333Y-120558666D01*
X101777000Y-120592000D01*
X101743666Y-120658666D01*
X101743666Y-120925333D01*
X101443666Y-120258666D02*
X101410333Y-120158666D01*
X101410333Y-119992000D01*
X101443666Y-119925333D01*
X101477000Y-119892000D01*
X101543666Y-119858666D01*
X101610333Y-119858666D01*
X101677000Y-119892000D01*
X101710333Y-119925333D01*
X101743666Y-119992000D01*
X101777000Y-120125333D01*
X101810333Y-120192000D01*
X101843666Y-120225333D01*
X101910333Y-120258666D01*
X101977000Y-120258666D01*
X102043666Y-120225333D01*
X102077000Y-120192000D01*
X102110333Y-120125333D01*
X102110333Y-119958666D01*
X102077000Y-119858666D01*
X102110333Y-119658666D02*
X102110333Y-119258666D01*
X101410333Y-119458666D02*
X102110333Y-119458666D01*
D11*
X101703000Y-140279380D02*
X101703000Y-139279380D01*
X101322047Y-139279380D01*
X101226809Y-139327000D01*
X101179190Y-139374619D01*
X101131571Y-139469857D01*
X101131571Y-139612714D01*
X101179190Y-139707952D01*
X101226809Y-139755571D01*
X101322047Y-139803190D01*
X101703000Y-139803190D01*
X100703000Y-140279380D02*
X100703000Y-139279380D01*
X100226809Y-140279380D02*
X100226809Y-139279380D01*
X99655380Y-140279380D01*
X99655380Y-139279380D01*
X99226809Y-140231761D02*
X99083952Y-140279380D01*
X98845857Y-140279380D01*
X98750619Y-140231761D01*
X98703000Y-140184142D01*
X98655380Y-140088904D01*
X98655380Y-139993666D01*
X98703000Y-139898428D01*
X98750619Y-139850809D01*
X98845857Y-139803190D01*
X99036333Y-139755571D01*
X99131571Y-139707952D01*
X99179190Y-139660333D01*
X99226809Y-139565095D01*
X99226809Y-139469857D01*
X99179190Y-139374619D01*
X99131571Y-139327000D01*
X99036333Y-139279380D01*
X98798238Y-139279380D01*
X98655380Y-139327000D01*
X102846238Y-119061857D02*
X102798619Y-118919000D01*
X102798619Y-118680904D01*
X102846238Y-118585666D01*
X102893857Y-118538047D01*
X102989095Y-118490428D01*
X103084333Y-118490428D01*
X103179571Y-118538047D01*
X103227190Y-118585666D01*
X103274809Y-118680904D01*
X103322428Y-118871380D01*
X103370047Y-118966619D01*
X103417666Y-119014238D01*
X103512904Y-119061857D01*
X103608142Y-119061857D01*
X103703380Y-119014238D01*
X103751000Y-118966619D01*
X103798619Y-118871380D01*
X103798619Y-118633285D01*
X103751000Y-118490428D01*
X103322428Y-118061857D02*
X103322428Y-117728523D01*
X102798619Y-117585666D02*
X102798619Y-118061857D01*
X103798619Y-118061857D01*
X103798619Y-117585666D01*
X102798619Y-116585666D02*
X103274809Y-116919000D01*
X102798619Y-117157095D02*
X103798619Y-117157095D01*
X103798619Y-116776142D01*
X103751000Y-116680904D01*
X103703380Y-116633285D01*
X103608142Y-116585666D01*
X103465285Y-116585666D01*
X103370047Y-116633285D01*
X103322428Y-116680904D01*
X103274809Y-116776142D01*
X103274809Y-117157095D01*
X103798619Y-116299952D02*
X102798619Y-115966619D01*
X103798619Y-115633285D01*
X102798619Y-115299952D02*
X103798619Y-115299952D01*
X102893857Y-114252333D02*
X102846238Y-114299952D01*
X102798619Y-114442809D01*
X102798619Y-114538047D01*
X102846238Y-114680904D01*
X102941476Y-114776142D01*
X103036714Y-114823761D01*
X103227190Y-114871380D01*
X103370047Y-114871380D01*
X103560523Y-114823761D01*
X103655761Y-114776142D01*
X103751000Y-114680904D01*
X103798619Y-114538047D01*
X103798619Y-114442809D01*
X103751000Y-114299952D01*
X103703380Y-114252333D01*
X103322428Y-113823761D02*
X103322428Y-113490428D01*
X102798619Y-113347571D02*
X102798619Y-113823761D01*
X103798619Y-113823761D01*
X103798619Y-113347571D01*
X102798619Y-112157095D02*
X103798619Y-112157095D01*
X103798619Y-111776142D01*
X103751000Y-111680904D01*
X103703380Y-111633285D01*
X103608142Y-111585666D01*
X103465285Y-111585666D01*
X103370047Y-111633285D01*
X103322428Y-111680904D01*
X103274809Y-111776142D01*
X103274809Y-112157095D01*
X103798619Y-110966619D02*
X103798619Y-110776142D01*
X103751000Y-110680904D01*
X103655761Y-110585666D01*
X103465285Y-110538047D01*
X103131952Y-110538047D01*
X102941476Y-110585666D01*
X102846238Y-110680904D01*
X102798619Y-110776142D01*
X102798619Y-110966619D01*
X102846238Y-111061857D01*
X102941476Y-111157095D01*
X103131952Y-111204714D01*
X103465285Y-111204714D01*
X103655761Y-111157095D01*
X103751000Y-111061857D01*
X103798619Y-110966619D01*
X102798619Y-109538047D02*
X103274809Y-109871380D01*
X102798619Y-110109476D02*
X103798619Y-110109476D01*
X103798619Y-109728523D01*
X103751000Y-109633285D01*
X103703380Y-109585666D01*
X103608142Y-109538047D01*
X103465285Y-109538047D01*
X103370047Y-109585666D01*
X103322428Y-109633285D01*
X103274809Y-109728523D01*
X103274809Y-110109476D01*
X103798619Y-109252333D02*
X103798619Y-108680904D01*
X102798619Y-108966619D02*
X103798619Y-108966619D01*
X105294000Y-88696000D02*
X104760666Y-88696000D01*
X105027333Y-88962666D02*
X105027333Y-88429333D01*
X104094000Y-88262666D02*
X104427333Y-88262666D01*
X104460666Y-88596000D01*
X104427333Y-88562666D01*
X104360666Y-88529333D01*
X104194000Y-88529333D01*
X104127333Y-88562666D01*
X104094000Y-88596000D01*
X104060666Y-88662666D01*
X104060666Y-88829333D01*
X104094000Y-88896000D01*
X104127333Y-88929333D01*
X104194000Y-88962666D01*
X104360666Y-88962666D01*
X104427333Y-88929333D01*
X104460666Y-88896000D01*
X103860666Y-88262666D02*
X103627333Y-88962666D01*
X103394000Y-88262666D01*
X104927333Y-85756000D02*
X104994000Y-85722666D01*
X105094000Y-85722666D01*
X105194000Y-85756000D01*
X105260666Y-85822666D01*
X105294000Y-85889333D01*
X105327333Y-86022666D01*
X105327333Y-86122666D01*
X105294000Y-86256000D01*
X105260666Y-86322666D01*
X105194000Y-86389333D01*
X105094000Y-86422666D01*
X105027333Y-86422666D01*
X104927333Y-86389333D01*
X104894000Y-86356000D01*
X104894000Y-86122666D01*
X105027333Y-86122666D01*
X104594000Y-86422666D02*
X104594000Y-85722666D01*
X104194000Y-86422666D01*
X104194000Y-85722666D01*
X103860666Y-86422666D02*
X103860666Y-85722666D01*
X103694000Y-85722666D01*
X103594000Y-85756000D01*
X103527333Y-85822666D01*
X103494000Y-85889333D01*
X103460666Y-86022666D01*
X103460666Y-86122666D01*
X103494000Y-86256000D01*
X103527333Y-86322666D01*
X103594000Y-86389333D01*
X103694000Y-86422666D01*
X103860666Y-86422666D01*
D10*
X104523333Y-92727333D02*
X104523333Y-92294000D01*
X104256666Y-92527333D01*
X104256666Y-92427333D01*
X104223333Y-92360666D01*
X104190000Y-92327333D01*
X104123333Y-92294000D01*
X103956666Y-92294000D01*
X103890000Y-92327333D01*
X103856666Y-92360666D01*
X103823333Y-92427333D01*
X103823333Y-92627333D01*
X103856666Y-92694000D01*
X103890000Y-92727333D01*
X103890000Y-91994000D02*
X103856666Y-91960666D01*
X103823333Y-91994000D01*
X103856666Y-92027333D01*
X103890000Y-91994000D01*
X103823333Y-91994000D01*
X104523333Y-91727333D02*
X104523333Y-91294000D01*
X104256666Y-91527333D01*
X104256666Y-91427333D01*
X104223333Y-91360666D01*
X104190000Y-91327333D01*
X104123333Y-91294000D01*
X103956666Y-91294000D01*
X103890000Y-91327333D01*
X103856666Y-91360666D01*
X103823333Y-91427333D01*
X103823333Y-91627333D01*
X103856666Y-91694000D01*
X103890000Y-91727333D01*
X104523333Y-91094000D02*
X103823333Y-90860666D01*
X104523333Y-90627333D01*
D11*
X98233666Y-99070333D02*
X97900333Y-98837000D01*
X98233666Y-98670333D02*
X97533666Y-98670333D01*
X97533666Y-98937000D01*
X97567000Y-99003666D01*
X97600333Y-99037000D01*
X97667000Y-99070333D01*
X97767000Y-99070333D01*
X97833666Y-99037000D01*
X97867000Y-99003666D01*
X97900333Y-98937000D01*
X97900333Y-98670333D01*
X97533666Y-99303666D02*
X98233666Y-99770333D01*
X97533666Y-99770333D02*
X98233666Y-99303666D01*
X97533666Y-101320666D02*
X97533666Y-101720666D01*
X98233666Y-101520666D02*
X97533666Y-101520666D01*
X97533666Y-101887333D02*
X98233666Y-102354000D01*
X97533666Y-102354000D02*
X98233666Y-101887333D01*
X97567000Y-96240666D02*
X97533666Y-96174000D01*
X97533666Y-96074000D01*
X97567000Y-95974000D01*
X97633666Y-95907333D01*
X97700333Y-95874000D01*
X97833666Y-95840666D01*
X97933666Y-95840666D01*
X98067000Y-95874000D01*
X98133666Y-95907333D01*
X98200333Y-95974000D01*
X98233666Y-96074000D01*
X98233666Y-96140666D01*
X98200333Y-96240666D01*
X98167000Y-96274000D01*
X97933666Y-96274000D01*
X97933666Y-96140666D01*
X98233666Y-96574000D02*
X97533666Y-96574000D01*
X98233666Y-96974000D01*
X97533666Y-96974000D01*
X98233666Y-97307333D02*
X97533666Y-97307333D01*
X97533666Y-97474000D01*
X97567000Y-97574000D01*
X97633666Y-97640666D01*
X97700333Y-97674000D01*
X97833666Y-97707333D01*
X97933666Y-97707333D01*
X98067000Y-97674000D01*
X98133666Y-97640666D01*
X98200333Y-97574000D01*
X98233666Y-97474000D01*
X98233666Y-97307333D01*
D12*
X109212857Y-116399428D02*
X109498571Y-115399428D01*
X109784285Y-116113714D01*
X110070000Y-115399428D01*
X110355714Y-116399428D01*
X110927142Y-115399428D02*
X110927142Y-116399428D01*
X110927142Y-116899428D02*
X110855714Y-116828000D01*
X110927142Y-116756571D01*
X110998571Y-116828000D01*
X110927142Y-116899428D01*
X110927142Y-116756571D01*
X111427142Y-116399428D02*
X111998571Y-116399428D01*
X111641428Y-115399428D02*
X111641428Y-116685142D01*
X111712857Y-116828000D01*
X111855714Y-116899428D01*
X111998571Y-116899428D01*
X112498571Y-115399428D02*
X112498571Y-116399428D01*
X112498571Y-116899428D02*
X112427142Y-116828000D01*
X112498571Y-116756571D01*
X112570000Y-116828000D01*
X112498571Y-116899428D01*
X112498571Y-116756571D01*
X114355714Y-115399428D02*
X114355714Y-116399428D01*
X114355714Y-116256571D02*
X114427142Y-116328000D01*
X114570000Y-116399428D01*
X114784285Y-116399428D01*
X114927142Y-116328000D01*
X114998571Y-116185142D01*
X114998571Y-115399428D01*
X114998571Y-116185142D02*
X115070000Y-116328000D01*
X115212857Y-116399428D01*
X115427142Y-116399428D01*
X115570000Y-116328000D01*
X115641428Y-116185142D01*
X115641428Y-115399428D01*
X116570000Y-115399428D02*
X116427142Y-115470857D01*
X116355714Y-115542285D01*
X116284285Y-115685142D01*
X116284285Y-116113714D01*
X116355714Y-116256571D01*
X116427142Y-116328000D01*
X116570000Y-116399428D01*
X116784285Y-116399428D01*
X116927142Y-116328000D01*
X116998571Y-116256571D01*
X117070000Y-116113714D01*
X117070000Y-115685142D01*
X116998571Y-115542285D01*
X116927142Y-115470857D01*
X116784285Y-115399428D01*
X116570000Y-115399428D01*
X118355714Y-115399428D02*
X118355714Y-116899428D01*
X118355714Y-115470857D02*
X118212857Y-115399428D01*
X117927142Y-115399428D01*
X117784285Y-115470857D01*
X117712857Y-115542285D01*
X117641428Y-115685142D01*
X117641428Y-116113714D01*
X117712857Y-116256571D01*
X117784285Y-116328000D01*
X117927142Y-116399428D01*
X118212857Y-116399428D01*
X118355714Y-116328000D01*
X119712857Y-116399428D02*
X119712857Y-115399428D01*
X119070000Y-116399428D02*
X119070000Y-115613714D01*
X119141428Y-115470857D01*
X119284285Y-115399428D01*
X119498571Y-115399428D01*
X119641428Y-115470857D01*
X119712857Y-115542285D01*
X120641428Y-115399428D02*
X120498571Y-115470857D01*
X120427142Y-115613714D01*
X120427142Y-116899428D01*
X121784285Y-115470857D02*
X121641428Y-115399428D01*
X121355714Y-115399428D01*
X121212857Y-115470857D01*
X121141428Y-115613714D01*
X121141428Y-116185142D01*
X121212857Y-116328000D01*
X121355714Y-116399428D01*
X121641428Y-116399428D01*
X121784285Y-116328000D01*
X121855714Y-116185142D01*
X121855714Y-116042285D01*
X121141428Y-115899428D01*
D13*
X110331904Y-110775952D02*
X109950952Y-110585476D01*
X109189047Y-110585476D01*
X108808095Y-110775952D01*
X108617619Y-111156904D01*
X108617619Y-112680714D01*
X108808095Y-113061666D01*
X109189047Y-113252142D01*
X109950952Y-113252142D01*
X110331904Y-113061666D01*
X110522380Y-112680714D01*
X110522380Y-112299761D01*
X108617619Y-111918809D01*
X113570000Y-112680714D02*
X114141428Y-112490238D01*
X114331904Y-112299761D01*
X114522380Y-111918809D01*
X114522380Y-111347380D01*
X114331904Y-110966428D01*
X114141428Y-110775952D01*
X113760476Y-110585476D01*
X112236666Y-110585476D01*
X112236666Y-114585476D01*
X113570000Y-114585476D01*
X113950952Y-114395000D01*
X114141428Y-114204523D01*
X114331904Y-113823571D01*
X114331904Y-113442619D01*
X114141428Y-113061666D01*
X113950952Y-112871190D01*
X113570000Y-112680714D01*
X112236666Y-112680714D01*
X116236666Y-114585476D02*
X116236666Y-111347380D01*
X116427142Y-110966428D01*
X116617619Y-110775952D01*
X116998571Y-110585476D01*
X117760476Y-110585476D01*
X118141428Y-110775952D01*
X118331904Y-110966428D01*
X118522380Y-111347380D01*
X118522380Y-114585476D01*
X120236666Y-110775952D02*
X120808095Y-110585476D01*
X121760476Y-110585476D01*
X122141428Y-110775952D01*
X122331904Y-110966428D01*
X122522380Y-111347380D01*
X122522380Y-111728333D01*
X122331904Y-112109285D01*
X122141428Y-112299761D01*
X121760476Y-112490238D01*
X120998571Y-112680714D01*
X120617619Y-112871190D01*
X120427142Y-113061666D01*
X120236666Y-113442619D01*
X120236666Y-113823571D01*
X120427142Y-114204523D01*
X120617619Y-114395000D01*
X120998571Y-114585476D01*
X121950952Y-114585476D01*
X122522380Y-114395000D01*
D14*
%TO.C,J7*%
X103565000Y-103184000D02*
X98365000Y-103184000D01*
X103565000Y-92964000D02*
X103565000Y-103184000D01*
X98365000Y-90364000D02*
X98365000Y-103184000D01*
X103565000Y-92964000D02*
X100965000Y-92964000D01*
X100965000Y-92964000D02*
X100965000Y-90364000D01*
X100965000Y-90364000D02*
X98365000Y-90364000D01*
X103565000Y-91694000D02*
X103565000Y-90364000D01*
X103565000Y-90364000D02*
X102235000Y-90364000D01*
%TO.C,R21*%
X124862000Y-123476936D02*
X124862000Y-124681064D01*
X123042000Y-123476936D02*
X123042000Y-124681064D01*
D12*
%TO.C,J2*%
X121984000Y-94789000D02*
G75*
G03X121984000Y-94789000I-100000J0D01*
G01*
D15*
X127434000Y-92439000D02*
X127434000Y-99839000D01*
X127164000Y-99839000D02*
X127434000Y-99839000D01*
X127434000Y-92439000D02*
X127164000Y-92439000D01*
X123134000Y-99839000D02*
X123134000Y-99659000D01*
X123134000Y-92439000D02*
X123134000Y-92619000D01*
X123134000Y-99839000D02*
X124889000Y-99839000D01*
X123134000Y-92439000D02*
X124889000Y-92439000D01*
D14*
%TO.C,U6*%
X104402000Y-148340200D02*
X120642000Y-148340200D01*
X120642000Y-148340200D02*
X120642000Y-140720200D01*
X120642000Y-124720200D02*
X120642000Y-124100200D01*
X120642000Y-124100200D02*
X118522000Y-124100200D01*
X106522000Y-124100200D02*
X104402000Y-124100200D01*
X104402000Y-124100200D02*
X104402000Y-124720200D01*
X104402000Y-140720200D02*
X104402000Y-148340200D01*
X104402000Y-140720200D02*
X103792000Y-140720200D01*
%TO.C,U5*%
X112720200Y-90659000D02*
X112720200Y-89399000D01*
X112720200Y-83839000D02*
X112720200Y-85099000D01*
X116480200Y-90659000D02*
X112720200Y-90659000D01*
X118730200Y-83839000D02*
X112720200Y-83839000D01*
%TO.C,R20*%
X124862000Y-136111064D02*
X124862000Y-134906936D01*
X123042000Y-136111064D02*
X123042000Y-134906936D01*
%TO.C,R18*%
X123042000Y-129318936D02*
X123042000Y-130523064D01*
X124862000Y-129318936D02*
X124862000Y-130523064D01*
%TO.C,J6*%
X108264000Y-89976000D02*
X105604000Y-89976000D01*
X108264000Y-87376000D02*
X108264000Y-89976000D01*
X105604000Y-87376000D02*
X105604000Y-89976000D01*
X108264000Y-87376000D02*
X105604000Y-87376000D01*
X108264000Y-86106000D02*
X108264000Y-84776000D01*
X108264000Y-84776000D02*
X106934000Y-84776000D01*
%TO.C,J5*%
X101279000Y-138871000D02*
X98619000Y-138871000D01*
X101279000Y-126111000D02*
X101279000Y-138871000D01*
X98619000Y-126111000D02*
X98619000Y-138871000D01*
X101279000Y-126111000D02*
X98619000Y-126111000D01*
X101279000Y-124841000D02*
X101279000Y-123511000D01*
X101279000Y-123511000D02*
X99949000Y-123511000D01*
%TO.C,J4*%
X101152000Y-121599000D02*
X98492000Y-121599000D01*
X101152000Y-108839000D02*
X101152000Y-121599000D01*
X98492000Y-108839000D02*
X98492000Y-121599000D01*
X101152000Y-108839000D02*
X98492000Y-108839000D01*
X101152000Y-107569000D02*
X101152000Y-106239000D01*
X101152000Y-106239000D02*
X99822000Y-106239000D01*
%TO.C,C5*%
X112439400Y-97250200D02*
X114789400Y-97250200D01*
X119259400Y-97250200D02*
X116909400Y-97250200D01*
X119259400Y-103005763D02*
X119259400Y-97250200D01*
X112439400Y-103005763D02*
X112439400Y-97250200D01*
X113503837Y-104070200D02*
X114789400Y-104070200D01*
X118194963Y-104070200D02*
X116909400Y-104070200D01*
X118194963Y-104070200D02*
X119259400Y-103005763D01*
X113503837Y-104070200D02*
X112439400Y-103005763D01*
X117696900Y-105097700D02*
X117696900Y-104310200D01*
X118090650Y-104703950D02*
X117303150Y-104703950D01*
%TO.C,C4*%
X110141936Y-94636000D02*
X111346064Y-94636000D01*
X110141936Y-92816000D02*
X111346064Y-92816000D01*
%TO.C,C3*%
X105124200Y-97250200D02*
X107474200Y-97250200D01*
X111944200Y-97250200D02*
X109594200Y-97250200D01*
X111944200Y-103005763D02*
X111944200Y-97250200D01*
X105124200Y-103005763D02*
X105124200Y-97250200D01*
X106188637Y-104070200D02*
X107474200Y-104070200D01*
X110879763Y-104070200D02*
X109594200Y-104070200D01*
X110879763Y-104070200D02*
X111944200Y-103005763D01*
X106188637Y-104070200D02*
X105124200Y-103005763D01*
X110381700Y-105097700D02*
X110381700Y-104310200D01*
X110775450Y-104703950D02*
X109987950Y-104703950D01*
%TO.C,C2*%
X117315064Y-92816000D02*
X116110936Y-92816000D01*
X117315064Y-94636000D02*
X116110936Y-94636000D01*
%TO.C,R21*%
D11*
X126436380Y-123436142D02*
X125960190Y-123102809D01*
X126436380Y-122864714D02*
X125436380Y-122864714D01*
X125436380Y-123245666D01*
X125484000Y-123340904D01*
X125531619Y-123388523D01*
X125626857Y-123436142D01*
X125769714Y-123436142D01*
X125864952Y-123388523D01*
X125912571Y-123340904D01*
X125960190Y-123245666D01*
X125960190Y-122864714D01*
X125531619Y-123817095D02*
X125484000Y-123864714D01*
X125436380Y-123959952D01*
X125436380Y-124198047D01*
X125484000Y-124293285D01*
X125531619Y-124340904D01*
X125626857Y-124388523D01*
X125722095Y-124388523D01*
X125864952Y-124340904D01*
X126436380Y-123769476D01*
X126436380Y-124388523D01*
X126436380Y-125340904D02*
X126436380Y-124769476D01*
X126436380Y-125055190D02*
X125436380Y-125055190D01*
X125579238Y-124959952D01*
X125674476Y-124864714D01*
X125722095Y-124769476D01*
%TO.C,U5*%
X115569904Y-86828380D02*
X115569904Y-87637904D01*
X115522285Y-87733142D01*
X115474666Y-87780761D01*
X115379428Y-87828380D01*
X115188952Y-87828380D01*
X115093714Y-87780761D01*
X115046095Y-87733142D01*
X114998476Y-87637904D01*
X114998476Y-86828380D01*
X114046095Y-86828380D02*
X114522285Y-86828380D01*
X114569904Y-87304571D01*
X114522285Y-87256952D01*
X114427047Y-87209333D01*
X114188952Y-87209333D01*
X114093714Y-87256952D01*
X114046095Y-87304571D01*
X113998476Y-87399809D01*
X113998476Y-87637904D01*
X114046095Y-87733142D01*
X114093714Y-87780761D01*
X114188952Y-87828380D01*
X114427047Y-87828380D01*
X114522285Y-87780761D01*
X114569904Y-87733142D01*
%TO.C,R20*%
X126436380Y-134739142D02*
X125960190Y-134405809D01*
X126436380Y-134167714D02*
X125436380Y-134167714D01*
X125436380Y-134548666D01*
X125484000Y-134643904D01*
X125531619Y-134691523D01*
X125626857Y-134739142D01*
X125769714Y-134739142D01*
X125864952Y-134691523D01*
X125912571Y-134643904D01*
X125960190Y-134548666D01*
X125960190Y-134167714D01*
X125531619Y-135120095D02*
X125484000Y-135167714D01*
X125436380Y-135262952D01*
X125436380Y-135501047D01*
X125484000Y-135596285D01*
X125531619Y-135643904D01*
X125626857Y-135691523D01*
X125722095Y-135691523D01*
X125864952Y-135643904D01*
X126436380Y-135072476D01*
X126436380Y-135691523D01*
X125436380Y-136310571D02*
X125436380Y-136405809D01*
X125484000Y-136501047D01*
X125531619Y-136548666D01*
X125626857Y-136596285D01*
X125817333Y-136643904D01*
X126055428Y-136643904D01*
X126245904Y-136596285D01*
X126341142Y-136548666D01*
X126388761Y-136501047D01*
X126436380Y-136405809D01*
X126436380Y-136310571D01*
X126388761Y-136215333D01*
X126341142Y-136167714D01*
X126245904Y-136120095D01*
X126055428Y-136072476D01*
X125817333Y-136072476D01*
X125626857Y-136120095D01*
X125531619Y-136167714D01*
X125484000Y-136215333D01*
X125436380Y-136310571D01*
%TO.C,R18*%
X126436380Y-129151142D02*
X125960190Y-128817809D01*
X126436380Y-128579714D02*
X125436380Y-128579714D01*
X125436380Y-128960666D01*
X125484000Y-129055904D01*
X125531619Y-129103523D01*
X125626857Y-129151142D01*
X125769714Y-129151142D01*
X125864952Y-129103523D01*
X125912571Y-129055904D01*
X125960190Y-128960666D01*
X125960190Y-128579714D01*
X126436380Y-130103523D02*
X126436380Y-129532095D01*
X126436380Y-129817809D02*
X125436380Y-129817809D01*
X125579238Y-129722571D01*
X125674476Y-129627333D01*
X125722095Y-129532095D01*
X125864952Y-130674952D02*
X125817333Y-130579714D01*
X125769714Y-130532095D01*
X125674476Y-130484476D01*
X125626857Y-130484476D01*
X125531619Y-130532095D01*
X125484000Y-130579714D01*
X125436380Y-130674952D01*
X125436380Y-130865428D01*
X125484000Y-130960666D01*
X125531619Y-131008285D01*
X125626857Y-131055904D01*
X125674476Y-131055904D01*
X125769714Y-131008285D01*
X125817333Y-130960666D01*
X125864952Y-130865428D01*
X125864952Y-130674952D01*
X125912571Y-130579714D01*
X125960190Y-130532095D01*
X126055428Y-130484476D01*
X126245904Y-130484476D01*
X126341142Y-130532095D01*
X126388761Y-130579714D01*
X126436380Y-130674952D01*
X126436380Y-130865428D01*
X126388761Y-130960666D01*
X126341142Y-131008285D01*
X126245904Y-131055904D01*
X126055428Y-131055904D01*
X125960190Y-131008285D01*
X125912571Y-130960666D01*
X125864952Y-130865428D01*
%TO.C,C5*%
X113704666Y-96623142D02*
X113752285Y-96670761D01*
X113895142Y-96718380D01*
X113990380Y-96718380D01*
X114133238Y-96670761D01*
X114228476Y-96575523D01*
X114276095Y-96480285D01*
X114323714Y-96289809D01*
X114323714Y-96146952D01*
X114276095Y-95956476D01*
X114228476Y-95861238D01*
X114133238Y-95766000D01*
X113990380Y-95718380D01*
X113895142Y-95718380D01*
X113752285Y-95766000D01*
X113704666Y-95813619D01*
X112799904Y-95718380D02*
X113276095Y-95718380D01*
X113323714Y-96194571D01*
X113276095Y-96146952D01*
X113180857Y-96099333D01*
X112942761Y-96099333D01*
X112847523Y-96146952D01*
X112799904Y-96194571D01*
X112752285Y-96289809D01*
X112752285Y-96527904D01*
X112799904Y-96623142D01*
X112847523Y-96670761D01*
X112942761Y-96718380D01*
X113180857Y-96718380D01*
X113276095Y-96670761D01*
X113323714Y-96623142D01*
%TO.C,C4*%
X111037666Y-92305142D02*
X111085285Y-92352761D01*
X111228142Y-92400380D01*
X111323380Y-92400380D01*
X111466238Y-92352761D01*
X111561476Y-92257523D01*
X111609095Y-92162285D01*
X111656714Y-91971809D01*
X111656714Y-91828952D01*
X111609095Y-91638476D01*
X111561476Y-91543238D01*
X111466238Y-91448000D01*
X111323380Y-91400380D01*
X111228142Y-91400380D01*
X111085285Y-91448000D01*
X111037666Y-91495619D01*
X110180523Y-91733714D02*
X110180523Y-92400380D01*
X110418619Y-91352761D02*
X110656714Y-92067047D01*
X110037666Y-92067047D01*
%TO.C,C3*%
X106338666Y-96623142D02*
X106386285Y-96670761D01*
X106529142Y-96718380D01*
X106624380Y-96718380D01*
X106767238Y-96670761D01*
X106862476Y-96575523D01*
X106910095Y-96480285D01*
X106957714Y-96289809D01*
X106957714Y-96146952D01*
X106910095Y-95956476D01*
X106862476Y-95861238D01*
X106767238Y-95766000D01*
X106624380Y-95718380D01*
X106529142Y-95718380D01*
X106386285Y-95766000D01*
X106338666Y-95813619D01*
X106005333Y-95718380D02*
X105386285Y-95718380D01*
X105719619Y-96099333D01*
X105576761Y-96099333D01*
X105481523Y-96146952D01*
X105433904Y-96194571D01*
X105386285Y-96289809D01*
X105386285Y-96527904D01*
X105433904Y-96623142D01*
X105481523Y-96670761D01*
X105576761Y-96718380D01*
X105862476Y-96718380D01*
X105957714Y-96670761D01*
X106005333Y-96623142D01*
%TO.C,C2*%
X116879666Y-92263142D02*
X116927285Y-92310761D01*
X117070142Y-92358380D01*
X117165380Y-92358380D01*
X117308238Y-92310761D01*
X117403476Y-92215523D01*
X117451095Y-92120285D01*
X117498714Y-91929809D01*
X117498714Y-91786952D01*
X117451095Y-91596476D01*
X117403476Y-91501238D01*
X117308238Y-91406000D01*
X117165380Y-91358380D01*
X117070142Y-91358380D01*
X116927285Y-91406000D01*
X116879666Y-91453619D01*
X116498714Y-91453619D02*
X116451095Y-91406000D01*
X116355857Y-91358380D01*
X116117761Y-91358380D01*
X116022523Y-91406000D01*
X115974904Y-91453619D01*
X115927285Y-91548857D01*
X115927285Y-91644095D01*
X115974904Y-91786952D01*
X116546333Y-92358380D01*
X115927285Y-92358380D01*
%TD*%
M02*
