M48
; DRILL file {KiCad 5.1.5+dfsg1-2build2} date Mon 14 Nov 2022 11:39:03 CET
; FORMAT={-:-/ absolute / metric / decimal}
; #@! TF.CreationDate,2022-11-14T11:39:03+01:00
; #@! TF.GenerationSoftware,Kicad,Pcbnew,5.1.5+dfsg1-2build2
; #@! TF.FileFunction,Plated,1,2,PTH
FMAT,2
METRIC
T1C0.400
T2C0.500
T3C0.550
T4C1.000
%
G90
G05
T1
X102.235Y-124.079
X103.216Y-124.275
X104.288Y-109.368
X104.714Y-110.368
X105.164Y-111.379
X105.246Y-119.761
X105.971Y-118.827
X107.696Y-92.456
X108.331Y-90.297
X111.735Y-113.919
X113.895Y-131.421
X114.427Y-136.779
X114.622Y-115.645
X115.062Y-132.461
X115.316Y-139.827
X115.697Y-127.889
X116.586Y-128.651
X117.856Y-129.794
X117.983Y-135.89
X119.253Y-124.079
X119.71Y-111.684
X120.207Y-93.571
X120.847Y-124.62
X121.468Y-92.146
X122.428Y-132.842
X122.961Y-108.61
X123.393Y-118.542
X124.46Y-121.209
X124.485Y-114.935
T4
X99.949Y-124.841
X99.949Y-127.381
X99.949Y-129.921
X99.949Y-132.461
X99.949Y-135.001
X99.949Y-137.541
X99.822Y-107.569
X99.822Y-110.109
X99.822Y-112.649
X99.822Y-115.189
X99.822Y-117.729
X99.822Y-120.269
X99.695Y-91.694
X99.695Y-94.234
X99.695Y-96.774
X99.695Y-99.314
X99.695Y-101.854
X102.235Y-91.694
X102.235Y-94.234
X102.235Y-96.774
X102.235Y-99.314
X102.235Y-101.854
X105.969Y-85.242
X108.509Y-85.242
T2
X126.309Y-92.639G85X125.659Y-92.639
G05
X126.309Y-99.639G85X125.659Y-99.639
G05
T3
X123.284Y-93.489G85X123.284Y-93.789
G05
X123.284Y-98.489G85X123.284Y-98.789
G05
T0
M30
