M48
; DRILL file {KiCad 5.1.5+dfsg1-2build2} date Thu 04 Nov 2021 20:18:01 CET
; FORMAT={-:-/ absolute / inch / decimal}
; #@! TF.CreationDate,2021-11-04T20:18:01+01:00
; #@! TF.GenerationSoftware,Kicad,Pcbnew,5.1.5+dfsg1-2build2
FMAT,2
INCH
T1C0.0157
T2C0.0197
T3C0.0217
T4C0.0394
T5C0.1260
%
G90
G05
T1
X2.807Y-4.4784
X2.865Y-4.18
X2.8967Y-3.44
X2.91Y-3.85
X2.93Y-4.33
X2.945Y-4.78
X2.9685Y-3.79
X2.9948Y-4.6452
X3.005Y-4.855
X3.0215Y-3.8215
X3.025Y-3.9282
X3.0287Y-3.6063
X3.045Y-4.51
X3.06Y-4.99
X3.07Y-3.6065
X3.095Y-4.83
X3.105Y-4.46
X3.1101Y-3.606
X3.1219Y-4.235
X3.15Y-3.6065
X3.17Y-3.8215
X3.175Y-4.665
X3.185Y-4.51
X3.19Y-3.765
X3.1901Y-3.6034
X3.2312Y-3.6027
X3.245Y-4.705
X3.285Y-4.32
X3.2858Y-4.095
X3.31Y-3.6065
X3.3494Y-3.6065
X3.35Y-3.7758
X3.375Y-4.22
X3.375Y-4.38
X3.385Y-3.85
X3.3887Y-3.6065
X3.39Y-3.695
X3.4193Y-4.0665
X3.4195Y-4.1945
X3.4281Y-3.6065
X3.46Y-3.935
X3.46Y-4.615
X3.4675Y-3.6065
X3.485Y-5.05
X3.49Y-4.885
X3.5Y-4.49
X3.5358Y-4.145
X3.5929Y-4.705
X3.6244Y-4.535
X3.6244Y-4.795
X4.025Y-4.885
X4.0636Y-4.8927
X4.1058Y-4.3058
X4.1226Y-4.3452
X4.1403Y-4.385
X4.24Y-3.64
X4.265Y-3.555
X4.4841Y-5.1741
X4.505Y-5.385
X4.53Y-5.215
X4.54Y-5.505
X4.555Y-5.035
X4.59Y-5.065
X4.64Y-5.11
X4.645Y-5.35
X4.695Y-4.885
X4.7325Y-3.6839
X4.7822Y-3.6278
X4.82Y-5.23
T4
X3.935Y-4.915
X3.935Y-5.015
X3.935Y-5.115
X3.935Y-5.215
X3.935Y-5.315
X3.935Y-5.415
X4.21Y-3.39
X4.21Y-3.49
X3.925Y-3.61
X3.925Y-3.71
X3.925Y-3.81
X3.925Y-3.91
X3.925Y-4.01
X4.025Y-3.61
X4.025Y-3.71
X4.025Y-3.81
X4.025Y-3.91
X4.025Y-4.01
X3.93Y-4.235
X3.93Y-4.335
X3.93Y-4.435
X3.93Y-4.535
X3.93Y-4.635
X3.93Y-4.735
T5
X4.875Y-5.695
X3.98Y-5.695
X4.875Y-3.42
X3.98Y-3.42
T2
G00X4.9728Y-3.6472
M15
G01X4.9472Y-3.6472
M16
G05
G00X4.9728Y-3.9228
M15
G01X4.9472Y-3.9228
M16
G05
T3
G00X4.8537Y-3.6807
M15
G01X4.8537Y-3.6925
M16
G05
G00X4.8537Y-3.8775
M15
G01X4.8537Y-3.8893
M16
G05
T0
M30
