%TF.GenerationSoftware,KiCad,Pcbnew,5.1.5+dfsg1-2build2*%
%TF.CreationDate,2022-11-14T11:38:59+01:00*%
%TF.ProjectId,ebus,65627573-2e6b-4696-9361-645f70636258,rev?*%
%TF.SameCoordinates,Original*%
%TF.FileFunction,Copper,L2,Bot*%
%TF.FilePolarity,Positive*%
%FSLAX46Y46*%
G04 Gerber Fmt 4.6, Leading zero omitted, Abs format (unit mm)*
G04 Created by KiCad (PCBNEW 5.1.5+dfsg1-2build2) date 2022-11-14 11:38:59*
%MOMM*%
%LPD*%
G04 APERTURE LIST*
%TA.AperFunction,EtchedComponent*%
%ADD10C,0.001000*%
%TD*%
%TA.AperFunction,SMDPad,CuDef*%
%ADD11R,0.900000X0.800000*%
%TD*%
%TA.AperFunction,SMDPad,CuDef*%
%ADD12C,0.100000*%
%TD*%
%TA.AperFunction,ComponentPad*%
%ADD13O,1.550000X0.775000*%
%TD*%
%TA.AperFunction,SMDPad,CuDef*%
%ADD14R,1.550000X1.500000*%
%TD*%
%TA.AperFunction,ComponentPad*%
%ADD15O,0.650000X1.300000*%
%TD*%
%TA.AperFunction,SMDPad,CuDef*%
%ADD16R,1.350000X0.400000*%
%TD*%
%TA.AperFunction,SMDPad,CuDef*%
%ADD17R,2.000000X1.500000*%
%TD*%
%TA.AperFunction,SMDPad,CuDef*%
%ADD18R,2.000000X3.800000*%
%TD*%
%TA.AperFunction,ComponentPad*%
%ADD19O,1.700000X1.700000*%
%TD*%
%TA.AperFunction,ComponentPad*%
%ADD20R,1.700000X1.700000*%
%TD*%
%TA.AperFunction,SMDPad,CuDef*%
%ADD21R,2.500000X1.000000*%
%TD*%
%TA.AperFunction,SMDPad,CuDef*%
%ADD22R,1.000000X1.800000*%
%TD*%
%TA.AperFunction,SMDPad,CuDef*%
%ADD23R,2.000000X4.500000*%
%TD*%
%TA.AperFunction,ViaPad*%
%ADD24C,0.800000*%
%TD*%
%TA.AperFunction,Conductor*%
%ADD25C,0.250000*%
%TD*%
%TA.AperFunction,Conductor*%
%ADD26C,0.254000*%
%TD*%
G04 APERTURE END LIST*
D10*
%TO.C,J2*%
G36*
X126764000Y-98439000D02*
G01*
X125209000Y-98439000D01*
X125209000Y-99637000D01*
X125409000Y-99637000D01*
X125409000Y-99625000D01*
X125410000Y-99612000D01*
X125412000Y-99599000D01*
X125414000Y-99586000D01*
X125417000Y-99573000D01*
X125421000Y-99561000D01*
X125426000Y-99549000D01*
X125431000Y-99537000D01*
X125436000Y-99525000D01*
X125442000Y-99513000D01*
X125449000Y-99502000D01*
X125457000Y-99492000D01*
X125464000Y-99481000D01*
X125473000Y-99471000D01*
X125482000Y-99462000D01*
X125491000Y-99453000D01*
X125501000Y-99444000D01*
X125512000Y-99437000D01*
X125522000Y-99429000D01*
X125533000Y-99422000D01*
X125545000Y-99416000D01*
X125557000Y-99411000D01*
X125569000Y-99406000D01*
X125581000Y-99401000D01*
X125593000Y-99397000D01*
X125606000Y-99394000D01*
X125619000Y-99392000D01*
X125632000Y-99390000D01*
X125645000Y-99389000D01*
X125659000Y-99389000D01*
X125669000Y-99389000D01*
X126299000Y-99389000D01*
X126309000Y-99389000D01*
X126322000Y-99389000D01*
X126335000Y-99390000D01*
X126348000Y-99392000D01*
X126361000Y-99394000D01*
X126374000Y-99398000D01*
X126386000Y-99401000D01*
X126399000Y-99406000D01*
X126411000Y-99411000D01*
X126422000Y-99416000D01*
X126434000Y-99422000D01*
X126445000Y-99429000D01*
X126456000Y-99437000D01*
X126466000Y-99445000D01*
X126476000Y-99453000D01*
X126486000Y-99462000D01*
X126495000Y-99472000D01*
X126503000Y-99482000D01*
X126511000Y-99492000D01*
X126519000Y-99503000D01*
X126526000Y-99514000D01*
X126532000Y-99526000D01*
X126537000Y-99537000D01*
X126542000Y-99549000D01*
X126547000Y-99562000D01*
X126550000Y-99574000D01*
X126554000Y-99587000D01*
X126556000Y-99600000D01*
X126558000Y-99613000D01*
X126559000Y-99626000D01*
X126559000Y-99639000D01*
X126559000Y-99652000D01*
X126558000Y-99665000D01*
X126556000Y-99678000D01*
X126554000Y-99691000D01*
X126550000Y-99704000D01*
X126547000Y-99716000D01*
X126542000Y-99729000D01*
X126537000Y-99741000D01*
X126532000Y-99752000D01*
X126526000Y-99764000D01*
X126519000Y-99775000D01*
X126511000Y-99786000D01*
X126503000Y-99796000D01*
X126495000Y-99806000D01*
X126486000Y-99816000D01*
X126476000Y-99825000D01*
X126466000Y-99833000D01*
X126456000Y-99841000D01*
X126445000Y-99849000D01*
X126434000Y-99856000D01*
X126422000Y-99862000D01*
X126411000Y-99867000D01*
X126399000Y-99872000D01*
X126386000Y-99877000D01*
X126374000Y-99880000D01*
X126361000Y-99884000D01*
X126348000Y-99886000D01*
X126335000Y-99888000D01*
X126322000Y-99889000D01*
X126309000Y-99889000D01*
X125659000Y-99889000D01*
X125645000Y-99889000D01*
X125632000Y-99888000D01*
X125619000Y-99886000D01*
X125606000Y-99884000D01*
X125593000Y-99881000D01*
X125581000Y-99877000D01*
X125569000Y-99872000D01*
X125557000Y-99867000D01*
X125545000Y-99862000D01*
X125533000Y-99856000D01*
X125522000Y-99849000D01*
X125512000Y-99841000D01*
X125501000Y-99834000D01*
X125491000Y-99825000D01*
X125482000Y-99816000D01*
X125473000Y-99807000D01*
X125464000Y-99797000D01*
X125457000Y-99786000D01*
X125449000Y-99776000D01*
X125442000Y-99765000D01*
X125436000Y-99753000D01*
X125431000Y-99741000D01*
X125426000Y-99729000D01*
X125421000Y-99717000D01*
X125417000Y-99705000D01*
X125414000Y-99692000D01*
X125412000Y-99679000D01*
X125410000Y-99666000D01*
X125409000Y-99653000D01*
X125409000Y-99641000D01*
X125209000Y-99641000D01*
X125210000Y-99666000D01*
X125212000Y-99692000D01*
X125215000Y-99718000D01*
X125220000Y-99744000D01*
X125226000Y-99769000D01*
X125233000Y-99794000D01*
X125242000Y-99819000D01*
X125252000Y-99843000D01*
X125263000Y-99867000D01*
X125276000Y-99890000D01*
X125289000Y-99912000D01*
X125304000Y-99933000D01*
X125320000Y-99954000D01*
X125337000Y-99974000D01*
X125355000Y-99993000D01*
X125374000Y-100011000D01*
X125394000Y-100028000D01*
X125415000Y-100044000D01*
X125436000Y-100059000D01*
X125458000Y-100072000D01*
X125481000Y-100085000D01*
X125505000Y-100096000D01*
X125529000Y-100106000D01*
X125554000Y-100115000D01*
X125579000Y-100122000D01*
X125604000Y-100128000D01*
X125630000Y-100133000D01*
X125656000Y-100136000D01*
X125682000Y-100138000D01*
X125709000Y-100139000D01*
X126259000Y-100139000D01*
X126285000Y-100138000D01*
X126311000Y-100136000D01*
X126337000Y-100133000D01*
X126363000Y-100128000D01*
X126388000Y-100122000D01*
X126414000Y-100115000D01*
X126438000Y-100106000D01*
X126462000Y-100096000D01*
X126486000Y-100085000D01*
X126509000Y-100072000D01*
X126531000Y-100058000D01*
X126553000Y-100044000D01*
X126574000Y-100028000D01*
X126594000Y-100011000D01*
X126613000Y-99993000D01*
X126631000Y-99974000D01*
X126648000Y-99954000D01*
X126664000Y-99933000D01*
X126678000Y-99911000D01*
X126692000Y-99889000D01*
X126705000Y-99866000D01*
X126716000Y-99842000D01*
X126726000Y-99818000D01*
X126735000Y-99794000D01*
X126742000Y-99768000D01*
X126748000Y-99743000D01*
X126753000Y-99717000D01*
X126756000Y-99691000D01*
X126758000Y-99665000D01*
X126759000Y-99639000D01*
X126759000Y-98444000D01*
X126764000Y-98444000D01*
X126764000Y-98439000D01*
G37*
X126764000Y-98439000D02*
X125209000Y-98439000D01*
X125209000Y-99637000D01*
X125409000Y-99637000D01*
X125409000Y-99625000D01*
X125410000Y-99612000D01*
X125412000Y-99599000D01*
X125414000Y-99586000D01*
X125417000Y-99573000D01*
X125421000Y-99561000D01*
X125426000Y-99549000D01*
X125431000Y-99537000D01*
X125436000Y-99525000D01*
X125442000Y-99513000D01*
X125449000Y-99502000D01*
X125457000Y-99492000D01*
X125464000Y-99481000D01*
X125473000Y-99471000D01*
X125482000Y-99462000D01*
X125491000Y-99453000D01*
X125501000Y-99444000D01*
X125512000Y-99437000D01*
X125522000Y-99429000D01*
X125533000Y-99422000D01*
X125545000Y-99416000D01*
X125557000Y-99411000D01*
X125569000Y-99406000D01*
X125581000Y-99401000D01*
X125593000Y-99397000D01*
X125606000Y-99394000D01*
X125619000Y-99392000D01*
X125632000Y-99390000D01*
X125645000Y-99389000D01*
X125659000Y-99389000D01*
X125669000Y-99389000D01*
X126299000Y-99389000D01*
X126309000Y-99389000D01*
X126322000Y-99389000D01*
X126335000Y-99390000D01*
X126348000Y-99392000D01*
X126361000Y-99394000D01*
X126374000Y-99398000D01*
X126386000Y-99401000D01*
X126399000Y-99406000D01*
X126411000Y-99411000D01*
X126422000Y-99416000D01*
X126434000Y-99422000D01*
X126445000Y-99429000D01*
X126456000Y-99437000D01*
X126466000Y-99445000D01*
X126476000Y-99453000D01*
X126486000Y-99462000D01*
X126495000Y-99472000D01*
X126503000Y-99482000D01*
X126511000Y-99492000D01*
X126519000Y-99503000D01*
X126526000Y-99514000D01*
X126532000Y-99526000D01*
X126537000Y-99537000D01*
X126542000Y-99549000D01*
X126547000Y-99562000D01*
X126550000Y-99574000D01*
X126554000Y-99587000D01*
X126556000Y-99600000D01*
X126558000Y-99613000D01*
X126559000Y-99626000D01*
X126559000Y-99639000D01*
X126559000Y-99652000D01*
X126558000Y-99665000D01*
X126556000Y-99678000D01*
X126554000Y-99691000D01*
X126550000Y-99704000D01*
X126547000Y-99716000D01*
X126542000Y-99729000D01*
X126537000Y-99741000D01*
X126532000Y-99752000D01*
X126526000Y-99764000D01*
X126519000Y-99775000D01*
X126511000Y-99786000D01*
X126503000Y-99796000D01*
X126495000Y-99806000D01*
X126486000Y-99816000D01*
X126476000Y-99825000D01*
X126466000Y-99833000D01*
X126456000Y-99841000D01*
X126445000Y-99849000D01*
X126434000Y-99856000D01*
X126422000Y-99862000D01*
X126411000Y-99867000D01*
X126399000Y-99872000D01*
X126386000Y-99877000D01*
X126374000Y-99880000D01*
X126361000Y-99884000D01*
X126348000Y-99886000D01*
X126335000Y-99888000D01*
X126322000Y-99889000D01*
X126309000Y-99889000D01*
X125659000Y-99889000D01*
X125645000Y-99889000D01*
X125632000Y-99888000D01*
X125619000Y-99886000D01*
X125606000Y-99884000D01*
X125593000Y-99881000D01*
X125581000Y-99877000D01*
X125569000Y-99872000D01*
X125557000Y-99867000D01*
X125545000Y-99862000D01*
X125533000Y-99856000D01*
X125522000Y-99849000D01*
X125512000Y-99841000D01*
X125501000Y-99834000D01*
X125491000Y-99825000D01*
X125482000Y-99816000D01*
X125473000Y-99807000D01*
X125464000Y-99797000D01*
X125457000Y-99786000D01*
X125449000Y-99776000D01*
X125442000Y-99765000D01*
X125436000Y-99753000D01*
X125431000Y-99741000D01*
X125426000Y-99729000D01*
X125421000Y-99717000D01*
X125417000Y-99705000D01*
X125414000Y-99692000D01*
X125412000Y-99679000D01*
X125410000Y-99666000D01*
X125409000Y-99653000D01*
X125409000Y-99641000D01*
X125209000Y-99641000D01*
X125210000Y-99666000D01*
X125212000Y-99692000D01*
X125215000Y-99718000D01*
X125220000Y-99744000D01*
X125226000Y-99769000D01*
X125233000Y-99794000D01*
X125242000Y-99819000D01*
X125252000Y-99843000D01*
X125263000Y-99867000D01*
X125276000Y-99890000D01*
X125289000Y-99912000D01*
X125304000Y-99933000D01*
X125320000Y-99954000D01*
X125337000Y-99974000D01*
X125355000Y-99993000D01*
X125374000Y-100011000D01*
X125394000Y-100028000D01*
X125415000Y-100044000D01*
X125436000Y-100059000D01*
X125458000Y-100072000D01*
X125481000Y-100085000D01*
X125505000Y-100096000D01*
X125529000Y-100106000D01*
X125554000Y-100115000D01*
X125579000Y-100122000D01*
X125604000Y-100128000D01*
X125630000Y-100133000D01*
X125656000Y-100136000D01*
X125682000Y-100138000D01*
X125709000Y-100139000D01*
X126259000Y-100139000D01*
X126285000Y-100138000D01*
X126311000Y-100136000D01*
X126337000Y-100133000D01*
X126363000Y-100128000D01*
X126388000Y-100122000D01*
X126414000Y-100115000D01*
X126438000Y-100106000D01*
X126462000Y-100096000D01*
X126486000Y-100085000D01*
X126509000Y-100072000D01*
X126531000Y-100058000D01*
X126553000Y-100044000D01*
X126574000Y-100028000D01*
X126594000Y-100011000D01*
X126613000Y-99993000D01*
X126631000Y-99974000D01*
X126648000Y-99954000D01*
X126664000Y-99933000D01*
X126678000Y-99911000D01*
X126692000Y-99889000D01*
X126705000Y-99866000D01*
X126716000Y-99842000D01*
X126726000Y-99818000D01*
X126735000Y-99794000D01*
X126742000Y-99768000D01*
X126748000Y-99743000D01*
X126753000Y-99717000D01*
X126756000Y-99691000D01*
X126758000Y-99665000D01*
X126759000Y-99639000D01*
X126759000Y-98444000D01*
X126764000Y-98444000D01*
X126764000Y-98439000D01*
G36*
X125204000Y-93839000D02*
G01*
X126759000Y-93839000D01*
X126759000Y-92641000D01*
X126559000Y-92641000D01*
X126559000Y-92653000D01*
X126558000Y-92666000D01*
X126556000Y-92679000D01*
X126554000Y-92692000D01*
X126551000Y-92705000D01*
X126547000Y-92717000D01*
X126542000Y-92729000D01*
X126537000Y-92741000D01*
X126532000Y-92753000D01*
X126526000Y-92765000D01*
X126519000Y-92776000D01*
X126511000Y-92786000D01*
X126504000Y-92797000D01*
X126495000Y-92807000D01*
X126486000Y-92816000D01*
X126477000Y-92825000D01*
X126467000Y-92834000D01*
X126456000Y-92841000D01*
X126446000Y-92849000D01*
X126435000Y-92856000D01*
X126423000Y-92862000D01*
X126411000Y-92867000D01*
X126399000Y-92872000D01*
X126387000Y-92877000D01*
X126375000Y-92881000D01*
X126362000Y-92884000D01*
X126349000Y-92886000D01*
X126336000Y-92888000D01*
X126323000Y-92889000D01*
X126309000Y-92889000D01*
X126299000Y-92889000D01*
X125669000Y-92889000D01*
X125659000Y-92889000D01*
X125646000Y-92889000D01*
X125633000Y-92888000D01*
X125620000Y-92886000D01*
X125607000Y-92884000D01*
X125594000Y-92880000D01*
X125582000Y-92877000D01*
X125569000Y-92872000D01*
X125557000Y-92867000D01*
X125546000Y-92862000D01*
X125534000Y-92856000D01*
X125523000Y-92849000D01*
X125512000Y-92841000D01*
X125502000Y-92833000D01*
X125492000Y-92825000D01*
X125482000Y-92816000D01*
X125473000Y-92806000D01*
X125465000Y-92796000D01*
X125457000Y-92786000D01*
X125449000Y-92775000D01*
X125442000Y-92764000D01*
X125436000Y-92752000D01*
X125431000Y-92741000D01*
X125426000Y-92729000D01*
X125421000Y-92716000D01*
X125418000Y-92704000D01*
X125414000Y-92691000D01*
X125412000Y-92678000D01*
X125410000Y-92665000D01*
X125409000Y-92652000D01*
X125409000Y-92639000D01*
X125409000Y-92626000D01*
X125410000Y-92613000D01*
X125412000Y-92600000D01*
X125414000Y-92587000D01*
X125418000Y-92574000D01*
X125421000Y-92562000D01*
X125426000Y-92549000D01*
X125431000Y-92537000D01*
X125436000Y-92526000D01*
X125442000Y-92514000D01*
X125449000Y-92503000D01*
X125457000Y-92492000D01*
X125465000Y-92482000D01*
X125473000Y-92472000D01*
X125482000Y-92462000D01*
X125492000Y-92453000D01*
X125502000Y-92445000D01*
X125512000Y-92437000D01*
X125523000Y-92429000D01*
X125534000Y-92422000D01*
X125546000Y-92416000D01*
X125557000Y-92411000D01*
X125569000Y-92406000D01*
X125582000Y-92401000D01*
X125594000Y-92398000D01*
X125607000Y-92394000D01*
X125620000Y-92392000D01*
X125633000Y-92390000D01*
X125646000Y-92389000D01*
X125659000Y-92389000D01*
X126309000Y-92389000D01*
X126323000Y-92389000D01*
X126336000Y-92390000D01*
X126349000Y-92392000D01*
X126362000Y-92394000D01*
X126375000Y-92397000D01*
X126387000Y-92401000D01*
X126399000Y-92406000D01*
X126411000Y-92411000D01*
X126423000Y-92416000D01*
X126435000Y-92422000D01*
X126446000Y-92429000D01*
X126456000Y-92437000D01*
X126467000Y-92444000D01*
X126477000Y-92453000D01*
X126486000Y-92462000D01*
X126495000Y-92471000D01*
X126504000Y-92481000D01*
X126511000Y-92492000D01*
X126519000Y-92502000D01*
X126526000Y-92513000D01*
X126532000Y-92525000D01*
X126537000Y-92537000D01*
X126542000Y-92549000D01*
X126547000Y-92561000D01*
X126551000Y-92573000D01*
X126554000Y-92586000D01*
X126556000Y-92599000D01*
X126558000Y-92612000D01*
X126559000Y-92625000D01*
X126559000Y-92637000D01*
X126759000Y-92637000D01*
X126758000Y-92612000D01*
X126756000Y-92586000D01*
X126753000Y-92560000D01*
X126748000Y-92534000D01*
X126742000Y-92509000D01*
X126735000Y-92484000D01*
X126726000Y-92459000D01*
X126716000Y-92435000D01*
X126705000Y-92411000D01*
X126692000Y-92388000D01*
X126679000Y-92366000D01*
X126664000Y-92345000D01*
X126648000Y-92324000D01*
X126631000Y-92304000D01*
X126613000Y-92285000D01*
X126594000Y-92267000D01*
X126574000Y-92250000D01*
X126553000Y-92234000D01*
X126532000Y-92219000D01*
X126510000Y-92206000D01*
X126487000Y-92193000D01*
X126463000Y-92182000D01*
X126439000Y-92172000D01*
X126414000Y-92163000D01*
X126389000Y-92156000D01*
X126364000Y-92150000D01*
X126338000Y-92145000D01*
X126312000Y-92142000D01*
X126286000Y-92140000D01*
X126259000Y-92139000D01*
X125709000Y-92139000D01*
X125683000Y-92140000D01*
X125657000Y-92142000D01*
X125631000Y-92145000D01*
X125605000Y-92150000D01*
X125580000Y-92156000D01*
X125554000Y-92163000D01*
X125530000Y-92172000D01*
X125506000Y-92182000D01*
X125482000Y-92193000D01*
X125459000Y-92206000D01*
X125437000Y-92220000D01*
X125415000Y-92234000D01*
X125394000Y-92250000D01*
X125374000Y-92267000D01*
X125355000Y-92285000D01*
X125337000Y-92304000D01*
X125320000Y-92324000D01*
X125304000Y-92345000D01*
X125290000Y-92367000D01*
X125276000Y-92389000D01*
X125263000Y-92412000D01*
X125252000Y-92436000D01*
X125242000Y-92460000D01*
X125233000Y-92484000D01*
X125226000Y-92510000D01*
X125220000Y-92535000D01*
X125215000Y-92561000D01*
X125212000Y-92587000D01*
X125210000Y-92613000D01*
X125209000Y-92639000D01*
X125209000Y-93834000D01*
X125204000Y-93834000D01*
X125204000Y-93839000D01*
G37*
X125204000Y-93839000D02*
X126759000Y-93839000D01*
X126759000Y-92641000D01*
X126559000Y-92641000D01*
X126559000Y-92653000D01*
X126558000Y-92666000D01*
X126556000Y-92679000D01*
X126554000Y-92692000D01*
X126551000Y-92705000D01*
X126547000Y-92717000D01*
X126542000Y-92729000D01*
X126537000Y-92741000D01*
X126532000Y-92753000D01*
X126526000Y-92765000D01*
X126519000Y-92776000D01*
X126511000Y-92786000D01*
X126504000Y-92797000D01*
X126495000Y-92807000D01*
X126486000Y-92816000D01*
X126477000Y-92825000D01*
X126467000Y-92834000D01*
X126456000Y-92841000D01*
X126446000Y-92849000D01*
X126435000Y-92856000D01*
X126423000Y-92862000D01*
X126411000Y-92867000D01*
X126399000Y-92872000D01*
X126387000Y-92877000D01*
X126375000Y-92881000D01*
X126362000Y-92884000D01*
X126349000Y-92886000D01*
X126336000Y-92888000D01*
X126323000Y-92889000D01*
X126309000Y-92889000D01*
X126299000Y-92889000D01*
X125669000Y-92889000D01*
X125659000Y-92889000D01*
X125646000Y-92889000D01*
X125633000Y-92888000D01*
X125620000Y-92886000D01*
X125607000Y-92884000D01*
X125594000Y-92880000D01*
X125582000Y-92877000D01*
X125569000Y-92872000D01*
X125557000Y-92867000D01*
X125546000Y-92862000D01*
X125534000Y-92856000D01*
X125523000Y-92849000D01*
X125512000Y-92841000D01*
X125502000Y-92833000D01*
X125492000Y-92825000D01*
X125482000Y-92816000D01*
X125473000Y-92806000D01*
X125465000Y-92796000D01*
X125457000Y-92786000D01*
X125449000Y-92775000D01*
X125442000Y-92764000D01*
X125436000Y-92752000D01*
X125431000Y-92741000D01*
X125426000Y-92729000D01*
X125421000Y-92716000D01*
X125418000Y-92704000D01*
X125414000Y-92691000D01*
X125412000Y-92678000D01*
X125410000Y-92665000D01*
X125409000Y-92652000D01*
X125409000Y-92639000D01*
X125409000Y-92626000D01*
X125410000Y-92613000D01*
X125412000Y-92600000D01*
X125414000Y-92587000D01*
X125418000Y-92574000D01*
X125421000Y-92562000D01*
X125426000Y-92549000D01*
X125431000Y-92537000D01*
X125436000Y-92526000D01*
X125442000Y-92514000D01*
X125449000Y-92503000D01*
X125457000Y-92492000D01*
X125465000Y-92482000D01*
X125473000Y-92472000D01*
X125482000Y-92462000D01*
X125492000Y-92453000D01*
X125502000Y-92445000D01*
X125512000Y-92437000D01*
X125523000Y-92429000D01*
X125534000Y-92422000D01*
X125546000Y-92416000D01*
X125557000Y-92411000D01*
X125569000Y-92406000D01*
X125582000Y-92401000D01*
X125594000Y-92398000D01*
X125607000Y-92394000D01*
X125620000Y-92392000D01*
X125633000Y-92390000D01*
X125646000Y-92389000D01*
X125659000Y-92389000D01*
X126309000Y-92389000D01*
X126323000Y-92389000D01*
X126336000Y-92390000D01*
X126349000Y-92392000D01*
X126362000Y-92394000D01*
X126375000Y-92397000D01*
X126387000Y-92401000D01*
X126399000Y-92406000D01*
X126411000Y-92411000D01*
X126423000Y-92416000D01*
X126435000Y-92422000D01*
X126446000Y-92429000D01*
X126456000Y-92437000D01*
X126467000Y-92444000D01*
X126477000Y-92453000D01*
X126486000Y-92462000D01*
X126495000Y-92471000D01*
X126504000Y-92481000D01*
X126511000Y-92492000D01*
X126519000Y-92502000D01*
X126526000Y-92513000D01*
X126532000Y-92525000D01*
X126537000Y-92537000D01*
X126542000Y-92549000D01*
X126547000Y-92561000D01*
X126551000Y-92573000D01*
X126554000Y-92586000D01*
X126556000Y-92599000D01*
X126558000Y-92612000D01*
X126559000Y-92625000D01*
X126559000Y-92637000D01*
X126759000Y-92637000D01*
X126758000Y-92612000D01*
X126756000Y-92586000D01*
X126753000Y-92560000D01*
X126748000Y-92534000D01*
X126742000Y-92509000D01*
X126735000Y-92484000D01*
X126726000Y-92459000D01*
X126716000Y-92435000D01*
X126705000Y-92411000D01*
X126692000Y-92388000D01*
X126679000Y-92366000D01*
X126664000Y-92345000D01*
X126648000Y-92324000D01*
X126631000Y-92304000D01*
X126613000Y-92285000D01*
X126594000Y-92267000D01*
X126574000Y-92250000D01*
X126553000Y-92234000D01*
X126532000Y-92219000D01*
X126510000Y-92206000D01*
X126487000Y-92193000D01*
X126463000Y-92182000D01*
X126439000Y-92172000D01*
X126414000Y-92163000D01*
X126389000Y-92156000D01*
X126364000Y-92150000D01*
X126338000Y-92145000D01*
X126312000Y-92142000D01*
X126286000Y-92140000D01*
X126259000Y-92139000D01*
X125709000Y-92139000D01*
X125683000Y-92140000D01*
X125657000Y-92142000D01*
X125631000Y-92145000D01*
X125605000Y-92150000D01*
X125580000Y-92156000D01*
X125554000Y-92163000D01*
X125530000Y-92172000D01*
X125506000Y-92182000D01*
X125482000Y-92193000D01*
X125459000Y-92206000D01*
X125437000Y-92220000D01*
X125415000Y-92234000D01*
X125394000Y-92250000D01*
X125374000Y-92267000D01*
X125355000Y-92285000D01*
X125337000Y-92304000D01*
X125320000Y-92324000D01*
X125304000Y-92345000D01*
X125290000Y-92367000D01*
X125276000Y-92389000D01*
X125263000Y-92412000D01*
X125252000Y-92436000D01*
X125242000Y-92460000D01*
X125233000Y-92484000D01*
X125226000Y-92510000D01*
X125220000Y-92535000D01*
X125215000Y-92561000D01*
X125212000Y-92587000D01*
X125210000Y-92613000D01*
X125209000Y-92639000D01*
X125209000Y-93834000D01*
X125204000Y-93834000D01*
X125204000Y-93839000D01*
%TD*%
D11*
%TO.P,Q3,3*%
%TO.N,GPIO0*%
X123529600Y-113741200D03*
%TO.P,Q3,2*%
%TO.N,Net-(Q3-Pad2)*%
X121529600Y-112791200D03*
%TO.P,Q3,1*%
%TO.N,Net-(Q3-Pad1)*%
X121529600Y-114691200D03*
%TD*%
%TA.AperFunction,SMDPad,CuDef*%
D12*
%TO.P,R2,2*%
%TO.N,Net-(Q3-Pad2)*%
G36*
X122594904Y-119318004D02*
G01*
X122619173Y-119321604D01*
X122642971Y-119327565D01*
X122666071Y-119335830D01*
X122688249Y-119346320D01*
X122709293Y-119358933D01*
X122728998Y-119373547D01*
X122747177Y-119390023D01*
X122763653Y-119408202D01*
X122778267Y-119427907D01*
X122790880Y-119448951D01*
X122801370Y-119471129D01*
X122809635Y-119494229D01*
X122815596Y-119518027D01*
X122819196Y-119542296D01*
X122820400Y-119566800D01*
X122820400Y-120316800D01*
X122819196Y-120341304D01*
X122815596Y-120365573D01*
X122809635Y-120389371D01*
X122801370Y-120412471D01*
X122790880Y-120434649D01*
X122778267Y-120455693D01*
X122763653Y-120475398D01*
X122747177Y-120493577D01*
X122728998Y-120510053D01*
X122709293Y-120524667D01*
X122688249Y-120537280D01*
X122666071Y-120547770D01*
X122642971Y-120556035D01*
X122619173Y-120561996D01*
X122594904Y-120565596D01*
X122570400Y-120566800D01*
X121320400Y-120566800D01*
X121295896Y-120565596D01*
X121271627Y-120561996D01*
X121247829Y-120556035D01*
X121224729Y-120547770D01*
X121202551Y-120537280D01*
X121181507Y-120524667D01*
X121161802Y-120510053D01*
X121143623Y-120493577D01*
X121127147Y-120475398D01*
X121112533Y-120455693D01*
X121099920Y-120434649D01*
X121089430Y-120412471D01*
X121081165Y-120389371D01*
X121075204Y-120365573D01*
X121071604Y-120341304D01*
X121070400Y-120316800D01*
X121070400Y-119566800D01*
X121071604Y-119542296D01*
X121075204Y-119518027D01*
X121081165Y-119494229D01*
X121089430Y-119471129D01*
X121099920Y-119448951D01*
X121112533Y-119427907D01*
X121127147Y-119408202D01*
X121143623Y-119390023D01*
X121161802Y-119373547D01*
X121181507Y-119358933D01*
X121202551Y-119346320D01*
X121224729Y-119335830D01*
X121247829Y-119327565D01*
X121271627Y-119321604D01*
X121295896Y-119318004D01*
X121320400Y-119316800D01*
X122570400Y-119316800D01*
X122594904Y-119318004D01*
G37*
%TD.AperFunction*%
%TA.AperFunction,SMDPad,CuDef*%
%TO.P,R2,1*%
%TO.N,Net-(Q2-Pad1)*%
G36*
X122594904Y-116518004D02*
G01*
X122619173Y-116521604D01*
X122642971Y-116527565D01*
X122666071Y-116535830D01*
X122688249Y-116546320D01*
X122709293Y-116558933D01*
X122728998Y-116573547D01*
X122747177Y-116590023D01*
X122763653Y-116608202D01*
X122778267Y-116627907D01*
X122790880Y-116648951D01*
X122801370Y-116671129D01*
X122809635Y-116694229D01*
X122815596Y-116718027D01*
X122819196Y-116742296D01*
X122820400Y-116766800D01*
X122820400Y-117516800D01*
X122819196Y-117541304D01*
X122815596Y-117565573D01*
X122809635Y-117589371D01*
X122801370Y-117612471D01*
X122790880Y-117634649D01*
X122778267Y-117655693D01*
X122763653Y-117675398D01*
X122747177Y-117693577D01*
X122728998Y-117710053D01*
X122709293Y-117724667D01*
X122688249Y-117737280D01*
X122666071Y-117747770D01*
X122642971Y-117756035D01*
X122619173Y-117761996D01*
X122594904Y-117765596D01*
X122570400Y-117766800D01*
X121320400Y-117766800D01*
X121295896Y-117765596D01*
X121271627Y-117761996D01*
X121247829Y-117756035D01*
X121224729Y-117747770D01*
X121202551Y-117737280D01*
X121181507Y-117724667D01*
X121161802Y-117710053D01*
X121143623Y-117693577D01*
X121127147Y-117675398D01*
X121112533Y-117655693D01*
X121099920Y-117634649D01*
X121089430Y-117612471D01*
X121081165Y-117589371D01*
X121075204Y-117565573D01*
X121071604Y-117541304D01*
X121070400Y-117516800D01*
X121070400Y-116766800D01*
X121071604Y-116742296D01*
X121075204Y-116718027D01*
X121081165Y-116694229D01*
X121089430Y-116671129D01*
X121099920Y-116648951D01*
X121112533Y-116627907D01*
X121127147Y-116608202D01*
X121143623Y-116590023D01*
X121161802Y-116573547D01*
X121181507Y-116558933D01*
X121202551Y-116546320D01*
X121224729Y-116535830D01*
X121247829Y-116527565D01*
X121271627Y-116521604D01*
X121295896Y-116518004D01*
X121320400Y-116516800D01*
X122570400Y-116516800D01*
X122594904Y-116518004D01*
G37*
%TD.AperFunction*%
%TD*%
%TA.AperFunction,SMDPad,CuDef*%
%TO.P,R5,2*%
%TO.N,Net-(Q2-Pad2)*%
G36*
X125261904Y-119318004D02*
G01*
X125286173Y-119321604D01*
X125309971Y-119327565D01*
X125333071Y-119335830D01*
X125355249Y-119346320D01*
X125376293Y-119358933D01*
X125395998Y-119373547D01*
X125414177Y-119390023D01*
X125430653Y-119408202D01*
X125445267Y-119427907D01*
X125457880Y-119448951D01*
X125468370Y-119471129D01*
X125476635Y-119494229D01*
X125482596Y-119518027D01*
X125486196Y-119542296D01*
X125487400Y-119566800D01*
X125487400Y-120316800D01*
X125486196Y-120341304D01*
X125482596Y-120365573D01*
X125476635Y-120389371D01*
X125468370Y-120412471D01*
X125457880Y-120434649D01*
X125445267Y-120455693D01*
X125430653Y-120475398D01*
X125414177Y-120493577D01*
X125395998Y-120510053D01*
X125376293Y-120524667D01*
X125355249Y-120537280D01*
X125333071Y-120547770D01*
X125309971Y-120556035D01*
X125286173Y-120561996D01*
X125261904Y-120565596D01*
X125237400Y-120566800D01*
X123987400Y-120566800D01*
X123962896Y-120565596D01*
X123938627Y-120561996D01*
X123914829Y-120556035D01*
X123891729Y-120547770D01*
X123869551Y-120537280D01*
X123848507Y-120524667D01*
X123828802Y-120510053D01*
X123810623Y-120493577D01*
X123794147Y-120475398D01*
X123779533Y-120455693D01*
X123766920Y-120434649D01*
X123756430Y-120412471D01*
X123748165Y-120389371D01*
X123742204Y-120365573D01*
X123738604Y-120341304D01*
X123737400Y-120316800D01*
X123737400Y-119566800D01*
X123738604Y-119542296D01*
X123742204Y-119518027D01*
X123748165Y-119494229D01*
X123756430Y-119471129D01*
X123766920Y-119448951D01*
X123779533Y-119427907D01*
X123794147Y-119408202D01*
X123810623Y-119390023D01*
X123828802Y-119373547D01*
X123848507Y-119358933D01*
X123869551Y-119346320D01*
X123891729Y-119335830D01*
X123914829Y-119327565D01*
X123938627Y-119321604D01*
X123962896Y-119318004D01*
X123987400Y-119316800D01*
X125237400Y-119316800D01*
X125261904Y-119318004D01*
G37*
%TD.AperFunction*%
%TA.AperFunction,SMDPad,CuDef*%
%TO.P,R5,1*%
%TO.N,Net-(Q3-Pad1)*%
G36*
X125261904Y-116518004D02*
G01*
X125286173Y-116521604D01*
X125309971Y-116527565D01*
X125333071Y-116535830D01*
X125355249Y-116546320D01*
X125376293Y-116558933D01*
X125395998Y-116573547D01*
X125414177Y-116590023D01*
X125430653Y-116608202D01*
X125445267Y-116627907D01*
X125457880Y-116648951D01*
X125468370Y-116671129D01*
X125476635Y-116694229D01*
X125482596Y-116718027D01*
X125486196Y-116742296D01*
X125487400Y-116766800D01*
X125487400Y-117516800D01*
X125486196Y-117541304D01*
X125482596Y-117565573D01*
X125476635Y-117589371D01*
X125468370Y-117612471D01*
X125457880Y-117634649D01*
X125445267Y-117655693D01*
X125430653Y-117675398D01*
X125414177Y-117693577D01*
X125395998Y-117710053D01*
X125376293Y-117724667D01*
X125355249Y-117737280D01*
X125333071Y-117747770D01*
X125309971Y-117756035D01*
X125286173Y-117761996D01*
X125261904Y-117765596D01*
X125237400Y-117766800D01*
X123987400Y-117766800D01*
X123962896Y-117765596D01*
X123938627Y-117761996D01*
X123914829Y-117756035D01*
X123891729Y-117747770D01*
X123869551Y-117737280D01*
X123848507Y-117724667D01*
X123828802Y-117710053D01*
X123810623Y-117693577D01*
X123794147Y-117675398D01*
X123779533Y-117655693D01*
X123766920Y-117634649D01*
X123756430Y-117612471D01*
X123748165Y-117589371D01*
X123742204Y-117565573D01*
X123738604Y-117541304D01*
X123737400Y-117516800D01*
X123737400Y-116766800D01*
X123738604Y-116742296D01*
X123742204Y-116718027D01*
X123748165Y-116694229D01*
X123756430Y-116671129D01*
X123766920Y-116648951D01*
X123779533Y-116627907D01*
X123794147Y-116608202D01*
X123810623Y-116590023D01*
X123828802Y-116573547D01*
X123848507Y-116558933D01*
X123869551Y-116546320D01*
X123891729Y-116535830D01*
X123914829Y-116527565D01*
X123938627Y-116521604D01*
X123962896Y-116518004D01*
X123987400Y-116516800D01*
X125237400Y-116516800D01*
X125261904Y-116518004D01*
G37*
%TD.AperFunction*%
%TD*%
%TA.AperFunction,SMDPad,CuDef*%
%TO.P,U7,16*%
%TO.N,+3V3*%
G36*
X114212703Y-117384722D02*
G01*
X114227264Y-117386882D01*
X114241543Y-117390459D01*
X114255403Y-117395418D01*
X114268710Y-117401712D01*
X114281336Y-117409280D01*
X114293159Y-117418048D01*
X114304066Y-117427934D01*
X114313952Y-117438841D01*
X114322720Y-117450664D01*
X114330288Y-117463290D01*
X114336582Y-117476597D01*
X114341541Y-117490457D01*
X114345118Y-117504736D01*
X114347278Y-117519297D01*
X114348000Y-117534000D01*
X114348000Y-117834000D01*
X114347278Y-117848703D01*
X114345118Y-117863264D01*
X114341541Y-117877543D01*
X114336582Y-117891403D01*
X114330288Y-117904710D01*
X114322720Y-117917336D01*
X114313952Y-117929159D01*
X114304066Y-117940066D01*
X114293159Y-117949952D01*
X114281336Y-117958720D01*
X114268710Y-117966288D01*
X114255403Y-117972582D01*
X114241543Y-117977541D01*
X114227264Y-117981118D01*
X114212703Y-117983278D01*
X114198000Y-117984000D01*
X112548000Y-117984000D01*
X112533297Y-117983278D01*
X112518736Y-117981118D01*
X112504457Y-117977541D01*
X112490597Y-117972582D01*
X112477290Y-117966288D01*
X112464664Y-117958720D01*
X112452841Y-117949952D01*
X112441934Y-117940066D01*
X112432048Y-117929159D01*
X112423280Y-117917336D01*
X112415712Y-117904710D01*
X112409418Y-117891403D01*
X112404459Y-117877543D01*
X112400882Y-117863264D01*
X112398722Y-117848703D01*
X112398000Y-117834000D01*
X112398000Y-117534000D01*
X112398722Y-117519297D01*
X112400882Y-117504736D01*
X112404459Y-117490457D01*
X112409418Y-117476597D01*
X112415712Y-117463290D01*
X112423280Y-117450664D01*
X112432048Y-117438841D01*
X112441934Y-117427934D01*
X112452841Y-117418048D01*
X112464664Y-117409280D01*
X112477290Y-117401712D01*
X112490597Y-117395418D01*
X112504457Y-117390459D01*
X112518736Y-117386882D01*
X112533297Y-117384722D01*
X112548000Y-117384000D01*
X114198000Y-117384000D01*
X114212703Y-117384722D01*
G37*
%TD.AperFunction*%
%TA.AperFunction,SMDPad,CuDef*%
%TO.P,U7,15*%
%TO.N,N/C*%
G36*
X114212703Y-116114722D02*
G01*
X114227264Y-116116882D01*
X114241543Y-116120459D01*
X114255403Y-116125418D01*
X114268710Y-116131712D01*
X114281336Y-116139280D01*
X114293159Y-116148048D01*
X114304066Y-116157934D01*
X114313952Y-116168841D01*
X114322720Y-116180664D01*
X114330288Y-116193290D01*
X114336582Y-116206597D01*
X114341541Y-116220457D01*
X114345118Y-116234736D01*
X114347278Y-116249297D01*
X114348000Y-116264000D01*
X114348000Y-116564000D01*
X114347278Y-116578703D01*
X114345118Y-116593264D01*
X114341541Y-116607543D01*
X114336582Y-116621403D01*
X114330288Y-116634710D01*
X114322720Y-116647336D01*
X114313952Y-116659159D01*
X114304066Y-116670066D01*
X114293159Y-116679952D01*
X114281336Y-116688720D01*
X114268710Y-116696288D01*
X114255403Y-116702582D01*
X114241543Y-116707541D01*
X114227264Y-116711118D01*
X114212703Y-116713278D01*
X114198000Y-116714000D01*
X112548000Y-116714000D01*
X112533297Y-116713278D01*
X112518736Y-116711118D01*
X112504457Y-116707541D01*
X112490597Y-116702582D01*
X112477290Y-116696288D01*
X112464664Y-116688720D01*
X112452841Y-116679952D01*
X112441934Y-116670066D01*
X112432048Y-116659159D01*
X112423280Y-116647336D01*
X112415712Y-116634710D01*
X112409418Y-116621403D01*
X112404459Y-116607543D01*
X112400882Y-116593264D01*
X112398722Y-116578703D01*
X112398000Y-116564000D01*
X112398000Y-116264000D01*
X112398722Y-116249297D01*
X112400882Y-116234736D01*
X112404459Y-116220457D01*
X112409418Y-116206597D01*
X112415712Y-116193290D01*
X112423280Y-116180664D01*
X112432048Y-116168841D01*
X112441934Y-116157934D01*
X112452841Y-116148048D01*
X112464664Y-116139280D01*
X112477290Y-116131712D01*
X112490597Y-116125418D01*
X112504457Y-116120459D01*
X112518736Y-116116882D01*
X112533297Y-116114722D01*
X112548000Y-116114000D01*
X114198000Y-116114000D01*
X114212703Y-116114722D01*
G37*
%TD.AperFunction*%
%TA.AperFunction,SMDPad,CuDef*%
%TO.P,U7,14*%
%TO.N,Net-(Q2-Pad2)*%
G36*
X114212703Y-114844722D02*
G01*
X114227264Y-114846882D01*
X114241543Y-114850459D01*
X114255403Y-114855418D01*
X114268710Y-114861712D01*
X114281336Y-114869280D01*
X114293159Y-114878048D01*
X114304066Y-114887934D01*
X114313952Y-114898841D01*
X114322720Y-114910664D01*
X114330288Y-114923290D01*
X114336582Y-114936597D01*
X114341541Y-114950457D01*
X114345118Y-114964736D01*
X114347278Y-114979297D01*
X114348000Y-114994000D01*
X114348000Y-115294000D01*
X114347278Y-115308703D01*
X114345118Y-115323264D01*
X114341541Y-115337543D01*
X114336582Y-115351403D01*
X114330288Y-115364710D01*
X114322720Y-115377336D01*
X114313952Y-115389159D01*
X114304066Y-115400066D01*
X114293159Y-115409952D01*
X114281336Y-115418720D01*
X114268710Y-115426288D01*
X114255403Y-115432582D01*
X114241543Y-115437541D01*
X114227264Y-115441118D01*
X114212703Y-115443278D01*
X114198000Y-115444000D01*
X112548000Y-115444000D01*
X112533297Y-115443278D01*
X112518736Y-115441118D01*
X112504457Y-115437541D01*
X112490597Y-115432582D01*
X112477290Y-115426288D01*
X112464664Y-115418720D01*
X112452841Y-115409952D01*
X112441934Y-115400066D01*
X112432048Y-115389159D01*
X112423280Y-115377336D01*
X112415712Y-115364710D01*
X112409418Y-115351403D01*
X112404459Y-115337543D01*
X112400882Y-115323264D01*
X112398722Y-115308703D01*
X112398000Y-115294000D01*
X112398000Y-114994000D01*
X112398722Y-114979297D01*
X112400882Y-114964736D01*
X112404459Y-114950457D01*
X112409418Y-114936597D01*
X112415712Y-114923290D01*
X112423280Y-114910664D01*
X112432048Y-114898841D01*
X112441934Y-114887934D01*
X112452841Y-114878048D01*
X112464664Y-114869280D01*
X112477290Y-114861712D01*
X112490597Y-114855418D01*
X112504457Y-114850459D01*
X112518736Y-114846882D01*
X112533297Y-114844722D01*
X112548000Y-114844000D01*
X114198000Y-114844000D01*
X114212703Y-114844722D01*
G37*
%TD.AperFunction*%
%TA.AperFunction,SMDPad,CuDef*%
%TO.P,U7,13*%
%TO.N,Net-(Q3-Pad2)*%
G36*
X114212703Y-113574722D02*
G01*
X114227264Y-113576882D01*
X114241543Y-113580459D01*
X114255403Y-113585418D01*
X114268710Y-113591712D01*
X114281336Y-113599280D01*
X114293159Y-113608048D01*
X114304066Y-113617934D01*
X114313952Y-113628841D01*
X114322720Y-113640664D01*
X114330288Y-113653290D01*
X114336582Y-113666597D01*
X114341541Y-113680457D01*
X114345118Y-113694736D01*
X114347278Y-113709297D01*
X114348000Y-113724000D01*
X114348000Y-114024000D01*
X114347278Y-114038703D01*
X114345118Y-114053264D01*
X114341541Y-114067543D01*
X114336582Y-114081403D01*
X114330288Y-114094710D01*
X114322720Y-114107336D01*
X114313952Y-114119159D01*
X114304066Y-114130066D01*
X114293159Y-114139952D01*
X114281336Y-114148720D01*
X114268710Y-114156288D01*
X114255403Y-114162582D01*
X114241543Y-114167541D01*
X114227264Y-114171118D01*
X114212703Y-114173278D01*
X114198000Y-114174000D01*
X112548000Y-114174000D01*
X112533297Y-114173278D01*
X112518736Y-114171118D01*
X112504457Y-114167541D01*
X112490597Y-114162582D01*
X112477290Y-114156288D01*
X112464664Y-114148720D01*
X112452841Y-114139952D01*
X112441934Y-114130066D01*
X112432048Y-114119159D01*
X112423280Y-114107336D01*
X112415712Y-114094710D01*
X112409418Y-114081403D01*
X112404459Y-114067543D01*
X112400882Y-114053264D01*
X112398722Y-114038703D01*
X112398000Y-114024000D01*
X112398000Y-113724000D01*
X112398722Y-113709297D01*
X112400882Y-113694736D01*
X112404459Y-113680457D01*
X112409418Y-113666597D01*
X112415712Y-113653290D01*
X112423280Y-113640664D01*
X112432048Y-113628841D01*
X112441934Y-113617934D01*
X112452841Y-113608048D01*
X112464664Y-113599280D01*
X112477290Y-113591712D01*
X112490597Y-113585418D01*
X112504457Y-113580459D01*
X112518736Y-113576882D01*
X112533297Y-113574722D01*
X112548000Y-113574000D01*
X114198000Y-113574000D01*
X114212703Y-113574722D01*
G37*
%TD.AperFunction*%
%TA.AperFunction,SMDPad,CuDef*%
%TO.P,U7,12*%
%TO.N,N/C*%
G36*
X114212703Y-112304722D02*
G01*
X114227264Y-112306882D01*
X114241543Y-112310459D01*
X114255403Y-112315418D01*
X114268710Y-112321712D01*
X114281336Y-112329280D01*
X114293159Y-112338048D01*
X114304066Y-112347934D01*
X114313952Y-112358841D01*
X114322720Y-112370664D01*
X114330288Y-112383290D01*
X114336582Y-112396597D01*
X114341541Y-112410457D01*
X114345118Y-112424736D01*
X114347278Y-112439297D01*
X114348000Y-112454000D01*
X114348000Y-112754000D01*
X114347278Y-112768703D01*
X114345118Y-112783264D01*
X114341541Y-112797543D01*
X114336582Y-112811403D01*
X114330288Y-112824710D01*
X114322720Y-112837336D01*
X114313952Y-112849159D01*
X114304066Y-112860066D01*
X114293159Y-112869952D01*
X114281336Y-112878720D01*
X114268710Y-112886288D01*
X114255403Y-112892582D01*
X114241543Y-112897541D01*
X114227264Y-112901118D01*
X114212703Y-112903278D01*
X114198000Y-112904000D01*
X112548000Y-112904000D01*
X112533297Y-112903278D01*
X112518736Y-112901118D01*
X112504457Y-112897541D01*
X112490597Y-112892582D01*
X112477290Y-112886288D01*
X112464664Y-112878720D01*
X112452841Y-112869952D01*
X112441934Y-112860066D01*
X112432048Y-112849159D01*
X112423280Y-112837336D01*
X112415712Y-112824710D01*
X112409418Y-112811403D01*
X112404459Y-112797543D01*
X112400882Y-112783264D01*
X112398722Y-112768703D01*
X112398000Y-112754000D01*
X112398000Y-112454000D01*
X112398722Y-112439297D01*
X112400882Y-112424736D01*
X112404459Y-112410457D01*
X112409418Y-112396597D01*
X112415712Y-112383290D01*
X112423280Y-112370664D01*
X112432048Y-112358841D01*
X112441934Y-112347934D01*
X112452841Y-112338048D01*
X112464664Y-112329280D01*
X112477290Y-112321712D01*
X112490597Y-112315418D01*
X112504457Y-112310459D01*
X112518736Y-112306882D01*
X112533297Y-112304722D01*
X112548000Y-112304000D01*
X114198000Y-112304000D01*
X114212703Y-112304722D01*
G37*
%TD.AperFunction*%
%TA.AperFunction,SMDPad,CuDef*%
%TO.P,U7,11*%
G36*
X114212703Y-111034722D02*
G01*
X114227264Y-111036882D01*
X114241543Y-111040459D01*
X114255403Y-111045418D01*
X114268710Y-111051712D01*
X114281336Y-111059280D01*
X114293159Y-111068048D01*
X114304066Y-111077934D01*
X114313952Y-111088841D01*
X114322720Y-111100664D01*
X114330288Y-111113290D01*
X114336582Y-111126597D01*
X114341541Y-111140457D01*
X114345118Y-111154736D01*
X114347278Y-111169297D01*
X114348000Y-111184000D01*
X114348000Y-111484000D01*
X114347278Y-111498703D01*
X114345118Y-111513264D01*
X114341541Y-111527543D01*
X114336582Y-111541403D01*
X114330288Y-111554710D01*
X114322720Y-111567336D01*
X114313952Y-111579159D01*
X114304066Y-111590066D01*
X114293159Y-111599952D01*
X114281336Y-111608720D01*
X114268710Y-111616288D01*
X114255403Y-111622582D01*
X114241543Y-111627541D01*
X114227264Y-111631118D01*
X114212703Y-111633278D01*
X114198000Y-111634000D01*
X112548000Y-111634000D01*
X112533297Y-111633278D01*
X112518736Y-111631118D01*
X112504457Y-111627541D01*
X112490597Y-111622582D01*
X112477290Y-111616288D01*
X112464664Y-111608720D01*
X112452841Y-111599952D01*
X112441934Y-111590066D01*
X112432048Y-111579159D01*
X112423280Y-111567336D01*
X112415712Y-111554710D01*
X112409418Y-111541403D01*
X112404459Y-111527543D01*
X112400882Y-111513264D01*
X112398722Y-111498703D01*
X112398000Y-111484000D01*
X112398000Y-111184000D01*
X112398722Y-111169297D01*
X112400882Y-111154736D01*
X112404459Y-111140457D01*
X112409418Y-111126597D01*
X112415712Y-111113290D01*
X112423280Y-111100664D01*
X112432048Y-111088841D01*
X112441934Y-111077934D01*
X112452841Y-111068048D01*
X112464664Y-111059280D01*
X112477290Y-111051712D01*
X112490597Y-111045418D01*
X112504457Y-111040459D01*
X112518736Y-111036882D01*
X112533297Y-111034722D01*
X112548000Y-111034000D01*
X114198000Y-111034000D01*
X114212703Y-111034722D01*
G37*
%TD.AperFunction*%
%TA.AperFunction,SMDPad,CuDef*%
%TO.P,U7,10*%
G36*
X114212703Y-109764722D02*
G01*
X114227264Y-109766882D01*
X114241543Y-109770459D01*
X114255403Y-109775418D01*
X114268710Y-109781712D01*
X114281336Y-109789280D01*
X114293159Y-109798048D01*
X114304066Y-109807934D01*
X114313952Y-109818841D01*
X114322720Y-109830664D01*
X114330288Y-109843290D01*
X114336582Y-109856597D01*
X114341541Y-109870457D01*
X114345118Y-109884736D01*
X114347278Y-109899297D01*
X114348000Y-109914000D01*
X114348000Y-110214000D01*
X114347278Y-110228703D01*
X114345118Y-110243264D01*
X114341541Y-110257543D01*
X114336582Y-110271403D01*
X114330288Y-110284710D01*
X114322720Y-110297336D01*
X114313952Y-110309159D01*
X114304066Y-110320066D01*
X114293159Y-110329952D01*
X114281336Y-110338720D01*
X114268710Y-110346288D01*
X114255403Y-110352582D01*
X114241543Y-110357541D01*
X114227264Y-110361118D01*
X114212703Y-110363278D01*
X114198000Y-110364000D01*
X112548000Y-110364000D01*
X112533297Y-110363278D01*
X112518736Y-110361118D01*
X112504457Y-110357541D01*
X112490597Y-110352582D01*
X112477290Y-110346288D01*
X112464664Y-110338720D01*
X112452841Y-110329952D01*
X112441934Y-110320066D01*
X112432048Y-110309159D01*
X112423280Y-110297336D01*
X112415712Y-110284710D01*
X112409418Y-110271403D01*
X112404459Y-110257543D01*
X112400882Y-110243264D01*
X112398722Y-110228703D01*
X112398000Y-110214000D01*
X112398000Y-109914000D01*
X112398722Y-109899297D01*
X112400882Y-109884736D01*
X112404459Y-109870457D01*
X112409418Y-109856597D01*
X112415712Y-109843290D01*
X112423280Y-109830664D01*
X112432048Y-109818841D01*
X112441934Y-109807934D01*
X112452841Y-109798048D01*
X112464664Y-109789280D01*
X112477290Y-109781712D01*
X112490597Y-109775418D01*
X112504457Y-109770459D01*
X112518736Y-109766882D01*
X112533297Y-109764722D01*
X112548000Y-109764000D01*
X114198000Y-109764000D01*
X114212703Y-109764722D01*
G37*
%TD.AperFunction*%
%TA.AperFunction,SMDPad,CuDef*%
%TO.P,U7,9*%
G36*
X114212703Y-108494722D02*
G01*
X114227264Y-108496882D01*
X114241543Y-108500459D01*
X114255403Y-108505418D01*
X114268710Y-108511712D01*
X114281336Y-108519280D01*
X114293159Y-108528048D01*
X114304066Y-108537934D01*
X114313952Y-108548841D01*
X114322720Y-108560664D01*
X114330288Y-108573290D01*
X114336582Y-108586597D01*
X114341541Y-108600457D01*
X114345118Y-108614736D01*
X114347278Y-108629297D01*
X114348000Y-108644000D01*
X114348000Y-108944000D01*
X114347278Y-108958703D01*
X114345118Y-108973264D01*
X114341541Y-108987543D01*
X114336582Y-109001403D01*
X114330288Y-109014710D01*
X114322720Y-109027336D01*
X114313952Y-109039159D01*
X114304066Y-109050066D01*
X114293159Y-109059952D01*
X114281336Y-109068720D01*
X114268710Y-109076288D01*
X114255403Y-109082582D01*
X114241543Y-109087541D01*
X114227264Y-109091118D01*
X114212703Y-109093278D01*
X114198000Y-109094000D01*
X112548000Y-109094000D01*
X112533297Y-109093278D01*
X112518736Y-109091118D01*
X112504457Y-109087541D01*
X112490597Y-109082582D01*
X112477290Y-109076288D01*
X112464664Y-109068720D01*
X112452841Y-109059952D01*
X112441934Y-109050066D01*
X112432048Y-109039159D01*
X112423280Y-109027336D01*
X112415712Y-109014710D01*
X112409418Y-109001403D01*
X112404459Y-108987543D01*
X112400882Y-108973264D01*
X112398722Y-108958703D01*
X112398000Y-108944000D01*
X112398000Y-108644000D01*
X112398722Y-108629297D01*
X112400882Y-108614736D01*
X112404459Y-108600457D01*
X112409418Y-108586597D01*
X112415712Y-108573290D01*
X112423280Y-108560664D01*
X112432048Y-108548841D01*
X112441934Y-108537934D01*
X112452841Y-108528048D01*
X112464664Y-108519280D01*
X112477290Y-108511712D01*
X112490597Y-108505418D01*
X112504457Y-108500459D01*
X112518736Y-108496882D01*
X112533297Y-108494722D01*
X112548000Y-108494000D01*
X114198000Y-108494000D01*
X114212703Y-108494722D01*
G37*
%TD.AperFunction*%
%TA.AperFunction,SMDPad,CuDef*%
%TO.P,U7,8*%
%TO.N,Net-(C8-Pad1)*%
G36*
X109262703Y-108494722D02*
G01*
X109277264Y-108496882D01*
X109291543Y-108500459D01*
X109305403Y-108505418D01*
X109318710Y-108511712D01*
X109331336Y-108519280D01*
X109343159Y-108528048D01*
X109354066Y-108537934D01*
X109363952Y-108548841D01*
X109372720Y-108560664D01*
X109380288Y-108573290D01*
X109386582Y-108586597D01*
X109391541Y-108600457D01*
X109395118Y-108614736D01*
X109397278Y-108629297D01*
X109398000Y-108644000D01*
X109398000Y-108944000D01*
X109397278Y-108958703D01*
X109395118Y-108973264D01*
X109391541Y-108987543D01*
X109386582Y-109001403D01*
X109380288Y-109014710D01*
X109372720Y-109027336D01*
X109363952Y-109039159D01*
X109354066Y-109050066D01*
X109343159Y-109059952D01*
X109331336Y-109068720D01*
X109318710Y-109076288D01*
X109305403Y-109082582D01*
X109291543Y-109087541D01*
X109277264Y-109091118D01*
X109262703Y-109093278D01*
X109248000Y-109094000D01*
X107598000Y-109094000D01*
X107583297Y-109093278D01*
X107568736Y-109091118D01*
X107554457Y-109087541D01*
X107540597Y-109082582D01*
X107527290Y-109076288D01*
X107514664Y-109068720D01*
X107502841Y-109059952D01*
X107491934Y-109050066D01*
X107482048Y-109039159D01*
X107473280Y-109027336D01*
X107465712Y-109014710D01*
X107459418Y-109001403D01*
X107454459Y-108987543D01*
X107450882Y-108973264D01*
X107448722Y-108958703D01*
X107448000Y-108944000D01*
X107448000Y-108644000D01*
X107448722Y-108629297D01*
X107450882Y-108614736D01*
X107454459Y-108600457D01*
X107459418Y-108586597D01*
X107465712Y-108573290D01*
X107473280Y-108560664D01*
X107482048Y-108548841D01*
X107491934Y-108537934D01*
X107502841Y-108528048D01*
X107514664Y-108519280D01*
X107527290Y-108511712D01*
X107540597Y-108505418D01*
X107554457Y-108500459D01*
X107568736Y-108496882D01*
X107583297Y-108494722D01*
X107598000Y-108494000D01*
X109248000Y-108494000D01*
X109262703Y-108494722D01*
G37*
%TD.AperFunction*%
%TA.AperFunction,SMDPad,CuDef*%
%TO.P,U7,7*%
%TO.N,Net-(C7-Pad1)*%
G36*
X109262703Y-109764722D02*
G01*
X109277264Y-109766882D01*
X109291543Y-109770459D01*
X109305403Y-109775418D01*
X109318710Y-109781712D01*
X109331336Y-109789280D01*
X109343159Y-109798048D01*
X109354066Y-109807934D01*
X109363952Y-109818841D01*
X109372720Y-109830664D01*
X109380288Y-109843290D01*
X109386582Y-109856597D01*
X109391541Y-109870457D01*
X109395118Y-109884736D01*
X109397278Y-109899297D01*
X109398000Y-109914000D01*
X109398000Y-110214000D01*
X109397278Y-110228703D01*
X109395118Y-110243264D01*
X109391541Y-110257543D01*
X109386582Y-110271403D01*
X109380288Y-110284710D01*
X109372720Y-110297336D01*
X109363952Y-110309159D01*
X109354066Y-110320066D01*
X109343159Y-110329952D01*
X109331336Y-110338720D01*
X109318710Y-110346288D01*
X109305403Y-110352582D01*
X109291543Y-110357541D01*
X109277264Y-110361118D01*
X109262703Y-110363278D01*
X109248000Y-110364000D01*
X107598000Y-110364000D01*
X107583297Y-110363278D01*
X107568736Y-110361118D01*
X107554457Y-110357541D01*
X107540597Y-110352582D01*
X107527290Y-110346288D01*
X107514664Y-110338720D01*
X107502841Y-110329952D01*
X107491934Y-110320066D01*
X107482048Y-110309159D01*
X107473280Y-110297336D01*
X107465712Y-110284710D01*
X107459418Y-110271403D01*
X107454459Y-110257543D01*
X107450882Y-110243264D01*
X107448722Y-110228703D01*
X107448000Y-110214000D01*
X107448000Y-109914000D01*
X107448722Y-109899297D01*
X107450882Y-109884736D01*
X107454459Y-109870457D01*
X107459418Y-109856597D01*
X107465712Y-109843290D01*
X107473280Y-109830664D01*
X107482048Y-109818841D01*
X107491934Y-109807934D01*
X107502841Y-109798048D01*
X107514664Y-109789280D01*
X107527290Y-109781712D01*
X107540597Y-109775418D01*
X107554457Y-109770459D01*
X107568736Y-109766882D01*
X107583297Y-109764722D01*
X107598000Y-109764000D01*
X109248000Y-109764000D01*
X109262703Y-109764722D01*
G37*
%TD.AperFunction*%
%TA.AperFunction,SMDPad,CuDef*%
%TO.P,U7,6*%
%TO.N,Net-(J2-Pad2)*%
G36*
X109262703Y-111034722D02*
G01*
X109277264Y-111036882D01*
X109291543Y-111040459D01*
X109305403Y-111045418D01*
X109318710Y-111051712D01*
X109331336Y-111059280D01*
X109343159Y-111068048D01*
X109354066Y-111077934D01*
X109363952Y-111088841D01*
X109372720Y-111100664D01*
X109380288Y-111113290D01*
X109386582Y-111126597D01*
X109391541Y-111140457D01*
X109395118Y-111154736D01*
X109397278Y-111169297D01*
X109398000Y-111184000D01*
X109398000Y-111484000D01*
X109397278Y-111498703D01*
X109395118Y-111513264D01*
X109391541Y-111527543D01*
X109386582Y-111541403D01*
X109380288Y-111554710D01*
X109372720Y-111567336D01*
X109363952Y-111579159D01*
X109354066Y-111590066D01*
X109343159Y-111599952D01*
X109331336Y-111608720D01*
X109318710Y-111616288D01*
X109305403Y-111622582D01*
X109291543Y-111627541D01*
X109277264Y-111631118D01*
X109262703Y-111633278D01*
X109248000Y-111634000D01*
X107598000Y-111634000D01*
X107583297Y-111633278D01*
X107568736Y-111631118D01*
X107554457Y-111627541D01*
X107540597Y-111622582D01*
X107527290Y-111616288D01*
X107514664Y-111608720D01*
X107502841Y-111599952D01*
X107491934Y-111590066D01*
X107482048Y-111579159D01*
X107473280Y-111567336D01*
X107465712Y-111554710D01*
X107459418Y-111541403D01*
X107454459Y-111527543D01*
X107450882Y-111513264D01*
X107448722Y-111498703D01*
X107448000Y-111484000D01*
X107448000Y-111184000D01*
X107448722Y-111169297D01*
X107450882Y-111154736D01*
X107454459Y-111140457D01*
X107459418Y-111126597D01*
X107465712Y-111113290D01*
X107473280Y-111100664D01*
X107482048Y-111088841D01*
X107491934Y-111077934D01*
X107502841Y-111068048D01*
X107514664Y-111059280D01*
X107527290Y-111051712D01*
X107540597Y-111045418D01*
X107554457Y-111040459D01*
X107568736Y-111036882D01*
X107583297Y-111034722D01*
X107598000Y-111034000D01*
X109248000Y-111034000D01*
X109262703Y-111034722D01*
G37*
%TD.AperFunction*%
%TA.AperFunction,SMDPad,CuDef*%
%TO.P,U7,5*%
%TO.N,Net-(J2-Pad3)*%
G36*
X109262703Y-112304722D02*
G01*
X109277264Y-112306882D01*
X109291543Y-112310459D01*
X109305403Y-112315418D01*
X109318710Y-112321712D01*
X109331336Y-112329280D01*
X109343159Y-112338048D01*
X109354066Y-112347934D01*
X109363952Y-112358841D01*
X109372720Y-112370664D01*
X109380288Y-112383290D01*
X109386582Y-112396597D01*
X109391541Y-112410457D01*
X109395118Y-112424736D01*
X109397278Y-112439297D01*
X109398000Y-112454000D01*
X109398000Y-112754000D01*
X109397278Y-112768703D01*
X109395118Y-112783264D01*
X109391541Y-112797543D01*
X109386582Y-112811403D01*
X109380288Y-112824710D01*
X109372720Y-112837336D01*
X109363952Y-112849159D01*
X109354066Y-112860066D01*
X109343159Y-112869952D01*
X109331336Y-112878720D01*
X109318710Y-112886288D01*
X109305403Y-112892582D01*
X109291543Y-112897541D01*
X109277264Y-112901118D01*
X109262703Y-112903278D01*
X109248000Y-112904000D01*
X107598000Y-112904000D01*
X107583297Y-112903278D01*
X107568736Y-112901118D01*
X107554457Y-112897541D01*
X107540597Y-112892582D01*
X107527290Y-112886288D01*
X107514664Y-112878720D01*
X107502841Y-112869952D01*
X107491934Y-112860066D01*
X107482048Y-112849159D01*
X107473280Y-112837336D01*
X107465712Y-112824710D01*
X107459418Y-112811403D01*
X107454459Y-112797543D01*
X107450882Y-112783264D01*
X107448722Y-112768703D01*
X107448000Y-112754000D01*
X107448000Y-112454000D01*
X107448722Y-112439297D01*
X107450882Y-112424736D01*
X107454459Y-112410457D01*
X107459418Y-112396597D01*
X107465712Y-112383290D01*
X107473280Y-112370664D01*
X107482048Y-112358841D01*
X107491934Y-112347934D01*
X107502841Y-112338048D01*
X107514664Y-112329280D01*
X107527290Y-112321712D01*
X107540597Y-112315418D01*
X107554457Y-112310459D01*
X107568736Y-112306882D01*
X107583297Y-112304722D01*
X107598000Y-112304000D01*
X109248000Y-112304000D01*
X109262703Y-112304722D01*
G37*
%TD.AperFunction*%
%TA.AperFunction,SMDPad,CuDef*%
%TO.P,U7,4*%
%TO.N,+3V3*%
G36*
X109262703Y-113574722D02*
G01*
X109277264Y-113576882D01*
X109291543Y-113580459D01*
X109305403Y-113585418D01*
X109318710Y-113591712D01*
X109331336Y-113599280D01*
X109343159Y-113608048D01*
X109354066Y-113617934D01*
X109363952Y-113628841D01*
X109372720Y-113640664D01*
X109380288Y-113653290D01*
X109386582Y-113666597D01*
X109391541Y-113680457D01*
X109395118Y-113694736D01*
X109397278Y-113709297D01*
X109398000Y-113724000D01*
X109398000Y-114024000D01*
X109397278Y-114038703D01*
X109395118Y-114053264D01*
X109391541Y-114067543D01*
X109386582Y-114081403D01*
X109380288Y-114094710D01*
X109372720Y-114107336D01*
X109363952Y-114119159D01*
X109354066Y-114130066D01*
X109343159Y-114139952D01*
X109331336Y-114148720D01*
X109318710Y-114156288D01*
X109305403Y-114162582D01*
X109291543Y-114167541D01*
X109277264Y-114171118D01*
X109262703Y-114173278D01*
X109248000Y-114174000D01*
X107598000Y-114174000D01*
X107583297Y-114173278D01*
X107568736Y-114171118D01*
X107554457Y-114167541D01*
X107540597Y-114162582D01*
X107527290Y-114156288D01*
X107514664Y-114148720D01*
X107502841Y-114139952D01*
X107491934Y-114130066D01*
X107482048Y-114119159D01*
X107473280Y-114107336D01*
X107465712Y-114094710D01*
X107459418Y-114081403D01*
X107454459Y-114067543D01*
X107450882Y-114053264D01*
X107448722Y-114038703D01*
X107448000Y-114024000D01*
X107448000Y-113724000D01*
X107448722Y-113709297D01*
X107450882Y-113694736D01*
X107454459Y-113680457D01*
X107459418Y-113666597D01*
X107465712Y-113653290D01*
X107473280Y-113640664D01*
X107482048Y-113628841D01*
X107491934Y-113617934D01*
X107502841Y-113608048D01*
X107514664Y-113599280D01*
X107527290Y-113591712D01*
X107540597Y-113585418D01*
X107554457Y-113580459D01*
X107568736Y-113576882D01*
X107583297Y-113574722D01*
X107598000Y-113574000D01*
X109248000Y-113574000D01*
X109262703Y-113574722D01*
G37*
%TD.AperFunction*%
%TA.AperFunction,SMDPad,CuDef*%
%TO.P,U7,3*%
%TO.N,P_TX*%
G36*
X109262703Y-114844722D02*
G01*
X109277264Y-114846882D01*
X109291543Y-114850459D01*
X109305403Y-114855418D01*
X109318710Y-114861712D01*
X109331336Y-114869280D01*
X109343159Y-114878048D01*
X109354066Y-114887934D01*
X109363952Y-114898841D01*
X109372720Y-114910664D01*
X109380288Y-114923290D01*
X109386582Y-114936597D01*
X109391541Y-114950457D01*
X109395118Y-114964736D01*
X109397278Y-114979297D01*
X109398000Y-114994000D01*
X109398000Y-115294000D01*
X109397278Y-115308703D01*
X109395118Y-115323264D01*
X109391541Y-115337543D01*
X109386582Y-115351403D01*
X109380288Y-115364710D01*
X109372720Y-115377336D01*
X109363952Y-115389159D01*
X109354066Y-115400066D01*
X109343159Y-115409952D01*
X109331336Y-115418720D01*
X109318710Y-115426288D01*
X109305403Y-115432582D01*
X109291543Y-115437541D01*
X109277264Y-115441118D01*
X109262703Y-115443278D01*
X109248000Y-115444000D01*
X107598000Y-115444000D01*
X107583297Y-115443278D01*
X107568736Y-115441118D01*
X107554457Y-115437541D01*
X107540597Y-115432582D01*
X107527290Y-115426288D01*
X107514664Y-115418720D01*
X107502841Y-115409952D01*
X107491934Y-115400066D01*
X107482048Y-115389159D01*
X107473280Y-115377336D01*
X107465712Y-115364710D01*
X107459418Y-115351403D01*
X107454459Y-115337543D01*
X107450882Y-115323264D01*
X107448722Y-115308703D01*
X107448000Y-115294000D01*
X107448000Y-114994000D01*
X107448722Y-114979297D01*
X107450882Y-114964736D01*
X107454459Y-114950457D01*
X107459418Y-114936597D01*
X107465712Y-114923290D01*
X107473280Y-114910664D01*
X107482048Y-114898841D01*
X107491934Y-114887934D01*
X107502841Y-114878048D01*
X107514664Y-114869280D01*
X107527290Y-114861712D01*
X107540597Y-114855418D01*
X107554457Y-114850459D01*
X107568736Y-114846882D01*
X107583297Y-114844722D01*
X107598000Y-114844000D01*
X109248000Y-114844000D01*
X109262703Y-114844722D01*
G37*
%TD.AperFunction*%
%TA.AperFunction,SMDPad,CuDef*%
%TO.P,U7,2*%
%TO.N,P_RX*%
G36*
X109262703Y-116114722D02*
G01*
X109277264Y-116116882D01*
X109291543Y-116120459D01*
X109305403Y-116125418D01*
X109318710Y-116131712D01*
X109331336Y-116139280D01*
X109343159Y-116148048D01*
X109354066Y-116157934D01*
X109363952Y-116168841D01*
X109372720Y-116180664D01*
X109380288Y-116193290D01*
X109386582Y-116206597D01*
X109391541Y-116220457D01*
X109395118Y-116234736D01*
X109397278Y-116249297D01*
X109398000Y-116264000D01*
X109398000Y-116564000D01*
X109397278Y-116578703D01*
X109395118Y-116593264D01*
X109391541Y-116607543D01*
X109386582Y-116621403D01*
X109380288Y-116634710D01*
X109372720Y-116647336D01*
X109363952Y-116659159D01*
X109354066Y-116670066D01*
X109343159Y-116679952D01*
X109331336Y-116688720D01*
X109318710Y-116696288D01*
X109305403Y-116702582D01*
X109291543Y-116707541D01*
X109277264Y-116711118D01*
X109262703Y-116713278D01*
X109248000Y-116714000D01*
X107598000Y-116714000D01*
X107583297Y-116713278D01*
X107568736Y-116711118D01*
X107554457Y-116707541D01*
X107540597Y-116702582D01*
X107527290Y-116696288D01*
X107514664Y-116688720D01*
X107502841Y-116679952D01*
X107491934Y-116670066D01*
X107482048Y-116659159D01*
X107473280Y-116647336D01*
X107465712Y-116634710D01*
X107459418Y-116621403D01*
X107454459Y-116607543D01*
X107450882Y-116593264D01*
X107448722Y-116578703D01*
X107448000Y-116564000D01*
X107448000Y-116264000D01*
X107448722Y-116249297D01*
X107450882Y-116234736D01*
X107454459Y-116220457D01*
X107459418Y-116206597D01*
X107465712Y-116193290D01*
X107473280Y-116180664D01*
X107482048Y-116168841D01*
X107491934Y-116157934D01*
X107502841Y-116148048D01*
X107514664Y-116139280D01*
X107527290Y-116131712D01*
X107540597Y-116125418D01*
X107554457Y-116120459D01*
X107568736Y-116116882D01*
X107583297Y-116114722D01*
X107598000Y-116114000D01*
X109248000Y-116114000D01*
X109262703Y-116114722D01*
G37*
%TD.AperFunction*%
%TA.AperFunction,SMDPad,CuDef*%
%TO.P,U7,1*%
%TO.N,GNDREF*%
G36*
X109262703Y-117384722D02*
G01*
X109277264Y-117386882D01*
X109291543Y-117390459D01*
X109305403Y-117395418D01*
X109318710Y-117401712D01*
X109331336Y-117409280D01*
X109343159Y-117418048D01*
X109354066Y-117427934D01*
X109363952Y-117438841D01*
X109372720Y-117450664D01*
X109380288Y-117463290D01*
X109386582Y-117476597D01*
X109391541Y-117490457D01*
X109395118Y-117504736D01*
X109397278Y-117519297D01*
X109398000Y-117534000D01*
X109398000Y-117834000D01*
X109397278Y-117848703D01*
X109395118Y-117863264D01*
X109391541Y-117877543D01*
X109386582Y-117891403D01*
X109380288Y-117904710D01*
X109372720Y-117917336D01*
X109363952Y-117929159D01*
X109354066Y-117940066D01*
X109343159Y-117949952D01*
X109331336Y-117958720D01*
X109318710Y-117966288D01*
X109305403Y-117972582D01*
X109291543Y-117977541D01*
X109277264Y-117981118D01*
X109262703Y-117983278D01*
X109248000Y-117984000D01*
X107598000Y-117984000D01*
X107583297Y-117983278D01*
X107568736Y-117981118D01*
X107554457Y-117977541D01*
X107540597Y-117972582D01*
X107527290Y-117966288D01*
X107514664Y-117958720D01*
X107502841Y-117949952D01*
X107491934Y-117940066D01*
X107482048Y-117929159D01*
X107473280Y-117917336D01*
X107465712Y-117904710D01*
X107459418Y-117891403D01*
X107454459Y-117877543D01*
X107450882Y-117863264D01*
X107448722Y-117848703D01*
X107448000Y-117834000D01*
X107448000Y-117534000D01*
X107448722Y-117519297D01*
X107450882Y-117504736D01*
X107454459Y-117490457D01*
X107459418Y-117476597D01*
X107465712Y-117463290D01*
X107473280Y-117450664D01*
X107482048Y-117438841D01*
X107491934Y-117427934D01*
X107502841Y-117418048D01*
X107514664Y-117409280D01*
X107527290Y-117401712D01*
X107540597Y-117395418D01*
X107554457Y-117390459D01*
X107568736Y-117386882D01*
X107583297Y-117384722D01*
X107598000Y-117384000D01*
X109248000Y-117384000D01*
X109262703Y-117384722D01*
G37*
%TD.AperFunction*%
%TD*%
D13*
%TO.P,J2,S6*%
%TO.N,N/C*%
X125984000Y-99639000D03*
D14*
%TO.P,J2,S5*%
X125984000Y-97139000D03*
%TO.P,J2,S4*%
X125984000Y-95139000D03*
D13*
%TO.P,J2,S3*%
X125984000Y-92639000D03*
D15*
%TO.P,J2,S2*%
X123284000Y-98639000D03*
%TO.P,J2,S1*%
X123284000Y-93639000D03*
D16*
%TO.P,J2,5*%
%TO.N,GNDREF*%
X123284000Y-97439000D03*
%TO.P,J2,4*%
%TO.N,N/C*%
X123284000Y-96789000D03*
%TO.P,J2,3*%
%TO.N,Net-(J2-Pad3)*%
X123284000Y-96139000D03*
%TO.P,J2,2*%
%TO.N,Net-(J2-Pad2)*%
X123284000Y-95489000D03*
%TO.P,J2,1*%
%TO.N,+5VP*%
X123284000Y-94839000D03*
%TD*%
D17*
%TO.P,U5,1*%
%TO.N,GNDREF*%
X117780200Y-84949000D03*
%TO.P,U5,3*%
%TO.N,+5VP*%
X117780200Y-89549000D03*
%TO.P,U5,2*%
%TO.N,+3V3*%
X117780200Y-87249000D03*
D18*
X111480200Y-87249000D03*
%TD*%
%TA.AperFunction,SMDPad,CuDef*%
D12*
%TO.P,C4,2*%
%TO.N,GNDREF*%
G36*
X112543504Y-92852204D02*
G01*
X112567773Y-92855804D01*
X112591571Y-92861765D01*
X112614671Y-92870030D01*
X112636849Y-92880520D01*
X112657893Y-92893133D01*
X112677598Y-92907747D01*
X112695777Y-92924223D01*
X112712253Y-92942402D01*
X112726867Y-92962107D01*
X112739480Y-92983151D01*
X112749970Y-93005329D01*
X112758235Y-93028429D01*
X112764196Y-93052227D01*
X112767796Y-93076496D01*
X112769000Y-93101000D01*
X112769000Y-94351000D01*
X112767796Y-94375504D01*
X112764196Y-94399773D01*
X112758235Y-94423571D01*
X112749970Y-94446671D01*
X112739480Y-94468849D01*
X112726867Y-94489893D01*
X112712253Y-94509598D01*
X112695777Y-94527777D01*
X112677598Y-94544253D01*
X112657893Y-94558867D01*
X112636849Y-94571480D01*
X112614671Y-94581970D01*
X112591571Y-94590235D01*
X112567773Y-94596196D01*
X112543504Y-94599796D01*
X112519000Y-94601000D01*
X111769000Y-94601000D01*
X111744496Y-94599796D01*
X111720227Y-94596196D01*
X111696429Y-94590235D01*
X111673329Y-94581970D01*
X111651151Y-94571480D01*
X111630107Y-94558867D01*
X111610402Y-94544253D01*
X111592223Y-94527777D01*
X111575747Y-94509598D01*
X111561133Y-94489893D01*
X111548520Y-94468849D01*
X111538030Y-94446671D01*
X111529765Y-94423571D01*
X111523804Y-94399773D01*
X111520204Y-94375504D01*
X111519000Y-94351000D01*
X111519000Y-93101000D01*
X111520204Y-93076496D01*
X111523804Y-93052227D01*
X111529765Y-93028429D01*
X111538030Y-93005329D01*
X111548520Y-92983151D01*
X111561133Y-92962107D01*
X111575747Y-92942402D01*
X111592223Y-92924223D01*
X111610402Y-92907747D01*
X111630107Y-92893133D01*
X111651151Y-92880520D01*
X111673329Y-92870030D01*
X111696429Y-92861765D01*
X111720227Y-92855804D01*
X111744496Y-92852204D01*
X111769000Y-92851000D01*
X112519000Y-92851000D01*
X112543504Y-92852204D01*
G37*
%TD.AperFunction*%
%TA.AperFunction,SMDPad,CuDef*%
%TO.P,C4,1*%
%TO.N,+3V3*%
G36*
X109743504Y-92852204D02*
G01*
X109767773Y-92855804D01*
X109791571Y-92861765D01*
X109814671Y-92870030D01*
X109836849Y-92880520D01*
X109857893Y-92893133D01*
X109877598Y-92907747D01*
X109895777Y-92924223D01*
X109912253Y-92942402D01*
X109926867Y-92962107D01*
X109939480Y-92983151D01*
X109949970Y-93005329D01*
X109958235Y-93028429D01*
X109964196Y-93052227D01*
X109967796Y-93076496D01*
X109969000Y-93101000D01*
X109969000Y-94351000D01*
X109967796Y-94375504D01*
X109964196Y-94399773D01*
X109958235Y-94423571D01*
X109949970Y-94446671D01*
X109939480Y-94468849D01*
X109926867Y-94489893D01*
X109912253Y-94509598D01*
X109895777Y-94527777D01*
X109877598Y-94544253D01*
X109857893Y-94558867D01*
X109836849Y-94571480D01*
X109814671Y-94581970D01*
X109791571Y-94590235D01*
X109767773Y-94596196D01*
X109743504Y-94599796D01*
X109719000Y-94601000D01*
X108969000Y-94601000D01*
X108944496Y-94599796D01*
X108920227Y-94596196D01*
X108896429Y-94590235D01*
X108873329Y-94581970D01*
X108851151Y-94571480D01*
X108830107Y-94558867D01*
X108810402Y-94544253D01*
X108792223Y-94527777D01*
X108775747Y-94509598D01*
X108761133Y-94489893D01*
X108748520Y-94468849D01*
X108738030Y-94446671D01*
X108729765Y-94423571D01*
X108723804Y-94399773D01*
X108720204Y-94375504D01*
X108719000Y-94351000D01*
X108719000Y-93101000D01*
X108720204Y-93076496D01*
X108723804Y-93052227D01*
X108729765Y-93028429D01*
X108738030Y-93005329D01*
X108748520Y-92983151D01*
X108761133Y-92962107D01*
X108775747Y-92942402D01*
X108792223Y-92924223D01*
X108810402Y-92907747D01*
X108830107Y-92893133D01*
X108851151Y-92880520D01*
X108873329Y-92870030D01*
X108896429Y-92861765D01*
X108920227Y-92855804D01*
X108944496Y-92852204D01*
X108969000Y-92851000D01*
X109719000Y-92851000D01*
X109743504Y-92852204D01*
G37*
%TD.AperFunction*%
%TD*%
D19*
%TO.P,J5,6*%
%TO.N,GNDREF*%
X99949000Y-137541000D03*
%TO.P,J5,5*%
%TO.N,GPIO16*%
X99949000Y-135001000D03*
%TO.P,J5,4*%
%TO.N,GPIO14*%
X99949000Y-132461000D03*
%TO.P,J5,3*%
%TO.N,GPIO13*%
X99949000Y-129921000D03*
%TO.P,J5,2*%
%TO.N,GPIO12*%
X99949000Y-127381000D03*
D20*
%TO.P,J5,1*%
%TO.N,GPIO4*%
X99949000Y-124841000D03*
%TD*%
D19*
%TO.P,J4,6*%
%TO.N,RESET*%
X99822000Y-120269000D03*
%TO.P,J4,5*%
%TO.N,GPIO0*%
X99822000Y-117729000D03*
%TO.P,J4,4*%
%TO.N,GNDREF*%
X99822000Y-115189000D03*
%TO.P,J4,3*%
%TO.N,P_RX*%
X99822000Y-112649000D03*
%TO.P,J4,2*%
%TO.N,P_TX*%
X99822000Y-110109000D03*
D20*
%TO.P,J4,1*%
%TO.N,+5VP*%
X99822000Y-107569000D03*
%TD*%
%TA.AperFunction,SMDPad,CuDef*%
D12*
%TO.P,C2,2*%
%TO.N,GNDREF*%
G36*
X115712504Y-92852204D02*
G01*
X115736773Y-92855804D01*
X115760571Y-92861765D01*
X115783671Y-92870030D01*
X115805849Y-92880520D01*
X115826893Y-92893133D01*
X115846598Y-92907747D01*
X115864777Y-92924223D01*
X115881253Y-92942402D01*
X115895867Y-92962107D01*
X115908480Y-92983151D01*
X115918970Y-93005329D01*
X115927235Y-93028429D01*
X115933196Y-93052227D01*
X115936796Y-93076496D01*
X115938000Y-93101000D01*
X115938000Y-94351000D01*
X115936796Y-94375504D01*
X115933196Y-94399773D01*
X115927235Y-94423571D01*
X115918970Y-94446671D01*
X115908480Y-94468849D01*
X115895867Y-94489893D01*
X115881253Y-94509598D01*
X115864777Y-94527777D01*
X115846598Y-94544253D01*
X115826893Y-94558867D01*
X115805849Y-94571480D01*
X115783671Y-94581970D01*
X115760571Y-94590235D01*
X115736773Y-94596196D01*
X115712504Y-94599796D01*
X115688000Y-94601000D01*
X114938000Y-94601000D01*
X114913496Y-94599796D01*
X114889227Y-94596196D01*
X114865429Y-94590235D01*
X114842329Y-94581970D01*
X114820151Y-94571480D01*
X114799107Y-94558867D01*
X114779402Y-94544253D01*
X114761223Y-94527777D01*
X114744747Y-94509598D01*
X114730133Y-94489893D01*
X114717520Y-94468849D01*
X114707030Y-94446671D01*
X114698765Y-94423571D01*
X114692804Y-94399773D01*
X114689204Y-94375504D01*
X114688000Y-94351000D01*
X114688000Y-93101000D01*
X114689204Y-93076496D01*
X114692804Y-93052227D01*
X114698765Y-93028429D01*
X114707030Y-93005329D01*
X114717520Y-92983151D01*
X114730133Y-92962107D01*
X114744747Y-92942402D01*
X114761223Y-92924223D01*
X114779402Y-92907747D01*
X114799107Y-92893133D01*
X114820151Y-92880520D01*
X114842329Y-92870030D01*
X114865429Y-92861765D01*
X114889227Y-92855804D01*
X114913496Y-92852204D01*
X114938000Y-92851000D01*
X115688000Y-92851000D01*
X115712504Y-92852204D01*
G37*
%TD.AperFunction*%
%TA.AperFunction,SMDPad,CuDef*%
%TO.P,C2,1*%
%TO.N,+5VP*%
G36*
X118512504Y-92852204D02*
G01*
X118536773Y-92855804D01*
X118560571Y-92861765D01*
X118583671Y-92870030D01*
X118605849Y-92880520D01*
X118626893Y-92893133D01*
X118646598Y-92907747D01*
X118664777Y-92924223D01*
X118681253Y-92942402D01*
X118695867Y-92962107D01*
X118708480Y-92983151D01*
X118718970Y-93005329D01*
X118727235Y-93028429D01*
X118733196Y-93052227D01*
X118736796Y-93076496D01*
X118738000Y-93101000D01*
X118738000Y-94351000D01*
X118736796Y-94375504D01*
X118733196Y-94399773D01*
X118727235Y-94423571D01*
X118718970Y-94446671D01*
X118708480Y-94468849D01*
X118695867Y-94489893D01*
X118681253Y-94509598D01*
X118664777Y-94527777D01*
X118646598Y-94544253D01*
X118626893Y-94558867D01*
X118605849Y-94571480D01*
X118583671Y-94581970D01*
X118560571Y-94590235D01*
X118536773Y-94596196D01*
X118512504Y-94599796D01*
X118488000Y-94601000D01*
X117738000Y-94601000D01*
X117713496Y-94599796D01*
X117689227Y-94596196D01*
X117665429Y-94590235D01*
X117642329Y-94581970D01*
X117620151Y-94571480D01*
X117599107Y-94558867D01*
X117579402Y-94544253D01*
X117561223Y-94527777D01*
X117544747Y-94509598D01*
X117530133Y-94489893D01*
X117517520Y-94468849D01*
X117507030Y-94446671D01*
X117498765Y-94423571D01*
X117492804Y-94399773D01*
X117489204Y-94375504D01*
X117488000Y-94351000D01*
X117488000Y-93101000D01*
X117489204Y-93076496D01*
X117492804Y-93052227D01*
X117498765Y-93028429D01*
X117507030Y-93005329D01*
X117517520Y-92983151D01*
X117530133Y-92962107D01*
X117544747Y-92942402D01*
X117561223Y-92924223D01*
X117579402Y-92907747D01*
X117599107Y-92893133D01*
X117620151Y-92880520D01*
X117642329Y-92870030D01*
X117665429Y-92861765D01*
X117689227Y-92855804D01*
X117713496Y-92852204D01*
X117738000Y-92851000D01*
X118488000Y-92851000D01*
X118512504Y-92852204D01*
G37*
%TD.AperFunction*%
%TD*%
%TA.AperFunction,SMDPad,CuDef*%
%TO.P,C5,2*%
%TO.N,GNDREF*%
G36*
X116423904Y-96111404D02*
G01*
X116448173Y-96115004D01*
X116471971Y-96120965D01*
X116495071Y-96129230D01*
X116517249Y-96139720D01*
X116538293Y-96152333D01*
X116557998Y-96166947D01*
X116576177Y-96183423D01*
X116592653Y-96201602D01*
X116607267Y-96221307D01*
X116619880Y-96242351D01*
X116630370Y-96264529D01*
X116638635Y-96287629D01*
X116644596Y-96311427D01*
X116648196Y-96335696D01*
X116649400Y-96360200D01*
X116649400Y-99360200D01*
X116648196Y-99384704D01*
X116644596Y-99408973D01*
X116638635Y-99432771D01*
X116630370Y-99455871D01*
X116619880Y-99478049D01*
X116607267Y-99499093D01*
X116592653Y-99518798D01*
X116576177Y-99536977D01*
X116557998Y-99553453D01*
X116538293Y-99568067D01*
X116517249Y-99580680D01*
X116495071Y-99591170D01*
X116471971Y-99599435D01*
X116448173Y-99605396D01*
X116423904Y-99608996D01*
X116399400Y-99610200D01*
X115299400Y-99610200D01*
X115274896Y-99608996D01*
X115250627Y-99605396D01*
X115226829Y-99599435D01*
X115203729Y-99591170D01*
X115181551Y-99580680D01*
X115160507Y-99568067D01*
X115140802Y-99553453D01*
X115122623Y-99536977D01*
X115106147Y-99518798D01*
X115091533Y-99499093D01*
X115078920Y-99478049D01*
X115068430Y-99455871D01*
X115060165Y-99432771D01*
X115054204Y-99408973D01*
X115050604Y-99384704D01*
X115049400Y-99360200D01*
X115049400Y-96360200D01*
X115050604Y-96335696D01*
X115054204Y-96311427D01*
X115060165Y-96287629D01*
X115068430Y-96264529D01*
X115078920Y-96242351D01*
X115091533Y-96221307D01*
X115106147Y-96201602D01*
X115122623Y-96183423D01*
X115140802Y-96166947D01*
X115160507Y-96152333D01*
X115181551Y-96139720D01*
X115203729Y-96129230D01*
X115226829Y-96120965D01*
X115250627Y-96115004D01*
X115274896Y-96111404D01*
X115299400Y-96110200D01*
X116399400Y-96110200D01*
X116423904Y-96111404D01*
G37*
%TD.AperFunction*%
%TA.AperFunction,SMDPad,CuDef*%
%TO.P,C5,1*%
%TO.N,+3V3*%
G36*
X116423904Y-101711404D02*
G01*
X116448173Y-101715004D01*
X116471971Y-101720965D01*
X116495071Y-101729230D01*
X116517249Y-101739720D01*
X116538293Y-101752333D01*
X116557998Y-101766947D01*
X116576177Y-101783423D01*
X116592653Y-101801602D01*
X116607267Y-101821307D01*
X116619880Y-101842351D01*
X116630370Y-101864529D01*
X116638635Y-101887629D01*
X116644596Y-101911427D01*
X116648196Y-101935696D01*
X116649400Y-101960200D01*
X116649400Y-104960200D01*
X116648196Y-104984704D01*
X116644596Y-105008973D01*
X116638635Y-105032771D01*
X116630370Y-105055871D01*
X116619880Y-105078049D01*
X116607267Y-105099093D01*
X116592653Y-105118798D01*
X116576177Y-105136977D01*
X116557998Y-105153453D01*
X116538293Y-105168067D01*
X116517249Y-105180680D01*
X116495071Y-105191170D01*
X116471971Y-105199435D01*
X116448173Y-105205396D01*
X116423904Y-105208996D01*
X116399400Y-105210200D01*
X115299400Y-105210200D01*
X115274896Y-105208996D01*
X115250627Y-105205396D01*
X115226829Y-105199435D01*
X115203729Y-105191170D01*
X115181551Y-105180680D01*
X115160507Y-105168067D01*
X115140802Y-105153453D01*
X115122623Y-105136977D01*
X115106147Y-105118798D01*
X115091533Y-105099093D01*
X115078920Y-105078049D01*
X115068430Y-105055871D01*
X115060165Y-105032771D01*
X115054204Y-105008973D01*
X115050604Y-104984704D01*
X115049400Y-104960200D01*
X115049400Y-101960200D01*
X115050604Y-101935696D01*
X115054204Y-101911427D01*
X115060165Y-101887629D01*
X115068430Y-101864529D01*
X115078920Y-101842351D01*
X115091533Y-101821307D01*
X115106147Y-101801602D01*
X115122623Y-101783423D01*
X115140802Y-101766947D01*
X115160507Y-101752333D01*
X115181551Y-101739720D01*
X115203729Y-101729230D01*
X115226829Y-101720965D01*
X115250627Y-101715004D01*
X115274896Y-101711404D01*
X115299400Y-101710200D01*
X116399400Y-101710200D01*
X116423904Y-101711404D01*
G37*
%TD.AperFunction*%
%TD*%
D19*
%TO.P,J6,2*%
%TO.N,+5VP*%
X105968800Y-85242400D03*
D20*
%TO.P,J6,1*%
%TO.N,GNDREF*%
X108508800Y-85242400D03*
%TD*%
%TA.AperFunction,SMDPad,CuDef*%
D12*
%TO.P,R21,2*%
%TO.N,Net-(R21-Pad2)*%
G36*
X124601504Y-124855204D02*
G01*
X124625773Y-124858804D01*
X124649571Y-124864765D01*
X124672671Y-124873030D01*
X124694849Y-124883520D01*
X124715893Y-124896133D01*
X124735598Y-124910747D01*
X124753777Y-124927223D01*
X124770253Y-124945402D01*
X124784867Y-124965107D01*
X124797480Y-124986151D01*
X124807970Y-125008329D01*
X124816235Y-125031429D01*
X124822196Y-125055227D01*
X124825796Y-125079496D01*
X124827000Y-125104000D01*
X124827000Y-125854000D01*
X124825796Y-125878504D01*
X124822196Y-125902773D01*
X124816235Y-125926571D01*
X124807970Y-125949671D01*
X124797480Y-125971849D01*
X124784867Y-125992893D01*
X124770253Y-126012598D01*
X124753777Y-126030777D01*
X124735598Y-126047253D01*
X124715893Y-126061867D01*
X124694849Y-126074480D01*
X124672671Y-126084970D01*
X124649571Y-126093235D01*
X124625773Y-126099196D01*
X124601504Y-126102796D01*
X124577000Y-126104000D01*
X123327000Y-126104000D01*
X123302496Y-126102796D01*
X123278227Y-126099196D01*
X123254429Y-126093235D01*
X123231329Y-126084970D01*
X123209151Y-126074480D01*
X123188107Y-126061867D01*
X123168402Y-126047253D01*
X123150223Y-126030777D01*
X123133747Y-126012598D01*
X123119133Y-125992893D01*
X123106520Y-125971849D01*
X123096030Y-125949671D01*
X123087765Y-125926571D01*
X123081804Y-125902773D01*
X123078204Y-125878504D01*
X123077000Y-125854000D01*
X123077000Y-125104000D01*
X123078204Y-125079496D01*
X123081804Y-125055227D01*
X123087765Y-125031429D01*
X123096030Y-125008329D01*
X123106520Y-124986151D01*
X123119133Y-124965107D01*
X123133747Y-124945402D01*
X123150223Y-124927223D01*
X123168402Y-124910747D01*
X123188107Y-124896133D01*
X123209151Y-124883520D01*
X123231329Y-124873030D01*
X123254429Y-124864765D01*
X123278227Y-124858804D01*
X123302496Y-124855204D01*
X123327000Y-124854000D01*
X124577000Y-124854000D01*
X124601504Y-124855204D01*
G37*
%TD.AperFunction*%
%TA.AperFunction,SMDPad,CuDef*%
%TO.P,R21,1*%
%TO.N,GNDREF*%
G36*
X124601504Y-122055204D02*
G01*
X124625773Y-122058804D01*
X124649571Y-122064765D01*
X124672671Y-122073030D01*
X124694849Y-122083520D01*
X124715893Y-122096133D01*
X124735598Y-122110747D01*
X124753777Y-122127223D01*
X124770253Y-122145402D01*
X124784867Y-122165107D01*
X124797480Y-122186151D01*
X124807970Y-122208329D01*
X124816235Y-122231429D01*
X124822196Y-122255227D01*
X124825796Y-122279496D01*
X124827000Y-122304000D01*
X124827000Y-123054000D01*
X124825796Y-123078504D01*
X124822196Y-123102773D01*
X124816235Y-123126571D01*
X124807970Y-123149671D01*
X124797480Y-123171849D01*
X124784867Y-123192893D01*
X124770253Y-123212598D01*
X124753777Y-123230777D01*
X124735598Y-123247253D01*
X124715893Y-123261867D01*
X124694849Y-123274480D01*
X124672671Y-123284970D01*
X124649571Y-123293235D01*
X124625773Y-123299196D01*
X124601504Y-123302796D01*
X124577000Y-123304000D01*
X123327000Y-123304000D01*
X123302496Y-123302796D01*
X123278227Y-123299196D01*
X123254429Y-123293235D01*
X123231329Y-123284970D01*
X123209151Y-123274480D01*
X123188107Y-123261867D01*
X123168402Y-123247253D01*
X123150223Y-123230777D01*
X123133747Y-123212598D01*
X123119133Y-123192893D01*
X123106520Y-123171849D01*
X123096030Y-123149671D01*
X123087765Y-123126571D01*
X123081804Y-123102773D01*
X123078204Y-123078504D01*
X123077000Y-123054000D01*
X123077000Y-122304000D01*
X123078204Y-122279496D01*
X123081804Y-122255227D01*
X123087765Y-122231429D01*
X123096030Y-122208329D01*
X123106520Y-122186151D01*
X123119133Y-122165107D01*
X123133747Y-122145402D01*
X123150223Y-122127223D01*
X123168402Y-122110747D01*
X123188107Y-122096133D01*
X123209151Y-122083520D01*
X123231329Y-122073030D01*
X123254429Y-122064765D01*
X123278227Y-122058804D01*
X123302496Y-122055204D01*
X123327000Y-122054000D01*
X124577000Y-122054000D01*
X124601504Y-122055204D01*
G37*
%TD.AperFunction*%
%TD*%
%TA.AperFunction,SMDPad,CuDef*%
%TO.P,R18,2*%
%TO.N,+3V3*%
G36*
X124601504Y-130697204D02*
G01*
X124625773Y-130700804D01*
X124649571Y-130706765D01*
X124672671Y-130715030D01*
X124694849Y-130725520D01*
X124715893Y-130738133D01*
X124735598Y-130752747D01*
X124753777Y-130769223D01*
X124770253Y-130787402D01*
X124784867Y-130807107D01*
X124797480Y-130828151D01*
X124807970Y-130850329D01*
X124816235Y-130873429D01*
X124822196Y-130897227D01*
X124825796Y-130921496D01*
X124827000Y-130946000D01*
X124827000Y-131696000D01*
X124825796Y-131720504D01*
X124822196Y-131744773D01*
X124816235Y-131768571D01*
X124807970Y-131791671D01*
X124797480Y-131813849D01*
X124784867Y-131834893D01*
X124770253Y-131854598D01*
X124753777Y-131872777D01*
X124735598Y-131889253D01*
X124715893Y-131903867D01*
X124694849Y-131916480D01*
X124672671Y-131926970D01*
X124649571Y-131935235D01*
X124625773Y-131941196D01*
X124601504Y-131944796D01*
X124577000Y-131946000D01*
X123327000Y-131946000D01*
X123302496Y-131944796D01*
X123278227Y-131941196D01*
X123254429Y-131935235D01*
X123231329Y-131926970D01*
X123209151Y-131916480D01*
X123188107Y-131903867D01*
X123168402Y-131889253D01*
X123150223Y-131872777D01*
X123133747Y-131854598D01*
X123119133Y-131834893D01*
X123106520Y-131813849D01*
X123096030Y-131791671D01*
X123087765Y-131768571D01*
X123081804Y-131744773D01*
X123078204Y-131720504D01*
X123077000Y-131696000D01*
X123077000Y-130946000D01*
X123078204Y-130921496D01*
X123081804Y-130897227D01*
X123087765Y-130873429D01*
X123096030Y-130850329D01*
X123106520Y-130828151D01*
X123119133Y-130807107D01*
X123133747Y-130787402D01*
X123150223Y-130769223D01*
X123168402Y-130752747D01*
X123188107Y-130738133D01*
X123209151Y-130725520D01*
X123231329Y-130715030D01*
X123254429Y-130706765D01*
X123278227Y-130700804D01*
X123302496Y-130697204D01*
X123327000Y-130696000D01*
X124577000Y-130696000D01*
X124601504Y-130697204D01*
G37*
%TD.AperFunction*%
%TA.AperFunction,SMDPad,CuDef*%
%TO.P,R18,1*%
%TO.N,EN*%
G36*
X124601504Y-127897204D02*
G01*
X124625773Y-127900804D01*
X124649571Y-127906765D01*
X124672671Y-127915030D01*
X124694849Y-127925520D01*
X124715893Y-127938133D01*
X124735598Y-127952747D01*
X124753777Y-127969223D01*
X124770253Y-127987402D01*
X124784867Y-128007107D01*
X124797480Y-128028151D01*
X124807970Y-128050329D01*
X124816235Y-128073429D01*
X124822196Y-128097227D01*
X124825796Y-128121496D01*
X124827000Y-128146000D01*
X124827000Y-128896000D01*
X124825796Y-128920504D01*
X124822196Y-128944773D01*
X124816235Y-128968571D01*
X124807970Y-128991671D01*
X124797480Y-129013849D01*
X124784867Y-129034893D01*
X124770253Y-129054598D01*
X124753777Y-129072777D01*
X124735598Y-129089253D01*
X124715893Y-129103867D01*
X124694849Y-129116480D01*
X124672671Y-129126970D01*
X124649571Y-129135235D01*
X124625773Y-129141196D01*
X124601504Y-129144796D01*
X124577000Y-129146000D01*
X123327000Y-129146000D01*
X123302496Y-129144796D01*
X123278227Y-129141196D01*
X123254429Y-129135235D01*
X123231329Y-129126970D01*
X123209151Y-129116480D01*
X123188107Y-129103867D01*
X123168402Y-129089253D01*
X123150223Y-129072777D01*
X123133747Y-129054598D01*
X123119133Y-129034893D01*
X123106520Y-129013849D01*
X123096030Y-128991671D01*
X123087765Y-128968571D01*
X123081804Y-128944773D01*
X123078204Y-128920504D01*
X123077000Y-128896000D01*
X123077000Y-128146000D01*
X123078204Y-128121496D01*
X123081804Y-128097227D01*
X123087765Y-128073429D01*
X123096030Y-128050329D01*
X123106520Y-128028151D01*
X123119133Y-128007107D01*
X123133747Y-127987402D01*
X123150223Y-127969223D01*
X123168402Y-127952747D01*
X123188107Y-127938133D01*
X123209151Y-127925520D01*
X123231329Y-127915030D01*
X123254429Y-127906765D01*
X123278227Y-127900804D01*
X123302496Y-127897204D01*
X123327000Y-127896000D01*
X124577000Y-127896000D01*
X124601504Y-127897204D01*
G37*
%TD.AperFunction*%
%TD*%
D21*
%TO.P,U6,22*%
%TO.N,P_TX*%
X120122000Y-139720200D03*
%TO.P,U6,21*%
%TO.N,P_RX*%
X120122000Y-137720200D03*
%TO.P,U6,20*%
%TO.N,RX*%
X120122000Y-135720200D03*
%TO.P,U6,19*%
%TO.N,GPIO4*%
X120122000Y-133720200D03*
%TO.P,U6,18*%
%TO.N,GPIO0*%
X120122000Y-131720200D03*
%TO.P,U6,17*%
%TO.N,TX*%
X120122000Y-129720200D03*
%TO.P,U6,16*%
%TO.N,Net-(R21-Pad2)*%
X120122000Y-127720200D03*
%TO.P,U6,15*%
%TO.N,GNDREF*%
X120122000Y-125720200D03*
D22*
%TO.P,U6,14*%
%TO.N,N/C*%
X117522000Y-124220200D03*
%TO.P,U6,13*%
X115522000Y-124220200D03*
%TO.P,U6,12*%
X113522000Y-124220200D03*
%TO.P,U6,11*%
X111522000Y-124220200D03*
%TO.P,U6,10*%
X109522000Y-124220200D03*
%TO.P,U6,9*%
X107522000Y-124220200D03*
D21*
%TO.P,U6,8*%
%TO.N,+3V3*%
X104922000Y-125720200D03*
%TO.P,U6,7*%
%TO.N,GPIO13*%
X104922000Y-127720200D03*
%TO.P,U6,6*%
%TO.N,GPIO12*%
X104922000Y-129720200D03*
%TO.P,U6,5*%
%TO.N,GPIO14*%
X104922000Y-131720200D03*
%TO.P,U6,4*%
%TO.N,GPIO16*%
X104922000Y-133720200D03*
%TO.P,U6,3*%
%TO.N,EN*%
X104922000Y-135720200D03*
%TO.P,U6,2*%
%TO.N,N/C*%
X104922000Y-137720200D03*
%TO.P,U6,1*%
%TO.N,RESET*%
X104922000Y-139720200D03*
%TD*%
%TA.AperFunction,SMDPad,CuDef*%
D12*
%TO.P,C3,2*%
%TO.N,GNDREF*%
G36*
X109108704Y-96111404D02*
G01*
X109132973Y-96115004D01*
X109156771Y-96120965D01*
X109179871Y-96129230D01*
X109202049Y-96139720D01*
X109223093Y-96152333D01*
X109242798Y-96166947D01*
X109260977Y-96183423D01*
X109277453Y-96201602D01*
X109292067Y-96221307D01*
X109304680Y-96242351D01*
X109315170Y-96264529D01*
X109323435Y-96287629D01*
X109329396Y-96311427D01*
X109332996Y-96335696D01*
X109334200Y-96360200D01*
X109334200Y-99360200D01*
X109332996Y-99384704D01*
X109329396Y-99408973D01*
X109323435Y-99432771D01*
X109315170Y-99455871D01*
X109304680Y-99478049D01*
X109292067Y-99499093D01*
X109277453Y-99518798D01*
X109260977Y-99536977D01*
X109242798Y-99553453D01*
X109223093Y-99568067D01*
X109202049Y-99580680D01*
X109179871Y-99591170D01*
X109156771Y-99599435D01*
X109132973Y-99605396D01*
X109108704Y-99608996D01*
X109084200Y-99610200D01*
X107984200Y-99610200D01*
X107959696Y-99608996D01*
X107935427Y-99605396D01*
X107911629Y-99599435D01*
X107888529Y-99591170D01*
X107866351Y-99580680D01*
X107845307Y-99568067D01*
X107825602Y-99553453D01*
X107807423Y-99536977D01*
X107790947Y-99518798D01*
X107776333Y-99499093D01*
X107763720Y-99478049D01*
X107753230Y-99455871D01*
X107744965Y-99432771D01*
X107739004Y-99408973D01*
X107735404Y-99384704D01*
X107734200Y-99360200D01*
X107734200Y-96360200D01*
X107735404Y-96335696D01*
X107739004Y-96311427D01*
X107744965Y-96287629D01*
X107753230Y-96264529D01*
X107763720Y-96242351D01*
X107776333Y-96221307D01*
X107790947Y-96201602D01*
X107807423Y-96183423D01*
X107825602Y-96166947D01*
X107845307Y-96152333D01*
X107866351Y-96139720D01*
X107888529Y-96129230D01*
X107911629Y-96120965D01*
X107935427Y-96115004D01*
X107959696Y-96111404D01*
X107984200Y-96110200D01*
X109084200Y-96110200D01*
X109108704Y-96111404D01*
G37*
%TD.AperFunction*%
%TA.AperFunction,SMDPad,CuDef*%
%TO.P,C3,1*%
%TO.N,+5VP*%
G36*
X109108704Y-101711404D02*
G01*
X109132973Y-101715004D01*
X109156771Y-101720965D01*
X109179871Y-101729230D01*
X109202049Y-101739720D01*
X109223093Y-101752333D01*
X109242798Y-101766947D01*
X109260977Y-101783423D01*
X109277453Y-101801602D01*
X109292067Y-101821307D01*
X109304680Y-101842351D01*
X109315170Y-101864529D01*
X109323435Y-101887629D01*
X109329396Y-101911427D01*
X109332996Y-101935696D01*
X109334200Y-101960200D01*
X109334200Y-104960200D01*
X109332996Y-104984704D01*
X109329396Y-105008973D01*
X109323435Y-105032771D01*
X109315170Y-105055871D01*
X109304680Y-105078049D01*
X109292067Y-105099093D01*
X109277453Y-105118798D01*
X109260977Y-105136977D01*
X109242798Y-105153453D01*
X109223093Y-105168067D01*
X109202049Y-105180680D01*
X109179871Y-105191170D01*
X109156771Y-105199435D01*
X109132973Y-105205396D01*
X109108704Y-105208996D01*
X109084200Y-105210200D01*
X107984200Y-105210200D01*
X107959696Y-105208996D01*
X107935427Y-105205396D01*
X107911629Y-105199435D01*
X107888529Y-105191170D01*
X107866351Y-105180680D01*
X107845307Y-105168067D01*
X107825602Y-105153453D01*
X107807423Y-105136977D01*
X107790947Y-105118798D01*
X107776333Y-105099093D01*
X107763720Y-105078049D01*
X107753230Y-105055871D01*
X107744965Y-105032771D01*
X107739004Y-105008973D01*
X107735404Y-104984704D01*
X107734200Y-104960200D01*
X107734200Y-101960200D01*
X107735404Y-101935696D01*
X107739004Y-101911427D01*
X107744965Y-101887629D01*
X107753230Y-101864529D01*
X107763720Y-101842351D01*
X107776333Y-101821307D01*
X107790947Y-101801602D01*
X107807423Y-101783423D01*
X107825602Y-101766947D01*
X107845307Y-101752333D01*
X107866351Y-101739720D01*
X107888529Y-101729230D01*
X107911629Y-101720965D01*
X107935427Y-101715004D01*
X107959696Y-101711404D01*
X107984200Y-101710200D01*
X109084200Y-101710200D01*
X109108704Y-101711404D01*
G37*
%TD.AperFunction*%
%TD*%
%TA.AperFunction,SMDPad,CuDef*%
%TO.P,R20,2*%
%TO.N,+3V3*%
G36*
X124601504Y-133485204D02*
G01*
X124625773Y-133488804D01*
X124649571Y-133494765D01*
X124672671Y-133503030D01*
X124694849Y-133513520D01*
X124715893Y-133526133D01*
X124735598Y-133540747D01*
X124753777Y-133557223D01*
X124770253Y-133575402D01*
X124784867Y-133595107D01*
X124797480Y-133616151D01*
X124807970Y-133638329D01*
X124816235Y-133661429D01*
X124822196Y-133685227D01*
X124825796Y-133709496D01*
X124827000Y-133734000D01*
X124827000Y-134484000D01*
X124825796Y-134508504D01*
X124822196Y-134532773D01*
X124816235Y-134556571D01*
X124807970Y-134579671D01*
X124797480Y-134601849D01*
X124784867Y-134622893D01*
X124770253Y-134642598D01*
X124753777Y-134660777D01*
X124735598Y-134677253D01*
X124715893Y-134691867D01*
X124694849Y-134704480D01*
X124672671Y-134714970D01*
X124649571Y-134723235D01*
X124625773Y-134729196D01*
X124601504Y-134732796D01*
X124577000Y-134734000D01*
X123327000Y-134734000D01*
X123302496Y-134732796D01*
X123278227Y-134729196D01*
X123254429Y-134723235D01*
X123231329Y-134714970D01*
X123209151Y-134704480D01*
X123188107Y-134691867D01*
X123168402Y-134677253D01*
X123150223Y-134660777D01*
X123133747Y-134642598D01*
X123119133Y-134622893D01*
X123106520Y-134601849D01*
X123096030Y-134579671D01*
X123087765Y-134556571D01*
X123081804Y-134532773D01*
X123078204Y-134508504D01*
X123077000Y-134484000D01*
X123077000Y-133734000D01*
X123078204Y-133709496D01*
X123081804Y-133685227D01*
X123087765Y-133661429D01*
X123096030Y-133638329D01*
X123106520Y-133616151D01*
X123119133Y-133595107D01*
X123133747Y-133575402D01*
X123150223Y-133557223D01*
X123168402Y-133540747D01*
X123188107Y-133526133D01*
X123209151Y-133513520D01*
X123231329Y-133503030D01*
X123254429Y-133494765D01*
X123278227Y-133488804D01*
X123302496Y-133485204D01*
X123327000Y-133484000D01*
X124577000Y-133484000D01*
X124601504Y-133485204D01*
G37*
%TD.AperFunction*%
%TA.AperFunction,SMDPad,CuDef*%
%TO.P,R20,1*%
%TO.N,RESET*%
G36*
X124601504Y-136285204D02*
G01*
X124625773Y-136288804D01*
X124649571Y-136294765D01*
X124672671Y-136303030D01*
X124694849Y-136313520D01*
X124715893Y-136326133D01*
X124735598Y-136340747D01*
X124753777Y-136357223D01*
X124770253Y-136375402D01*
X124784867Y-136395107D01*
X124797480Y-136416151D01*
X124807970Y-136438329D01*
X124816235Y-136461429D01*
X124822196Y-136485227D01*
X124825796Y-136509496D01*
X124827000Y-136534000D01*
X124827000Y-137284000D01*
X124825796Y-137308504D01*
X124822196Y-137332773D01*
X124816235Y-137356571D01*
X124807970Y-137379671D01*
X124797480Y-137401849D01*
X124784867Y-137422893D01*
X124770253Y-137442598D01*
X124753777Y-137460777D01*
X124735598Y-137477253D01*
X124715893Y-137491867D01*
X124694849Y-137504480D01*
X124672671Y-137514970D01*
X124649571Y-137523235D01*
X124625773Y-137529196D01*
X124601504Y-137532796D01*
X124577000Y-137534000D01*
X123327000Y-137534000D01*
X123302496Y-137532796D01*
X123278227Y-137529196D01*
X123254429Y-137523235D01*
X123231329Y-137514970D01*
X123209151Y-137504480D01*
X123188107Y-137491867D01*
X123168402Y-137477253D01*
X123150223Y-137460777D01*
X123133747Y-137442598D01*
X123119133Y-137422893D01*
X123106520Y-137401849D01*
X123096030Y-137379671D01*
X123087765Y-137356571D01*
X123081804Y-137332773D01*
X123078204Y-137308504D01*
X123077000Y-137284000D01*
X123077000Y-136534000D01*
X123078204Y-136509496D01*
X123081804Y-136485227D01*
X123087765Y-136461429D01*
X123096030Y-136438329D01*
X123106520Y-136416151D01*
X123119133Y-136395107D01*
X123133747Y-136375402D01*
X123150223Y-136357223D01*
X123168402Y-136340747D01*
X123188107Y-136326133D01*
X123209151Y-136313520D01*
X123231329Y-136303030D01*
X123254429Y-136294765D01*
X123278227Y-136288804D01*
X123302496Y-136285204D01*
X123327000Y-136284000D01*
X124577000Y-136284000D01*
X124601504Y-136285204D01*
G37*
%TD.AperFunction*%
%TD*%
D19*
%TO.P,J7,10*%
%TO.N,RX*%
X99695000Y-101854000D03*
%TO.P,J7,9*%
%TO.N,N/C*%
X102235000Y-101854000D03*
%TO.P,J7,8*%
%TO.N,TX*%
X99695000Y-99314000D03*
%TO.P,J7,7*%
%TO.N,N/C*%
X102235000Y-99314000D03*
%TO.P,J7,6*%
%TO.N,GNDREF*%
X99695000Y-96774000D03*
%TO.P,J7,5*%
%TO.N,N/C*%
X102235000Y-96774000D03*
%TO.P,J7,4*%
X99695000Y-94234000D03*
%TO.P,J7,3*%
X102235000Y-94234000D03*
%TO.P,J7,2*%
X99695000Y-91694000D03*
D20*
%TO.P,J7,1*%
%TO.N,+3V3*%
X102235000Y-91694000D03*
%TD*%
D11*
%TO.P,Q2,3*%
%TO.N,EN*%
X123529600Y-109931200D03*
%TO.P,Q2,2*%
%TO.N,Net-(Q2-Pad2)*%
X121529600Y-108981200D03*
%TO.P,Q2,1*%
%TO.N,Net-(Q2-Pad1)*%
X121529600Y-110881200D03*
%TD*%
D23*
%TO.P,Y1,2*%
%TO.N,Net-(C8-Pad1)*%
X117729000Y-110659600D03*
%TO.P,Y1,1*%
%TO.N,Net-(C7-Pad1)*%
X117729000Y-119159600D03*
%TD*%
%TA.AperFunction,SMDPad,CuDef*%
D12*
%TO.P,C7,2*%
%TO.N,GNDREF*%
G36*
X109942542Y-119620974D02*
G01*
X109966203Y-119624484D01*
X109989407Y-119630296D01*
X110011929Y-119638354D01*
X110033553Y-119648582D01*
X110054070Y-119660879D01*
X110073283Y-119675129D01*
X110091007Y-119691193D01*
X110107071Y-119708917D01*
X110121321Y-119728130D01*
X110133618Y-119748647D01*
X110143846Y-119770271D01*
X110151904Y-119792793D01*
X110157716Y-119815997D01*
X110161226Y-119839658D01*
X110162400Y-119863550D01*
X110162400Y-120776050D01*
X110161226Y-120799942D01*
X110157716Y-120823603D01*
X110151904Y-120846807D01*
X110143846Y-120869329D01*
X110133618Y-120890953D01*
X110121321Y-120911470D01*
X110107071Y-120930683D01*
X110091007Y-120948407D01*
X110073283Y-120964471D01*
X110054070Y-120978721D01*
X110033553Y-120991018D01*
X110011929Y-121001246D01*
X109989407Y-121009304D01*
X109966203Y-121015116D01*
X109942542Y-121018626D01*
X109918650Y-121019800D01*
X109431150Y-121019800D01*
X109407258Y-121018626D01*
X109383597Y-121015116D01*
X109360393Y-121009304D01*
X109337871Y-121001246D01*
X109316247Y-120991018D01*
X109295730Y-120978721D01*
X109276517Y-120964471D01*
X109258793Y-120948407D01*
X109242729Y-120930683D01*
X109228479Y-120911470D01*
X109216182Y-120890953D01*
X109205954Y-120869329D01*
X109197896Y-120846807D01*
X109192084Y-120823603D01*
X109188574Y-120799942D01*
X109187400Y-120776050D01*
X109187400Y-119863550D01*
X109188574Y-119839658D01*
X109192084Y-119815997D01*
X109197896Y-119792793D01*
X109205954Y-119770271D01*
X109216182Y-119748647D01*
X109228479Y-119728130D01*
X109242729Y-119708917D01*
X109258793Y-119691193D01*
X109276517Y-119675129D01*
X109295730Y-119660879D01*
X109316247Y-119648582D01*
X109337871Y-119638354D01*
X109360393Y-119630296D01*
X109383597Y-119624484D01*
X109407258Y-119620974D01*
X109431150Y-119619800D01*
X109918650Y-119619800D01*
X109942542Y-119620974D01*
G37*
%TD.AperFunction*%
%TA.AperFunction,SMDPad,CuDef*%
%TO.P,C7,1*%
%TO.N,Net-(C7-Pad1)*%
G36*
X108067542Y-119620974D02*
G01*
X108091203Y-119624484D01*
X108114407Y-119630296D01*
X108136929Y-119638354D01*
X108158553Y-119648582D01*
X108179070Y-119660879D01*
X108198283Y-119675129D01*
X108216007Y-119691193D01*
X108232071Y-119708917D01*
X108246321Y-119728130D01*
X108258618Y-119748647D01*
X108268846Y-119770271D01*
X108276904Y-119792793D01*
X108282716Y-119815997D01*
X108286226Y-119839658D01*
X108287400Y-119863550D01*
X108287400Y-120776050D01*
X108286226Y-120799942D01*
X108282716Y-120823603D01*
X108276904Y-120846807D01*
X108268846Y-120869329D01*
X108258618Y-120890953D01*
X108246321Y-120911470D01*
X108232071Y-120930683D01*
X108216007Y-120948407D01*
X108198283Y-120964471D01*
X108179070Y-120978721D01*
X108158553Y-120991018D01*
X108136929Y-121001246D01*
X108114407Y-121009304D01*
X108091203Y-121015116D01*
X108067542Y-121018626D01*
X108043650Y-121019800D01*
X107556150Y-121019800D01*
X107532258Y-121018626D01*
X107508597Y-121015116D01*
X107485393Y-121009304D01*
X107462871Y-121001246D01*
X107441247Y-120991018D01*
X107420730Y-120978721D01*
X107401517Y-120964471D01*
X107383793Y-120948407D01*
X107367729Y-120930683D01*
X107353479Y-120911470D01*
X107341182Y-120890953D01*
X107330954Y-120869329D01*
X107322896Y-120846807D01*
X107317084Y-120823603D01*
X107313574Y-120799942D01*
X107312400Y-120776050D01*
X107312400Y-119863550D01*
X107313574Y-119839658D01*
X107317084Y-119815997D01*
X107322896Y-119792793D01*
X107330954Y-119770271D01*
X107341182Y-119748647D01*
X107353479Y-119728130D01*
X107367729Y-119708917D01*
X107383793Y-119691193D01*
X107401517Y-119675129D01*
X107420730Y-119660879D01*
X107441247Y-119648582D01*
X107462871Y-119638354D01*
X107485393Y-119630296D01*
X107508597Y-119624484D01*
X107532258Y-119620974D01*
X107556150Y-119619800D01*
X108043650Y-119619800D01*
X108067542Y-119620974D01*
G37*
%TD.AperFunction*%
%TD*%
%TA.AperFunction,SMDPad,CuDef*%
%TO.P,C8,2*%
%TO.N,GNDREF*%
G36*
X112477542Y-119620974D02*
G01*
X112501203Y-119624484D01*
X112524407Y-119630296D01*
X112546929Y-119638354D01*
X112568553Y-119648582D01*
X112589070Y-119660879D01*
X112608283Y-119675129D01*
X112626007Y-119691193D01*
X112642071Y-119708917D01*
X112656321Y-119728130D01*
X112668618Y-119748647D01*
X112678846Y-119770271D01*
X112686904Y-119792793D01*
X112692716Y-119815997D01*
X112696226Y-119839658D01*
X112697400Y-119863550D01*
X112697400Y-120776050D01*
X112696226Y-120799942D01*
X112692716Y-120823603D01*
X112686904Y-120846807D01*
X112678846Y-120869329D01*
X112668618Y-120890953D01*
X112656321Y-120911470D01*
X112642071Y-120930683D01*
X112626007Y-120948407D01*
X112608283Y-120964471D01*
X112589070Y-120978721D01*
X112568553Y-120991018D01*
X112546929Y-121001246D01*
X112524407Y-121009304D01*
X112501203Y-121015116D01*
X112477542Y-121018626D01*
X112453650Y-121019800D01*
X111966150Y-121019800D01*
X111942258Y-121018626D01*
X111918597Y-121015116D01*
X111895393Y-121009304D01*
X111872871Y-121001246D01*
X111851247Y-120991018D01*
X111830730Y-120978721D01*
X111811517Y-120964471D01*
X111793793Y-120948407D01*
X111777729Y-120930683D01*
X111763479Y-120911470D01*
X111751182Y-120890953D01*
X111740954Y-120869329D01*
X111732896Y-120846807D01*
X111727084Y-120823603D01*
X111723574Y-120799942D01*
X111722400Y-120776050D01*
X111722400Y-119863550D01*
X111723574Y-119839658D01*
X111727084Y-119815997D01*
X111732896Y-119792793D01*
X111740954Y-119770271D01*
X111751182Y-119748647D01*
X111763479Y-119728130D01*
X111777729Y-119708917D01*
X111793793Y-119691193D01*
X111811517Y-119675129D01*
X111830730Y-119660879D01*
X111851247Y-119648582D01*
X111872871Y-119638354D01*
X111895393Y-119630296D01*
X111918597Y-119624484D01*
X111942258Y-119620974D01*
X111966150Y-119619800D01*
X112453650Y-119619800D01*
X112477542Y-119620974D01*
G37*
%TD.AperFunction*%
%TA.AperFunction,SMDPad,CuDef*%
%TO.P,C8,1*%
%TO.N,Net-(C8-Pad1)*%
G36*
X114352542Y-119620974D02*
G01*
X114376203Y-119624484D01*
X114399407Y-119630296D01*
X114421929Y-119638354D01*
X114443553Y-119648582D01*
X114464070Y-119660879D01*
X114483283Y-119675129D01*
X114501007Y-119691193D01*
X114517071Y-119708917D01*
X114531321Y-119728130D01*
X114543618Y-119748647D01*
X114553846Y-119770271D01*
X114561904Y-119792793D01*
X114567716Y-119815997D01*
X114571226Y-119839658D01*
X114572400Y-119863550D01*
X114572400Y-120776050D01*
X114571226Y-120799942D01*
X114567716Y-120823603D01*
X114561904Y-120846807D01*
X114553846Y-120869329D01*
X114543618Y-120890953D01*
X114531321Y-120911470D01*
X114517071Y-120930683D01*
X114501007Y-120948407D01*
X114483283Y-120964471D01*
X114464070Y-120978721D01*
X114443553Y-120991018D01*
X114421929Y-121001246D01*
X114399407Y-121009304D01*
X114376203Y-121015116D01*
X114352542Y-121018626D01*
X114328650Y-121019800D01*
X113841150Y-121019800D01*
X113817258Y-121018626D01*
X113793597Y-121015116D01*
X113770393Y-121009304D01*
X113747871Y-121001246D01*
X113726247Y-120991018D01*
X113705730Y-120978721D01*
X113686517Y-120964471D01*
X113668793Y-120948407D01*
X113652729Y-120930683D01*
X113638479Y-120911470D01*
X113626182Y-120890953D01*
X113615954Y-120869329D01*
X113607896Y-120846807D01*
X113602084Y-120823603D01*
X113598574Y-120799942D01*
X113597400Y-120776050D01*
X113597400Y-119863550D01*
X113598574Y-119839658D01*
X113602084Y-119815997D01*
X113607896Y-119792793D01*
X113615954Y-119770271D01*
X113626182Y-119748647D01*
X113638479Y-119728130D01*
X113652729Y-119708917D01*
X113668793Y-119691193D01*
X113686517Y-119675129D01*
X113705730Y-119660879D01*
X113726247Y-119648582D01*
X113747871Y-119638354D01*
X113770393Y-119630296D01*
X113793597Y-119624484D01*
X113817258Y-119620974D01*
X113841150Y-119619800D01*
X114328650Y-119619800D01*
X114352542Y-119620974D01*
G37*
%TD.AperFunction*%
%TD*%
D24*
%TO.N,GNDREF*%
X105163613Y-111379000D03*
X108331000Y-90297000D03*
%TO.N,+3V3*%
X107696000Y-92456000D03*
X122428000Y-132842000D03*
X115697000Y-127889000D03*
%TO.N,RX*%
X104288058Y-109368058D03*
X117983000Y-135890000D03*
X116586000Y-128651000D03*
%TO.N,TX*%
X104713603Y-110367836D03*
X117856000Y-129794000D03*
X119253000Y-124079000D03*
%TO.N,+5VP*%
X120206647Y-93571353D03*
X121468158Y-92145842D03*
%TO.N,GPIO0*%
X124485400Y-114935000D03*
X123393200Y-118541800D03*
X120847000Y-124620198D03*
X115062000Y-132461000D03*
X113895447Y-131421447D03*
%TO.N,P_RX*%
X105971000Y-118826802D03*
X114427000Y-136779000D03*
X102235000Y-124079000D03*
%TO.N,P_TX*%
X105246000Y-119761000D03*
X115316000Y-139827000D03*
X103215583Y-124275116D03*
%TO.N,Net-(Q2-Pad2)*%
X124460000Y-121208800D03*
X122961400Y-108610400D03*
X114621899Y-115645298D03*
%TO.N,Net-(Q3-Pad2)*%
X111734600Y-113919000D03*
X119710200Y-111683800D03*
%TD*%
D25*
%TO.N,GNDREF*%
X107547450Y-119067900D02*
X106358400Y-120256950D01*
X110162400Y-120319800D02*
X112209900Y-120319800D01*
X108423000Y-119067900D02*
X108423000Y-117684000D01*
X117780200Y-84949000D02*
X108802200Y-84949000D01*
X109674900Y-120319800D02*
X110162400Y-120319800D01*
X109674900Y-120319800D02*
X108423000Y-119067900D01*
X108802200Y-84949000D02*
X108508800Y-85242400D01*
X108423000Y-119067900D02*
X107547450Y-119067900D01*
X106358400Y-120256950D02*
X106358400Y-121977990D01*
X120122000Y-125720200D02*
X120122000Y-123874998D01*
X120122000Y-123874998D02*
X118224992Y-121977990D01*
X118224992Y-121977990D02*
X106358400Y-121977990D01*
X106358400Y-121977990D02*
X104521000Y-120140590D01*
X104521000Y-120140590D02*
X104521000Y-112021613D01*
X104521000Y-112021613D02*
X105163613Y-111379000D01*
X99822000Y-115189000D02*
X98519999Y-113886999D01*
X98519999Y-113886999D02*
X98519999Y-97949001D01*
X98519999Y-97949001D02*
X98845001Y-97623999D01*
X98845001Y-97623999D02*
X99695000Y-96774000D01*
X119105201Y-86687591D02*
X119105201Y-85024001D01*
X119105201Y-85024001D02*
X119030200Y-84949000D01*
X119030200Y-84949000D02*
X117780200Y-84949000D01*
X119957010Y-91660000D02*
X119957009Y-87539399D01*
X119957009Y-87539399D02*
X119105201Y-86687591D01*
X121481009Y-93183999D02*
X119957010Y-91660000D01*
X123284000Y-97439000D02*
X122473998Y-97439000D01*
X122473998Y-97439000D02*
X121481010Y-96446012D01*
X121481010Y-96446012D02*
X121481009Y-93183999D01*
X112144000Y-93726000D02*
X112144000Y-92851000D01*
X112144000Y-92851000D02*
X109590000Y-90297000D01*
X109590000Y-90297000D02*
X108331000Y-90297000D01*
X112144000Y-93726000D02*
X111519000Y-93726000D01*
X111519000Y-93726000D02*
X108534200Y-96710800D01*
X108534200Y-96710800D02*
X108534200Y-97860200D01*
X115313000Y-93726000D02*
X112144000Y-93726000D01*
X115849400Y-97860200D02*
X115849400Y-94262400D01*
X115849400Y-94262400D02*
X115313000Y-93726000D01*
X123952000Y-122679000D02*
X123952000Y-123304000D01*
X123952000Y-123304000D02*
X121535800Y-125720200D01*
X121535800Y-125720200D02*
X120122000Y-125720200D01*
X99949000Y-137541000D02*
X102944799Y-134545201D01*
X102944799Y-134545201D02*
X111844695Y-134545201D01*
X111844695Y-134545201D02*
X118546999Y-127842897D01*
X118546999Y-127842897D02*
X118546999Y-125795201D01*
X118546999Y-125795201D02*
X118622000Y-125720200D01*
X118622000Y-125720200D02*
X120122000Y-125720200D01*
%TO.N,+3V3*%
X103135018Y-109495792D02*
X104394000Y-108204000D01*
X104394000Y-108204000D02*
X106966810Y-105664000D01*
X108423000Y-113874000D02*
X108123000Y-113574000D01*
X108123000Y-113574000D02*
X107735613Y-113574000D01*
X105888614Y-109698614D02*
X104394000Y-108204000D01*
X107735613Y-113574000D02*
X105888614Y-111727001D01*
X105888614Y-111727001D02*
X105888614Y-109698614D01*
X113373000Y-117684000D02*
X113073000Y-117384000D01*
X113073000Y-117384000D02*
X112309768Y-117384000D01*
X109099768Y-114174000D02*
X108723000Y-114174000D01*
X112309768Y-117384000D02*
X109099768Y-114174000D01*
X108723000Y-114174000D02*
X108423000Y-113874000D01*
X104922000Y-125720200D02*
X104922000Y-124908531D01*
X104922000Y-124908531D02*
X103135018Y-123121549D01*
X103135018Y-123121549D02*
X103135018Y-109495792D01*
X106966810Y-105664000D02*
X113645600Y-105664000D01*
X113645600Y-105664000D02*
X115849400Y-103460200D01*
X107696000Y-92456000D02*
X108074000Y-92456000D01*
X108074000Y-92456000D02*
X109344000Y-93726000D01*
X119507000Y-87725800D02*
X119507000Y-91846400D01*
X119507000Y-91846400D02*
X121031000Y-93370400D01*
X117780200Y-87249000D02*
X119030200Y-87249000D01*
X119030200Y-87249000D02*
X119507000Y-87725800D01*
X121031000Y-99078600D02*
X121031000Y-93370400D01*
X115849400Y-103460200D02*
X116649400Y-103460200D01*
X116649400Y-103460200D02*
X121031000Y-99078600D01*
X122428000Y-132842000D02*
X122431000Y-132842000D01*
X122431000Y-132842000D02*
X123952000Y-131321000D01*
X104922000Y-125720200D02*
X113528200Y-125720200D01*
X113528200Y-125720200D02*
X115697000Y-127889000D01*
X115849400Y-103460200D02*
X115049400Y-103460200D01*
X115049400Y-103460200D02*
X111524410Y-99935210D01*
X108719000Y-93726000D02*
X109344000Y-93726000D01*
X111524410Y-99935210D02*
X107746020Y-99935210D01*
X107746020Y-99935210D02*
X107409190Y-99598380D01*
X107409190Y-95035810D02*
X108719000Y-93726000D01*
X107409190Y-99598380D02*
X107409190Y-95035810D01*
X111480200Y-87249000D02*
X117780200Y-87249000D01*
X123952000Y-131321000D02*
X123952000Y-134109000D01*
%TO.N,RX*%
X103585028Y-120603028D02*
X103585028Y-110071088D01*
X103585028Y-110071088D02*
X104288058Y-109368058D01*
X105918000Y-122936000D02*
X103585028Y-120603028D01*
X114222802Y-122936000D02*
X105918000Y-122936000D01*
X116586000Y-128651000D02*
X116586000Y-127269202D01*
X116586000Y-127269202D02*
X114347001Y-125030203D01*
X114347001Y-125030203D02*
X114347001Y-123060199D01*
X114347001Y-123060199D02*
X114222802Y-122936000D01*
X117983000Y-135890000D02*
X119952200Y-135890000D01*
X119952200Y-135890000D02*
X120122000Y-135720200D01*
%TO.N,TX*%
X117856000Y-129794000D02*
X120048200Y-129794000D01*
X120048200Y-129794000D02*
X120122000Y-129720200D01*
X119253000Y-124079000D02*
X117602000Y-122428000D01*
X117602000Y-122428000D02*
X106172000Y-122428000D01*
X106172000Y-122428000D02*
X104035038Y-120291038D01*
X104035038Y-120291038D02*
X104035038Y-111046401D01*
X104035038Y-111046401D02*
X104713603Y-110367836D01*
%TO.N,+5VP*%
X106996200Y-89549000D02*
X106934000Y-89611200D01*
X117780200Y-89549000D02*
X106996200Y-89549000D01*
X108534200Y-103460200D02*
X106934000Y-101860000D01*
X106934000Y-101860000D02*
X106934000Y-89611200D01*
X106934000Y-86207600D02*
X105968800Y-85242400D01*
X106934000Y-89611200D02*
X106934000Y-86207600D01*
X120206647Y-93571353D02*
X118267647Y-93571353D01*
X118267647Y-93571353D02*
X118113000Y-93726000D01*
X123284000Y-94839000D02*
X122359000Y-94839000D01*
X122359000Y-94839000D02*
X121931018Y-94411018D01*
X121931018Y-94411018D02*
X121931018Y-92608702D01*
X118113000Y-93726000D02*
X118113000Y-89881800D01*
X118113000Y-89881800D02*
X117780200Y-89549000D01*
X121931018Y-92608702D02*
X121468158Y-92145842D01*
X99822000Y-107569000D02*
X104425400Y-107569000D01*
X104425400Y-107569000D02*
X108534200Y-103460200D01*
%TO.N,RESET*%
X97873980Y-138005980D02*
X97873980Y-122217020D01*
X97873980Y-122217020D02*
X99822000Y-120269000D01*
X123952000Y-136909000D02*
X123952000Y-137534000D01*
X123952000Y-137534000D02*
X122590801Y-138895199D01*
X122590801Y-138895199D02*
X114083411Y-138895199D01*
X114083411Y-138895199D02*
X113258410Y-139720200D01*
X113258410Y-139720200D02*
X106422000Y-139720200D01*
X106422000Y-139720200D02*
X104922000Y-139720200D01*
X104922000Y-139720200D02*
X99588200Y-139720200D01*
X99588200Y-139720200D02*
X97873980Y-138005980D01*
%TO.N,GPIO0*%
X123088820Y-121728990D02*
X123393200Y-121424610D01*
X124485400Y-114697000D02*
X123529600Y-113741200D01*
X123393200Y-121424610D02*
X123393200Y-118541800D01*
X124485400Y-114935000D02*
X124485400Y-114697000D01*
X123088820Y-121728990D02*
X120847000Y-123970810D01*
X120847000Y-123970810D02*
X120847000Y-124620198D01*
X101124001Y-124492001D02*
X101124001Y-119031001D01*
X101124001Y-119031001D02*
X99822000Y-117729000D01*
X115062000Y-132461000D02*
X115802800Y-131720200D01*
X115802800Y-131720200D02*
X120122000Y-131720200D01*
X101124001Y-124492001D02*
X103527199Y-126895199D01*
X103527199Y-126895199D02*
X109369199Y-126895199D01*
X109369199Y-126895199D02*
X113895447Y-131421447D01*
%TO.N,P_RX*%
X108423000Y-116414000D02*
X107448000Y-116414000D01*
X107448000Y-116414000D02*
X105971000Y-117891000D01*
X105971000Y-117891000D02*
X105971000Y-118826802D01*
X102235000Y-124079000D02*
X102235000Y-115062000D01*
X102235000Y-115062000D02*
X99822000Y-112649000D01*
X114877315Y-137795000D02*
X114952115Y-137720200D01*
X114952115Y-137720200D02*
X120122000Y-137720200D01*
X114427000Y-136779000D02*
X114427000Y-137344685D01*
X114427000Y-137344685D02*
X114877315Y-137795000D01*
%TO.N,P_TX*%
X108423000Y-115144000D02*
X107448000Y-115144000D01*
X105246000Y-117346000D02*
X105246000Y-119761000D01*
X107448000Y-115144000D02*
X105246000Y-117346000D01*
X101092000Y-113282590D02*
X101092000Y-111379000D01*
X101092000Y-111379000D02*
X99822000Y-110109000D01*
X102685009Y-114875599D02*
X101092000Y-113282590D01*
X102685010Y-123456008D02*
X102685009Y-114875599D01*
X103215583Y-124275116D02*
X103215583Y-123986581D01*
X103215583Y-123986581D02*
X102685010Y-123456008D01*
X115316000Y-139827000D02*
X120015200Y-139827000D01*
X120015200Y-139827000D02*
X120122000Y-139720200D01*
%TO.N,GPIO16*%
X99949000Y-135001000D02*
X101229800Y-133720200D01*
X101229800Y-133720200D02*
X104922000Y-133720200D01*
%TO.N,GPIO14*%
X103163001Y-131611001D02*
X103272200Y-131720200D01*
X103272200Y-131720200D02*
X104922000Y-131720200D01*
X99949000Y-132461000D02*
X100798999Y-131611001D01*
X100798999Y-131611001D02*
X103163001Y-131611001D01*
%TO.N,GPIO13*%
X99949000Y-129921000D02*
X101151081Y-129921000D01*
X101151081Y-129921000D02*
X103351881Y-127720200D01*
X103351881Y-127720200D02*
X103422000Y-127720200D01*
X103422000Y-127720200D02*
X104922000Y-127720200D01*
%TO.N,GPIO12*%
X99949000Y-127381000D02*
X98773999Y-128556001D01*
X98773999Y-128556001D02*
X98773999Y-130485001D01*
X103422000Y-129720200D02*
X104922000Y-129720200D01*
X98773999Y-130485001D02*
X99384999Y-131096001D01*
X99384999Y-131096001D02*
X102046199Y-131096001D01*
X102046199Y-131096001D02*
X103422000Y-129720200D01*
%TO.N,GPIO4*%
X113263799Y-136545201D02*
X116088800Y-133720200D01*
X116088800Y-133720200D02*
X120122000Y-133720200D01*
X99384999Y-138716001D02*
X101591197Y-138716001D01*
X101591197Y-138716001D02*
X103761997Y-136545201D01*
X103761997Y-136545201D02*
X113263799Y-136545201D01*
X99949000Y-124841000D02*
X98849000Y-124841000D01*
X98323989Y-137654991D02*
X99384999Y-138716001D01*
X98849000Y-124841000D02*
X98323989Y-125366011D01*
X98323989Y-125366011D02*
X98323989Y-137654991D01*
%TO.N,Net-(R21-Pad2)*%
X123952000Y-125479000D02*
X123952000Y-126104000D01*
X123952000Y-126104000D02*
X122335800Y-127720200D01*
X122335800Y-127720200D02*
X121622000Y-127720200D01*
X121622000Y-127720200D02*
X120122000Y-127720200D01*
%TO.N,Net-(J2-Pad3)*%
X119828600Y-107499990D02*
X124284001Y-103044589D01*
X124284001Y-103044589D02*
X124284001Y-96214001D01*
X124284001Y-96214001D02*
X124209000Y-96139000D01*
X124209000Y-96139000D02*
X123284000Y-96139000D01*
X107255600Y-107499990D02*
X119828600Y-107499990D01*
X108423000Y-112604000D02*
X107448000Y-112604000D01*
X107448000Y-112604000D02*
X106672981Y-111828981D01*
X106672981Y-111828981D02*
X106672981Y-108082609D01*
X106672981Y-108082609D02*
X107255600Y-107499990D01*
%TO.N,Net-(J2-Pad2)*%
X124841000Y-98106002D02*
X124841000Y-96012000D01*
X124841000Y-96012000D02*
X124318000Y-95489000D01*
X124318000Y-95489000D02*
X124209000Y-95489000D01*
X124209000Y-95489000D02*
X123284000Y-95489000D01*
X120015000Y-107950000D02*
X127084010Y-100880990D01*
X127084010Y-100880990D02*
X127084010Y-98382010D01*
X127084010Y-98382010D02*
X126916001Y-98214001D01*
X126916001Y-98214001D02*
X124948999Y-98214001D01*
X124948999Y-98214001D02*
X124841000Y-98106002D01*
X107442000Y-107950000D02*
X120015000Y-107950000D01*
X108423000Y-111334000D02*
X107448000Y-111334000D01*
X107448000Y-111334000D02*
X107122990Y-111008990D01*
X107122990Y-111008990D02*
X107122990Y-108269010D01*
X107122990Y-108269010D02*
X107442000Y-107950000D01*
%TO.N,EN*%
X125812410Y-111514010D02*
X124229600Y-109931200D01*
X123952000Y-128521000D02*
X124827000Y-128521000D01*
X125812410Y-127535590D02*
X125812410Y-111514010D01*
X124827000Y-128521000D02*
X125812410Y-127535590D01*
X124229600Y-109931200D02*
X123529600Y-109931200D01*
X123952000Y-128521000D02*
X123952000Y-129146000D01*
X106422000Y-135720200D02*
X104922000Y-135720200D01*
X123952000Y-129146000D02*
X121697001Y-131400999D01*
X121697001Y-131400999D02*
X121697001Y-132480201D01*
X121697001Y-132480201D02*
X121282003Y-132895199D01*
X121282003Y-132895199D02*
X115700803Y-132895199D01*
X115700803Y-132895199D02*
X112875802Y-135720200D01*
X112875802Y-135720200D02*
X106422000Y-135720200D01*
%TO.N,Net-(Q2-Pad2)*%
X122961400Y-108610400D02*
X121900400Y-108610400D01*
X124612400Y-121056400D02*
X124460000Y-121208800D01*
X114621899Y-115645298D02*
X113874298Y-115645298D01*
X121900400Y-108610400D02*
X121529600Y-108981200D01*
X113874298Y-115645298D02*
X113373000Y-115144000D01*
X124612400Y-119941800D02*
X124612400Y-121056400D01*
%TO.N,Net-(Q2-Pad1)*%
X120754599Y-115325999D02*
X120754599Y-110956201D01*
X121945400Y-116516800D02*
X120754599Y-115325999D01*
X120829600Y-110881200D02*
X121529600Y-110881200D01*
X120754599Y-110956201D02*
X120829600Y-110881200D01*
X121945400Y-117141800D02*
X121945400Y-116516800D01*
%TO.N,Net-(Q3-Pad2)*%
X122239601Y-110156199D02*
X122304601Y-110221199D01*
X120819599Y-110156199D02*
X122239601Y-110156199D01*
X122304601Y-112716199D02*
X122229600Y-112791200D01*
X122304601Y-110221199D02*
X122304601Y-112716199D01*
X120304589Y-111089411D02*
X119710200Y-111683800D01*
X120304589Y-110671209D02*
X120819599Y-110156199D01*
X111734600Y-113919000D02*
X113328000Y-113919000D01*
X122229600Y-112791200D02*
X121529600Y-112791200D01*
X121945400Y-119316800D02*
X120304589Y-117675989D01*
X121945400Y-119941800D02*
X121945400Y-119316800D01*
X120304589Y-110671209D02*
X120304589Y-111089411D01*
X113328000Y-113919000D02*
X113373000Y-113874000D01*
X121900400Y-119986800D02*
X121945400Y-119941800D01*
X120304589Y-117675989D02*
X120304589Y-110671209D01*
%TO.N,Net-(Q3-Pad1)*%
X124612400Y-116516800D02*
X122786800Y-114691200D01*
X122229600Y-114691200D02*
X121529600Y-114691200D01*
X124612400Y-117141800D02*
X124612400Y-116516800D01*
X122786800Y-114691200D02*
X122229600Y-114691200D01*
%TO.N,Net-(C7-Pad1)*%
X113022410Y-121011640D02*
X112689240Y-121344810D01*
X108285427Y-120805327D02*
X107799900Y-120319800D01*
X113022410Y-119877940D02*
X113022410Y-121011640D01*
X108824910Y-121344810D02*
X108285427Y-120805327D01*
X115401010Y-117499340D02*
X113022410Y-119877940D01*
X108824910Y-121344810D02*
X115543790Y-121344810D01*
X115401010Y-110689010D02*
X115401010Y-117499340D01*
X115543790Y-121344810D02*
X117729000Y-119159600D01*
X115401010Y-110689010D02*
X109048010Y-110689010D01*
X109048010Y-110689010D02*
X108723000Y-110364000D01*
X108723000Y-110364000D02*
X108423000Y-110064000D01*
X112689240Y-121344810D02*
X108824910Y-121344810D01*
%TO.N,Net-(C8-Pad1)*%
X114572400Y-120319800D02*
X116179600Y-118712600D01*
X115237010Y-109438990D02*
X116457620Y-110659600D01*
X108423000Y-108794000D02*
X109067990Y-109438990D01*
X116457620Y-110659600D02*
X117729000Y-110659600D01*
X116479000Y-110659600D02*
X117729000Y-110659600D01*
X114084900Y-120319800D02*
X114572400Y-120319800D01*
X116179600Y-110959000D02*
X116479000Y-110659600D01*
X109067990Y-109438990D02*
X115237010Y-109438990D01*
X116179600Y-118712600D02*
X116179600Y-110959000D01*
%TD*%
D26*
%TO.N,GNDREF*%
G36*
X103141463Y-134574694D02*
G01*
X103220815Y-134671385D01*
X103280296Y-134720200D01*
X103220815Y-134769015D01*
X103141463Y-134865706D01*
X103082498Y-134976020D01*
X103046188Y-135095718D01*
X103033928Y-135220200D01*
X103033928Y-136198468D01*
X101371142Y-137861255D01*
X101269155Y-137668000D01*
X100076000Y-137668000D01*
X100076000Y-137688000D01*
X99822000Y-137688000D01*
X99822000Y-137668000D01*
X99802000Y-137668000D01*
X99802000Y-137414000D01*
X99822000Y-137414000D01*
X99822000Y-137394000D01*
X100076000Y-137394000D01*
X100076000Y-137414000D01*
X101269155Y-137414000D01*
X101390476Y-137184110D01*
X101345825Y-137036901D01*
X101220641Y-136774080D01*
X101046588Y-136540731D01*
X100830355Y-136345822D01*
X100713466Y-136276195D01*
X100895632Y-136154475D01*
X101102475Y-135947632D01*
X101264990Y-135704411D01*
X101376932Y-135434158D01*
X101434000Y-135147260D01*
X101434000Y-134854740D01*
X101390210Y-134634592D01*
X101544602Y-134480200D01*
X103090954Y-134480200D01*
X103141463Y-134574694D01*
G37*
X103141463Y-134574694D02*
X103220815Y-134671385D01*
X103280296Y-134720200D01*
X103220815Y-134769015D01*
X103141463Y-134865706D01*
X103082498Y-134976020D01*
X103046188Y-135095718D01*
X103033928Y-135220200D01*
X103033928Y-136198468D01*
X101371142Y-137861255D01*
X101269155Y-137668000D01*
X100076000Y-137668000D01*
X100076000Y-137688000D01*
X99822000Y-137688000D01*
X99822000Y-137668000D01*
X99802000Y-137668000D01*
X99802000Y-137414000D01*
X99822000Y-137414000D01*
X99822000Y-137394000D01*
X100076000Y-137394000D01*
X100076000Y-137414000D01*
X101269155Y-137414000D01*
X101390476Y-137184110D01*
X101345825Y-137036901D01*
X101220641Y-136774080D01*
X101046588Y-136540731D01*
X100830355Y-136345822D01*
X100713466Y-136276195D01*
X100895632Y-136154475D01*
X101102475Y-135947632D01*
X101264990Y-135704411D01*
X101376932Y-135434158D01*
X101434000Y-135147260D01*
X101434000Y-134854740D01*
X101390210Y-134634592D01*
X101544602Y-134480200D01*
X103090954Y-134480200D01*
X103141463Y-134574694D01*
G36*
X112860447Y-131461249D02*
G01*
X112860447Y-131523386D01*
X112900221Y-131723345D01*
X112978242Y-131911703D01*
X113091510Y-132081221D01*
X113235673Y-132225384D01*
X113405191Y-132338652D01*
X113593549Y-132416673D01*
X113793508Y-132456447D01*
X113997386Y-132456447D01*
X114027000Y-132450556D01*
X114027000Y-132562939D01*
X114066774Y-132762898D01*
X114144795Y-132951256D01*
X114258063Y-133120774D01*
X114329245Y-133191956D01*
X112561001Y-134960200D01*
X106753046Y-134960200D01*
X106702537Y-134865706D01*
X106623185Y-134769015D01*
X106563704Y-134720200D01*
X106623185Y-134671385D01*
X106702537Y-134574694D01*
X106761502Y-134464380D01*
X106797812Y-134344682D01*
X106810072Y-134220200D01*
X106810072Y-133220200D01*
X106797812Y-133095718D01*
X106761502Y-132976020D01*
X106702537Y-132865706D01*
X106623185Y-132769015D01*
X106563704Y-132720200D01*
X106623185Y-132671385D01*
X106702537Y-132574694D01*
X106761502Y-132464380D01*
X106797812Y-132344682D01*
X106810072Y-132220200D01*
X106810072Y-131220200D01*
X106797812Y-131095718D01*
X106761502Y-130976020D01*
X106702537Y-130865706D01*
X106623185Y-130769015D01*
X106563704Y-130720200D01*
X106623185Y-130671385D01*
X106702537Y-130574694D01*
X106761502Y-130464380D01*
X106797812Y-130344682D01*
X106810072Y-130220200D01*
X106810072Y-129220200D01*
X106797812Y-129095718D01*
X106761502Y-128976020D01*
X106702537Y-128865706D01*
X106623185Y-128769015D01*
X106563704Y-128720200D01*
X106623185Y-128671385D01*
X106702537Y-128574694D01*
X106761502Y-128464380D01*
X106797812Y-128344682D01*
X106810072Y-128220200D01*
X106810072Y-127655199D01*
X109054398Y-127655199D01*
X112860447Y-131461249D01*
G37*
X112860447Y-131461249D02*
X112860447Y-131523386D01*
X112900221Y-131723345D01*
X112978242Y-131911703D01*
X113091510Y-132081221D01*
X113235673Y-132225384D01*
X113405191Y-132338652D01*
X113593549Y-132416673D01*
X113793508Y-132456447D01*
X113997386Y-132456447D01*
X114027000Y-132450556D01*
X114027000Y-132562939D01*
X114066774Y-132762898D01*
X114144795Y-132951256D01*
X114258063Y-133120774D01*
X114329245Y-133191956D01*
X112561001Y-134960200D01*
X106753046Y-134960200D01*
X106702537Y-134865706D01*
X106623185Y-134769015D01*
X106563704Y-134720200D01*
X106623185Y-134671385D01*
X106702537Y-134574694D01*
X106761502Y-134464380D01*
X106797812Y-134344682D01*
X106810072Y-134220200D01*
X106810072Y-133220200D01*
X106797812Y-133095718D01*
X106761502Y-132976020D01*
X106702537Y-132865706D01*
X106623185Y-132769015D01*
X106563704Y-132720200D01*
X106623185Y-132671385D01*
X106702537Y-132574694D01*
X106761502Y-132464380D01*
X106797812Y-132344682D01*
X106810072Y-132220200D01*
X106810072Y-131220200D01*
X106797812Y-131095718D01*
X106761502Y-130976020D01*
X106702537Y-130865706D01*
X106623185Y-130769015D01*
X106563704Y-130720200D01*
X106623185Y-130671385D01*
X106702537Y-130574694D01*
X106761502Y-130464380D01*
X106797812Y-130344682D01*
X106810072Y-130220200D01*
X106810072Y-129220200D01*
X106797812Y-129095718D01*
X106761502Y-128976020D01*
X106702537Y-128865706D01*
X106623185Y-128769015D01*
X106563704Y-128720200D01*
X106623185Y-128671385D01*
X106702537Y-128574694D01*
X106761502Y-128464380D01*
X106797812Y-128344682D01*
X106810072Y-128220200D01*
X106810072Y-127655199D01*
X109054398Y-127655199D01*
X112860447Y-131461249D01*
G36*
X124079000Y-122552000D02*
G01*
X124099000Y-122552000D01*
X124099000Y-122806000D01*
X124079000Y-122806000D01*
X124079000Y-123780250D01*
X124237750Y-123939000D01*
X124827000Y-123942072D01*
X124951482Y-123929812D01*
X125052410Y-123899196D01*
X125052410Y-124355987D01*
X124916850Y-124283528D01*
X124750254Y-124232992D01*
X124577000Y-124215928D01*
X123327000Y-124215928D01*
X123153746Y-124232992D01*
X122987150Y-124283528D01*
X122833614Y-124365595D01*
X122699038Y-124476038D01*
X122588595Y-124610614D01*
X122506528Y-124764150D01*
X122455992Y-124930746D01*
X122438928Y-125104000D01*
X122438928Y-125854000D01*
X122455992Y-126027254D01*
X122506528Y-126193850D01*
X122588595Y-126347386D01*
X122608977Y-126372222D01*
X122020999Y-126960200D01*
X121953046Y-126960200D01*
X121902537Y-126865706D01*
X121823185Y-126769015D01*
X121763704Y-126720200D01*
X121823185Y-126671385D01*
X121902537Y-126574694D01*
X121961502Y-126464380D01*
X121997812Y-126344682D01*
X122010072Y-126220200D01*
X122007000Y-126005950D01*
X121848250Y-125847200D01*
X120249000Y-125847200D01*
X120249000Y-125867200D01*
X119995000Y-125867200D01*
X119995000Y-125847200D01*
X118395750Y-125847200D01*
X118237000Y-126005950D01*
X118233928Y-126220200D01*
X118246188Y-126344682D01*
X118282498Y-126464380D01*
X118341463Y-126574694D01*
X118420815Y-126671385D01*
X118480296Y-126720200D01*
X118420815Y-126769015D01*
X118341463Y-126865706D01*
X118282498Y-126976020D01*
X118246188Y-127095718D01*
X118233928Y-127220200D01*
X118233928Y-128220200D01*
X118246188Y-128344682D01*
X118282498Y-128464380D01*
X118341463Y-128574694D01*
X118420815Y-128671385D01*
X118480296Y-128720200D01*
X118420815Y-128769015D01*
X118341463Y-128865706D01*
X118337479Y-128873159D01*
X118157898Y-128798774D01*
X117957939Y-128759000D01*
X117754061Y-128759000D01*
X117614263Y-128786807D01*
X117621000Y-128752939D01*
X117621000Y-128549061D01*
X117581226Y-128349102D01*
X117503205Y-128160744D01*
X117389937Y-127991226D01*
X117346000Y-127947289D01*
X117346000Y-127306527D01*
X117349676Y-127269202D01*
X117346000Y-127231877D01*
X117346000Y-127231869D01*
X117335003Y-127120216D01*
X117291546Y-126976955D01*
X117220974Y-126844926D01*
X117126001Y-126729201D01*
X117097003Y-126705403D01*
X116138407Y-125746807D01*
X116146482Y-125746012D01*
X116266180Y-125709702D01*
X116376494Y-125650737D01*
X116473185Y-125571385D01*
X116522000Y-125511904D01*
X116570815Y-125571385D01*
X116667506Y-125650737D01*
X116777820Y-125709702D01*
X116897518Y-125746012D01*
X117022000Y-125758272D01*
X118022000Y-125758272D01*
X118146482Y-125746012D01*
X118266180Y-125709702D01*
X118376494Y-125650737D01*
X118446603Y-125593200D01*
X119995000Y-125593200D01*
X119995000Y-125573200D01*
X120249000Y-125573200D01*
X120249000Y-125593200D01*
X120491449Y-125593200D01*
X120545102Y-125615424D01*
X120745061Y-125655198D01*
X120948939Y-125655198D01*
X121148898Y-125615424D01*
X121202551Y-125593200D01*
X121848250Y-125593200D01*
X122007000Y-125434450D01*
X122010072Y-125220200D01*
X121997812Y-125095718D01*
X121961502Y-124976020D01*
X121902537Y-124865706D01*
X121863020Y-124817555D01*
X121882000Y-124722137D01*
X121882000Y-124518259D01*
X121842226Y-124318300D01*
X121764205Y-124129942D01*
X121763590Y-124129021D01*
X122454200Y-123438411D01*
X122487498Y-123548180D01*
X122546463Y-123658494D01*
X122625815Y-123755185D01*
X122722506Y-123834537D01*
X122832820Y-123893502D01*
X122952518Y-123929812D01*
X123077000Y-123942072D01*
X123666250Y-123939000D01*
X123825000Y-123780250D01*
X123825000Y-122806000D01*
X123805000Y-122806000D01*
X123805000Y-122552000D01*
X123825000Y-122552000D01*
X123825000Y-122532000D01*
X124079000Y-122532000D01*
X124079000Y-122552000D01*
G37*
X124079000Y-122552000D02*
X124099000Y-122552000D01*
X124099000Y-122806000D01*
X124079000Y-122806000D01*
X124079000Y-123780250D01*
X124237750Y-123939000D01*
X124827000Y-123942072D01*
X124951482Y-123929812D01*
X125052410Y-123899196D01*
X125052410Y-124355987D01*
X124916850Y-124283528D01*
X124750254Y-124232992D01*
X124577000Y-124215928D01*
X123327000Y-124215928D01*
X123153746Y-124232992D01*
X122987150Y-124283528D01*
X122833614Y-124365595D01*
X122699038Y-124476038D01*
X122588595Y-124610614D01*
X122506528Y-124764150D01*
X122455992Y-124930746D01*
X122438928Y-125104000D01*
X122438928Y-125854000D01*
X122455992Y-126027254D01*
X122506528Y-126193850D01*
X122588595Y-126347386D01*
X122608977Y-126372222D01*
X122020999Y-126960200D01*
X121953046Y-126960200D01*
X121902537Y-126865706D01*
X121823185Y-126769015D01*
X121763704Y-126720200D01*
X121823185Y-126671385D01*
X121902537Y-126574694D01*
X121961502Y-126464380D01*
X121997812Y-126344682D01*
X122010072Y-126220200D01*
X122007000Y-126005950D01*
X121848250Y-125847200D01*
X120249000Y-125847200D01*
X120249000Y-125867200D01*
X119995000Y-125867200D01*
X119995000Y-125847200D01*
X118395750Y-125847200D01*
X118237000Y-126005950D01*
X118233928Y-126220200D01*
X118246188Y-126344682D01*
X118282498Y-126464380D01*
X118341463Y-126574694D01*
X118420815Y-126671385D01*
X118480296Y-126720200D01*
X118420815Y-126769015D01*
X118341463Y-126865706D01*
X118282498Y-126976020D01*
X118246188Y-127095718D01*
X118233928Y-127220200D01*
X118233928Y-128220200D01*
X118246188Y-128344682D01*
X118282498Y-128464380D01*
X118341463Y-128574694D01*
X118420815Y-128671385D01*
X118480296Y-128720200D01*
X118420815Y-128769015D01*
X118341463Y-128865706D01*
X118337479Y-128873159D01*
X118157898Y-128798774D01*
X117957939Y-128759000D01*
X117754061Y-128759000D01*
X117614263Y-128786807D01*
X117621000Y-128752939D01*
X117621000Y-128549061D01*
X117581226Y-128349102D01*
X117503205Y-128160744D01*
X117389937Y-127991226D01*
X117346000Y-127947289D01*
X117346000Y-127306527D01*
X117349676Y-127269202D01*
X117346000Y-127231877D01*
X117346000Y-127231869D01*
X117335003Y-127120216D01*
X117291546Y-126976955D01*
X117220974Y-126844926D01*
X117126001Y-126729201D01*
X117097003Y-126705403D01*
X116138407Y-125746807D01*
X116146482Y-125746012D01*
X116266180Y-125709702D01*
X116376494Y-125650737D01*
X116473185Y-125571385D01*
X116522000Y-125511904D01*
X116570815Y-125571385D01*
X116667506Y-125650737D01*
X116777820Y-125709702D01*
X116897518Y-125746012D01*
X117022000Y-125758272D01*
X118022000Y-125758272D01*
X118146482Y-125746012D01*
X118266180Y-125709702D01*
X118376494Y-125650737D01*
X118446603Y-125593200D01*
X119995000Y-125593200D01*
X119995000Y-125573200D01*
X120249000Y-125573200D01*
X120249000Y-125593200D01*
X120491449Y-125593200D01*
X120545102Y-125615424D01*
X120745061Y-125655198D01*
X120948939Y-125655198D01*
X121148898Y-125615424D01*
X121202551Y-125593200D01*
X121848250Y-125593200D01*
X122007000Y-125434450D01*
X122010072Y-125220200D01*
X121997812Y-125095718D01*
X121961502Y-124976020D01*
X121902537Y-124865706D01*
X121863020Y-124817555D01*
X121882000Y-124722137D01*
X121882000Y-124518259D01*
X121842226Y-124318300D01*
X121764205Y-124129942D01*
X121763590Y-124129021D01*
X122454200Y-123438411D01*
X122487498Y-123548180D01*
X122546463Y-123658494D01*
X122625815Y-123755185D01*
X122722506Y-123834537D01*
X122832820Y-123893502D01*
X122952518Y-123929812D01*
X123077000Y-123942072D01*
X123666250Y-123939000D01*
X123825000Y-123780250D01*
X123825000Y-122806000D01*
X123805000Y-122806000D01*
X123805000Y-122552000D01*
X123825000Y-122552000D01*
X123825000Y-122532000D01*
X124079000Y-122532000D01*
X124079000Y-122552000D01*
G36*
X119408302Y-112679026D02*
G01*
X119544590Y-112706135D01*
X119544589Y-117638666D01*
X119540913Y-117675989D01*
X119544589Y-117713311D01*
X119544589Y-117713321D01*
X119555586Y-117824974D01*
X119585509Y-117923617D01*
X119599043Y-117968235D01*
X119669615Y-118100265D01*
X119696483Y-118133003D01*
X119764588Y-118215990D01*
X119793592Y-118239793D01*
X120602377Y-119048578D01*
X120581995Y-119073414D01*
X120499928Y-119226950D01*
X120449392Y-119393546D01*
X120432328Y-119566800D01*
X120432328Y-120316800D01*
X120449392Y-120490054D01*
X120499928Y-120656650D01*
X120581995Y-120810186D01*
X120692438Y-120944762D01*
X120827014Y-121055205D01*
X120980550Y-121137272D01*
X121147146Y-121187808D01*
X121320400Y-121204872D01*
X122538136Y-121204872D01*
X120336003Y-123407006D01*
X120306999Y-123430809D01*
X120262957Y-123484475D01*
X120212026Y-123546534D01*
X120178614Y-123609044D01*
X120170205Y-123588744D01*
X120056937Y-123419226D01*
X119912774Y-123275063D01*
X119743256Y-123161795D01*
X119554898Y-123083774D01*
X119354939Y-123044000D01*
X119292802Y-123044000D01*
X118296473Y-122047672D01*
X118729000Y-122047672D01*
X118853482Y-122035412D01*
X118973180Y-121999102D01*
X119083494Y-121940137D01*
X119180185Y-121860785D01*
X119259537Y-121764094D01*
X119318502Y-121653780D01*
X119354812Y-121534082D01*
X119367072Y-121409600D01*
X119367072Y-116909600D01*
X119354812Y-116785118D01*
X119318502Y-116665420D01*
X119259537Y-116555106D01*
X119180185Y-116458415D01*
X119083494Y-116379063D01*
X118973180Y-116320098D01*
X118853482Y-116283788D01*
X118729000Y-116271528D01*
X116939600Y-116271528D01*
X116939600Y-113547672D01*
X118729000Y-113547672D01*
X118853482Y-113535412D01*
X118973180Y-113499102D01*
X119083494Y-113440137D01*
X119180185Y-113360785D01*
X119259537Y-113264094D01*
X119318502Y-113153780D01*
X119354812Y-113034082D01*
X119367072Y-112909600D01*
X119367072Y-112661948D01*
X119408302Y-112679026D01*
G37*
X119408302Y-112679026D02*
X119544590Y-112706135D01*
X119544589Y-117638666D01*
X119540913Y-117675989D01*
X119544589Y-117713311D01*
X119544589Y-117713321D01*
X119555586Y-117824974D01*
X119585509Y-117923617D01*
X119599043Y-117968235D01*
X119669615Y-118100265D01*
X119696483Y-118133003D01*
X119764588Y-118215990D01*
X119793592Y-118239793D01*
X120602377Y-119048578D01*
X120581995Y-119073414D01*
X120499928Y-119226950D01*
X120449392Y-119393546D01*
X120432328Y-119566800D01*
X120432328Y-120316800D01*
X120449392Y-120490054D01*
X120499928Y-120656650D01*
X120581995Y-120810186D01*
X120692438Y-120944762D01*
X120827014Y-121055205D01*
X120980550Y-121137272D01*
X121147146Y-121187808D01*
X121320400Y-121204872D01*
X122538136Y-121204872D01*
X120336003Y-123407006D01*
X120306999Y-123430809D01*
X120262957Y-123484475D01*
X120212026Y-123546534D01*
X120178614Y-123609044D01*
X120170205Y-123588744D01*
X120056937Y-123419226D01*
X119912774Y-123275063D01*
X119743256Y-123161795D01*
X119554898Y-123083774D01*
X119354939Y-123044000D01*
X119292802Y-123044000D01*
X118296473Y-122047672D01*
X118729000Y-122047672D01*
X118853482Y-122035412D01*
X118973180Y-121999102D01*
X119083494Y-121940137D01*
X119180185Y-121860785D01*
X119259537Y-121764094D01*
X119318502Y-121653780D01*
X119354812Y-121534082D01*
X119367072Y-121409600D01*
X119367072Y-116909600D01*
X119354812Y-116785118D01*
X119318502Y-116665420D01*
X119259537Y-116555106D01*
X119180185Y-116458415D01*
X119083494Y-116379063D01*
X118973180Y-116320098D01*
X118853482Y-116283788D01*
X118729000Y-116271528D01*
X116939600Y-116271528D01*
X116939600Y-113547672D01*
X118729000Y-113547672D01*
X118853482Y-113535412D01*
X118973180Y-113499102D01*
X119083494Y-113440137D01*
X119180185Y-113360785D01*
X119259537Y-113264094D01*
X119318502Y-113153780D01*
X119354812Y-113034082D01*
X119367072Y-112909600D01*
X119367072Y-112661948D01*
X119408302Y-112679026D01*
G36*
X106741453Y-119526091D02*
G01*
X106691272Y-119691515D01*
X106674328Y-119863550D01*
X106674328Y-120776050D01*
X106691272Y-120948085D01*
X106741453Y-121113509D01*
X106822942Y-121265964D01*
X106932608Y-121399592D01*
X107066236Y-121509258D01*
X107218691Y-121590747D01*
X107384115Y-121640928D01*
X107556150Y-121657872D01*
X108043650Y-121657872D01*
X108061420Y-121656122D01*
X108073298Y-121668000D01*
X106486802Y-121668000D01*
X105567081Y-120748280D01*
X105736256Y-120678205D01*
X105905774Y-120564937D01*
X106049937Y-120420774D01*
X106163205Y-120251256D01*
X106241226Y-120062898D01*
X106281000Y-119862939D01*
X106281000Y-119818672D01*
X106461256Y-119744007D01*
X106630774Y-119630739D01*
X106748378Y-119513135D01*
X106741453Y-119526091D01*
G37*
X106741453Y-119526091D02*
X106691272Y-119691515D01*
X106674328Y-119863550D01*
X106674328Y-120776050D01*
X106691272Y-120948085D01*
X106741453Y-121113509D01*
X106822942Y-121265964D01*
X106932608Y-121399592D01*
X107066236Y-121509258D01*
X107218691Y-121590747D01*
X107384115Y-121640928D01*
X107556150Y-121657872D01*
X108043650Y-121657872D01*
X108061420Y-121656122D01*
X108073298Y-121668000D01*
X106486802Y-121668000D01*
X105567081Y-120748280D01*
X105736256Y-120678205D01*
X105905774Y-120564937D01*
X106049937Y-120420774D01*
X106163205Y-120251256D01*
X106241226Y-120062898D01*
X106281000Y-119862939D01*
X106281000Y-119818672D01*
X106461256Y-119744007D01*
X106630774Y-119630739D01*
X106748378Y-119513135D01*
X106741453Y-119526091D01*
G36*
X105265389Y-83926410D02*
G01*
X105022168Y-84088925D01*
X104815325Y-84295768D01*
X104652810Y-84538989D01*
X104540868Y-84809242D01*
X104483800Y-85096140D01*
X104483800Y-85388660D01*
X104540868Y-85675558D01*
X104652810Y-85945811D01*
X104815325Y-86189032D01*
X105022168Y-86395875D01*
X105265389Y-86558390D01*
X105535642Y-86670332D01*
X105822540Y-86727400D01*
X106115060Y-86727400D01*
X106174001Y-86715676D01*
X106174000Y-89573877D01*
X106170324Y-89611200D01*
X106174000Y-89648522D01*
X106174000Y-89648532D01*
X106174001Y-89648542D01*
X106174000Y-101822678D01*
X106170324Y-101860000D01*
X106174000Y-101897322D01*
X106174000Y-101897332D01*
X106184997Y-102008985D01*
X106228454Y-102152246D01*
X106299026Y-102284276D01*
X106338871Y-102332826D01*
X106393999Y-102400001D01*
X106423003Y-102423804D01*
X107096128Y-103096929D01*
X107096128Y-103823470D01*
X104110599Y-106809000D01*
X101310072Y-106809000D01*
X101310072Y-106719000D01*
X101297812Y-106594518D01*
X101261502Y-106474820D01*
X101202537Y-106364506D01*
X101123185Y-106267815D01*
X101026494Y-106188463D01*
X100916180Y-106129498D01*
X100796482Y-106093188D01*
X100672000Y-106080928D01*
X98972000Y-106080928D01*
X98847518Y-106093188D01*
X98727820Y-106129498D01*
X98617506Y-106188463D01*
X98520815Y-106267815D01*
X98441463Y-106364506D01*
X98382498Y-106474820D01*
X98346188Y-106594518D01*
X98333928Y-106719000D01*
X98333928Y-108419000D01*
X98346188Y-108543482D01*
X98382498Y-108663180D01*
X98441463Y-108773494D01*
X98520815Y-108870185D01*
X98617506Y-108949537D01*
X98727820Y-109008502D01*
X98800380Y-109030513D01*
X98668525Y-109162368D01*
X98506010Y-109405589D01*
X98394068Y-109675842D01*
X98337000Y-109962740D01*
X98337000Y-110255260D01*
X98394068Y-110542158D01*
X98506010Y-110812411D01*
X98668525Y-111055632D01*
X98875368Y-111262475D01*
X99049760Y-111379000D01*
X98875368Y-111495525D01*
X98668525Y-111702368D01*
X98506010Y-111945589D01*
X98394068Y-112215842D01*
X98337000Y-112502740D01*
X98337000Y-112795260D01*
X98394068Y-113082158D01*
X98506010Y-113352411D01*
X98668525Y-113595632D01*
X98875368Y-113802475D01*
X99057534Y-113924195D01*
X98940645Y-113993822D01*
X98724412Y-114188731D01*
X98550359Y-114422080D01*
X98425175Y-114684901D01*
X98380524Y-114832110D01*
X98501845Y-115062000D01*
X99695000Y-115062000D01*
X99695000Y-115042000D01*
X99949000Y-115042000D01*
X99949000Y-115062000D01*
X99969000Y-115062000D01*
X99969000Y-115316000D01*
X99949000Y-115316000D01*
X99949000Y-115336000D01*
X99695000Y-115336000D01*
X99695000Y-115316000D01*
X98501845Y-115316000D01*
X98380524Y-115545890D01*
X98425175Y-115693099D01*
X98550359Y-115955920D01*
X98724412Y-116189269D01*
X98940645Y-116384178D01*
X99057534Y-116453805D01*
X98875368Y-116575525D01*
X98668525Y-116782368D01*
X98506010Y-117025589D01*
X98394068Y-117295842D01*
X98337000Y-117582740D01*
X98337000Y-117875260D01*
X98394068Y-118162158D01*
X98506010Y-118432411D01*
X98668525Y-118675632D01*
X98875368Y-118882475D01*
X99049760Y-118999000D01*
X98875368Y-119115525D01*
X98668525Y-119322368D01*
X98506010Y-119565589D01*
X98394068Y-119835842D01*
X98337000Y-120122740D01*
X98337000Y-120415260D01*
X98380790Y-120635408D01*
X98069000Y-120947199D01*
X98069000Y-91547740D01*
X98210000Y-91547740D01*
X98210000Y-91840260D01*
X98267068Y-92127158D01*
X98379010Y-92397411D01*
X98541525Y-92640632D01*
X98748368Y-92847475D01*
X98922760Y-92964000D01*
X98748368Y-93080525D01*
X98541525Y-93287368D01*
X98379010Y-93530589D01*
X98267068Y-93800842D01*
X98210000Y-94087740D01*
X98210000Y-94380260D01*
X98267068Y-94667158D01*
X98379010Y-94937411D01*
X98541525Y-95180632D01*
X98748368Y-95387475D01*
X98930534Y-95509195D01*
X98813645Y-95578822D01*
X98597412Y-95773731D01*
X98423359Y-96007080D01*
X98298175Y-96269901D01*
X98253524Y-96417110D01*
X98374845Y-96647000D01*
X99568000Y-96647000D01*
X99568000Y-96627000D01*
X99822000Y-96627000D01*
X99822000Y-96647000D01*
X99842000Y-96647000D01*
X99842000Y-96901000D01*
X99822000Y-96901000D01*
X99822000Y-96921000D01*
X99568000Y-96921000D01*
X99568000Y-96901000D01*
X98374845Y-96901000D01*
X98253524Y-97130890D01*
X98298175Y-97278099D01*
X98423359Y-97540920D01*
X98597412Y-97774269D01*
X98813645Y-97969178D01*
X98930534Y-98038805D01*
X98748368Y-98160525D01*
X98541525Y-98367368D01*
X98379010Y-98610589D01*
X98267068Y-98880842D01*
X98210000Y-99167740D01*
X98210000Y-99460260D01*
X98267068Y-99747158D01*
X98379010Y-100017411D01*
X98541525Y-100260632D01*
X98748368Y-100467475D01*
X98922760Y-100584000D01*
X98748368Y-100700525D01*
X98541525Y-100907368D01*
X98379010Y-101150589D01*
X98267068Y-101420842D01*
X98210000Y-101707740D01*
X98210000Y-102000260D01*
X98267068Y-102287158D01*
X98379010Y-102557411D01*
X98541525Y-102800632D01*
X98748368Y-103007475D01*
X98991589Y-103169990D01*
X99261842Y-103281932D01*
X99548740Y-103339000D01*
X99841260Y-103339000D01*
X100128158Y-103281932D01*
X100398411Y-103169990D01*
X100641632Y-103007475D01*
X100848475Y-102800632D01*
X100965000Y-102626240D01*
X101081525Y-102800632D01*
X101288368Y-103007475D01*
X101531589Y-103169990D01*
X101801842Y-103281932D01*
X102088740Y-103339000D01*
X102381260Y-103339000D01*
X102668158Y-103281932D01*
X102938411Y-103169990D01*
X103181632Y-103007475D01*
X103388475Y-102800632D01*
X103550990Y-102557411D01*
X103662932Y-102287158D01*
X103720000Y-102000260D01*
X103720000Y-101707740D01*
X103662932Y-101420842D01*
X103550990Y-101150589D01*
X103388475Y-100907368D01*
X103181632Y-100700525D01*
X103007240Y-100584000D01*
X103181632Y-100467475D01*
X103388475Y-100260632D01*
X103550990Y-100017411D01*
X103662932Y-99747158D01*
X103720000Y-99460260D01*
X103720000Y-99167740D01*
X103662932Y-98880842D01*
X103550990Y-98610589D01*
X103388475Y-98367368D01*
X103181632Y-98160525D01*
X103007240Y-98044000D01*
X103181632Y-97927475D01*
X103388475Y-97720632D01*
X103550990Y-97477411D01*
X103662932Y-97207158D01*
X103720000Y-96920260D01*
X103720000Y-96627740D01*
X103662932Y-96340842D01*
X103550990Y-96070589D01*
X103388475Y-95827368D01*
X103181632Y-95620525D01*
X103007240Y-95504000D01*
X103181632Y-95387475D01*
X103388475Y-95180632D01*
X103550990Y-94937411D01*
X103662932Y-94667158D01*
X103720000Y-94380260D01*
X103720000Y-94087740D01*
X103662932Y-93800842D01*
X103550990Y-93530589D01*
X103388475Y-93287368D01*
X103256620Y-93155513D01*
X103329180Y-93133502D01*
X103439494Y-93074537D01*
X103536185Y-92995185D01*
X103615537Y-92898494D01*
X103674502Y-92788180D01*
X103710812Y-92668482D01*
X103723072Y-92544000D01*
X103723072Y-90844000D01*
X103710812Y-90719518D01*
X103674502Y-90599820D01*
X103615537Y-90489506D01*
X103536185Y-90392815D01*
X103439494Y-90313463D01*
X103329180Y-90254498D01*
X103209482Y-90218188D01*
X103085000Y-90205928D01*
X101385000Y-90205928D01*
X101260518Y-90218188D01*
X101140820Y-90254498D01*
X101030506Y-90313463D01*
X100933815Y-90392815D01*
X100854463Y-90489506D01*
X100795498Y-90599820D01*
X100773487Y-90672380D01*
X100641632Y-90540525D01*
X100398411Y-90378010D01*
X100128158Y-90266068D01*
X99841260Y-90209000D01*
X99548740Y-90209000D01*
X99261842Y-90266068D01*
X98991589Y-90378010D01*
X98748368Y-90540525D01*
X98541525Y-90747368D01*
X98379010Y-90990589D01*
X98267068Y-91260842D01*
X98210000Y-91547740D01*
X98069000Y-91547740D01*
X98069000Y-86647872D01*
X98857000Y-86647872D01*
X98857000Y-87088128D01*
X98942890Y-87519925D01*
X99111369Y-87926669D01*
X99355962Y-88292729D01*
X99667271Y-88604038D01*
X100033331Y-88848631D01*
X100440075Y-89017110D01*
X100871872Y-89103000D01*
X101312128Y-89103000D01*
X101743925Y-89017110D01*
X102150669Y-88848631D01*
X102516729Y-88604038D01*
X102828038Y-88292729D01*
X103072631Y-87926669D01*
X103241110Y-87519925D01*
X103327000Y-87088128D01*
X103327000Y-86647872D01*
X103241110Y-86216075D01*
X103072631Y-85809331D01*
X102828038Y-85443271D01*
X102516729Y-85131962D01*
X102150669Y-84887369D01*
X101743925Y-84718890D01*
X101312128Y-84633000D01*
X100871872Y-84633000D01*
X100440075Y-84718890D01*
X100033331Y-84887369D01*
X99667271Y-85131962D01*
X99355962Y-85443271D01*
X99111369Y-85809331D01*
X98942890Y-86216075D01*
X98857000Y-86647872D01*
X98069000Y-86647872D01*
X98069000Y-86011278D01*
X98112746Y-85565119D01*
X98232945Y-85167001D01*
X98428181Y-84799815D01*
X98691022Y-84477541D01*
X99011452Y-84212458D01*
X99377267Y-84014662D01*
X99774537Y-83891686D01*
X100218726Y-83845000D01*
X105461931Y-83845000D01*
X105265389Y-83926410D01*
G37*
X105265389Y-83926410D02*
X105022168Y-84088925D01*
X104815325Y-84295768D01*
X104652810Y-84538989D01*
X104540868Y-84809242D01*
X104483800Y-85096140D01*
X104483800Y-85388660D01*
X104540868Y-85675558D01*
X104652810Y-85945811D01*
X104815325Y-86189032D01*
X105022168Y-86395875D01*
X105265389Y-86558390D01*
X105535642Y-86670332D01*
X105822540Y-86727400D01*
X106115060Y-86727400D01*
X106174001Y-86715676D01*
X106174000Y-89573877D01*
X106170324Y-89611200D01*
X106174000Y-89648522D01*
X106174000Y-89648532D01*
X106174001Y-89648542D01*
X106174000Y-101822678D01*
X106170324Y-101860000D01*
X106174000Y-101897322D01*
X106174000Y-101897332D01*
X106184997Y-102008985D01*
X106228454Y-102152246D01*
X106299026Y-102284276D01*
X106338871Y-102332826D01*
X106393999Y-102400001D01*
X106423003Y-102423804D01*
X107096128Y-103096929D01*
X107096128Y-103823470D01*
X104110599Y-106809000D01*
X101310072Y-106809000D01*
X101310072Y-106719000D01*
X101297812Y-106594518D01*
X101261502Y-106474820D01*
X101202537Y-106364506D01*
X101123185Y-106267815D01*
X101026494Y-106188463D01*
X100916180Y-106129498D01*
X100796482Y-106093188D01*
X100672000Y-106080928D01*
X98972000Y-106080928D01*
X98847518Y-106093188D01*
X98727820Y-106129498D01*
X98617506Y-106188463D01*
X98520815Y-106267815D01*
X98441463Y-106364506D01*
X98382498Y-106474820D01*
X98346188Y-106594518D01*
X98333928Y-106719000D01*
X98333928Y-108419000D01*
X98346188Y-108543482D01*
X98382498Y-108663180D01*
X98441463Y-108773494D01*
X98520815Y-108870185D01*
X98617506Y-108949537D01*
X98727820Y-109008502D01*
X98800380Y-109030513D01*
X98668525Y-109162368D01*
X98506010Y-109405589D01*
X98394068Y-109675842D01*
X98337000Y-109962740D01*
X98337000Y-110255260D01*
X98394068Y-110542158D01*
X98506010Y-110812411D01*
X98668525Y-111055632D01*
X98875368Y-111262475D01*
X99049760Y-111379000D01*
X98875368Y-111495525D01*
X98668525Y-111702368D01*
X98506010Y-111945589D01*
X98394068Y-112215842D01*
X98337000Y-112502740D01*
X98337000Y-112795260D01*
X98394068Y-113082158D01*
X98506010Y-113352411D01*
X98668525Y-113595632D01*
X98875368Y-113802475D01*
X99057534Y-113924195D01*
X98940645Y-113993822D01*
X98724412Y-114188731D01*
X98550359Y-114422080D01*
X98425175Y-114684901D01*
X98380524Y-114832110D01*
X98501845Y-115062000D01*
X99695000Y-115062000D01*
X99695000Y-115042000D01*
X99949000Y-115042000D01*
X99949000Y-115062000D01*
X99969000Y-115062000D01*
X99969000Y-115316000D01*
X99949000Y-115316000D01*
X99949000Y-115336000D01*
X99695000Y-115336000D01*
X99695000Y-115316000D01*
X98501845Y-115316000D01*
X98380524Y-115545890D01*
X98425175Y-115693099D01*
X98550359Y-115955920D01*
X98724412Y-116189269D01*
X98940645Y-116384178D01*
X99057534Y-116453805D01*
X98875368Y-116575525D01*
X98668525Y-116782368D01*
X98506010Y-117025589D01*
X98394068Y-117295842D01*
X98337000Y-117582740D01*
X98337000Y-117875260D01*
X98394068Y-118162158D01*
X98506010Y-118432411D01*
X98668525Y-118675632D01*
X98875368Y-118882475D01*
X99049760Y-118999000D01*
X98875368Y-119115525D01*
X98668525Y-119322368D01*
X98506010Y-119565589D01*
X98394068Y-119835842D01*
X98337000Y-120122740D01*
X98337000Y-120415260D01*
X98380790Y-120635408D01*
X98069000Y-120947199D01*
X98069000Y-91547740D01*
X98210000Y-91547740D01*
X98210000Y-91840260D01*
X98267068Y-92127158D01*
X98379010Y-92397411D01*
X98541525Y-92640632D01*
X98748368Y-92847475D01*
X98922760Y-92964000D01*
X98748368Y-93080525D01*
X98541525Y-93287368D01*
X98379010Y-93530589D01*
X98267068Y-93800842D01*
X98210000Y-94087740D01*
X98210000Y-94380260D01*
X98267068Y-94667158D01*
X98379010Y-94937411D01*
X98541525Y-95180632D01*
X98748368Y-95387475D01*
X98930534Y-95509195D01*
X98813645Y-95578822D01*
X98597412Y-95773731D01*
X98423359Y-96007080D01*
X98298175Y-96269901D01*
X98253524Y-96417110D01*
X98374845Y-96647000D01*
X99568000Y-96647000D01*
X99568000Y-96627000D01*
X99822000Y-96627000D01*
X99822000Y-96647000D01*
X99842000Y-96647000D01*
X99842000Y-96901000D01*
X99822000Y-96901000D01*
X99822000Y-96921000D01*
X99568000Y-96921000D01*
X99568000Y-96901000D01*
X98374845Y-96901000D01*
X98253524Y-97130890D01*
X98298175Y-97278099D01*
X98423359Y-97540920D01*
X98597412Y-97774269D01*
X98813645Y-97969178D01*
X98930534Y-98038805D01*
X98748368Y-98160525D01*
X98541525Y-98367368D01*
X98379010Y-98610589D01*
X98267068Y-98880842D01*
X98210000Y-99167740D01*
X98210000Y-99460260D01*
X98267068Y-99747158D01*
X98379010Y-100017411D01*
X98541525Y-100260632D01*
X98748368Y-100467475D01*
X98922760Y-100584000D01*
X98748368Y-100700525D01*
X98541525Y-100907368D01*
X98379010Y-101150589D01*
X98267068Y-101420842D01*
X98210000Y-101707740D01*
X98210000Y-102000260D01*
X98267068Y-102287158D01*
X98379010Y-102557411D01*
X98541525Y-102800632D01*
X98748368Y-103007475D01*
X98991589Y-103169990D01*
X99261842Y-103281932D01*
X99548740Y-103339000D01*
X99841260Y-103339000D01*
X100128158Y-103281932D01*
X100398411Y-103169990D01*
X100641632Y-103007475D01*
X100848475Y-102800632D01*
X100965000Y-102626240D01*
X101081525Y-102800632D01*
X101288368Y-103007475D01*
X101531589Y-103169990D01*
X101801842Y-103281932D01*
X102088740Y-103339000D01*
X102381260Y-103339000D01*
X102668158Y-103281932D01*
X102938411Y-103169990D01*
X103181632Y-103007475D01*
X103388475Y-102800632D01*
X103550990Y-102557411D01*
X103662932Y-102287158D01*
X103720000Y-102000260D01*
X103720000Y-101707740D01*
X103662932Y-101420842D01*
X103550990Y-101150589D01*
X103388475Y-100907368D01*
X103181632Y-100700525D01*
X103007240Y-100584000D01*
X103181632Y-100467475D01*
X103388475Y-100260632D01*
X103550990Y-100017411D01*
X103662932Y-99747158D01*
X103720000Y-99460260D01*
X103720000Y-99167740D01*
X103662932Y-98880842D01*
X103550990Y-98610589D01*
X103388475Y-98367368D01*
X103181632Y-98160525D01*
X103007240Y-98044000D01*
X103181632Y-97927475D01*
X103388475Y-97720632D01*
X103550990Y-97477411D01*
X103662932Y-97207158D01*
X103720000Y-96920260D01*
X103720000Y-96627740D01*
X103662932Y-96340842D01*
X103550990Y-96070589D01*
X103388475Y-95827368D01*
X103181632Y-95620525D01*
X103007240Y-95504000D01*
X103181632Y-95387475D01*
X103388475Y-95180632D01*
X103550990Y-94937411D01*
X103662932Y-94667158D01*
X103720000Y-94380260D01*
X103720000Y-94087740D01*
X103662932Y-93800842D01*
X103550990Y-93530589D01*
X103388475Y-93287368D01*
X103256620Y-93155513D01*
X103329180Y-93133502D01*
X103439494Y-93074537D01*
X103536185Y-92995185D01*
X103615537Y-92898494D01*
X103674502Y-92788180D01*
X103710812Y-92668482D01*
X103723072Y-92544000D01*
X103723072Y-90844000D01*
X103710812Y-90719518D01*
X103674502Y-90599820D01*
X103615537Y-90489506D01*
X103536185Y-90392815D01*
X103439494Y-90313463D01*
X103329180Y-90254498D01*
X103209482Y-90218188D01*
X103085000Y-90205928D01*
X101385000Y-90205928D01*
X101260518Y-90218188D01*
X101140820Y-90254498D01*
X101030506Y-90313463D01*
X100933815Y-90392815D01*
X100854463Y-90489506D01*
X100795498Y-90599820D01*
X100773487Y-90672380D01*
X100641632Y-90540525D01*
X100398411Y-90378010D01*
X100128158Y-90266068D01*
X99841260Y-90209000D01*
X99548740Y-90209000D01*
X99261842Y-90266068D01*
X98991589Y-90378010D01*
X98748368Y-90540525D01*
X98541525Y-90747368D01*
X98379010Y-90990589D01*
X98267068Y-91260842D01*
X98210000Y-91547740D01*
X98069000Y-91547740D01*
X98069000Y-86647872D01*
X98857000Y-86647872D01*
X98857000Y-87088128D01*
X98942890Y-87519925D01*
X99111369Y-87926669D01*
X99355962Y-88292729D01*
X99667271Y-88604038D01*
X100033331Y-88848631D01*
X100440075Y-89017110D01*
X100871872Y-89103000D01*
X101312128Y-89103000D01*
X101743925Y-89017110D01*
X102150669Y-88848631D01*
X102516729Y-88604038D01*
X102828038Y-88292729D01*
X103072631Y-87926669D01*
X103241110Y-87519925D01*
X103327000Y-87088128D01*
X103327000Y-86647872D01*
X103241110Y-86216075D01*
X103072631Y-85809331D01*
X102828038Y-85443271D01*
X102516729Y-85131962D01*
X102150669Y-84887369D01*
X101743925Y-84718890D01*
X101312128Y-84633000D01*
X100871872Y-84633000D01*
X100440075Y-84718890D01*
X100033331Y-84887369D01*
X99667271Y-85131962D01*
X99355962Y-85443271D01*
X99111369Y-85809331D01*
X98942890Y-86216075D01*
X98857000Y-86647872D01*
X98069000Y-86647872D01*
X98069000Y-86011278D01*
X98112746Y-85565119D01*
X98232945Y-85167001D01*
X98428181Y-84799815D01*
X98691022Y-84477541D01*
X99011452Y-84212458D01*
X99377267Y-84014662D01*
X99774537Y-83891686D01*
X100218726Y-83845000D01*
X105461931Y-83845000D01*
X105265389Y-83926410D01*
G36*
X111745968Y-117895002D02*
G01*
X111768660Y-117922652D01*
X111775071Y-117987745D01*
X111819916Y-118135582D01*
X111892742Y-118271829D01*
X111990749Y-118391251D01*
X112110171Y-118489258D01*
X112246418Y-118562084D01*
X112394255Y-118606929D01*
X112548000Y-118622072D01*
X113203476Y-118622072D01*
X112829308Y-118996241D01*
X112821882Y-118993988D01*
X112697400Y-118981728D01*
X112495650Y-118984800D01*
X112336900Y-119143550D01*
X112336900Y-119548210D01*
X112326963Y-119566800D01*
X112316864Y-119585694D01*
X112273407Y-119728955D01*
X112262410Y-119840608D01*
X112262410Y-119840618D01*
X112258734Y-119877940D01*
X112262410Y-119915263D01*
X112262411Y-120466800D01*
X112082900Y-120466800D01*
X112082900Y-120446800D01*
X111246150Y-120446800D01*
X111108140Y-120584810D01*
X110776660Y-120584810D01*
X110638650Y-120446800D01*
X109801900Y-120446800D01*
X109801900Y-120466800D01*
X109547900Y-120466800D01*
X109547900Y-120446800D01*
X109527900Y-120446800D01*
X109527900Y-120192800D01*
X109547900Y-120192800D01*
X109547900Y-119143550D01*
X109801900Y-119143550D01*
X109801900Y-120192800D01*
X110638650Y-120192800D01*
X110797400Y-120034050D01*
X110800472Y-119619800D01*
X111084328Y-119619800D01*
X111087400Y-120034050D01*
X111246150Y-120192800D01*
X112082900Y-120192800D01*
X112082900Y-119143550D01*
X111924150Y-118984800D01*
X111722400Y-118981728D01*
X111597918Y-118993988D01*
X111478220Y-119030298D01*
X111367906Y-119089263D01*
X111271215Y-119168615D01*
X111191863Y-119265306D01*
X111132898Y-119375620D01*
X111096588Y-119495318D01*
X111084328Y-119619800D01*
X110800472Y-119619800D01*
X110788212Y-119495318D01*
X110751902Y-119375620D01*
X110692937Y-119265306D01*
X110613585Y-119168615D01*
X110516894Y-119089263D01*
X110406580Y-119030298D01*
X110286882Y-118993988D01*
X110162400Y-118981728D01*
X109960650Y-118984800D01*
X109801900Y-119143550D01*
X109547900Y-119143550D01*
X109389150Y-118984800D01*
X109187400Y-118981728D01*
X109062918Y-118993988D01*
X108943220Y-119030298D01*
X108832906Y-119089263D01*
X108736215Y-119168615D01*
X108672408Y-119246364D01*
X108667192Y-119240008D01*
X108533564Y-119130342D01*
X108381109Y-119048853D01*
X108215685Y-118998672D01*
X108043650Y-118981728D01*
X107556150Y-118981728D01*
X107384115Y-118998672D01*
X107218691Y-119048853D01*
X107066236Y-119130342D01*
X106932608Y-119240008D01*
X106907395Y-119270731D01*
X106966226Y-119128700D01*
X107006000Y-118928741D01*
X107006000Y-118724863D01*
X106966226Y-118524904D01*
X106888205Y-118336546D01*
X106774937Y-118167028D01*
X106772355Y-118164446D01*
X106823615Y-118113186D01*
X106858498Y-118228180D01*
X106917463Y-118338494D01*
X106996815Y-118435185D01*
X107093506Y-118514537D01*
X107203820Y-118573502D01*
X107323518Y-118609812D01*
X107448000Y-118622072D01*
X108137250Y-118619000D01*
X108296000Y-118460250D01*
X108296000Y-117811000D01*
X108550000Y-117811000D01*
X108550000Y-118460250D01*
X108708750Y-118619000D01*
X109398000Y-118622072D01*
X109522482Y-118609812D01*
X109642180Y-118573502D01*
X109752494Y-118514537D01*
X109849185Y-118435185D01*
X109928537Y-118338494D01*
X109987502Y-118228180D01*
X110023812Y-118108482D01*
X110036072Y-117984000D01*
X110033000Y-117969750D01*
X109874250Y-117811000D01*
X108550000Y-117811000D01*
X108296000Y-117811000D01*
X108276000Y-117811000D01*
X108276000Y-117557000D01*
X108296000Y-117557000D01*
X108296000Y-117537000D01*
X108550000Y-117537000D01*
X108550000Y-117557000D01*
X109874250Y-117557000D01*
X110033000Y-117398250D01*
X110036072Y-117384000D01*
X110023812Y-117259518D01*
X109987502Y-117139820D01*
X109928537Y-117029506D01*
X109904270Y-116999936D01*
X109976084Y-116865582D01*
X110020929Y-116717745D01*
X110036072Y-116564000D01*
X110036072Y-116264000D01*
X110027452Y-116176486D01*
X111745968Y-117895002D01*
G37*
X111745968Y-117895002D02*
X111768660Y-117922652D01*
X111775071Y-117987745D01*
X111819916Y-118135582D01*
X111892742Y-118271829D01*
X111990749Y-118391251D01*
X112110171Y-118489258D01*
X112246418Y-118562084D01*
X112394255Y-118606929D01*
X112548000Y-118622072D01*
X113203476Y-118622072D01*
X112829308Y-118996241D01*
X112821882Y-118993988D01*
X112697400Y-118981728D01*
X112495650Y-118984800D01*
X112336900Y-119143550D01*
X112336900Y-119548210D01*
X112326963Y-119566800D01*
X112316864Y-119585694D01*
X112273407Y-119728955D01*
X112262410Y-119840608D01*
X112262410Y-119840618D01*
X112258734Y-119877940D01*
X112262410Y-119915263D01*
X112262411Y-120466800D01*
X112082900Y-120466800D01*
X112082900Y-120446800D01*
X111246150Y-120446800D01*
X111108140Y-120584810D01*
X110776660Y-120584810D01*
X110638650Y-120446800D01*
X109801900Y-120446800D01*
X109801900Y-120466800D01*
X109547900Y-120466800D01*
X109547900Y-120446800D01*
X109527900Y-120446800D01*
X109527900Y-120192800D01*
X109547900Y-120192800D01*
X109547900Y-119143550D01*
X109801900Y-119143550D01*
X109801900Y-120192800D01*
X110638650Y-120192800D01*
X110797400Y-120034050D01*
X110800472Y-119619800D01*
X111084328Y-119619800D01*
X111087400Y-120034050D01*
X111246150Y-120192800D01*
X112082900Y-120192800D01*
X112082900Y-119143550D01*
X111924150Y-118984800D01*
X111722400Y-118981728D01*
X111597918Y-118993988D01*
X111478220Y-119030298D01*
X111367906Y-119089263D01*
X111271215Y-119168615D01*
X111191863Y-119265306D01*
X111132898Y-119375620D01*
X111096588Y-119495318D01*
X111084328Y-119619800D01*
X110800472Y-119619800D01*
X110788212Y-119495318D01*
X110751902Y-119375620D01*
X110692937Y-119265306D01*
X110613585Y-119168615D01*
X110516894Y-119089263D01*
X110406580Y-119030298D01*
X110286882Y-118993988D01*
X110162400Y-118981728D01*
X109960650Y-118984800D01*
X109801900Y-119143550D01*
X109547900Y-119143550D01*
X109389150Y-118984800D01*
X109187400Y-118981728D01*
X109062918Y-118993988D01*
X108943220Y-119030298D01*
X108832906Y-119089263D01*
X108736215Y-119168615D01*
X108672408Y-119246364D01*
X108667192Y-119240008D01*
X108533564Y-119130342D01*
X108381109Y-119048853D01*
X108215685Y-118998672D01*
X108043650Y-118981728D01*
X107556150Y-118981728D01*
X107384115Y-118998672D01*
X107218691Y-119048853D01*
X107066236Y-119130342D01*
X106932608Y-119240008D01*
X106907395Y-119270731D01*
X106966226Y-119128700D01*
X107006000Y-118928741D01*
X107006000Y-118724863D01*
X106966226Y-118524904D01*
X106888205Y-118336546D01*
X106774937Y-118167028D01*
X106772355Y-118164446D01*
X106823615Y-118113186D01*
X106858498Y-118228180D01*
X106917463Y-118338494D01*
X106996815Y-118435185D01*
X107093506Y-118514537D01*
X107203820Y-118573502D01*
X107323518Y-118609812D01*
X107448000Y-118622072D01*
X108137250Y-118619000D01*
X108296000Y-118460250D01*
X108296000Y-117811000D01*
X108550000Y-117811000D01*
X108550000Y-118460250D01*
X108708750Y-118619000D01*
X109398000Y-118622072D01*
X109522482Y-118609812D01*
X109642180Y-118573502D01*
X109752494Y-118514537D01*
X109849185Y-118435185D01*
X109928537Y-118338494D01*
X109987502Y-118228180D01*
X110023812Y-118108482D01*
X110036072Y-117984000D01*
X110033000Y-117969750D01*
X109874250Y-117811000D01*
X108550000Y-117811000D01*
X108296000Y-117811000D01*
X108276000Y-117811000D01*
X108276000Y-117557000D01*
X108296000Y-117557000D01*
X108296000Y-117537000D01*
X108550000Y-117537000D01*
X108550000Y-117557000D01*
X109874250Y-117557000D01*
X110033000Y-117398250D01*
X110036072Y-117384000D01*
X110023812Y-117259518D01*
X109987502Y-117139820D01*
X109928537Y-117029506D01*
X109904270Y-116999936D01*
X109976084Y-116865582D01*
X110020929Y-116717745D01*
X110036072Y-116564000D01*
X110036072Y-116264000D01*
X110027452Y-116176486D01*
X111745968Y-117895002D01*
G36*
X105128614Y-111689678D02*
G01*
X105124938Y-111727001D01*
X105128614Y-111764323D01*
X105128614Y-111764333D01*
X105139611Y-111875986D01*
X105170546Y-111977966D01*
X105183068Y-112019247D01*
X105253640Y-112151277D01*
X105276986Y-112179724D01*
X105348613Y-112267002D01*
X105377617Y-112290805D01*
X106810007Y-113723196D01*
X106809928Y-113724000D01*
X106809928Y-114024000D01*
X106825071Y-114177745D01*
X106869916Y-114325582D01*
X106942742Y-114461829D01*
X106981454Y-114509000D01*
X106942742Y-114556171D01*
X106924350Y-114590580D01*
X106907999Y-114603999D01*
X106884201Y-114632997D01*
X104795038Y-116722161D01*
X104795038Y-111402836D01*
X104815542Y-111402836D01*
X105015501Y-111363062D01*
X105128614Y-111316209D01*
X105128614Y-111689678D01*
G37*
X105128614Y-111689678D02*
X105124938Y-111727001D01*
X105128614Y-111764323D01*
X105128614Y-111764333D01*
X105139611Y-111875986D01*
X105170546Y-111977966D01*
X105183068Y-112019247D01*
X105253640Y-112151277D01*
X105276986Y-112179724D01*
X105348613Y-112267002D01*
X105377617Y-112290805D01*
X106810007Y-113723196D01*
X106809928Y-113724000D01*
X106809928Y-114024000D01*
X106825071Y-114177745D01*
X106869916Y-114325582D01*
X106942742Y-114461829D01*
X106981454Y-114509000D01*
X106942742Y-114556171D01*
X106924350Y-114590580D01*
X106907999Y-114603999D01*
X106884201Y-114632997D01*
X104795038Y-116722161D01*
X104795038Y-111402836D01*
X104815542Y-111402836D01*
X105015501Y-111363062D01*
X105128614Y-111316209D01*
X105128614Y-111689678D01*
G36*
X116154388Y-90423482D02*
G01*
X116190698Y-90543180D01*
X116249663Y-90653494D01*
X116329015Y-90750185D01*
X116425706Y-90829537D01*
X116536020Y-90888502D01*
X116655718Y-90924812D01*
X116780200Y-90937072D01*
X117353001Y-90937072D01*
X117353000Y-92304661D01*
X117244614Y-92362595D01*
X117110038Y-92473038D01*
X116999595Y-92607614D01*
X116917528Y-92761150D01*
X116866992Y-92927746D01*
X116849928Y-93101000D01*
X116849928Y-94351000D01*
X116866992Y-94524254D01*
X116917528Y-94690850D01*
X116999595Y-94844386D01*
X117110038Y-94978962D01*
X117244614Y-95089405D01*
X117398150Y-95171472D01*
X117564746Y-95222008D01*
X117738000Y-95239072D01*
X118488000Y-95239072D01*
X118661254Y-95222008D01*
X118827850Y-95171472D01*
X118981386Y-95089405D01*
X119115962Y-94978962D01*
X119226405Y-94844386D01*
X119308472Y-94690850D01*
X119359008Y-94524254D01*
X119376072Y-94351000D01*
X119376072Y-94331353D01*
X119502936Y-94331353D01*
X119546873Y-94375290D01*
X119716391Y-94488558D01*
X119904749Y-94566579D01*
X120104708Y-94606353D01*
X120271001Y-94606353D01*
X120271000Y-98763798D01*
X117265158Y-101769640D01*
X117219872Y-101620350D01*
X117137805Y-101466814D01*
X117027362Y-101332238D01*
X116892786Y-101221795D01*
X116739250Y-101139728D01*
X116572654Y-101089192D01*
X116399400Y-101072128D01*
X115299400Y-101072128D01*
X115126146Y-101089192D01*
X114959550Y-101139728D01*
X114806014Y-101221795D01*
X114671438Y-101332238D01*
X114560995Y-101466814D01*
X114478928Y-101620350D01*
X114433642Y-101769640D01*
X112274202Y-99610200D01*
X114411328Y-99610200D01*
X114423588Y-99734682D01*
X114459898Y-99854380D01*
X114518863Y-99964694D01*
X114598215Y-100061385D01*
X114694906Y-100140737D01*
X114805220Y-100199702D01*
X114924918Y-100236012D01*
X115049400Y-100248272D01*
X115563650Y-100245200D01*
X115722400Y-100086450D01*
X115722400Y-97987200D01*
X115976400Y-97987200D01*
X115976400Y-100086450D01*
X116135150Y-100245200D01*
X116649400Y-100248272D01*
X116773882Y-100236012D01*
X116893580Y-100199702D01*
X117003894Y-100140737D01*
X117100585Y-100061385D01*
X117179937Y-99964694D01*
X117238902Y-99854380D01*
X117275212Y-99734682D01*
X117287472Y-99610200D01*
X117284400Y-98145950D01*
X117125650Y-97987200D01*
X115976400Y-97987200D01*
X115722400Y-97987200D01*
X114573150Y-97987200D01*
X114414400Y-98145950D01*
X114411328Y-99610200D01*
X112274202Y-99610200D01*
X112088214Y-99424213D01*
X112064411Y-99395209D01*
X111948686Y-99300236D01*
X111816657Y-99229664D01*
X111673396Y-99186207D01*
X111561743Y-99175210D01*
X111561732Y-99175210D01*
X111524410Y-99171534D01*
X111487088Y-99175210D01*
X109971359Y-99175210D01*
X109969200Y-98145950D01*
X109810450Y-97987200D01*
X108661200Y-97987200D01*
X108661200Y-98007200D01*
X108407200Y-98007200D01*
X108407200Y-97987200D01*
X108387200Y-97987200D01*
X108387200Y-97733200D01*
X108407200Y-97733200D01*
X108407200Y-95633950D01*
X108661200Y-95633950D01*
X108661200Y-97733200D01*
X109810450Y-97733200D01*
X109969200Y-97574450D01*
X109972272Y-96110200D01*
X114411328Y-96110200D01*
X114414400Y-97574450D01*
X114573150Y-97733200D01*
X115722400Y-97733200D01*
X115722400Y-95633950D01*
X115976400Y-95633950D01*
X115976400Y-97733200D01*
X117125650Y-97733200D01*
X117284400Y-97574450D01*
X117287472Y-96110200D01*
X117275212Y-95985718D01*
X117238902Y-95866020D01*
X117179937Y-95755706D01*
X117100585Y-95659015D01*
X117003894Y-95579663D01*
X116893580Y-95520698D01*
X116773882Y-95484388D01*
X116649400Y-95472128D01*
X116135150Y-95475200D01*
X115976400Y-95633950D01*
X115722400Y-95633950D01*
X115563650Y-95475200D01*
X115049400Y-95472128D01*
X114924918Y-95484388D01*
X114805220Y-95520698D01*
X114694906Y-95579663D01*
X114598215Y-95659015D01*
X114518863Y-95755706D01*
X114459898Y-95866020D01*
X114423588Y-95985718D01*
X114411328Y-96110200D01*
X109972272Y-96110200D01*
X109960012Y-95985718D01*
X109923702Y-95866020D01*
X109864737Y-95755706D01*
X109785385Y-95659015D01*
X109688694Y-95579663D01*
X109578380Y-95520698D01*
X109458682Y-95484388D01*
X109334200Y-95472128D01*
X108819950Y-95475200D01*
X108661200Y-95633950D01*
X108407200Y-95633950D01*
X108248450Y-95475200D01*
X108169190Y-95474727D01*
X108169190Y-95350611D01*
X108450778Y-95069023D01*
X108475614Y-95089405D01*
X108629150Y-95171472D01*
X108795746Y-95222008D01*
X108969000Y-95239072D01*
X109719000Y-95239072D01*
X109892254Y-95222008D01*
X110058850Y-95171472D01*
X110212386Y-95089405D01*
X110346962Y-94978962D01*
X110457405Y-94844386D01*
X110539472Y-94690850D01*
X110566727Y-94601000D01*
X110880928Y-94601000D01*
X110893188Y-94725482D01*
X110929498Y-94845180D01*
X110988463Y-94955494D01*
X111067815Y-95052185D01*
X111164506Y-95131537D01*
X111274820Y-95190502D01*
X111394518Y-95226812D01*
X111519000Y-95239072D01*
X111858250Y-95236000D01*
X112017000Y-95077250D01*
X112017000Y-93853000D01*
X112271000Y-93853000D01*
X112271000Y-95077250D01*
X112429750Y-95236000D01*
X112769000Y-95239072D01*
X112893482Y-95226812D01*
X113013180Y-95190502D01*
X113123494Y-95131537D01*
X113220185Y-95052185D01*
X113299537Y-94955494D01*
X113358502Y-94845180D01*
X113394812Y-94725482D01*
X113407072Y-94601000D01*
X114049928Y-94601000D01*
X114062188Y-94725482D01*
X114098498Y-94845180D01*
X114157463Y-94955494D01*
X114236815Y-95052185D01*
X114333506Y-95131537D01*
X114443820Y-95190502D01*
X114563518Y-95226812D01*
X114688000Y-95239072D01*
X115027250Y-95236000D01*
X115186000Y-95077250D01*
X115186000Y-93853000D01*
X115440000Y-93853000D01*
X115440000Y-95077250D01*
X115598750Y-95236000D01*
X115938000Y-95239072D01*
X116062482Y-95226812D01*
X116182180Y-95190502D01*
X116292494Y-95131537D01*
X116389185Y-95052185D01*
X116468537Y-94955494D01*
X116527502Y-94845180D01*
X116563812Y-94725482D01*
X116576072Y-94601000D01*
X116573000Y-94011750D01*
X116414250Y-93853000D01*
X115440000Y-93853000D01*
X115186000Y-93853000D01*
X114211750Y-93853000D01*
X114053000Y-94011750D01*
X114049928Y-94601000D01*
X113407072Y-94601000D01*
X113404000Y-94011750D01*
X113245250Y-93853000D01*
X112271000Y-93853000D01*
X112017000Y-93853000D01*
X111042750Y-93853000D01*
X110884000Y-94011750D01*
X110880928Y-94601000D01*
X110566727Y-94601000D01*
X110590008Y-94524254D01*
X110607072Y-94351000D01*
X110607072Y-93101000D01*
X110590008Y-92927746D01*
X110566728Y-92851000D01*
X110880928Y-92851000D01*
X110884000Y-93440250D01*
X111042750Y-93599000D01*
X112017000Y-93599000D01*
X112017000Y-92374750D01*
X112271000Y-92374750D01*
X112271000Y-93599000D01*
X113245250Y-93599000D01*
X113404000Y-93440250D01*
X113407072Y-92851000D01*
X114049928Y-92851000D01*
X114053000Y-93440250D01*
X114211750Y-93599000D01*
X115186000Y-93599000D01*
X115186000Y-92374750D01*
X115440000Y-92374750D01*
X115440000Y-93599000D01*
X116414250Y-93599000D01*
X116573000Y-93440250D01*
X116576072Y-92851000D01*
X116563812Y-92726518D01*
X116527502Y-92606820D01*
X116468537Y-92496506D01*
X116389185Y-92399815D01*
X116292494Y-92320463D01*
X116182180Y-92261498D01*
X116062482Y-92225188D01*
X115938000Y-92212928D01*
X115598750Y-92216000D01*
X115440000Y-92374750D01*
X115186000Y-92374750D01*
X115027250Y-92216000D01*
X114688000Y-92212928D01*
X114563518Y-92225188D01*
X114443820Y-92261498D01*
X114333506Y-92320463D01*
X114236815Y-92399815D01*
X114157463Y-92496506D01*
X114098498Y-92606820D01*
X114062188Y-92726518D01*
X114049928Y-92851000D01*
X113407072Y-92851000D01*
X113394812Y-92726518D01*
X113358502Y-92606820D01*
X113299537Y-92496506D01*
X113220185Y-92399815D01*
X113123494Y-92320463D01*
X113013180Y-92261498D01*
X112893482Y-92225188D01*
X112769000Y-92212928D01*
X112429750Y-92216000D01*
X112271000Y-92374750D01*
X112017000Y-92374750D01*
X111858250Y-92216000D01*
X111519000Y-92212928D01*
X111394518Y-92225188D01*
X111274820Y-92261498D01*
X111164506Y-92320463D01*
X111067815Y-92399815D01*
X110988463Y-92496506D01*
X110929498Y-92606820D01*
X110893188Y-92726518D01*
X110880928Y-92851000D01*
X110566728Y-92851000D01*
X110539472Y-92761150D01*
X110457405Y-92607614D01*
X110346962Y-92473038D01*
X110212386Y-92362595D01*
X110058850Y-92280528D01*
X109892254Y-92229992D01*
X109719000Y-92212928D01*
X108969000Y-92212928D01*
X108911402Y-92218601D01*
X108637804Y-91945003D01*
X108614001Y-91915999D01*
X108538644Y-91854155D01*
X108499937Y-91796226D01*
X108355774Y-91652063D01*
X108186256Y-91538795D01*
X107997898Y-91460774D01*
X107797939Y-91421000D01*
X107694000Y-91421000D01*
X107694000Y-90309000D01*
X116143113Y-90309000D01*
X116154388Y-90423482D01*
G37*
X116154388Y-90423482D02*
X116190698Y-90543180D01*
X116249663Y-90653494D01*
X116329015Y-90750185D01*
X116425706Y-90829537D01*
X116536020Y-90888502D01*
X116655718Y-90924812D01*
X116780200Y-90937072D01*
X117353001Y-90937072D01*
X117353000Y-92304661D01*
X117244614Y-92362595D01*
X117110038Y-92473038D01*
X116999595Y-92607614D01*
X116917528Y-92761150D01*
X116866992Y-92927746D01*
X116849928Y-93101000D01*
X116849928Y-94351000D01*
X116866992Y-94524254D01*
X116917528Y-94690850D01*
X116999595Y-94844386D01*
X117110038Y-94978962D01*
X117244614Y-95089405D01*
X117398150Y-95171472D01*
X117564746Y-95222008D01*
X117738000Y-95239072D01*
X118488000Y-95239072D01*
X118661254Y-95222008D01*
X118827850Y-95171472D01*
X118981386Y-95089405D01*
X119115962Y-94978962D01*
X119226405Y-94844386D01*
X119308472Y-94690850D01*
X119359008Y-94524254D01*
X119376072Y-94351000D01*
X119376072Y-94331353D01*
X119502936Y-94331353D01*
X119546873Y-94375290D01*
X119716391Y-94488558D01*
X119904749Y-94566579D01*
X120104708Y-94606353D01*
X120271001Y-94606353D01*
X120271000Y-98763798D01*
X117265158Y-101769640D01*
X117219872Y-101620350D01*
X117137805Y-101466814D01*
X117027362Y-101332238D01*
X116892786Y-101221795D01*
X116739250Y-101139728D01*
X116572654Y-101089192D01*
X116399400Y-101072128D01*
X115299400Y-101072128D01*
X115126146Y-101089192D01*
X114959550Y-101139728D01*
X114806014Y-101221795D01*
X114671438Y-101332238D01*
X114560995Y-101466814D01*
X114478928Y-101620350D01*
X114433642Y-101769640D01*
X112274202Y-99610200D01*
X114411328Y-99610200D01*
X114423588Y-99734682D01*
X114459898Y-99854380D01*
X114518863Y-99964694D01*
X114598215Y-100061385D01*
X114694906Y-100140737D01*
X114805220Y-100199702D01*
X114924918Y-100236012D01*
X115049400Y-100248272D01*
X115563650Y-100245200D01*
X115722400Y-100086450D01*
X115722400Y-97987200D01*
X115976400Y-97987200D01*
X115976400Y-100086450D01*
X116135150Y-100245200D01*
X116649400Y-100248272D01*
X116773882Y-100236012D01*
X116893580Y-100199702D01*
X117003894Y-100140737D01*
X117100585Y-100061385D01*
X117179937Y-99964694D01*
X117238902Y-99854380D01*
X117275212Y-99734682D01*
X117287472Y-99610200D01*
X117284400Y-98145950D01*
X117125650Y-97987200D01*
X115976400Y-97987200D01*
X115722400Y-97987200D01*
X114573150Y-97987200D01*
X114414400Y-98145950D01*
X114411328Y-99610200D01*
X112274202Y-99610200D01*
X112088214Y-99424213D01*
X112064411Y-99395209D01*
X111948686Y-99300236D01*
X111816657Y-99229664D01*
X111673396Y-99186207D01*
X111561743Y-99175210D01*
X111561732Y-99175210D01*
X111524410Y-99171534D01*
X111487088Y-99175210D01*
X109971359Y-99175210D01*
X109969200Y-98145950D01*
X109810450Y-97987200D01*
X108661200Y-97987200D01*
X108661200Y-98007200D01*
X108407200Y-98007200D01*
X108407200Y-97987200D01*
X108387200Y-97987200D01*
X108387200Y-97733200D01*
X108407200Y-97733200D01*
X108407200Y-95633950D01*
X108661200Y-95633950D01*
X108661200Y-97733200D01*
X109810450Y-97733200D01*
X109969200Y-97574450D01*
X109972272Y-96110200D01*
X114411328Y-96110200D01*
X114414400Y-97574450D01*
X114573150Y-97733200D01*
X115722400Y-97733200D01*
X115722400Y-95633950D01*
X115976400Y-95633950D01*
X115976400Y-97733200D01*
X117125650Y-97733200D01*
X117284400Y-97574450D01*
X117287472Y-96110200D01*
X117275212Y-95985718D01*
X117238902Y-95866020D01*
X117179937Y-95755706D01*
X117100585Y-95659015D01*
X117003894Y-95579663D01*
X116893580Y-95520698D01*
X116773882Y-95484388D01*
X116649400Y-95472128D01*
X116135150Y-95475200D01*
X115976400Y-95633950D01*
X115722400Y-95633950D01*
X115563650Y-95475200D01*
X115049400Y-95472128D01*
X114924918Y-95484388D01*
X114805220Y-95520698D01*
X114694906Y-95579663D01*
X114598215Y-95659015D01*
X114518863Y-95755706D01*
X114459898Y-95866020D01*
X114423588Y-95985718D01*
X114411328Y-96110200D01*
X109972272Y-96110200D01*
X109960012Y-95985718D01*
X109923702Y-95866020D01*
X109864737Y-95755706D01*
X109785385Y-95659015D01*
X109688694Y-95579663D01*
X109578380Y-95520698D01*
X109458682Y-95484388D01*
X109334200Y-95472128D01*
X108819950Y-95475200D01*
X108661200Y-95633950D01*
X108407200Y-95633950D01*
X108248450Y-95475200D01*
X108169190Y-95474727D01*
X108169190Y-95350611D01*
X108450778Y-95069023D01*
X108475614Y-95089405D01*
X108629150Y-95171472D01*
X108795746Y-95222008D01*
X108969000Y-95239072D01*
X109719000Y-95239072D01*
X109892254Y-95222008D01*
X110058850Y-95171472D01*
X110212386Y-95089405D01*
X110346962Y-94978962D01*
X110457405Y-94844386D01*
X110539472Y-94690850D01*
X110566727Y-94601000D01*
X110880928Y-94601000D01*
X110893188Y-94725482D01*
X110929498Y-94845180D01*
X110988463Y-94955494D01*
X111067815Y-95052185D01*
X111164506Y-95131537D01*
X111274820Y-95190502D01*
X111394518Y-95226812D01*
X111519000Y-95239072D01*
X111858250Y-95236000D01*
X112017000Y-95077250D01*
X112017000Y-93853000D01*
X112271000Y-93853000D01*
X112271000Y-95077250D01*
X112429750Y-95236000D01*
X112769000Y-95239072D01*
X112893482Y-95226812D01*
X113013180Y-95190502D01*
X113123494Y-95131537D01*
X113220185Y-95052185D01*
X113299537Y-94955494D01*
X113358502Y-94845180D01*
X113394812Y-94725482D01*
X113407072Y-94601000D01*
X114049928Y-94601000D01*
X114062188Y-94725482D01*
X114098498Y-94845180D01*
X114157463Y-94955494D01*
X114236815Y-95052185D01*
X114333506Y-95131537D01*
X114443820Y-95190502D01*
X114563518Y-95226812D01*
X114688000Y-95239072D01*
X115027250Y-95236000D01*
X115186000Y-95077250D01*
X115186000Y-93853000D01*
X115440000Y-93853000D01*
X115440000Y-95077250D01*
X115598750Y-95236000D01*
X115938000Y-95239072D01*
X116062482Y-95226812D01*
X116182180Y-95190502D01*
X116292494Y-95131537D01*
X116389185Y-95052185D01*
X116468537Y-94955494D01*
X116527502Y-94845180D01*
X116563812Y-94725482D01*
X116576072Y-94601000D01*
X116573000Y-94011750D01*
X116414250Y-93853000D01*
X115440000Y-93853000D01*
X115186000Y-93853000D01*
X114211750Y-93853000D01*
X114053000Y-94011750D01*
X114049928Y-94601000D01*
X113407072Y-94601000D01*
X113404000Y-94011750D01*
X113245250Y-93853000D01*
X112271000Y-93853000D01*
X112017000Y-93853000D01*
X111042750Y-93853000D01*
X110884000Y-94011750D01*
X110880928Y-94601000D01*
X110566727Y-94601000D01*
X110590008Y-94524254D01*
X110607072Y-94351000D01*
X110607072Y-93101000D01*
X110590008Y-92927746D01*
X110566728Y-92851000D01*
X110880928Y-92851000D01*
X110884000Y-93440250D01*
X111042750Y-93599000D01*
X112017000Y-93599000D01*
X112017000Y-92374750D01*
X112271000Y-92374750D01*
X112271000Y-93599000D01*
X113245250Y-93599000D01*
X113404000Y-93440250D01*
X113407072Y-92851000D01*
X114049928Y-92851000D01*
X114053000Y-93440250D01*
X114211750Y-93599000D01*
X115186000Y-93599000D01*
X115186000Y-92374750D01*
X115440000Y-92374750D01*
X115440000Y-93599000D01*
X116414250Y-93599000D01*
X116573000Y-93440250D01*
X116576072Y-92851000D01*
X116563812Y-92726518D01*
X116527502Y-92606820D01*
X116468537Y-92496506D01*
X116389185Y-92399815D01*
X116292494Y-92320463D01*
X116182180Y-92261498D01*
X116062482Y-92225188D01*
X115938000Y-92212928D01*
X115598750Y-92216000D01*
X115440000Y-92374750D01*
X115186000Y-92374750D01*
X115027250Y-92216000D01*
X114688000Y-92212928D01*
X114563518Y-92225188D01*
X114443820Y-92261498D01*
X114333506Y-92320463D01*
X114236815Y-92399815D01*
X114157463Y-92496506D01*
X114098498Y-92606820D01*
X114062188Y-92726518D01*
X114049928Y-92851000D01*
X113407072Y-92851000D01*
X113394812Y-92726518D01*
X113358502Y-92606820D01*
X113299537Y-92496506D01*
X113220185Y-92399815D01*
X113123494Y-92320463D01*
X113013180Y-92261498D01*
X112893482Y-92225188D01*
X112769000Y-92212928D01*
X112429750Y-92216000D01*
X112271000Y-92374750D01*
X112017000Y-92374750D01*
X111858250Y-92216000D01*
X111519000Y-92212928D01*
X111394518Y-92225188D01*
X111274820Y-92261498D01*
X111164506Y-92320463D01*
X111067815Y-92399815D01*
X110988463Y-92496506D01*
X110929498Y-92606820D01*
X110893188Y-92726518D01*
X110880928Y-92851000D01*
X110566728Y-92851000D01*
X110539472Y-92761150D01*
X110457405Y-92607614D01*
X110346962Y-92473038D01*
X110212386Y-92362595D01*
X110058850Y-92280528D01*
X109892254Y-92229992D01*
X109719000Y-92212928D01*
X108969000Y-92212928D01*
X108911402Y-92218601D01*
X108637804Y-91945003D01*
X108614001Y-91915999D01*
X108538644Y-91854155D01*
X108499937Y-91796226D01*
X108355774Y-91652063D01*
X108186256Y-91538795D01*
X107997898Y-91460774D01*
X107797939Y-91421000D01*
X107694000Y-91421000D01*
X107694000Y-90309000D01*
X116143113Y-90309000D01*
X116154388Y-90423482D01*
G36*
X116190698Y-83954820D02*
G01*
X116154388Y-84074518D01*
X116142128Y-84199000D01*
X116145200Y-84663250D01*
X116303950Y-84822000D01*
X117653200Y-84822000D01*
X117653200Y-84802000D01*
X117907200Y-84802000D01*
X117907200Y-84822000D01*
X119256450Y-84822000D01*
X119415200Y-84663250D01*
X119418272Y-84199000D01*
X119406012Y-84074518D01*
X119369702Y-83954820D01*
X119311001Y-83845000D01*
X124681722Y-83845000D01*
X125127881Y-83888746D01*
X125525999Y-84008945D01*
X125893185Y-84204181D01*
X126215459Y-84467022D01*
X126480542Y-84787452D01*
X126678338Y-85153267D01*
X126801314Y-85550537D01*
X126848000Y-85994726D01*
X126848000Y-91667569D01*
X126833297Y-91658881D01*
X126831768Y-91658169D01*
X126830397Y-91657177D01*
X126822703Y-91652757D01*
X126799702Y-91639757D01*
X126779116Y-91630645D01*
X126759825Y-91619043D01*
X126751784Y-91615289D01*
X126727784Y-91604289D01*
X126721446Y-91602104D01*
X126715590Y-91598855D01*
X126707423Y-91595385D01*
X126683423Y-91585385D01*
X126672673Y-91582094D01*
X126662584Y-91577130D01*
X126654257Y-91574066D01*
X126629256Y-91565066D01*
X126611168Y-91560489D01*
X126593878Y-91553489D01*
X126585350Y-91551036D01*
X126560350Y-91544036D01*
X126552967Y-91542729D01*
X126545922Y-91540179D01*
X126537309Y-91538048D01*
X126512309Y-91532048D01*
X126502334Y-91530665D01*
X126492714Y-91527671D01*
X126484012Y-91525935D01*
X126458013Y-91520935D01*
X126438628Y-91519142D01*
X126419652Y-91514767D01*
X126410844Y-91513689D01*
X126384844Y-91510689D01*
X126377149Y-91510557D01*
X126369583Y-91509114D01*
X126360741Y-91508372D01*
X126334741Y-91506372D01*
X126326518Y-91506544D01*
X126318386Y-91505326D01*
X126309521Y-91504935D01*
X126282521Y-91503935D01*
X126275178Y-91504381D01*
X126267873Y-91503562D01*
X126259000Y-91503500D01*
X125709000Y-91503500D01*
X125701233Y-91504262D01*
X125693444Y-91503690D01*
X125684576Y-91503970D01*
X125658576Y-91504970D01*
X125650881Y-91506024D01*
X125643111Y-91505753D01*
X125634260Y-91506372D01*
X125608259Y-91508372D01*
X125600678Y-91509709D01*
X125592978Y-91509733D01*
X125584157Y-91510689D01*
X125558156Y-91513689D01*
X125539127Y-91517797D01*
X125519712Y-91519320D01*
X125510987Y-91520935D01*
X125484987Y-91525935D01*
X125475331Y-91528793D01*
X125465334Y-91530037D01*
X125456692Y-91532048D01*
X125431691Y-91538048D01*
X125427626Y-91539455D01*
X125423371Y-91540104D01*
X125414787Y-91542351D01*
X125388787Y-91549351D01*
X125364433Y-91558538D01*
X125339191Y-91564905D01*
X125330861Y-91567963D01*
X125306861Y-91576963D01*
X125300548Y-91580063D01*
X125293791Y-91582029D01*
X125285577Y-91585385D01*
X125261577Y-91595385D01*
X125255673Y-91598553D01*
X125249308Y-91600649D01*
X125241216Y-91604289D01*
X125217216Y-91615289D01*
X125197763Y-91626622D01*
X125177053Y-91635445D01*
X125169298Y-91639757D01*
X125146298Y-91652757D01*
X125136301Y-91659776D01*
X125125335Y-91665142D01*
X125117816Y-91669853D01*
X125073816Y-91697853D01*
X125056179Y-91711668D01*
X125036955Y-91723175D01*
X125029860Y-91728503D01*
X125008860Y-91744503D01*
X124999652Y-91753061D01*
X124989220Y-91760088D01*
X124982420Y-91765787D01*
X124962419Y-91782788D01*
X124953576Y-91791934D01*
X124943423Y-91799599D01*
X124936939Y-91805657D01*
X124917938Y-91823657D01*
X124909566Y-91833305D01*
X124899805Y-91841539D01*
X124893657Y-91847938D01*
X124875657Y-91866938D01*
X124867848Y-91876987D01*
X124858582Y-91885699D01*
X124852788Y-91892419D01*
X124835788Y-91912419D01*
X124828618Y-91922749D01*
X124819930Y-91931839D01*
X124814503Y-91938859D01*
X124798503Y-91959860D01*
X124786730Y-91978918D01*
X124772669Y-91996363D01*
X124767853Y-92003815D01*
X124753894Y-92025751D01*
X124753853Y-92025815D01*
X124739853Y-92047816D01*
X124734335Y-92058706D01*
X124727177Y-92068603D01*
X124722757Y-92076297D01*
X124709757Y-92099298D01*
X124700645Y-92119884D01*
X124689043Y-92139175D01*
X124685289Y-92147216D01*
X124674289Y-92171216D01*
X124672104Y-92177554D01*
X124668855Y-92183410D01*
X124665385Y-92191577D01*
X124655385Y-92215577D01*
X124653327Y-92222301D01*
X124650136Y-92228575D01*
X124646963Y-92236861D01*
X124637963Y-92260861D01*
X124631245Y-92286011D01*
X124621718Y-92310235D01*
X124619351Y-92318787D01*
X124612351Y-92344787D01*
X124611643Y-92349032D01*
X124610179Y-92353078D01*
X124608048Y-92361691D01*
X124602048Y-92386691D01*
X124600665Y-92396666D01*
X124597671Y-92406286D01*
X124595935Y-92414988D01*
X124595919Y-92415069D01*
X124588795Y-92438555D01*
X124584785Y-92479270D01*
X124584767Y-92479348D01*
X124583689Y-92488156D01*
X124580689Y-92514156D01*
X124580557Y-92521851D01*
X124579114Y-92529417D01*
X124578372Y-92538259D01*
X124576372Y-92564259D01*
X124576379Y-92564613D01*
X124569053Y-92639000D01*
X124573500Y-92684151D01*
X124573500Y-93781103D01*
X124568562Y-93825127D01*
X124568532Y-93829400D01*
X124568515Y-93829563D01*
X124568530Y-93829726D01*
X124568500Y-93834000D01*
X124568500Y-93839000D01*
X124574330Y-93898456D01*
X124579756Y-93958081D01*
X124580386Y-93960221D01*
X124580603Y-93962436D01*
X124597888Y-94019687D01*
X124614775Y-94077062D01*
X124615806Y-94079035D01*
X124616451Y-94081170D01*
X124634937Y-94115936D01*
X124619498Y-94144820D01*
X124583188Y-94264518D01*
X124570928Y-94389000D01*
X124570928Y-94468749D01*
X124548502Y-94394820D01*
X124489537Y-94284506D01*
X124410185Y-94187815D01*
X124313494Y-94108463D01*
X124238372Y-94068309D01*
X124244000Y-94011162D01*
X124244000Y-93266839D01*
X124230110Y-93125807D01*
X124175216Y-92944846D01*
X124086073Y-92778072D01*
X123966107Y-92631893D01*
X123819928Y-92511927D01*
X123653154Y-92422784D01*
X123472193Y-92367890D01*
X123284000Y-92349355D01*
X123095808Y-92367890D01*
X122914847Y-92422784D01*
X122748073Y-92511927D01*
X122689868Y-92559694D01*
X122680021Y-92459716D01*
X122636564Y-92316455D01*
X122631483Y-92306949D01*
X122565992Y-92184425D01*
X122528123Y-92138283D01*
X122503158Y-92107863D01*
X122503158Y-92043903D01*
X122463384Y-91843944D01*
X122385363Y-91655586D01*
X122272095Y-91486068D01*
X122127932Y-91341905D01*
X121958414Y-91228637D01*
X121770056Y-91150616D01*
X121570097Y-91110842D01*
X121366219Y-91110842D01*
X121166260Y-91150616D01*
X120977902Y-91228637D01*
X120808384Y-91341905D01*
X120664221Y-91486068D01*
X120550953Y-91655586D01*
X120504100Y-91768698D01*
X120267000Y-91531599D01*
X120267000Y-87763122D01*
X120270676Y-87725799D01*
X120267000Y-87688476D01*
X120267000Y-87688467D01*
X120256003Y-87576814D01*
X120212546Y-87433553D01*
X120141975Y-87301525D01*
X120141974Y-87301523D01*
X120107031Y-87258946D01*
X120047001Y-87185799D01*
X120017998Y-87161997D01*
X119594004Y-86738003D01*
X119570201Y-86708999D01*
X119495718Y-86647872D01*
X121590000Y-86647872D01*
X121590000Y-87088128D01*
X121675890Y-87519925D01*
X121844369Y-87926669D01*
X122088962Y-88292729D01*
X122400271Y-88604038D01*
X122766331Y-88848631D01*
X123173075Y-89017110D01*
X123604872Y-89103000D01*
X124045128Y-89103000D01*
X124476925Y-89017110D01*
X124883669Y-88848631D01*
X125249729Y-88604038D01*
X125561038Y-88292729D01*
X125805631Y-87926669D01*
X125974110Y-87519925D01*
X126060000Y-87088128D01*
X126060000Y-86647872D01*
X125974110Y-86216075D01*
X125805631Y-85809331D01*
X125561038Y-85443271D01*
X125249729Y-85131962D01*
X124883669Y-84887369D01*
X124476925Y-84718890D01*
X124045128Y-84633000D01*
X123604872Y-84633000D01*
X123173075Y-84718890D01*
X122766331Y-84887369D01*
X122400271Y-85131962D01*
X122088962Y-85443271D01*
X121844369Y-85809331D01*
X121675890Y-86216075D01*
X121590000Y-86647872D01*
X119495718Y-86647872D01*
X119454476Y-86614026D01*
X119418272Y-86594674D01*
X119418272Y-86499000D01*
X119406012Y-86374518D01*
X119369702Y-86254820D01*
X119310737Y-86144506D01*
X119273391Y-86099000D01*
X119310737Y-86053494D01*
X119369702Y-85943180D01*
X119406012Y-85823482D01*
X119418272Y-85699000D01*
X119415200Y-85234750D01*
X119256450Y-85076000D01*
X117907200Y-85076000D01*
X117907200Y-85096000D01*
X117653200Y-85096000D01*
X117653200Y-85076000D01*
X116303950Y-85076000D01*
X116145200Y-85234750D01*
X116142128Y-85699000D01*
X116154388Y-85823482D01*
X116190698Y-85943180D01*
X116249663Y-86053494D01*
X116287009Y-86099000D01*
X116249663Y-86144506D01*
X116190698Y-86254820D01*
X116154388Y-86374518D01*
X116143113Y-86489000D01*
X113118272Y-86489000D01*
X113118272Y-85349000D01*
X113106012Y-85224518D01*
X113069702Y-85104820D01*
X113010737Y-84994506D01*
X112931385Y-84897815D01*
X112834694Y-84818463D01*
X112724380Y-84759498D01*
X112604682Y-84723188D01*
X112480200Y-84710928D01*
X110480200Y-84710928D01*
X110355718Y-84723188D01*
X110236020Y-84759498D01*
X110125706Y-84818463D01*
X110029015Y-84897815D01*
X109993887Y-84940618D01*
X109996872Y-84392400D01*
X109984612Y-84267918D01*
X109948302Y-84148220D01*
X109889337Y-84037906D01*
X109809985Y-83941215D01*
X109713294Y-83861863D01*
X109681746Y-83845000D01*
X116249399Y-83845000D01*
X116190698Y-83954820D01*
G37*
X116190698Y-83954820D02*
X116154388Y-84074518D01*
X116142128Y-84199000D01*
X116145200Y-84663250D01*
X116303950Y-84822000D01*
X117653200Y-84822000D01*
X117653200Y-84802000D01*
X117907200Y-84802000D01*
X117907200Y-84822000D01*
X119256450Y-84822000D01*
X119415200Y-84663250D01*
X119418272Y-84199000D01*
X119406012Y-84074518D01*
X119369702Y-83954820D01*
X119311001Y-83845000D01*
X124681722Y-83845000D01*
X125127881Y-83888746D01*
X125525999Y-84008945D01*
X125893185Y-84204181D01*
X126215459Y-84467022D01*
X126480542Y-84787452D01*
X126678338Y-85153267D01*
X126801314Y-85550537D01*
X126848000Y-85994726D01*
X126848000Y-91667569D01*
X126833297Y-91658881D01*
X126831768Y-91658169D01*
X126830397Y-91657177D01*
X126822703Y-91652757D01*
X126799702Y-91639757D01*
X126779116Y-91630645D01*
X126759825Y-91619043D01*
X126751784Y-91615289D01*
X126727784Y-91604289D01*
X126721446Y-91602104D01*
X126715590Y-91598855D01*
X126707423Y-91595385D01*
X126683423Y-91585385D01*
X126672673Y-91582094D01*
X126662584Y-91577130D01*
X126654257Y-91574066D01*
X126629256Y-91565066D01*
X126611168Y-91560489D01*
X126593878Y-91553489D01*
X126585350Y-91551036D01*
X126560350Y-91544036D01*
X126552967Y-91542729D01*
X126545922Y-91540179D01*
X126537309Y-91538048D01*
X126512309Y-91532048D01*
X126502334Y-91530665D01*
X126492714Y-91527671D01*
X126484012Y-91525935D01*
X126458013Y-91520935D01*
X126438628Y-91519142D01*
X126419652Y-91514767D01*
X126410844Y-91513689D01*
X126384844Y-91510689D01*
X126377149Y-91510557D01*
X126369583Y-91509114D01*
X126360741Y-91508372D01*
X126334741Y-91506372D01*
X126326518Y-91506544D01*
X126318386Y-91505326D01*
X126309521Y-91504935D01*
X126282521Y-91503935D01*
X126275178Y-91504381D01*
X126267873Y-91503562D01*
X126259000Y-91503500D01*
X125709000Y-91503500D01*
X125701233Y-91504262D01*
X125693444Y-91503690D01*
X125684576Y-91503970D01*
X125658576Y-91504970D01*
X125650881Y-91506024D01*
X125643111Y-91505753D01*
X125634260Y-91506372D01*
X125608259Y-91508372D01*
X125600678Y-91509709D01*
X125592978Y-91509733D01*
X125584157Y-91510689D01*
X125558156Y-91513689D01*
X125539127Y-91517797D01*
X125519712Y-91519320D01*
X125510987Y-91520935D01*
X125484987Y-91525935D01*
X125475331Y-91528793D01*
X125465334Y-91530037D01*
X125456692Y-91532048D01*
X125431691Y-91538048D01*
X125427626Y-91539455D01*
X125423371Y-91540104D01*
X125414787Y-91542351D01*
X125388787Y-91549351D01*
X125364433Y-91558538D01*
X125339191Y-91564905D01*
X125330861Y-91567963D01*
X125306861Y-91576963D01*
X125300548Y-91580063D01*
X125293791Y-91582029D01*
X125285577Y-91585385D01*
X125261577Y-91595385D01*
X125255673Y-91598553D01*
X125249308Y-91600649D01*
X125241216Y-91604289D01*
X125217216Y-91615289D01*
X125197763Y-91626622D01*
X125177053Y-91635445D01*
X125169298Y-91639757D01*
X125146298Y-91652757D01*
X125136301Y-91659776D01*
X125125335Y-91665142D01*
X125117816Y-91669853D01*
X125073816Y-91697853D01*
X125056179Y-91711668D01*
X125036955Y-91723175D01*
X125029860Y-91728503D01*
X125008860Y-91744503D01*
X124999652Y-91753061D01*
X124989220Y-91760088D01*
X124982420Y-91765787D01*
X124962419Y-91782788D01*
X124953576Y-91791934D01*
X124943423Y-91799599D01*
X124936939Y-91805657D01*
X124917938Y-91823657D01*
X124909566Y-91833305D01*
X124899805Y-91841539D01*
X124893657Y-91847938D01*
X124875657Y-91866938D01*
X124867848Y-91876987D01*
X124858582Y-91885699D01*
X124852788Y-91892419D01*
X124835788Y-91912419D01*
X124828618Y-91922749D01*
X124819930Y-91931839D01*
X124814503Y-91938859D01*
X124798503Y-91959860D01*
X124786730Y-91978918D01*
X124772669Y-91996363D01*
X124767853Y-92003815D01*
X124753894Y-92025751D01*
X124753853Y-92025815D01*
X124739853Y-92047816D01*
X124734335Y-92058706D01*
X124727177Y-92068603D01*
X124722757Y-92076297D01*
X124709757Y-92099298D01*
X124700645Y-92119884D01*
X124689043Y-92139175D01*
X124685289Y-92147216D01*
X124674289Y-92171216D01*
X124672104Y-92177554D01*
X124668855Y-92183410D01*
X124665385Y-92191577D01*
X124655385Y-92215577D01*
X124653327Y-92222301D01*
X124650136Y-92228575D01*
X124646963Y-92236861D01*
X124637963Y-92260861D01*
X124631245Y-92286011D01*
X124621718Y-92310235D01*
X124619351Y-92318787D01*
X124612351Y-92344787D01*
X124611643Y-92349032D01*
X124610179Y-92353078D01*
X124608048Y-92361691D01*
X124602048Y-92386691D01*
X124600665Y-92396666D01*
X124597671Y-92406286D01*
X124595935Y-92414988D01*
X124595919Y-92415069D01*
X124588795Y-92438555D01*
X124584785Y-92479270D01*
X124584767Y-92479348D01*
X124583689Y-92488156D01*
X124580689Y-92514156D01*
X124580557Y-92521851D01*
X124579114Y-92529417D01*
X124578372Y-92538259D01*
X124576372Y-92564259D01*
X124576379Y-92564613D01*
X124569053Y-92639000D01*
X124573500Y-92684151D01*
X124573500Y-93781103D01*
X124568562Y-93825127D01*
X124568532Y-93829400D01*
X124568515Y-93829563D01*
X124568530Y-93829726D01*
X124568500Y-93834000D01*
X124568500Y-93839000D01*
X124574330Y-93898456D01*
X124579756Y-93958081D01*
X124580386Y-93960221D01*
X124580603Y-93962436D01*
X124597888Y-94019687D01*
X124614775Y-94077062D01*
X124615806Y-94079035D01*
X124616451Y-94081170D01*
X124634937Y-94115936D01*
X124619498Y-94144820D01*
X124583188Y-94264518D01*
X124570928Y-94389000D01*
X124570928Y-94468749D01*
X124548502Y-94394820D01*
X124489537Y-94284506D01*
X124410185Y-94187815D01*
X124313494Y-94108463D01*
X124238372Y-94068309D01*
X124244000Y-94011162D01*
X124244000Y-93266839D01*
X124230110Y-93125807D01*
X124175216Y-92944846D01*
X124086073Y-92778072D01*
X123966107Y-92631893D01*
X123819928Y-92511927D01*
X123653154Y-92422784D01*
X123472193Y-92367890D01*
X123284000Y-92349355D01*
X123095808Y-92367890D01*
X122914847Y-92422784D01*
X122748073Y-92511927D01*
X122689868Y-92559694D01*
X122680021Y-92459716D01*
X122636564Y-92316455D01*
X122631483Y-92306949D01*
X122565992Y-92184425D01*
X122528123Y-92138283D01*
X122503158Y-92107863D01*
X122503158Y-92043903D01*
X122463384Y-91843944D01*
X122385363Y-91655586D01*
X122272095Y-91486068D01*
X122127932Y-91341905D01*
X121958414Y-91228637D01*
X121770056Y-91150616D01*
X121570097Y-91110842D01*
X121366219Y-91110842D01*
X121166260Y-91150616D01*
X120977902Y-91228637D01*
X120808384Y-91341905D01*
X120664221Y-91486068D01*
X120550953Y-91655586D01*
X120504100Y-91768698D01*
X120267000Y-91531599D01*
X120267000Y-87763122D01*
X120270676Y-87725799D01*
X120267000Y-87688476D01*
X120267000Y-87688467D01*
X120256003Y-87576814D01*
X120212546Y-87433553D01*
X120141975Y-87301525D01*
X120141974Y-87301523D01*
X120107031Y-87258946D01*
X120047001Y-87185799D01*
X120017998Y-87161997D01*
X119594004Y-86738003D01*
X119570201Y-86708999D01*
X119495718Y-86647872D01*
X121590000Y-86647872D01*
X121590000Y-87088128D01*
X121675890Y-87519925D01*
X121844369Y-87926669D01*
X122088962Y-88292729D01*
X122400271Y-88604038D01*
X122766331Y-88848631D01*
X123173075Y-89017110D01*
X123604872Y-89103000D01*
X124045128Y-89103000D01*
X124476925Y-89017110D01*
X124883669Y-88848631D01*
X125249729Y-88604038D01*
X125561038Y-88292729D01*
X125805631Y-87926669D01*
X125974110Y-87519925D01*
X126060000Y-87088128D01*
X126060000Y-86647872D01*
X125974110Y-86216075D01*
X125805631Y-85809331D01*
X125561038Y-85443271D01*
X125249729Y-85131962D01*
X124883669Y-84887369D01*
X124476925Y-84718890D01*
X124045128Y-84633000D01*
X123604872Y-84633000D01*
X123173075Y-84718890D01*
X122766331Y-84887369D01*
X122400271Y-85131962D01*
X122088962Y-85443271D01*
X121844369Y-85809331D01*
X121675890Y-86216075D01*
X121590000Y-86647872D01*
X119495718Y-86647872D01*
X119454476Y-86614026D01*
X119418272Y-86594674D01*
X119418272Y-86499000D01*
X119406012Y-86374518D01*
X119369702Y-86254820D01*
X119310737Y-86144506D01*
X119273391Y-86099000D01*
X119310737Y-86053494D01*
X119369702Y-85943180D01*
X119406012Y-85823482D01*
X119418272Y-85699000D01*
X119415200Y-85234750D01*
X119256450Y-85076000D01*
X117907200Y-85076000D01*
X117907200Y-85096000D01*
X117653200Y-85096000D01*
X117653200Y-85076000D01*
X116303950Y-85076000D01*
X116145200Y-85234750D01*
X116142128Y-85699000D01*
X116154388Y-85823482D01*
X116190698Y-85943180D01*
X116249663Y-86053494D01*
X116287009Y-86099000D01*
X116249663Y-86144506D01*
X116190698Y-86254820D01*
X116154388Y-86374518D01*
X116143113Y-86489000D01*
X113118272Y-86489000D01*
X113118272Y-85349000D01*
X113106012Y-85224518D01*
X113069702Y-85104820D01*
X113010737Y-84994506D01*
X112931385Y-84897815D01*
X112834694Y-84818463D01*
X112724380Y-84759498D01*
X112604682Y-84723188D01*
X112480200Y-84710928D01*
X110480200Y-84710928D01*
X110355718Y-84723188D01*
X110236020Y-84759498D01*
X110125706Y-84818463D01*
X110029015Y-84897815D01*
X109993887Y-84940618D01*
X109996872Y-84392400D01*
X109984612Y-84267918D01*
X109948302Y-84148220D01*
X109889337Y-84037906D01*
X109809985Y-83941215D01*
X109713294Y-83861863D01*
X109681746Y-83845000D01*
X116249399Y-83845000D01*
X116190698Y-83954820D01*
G36*
X108635800Y-85115400D02*
G01*
X108655800Y-85115400D01*
X108655800Y-85369400D01*
X108635800Y-85369400D01*
X108635800Y-86568650D01*
X108794550Y-86727400D01*
X109358800Y-86730472D01*
X109483282Y-86718212D01*
X109602980Y-86681902D01*
X109713294Y-86622937D01*
X109809985Y-86543585D01*
X109842128Y-86504419D01*
X109842128Y-88789000D01*
X107694000Y-88789000D01*
X107694000Y-86730280D01*
X108223050Y-86727400D01*
X108381800Y-86568650D01*
X108381800Y-85369400D01*
X108361800Y-85369400D01*
X108361800Y-85115400D01*
X108381800Y-85115400D01*
X108381800Y-85095400D01*
X108635800Y-85095400D01*
X108635800Y-85115400D01*
G37*
X108635800Y-85115400D02*
X108655800Y-85115400D01*
X108655800Y-85369400D01*
X108635800Y-85369400D01*
X108635800Y-86568650D01*
X108794550Y-86727400D01*
X109358800Y-86730472D01*
X109483282Y-86718212D01*
X109602980Y-86681902D01*
X109713294Y-86622937D01*
X109809985Y-86543585D01*
X109842128Y-86504419D01*
X109842128Y-88789000D01*
X107694000Y-88789000D01*
X107694000Y-86730280D01*
X108223050Y-86727400D01*
X108381800Y-86568650D01*
X108381800Y-85369400D01*
X108361800Y-85369400D01*
X108361800Y-85115400D01*
X108381800Y-85115400D01*
X108381800Y-85095400D01*
X108635800Y-85095400D01*
X108635800Y-85115400D01*
%TD*%
M02*
