M48
; DRILL file {KiCad 5.1.5+dfsg1-2build2} date Thu 04 Nov 2021 20:27:49 CET
; FORMAT={-:-/ absolute / inch / decimal}
; #@! TF.CreationDate,2021-11-04T20:27:49+01:00
; #@! TF.GenerationSoftware,Kicad,Pcbnew,5.1.5+dfsg1-2build2
FMAT,2
INCH
T1C0.0157
T2C0.0197
T3C0.0217
T4C0.0394
T5C0.1260
%
G90
G05
T1
X4.025Y-4.885
X4.0636Y-4.8927
X4.1058Y-4.3058
X4.1226Y-4.3452
X4.1403Y-4.385
X4.24Y-3.64
X4.265Y-3.555
X4.4841Y-5.1741
X4.505Y-5.385
X4.53Y-5.215
X4.54Y-5.505
X4.555Y-5.035
X4.59Y-5.065
X4.64Y-5.11
X4.645Y-5.35
X4.695Y-4.885
X4.7325Y-3.6839
X4.7822Y-3.6278
X4.82Y-5.23
T4
X3.935Y-4.915
X3.935Y-5.015
X3.935Y-5.115
X3.935Y-5.215
X3.935Y-5.315
X3.935Y-5.415
X3.925Y-3.61
X3.925Y-3.71
X3.925Y-3.81
X3.925Y-3.91
X3.925Y-4.01
X4.025Y-3.61
X4.025Y-3.71
X4.025Y-3.81
X4.025Y-3.91
X4.025Y-4.01
X3.93Y-4.235
X3.93Y-4.335
X3.93Y-4.435
X3.93Y-4.535
X3.93Y-4.635
X3.93Y-4.735
X4.21Y-3.39
X4.21Y-3.49
T5
X4.875Y-3.42
X3.98Y-3.42
X3.98Y-5.695
X4.875Y-5.695
T2
G00X4.9728Y-3.6472
M15
G01X4.9472Y-3.6472
M16
G05
G00X4.9728Y-3.9228
M15
G01X4.9472Y-3.9228
M16
G05
T3
G00X4.8537Y-3.6807
M15
G01X4.8537Y-3.6925
M16
G05
G00X4.8537Y-3.8775
M15
G01X4.8537Y-3.8893
M16
G05
T0
M30
