%TF.GenerationSoftware,KiCad,Pcbnew,5.1.5+dfsg1-2build2*%
%TF.CreationDate,2021-11-04T20:27:46+01:00*%
%TF.ProjectId,ebus-esp,65627573-2d65-4737-902e-6b696361645f,rev?*%
%TF.SameCoordinates,Original*%
%TF.FileFunction,Copper,L1,Top*%
%TF.FilePolarity,Positive*%
%FSLAX46Y46*%
G04 Gerber Fmt 4.6, Leading zero omitted, Abs format (unit mm)*
G04 Created by KiCad (PCBNEW 5.1.5+dfsg1-2build2) date 2021-11-04 20:27:46*
%MOMM*%
%LPD*%
G04 APERTURE LIST*
%TA.AperFunction,ComponentPad*%
%ADD10O,1.700000X1.700000*%
%TD*%
%TA.AperFunction,ComponentPad*%
%ADD11R,1.700000X1.700000*%
%TD*%
%TA.AperFunction,ComponentPad*%
%ADD12O,1.550000X0.775000*%
%TD*%
%TA.AperFunction,ComponentPad*%
%ADD13O,0.650000X1.300000*%
%TD*%
%TA.AperFunction,ViaPad*%
%ADD14C,0.800000*%
%TD*%
%TA.AperFunction,Conductor*%
%ADD15C,0.250000*%
%TD*%
%TA.AperFunction,Conductor*%
%ADD16C,0.254000*%
%TD*%
G04 APERTURE END LIST*
D10*
%TO.P,J7,10*%
%TO.N,TX*%
X99695000Y-101854000D03*
%TO.P,J7,9*%
%TO.N,N/C*%
X102235000Y-101854000D03*
%TO.P,J7,8*%
%TO.N,RX*%
X99695000Y-99314000D03*
%TO.P,J7,7*%
%TO.N,N/C*%
X102235000Y-99314000D03*
%TO.P,J7,6*%
%TO.N,GNDREF*%
X99695000Y-96774000D03*
%TO.P,J7,5*%
%TO.N,N/C*%
X102235000Y-96774000D03*
%TO.P,J7,4*%
X99695000Y-94234000D03*
%TO.P,J7,3*%
X102235000Y-94234000D03*
%TO.P,J7,2*%
X99695000Y-91694000D03*
D11*
%TO.P,J7,1*%
%TO.N,+3V3*%
X102235000Y-91694000D03*
%TD*%
D12*
%TO.P,J2,S6*%
%TO.N,N/C*%
X125984000Y-99639000D03*
%TO.P,J2,S3*%
X125984000Y-92639000D03*
D13*
%TO.P,J2,S2*%
X123284000Y-98639000D03*
%TO.P,J2,S1*%
X123284000Y-93639000D03*
%TD*%
D10*
%TO.P,J6,2*%
%TO.N,+5VP*%
X106934000Y-88646000D03*
D11*
%TO.P,J6,1*%
%TO.N,GNDREF*%
X106934000Y-86106000D03*
%TD*%
D10*
%TO.P,J5,6*%
%TO.N,GNDREF*%
X99949000Y-137541000D03*
%TO.P,J5,5*%
%TO.N,GPIO16*%
X99949000Y-135001000D03*
%TO.P,J5,4*%
%TO.N,GPIO14*%
X99949000Y-132461000D03*
%TO.P,J5,3*%
%TO.N,GPIO13*%
X99949000Y-129921000D03*
%TO.P,J5,2*%
%TO.N,GPIO12*%
X99949000Y-127381000D03*
D11*
%TO.P,J5,1*%
%TO.N,GPIO4*%
X99949000Y-124841000D03*
%TD*%
D10*
%TO.P,J4,6*%
%TO.N,RESET*%
X99822000Y-120269000D03*
%TO.P,J4,5*%
%TO.N,GPIO0*%
X99822000Y-117729000D03*
%TO.P,J4,4*%
%TO.N,GNDREF*%
X99822000Y-115189000D03*
%TO.P,J4,3*%
%TO.N,P_RX*%
X99822000Y-112649000D03*
%TO.P,J4,2*%
%TO.N,P_TX*%
X99822000Y-110109000D03*
D11*
%TO.P,J4,1*%
%TO.N,+5VP*%
X99822000Y-107569000D03*
%TD*%
D14*
%TO.N,GNDREF*%
X108331000Y-90297000D03*
X105163613Y-111379000D03*
%TO.N,+3V3*%
X115697000Y-127889000D03*
X122428000Y-132842000D03*
X107696000Y-92456000D03*
%TO.N,RX*%
X116586000Y-128651000D03*
X117983000Y-135890000D03*
X104288058Y-109368058D03*
%TO.N,TX*%
X119253000Y-124079000D03*
X117856000Y-129794000D03*
X104713603Y-110367836D03*
%TO.N,+5VP*%
X121468158Y-92145842D03*
X120206647Y-93571353D03*
%TO.N,GPIO0*%
X113895447Y-131421447D03*
X115062000Y-132461000D03*
%TO.N,P_RX*%
X102235000Y-124079000D03*
X114427000Y-136779000D03*
%TO.N,P_TX*%
X103215583Y-124275116D03*
X115316000Y-139827000D03*
%TD*%
D15*
%TO.N,GNDREF*%
X108034000Y-86106000D02*
X106934000Y-86106000D01*
X108331000Y-86403000D02*
X108034000Y-86106000D01*
X108331000Y-90297000D02*
X108331000Y-86403000D01*
X101353613Y-115189000D02*
X99822000Y-115189000D01*
X105163613Y-111379000D02*
X101353613Y-115189000D01*
%TO.N,+3V3*%
X119830998Y-132842000D02*
X122428000Y-132842000D01*
X117130999Y-130142001D02*
X119830998Y-132842000D01*
X117311001Y-129265997D02*
X117130999Y-129445999D01*
X117311001Y-128302999D02*
X117311001Y-129265997D01*
X116897002Y-127889000D02*
X117311001Y-128302999D01*
X117130999Y-129445999D02*
X117130999Y-130142001D01*
X115697000Y-127889000D02*
X116897002Y-127889000D01*
X106934000Y-91694000D02*
X107696000Y-92456000D01*
X102235000Y-91694000D02*
X106934000Y-91694000D01*
%TO.N,RX*%
X116586000Y-134493000D02*
X117983000Y-135890000D01*
X116586000Y-128651000D02*
X116586000Y-134493000D01*
X100544999Y-100163999D02*
X99695000Y-99314000D01*
X104288058Y-102168056D02*
X102609003Y-100489001D01*
X104288058Y-109368058D02*
X104288058Y-102168056D01*
X102609003Y-100489001D02*
X100870001Y-100489001D01*
X100870001Y-100489001D02*
X100544999Y-100163999D01*
%TO.N,TX*%
X119253000Y-128397000D02*
X117856000Y-129794000D01*
X119253000Y-124079000D02*
X119253000Y-128397000D01*
X103563057Y-109782975D02*
X103563057Y-104843943D01*
X104147918Y-110367836D02*
X103563057Y-109782975D01*
X104713603Y-110367836D02*
X104147918Y-110367836D01*
X103563057Y-104843943D02*
X101716114Y-102997000D01*
X100838000Y-102997000D02*
X99695000Y-101854000D01*
X101716114Y-102997000D02*
X100838000Y-102997000D01*
%TO.N,+5VP*%
X121468158Y-92309842D02*
X120206647Y-93571353D01*
X121468158Y-92145842D02*
X121468158Y-92309842D01*
%TO.N,GPIO0*%
X114022447Y-131421447D02*
X115062000Y-132461000D01*
X113895447Y-131421447D02*
X114022447Y-131421447D01*
%TO.N,P_RX*%
X102235000Y-124079000D02*
X102235000Y-125349000D01*
X113665000Y-136779000D02*
X114427000Y-136779000D01*
X102235000Y-125349000D02*
X113665000Y-136779000D01*
%TO.N,P_TX*%
X115316000Y-136375533D02*
X115316000Y-139827000D01*
X103215583Y-124275116D02*
X115316000Y-136375533D01*
%TD*%
D16*
%TO.N,GNDREF*%
G36*
X125127881Y-83888746D02*
G01*
X125525999Y-84008945D01*
X125893185Y-84204181D01*
X126215459Y-84467022D01*
X126480542Y-84787452D01*
X126678338Y-85153267D01*
X126801314Y-85550537D01*
X126848000Y-85994726D01*
X126848000Y-91734295D01*
X126764687Y-91689763D01*
X126571945Y-91631295D01*
X126421728Y-91616500D01*
X125546272Y-91616500D01*
X125396055Y-91631295D01*
X125203313Y-91689763D01*
X125025681Y-91784709D01*
X124869985Y-91912485D01*
X124742209Y-92068181D01*
X124647263Y-92245813D01*
X124588795Y-92438555D01*
X124569053Y-92639000D01*
X124588795Y-92839445D01*
X124647263Y-93032187D01*
X124742209Y-93209819D01*
X124869985Y-93365515D01*
X125025681Y-93493291D01*
X125203313Y-93588237D01*
X125396055Y-93646705D01*
X125546272Y-93661500D01*
X126421728Y-93661500D01*
X126571945Y-93646705D01*
X126764687Y-93588237D01*
X126848000Y-93543705D01*
X126848000Y-98734295D01*
X126764687Y-98689763D01*
X126571945Y-98631295D01*
X126421728Y-98616500D01*
X125546272Y-98616500D01*
X125396055Y-98631295D01*
X125203313Y-98689763D01*
X125025681Y-98784709D01*
X124869985Y-98912485D01*
X124742209Y-99068181D01*
X124647263Y-99245813D01*
X124588795Y-99438555D01*
X124569053Y-99639000D01*
X124588795Y-99839445D01*
X124647263Y-100032187D01*
X124742209Y-100209819D01*
X124869985Y-100365515D01*
X125025681Y-100493291D01*
X125203313Y-100588237D01*
X125396055Y-100646705D01*
X125546272Y-100661500D01*
X126421728Y-100661500D01*
X126571945Y-100646705D01*
X126764687Y-100588237D01*
X126848000Y-100543705D01*
X126848001Y-140843000D01*
X115513459Y-140843000D01*
X115617898Y-140822226D01*
X115806256Y-140744205D01*
X115975774Y-140630937D01*
X116119937Y-140486774D01*
X116233205Y-140317256D01*
X116311226Y-140128898D01*
X116351000Y-139928939D01*
X116351000Y-139725061D01*
X116311226Y-139525102D01*
X116233205Y-139336744D01*
X116119937Y-139167226D01*
X116076000Y-139123289D01*
X116076000Y-136412856D01*
X116079676Y-136375533D01*
X116076000Y-136338210D01*
X116076000Y-136338200D01*
X116065003Y-136226547D01*
X116021546Y-136083286D01*
X115950974Y-135951257D01*
X115856001Y-135835532D01*
X115827004Y-135811735D01*
X111334777Y-131319508D01*
X112860447Y-131319508D01*
X112860447Y-131523386D01*
X112900221Y-131723345D01*
X112978242Y-131911703D01*
X113091510Y-132081221D01*
X113235673Y-132225384D01*
X113405191Y-132338652D01*
X113593549Y-132416673D01*
X113793508Y-132456447D01*
X113982646Y-132456447D01*
X114027000Y-132500802D01*
X114027000Y-132562939D01*
X114066774Y-132762898D01*
X114144795Y-132951256D01*
X114258063Y-133120774D01*
X114402226Y-133264937D01*
X114571744Y-133378205D01*
X114760102Y-133456226D01*
X114960061Y-133496000D01*
X115163939Y-133496000D01*
X115363898Y-133456226D01*
X115552256Y-133378205D01*
X115721774Y-133264937D01*
X115826001Y-133160710D01*
X115826001Y-134455668D01*
X115822324Y-134493000D01*
X115836998Y-134641985D01*
X115880454Y-134785246D01*
X115951026Y-134917276D01*
X115996590Y-134972795D01*
X116046000Y-135033001D01*
X116074998Y-135056799D01*
X116948000Y-135929802D01*
X116948000Y-135991939D01*
X116987774Y-136191898D01*
X117065795Y-136380256D01*
X117179063Y-136549774D01*
X117323226Y-136693937D01*
X117492744Y-136807205D01*
X117681102Y-136885226D01*
X117881061Y-136925000D01*
X118084939Y-136925000D01*
X118284898Y-136885226D01*
X118473256Y-136807205D01*
X118642774Y-136693937D01*
X118786937Y-136549774D01*
X118900205Y-136380256D01*
X118978226Y-136191898D01*
X119018000Y-135991939D01*
X119018000Y-135788061D01*
X118978226Y-135588102D01*
X118900205Y-135399744D01*
X118786937Y-135230226D01*
X118642774Y-135086063D01*
X118473256Y-134972795D01*
X118284898Y-134894774D01*
X118084939Y-134855000D01*
X118022802Y-134855000D01*
X117346000Y-134178199D01*
X117346000Y-131431803D01*
X119267199Y-133353003D01*
X119290997Y-133382001D01*
X119406722Y-133476974D01*
X119538751Y-133547546D01*
X119682012Y-133591003D01*
X119793665Y-133602000D01*
X119793674Y-133602000D01*
X119830997Y-133605676D01*
X119868320Y-133602000D01*
X121724289Y-133602000D01*
X121768226Y-133645937D01*
X121937744Y-133759205D01*
X122126102Y-133837226D01*
X122326061Y-133877000D01*
X122529939Y-133877000D01*
X122729898Y-133837226D01*
X122918256Y-133759205D01*
X123087774Y-133645937D01*
X123231937Y-133501774D01*
X123345205Y-133332256D01*
X123423226Y-133143898D01*
X123463000Y-132943939D01*
X123463000Y-132740061D01*
X123423226Y-132540102D01*
X123345205Y-132351744D01*
X123231937Y-132182226D01*
X123087774Y-132038063D01*
X122918256Y-131924795D01*
X122729898Y-131846774D01*
X122529939Y-131807000D01*
X122326061Y-131807000D01*
X122126102Y-131846774D01*
X121937744Y-131924795D01*
X121768226Y-132038063D01*
X121724289Y-132082000D01*
X120145800Y-132082000D01*
X118588755Y-130524956D01*
X118659937Y-130453774D01*
X118773205Y-130284256D01*
X118851226Y-130095898D01*
X118891000Y-129895939D01*
X118891000Y-129833801D01*
X119764003Y-128960799D01*
X119793001Y-128937001D01*
X119887974Y-128821276D01*
X119958546Y-128689247D01*
X120002003Y-128545986D01*
X120013000Y-128434333D01*
X120013000Y-128434324D01*
X120016676Y-128397001D01*
X120013000Y-128359678D01*
X120013000Y-124782711D01*
X120056937Y-124738774D01*
X120170205Y-124569256D01*
X120248226Y-124380898D01*
X120288000Y-124180939D01*
X120288000Y-123977061D01*
X120248226Y-123777102D01*
X120170205Y-123588744D01*
X120056937Y-123419226D01*
X119912774Y-123275063D01*
X119743256Y-123161795D01*
X119554898Y-123083774D01*
X119354939Y-123044000D01*
X119151061Y-123044000D01*
X118951102Y-123083774D01*
X118762744Y-123161795D01*
X118593226Y-123275063D01*
X118449063Y-123419226D01*
X118335795Y-123588744D01*
X118257774Y-123777102D01*
X118218000Y-123977061D01*
X118218000Y-124180939D01*
X118257774Y-124380898D01*
X118335795Y-124569256D01*
X118449063Y-124738774D01*
X118493000Y-124782711D01*
X118493001Y-128082197D01*
X118071001Y-128504197D01*
X118071001Y-128340321D01*
X118074677Y-128302998D01*
X118071001Y-128265676D01*
X118071001Y-128265666D01*
X118060004Y-128154013D01*
X118016547Y-128010752D01*
X117945975Y-127878723D01*
X117851002Y-127762998D01*
X117821999Y-127739196D01*
X117460806Y-127378003D01*
X117437003Y-127348999D01*
X117321278Y-127254026D01*
X117189249Y-127183454D01*
X117045988Y-127139997D01*
X116934335Y-127129000D01*
X116934324Y-127129000D01*
X116897002Y-127125324D01*
X116859680Y-127129000D01*
X116400711Y-127129000D01*
X116356774Y-127085063D01*
X116187256Y-126971795D01*
X115998898Y-126893774D01*
X115798939Y-126854000D01*
X115595061Y-126854000D01*
X115395102Y-126893774D01*
X115206744Y-126971795D01*
X115037226Y-127085063D01*
X114893063Y-127229226D01*
X114779795Y-127398744D01*
X114701774Y-127587102D01*
X114662000Y-127787061D01*
X114662000Y-127990939D01*
X114701774Y-128190898D01*
X114779795Y-128379256D01*
X114893063Y-128548774D01*
X115037226Y-128692937D01*
X115206744Y-128806205D01*
X115395102Y-128884226D01*
X115584612Y-128921922D01*
X115590774Y-128952898D01*
X115668795Y-129141256D01*
X115782063Y-129310774D01*
X115826000Y-129354711D01*
X115826001Y-131761290D01*
X115721774Y-131657063D01*
X115552256Y-131543795D01*
X115363898Y-131465774D01*
X115163939Y-131426000D01*
X115101802Y-131426000D01*
X114914342Y-131238540D01*
X114890673Y-131119549D01*
X114812652Y-130931191D01*
X114699384Y-130761673D01*
X114555221Y-130617510D01*
X114385703Y-130504242D01*
X114197345Y-130426221D01*
X113997386Y-130386447D01*
X113793508Y-130386447D01*
X113593549Y-130426221D01*
X113405191Y-130504242D01*
X113235673Y-130617510D01*
X113091510Y-130761673D01*
X112978242Y-130931191D01*
X112900221Y-131119549D01*
X112860447Y-131319508D01*
X111334777Y-131319508D01*
X104250583Y-124235315D01*
X104250583Y-124173177D01*
X104210809Y-123973218D01*
X104132788Y-123784860D01*
X104019520Y-123615342D01*
X103875357Y-123471179D01*
X103705839Y-123357911D01*
X103517481Y-123279890D01*
X103317522Y-123240116D01*
X103113644Y-123240116D01*
X102913685Y-123279890D01*
X102903726Y-123284015D01*
X102894774Y-123275063D01*
X102725256Y-123161795D01*
X102536898Y-123083774D01*
X102336939Y-123044000D01*
X102133061Y-123044000D01*
X101933102Y-123083774D01*
X101744744Y-123161795D01*
X101575226Y-123275063D01*
X101431063Y-123419226D01*
X101317795Y-123588744D01*
X101308586Y-123610977D01*
X101250185Y-123539815D01*
X101153494Y-123460463D01*
X101043180Y-123401498D01*
X100923482Y-123365188D01*
X100799000Y-123352928D01*
X99099000Y-123352928D01*
X98974518Y-123365188D01*
X98854820Y-123401498D01*
X98744506Y-123460463D01*
X98647815Y-123539815D01*
X98568463Y-123636506D01*
X98509498Y-123746820D01*
X98473188Y-123866518D01*
X98460928Y-123991000D01*
X98460928Y-125691000D01*
X98473188Y-125815482D01*
X98509498Y-125935180D01*
X98568463Y-126045494D01*
X98647815Y-126142185D01*
X98744506Y-126221537D01*
X98854820Y-126280502D01*
X98927380Y-126302513D01*
X98795525Y-126434368D01*
X98633010Y-126677589D01*
X98521068Y-126947842D01*
X98464000Y-127234740D01*
X98464000Y-127527260D01*
X98521068Y-127814158D01*
X98633010Y-128084411D01*
X98795525Y-128327632D01*
X99002368Y-128534475D01*
X99176760Y-128651000D01*
X99002368Y-128767525D01*
X98795525Y-128974368D01*
X98633010Y-129217589D01*
X98521068Y-129487842D01*
X98464000Y-129774740D01*
X98464000Y-130067260D01*
X98521068Y-130354158D01*
X98633010Y-130624411D01*
X98795525Y-130867632D01*
X99002368Y-131074475D01*
X99176760Y-131191000D01*
X99002368Y-131307525D01*
X98795525Y-131514368D01*
X98633010Y-131757589D01*
X98521068Y-132027842D01*
X98464000Y-132314740D01*
X98464000Y-132607260D01*
X98521068Y-132894158D01*
X98633010Y-133164411D01*
X98795525Y-133407632D01*
X99002368Y-133614475D01*
X99176760Y-133731000D01*
X99002368Y-133847525D01*
X98795525Y-134054368D01*
X98633010Y-134297589D01*
X98521068Y-134567842D01*
X98464000Y-134854740D01*
X98464000Y-135147260D01*
X98521068Y-135434158D01*
X98633010Y-135704411D01*
X98795525Y-135947632D01*
X99002368Y-136154475D01*
X99184534Y-136276195D01*
X99067645Y-136345822D01*
X98851412Y-136540731D01*
X98677359Y-136774080D01*
X98552175Y-137036901D01*
X98507524Y-137184110D01*
X98628845Y-137414000D01*
X99822000Y-137414000D01*
X99822000Y-137394000D01*
X100076000Y-137394000D01*
X100076000Y-137414000D01*
X101269155Y-137414000D01*
X101390476Y-137184110D01*
X101345825Y-137036901D01*
X101220641Y-136774080D01*
X101046588Y-136540731D01*
X100830355Y-136345822D01*
X100713466Y-136276195D01*
X100895632Y-136154475D01*
X101102475Y-135947632D01*
X101264990Y-135704411D01*
X101376932Y-135434158D01*
X101434000Y-135147260D01*
X101434000Y-134854740D01*
X101376932Y-134567842D01*
X101264990Y-134297589D01*
X101102475Y-134054368D01*
X100895632Y-133847525D01*
X100721240Y-133731000D01*
X100895632Y-133614475D01*
X101102475Y-133407632D01*
X101264990Y-133164411D01*
X101376932Y-132894158D01*
X101434000Y-132607260D01*
X101434000Y-132314740D01*
X101376932Y-132027842D01*
X101264990Y-131757589D01*
X101102475Y-131514368D01*
X100895632Y-131307525D01*
X100721240Y-131191000D01*
X100895632Y-131074475D01*
X101102475Y-130867632D01*
X101264990Y-130624411D01*
X101376932Y-130354158D01*
X101434000Y-130067260D01*
X101434000Y-129774740D01*
X101376932Y-129487842D01*
X101264990Y-129217589D01*
X101102475Y-128974368D01*
X100895632Y-128767525D01*
X100721240Y-128651000D01*
X100895632Y-128534475D01*
X101102475Y-128327632D01*
X101264990Y-128084411D01*
X101376932Y-127814158D01*
X101434000Y-127527260D01*
X101434000Y-127234740D01*
X101376932Y-126947842D01*
X101264990Y-126677589D01*
X101102475Y-126434368D01*
X100970620Y-126302513D01*
X101043180Y-126280502D01*
X101153494Y-126221537D01*
X101250185Y-126142185D01*
X101329537Y-126045494D01*
X101388502Y-125935180D01*
X101424812Y-125815482D01*
X101437072Y-125691000D01*
X101437072Y-124744783D01*
X101475001Y-124782712D01*
X101475001Y-125311668D01*
X101471324Y-125349000D01*
X101485998Y-125497985D01*
X101529454Y-125641246D01*
X101600026Y-125773276D01*
X101671201Y-125860002D01*
X101695000Y-125889001D01*
X101723998Y-125912799D01*
X113101201Y-137290003D01*
X113124999Y-137319001D01*
X113153997Y-137342799D01*
X113240723Y-137413974D01*
X113372753Y-137484546D01*
X113516014Y-137528003D01*
X113627667Y-137539000D01*
X113627677Y-137539000D01*
X113664999Y-137542676D01*
X113702322Y-137539000D01*
X113723289Y-137539000D01*
X113767226Y-137582937D01*
X113936744Y-137696205D01*
X114125102Y-137774226D01*
X114325061Y-137814000D01*
X114528939Y-137814000D01*
X114556000Y-137808617D01*
X114556001Y-139123288D01*
X114512063Y-139167226D01*
X114398795Y-139336744D01*
X114320774Y-139525102D01*
X114281000Y-139725061D01*
X114281000Y-139928939D01*
X114320774Y-140128898D01*
X114398795Y-140317256D01*
X114512063Y-140486774D01*
X114656226Y-140630937D01*
X114825744Y-140744205D01*
X115014102Y-140822226D01*
X115118541Y-140843000D01*
X98069000Y-140843000D01*
X98069000Y-137897890D01*
X98507524Y-137897890D01*
X98552175Y-138045099D01*
X98677359Y-138307920D01*
X98851412Y-138541269D01*
X99067645Y-138736178D01*
X99317748Y-138885157D01*
X99592109Y-138982481D01*
X99822000Y-138861814D01*
X99822000Y-137668000D01*
X100076000Y-137668000D01*
X100076000Y-138861814D01*
X100305891Y-138982481D01*
X100580252Y-138885157D01*
X100830355Y-138736178D01*
X101046588Y-138541269D01*
X101220641Y-138307920D01*
X101345825Y-138045099D01*
X101390476Y-137897890D01*
X101269155Y-137668000D01*
X100076000Y-137668000D01*
X99822000Y-137668000D01*
X98628845Y-137668000D01*
X98507524Y-137897890D01*
X98069000Y-137897890D01*
X98069000Y-117582740D01*
X98337000Y-117582740D01*
X98337000Y-117875260D01*
X98394068Y-118162158D01*
X98506010Y-118432411D01*
X98668525Y-118675632D01*
X98875368Y-118882475D01*
X99049760Y-118999000D01*
X98875368Y-119115525D01*
X98668525Y-119322368D01*
X98506010Y-119565589D01*
X98394068Y-119835842D01*
X98337000Y-120122740D01*
X98337000Y-120415260D01*
X98394068Y-120702158D01*
X98506010Y-120972411D01*
X98668525Y-121215632D01*
X98875368Y-121422475D01*
X99118589Y-121584990D01*
X99388842Y-121696932D01*
X99675740Y-121754000D01*
X99968260Y-121754000D01*
X100255158Y-121696932D01*
X100525411Y-121584990D01*
X100768632Y-121422475D01*
X100975475Y-121215632D01*
X101137990Y-120972411D01*
X101249932Y-120702158D01*
X101307000Y-120415260D01*
X101307000Y-120122740D01*
X101249932Y-119835842D01*
X101137990Y-119565589D01*
X100975475Y-119322368D01*
X100768632Y-119115525D01*
X100594240Y-118999000D01*
X100768632Y-118882475D01*
X100975475Y-118675632D01*
X101137990Y-118432411D01*
X101249932Y-118162158D01*
X101307000Y-117875260D01*
X101307000Y-117582740D01*
X101249932Y-117295842D01*
X101137990Y-117025589D01*
X100975475Y-116782368D01*
X100768632Y-116575525D01*
X100586466Y-116453805D01*
X100703355Y-116384178D01*
X100919588Y-116189269D01*
X101093641Y-115955920D01*
X101218825Y-115693099D01*
X101263476Y-115545890D01*
X101142155Y-115316000D01*
X99949000Y-115316000D01*
X99949000Y-115336000D01*
X99695000Y-115336000D01*
X99695000Y-115316000D01*
X98501845Y-115316000D01*
X98380524Y-115545890D01*
X98425175Y-115693099D01*
X98550359Y-115955920D01*
X98724412Y-116189269D01*
X98940645Y-116384178D01*
X99057534Y-116453805D01*
X98875368Y-116575525D01*
X98668525Y-116782368D01*
X98506010Y-117025589D01*
X98394068Y-117295842D01*
X98337000Y-117582740D01*
X98069000Y-117582740D01*
X98069000Y-106719000D01*
X98333928Y-106719000D01*
X98333928Y-108419000D01*
X98346188Y-108543482D01*
X98382498Y-108663180D01*
X98441463Y-108773494D01*
X98520815Y-108870185D01*
X98617506Y-108949537D01*
X98727820Y-109008502D01*
X98800380Y-109030513D01*
X98668525Y-109162368D01*
X98506010Y-109405589D01*
X98394068Y-109675842D01*
X98337000Y-109962740D01*
X98337000Y-110255260D01*
X98394068Y-110542158D01*
X98506010Y-110812411D01*
X98668525Y-111055632D01*
X98875368Y-111262475D01*
X99049760Y-111379000D01*
X98875368Y-111495525D01*
X98668525Y-111702368D01*
X98506010Y-111945589D01*
X98394068Y-112215842D01*
X98337000Y-112502740D01*
X98337000Y-112795260D01*
X98394068Y-113082158D01*
X98506010Y-113352411D01*
X98668525Y-113595632D01*
X98875368Y-113802475D01*
X99057534Y-113924195D01*
X98940645Y-113993822D01*
X98724412Y-114188731D01*
X98550359Y-114422080D01*
X98425175Y-114684901D01*
X98380524Y-114832110D01*
X98501845Y-115062000D01*
X99695000Y-115062000D01*
X99695000Y-115042000D01*
X99949000Y-115042000D01*
X99949000Y-115062000D01*
X101142155Y-115062000D01*
X101263476Y-114832110D01*
X101218825Y-114684901D01*
X101093641Y-114422080D01*
X100919588Y-114188731D01*
X100703355Y-113993822D01*
X100586466Y-113924195D01*
X100768632Y-113802475D01*
X100975475Y-113595632D01*
X101137990Y-113352411D01*
X101249932Y-113082158D01*
X101307000Y-112795260D01*
X101307000Y-112502740D01*
X101249932Y-112215842D01*
X101137990Y-111945589D01*
X100975475Y-111702368D01*
X100768632Y-111495525D01*
X100594240Y-111379000D01*
X100768632Y-111262475D01*
X100975475Y-111055632D01*
X101137990Y-110812411D01*
X101249932Y-110542158D01*
X101307000Y-110255260D01*
X101307000Y-109962740D01*
X101249932Y-109675842D01*
X101137990Y-109405589D01*
X100975475Y-109162368D01*
X100843620Y-109030513D01*
X100916180Y-109008502D01*
X101026494Y-108949537D01*
X101123185Y-108870185D01*
X101202537Y-108773494D01*
X101261502Y-108663180D01*
X101297812Y-108543482D01*
X101310072Y-108419000D01*
X101310072Y-106719000D01*
X101297812Y-106594518D01*
X101261502Y-106474820D01*
X101202537Y-106364506D01*
X101123185Y-106267815D01*
X101026494Y-106188463D01*
X100916180Y-106129498D01*
X100796482Y-106093188D01*
X100672000Y-106080928D01*
X98972000Y-106080928D01*
X98847518Y-106093188D01*
X98727820Y-106129498D01*
X98617506Y-106188463D01*
X98520815Y-106267815D01*
X98441463Y-106364506D01*
X98382498Y-106474820D01*
X98346188Y-106594518D01*
X98333928Y-106719000D01*
X98069000Y-106719000D01*
X98069000Y-91547740D01*
X98210000Y-91547740D01*
X98210000Y-91840260D01*
X98267068Y-92127158D01*
X98379010Y-92397411D01*
X98541525Y-92640632D01*
X98748368Y-92847475D01*
X98922760Y-92964000D01*
X98748368Y-93080525D01*
X98541525Y-93287368D01*
X98379010Y-93530589D01*
X98267068Y-93800842D01*
X98210000Y-94087740D01*
X98210000Y-94380260D01*
X98267068Y-94667158D01*
X98379010Y-94937411D01*
X98541525Y-95180632D01*
X98748368Y-95387475D01*
X98930534Y-95509195D01*
X98813645Y-95578822D01*
X98597412Y-95773731D01*
X98423359Y-96007080D01*
X98298175Y-96269901D01*
X98253524Y-96417110D01*
X98374845Y-96647000D01*
X99568000Y-96647000D01*
X99568000Y-96627000D01*
X99822000Y-96627000D01*
X99822000Y-96647000D01*
X99842000Y-96647000D01*
X99842000Y-96901000D01*
X99822000Y-96901000D01*
X99822000Y-96921000D01*
X99568000Y-96921000D01*
X99568000Y-96901000D01*
X98374845Y-96901000D01*
X98253524Y-97130890D01*
X98298175Y-97278099D01*
X98423359Y-97540920D01*
X98597412Y-97774269D01*
X98813645Y-97969178D01*
X98930534Y-98038805D01*
X98748368Y-98160525D01*
X98541525Y-98367368D01*
X98379010Y-98610589D01*
X98267068Y-98880842D01*
X98210000Y-99167740D01*
X98210000Y-99460260D01*
X98267068Y-99747158D01*
X98379010Y-100017411D01*
X98541525Y-100260632D01*
X98748368Y-100467475D01*
X98922760Y-100584000D01*
X98748368Y-100700525D01*
X98541525Y-100907368D01*
X98379010Y-101150589D01*
X98267068Y-101420842D01*
X98210000Y-101707740D01*
X98210000Y-102000260D01*
X98267068Y-102287158D01*
X98379010Y-102557411D01*
X98541525Y-102800632D01*
X98748368Y-103007475D01*
X98991589Y-103169990D01*
X99261842Y-103281932D01*
X99548740Y-103339000D01*
X99841260Y-103339000D01*
X100061408Y-103295210D01*
X100274200Y-103508002D01*
X100297999Y-103537001D01*
X100326997Y-103560799D01*
X100413723Y-103631974D01*
X100545753Y-103702546D01*
X100689014Y-103746003D01*
X100800667Y-103757000D01*
X100800676Y-103757000D01*
X100837999Y-103760676D01*
X100875322Y-103757000D01*
X101401313Y-103757000D01*
X102803058Y-105158746D01*
X102803057Y-109745652D01*
X102799381Y-109782975D01*
X102803057Y-109820297D01*
X102803057Y-109820307D01*
X102814054Y-109931960D01*
X102857511Y-110075221D01*
X102928083Y-110207251D01*
X102967483Y-110255260D01*
X103023056Y-110322976D01*
X103052059Y-110346778D01*
X103584118Y-110878838D01*
X103607917Y-110907837D01*
X103723642Y-111002810D01*
X103855671Y-111073382D01*
X103998879Y-111116823D01*
X104053829Y-111171773D01*
X104223347Y-111285041D01*
X104411705Y-111363062D01*
X104611664Y-111402836D01*
X104815542Y-111402836D01*
X105015501Y-111363062D01*
X105203859Y-111285041D01*
X105373377Y-111171773D01*
X105517540Y-111027610D01*
X105630808Y-110858092D01*
X105708829Y-110669734D01*
X105748603Y-110469775D01*
X105748603Y-110265897D01*
X105708829Y-110065938D01*
X105630808Y-109877580D01*
X105517540Y-109708062D01*
X105373377Y-109563899D01*
X105312474Y-109523205D01*
X105323058Y-109469997D01*
X105323058Y-109266119D01*
X105283284Y-109066160D01*
X105205263Y-108877802D01*
X105091995Y-108708284D01*
X105048058Y-108664347D01*
X105048058Y-102205378D01*
X105051734Y-102168055D01*
X105048058Y-102130732D01*
X105048058Y-102130723D01*
X105037061Y-102019070D01*
X104993604Y-101875809D01*
X104923032Y-101743780D01*
X104828059Y-101628055D01*
X104799061Y-101604257D01*
X103415295Y-100220492D01*
X103550990Y-100017411D01*
X103662932Y-99747158D01*
X103720000Y-99460260D01*
X103720000Y-99167740D01*
X103662932Y-98880842D01*
X103550990Y-98610589D01*
X103388475Y-98367368D01*
X103287945Y-98266838D01*
X122324000Y-98266838D01*
X122324000Y-99011161D01*
X122337890Y-99152192D01*
X122392784Y-99333153D01*
X122481927Y-99499928D01*
X122601893Y-99646107D01*
X122748072Y-99766073D01*
X122914846Y-99855216D01*
X123095807Y-99910110D01*
X123284000Y-99928645D01*
X123472192Y-99910110D01*
X123653153Y-99855216D01*
X123819928Y-99766073D01*
X123966107Y-99646107D01*
X124086073Y-99499928D01*
X124175216Y-99333154D01*
X124230110Y-99152193D01*
X124244000Y-99011162D01*
X124244000Y-98266839D01*
X124230110Y-98125807D01*
X124175216Y-97944846D01*
X124086073Y-97778072D01*
X123966107Y-97631893D01*
X123819928Y-97511927D01*
X123653154Y-97422784D01*
X123472193Y-97367890D01*
X123284000Y-97349355D01*
X123095808Y-97367890D01*
X122914847Y-97422784D01*
X122748073Y-97511927D01*
X122601894Y-97631893D01*
X122481928Y-97778072D01*
X122392785Y-97944846D01*
X122337890Y-98125807D01*
X122324000Y-98266838D01*
X103287945Y-98266838D01*
X103181632Y-98160525D01*
X103007240Y-98044000D01*
X103181632Y-97927475D01*
X103388475Y-97720632D01*
X103550990Y-97477411D01*
X103662932Y-97207158D01*
X103720000Y-96920260D01*
X103720000Y-96627740D01*
X103662932Y-96340842D01*
X103550990Y-96070589D01*
X103388475Y-95827368D01*
X103181632Y-95620525D01*
X103007240Y-95504000D01*
X103181632Y-95387475D01*
X103388475Y-95180632D01*
X103550990Y-94937411D01*
X103662932Y-94667158D01*
X103720000Y-94380260D01*
X103720000Y-94087740D01*
X103662932Y-93800842D01*
X103550990Y-93530589D01*
X103388475Y-93287368D01*
X103256620Y-93155513D01*
X103329180Y-93133502D01*
X103439494Y-93074537D01*
X103536185Y-92995185D01*
X103615537Y-92898494D01*
X103674502Y-92788180D01*
X103710812Y-92668482D01*
X103723072Y-92544000D01*
X103723072Y-92454000D01*
X106619199Y-92454000D01*
X106661000Y-92495801D01*
X106661000Y-92557939D01*
X106700774Y-92757898D01*
X106778795Y-92946256D01*
X106892063Y-93115774D01*
X107036226Y-93259937D01*
X107205744Y-93373205D01*
X107394102Y-93451226D01*
X107594061Y-93491000D01*
X107797939Y-93491000D01*
X107906460Y-93469414D01*
X119171647Y-93469414D01*
X119171647Y-93673292D01*
X119211421Y-93873251D01*
X119289442Y-94061609D01*
X119402710Y-94231127D01*
X119546873Y-94375290D01*
X119716391Y-94488558D01*
X119904749Y-94566579D01*
X120104708Y-94606353D01*
X120308586Y-94606353D01*
X120508545Y-94566579D01*
X120696903Y-94488558D01*
X120866421Y-94375290D01*
X121010584Y-94231127D01*
X121123852Y-94061609D01*
X121201873Y-93873251D01*
X121241647Y-93673292D01*
X121241647Y-93611154D01*
X121585963Y-93266838D01*
X122324000Y-93266838D01*
X122324000Y-94011161D01*
X122337890Y-94152192D01*
X122392784Y-94333153D01*
X122481927Y-94499928D01*
X122601893Y-94646107D01*
X122748072Y-94766073D01*
X122914846Y-94855216D01*
X123095807Y-94910110D01*
X123284000Y-94928645D01*
X123472192Y-94910110D01*
X123653153Y-94855216D01*
X123819928Y-94766073D01*
X123966107Y-94646107D01*
X124086073Y-94499928D01*
X124175216Y-94333154D01*
X124230110Y-94152193D01*
X124244000Y-94011162D01*
X124244000Y-93266839D01*
X124230110Y-93125807D01*
X124175216Y-92944846D01*
X124086073Y-92778072D01*
X123966107Y-92631893D01*
X123819928Y-92511927D01*
X123653154Y-92422784D01*
X123472193Y-92367890D01*
X123284000Y-92349355D01*
X123095808Y-92367890D01*
X122914847Y-92422784D01*
X122748073Y-92511927D01*
X122601894Y-92631893D01*
X122481928Y-92778072D01*
X122392785Y-92944846D01*
X122337890Y-93125807D01*
X122324000Y-93266838D01*
X121585963Y-93266838D01*
X121697252Y-93155549D01*
X121770056Y-93141068D01*
X121958414Y-93063047D01*
X122127932Y-92949779D01*
X122272095Y-92805616D01*
X122385363Y-92636098D01*
X122463384Y-92447740D01*
X122503158Y-92247781D01*
X122503158Y-92043903D01*
X122463384Y-91843944D01*
X122385363Y-91655586D01*
X122272095Y-91486068D01*
X122127932Y-91341905D01*
X121958414Y-91228637D01*
X121770056Y-91150616D01*
X121570097Y-91110842D01*
X121366219Y-91110842D01*
X121166260Y-91150616D01*
X120977902Y-91228637D01*
X120808384Y-91341905D01*
X120664221Y-91486068D01*
X120550953Y-91655586D01*
X120472932Y-91843944D01*
X120433158Y-92043903D01*
X120433158Y-92247781D01*
X120436851Y-92266347D01*
X120166846Y-92536353D01*
X120104708Y-92536353D01*
X119904749Y-92576127D01*
X119716391Y-92654148D01*
X119546873Y-92767416D01*
X119402710Y-92911579D01*
X119289442Y-93081097D01*
X119211421Y-93269455D01*
X119171647Y-93469414D01*
X107906460Y-93469414D01*
X107997898Y-93451226D01*
X108186256Y-93373205D01*
X108355774Y-93259937D01*
X108499937Y-93115774D01*
X108613205Y-92946256D01*
X108691226Y-92757898D01*
X108731000Y-92557939D01*
X108731000Y-92354061D01*
X108691226Y-92154102D01*
X108613205Y-91965744D01*
X108499937Y-91796226D01*
X108355774Y-91652063D01*
X108186256Y-91538795D01*
X107997898Y-91460774D01*
X107797939Y-91421000D01*
X107735801Y-91421000D01*
X107497803Y-91183002D01*
X107474001Y-91153999D01*
X107358276Y-91059026D01*
X107226247Y-90988454D01*
X107082986Y-90944997D01*
X106971333Y-90934000D01*
X106971322Y-90934000D01*
X106934000Y-90930324D01*
X106896678Y-90934000D01*
X103723072Y-90934000D01*
X103723072Y-90844000D01*
X103710812Y-90719518D01*
X103674502Y-90599820D01*
X103615537Y-90489506D01*
X103536185Y-90392815D01*
X103439494Y-90313463D01*
X103329180Y-90254498D01*
X103209482Y-90218188D01*
X103085000Y-90205928D01*
X101385000Y-90205928D01*
X101260518Y-90218188D01*
X101140820Y-90254498D01*
X101030506Y-90313463D01*
X100933815Y-90392815D01*
X100854463Y-90489506D01*
X100795498Y-90599820D01*
X100773487Y-90672380D01*
X100641632Y-90540525D01*
X100398411Y-90378010D01*
X100128158Y-90266068D01*
X99841260Y-90209000D01*
X99548740Y-90209000D01*
X99261842Y-90266068D01*
X98991589Y-90378010D01*
X98748368Y-90540525D01*
X98541525Y-90747368D01*
X98379010Y-90990589D01*
X98267068Y-91260842D01*
X98210000Y-91547740D01*
X98069000Y-91547740D01*
X98069000Y-86647872D01*
X98857000Y-86647872D01*
X98857000Y-87088128D01*
X98942890Y-87519925D01*
X99111369Y-87926669D01*
X99355962Y-88292729D01*
X99667271Y-88604038D01*
X100033331Y-88848631D01*
X100440075Y-89017110D01*
X100871872Y-89103000D01*
X101312128Y-89103000D01*
X101743925Y-89017110D01*
X102150669Y-88848631D01*
X102516729Y-88604038D01*
X102828038Y-88292729D01*
X103072631Y-87926669D01*
X103241110Y-87519925D01*
X103327000Y-87088128D01*
X103327000Y-86956000D01*
X105445928Y-86956000D01*
X105458188Y-87080482D01*
X105494498Y-87200180D01*
X105553463Y-87310494D01*
X105632815Y-87407185D01*
X105729506Y-87486537D01*
X105839820Y-87545502D01*
X105912380Y-87567513D01*
X105780525Y-87699368D01*
X105618010Y-87942589D01*
X105506068Y-88212842D01*
X105449000Y-88499740D01*
X105449000Y-88792260D01*
X105506068Y-89079158D01*
X105618010Y-89349411D01*
X105780525Y-89592632D01*
X105987368Y-89799475D01*
X106230589Y-89961990D01*
X106500842Y-90073932D01*
X106787740Y-90131000D01*
X107080260Y-90131000D01*
X107367158Y-90073932D01*
X107637411Y-89961990D01*
X107880632Y-89799475D01*
X108087475Y-89592632D01*
X108249990Y-89349411D01*
X108361932Y-89079158D01*
X108419000Y-88792260D01*
X108419000Y-88499740D01*
X108361932Y-88212842D01*
X108249990Y-87942589D01*
X108087475Y-87699368D01*
X107955620Y-87567513D01*
X108028180Y-87545502D01*
X108138494Y-87486537D01*
X108235185Y-87407185D01*
X108314537Y-87310494D01*
X108373502Y-87200180D01*
X108409812Y-87080482D01*
X108422072Y-86956000D01*
X108420395Y-86647872D01*
X121590000Y-86647872D01*
X121590000Y-87088128D01*
X121675890Y-87519925D01*
X121844369Y-87926669D01*
X122088962Y-88292729D01*
X122400271Y-88604038D01*
X122766331Y-88848631D01*
X123173075Y-89017110D01*
X123604872Y-89103000D01*
X124045128Y-89103000D01*
X124476925Y-89017110D01*
X124883669Y-88848631D01*
X125249729Y-88604038D01*
X125561038Y-88292729D01*
X125805631Y-87926669D01*
X125974110Y-87519925D01*
X126060000Y-87088128D01*
X126060000Y-86647872D01*
X125974110Y-86216075D01*
X125805631Y-85809331D01*
X125561038Y-85443271D01*
X125249729Y-85131962D01*
X124883669Y-84887369D01*
X124476925Y-84718890D01*
X124045128Y-84633000D01*
X123604872Y-84633000D01*
X123173075Y-84718890D01*
X122766331Y-84887369D01*
X122400271Y-85131962D01*
X122088962Y-85443271D01*
X121844369Y-85809331D01*
X121675890Y-86216075D01*
X121590000Y-86647872D01*
X108420395Y-86647872D01*
X108419000Y-86391750D01*
X108260250Y-86233000D01*
X107061000Y-86233000D01*
X107061000Y-86253000D01*
X106807000Y-86253000D01*
X106807000Y-86233000D01*
X105607750Y-86233000D01*
X105449000Y-86391750D01*
X105445928Y-86956000D01*
X103327000Y-86956000D01*
X103327000Y-86647872D01*
X103241110Y-86216075D01*
X103072631Y-85809331D01*
X102828038Y-85443271D01*
X102640767Y-85256000D01*
X105445928Y-85256000D01*
X105449000Y-85820250D01*
X105607750Y-85979000D01*
X106807000Y-85979000D01*
X106807000Y-84779750D01*
X107061000Y-84779750D01*
X107061000Y-85979000D01*
X108260250Y-85979000D01*
X108419000Y-85820250D01*
X108422072Y-85256000D01*
X108409812Y-85131518D01*
X108373502Y-85011820D01*
X108314537Y-84901506D01*
X108235185Y-84804815D01*
X108138494Y-84725463D01*
X108028180Y-84666498D01*
X107908482Y-84630188D01*
X107784000Y-84617928D01*
X107219750Y-84621000D01*
X107061000Y-84779750D01*
X106807000Y-84779750D01*
X106648250Y-84621000D01*
X106084000Y-84617928D01*
X105959518Y-84630188D01*
X105839820Y-84666498D01*
X105729506Y-84725463D01*
X105632815Y-84804815D01*
X105553463Y-84901506D01*
X105494498Y-85011820D01*
X105458188Y-85131518D01*
X105445928Y-85256000D01*
X102640767Y-85256000D01*
X102516729Y-85131962D01*
X102150669Y-84887369D01*
X101743925Y-84718890D01*
X101312128Y-84633000D01*
X100871872Y-84633000D01*
X100440075Y-84718890D01*
X100033331Y-84887369D01*
X99667271Y-85131962D01*
X99355962Y-85443271D01*
X99111369Y-85809331D01*
X98942890Y-86216075D01*
X98857000Y-86647872D01*
X98069000Y-86647872D01*
X98069000Y-86011278D01*
X98112746Y-85565119D01*
X98232945Y-85167001D01*
X98428181Y-84799815D01*
X98691022Y-84477541D01*
X99011452Y-84212458D01*
X99377267Y-84014662D01*
X99774537Y-83891686D01*
X100218726Y-83845000D01*
X124681722Y-83845000D01*
X125127881Y-83888746D01*
G37*
X125127881Y-83888746D02*
X125525999Y-84008945D01*
X125893185Y-84204181D01*
X126215459Y-84467022D01*
X126480542Y-84787452D01*
X126678338Y-85153267D01*
X126801314Y-85550537D01*
X126848000Y-85994726D01*
X126848000Y-91734295D01*
X126764687Y-91689763D01*
X126571945Y-91631295D01*
X126421728Y-91616500D01*
X125546272Y-91616500D01*
X125396055Y-91631295D01*
X125203313Y-91689763D01*
X125025681Y-91784709D01*
X124869985Y-91912485D01*
X124742209Y-92068181D01*
X124647263Y-92245813D01*
X124588795Y-92438555D01*
X124569053Y-92639000D01*
X124588795Y-92839445D01*
X124647263Y-93032187D01*
X124742209Y-93209819D01*
X124869985Y-93365515D01*
X125025681Y-93493291D01*
X125203313Y-93588237D01*
X125396055Y-93646705D01*
X125546272Y-93661500D01*
X126421728Y-93661500D01*
X126571945Y-93646705D01*
X126764687Y-93588237D01*
X126848000Y-93543705D01*
X126848000Y-98734295D01*
X126764687Y-98689763D01*
X126571945Y-98631295D01*
X126421728Y-98616500D01*
X125546272Y-98616500D01*
X125396055Y-98631295D01*
X125203313Y-98689763D01*
X125025681Y-98784709D01*
X124869985Y-98912485D01*
X124742209Y-99068181D01*
X124647263Y-99245813D01*
X124588795Y-99438555D01*
X124569053Y-99639000D01*
X124588795Y-99839445D01*
X124647263Y-100032187D01*
X124742209Y-100209819D01*
X124869985Y-100365515D01*
X125025681Y-100493291D01*
X125203313Y-100588237D01*
X125396055Y-100646705D01*
X125546272Y-100661500D01*
X126421728Y-100661500D01*
X126571945Y-100646705D01*
X126764687Y-100588237D01*
X126848000Y-100543705D01*
X126848001Y-140843000D01*
X115513459Y-140843000D01*
X115617898Y-140822226D01*
X115806256Y-140744205D01*
X115975774Y-140630937D01*
X116119937Y-140486774D01*
X116233205Y-140317256D01*
X116311226Y-140128898D01*
X116351000Y-139928939D01*
X116351000Y-139725061D01*
X116311226Y-139525102D01*
X116233205Y-139336744D01*
X116119937Y-139167226D01*
X116076000Y-139123289D01*
X116076000Y-136412856D01*
X116079676Y-136375533D01*
X116076000Y-136338210D01*
X116076000Y-136338200D01*
X116065003Y-136226547D01*
X116021546Y-136083286D01*
X115950974Y-135951257D01*
X115856001Y-135835532D01*
X115827004Y-135811735D01*
X111334777Y-131319508D01*
X112860447Y-131319508D01*
X112860447Y-131523386D01*
X112900221Y-131723345D01*
X112978242Y-131911703D01*
X113091510Y-132081221D01*
X113235673Y-132225384D01*
X113405191Y-132338652D01*
X113593549Y-132416673D01*
X113793508Y-132456447D01*
X113982646Y-132456447D01*
X114027000Y-132500802D01*
X114027000Y-132562939D01*
X114066774Y-132762898D01*
X114144795Y-132951256D01*
X114258063Y-133120774D01*
X114402226Y-133264937D01*
X114571744Y-133378205D01*
X114760102Y-133456226D01*
X114960061Y-133496000D01*
X115163939Y-133496000D01*
X115363898Y-133456226D01*
X115552256Y-133378205D01*
X115721774Y-133264937D01*
X115826001Y-133160710D01*
X115826001Y-134455668D01*
X115822324Y-134493000D01*
X115836998Y-134641985D01*
X115880454Y-134785246D01*
X115951026Y-134917276D01*
X115996590Y-134972795D01*
X116046000Y-135033001D01*
X116074998Y-135056799D01*
X116948000Y-135929802D01*
X116948000Y-135991939D01*
X116987774Y-136191898D01*
X117065795Y-136380256D01*
X117179063Y-136549774D01*
X117323226Y-136693937D01*
X117492744Y-136807205D01*
X117681102Y-136885226D01*
X117881061Y-136925000D01*
X118084939Y-136925000D01*
X118284898Y-136885226D01*
X118473256Y-136807205D01*
X118642774Y-136693937D01*
X118786937Y-136549774D01*
X118900205Y-136380256D01*
X118978226Y-136191898D01*
X119018000Y-135991939D01*
X119018000Y-135788061D01*
X118978226Y-135588102D01*
X118900205Y-135399744D01*
X118786937Y-135230226D01*
X118642774Y-135086063D01*
X118473256Y-134972795D01*
X118284898Y-134894774D01*
X118084939Y-134855000D01*
X118022802Y-134855000D01*
X117346000Y-134178199D01*
X117346000Y-131431803D01*
X119267199Y-133353003D01*
X119290997Y-133382001D01*
X119406722Y-133476974D01*
X119538751Y-133547546D01*
X119682012Y-133591003D01*
X119793665Y-133602000D01*
X119793674Y-133602000D01*
X119830997Y-133605676D01*
X119868320Y-133602000D01*
X121724289Y-133602000D01*
X121768226Y-133645937D01*
X121937744Y-133759205D01*
X122126102Y-133837226D01*
X122326061Y-133877000D01*
X122529939Y-133877000D01*
X122729898Y-133837226D01*
X122918256Y-133759205D01*
X123087774Y-133645937D01*
X123231937Y-133501774D01*
X123345205Y-133332256D01*
X123423226Y-133143898D01*
X123463000Y-132943939D01*
X123463000Y-132740061D01*
X123423226Y-132540102D01*
X123345205Y-132351744D01*
X123231937Y-132182226D01*
X123087774Y-132038063D01*
X122918256Y-131924795D01*
X122729898Y-131846774D01*
X122529939Y-131807000D01*
X122326061Y-131807000D01*
X122126102Y-131846774D01*
X121937744Y-131924795D01*
X121768226Y-132038063D01*
X121724289Y-132082000D01*
X120145800Y-132082000D01*
X118588755Y-130524956D01*
X118659937Y-130453774D01*
X118773205Y-130284256D01*
X118851226Y-130095898D01*
X118891000Y-129895939D01*
X118891000Y-129833801D01*
X119764003Y-128960799D01*
X119793001Y-128937001D01*
X119887974Y-128821276D01*
X119958546Y-128689247D01*
X120002003Y-128545986D01*
X120013000Y-128434333D01*
X120013000Y-128434324D01*
X120016676Y-128397001D01*
X120013000Y-128359678D01*
X120013000Y-124782711D01*
X120056937Y-124738774D01*
X120170205Y-124569256D01*
X120248226Y-124380898D01*
X120288000Y-124180939D01*
X120288000Y-123977061D01*
X120248226Y-123777102D01*
X120170205Y-123588744D01*
X120056937Y-123419226D01*
X119912774Y-123275063D01*
X119743256Y-123161795D01*
X119554898Y-123083774D01*
X119354939Y-123044000D01*
X119151061Y-123044000D01*
X118951102Y-123083774D01*
X118762744Y-123161795D01*
X118593226Y-123275063D01*
X118449063Y-123419226D01*
X118335795Y-123588744D01*
X118257774Y-123777102D01*
X118218000Y-123977061D01*
X118218000Y-124180939D01*
X118257774Y-124380898D01*
X118335795Y-124569256D01*
X118449063Y-124738774D01*
X118493000Y-124782711D01*
X118493001Y-128082197D01*
X118071001Y-128504197D01*
X118071001Y-128340321D01*
X118074677Y-128302998D01*
X118071001Y-128265676D01*
X118071001Y-128265666D01*
X118060004Y-128154013D01*
X118016547Y-128010752D01*
X117945975Y-127878723D01*
X117851002Y-127762998D01*
X117821999Y-127739196D01*
X117460806Y-127378003D01*
X117437003Y-127348999D01*
X117321278Y-127254026D01*
X117189249Y-127183454D01*
X117045988Y-127139997D01*
X116934335Y-127129000D01*
X116934324Y-127129000D01*
X116897002Y-127125324D01*
X116859680Y-127129000D01*
X116400711Y-127129000D01*
X116356774Y-127085063D01*
X116187256Y-126971795D01*
X115998898Y-126893774D01*
X115798939Y-126854000D01*
X115595061Y-126854000D01*
X115395102Y-126893774D01*
X115206744Y-126971795D01*
X115037226Y-127085063D01*
X114893063Y-127229226D01*
X114779795Y-127398744D01*
X114701774Y-127587102D01*
X114662000Y-127787061D01*
X114662000Y-127990939D01*
X114701774Y-128190898D01*
X114779795Y-128379256D01*
X114893063Y-128548774D01*
X115037226Y-128692937D01*
X115206744Y-128806205D01*
X115395102Y-128884226D01*
X115584612Y-128921922D01*
X115590774Y-128952898D01*
X115668795Y-129141256D01*
X115782063Y-129310774D01*
X115826000Y-129354711D01*
X115826001Y-131761290D01*
X115721774Y-131657063D01*
X115552256Y-131543795D01*
X115363898Y-131465774D01*
X115163939Y-131426000D01*
X115101802Y-131426000D01*
X114914342Y-131238540D01*
X114890673Y-131119549D01*
X114812652Y-130931191D01*
X114699384Y-130761673D01*
X114555221Y-130617510D01*
X114385703Y-130504242D01*
X114197345Y-130426221D01*
X113997386Y-130386447D01*
X113793508Y-130386447D01*
X113593549Y-130426221D01*
X113405191Y-130504242D01*
X113235673Y-130617510D01*
X113091510Y-130761673D01*
X112978242Y-130931191D01*
X112900221Y-131119549D01*
X112860447Y-131319508D01*
X111334777Y-131319508D01*
X104250583Y-124235315D01*
X104250583Y-124173177D01*
X104210809Y-123973218D01*
X104132788Y-123784860D01*
X104019520Y-123615342D01*
X103875357Y-123471179D01*
X103705839Y-123357911D01*
X103517481Y-123279890D01*
X103317522Y-123240116D01*
X103113644Y-123240116D01*
X102913685Y-123279890D01*
X102903726Y-123284015D01*
X102894774Y-123275063D01*
X102725256Y-123161795D01*
X102536898Y-123083774D01*
X102336939Y-123044000D01*
X102133061Y-123044000D01*
X101933102Y-123083774D01*
X101744744Y-123161795D01*
X101575226Y-123275063D01*
X101431063Y-123419226D01*
X101317795Y-123588744D01*
X101308586Y-123610977D01*
X101250185Y-123539815D01*
X101153494Y-123460463D01*
X101043180Y-123401498D01*
X100923482Y-123365188D01*
X100799000Y-123352928D01*
X99099000Y-123352928D01*
X98974518Y-123365188D01*
X98854820Y-123401498D01*
X98744506Y-123460463D01*
X98647815Y-123539815D01*
X98568463Y-123636506D01*
X98509498Y-123746820D01*
X98473188Y-123866518D01*
X98460928Y-123991000D01*
X98460928Y-125691000D01*
X98473188Y-125815482D01*
X98509498Y-125935180D01*
X98568463Y-126045494D01*
X98647815Y-126142185D01*
X98744506Y-126221537D01*
X98854820Y-126280502D01*
X98927380Y-126302513D01*
X98795525Y-126434368D01*
X98633010Y-126677589D01*
X98521068Y-126947842D01*
X98464000Y-127234740D01*
X98464000Y-127527260D01*
X98521068Y-127814158D01*
X98633010Y-128084411D01*
X98795525Y-128327632D01*
X99002368Y-128534475D01*
X99176760Y-128651000D01*
X99002368Y-128767525D01*
X98795525Y-128974368D01*
X98633010Y-129217589D01*
X98521068Y-129487842D01*
X98464000Y-129774740D01*
X98464000Y-130067260D01*
X98521068Y-130354158D01*
X98633010Y-130624411D01*
X98795525Y-130867632D01*
X99002368Y-131074475D01*
X99176760Y-131191000D01*
X99002368Y-131307525D01*
X98795525Y-131514368D01*
X98633010Y-131757589D01*
X98521068Y-132027842D01*
X98464000Y-132314740D01*
X98464000Y-132607260D01*
X98521068Y-132894158D01*
X98633010Y-133164411D01*
X98795525Y-133407632D01*
X99002368Y-133614475D01*
X99176760Y-133731000D01*
X99002368Y-133847525D01*
X98795525Y-134054368D01*
X98633010Y-134297589D01*
X98521068Y-134567842D01*
X98464000Y-134854740D01*
X98464000Y-135147260D01*
X98521068Y-135434158D01*
X98633010Y-135704411D01*
X98795525Y-135947632D01*
X99002368Y-136154475D01*
X99184534Y-136276195D01*
X99067645Y-136345822D01*
X98851412Y-136540731D01*
X98677359Y-136774080D01*
X98552175Y-137036901D01*
X98507524Y-137184110D01*
X98628845Y-137414000D01*
X99822000Y-137414000D01*
X99822000Y-137394000D01*
X100076000Y-137394000D01*
X100076000Y-137414000D01*
X101269155Y-137414000D01*
X101390476Y-137184110D01*
X101345825Y-137036901D01*
X101220641Y-136774080D01*
X101046588Y-136540731D01*
X100830355Y-136345822D01*
X100713466Y-136276195D01*
X100895632Y-136154475D01*
X101102475Y-135947632D01*
X101264990Y-135704411D01*
X101376932Y-135434158D01*
X101434000Y-135147260D01*
X101434000Y-134854740D01*
X101376932Y-134567842D01*
X101264990Y-134297589D01*
X101102475Y-134054368D01*
X100895632Y-133847525D01*
X100721240Y-133731000D01*
X100895632Y-133614475D01*
X101102475Y-133407632D01*
X101264990Y-133164411D01*
X101376932Y-132894158D01*
X101434000Y-132607260D01*
X101434000Y-132314740D01*
X101376932Y-132027842D01*
X101264990Y-131757589D01*
X101102475Y-131514368D01*
X100895632Y-131307525D01*
X100721240Y-131191000D01*
X100895632Y-131074475D01*
X101102475Y-130867632D01*
X101264990Y-130624411D01*
X101376932Y-130354158D01*
X101434000Y-130067260D01*
X101434000Y-129774740D01*
X101376932Y-129487842D01*
X101264990Y-129217589D01*
X101102475Y-128974368D01*
X100895632Y-128767525D01*
X100721240Y-128651000D01*
X100895632Y-128534475D01*
X101102475Y-128327632D01*
X101264990Y-128084411D01*
X101376932Y-127814158D01*
X101434000Y-127527260D01*
X101434000Y-127234740D01*
X101376932Y-126947842D01*
X101264990Y-126677589D01*
X101102475Y-126434368D01*
X100970620Y-126302513D01*
X101043180Y-126280502D01*
X101153494Y-126221537D01*
X101250185Y-126142185D01*
X101329537Y-126045494D01*
X101388502Y-125935180D01*
X101424812Y-125815482D01*
X101437072Y-125691000D01*
X101437072Y-124744783D01*
X101475001Y-124782712D01*
X101475001Y-125311668D01*
X101471324Y-125349000D01*
X101485998Y-125497985D01*
X101529454Y-125641246D01*
X101600026Y-125773276D01*
X101671201Y-125860002D01*
X101695000Y-125889001D01*
X101723998Y-125912799D01*
X113101201Y-137290003D01*
X113124999Y-137319001D01*
X113153997Y-137342799D01*
X113240723Y-137413974D01*
X113372753Y-137484546D01*
X113516014Y-137528003D01*
X113627667Y-137539000D01*
X113627677Y-137539000D01*
X113664999Y-137542676D01*
X113702322Y-137539000D01*
X113723289Y-137539000D01*
X113767226Y-137582937D01*
X113936744Y-137696205D01*
X114125102Y-137774226D01*
X114325061Y-137814000D01*
X114528939Y-137814000D01*
X114556000Y-137808617D01*
X114556001Y-139123288D01*
X114512063Y-139167226D01*
X114398795Y-139336744D01*
X114320774Y-139525102D01*
X114281000Y-139725061D01*
X114281000Y-139928939D01*
X114320774Y-140128898D01*
X114398795Y-140317256D01*
X114512063Y-140486774D01*
X114656226Y-140630937D01*
X114825744Y-140744205D01*
X115014102Y-140822226D01*
X115118541Y-140843000D01*
X98069000Y-140843000D01*
X98069000Y-137897890D01*
X98507524Y-137897890D01*
X98552175Y-138045099D01*
X98677359Y-138307920D01*
X98851412Y-138541269D01*
X99067645Y-138736178D01*
X99317748Y-138885157D01*
X99592109Y-138982481D01*
X99822000Y-138861814D01*
X99822000Y-137668000D01*
X100076000Y-137668000D01*
X100076000Y-138861814D01*
X100305891Y-138982481D01*
X100580252Y-138885157D01*
X100830355Y-138736178D01*
X101046588Y-138541269D01*
X101220641Y-138307920D01*
X101345825Y-138045099D01*
X101390476Y-137897890D01*
X101269155Y-137668000D01*
X100076000Y-137668000D01*
X99822000Y-137668000D01*
X98628845Y-137668000D01*
X98507524Y-137897890D01*
X98069000Y-137897890D01*
X98069000Y-117582740D01*
X98337000Y-117582740D01*
X98337000Y-117875260D01*
X98394068Y-118162158D01*
X98506010Y-118432411D01*
X98668525Y-118675632D01*
X98875368Y-118882475D01*
X99049760Y-118999000D01*
X98875368Y-119115525D01*
X98668525Y-119322368D01*
X98506010Y-119565589D01*
X98394068Y-119835842D01*
X98337000Y-120122740D01*
X98337000Y-120415260D01*
X98394068Y-120702158D01*
X98506010Y-120972411D01*
X98668525Y-121215632D01*
X98875368Y-121422475D01*
X99118589Y-121584990D01*
X99388842Y-121696932D01*
X99675740Y-121754000D01*
X99968260Y-121754000D01*
X100255158Y-121696932D01*
X100525411Y-121584990D01*
X100768632Y-121422475D01*
X100975475Y-121215632D01*
X101137990Y-120972411D01*
X101249932Y-120702158D01*
X101307000Y-120415260D01*
X101307000Y-120122740D01*
X101249932Y-119835842D01*
X101137990Y-119565589D01*
X100975475Y-119322368D01*
X100768632Y-119115525D01*
X100594240Y-118999000D01*
X100768632Y-118882475D01*
X100975475Y-118675632D01*
X101137990Y-118432411D01*
X101249932Y-118162158D01*
X101307000Y-117875260D01*
X101307000Y-117582740D01*
X101249932Y-117295842D01*
X101137990Y-117025589D01*
X100975475Y-116782368D01*
X100768632Y-116575525D01*
X100586466Y-116453805D01*
X100703355Y-116384178D01*
X100919588Y-116189269D01*
X101093641Y-115955920D01*
X101218825Y-115693099D01*
X101263476Y-115545890D01*
X101142155Y-115316000D01*
X99949000Y-115316000D01*
X99949000Y-115336000D01*
X99695000Y-115336000D01*
X99695000Y-115316000D01*
X98501845Y-115316000D01*
X98380524Y-115545890D01*
X98425175Y-115693099D01*
X98550359Y-115955920D01*
X98724412Y-116189269D01*
X98940645Y-116384178D01*
X99057534Y-116453805D01*
X98875368Y-116575525D01*
X98668525Y-116782368D01*
X98506010Y-117025589D01*
X98394068Y-117295842D01*
X98337000Y-117582740D01*
X98069000Y-117582740D01*
X98069000Y-106719000D01*
X98333928Y-106719000D01*
X98333928Y-108419000D01*
X98346188Y-108543482D01*
X98382498Y-108663180D01*
X98441463Y-108773494D01*
X98520815Y-108870185D01*
X98617506Y-108949537D01*
X98727820Y-109008502D01*
X98800380Y-109030513D01*
X98668525Y-109162368D01*
X98506010Y-109405589D01*
X98394068Y-109675842D01*
X98337000Y-109962740D01*
X98337000Y-110255260D01*
X98394068Y-110542158D01*
X98506010Y-110812411D01*
X98668525Y-111055632D01*
X98875368Y-111262475D01*
X99049760Y-111379000D01*
X98875368Y-111495525D01*
X98668525Y-111702368D01*
X98506010Y-111945589D01*
X98394068Y-112215842D01*
X98337000Y-112502740D01*
X98337000Y-112795260D01*
X98394068Y-113082158D01*
X98506010Y-113352411D01*
X98668525Y-113595632D01*
X98875368Y-113802475D01*
X99057534Y-113924195D01*
X98940645Y-113993822D01*
X98724412Y-114188731D01*
X98550359Y-114422080D01*
X98425175Y-114684901D01*
X98380524Y-114832110D01*
X98501845Y-115062000D01*
X99695000Y-115062000D01*
X99695000Y-115042000D01*
X99949000Y-115042000D01*
X99949000Y-115062000D01*
X101142155Y-115062000D01*
X101263476Y-114832110D01*
X101218825Y-114684901D01*
X101093641Y-114422080D01*
X100919588Y-114188731D01*
X100703355Y-113993822D01*
X100586466Y-113924195D01*
X100768632Y-113802475D01*
X100975475Y-113595632D01*
X101137990Y-113352411D01*
X101249932Y-113082158D01*
X101307000Y-112795260D01*
X101307000Y-112502740D01*
X101249932Y-112215842D01*
X101137990Y-111945589D01*
X100975475Y-111702368D01*
X100768632Y-111495525D01*
X100594240Y-111379000D01*
X100768632Y-111262475D01*
X100975475Y-111055632D01*
X101137990Y-110812411D01*
X101249932Y-110542158D01*
X101307000Y-110255260D01*
X101307000Y-109962740D01*
X101249932Y-109675842D01*
X101137990Y-109405589D01*
X100975475Y-109162368D01*
X100843620Y-109030513D01*
X100916180Y-109008502D01*
X101026494Y-108949537D01*
X101123185Y-108870185D01*
X101202537Y-108773494D01*
X101261502Y-108663180D01*
X101297812Y-108543482D01*
X101310072Y-108419000D01*
X101310072Y-106719000D01*
X101297812Y-106594518D01*
X101261502Y-106474820D01*
X101202537Y-106364506D01*
X101123185Y-106267815D01*
X101026494Y-106188463D01*
X100916180Y-106129498D01*
X100796482Y-106093188D01*
X100672000Y-106080928D01*
X98972000Y-106080928D01*
X98847518Y-106093188D01*
X98727820Y-106129498D01*
X98617506Y-106188463D01*
X98520815Y-106267815D01*
X98441463Y-106364506D01*
X98382498Y-106474820D01*
X98346188Y-106594518D01*
X98333928Y-106719000D01*
X98069000Y-106719000D01*
X98069000Y-91547740D01*
X98210000Y-91547740D01*
X98210000Y-91840260D01*
X98267068Y-92127158D01*
X98379010Y-92397411D01*
X98541525Y-92640632D01*
X98748368Y-92847475D01*
X98922760Y-92964000D01*
X98748368Y-93080525D01*
X98541525Y-93287368D01*
X98379010Y-93530589D01*
X98267068Y-93800842D01*
X98210000Y-94087740D01*
X98210000Y-94380260D01*
X98267068Y-94667158D01*
X98379010Y-94937411D01*
X98541525Y-95180632D01*
X98748368Y-95387475D01*
X98930534Y-95509195D01*
X98813645Y-95578822D01*
X98597412Y-95773731D01*
X98423359Y-96007080D01*
X98298175Y-96269901D01*
X98253524Y-96417110D01*
X98374845Y-96647000D01*
X99568000Y-96647000D01*
X99568000Y-96627000D01*
X99822000Y-96627000D01*
X99822000Y-96647000D01*
X99842000Y-96647000D01*
X99842000Y-96901000D01*
X99822000Y-96901000D01*
X99822000Y-96921000D01*
X99568000Y-96921000D01*
X99568000Y-96901000D01*
X98374845Y-96901000D01*
X98253524Y-97130890D01*
X98298175Y-97278099D01*
X98423359Y-97540920D01*
X98597412Y-97774269D01*
X98813645Y-97969178D01*
X98930534Y-98038805D01*
X98748368Y-98160525D01*
X98541525Y-98367368D01*
X98379010Y-98610589D01*
X98267068Y-98880842D01*
X98210000Y-99167740D01*
X98210000Y-99460260D01*
X98267068Y-99747158D01*
X98379010Y-100017411D01*
X98541525Y-100260632D01*
X98748368Y-100467475D01*
X98922760Y-100584000D01*
X98748368Y-100700525D01*
X98541525Y-100907368D01*
X98379010Y-101150589D01*
X98267068Y-101420842D01*
X98210000Y-101707740D01*
X98210000Y-102000260D01*
X98267068Y-102287158D01*
X98379010Y-102557411D01*
X98541525Y-102800632D01*
X98748368Y-103007475D01*
X98991589Y-103169990D01*
X99261842Y-103281932D01*
X99548740Y-103339000D01*
X99841260Y-103339000D01*
X100061408Y-103295210D01*
X100274200Y-103508002D01*
X100297999Y-103537001D01*
X100326997Y-103560799D01*
X100413723Y-103631974D01*
X100545753Y-103702546D01*
X100689014Y-103746003D01*
X100800667Y-103757000D01*
X100800676Y-103757000D01*
X100837999Y-103760676D01*
X100875322Y-103757000D01*
X101401313Y-103757000D01*
X102803058Y-105158746D01*
X102803057Y-109745652D01*
X102799381Y-109782975D01*
X102803057Y-109820297D01*
X102803057Y-109820307D01*
X102814054Y-109931960D01*
X102857511Y-110075221D01*
X102928083Y-110207251D01*
X102967483Y-110255260D01*
X103023056Y-110322976D01*
X103052059Y-110346778D01*
X103584118Y-110878838D01*
X103607917Y-110907837D01*
X103723642Y-111002810D01*
X103855671Y-111073382D01*
X103998879Y-111116823D01*
X104053829Y-111171773D01*
X104223347Y-111285041D01*
X104411705Y-111363062D01*
X104611664Y-111402836D01*
X104815542Y-111402836D01*
X105015501Y-111363062D01*
X105203859Y-111285041D01*
X105373377Y-111171773D01*
X105517540Y-111027610D01*
X105630808Y-110858092D01*
X105708829Y-110669734D01*
X105748603Y-110469775D01*
X105748603Y-110265897D01*
X105708829Y-110065938D01*
X105630808Y-109877580D01*
X105517540Y-109708062D01*
X105373377Y-109563899D01*
X105312474Y-109523205D01*
X105323058Y-109469997D01*
X105323058Y-109266119D01*
X105283284Y-109066160D01*
X105205263Y-108877802D01*
X105091995Y-108708284D01*
X105048058Y-108664347D01*
X105048058Y-102205378D01*
X105051734Y-102168055D01*
X105048058Y-102130732D01*
X105048058Y-102130723D01*
X105037061Y-102019070D01*
X104993604Y-101875809D01*
X104923032Y-101743780D01*
X104828059Y-101628055D01*
X104799061Y-101604257D01*
X103415295Y-100220492D01*
X103550990Y-100017411D01*
X103662932Y-99747158D01*
X103720000Y-99460260D01*
X103720000Y-99167740D01*
X103662932Y-98880842D01*
X103550990Y-98610589D01*
X103388475Y-98367368D01*
X103287945Y-98266838D01*
X122324000Y-98266838D01*
X122324000Y-99011161D01*
X122337890Y-99152192D01*
X122392784Y-99333153D01*
X122481927Y-99499928D01*
X122601893Y-99646107D01*
X122748072Y-99766073D01*
X122914846Y-99855216D01*
X123095807Y-99910110D01*
X123284000Y-99928645D01*
X123472192Y-99910110D01*
X123653153Y-99855216D01*
X123819928Y-99766073D01*
X123966107Y-99646107D01*
X124086073Y-99499928D01*
X124175216Y-99333154D01*
X124230110Y-99152193D01*
X124244000Y-99011162D01*
X124244000Y-98266839D01*
X124230110Y-98125807D01*
X124175216Y-97944846D01*
X124086073Y-97778072D01*
X123966107Y-97631893D01*
X123819928Y-97511927D01*
X123653154Y-97422784D01*
X123472193Y-97367890D01*
X123284000Y-97349355D01*
X123095808Y-97367890D01*
X122914847Y-97422784D01*
X122748073Y-97511927D01*
X122601894Y-97631893D01*
X122481928Y-97778072D01*
X122392785Y-97944846D01*
X122337890Y-98125807D01*
X122324000Y-98266838D01*
X103287945Y-98266838D01*
X103181632Y-98160525D01*
X103007240Y-98044000D01*
X103181632Y-97927475D01*
X103388475Y-97720632D01*
X103550990Y-97477411D01*
X103662932Y-97207158D01*
X103720000Y-96920260D01*
X103720000Y-96627740D01*
X103662932Y-96340842D01*
X103550990Y-96070589D01*
X103388475Y-95827368D01*
X103181632Y-95620525D01*
X103007240Y-95504000D01*
X103181632Y-95387475D01*
X103388475Y-95180632D01*
X103550990Y-94937411D01*
X103662932Y-94667158D01*
X103720000Y-94380260D01*
X103720000Y-94087740D01*
X103662932Y-93800842D01*
X103550990Y-93530589D01*
X103388475Y-93287368D01*
X103256620Y-93155513D01*
X103329180Y-93133502D01*
X103439494Y-93074537D01*
X103536185Y-92995185D01*
X103615537Y-92898494D01*
X103674502Y-92788180D01*
X103710812Y-92668482D01*
X103723072Y-92544000D01*
X103723072Y-92454000D01*
X106619199Y-92454000D01*
X106661000Y-92495801D01*
X106661000Y-92557939D01*
X106700774Y-92757898D01*
X106778795Y-92946256D01*
X106892063Y-93115774D01*
X107036226Y-93259937D01*
X107205744Y-93373205D01*
X107394102Y-93451226D01*
X107594061Y-93491000D01*
X107797939Y-93491000D01*
X107906460Y-93469414D01*
X119171647Y-93469414D01*
X119171647Y-93673292D01*
X119211421Y-93873251D01*
X119289442Y-94061609D01*
X119402710Y-94231127D01*
X119546873Y-94375290D01*
X119716391Y-94488558D01*
X119904749Y-94566579D01*
X120104708Y-94606353D01*
X120308586Y-94606353D01*
X120508545Y-94566579D01*
X120696903Y-94488558D01*
X120866421Y-94375290D01*
X121010584Y-94231127D01*
X121123852Y-94061609D01*
X121201873Y-93873251D01*
X121241647Y-93673292D01*
X121241647Y-93611154D01*
X121585963Y-93266838D01*
X122324000Y-93266838D01*
X122324000Y-94011161D01*
X122337890Y-94152192D01*
X122392784Y-94333153D01*
X122481927Y-94499928D01*
X122601893Y-94646107D01*
X122748072Y-94766073D01*
X122914846Y-94855216D01*
X123095807Y-94910110D01*
X123284000Y-94928645D01*
X123472192Y-94910110D01*
X123653153Y-94855216D01*
X123819928Y-94766073D01*
X123966107Y-94646107D01*
X124086073Y-94499928D01*
X124175216Y-94333154D01*
X124230110Y-94152193D01*
X124244000Y-94011162D01*
X124244000Y-93266839D01*
X124230110Y-93125807D01*
X124175216Y-92944846D01*
X124086073Y-92778072D01*
X123966107Y-92631893D01*
X123819928Y-92511927D01*
X123653154Y-92422784D01*
X123472193Y-92367890D01*
X123284000Y-92349355D01*
X123095808Y-92367890D01*
X122914847Y-92422784D01*
X122748073Y-92511927D01*
X122601894Y-92631893D01*
X122481928Y-92778072D01*
X122392785Y-92944846D01*
X122337890Y-93125807D01*
X122324000Y-93266838D01*
X121585963Y-93266838D01*
X121697252Y-93155549D01*
X121770056Y-93141068D01*
X121958414Y-93063047D01*
X122127932Y-92949779D01*
X122272095Y-92805616D01*
X122385363Y-92636098D01*
X122463384Y-92447740D01*
X122503158Y-92247781D01*
X122503158Y-92043903D01*
X122463384Y-91843944D01*
X122385363Y-91655586D01*
X122272095Y-91486068D01*
X122127932Y-91341905D01*
X121958414Y-91228637D01*
X121770056Y-91150616D01*
X121570097Y-91110842D01*
X121366219Y-91110842D01*
X121166260Y-91150616D01*
X120977902Y-91228637D01*
X120808384Y-91341905D01*
X120664221Y-91486068D01*
X120550953Y-91655586D01*
X120472932Y-91843944D01*
X120433158Y-92043903D01*
X120433158Y-92247781D01*
X120436851Y-92266347D01*
X120166846Y-92536353D01*
X120104708Y-92536353D01*
X119904749Y-92576127D01*
X119716391Y-92654148D01*
X119546873Y-92767416D01*
X119402710Y-92911579D01*
X119289442Y-93081097D01*
X119211421Y-93269455D01*
X119171647Y-93469414D01*
X107906460Y-93469414D01*
X107997898Y-93451226D01*
X108186256Y-93373205D01*
X108355774Y-93259937D01*
X108499937Y-93115774D01*
X108613205Y-92946256D01*
X108691226Y-92757898D01*
X108731000Y-92557939D01*
X108731000Y-92354061D01*
X108691226Y-92154102D01*
X108613205Y-91965744D01*
X108499937Y-91796226D01*
X108355774Y-91652063D01*
X108186256Y-91538795D01*
X107997898Y-91460774D01*
X107797939Y-91421000D01*
X107735801Y-91421000D01*
X107497803Y-91183002D01*
X107474001Y-91153999D01*
X107358276Y-91059026D01*
X107226247Y-90988454D01*
X107082986Y-90944997D01*
X106971333Y-90934000D01*
X106971322Y-90934000D01*
X106934000Y-90930324D01*
X106896678Y-90934000D01*
X103723072Y-90934000D01*
X103723072Y-90844000D01*
X103710812Y-90719518D01*
X103674502Y-90599820D01*
X103615537Y-90489506D01*
X103536185Y-90392815D01*
X103439494Y-90313463D01*
X103329180Y-90254498D01*
X103209482Y-90218188D01*
X103085000Y-90205928D01*
X101385000Y-90205928D01*
X101260518Y-90218188D01*
X101140820Y-90254498D01*
X101030506Y-90313463D01*
X100933815Y-90392815D01*
X100854463Y-90489506D01*
X100795498Y-90599820D01*
X100773487Y-90672380D01*
X100641632Y-90540525D01*
X100398411Y-90378010D01*
X100128158Y-90266068D01*
X99841260Y-90209000D01*
X99548740Y-90209000D01*
X99261842Y-90266068D01*
X98991589Y-90378010D01*
X98748368Y-90540525D01*
X98541525Y-90747368D01*
X98379010Y-90990589D01*
X98267068Y-91260842D01*
X98210000Y-91547740D01*
X98069000Y-91547740D01*
X98069000Y-86647872D01*
X98857000Y-86647872D01*
X98857000Y-87088128D01*
X98942890Y-87519925D01*
X99111369Y-87926669D01*
X99355962Y-88292729D01*
X99667271Y-88604038D01*
X100033331Y-88848631D01*
X100440075Y-89017110D01*
X100871872Y-89103000D01*
X101312128Y-89103000D01*
X101743925Y-89017110D01*
X102150669Y-88848631D01*
X102516729Y-88604038D01*
X102828038Y-88292729D01*
X103072631Y-87926669D01*
X103241110Y-87519925D01*
X103327000Y-87088128D01*
X103327000Y-86956000D01*
X105445928Y-86956000D01*
X105458188Y-87080482D01*
X105494498Y-87200180D01*
X105553463Y-87310494D01*
X105632815Y-87407185D01*
X105729506Y-87486537D01*
X105839820Y-87545502D01*
X105912380Y-87567513D01*
X105780525Y-87699368D01*
X105618010Y-87942589D01*
X105506068Y-88212842D01*
X105449000Y-88499740D01*
X105449000Y-88792260D01*
X105506068Y-89079158D01*
X105618010Y-89349411D01*
X105780525Y-89592632D01*
X105987368Y-89799475D01*
X106230589Y-89961990D01*
X106500842Y-90073932D01*
X106787740Y-90131000D01*
X107080260Y-90131000D01*
X107367158Y-90073932D01*
X107637411Y-89961990D01*
X107880632Y-89799475D01*
X108087475Y-89592632D01*
X108249990Y-89349411D01*
X108361932Y-89079158D01*
X108419000Y-88792260D01*
X108419000Y-88499740D01*
X108361932Y-88212842D01*
X108249990Y-87942589D01*
X108087475Y-87699368D01*
X107955620Y-87567513D01*
X108028180Y-87545502D01*
X108138494Y-87486537D01*
X108235185Y-87407185D01*
X108314537Y-87310494D01*
X108373502Y-87200180D01*
X108409812Y-87080482D01*
X108422072Y-86956000D01*
X108420395Y-86647872D01*
X121590000Y-86647872D01*
X121590000Y-87088128D01*
X121675890Y-87519925D01*
X121844369Y-87926669D01*
X122088962Y-88292729D01*
X122400271Y-88604038D01*
X122766331Y-88848631D01*
X123173075Y-89017110D01*
X123604872Y-89103000D01*
X124045128Y-89103000D01*
X124476925Y-89017110D01*
X124883669Y-88848631D01*
X125249729Y-88604038D01*
X125561038Y-88292729D01*
X125805631Y-87926669D01*
X125974110Y-87519925D01*
X126060000Y-87088128D01*
X126060000Y-86647872D01*
X125974110Y-86216075D01*
X125805631Y-85809331D01*
X125561038Y-85443271D01*
X125249729Y-85131962D01*
X124883669Y-84887369D01*
X124476925Y-84718890D01*
X124045128Y-84633000D01*
X123604872Y-84633000D01*
X123173075Y-84718890D01*
X122766331Y-84887369D01*
X122400271Y-85131962D01*
X122088962Y-85443271D01*
X121844369Y-85809331D01*
X121675890Y-86216075D01*
X121590000Y-86647872D01*
X108420395Y-86647872D01*
X108419000Y-86391750D01*
X108260250Y-86233000D01*
X107061000Y-86233000D01*
X107061000Y-86253000D01*
X106807000Y-86253000D01*
X106807000Y-86233000D01*
X105607750Y-86233000D01*
X105449000Y-86391750D01*
X105445928Y-86956000D01*
X103327000Y-86956000D01*
X103327000Y-86647872D01*
X103241110Y-86216075D01*
X103072631Y-85809331D01*
X102828038Y-85443271D01*
X102640767Y-85256000D01*
X105445928Y-85256000D01*
X105449000Y-85820250D01*
X105607750Y-85979000D01*
X106807000Y-85979000D01*
X106807000Y-84779750D01*
X107061000Y-84779750D01*
X107061000Y-85979000D01*
X108260250Y-85979000D01*
X108419000Y-85820250D01*
X108422072Y-85256000D01*
X108409812Y-85131518D01*
X108373502Y-85011820D01*
X108314537Y-84901506D01*
X108235185Y-84804815D01*
X108138494Y-84725463D01*
X108028180Y-84666498D01*
X107908482Y-84630188D01*
X107784000Y-84617928D01*
X107219750Y-84621000D01*
X107061000Y-84779750D01*
X106807000Y-84779750D01*
X106648250Y-84621000D01*
X106084000Y-84617928D01*
X105959518Y-84630188D01*
X105839820Y-84666498D01*
X105729506Y-84725463D01*
X105632815Y-84804815D01*
X105553463Y-84901506D01*
X105494498Y-85011820D01*
X105458188Y-85131518D01*
X105445928Y-85256000D01*
X102640767Y-85256000D01*
X102516729Y-85131962D01*
X102150669Y-84887369D01*
X101743925Y-84718890D01*
X101312128Y-84633000D01*
X100871872Y-84633000D01*
X100440075Y-84718890D01*
X100033331Y-84887369D01*
X99667271Y-85131962D01*
X99355962Y-85443271D01*
X99111369Y-85809331D01*
X98942890Y-86216075D01*
X98857000Y-86647872D01*
X98069000Y-86647872D01*
X98069000Y-86011278D01*
X98112746Y-85565119D01*
X98232945Y-85167001D01*
X98428181Y-84799815D01*
X98691022Y-84477541D01*
X99011452Y-84212458D01*
X99377267Y-84014662D01*
X99774537Y-83891686D01*
X100218726Y-83845000D01*
X124681722Y-83845000D01*
X125127881Y-83888746D01*
%TD*%
M02*
