%TF.GenerationSoftware,KiCad,Pcbnew,5.1.5+dfsg1-2build2*%
%TF.CreationDate,2022-11-14T11:38:59+01:00*%
%TF.ProjectId,ebus,65627573-2e6b-4696-9361-645f70636258,rev?*%
%TF.SameCoordinates,Original*%
%TF.FileFunction,Legend,Top*%
%TF.FilePolarity,Positive*%
%FSLAX46Y46*%
G04 Gerber Fmt 4.6, Leading zero omitted, Abs format (unit mm)*
G04 Created by KiCad (PCBNEW 5.1.5+dfsg1-2build2) date 2022-11-14 11:38:59*
%MOMM*%
%LPD*%
G04 APERTURE LIST*
%ADD10C,0.125000*%
%ADD11C,0.200000*%
%ADD12C,0.400000*%
%ADD13C,0.150000*%
G04 APERTURE END LIST*
D10*
X63448428Y-106160142D02*
X63424619Y-106136333D01*
X63400809Y-106064904D01*
X63400809Y-106017285D01*
X63424619Y-105945857D01*
X63472238Y-105898238D01*
X63519857Y-105874428D01*
X63615095Y-105850619D01*
X63686523Y-105850619D01*
X63781761Y-105874428D01*
X63829380Y-105898238D01*
X63877000Y-105945857D01*
X63900809Y-106017285D01*
X63900809Y-106064904D01*
X63877000Y-106136333D01*
X63853190Y-106160142D01*
X63900809Y-106469666D02*
X63900809Y-106564904D01*
X63877000Y-106612523D01*
X63829380Y-106660142D01*
X63734142Y-106683952D01*
X63567476Y-106683952D01*
X63472238Y-106660142D01*
X63424619Y-106612523D01*
X63400809Y-106564904D01*
X63400809Y-106469666D01*
X63424619Y-106422047D01*
X63472238Y-106374428D01*
X63567476Y-106350619D01*
X63734142Y-106350619D01*
X63829380Y-106374428D01*
X63877000Y-106422047D01*
X63900809Y-106469666D01*
X63400809Y-106898238D02*
X63900809Y-106898238D01*
X63543666Y-107064904D01*
X63900809Y-107231571D01*
X63400809Y-107231571D01*
X63400809Y-114712761D02*
X63400809Y-114427047D01*
X63400809Y-114569904D02*
X63900809Y-114569904D01*
X63829380Y-114522285D01*
X63781761Y-114474666D01*
X63757952Y-114427047D01*
X63900809Y-114879428D02*
X63900809Y-115188952D01*
X63710333Y-115022285D01*
X63710333Y-115093714D01*
X63686523Y-115141333D01*
X63662714Y-115165142D01*
X63615095Y-115188952D01*
X63496047Y-115188952D01*
X63448428Y-115165142D01*
X63424619Y-115141333D01*
X63400809Y-115093714D01*
X63400809Y-114950857D01*
X63424619Y-114903238D01*
X63448428Y-114879428D01*
X63400809Y-113315761D02*
X63400809Y-113030047D01*
X63400809Y-113172904D02*
X63900809Y-113172904D01*
X63829380Y-113125285D01*
X63781761Y-113077666D01*
X63757952Y-113030047D01*
X63853190Y-113506238D02*
X63877000Y-113530047D01*
X63900809Y-113577666D01*
X63900809Y-113696714D01*
X63877000Y-113744333D01*
X63853190Y-113768142D01*
X63805571Y-113791952D01*
X63757952Y-113791952D01*
X63686523Y-113768142D01*
X63400809Y-113482428D01*
X63400809Y-113791952D01*
X63400809Y-111918761D02*
X63400809Y-111633047D01*
X63400809Y-111775904D02*
X63900809Y-111775904D01*
X63829380Y-111728285D01*
X63781761Y-111680666D01*
X63757952Y-111633047D01*
X63400809Y-112394952D02*
X63400809Y-112109238D01*
X63400809Y-112252095D02*
X63900809Y-112252095D01*
X63829380Y-112204476D01*
X63781761Y-112156857D01*
X63757952Y-112109238D01*
X63400809Y-110521761D02*
X63400809Y-110236047D01*
X63400809Y-110378904D02*
X63900809Y-110378904D01*
X63829380Y-110331285D01*
X63781761Y-110283666D01*
X63757952Y-110236047D01*
X63900809Y-110831285D02*
X63900809Y-110878904D01*
X63877000Y-110926523D01*
X63853190Y-110950333D01*
X63805571Y-110974142D01*
X63710333Y-110997952D01*
X63591285Y-110997952D01*
X63496047Y-110974142D01*
X63448428Y-110950333D01*
X63424619Y-110926523D01*
X63400809Y-110878904D01*
X63400809Y-110831285D01*
X63424619Y-110783666D01*
X63448428Y-110759857D01*
X63496047Y-110736047D01*
X63591285Y-110712238D01*
X63710333Y-110712238D01*
X63805571Y-110736047D01*
X63853190Y-110759857D01*
X63877000Y-110783666D01*
X63900809Y-110831285D01*
X63400809Y-109251761D02*
X63400809Y-109347000D01*
X63424619Y-109394619D01*
X63448428Y-109418428D01*
X63519857Y-109466047D01*
X63615095Y-109489857D01*
X63805571Y-109489857D01*
X63853190Y-109466047D01*
X63877000Y-109442238D01*
X63900809Y-109394619D01*
X63900809Y-109299380D01*
X63877000Y-109251761D01*
X63853190Y-109227952D01*
X63805571Y-109204142D01*
X63686523Y-109204142D01*
X63638904Y-109227952D01*
X63615095Y-109251761D01*
X63591285Y-109299380D01*
X63591285Y-109394619D01*
X63615095Y-109442238D01*
X63638904Y-109466047D01*
X63686523Y-109489857D01*
X63734142Y-108172238D02*
X63400809Y-108172238D01*
X63924619Y-108053190D02*
X63567476Y-107934142D01*
X63567476Y-108243666D01*
X68599809Y-114260333D02*
X68599809Y-114593666D01*
X68099809Y-114379380D01*
X68599809Y-113252238D02*
X68599809Y-113157000D01*
X68576000Y-113109380D01*
X68552190Y-113085571D01*
X68480761Y-113037952D01*
X68385523Y-113014142D01*
X68195047Y-113014142D01*
X68147428Y-113037952D01*
X68123619Y-113061761D01*
X68099809Y-113109380D01*
X68099809Y-113204619D01*
X68123619Y-113252238D01*
X68147428Y-113276047D01*
X68195047Y-113299857D01*
X68314095Y-113299857D01*
X68361714Y-113276047D01*
X68385523Y-113252238D01*
X68409333Y-113204619D01*
X68409333Y-113109380D01*
X68385523Y-113061761D01*
X68361714Y-113037952D01*
X68314095Y-113014142D01*
X68599809Y-112006047D02*
X68599809Y-111767952D01*
X68361714Y-111744142D01*
X68385523Y-111767952D01*
X68409333Y-111815571D01*
X68409333Y-111934619D01*
X68385523Y-111982238D01*
X68361714Y-112006047D01*
X68314095Y-112029857D01*
X68195047Y-112029857D01*
X68147428Y-112006047D01*
X68123619Y-111982238D01*
X68099809Y-111934619D01*
X68099809Y-111815571D01*
X68123619Y-111767952D01*
X68147428Y-111744142D01*
X68433142Y-110712238D02*
X68099809Y-110712238D01*
X68623619Y-110593190D02*
X68266476Y-110474142D01*
X68266476Y-110783666D01*
X68599809Y-109180333D02*
X68599809Y-109489857D01*
X68409333Y-109323190D01*
X68409333Y-109394619D01*
X68385523Y-109442238D01*
X68361714Y-109466047D01*
X68314095Y-109489857D01*
X68195047Y-109489857D01*
X68147428Y-109466047D01*
X68123619Y-109442238D01*
X68099809Y-109394619D01*
X68099809Y-109251761D01*
X68123619Y-109204142D01*
X68147428Y-109180333D01*
X68099809Y-106949857D02*
X68099809Y-106664142D01*
X68099809Y-106807000D02*
X68599809Y-106807000D01*
X68528380Y-106759380D01*
X68480761Y-106711761D01*
X68456952Y-106664142D01*
D11*
X121927142Y-110684428D02*
X121641428Y-109684428D01*
X121355714Y-110398714D01*
X121070000Y-109684428D01*
X120784285Y-110684428D01*
X120212857Y-109684428D02*
X120212857Y-110684428D01*
X120212857Y-111184428D02*
X120284285Y-111113000D01*
X120212857Y-111041571D01*
X120141428Y-111113000D01*
X120212857Y-111184428D01*
X120212857Y-111041571D01*
X119712857Y-110684428D02*
X119141428Y-110684428D01*
X119498571Y-109684428D02*
X119498571Y-110970142D01*
X119427142Y-111113000D01*
X119284285Y-111184428D01*
X119141428Y-111184428D01*
X118641428Y-109684428D02*
X118641428Y-110684428D01*
X118641428Y-111184428D02*
X118712857Y-111113000D01*
X118641428Y-111041571D01*
X118570000Y-111113000D01*
X118641428Y-111184428D01*
X118641428Y-111041571D01*
X116784285Y-109684428D02*
X116784285Y-110684428D01*
X116784285Y-110541571D02*
X116712857Y-110613000D01*
X116570000Y-110684428D01*
X116355714Y-110684428D01*
X116212857Y-110613000D01*
X116141428Y-110470142D01*
X116141428Y-109684428D01*
X116141428Y-110470142D02*
X116070000Y-110613000D01*
X115927142Y-110684428D01*
X115712857Y-110684428D01*
X115570000Y-110613000D01*
X115498571Y-110470142D01*
X115498571Y-109684428D01*
X114570000Y-109684428D02*
X114712857Y-109755857D01*
X114784285Y-109827285D01*
X114855714Y-109970142D01*
X114855714Y-110398714D01*
X114784285Y-110541571D01*
X114712857Y-110613000D01*
X114570000Y-110684428D01*
X114355714Y-110684428D01*
X114212857Y-110613000D01*
X114141428Y-110541571D01*
X114070000Y-110398714D01*
X114070000Y-109970142D01*
X114141428Y-109827285D01*
X114212857Y-109755857D01*
X114355714Y-109684428D01*
X114570000Y-109684428D01*
X112784285Y-109684428D02*
X112784285Y-111184428D01*
X112784285Y-109755857D02*
X112927142Y-109684428D01*
X113212857Y-109684428D01*
X113355714Y-109755857D01*
X113427142Y-109827285D01*
X113498571Y-109970142D01*
X113498571Y-110398714D01*
X113427142Y-110541571D01*
X113355714Y-110613000D01*
X113212857Y-110684428D01*
X112927142Y-110684428D01*
X112784285Y-110613000D01*
X111427142Y-110684428D02*
X111427142Y-109684428D01*
X112070000Y-110684428D02*
X112070000Y-109898714D01*
X111998571Y-109755857D01*
X111855714Y-109684428D01*
X111641428Y-109684428D01*
X111498571Y-109755857D01*
X111427142Y-109827285D01*
X110498571Y-109684428D02*
X110641428Y-109755857D01*
X110712857Y-109898714D01*
X110712857Y-111184428D01*
X109355714Y-109755857D02*
X109498571Y-109684428D01*
X109784285Y-109684428D01*
X109927142Y-109755857D01*
X109998571Y-109898714D01*
X109998571Y-110470142D01*
X109927142Y-110613000D01*
X109784285Y-110684428D01*
X109498571Y-110684428D01*
X109355714Y-110613000D01*
X109284285Y-110470142D01*
X109284285Y-110327285D01*
X109998571Y-110184428D01*
D12*
X120808095Y-112426952D02*
X121189047Y-112236476D01*
X121950952Y-112236476D01*
X122331904Y-112426952D01*
X122522380Y-112807904D01*
X122522380Y-114331714D01*
X122331904Y-114712666D01*
X121950952Y-114903142D01*
X121189047Y-114903142D01*
X120808095Y-114712666D01*
X120617619Y-114331714D01*
X120617619Y-113950761D01*
X122522380Y-113569809D01*
X117570000Y-114331714D02*
X116998571Y-114141238D01*
X116808095Y-113950761D01*
X116617619Y-113569809D01*
X116617619Y-112998380D01*
X116808095Y-112617428D01*
X116998571Y-112426952D01*
X117379523Y-112236476D01*
X118903333Y-112236476D01*
X118903333Y-116236476D01*
X117570000Y-116236476D01*
X117189047Y-116046000D01*
X116998571Y-115855523D01*
X116808095Y-115474571D01*
X116808095Y-115093619D01*
X116998571Y-114712666D01*
X117189047Y-114522190D01*
X117570000Y-114331714D01*
X118903333Y-114331714D01*
X114903333Y-116236476D02*
X114903333Y-112998380D01*
X114712857Y-112617428D01*
X114522380Y-112426952D01*
X114141428Y-112236476D01*
X113379523Y-112236476D01*
X112998571Y-112426952D01*
X112808095Y-112617428D01*
X112617619Y-112998380D01*
X112617619Y-116236476D01*
X110903333Y-112426952D02*
X110331904Y-112236476D01*
X109379523Y-112236476D01*
X108998571Y-112426952D01*
X108808095Y-112617428D01*
X108617619Y-112998380D01*
X108617619Y-113379333D01*
X108808095Y-113760285D01*
X108998571Y-113950761D01*
X109379523Y-114141238D01*
X110141428Y-114331714D01*
X110522380Y-114522190D01*
X110712857Y-114712666D01*
X110903333Y-115093619D01*
X110903333Y-115474571D01*
X110712857Y-115855523D01*
X110522380Y-116046000D01*
X110141428Y-116236476D01*
X109189047Y-116236476D01*
X108617619Y-116046000D01*
D13*
X63966285Y-121667857D02*
X63216285Y-121667857D01*
X63502000Y-121667857D02*
X63466285Y-121596428D01*
X63466285Y-121453571D01*
X63502000Y-121382142D01*
X63537714Y-121346428D01*
X63609142Y-121310714D01*
X63823428Y-121310714D01*
X63894857Y-121346428D01*
X63930571Y-121382142D01*
X63966285Y-121453571D01*
X63966285Y-121596428D01*
X63930571Y-121667857D01*
X63966285Y-120882142D02*
X63930571Y-120953571D01*
X63859142Y-120989285D01*
X63216285Y-120989285D01*
X63466285Y-120275000D02*
X63966285Y-120275000D01*
X63466285Y-120596428D02*
X63859142Y-120596428D01*
X63930571Y-120560714D01*
X63966285Y-120489285D01*
X63966285Y-120382142D01*
X63930571Y-120310714D01*
X63894857Y-120275000D01*
X63930571Y-119632142D02*
X63966285Y-119703571D01*
X63966285Y-119846428D01*
X63930571Y-119917857D01*
X63859142Y-119953571D01*
X63573428Y-119953571D01*
X63502000Y-119917857D01*
X63466285Y-119846428D01*
X63466285Y-119703571D01*
X63502000Y-119632142D01*
X63573428Y-119596428D01*
X63644857Y-119596428D01*
X63716285Y-119953571D01*
X63466285Y-126783571D02*
X64073428Y-126783571D01*
X64144857Y-126819285D01*
X64180571Y-126855000D01*
X64216285Y-126926428D01*
X64216285Y-127033571D01*
X64180571Y-127105000D01*
X63930571Y-126783571D02*
X63966285Y-126855000D01*
X63966285Y-126997857D01*
X63930571Y-127069285D01*
X63894857Y-127105000D01*
X63823428Y-127140714D01*
X63609142Y-127140714D01*
X63537714Y-127105000D01*
X63502000Y-127069285D01*
X63466285Y-126997857D01*
X63466285Y-126855000D01*
X63502000Y-126783571D01*
X63966285Y-126426428D02*
X63466285Y-126426428D01*
X63609142Y-126426428D02*
X63537714Y-126390714D01*
X63502000Y-126355000D01*
X63466285Y-126283571D01*
X63466285Y-126212142D01*
X63930571Y-125676428D02*
X63966285Y-125747857D01*
X63966285Y-125890714D01*
X63930571Y-125962142D01*
X63859142Y-125997857D01*
X63573428Y-125997857D01*
X63502000Y-125962142D01*
X63466285Y-125890714D01*
X63466285Y-125747857D01*
X63502000Y-125676428D01*
X63573428Y-125640714D01*
X63644857Y-125640714D01*
X63716285Y-125997857D01*
X63930571Y-125033571D02*
X63966285Y-125105000D01*
X63966285Y-125247857D01*
X63930571Y-125319285D01*
X63859142Y-125355000D01*
X63573428Y-125355000D01*
X63502000Y-125319285D01*
X63466285Y-125247857D01*
X63466285Y-125105000D01*
X63502000Y-125033571D01*
X63573428Y-124997857D01*
X63644857Y-124997857D01*
X63716285Y-125355000D01*
X63466285Y-124676428D02*
X63966285Y-124676428D01*
X63537714Y-124676428D02*
X63502000Y-124640714D01*
X63466285Y-124569285D01*
X63466285Y-124462142D01*
X63502000Y-124390714D01*
X63573428Y-124355000D01*
X63966285Y-124355000D01*
X63966285Y-131524285D02*
X63466285Y-131524285D01*
X63609142Y-131524285D02*
X63537714Y-131488571D01*
X63502000Y-131452857D01*
X63466285Y-131381428D01*
X63466285Y-131310000D01*
X63930571Y-130774285D02*
X63966285Y-130845714D01*
X63966285Y-130988571D01*
X63930571Y-131060000D01*
X63859142Y-131095714D01*
X63573428Y-131095714D01*
X63502000Y-131060000D01*
X63466285Y-130988571D01*
X63466285Y-130845714D01*
X63502000Y-130774285D01*
X63573428Y-130738571D01*
X63644857Y-130738571D01*
X63716285Y-131095714D01*
X63966285Y-130095714D02*
X63216285Y-130095714D01*
X63930571Y-130095714D02*
X63966285Y-130167142D01*
X63966285Y-130310000D01*
X63930571Y-130381428D01*
X63894857Y-130417142D01*
X63823428Y-130452857D01*
X63609142Y-130452857D01*
X63537714Y-130417142D01*
X63502000Y-130381428D01*
X63466285Y-130310000D01*
X63466285Y-130167142D01*
X63502000Y-130095714D01*
X63466285Y-137642000D02*
X63966285Y-137463428D01*
X63466285Y-137284857D02*
X63966285Y-137463428D01*
X64144857Y-137534857D01*
X64180571Y-137570571D01*
X64216285Y-137642000D01*
X63930571Y-136713428D02*
X63966285Y-136784857D01*
X63966285Y-136927714D01*
X63930571Y-136999142D01*
X63859142Y-137034857D01*
X63573428Y-137034857D01*
X63502000Y-136999142D01*
X63466285Y-136927714D01*
X63466285Y-136784857D01*
X63502000Y-136713428D01*
X63573428Y-136677714D01*
X63644857Y-136677714D01*
X63716285Y-137034857D01*
X63966285Y-136249142D02*
X63930571Y-136320571D01*
X63859142Y-136356285D01*
X63216285Y-136356285D01*
X63966285Y-135856285D02*
X63930571Y-135927714D01*
X63859142Y-135963428D01*
X63216285Y-135963428D01*
X63966285Y-135463428D02*
X63930571Y-135534857D01*
X63894857Y-135570571D01*
X63823428Y-135606285D01*
X63609142Y-135606285D01*
X63537714Y-135570571D01*
X63502000Y-135534857D01*
X63466285Y-135463428D01*
X63466285Y-135356285D01*
X63502000Y-135284857D01*
X63537714Y-135249142D01*
X63609142Y-135213428D01*
X63823428Y-135213428D01*
X63894857Y-135249142D01*
X63930571Y-135284857D01*
X63966285Y-135356285D01*
X63966285Y-135463428D01*
X63466285Y-134963428D02*
X63966285Y-134820571D01*
X63609142Y-134677714D01*
X63966285Y-134534857D01*
X63466285Y-134392000D01*
D10*
X69593666Y-92600333D02*
X69593666Y-92167000D01*
X69860333Y-92400333D01*
X69860333Y-92300333D01*
X69893666Y-92233666D01*
X69927000Y-92200333D01*
X69993666Y-92167000D01*
X70160333Y-92167000D01*
X70227000Y-92200333D01*
X70260333Y-92233666D01*
X70293666Y-92300333D01*
X70293666Y-92500333D01*
X70260333Y-92567000D01*
X70227000Y-92600333D01*
X70227000Y-91867000D02*
X70260333Y-91833666D01*
X70293666Y-91867000D01*
X70260333Y-91900333D01*
X70227000Y-91867000D01*
X70293666Y-91867000D01*
X69593666Y-91600333D02*
X69593666Y-91167000D01*
X69860333Y-91400333D01*
X69860333Y-91300333D01*
X69893666Y-91233666D01*
X69927000Y-91200333D01*
X69993666Y-91167000D01*
X70160333Y-91167000D01*
X70227000Y-91200333D01*
X70260333Y-91233666D01*
X70293666Y-91300333D01*
X70293666Y-91500333D01*
X70260333Y-91567000D01*
X70227000Y-91600333D01*
X69593666Y-90967000D02*
X70293666Y-90733666D01*
X69593666Y-90500333D01*
D13*
X64070666Y-101970666D02*
X63737333Y-102204000D01*
X64070666Y-102370666D02*
X63370666Y-102370666D01*
X63370666Y-102104000D01*
X63404000Y-102037333D01*
X63437333Y-102004000D01*
X63504000Y-101970666D01*
X63604000Y-101970666D01*
X63670666Y-102004000D01*
X63704000Y-102037333D01*
X63737333Y-102104000D01*
X63737333Y-102370666D01*
X63370666Y-101737333D02*
X64070666Y-101270666D01*
X63370666Y-101270666D02*
X64070666Y-101737333D01*
X63370666Y-99593333D02*
X63370666Y-99193333D01*
X64070666Y-99393333D02*
X63370666Y-99393333D01*
X63370666Y-99026666D02*
X64070666Y-98560000D01*
X63370666Y-98560000D02*
X64070666Y-99026666D01*
X63404000Y-97053333D02*
X63370666Y-97120000D01*
X63370666Y-97220000D01*
X63404000Y-97320000D01*
X63470666Y-97386666D01*
X63537333Y-97420000D01*
X63670666Y-97453333D01*
X63770666Y-97453333D01*
X63904000Y-97420000D01*
X63970666Y-97386666D01*
X64037333Y-97320000D01*
X64070666Y-97220000D01*
X64070666Y-97153333D01*
X64037333Y-97053333D01*
X64004000Y-97020000D01*
X63770666Y-97020000D01*
X63770666Y-97153333D01*
X64070666Y-96720000D02*
X63370666Y-96720000D01*
X64070666Y-96320000D01*
X63370666Y-96320000D01*
X64070666Y-95986666D02*
X63370666Y-95986666D01*
X63370666Y-95820000D01*
X63404000Y-95720000D01*
X63470666Y-95653333D01*
X63537333Y-95620000D01*
X63670666Y-95586666D01*
X63770666Y-95586666D01*
X63904000Y-95620000D01*
X63970666Y-95653333D01*
X64037333Y-95720000D01*
X64070666Y-95820000D01*
X64070666Y-95986666D01*
M02*
