%TF.GenerationSoftware,KiCad,Pcbnew,5.1.5+dfsg1-2build2*%
%TF.CreationDate,2021-11-04T20:17:57+01:00*%
%TF.ProjectId,ebus-esp,65627573-2d65-4737-902e-6b696361645f,rev?*%
%TF.SameCoordinates,Original*%
%TF.FileFunction,Soldermask,Bot*%
%TF.FilePolarity,Negative*%
%FSLAX46Y46*%
G04 Gerber Fmt 4.6, Leading zero omitted, Abs format (unit mm)*
G04 Created by KiCad (PCBNEW 5.1.5+dfsg1-2build2) date 2021-11-04 20:17:57*
%MOMM*%
%LPD*%
G04 APERTURE LIST*
%ADD10C,0.000100*%
%ADD11O,1.800000X1.800000*%
%ADD12R,1.800000X1.800000*%
%ADD13C,0.100000*%
%ADD14C,3.300000*%
%ADD15O,1.650000X0.875000*%
%ADD16R,1.650000X1.600000*%
%ADD17O,0.750000X1.400000*%
%ADD18R,1.450000X0.500000*%
%ADD19R,2.600000X1.100000*%
%ADD20R,1.100000X1.900000*%
%ADD21R,2.100000X1.600000*%
%ADD22R,2.100000X3.900000*%
G04 APERTURE END LIST*
D10*
%TO.C,J2*%
G36*
X126859000Y-99739000D02*
G01*
X126859000Y-98339000D01*
X125109000Y-98339000D01*
X125109000Y-99739000D01*
X125110000Y-99765000D01*
X125112000Y-99791000D01*
X125115000Y-99817000D01*
X125120000Y-99843000D01*
X125126000Y-99868000D01*
X125133000Y-99894000D01*
X125142000Y-99918000D01*
X125152000Y-99942000D01*
X125163000Y-99966000D01*
X125176000Y-99989000D01*
X125190000Y-100011000D01*
X125204000Y-100033000D01*
X125220000Y-100054000D01*
X125237000Y-100074000D01*
X125255000Y-100093000D01*
X125274000Y-100111000D01*
X125294000Y-100128000D01*
X125315000Y-100144000D01*
X125337000Y-100158000D01*
X125359000Y-100172000D01*
X125382000Y-100185000D01*
X125406000Y-100196000D01*
X125430000Y-100206000D01*
X125454000Y-100215000D01*
X125480000Y-100222000D01*
X125505000Y-100228000D01*
X125531000Y-100233000D01*
X125557000Y-100236000D01*
X125583000Y-100238000D01*
X125609000Y-100239000D01*
X126359000Y-100239000D01*
X126385000Y-100238000D01*
X126411000Y-100236000D01*
X126437000Y-100233000D01*
X126463000Y-100228000D01*
X126488000Y-100222000D01*
X126514000Y-100215000D01*
X126538000Y-100206000D01*
X126562000Y-100196000D01*
X126586000Y-100185000D01*
X126609000Y-100172000D01*
X126631000Y-100158000D01*
X126653000Y-100144000D01*
X126674000Y-100128000D01*
X126694000Y-100111000D01*
X126713000Y-100093000D01*
X126731000Y-100074000D01*
X126748000Y-100054000D01*
X126764000Y-100033000D01*
X126778000Y-100011000D01*
X126792000Y-99989000D01*
X126805000Y-99966000D01*
X126816000Y-99942000D01*
X126826000Y-99918000D01*
X126835000Y-99894000D01*
X126842000Y-99868000D01*
X126848000Y-99843000D01*
X126853000Y-99817000D01*
X126856000Y-99791000D01*
X126858000Y-99765000D01*
X126859000Y-99739000D01*
G37*
X126859000Y-99739000D02*
X126859000Y-98339000D01*
X125109000Y-98339000D01*
X125109000Y-99739000D01*
X125110000Y-99765000D01*
X125112000Y-99791000D01*
X125115000Y-99817000D01*
X125120000Y-99843000D01*
X125126000Y-99868000D01*
X125133000Y-99894000D01*
X125142000Y-99918000D01*
X125152000Y-99942000D01*
X125163000Y-99966000D01*
X125176000Y-99989000D01*
X125190000Y-100011000D01*
X125204000Y-100033000D01*
X125220000Y-100054000D01*
X125237000Y-100074000D01*
X125255000Y-100093000D01*
X125274000Y-100111000D01*
X125294000Y-100128000D01*
X125315000Y-100144000D01*
X125337000Y-100158000D01*
X125359000Y-100172000D01*
X125382000Y-100185000D01*
X125406000Y-100196000D01*
X125430000Y-100206000D01*
X125454000Y-100215000D01*
X125480000Y-100222000D01*
X125505000Y-100228000D01*
X125531000Y-100233000D01*
X125557000Y-100236000D01*
X125583000Y-100238000D01*
X125609000Y-100239000D01*
X126359000Y-100239000D01*
X126385000Y-100238000D01*
X126411000Y-100236000D01*
X126437000Y-100233000D01*
X126463000Y-100228000D01*
X126488000Y-100222000D01*
X126514000Y-100215000D01*
X126538000Y-100206000D01*
X126562000Y-100196000D01*
X126586000Y-100185000D01*
X126609000Y-100172000D01*
X126631000Y-100158000D01*
X126653000Y-100144000D01*
X126674000Y-100128000D01*
X126694000Y-100111000D01*
X126713000Y-100093000D01*
X126731000Y-100074000D01*
X126748000Y-100054000D01*
X126764000Y-100033000D01*
X126778000Y-100011000D01*
X126792000Y-99989000D01*
X126805000Y-99966000D01*
X126816000Y-99942000D01*
X126826000Y-99918000D01*
X126835000Y-99894000D01*
X126842000Y-99868000D01*
X126848000Y-99843000D01*
X126853000Y-99817000D01*
X126856000Y-99791000D01*
X126858000Y-99765000D01*
X126859000Y-99739000D01*
G36*
X125109000Y-92539000D02*
G01*
X125109000Y-93939000D01*
X126859000Y-93939000D01*
X126859000Y-92539000D01*
X126858000Y-92513000D01*
X126856000Y-92487000D01*
X126853000Y-92461000D01*
X126848000Y-92435000D01*
X126842000Y-92410000D01*
X126835000Y-92384000D01*
X126826000Y-92360000D01*
X126816000Y-92336000D01*
X126805000Y-92312000D01*
X126792000Y-92289000D01*
X126778000Y-92267000D01*
X126764000Y-92245000D01*
X126748000Y-92224000D01*
X126731000Y-92204000D01*
X126713000Y-92185000D01*
X126694000Y-92167000D01*
X126674000Y-92150000D01*
X126653000Y-92134000D01*
X126631000Y-92120000D01*
X126609000Y-92106000D01*
X126586000Y-92093000D01*
X126562000Y-92082000D01*
X126538000Y-92072000D01*
X126514000Y-92063000D01*
X126488000Y-92056000D01*
X126463000Y-92050000D01*
X126437000Y-92045000D01*
X126411000Y-92042000D01*
X126385000Y-92040000D01*
X126359000Y-92039000D01*
X125609000Y-92039000D01*
X125583000Y-92040000D01*
X125557000Y-92042000D01*
X125531000Y-92045000D01*
X125505000Y-92050000D01*
X125480000Y-92056000D01*
X125454000Y-92063000D01*
X125430000Y-92072000D01*
X125406000Y-92082000D01*
X125382000Y-92093000D01*
X125359000Y-92106000D01*
X125337000Y-92120000D01*
X125315000Y-92134000D01*
X125294000Y-92150000D01*
X125274000Y-92167000D01*
X125255000Y-92185000D01*
X125237000Y-92204000D01*
X125220000Y-92224000D01*
X125204000Y-92245000D01*
X125190000Y-92267000D01*
X125176000Y-92289000D01*
X125163000Y-92312000D01*
X125152000Y-92336000D01*
X125142000Y-92360000D01*
X125133000Y-92384000D01*
X125126000Y-92410000D01*
X125120000Y-92435000D01*
X125115000Y-92461000D01*
X125112000Y-92487000D01*
X125110000Y-92513000D01*
X125109000Y-92539000D01*
G37*
X125109000Y-92539000D02*
X125109000Y-93939000D01*
X126859000Y-93939000D01*
X126859000Y-92539000D01*
X126858000Y-92513000D01*
X126856000Y-92487000D01*
X126853000Y-92461000D01*
X126848000Y-92435000D01*
X126842000Y-92410000D01*
X126835000Y-92384000D01*
X126826000Y-92360000D01*
X126816000Y-92336000D01*
X126805000Y-92312000D01*
X126792000Y-92289000D01*
X126778000Y-92267000D01*
X126764000Y-92245000D01*
X126748000Y-92224000D01*
X126731000Y-92204000D01*
X126713000Y-92185000D01*
X126694000Y-92167000D01*
X126674000Y-92150000D01*
X126653000Y-92134000D01*
X126631000Y-92120000D01*
X126609000Y-92106000D01*
X126586000Y-92093000D01*
X126562000Y-92082000D01*
X126538000Y-92072000D01*
X126514000Y-92063000D01*
X126488000Y-92056000D01*
X126463000Y-92050000D01*
X126437000Y-92045000D01*
X126411000Y-92042000D01*
X126385000Y-92040000D01*
X126359000Y-92039000D01*
X125609000Y-92039000D01*
X125583000Y-92040000D01*
X125557000Y-92042000D01*
X125531000Y-92045000D01*
X125505000Y-92050000D01*
X125480000Y-92056000D01*
X125454000Y-92063000D01*
X125430000Y-92072000D01*
X125406000Y-92082000D01*
X125382000Y-92093000D01*
X125359000Y-92106000D01*
X125337000Y-92120000D01*
X125315000Y-92134000D01*
X125294000Y-92150000D01*
X125274000Y-92167000D01*
X125255000Y-92185000D01*
X125237000Y-92204000D01*
X125220000Y-92224000D01*
X125204000Y-92245000D01*
X125190000Y-92267000D01*
X125176000Y-92289000D01*
X125163000Y-92312000D01*
X125152000Y-92336000D01*
X125142000Y-92360000D01*
X125133000Y-92384000D01*
X125126000Y-92410000D01*
X125120000Y-92435000D01*
X125115000Y-92461000D01*
X125112000Y-92487000D01*
X125110000Y-92513000D01*
X125109000Y-92539000D01*
%TD*%
D11*
%TO.C,J7*%
X99695000Y-101854000D03*
X102235000Y-101854000D03*
X99695000Y-99314000D03*
X102235000Y-99314000D03*
X99695000Y-96774000D03*
X102235000Y-96774000D03*
X99695000Y-94234000D03*
X102235000Y-94234000D03*
X99695000Y-91694000D03*
D12*
X102235000Y-91694000D03*
%TD*%
D13*
%TO.C,R21*%
G36*
X124633465Y-124805300D02*
G01*
X124659674Y-124809188D01*
X124685377Y-124815626D01*
X124710325Y-124824553D01*
X124734277Y-124835881D01*
X124757004Y-124849503D01*
X124778286Y-124865287D01*
X124797919Y-124883081D01*
X124815713Y-124902714D01*
X124831497Y-124923996D01*
X124845119Y-124946723D01*
X124856447Y-124970675D01*
X124865374Y-124995623D01*
X124871812Y-125021326D01*
X124875700Y-125047535D01*
X124877000Y-125074000D01*
X124877000Y-125884000D01*
X124875700Y-125910465D01*
X124871812Y-125936674D01*
X124865374Y-125962377D01*
X124856447Y-125987325D01*
X124845119Y-126011277D01*
X124831497Y-126034004D01*
X124815713Y-126055286D01*
X124797919Y-126074919D01*
X124778286Y-126092713D01*
X124757004Y-126108497D01*
X124734277Y-126122119D01*
X124710325Y-126133447D01*
X124685377Y-126142374D01*
X124659674Y-126148812D01*
X124633465Y-126152700D01*
X124607000Y-126154000D01*
X123297000Y-126154000D01*
X123270535Y-126152700D01*
X123244326Y-126148812D01*
X123218623Y-126142374D01*
X123193675Y-126133447D01*
X123169723Y-126122119D01*
X123146996Y-126108497D01*
X123125714Y-126092713D01*
X123106081Y-126074919D01*
X123088287Y-126055286D01*
X123072503Y-126034004D01*
X123058881Y-126011277D01*
X123047553Y-125987325D01*
X123038626Y-125962377D01*
X123032188Y-125936674D01*
X123028300Y-125910465D01*
X123027000Y-125884000D01*
X123027000Y-125074000D01*
X123028300Y-125047535D01*
X123032188Y-125021326D01*
X123038626Y-124995623D01*
X123047553Y-124970675D01*
X123058881Y-124946723D01*
X123072503Y-124923996D01*
X123088287Y-124902714D01*
X123106081Y-124883081D01*
X123125714Y-124865287D01*
X123146996Y-124849503D01*
X123169723Y-124835881D01*
X123193675Y-124824553D01*
X123218623Y-124815626D01*
X123244326Y-124809188D01*
X123270535Y-124805300D01*
X123297000Y-124804000D01*
X124607000Y-124804000D01*
X124633465Y-124805300D01*
G37*
G36*
X124633465Y-122005300D02*
G01*
X124659674Y-122009188D01*
X124685377Y-122015626D01*
X124710325Y-122024553D01*
X124734277Y-122035881D01*
X124757004Y-122049503D01*
X124778286Y-122065287D01*
X124797919Y-122083081D01*
X124815713Y-122102714D01*
X124831497Y-122123996D01*
X124845119Y-122146723D01*
X124856447Y-122170675D01*
X124865374Y-122195623D01*
X124871812Y-122221326D01*
X124875700Y-122247535D01*
X124877000Y-122274000D01*
X124877000Y-123084000D01*
X124875700Y-123110465D01*
X124871812Y-123136674D01*
X124865374Y-123162377D01*
X124856447Y-123187325D01*
X124845119Y-123211277D01*
X124831497Y-123234004D01*
X124815713Y-123255286D01*
X124797919Y-123274919D01*
X124778286Y-123292713D01*
X124757004Y-123308497D01*
X124734277Y-123322119D01*
X124710325Y-123333447D01*
X124685377Y-123342374D01*
X124659674Y-123348812D01*
X124633465Y-123352700D01*
X124607000Y-123354000D01*
X123297000Y-123354000D01*
X123270535Y-123352700D01*
X123244326Y-123348812D01*
X123218623Y-123342374D01*
X123193675Y-123333447D01*
X123169723Y-123322119D01*
X123146996Y-123308497D01*
X123125714Y-123292713D01*
X123106081Y-123274919D01*
X123088287Y-123255286D01*
X123072503Y-123234004D01*
X123058881Y-123211277D01*
X123047553Y-123187325D01*
X123038626Y-123162377D01*
X123032188Y-123136674D01*
X123028300Y-123110465D01*
X123027000Y-123084000D01*
X123027000Y-122274000D01*
X123028300Y-122247535D01*
X123032188Y-122221326D01*
X123038626Y-122195623D01*
X123047553Y-122170675D01*
X123058881Y-122146723D01*
X123072503Y-122123996D01*
X123088287Y-122102714D01*
X123106081Y-122083081D01*
X123125714Y-122065287D01*
X123146996Y-122049503D01*
X123169723Y-122035881D01*
X123193675Y-122024553D01*
X123218623Y-122015626D01*
X123244326Y-122009188D01*
X123270535Y-122005300D01*
X123297000Y-122004000D01*
X124607000Y-122004000D01*
X124633465Y-122005300D01*
G37*
%TD*%
D14*
%TO.C,H8*%
X101092000Y-144653000D03*
%TD*%
%TO.C,H7*%
X101092000Y-86868000D03*
%TD*%
%TO.C,H6*%
X123825000Y-144653000D03*
%TD*%
%TO.C,H5*%
X123825000Y-86868000D03*
%TD*%
D15*
%TO.C,J2*%
X125984000Y-99639000D03*
D16*
X125984000Y-97139000D03*
X125984000Y-95139000D03*
D15*
X125984000Y-92639000D03*
D17*
X123284000Y-98639000D03*
X123284000Y-93639000D03*
D18*
X123284000Y-97439000D03*
X123284000Y-96789000D03*
X123284000Y-96139000D03*
X123284000Y-95489000D03*
X123284000Y-94839000D03*
%TD*%
D19*
%TO.C,U6*%
X120122000Y-139720200D03*
X120122000Y-137720200D03*
X120122000Y-135720200D03*
X120122000Y-133720200D03*
X120122000Y-131720200D03*
X120122000Y-129720200D03*
X120122000Y-127720200D03*
X120122000Y-125720200D03*
D20*
X117522000Y-124220200D03*
X115522000Y-124220200D03*
X113522000Y-124220200D03*
X111522000Y-124220200D03*
X109522000Y-124220200D03*
X107522000Y-124220200D03*
D19*
X104922000Y-125720200D03*
X104922000Y-127720200D03*
X104922000Y-129720200D03*
X104922000Y-131720200D03*
X104922000Y-133720200D03*
X104922000Y-135720200D03*
X104922000Y-137720200D03*
X104922000Y-139720200D03*
%TD*%
D21*
%TO.C,U5*%
X117780200Y-84949000D03*
X117780200Y-89549000D03*
X117780200Y-87249000D03*
D22*
X111480200Y-87249000D03*
%TD*%
D13*
%TO.C,R20*%
G36*
X124633465Y-133435300D02*
G01*
X124659674Y-133439188D01*
X124685377Y-133445626D01*
X124710325Y-133454553D01*
X124734277Y-133465881D01*
X124757004Y-133479503D01*
X124778286Y-133495287D01*
X124797919Y-133513081D01*
X124815713Y-133532714D01*
X124831497Y-133553996D01*
X124845119Y-133576723D01*
X124856447Y-133600675D01*
X124865374Y-133625623D01*
X124871812Y-133651326D01*
X124875700Y-133677535D01*
X124877000Y-133704000D01*
X124877000Y-134514000D01*
X124875700Y-134540465D01*
X124871812Y-134566674D01*
X124865374Y-134592377D01*
X124856447Y-134617325D01*
X124845119Y-134641277D01*
X124831497Y-134664004D01*
X124815713Y-134685286D01*
X124797919Y-134704919D01*
X124778286Y-134722713D01*
X124757004Y-134738497D01*
X124734277Y-134752119D01*
X124710325Y-134763447D01*
X124685377Y-134772374D01*
X124659674Y-134778812D01*
X124633465Y-134782700D01*
X124607000Y-134784000D01*
X123297000Y-134784000D01*
X123270535Y-134782700D01*
X123244326Y-134778812D01*
X123218623Y-134772374D01*
X123193675Y-134763447D01*
X123169723Y-134752119D01*
X123146996Y-134738497D01*
X123125714Y-134722713D01*
X123106081Y-134704919D01*
X123088287Y-134685286D01*
X123072503Y-134664004D01*
X123058881Y-134641277D01*
X123047553Y-134617325D01*
X123038626Y-134592377D01*
X123032188Y-134566674D01*
X123028300Y-134540465D01*
X123027000Y-134514000D01*
X123027000Y-133704000D01*
X123028300Y-133677535D01*
X123032188Y-133651326D01*
X123038626Y-133625623D01*
X123047553Y-133600675D01*
X123058881Y-133576723D01*
X123072503Y-133553996D01*
X123088287Y-133532714D01*
X123106081Y-133513081D01*
X123125714Y-133495287D01*
X123146996Y-133479503D01*
X123169723Y-133465881D01*
X123193675Y-133454553D01*
X123218623Y-133445626D01*
X123244326Y-133439188D01*
X123270535Y-133435300D01*
X123297000Y-133434000D01*
X124607000Y-133434000D01*
X124633465Y-133435300D01*
G37*
G36*
X124633465Y-136235300D02*
G01*
X124659674Y-136239188D01*
X124685377Y-136245626D01*
X124710325Y-136254553D01*
X124734277Y-136265881D01*
X124757004Y-136279503D01*
X124778286Y-136295287D01*
X124797919Y-136313081D01*
X124815713Y-136332714D01*
X124831497Y-136353996D01*
X124845119Y-136376723D01*
X124856447Y-136400675D01*
X124865374Y-136425623D01*
X124871812Y-136451326D01*
X124875700Y-136477535D01*
X124877000Y-136504000D01*
X124877000Y-137314000D01*
X124875700Y-137340465D01*
X124871812Y-137366674D01*
X124865374Y-137392377D01*
X124856447Y-137417325D01*
X124845119Y-137441277D01*
X124831497Y-137464004D01*
X124815713Y-137485286D01*
X124797919Y-137504919D01*
X124778286Y-137522713D01*
X124757004Y-137538497D01*
X124734277Y-137552119D01*
X124710325Y-137563447D01*
X124685377Y-137572374D01*
X124659674Y-137578812D01*
X124633465Y-137582700D01*
X124607000Y-137584000D01*
X123297000Y-137584000D01*
X123270535Y-137582700D01*
X123244326Y-137578812D01*
X123218623Y-137572374D01*
X123193675Y-137563447D01*
X123169723Y-137552119D01*
X123146996Y-137538497D01*
X123125714Y-137522713D01*
X123106081Y-137504919D01*
X123088287Y-137485286D01*
X123072503Y-137464004D01*
X123058881Y-137441277D01*
X123047553Y-137417325D01*
X123038626Y-137392377D01*
X123032188Y-137366674D01*
X123028300Y-137340465D01*
X123027000Y-137314000D01*
X123027000Y-136504000D01*
X123028300Y-136477535D01*
X123032188Y-136451326D01*
X123038626Y-136425623D01*
X123047553Y-136400675D01*
X123058881Y-136376723D01*
X123072503Y-136353996D01*
X123088287Y-136332714D01*
X123106081Y-136313081D01*
X123125714Y-136295287D01*
X123146996Y-136279503D01*
X123169723Y-136265881D01*
X123193675Y-136254553D01*
X123218623Y-136245626D01*
X123244326Y-136239188D01*
X123270535Y-136235300D01*
X123297000Y-136234000D01*
X124607000Y-136234000D01*
X124633465Y-136235300D01*
G37*
%TD*%
%TO.C,R18*%
G36*
X124633465Y-130647300D02*
G01*
X124659674Y-130651188D01*
X124685377Y-130657626D01*
X124710325Y-130666553D01*
X124734277Y-130677881D01*
X124757004Y-130691503D01*
X124778286Y-130707287D01*
X124797919Y-130725081D01*
X124815713Y-130744714D01*
X124831497Y-130765996D01*
X124845119Y-130788723D01*
X124856447Y-130812675D01*
X124865374Y-130837623D01*
X124871812Y-130863326D01*
X124875700Y-130889535D01*
X124877000Y-130916000D01*
X124877000Y-131726000D01*
X124875700Y-131752465D01*
X124871812Y-131778674D01*
X124865374Y-131804377D01*
X124856447Y-131829325D01*
X124845119Y-131853277D01*
X124831497Y-131876004D01*
X124815713Y-131897286D01*
X124797919Y-131916919D01*
X124778286Y-131934713D01*
X124757004Y-131950497D01*
X124734277Y-131964119D01*
X124710325Y-131975447D01*
X124685377Y-131984374D01*
X124659674Y-131990812D01*
X124633465Y-131994700D01*
X124607000Y-131996000D01*
X123297000Y-131996000D01*
X123270535Y-131994700D01*
X123244326Y-131990812D01*
X123218623Y-131984374D01*
X123193675Y-131975447D01*
X123169723Y-131964119D01*
X123146996Y-131950497D01*
X123125714Y-131934713D01*
X123106081Y-131916919D01*
X123088287Y-131897286D01*
X123072503Y-131876004D01*
X123058881Y-131853277D01*
X123047553Y-131829325D01*
X123038626Y-131804377D01*
X123032188Y-131778674D01*
X123028300Y-131752465D01*
X123027000Y-131726000D01*
X123027000Y-130916000D01*
X123028300Y-130889535D01*
X123032188Y-130863326D01*
X123038626Y-130837623D01*
X123047553Y-130812675D01*
X123058881Y-130788723D01*
X123072503Y-130765996D01*
X123088287Y-130744714D01*
X123106081Y-130725081D01*
X123125714Y-130707287D01*
X123146996Y-130691503D01*
X123169723Y-130677881D01*
X123193675Y-130666553D01*
X123218623Y-130657626D01*
X123244326Y-130651188D01*
X123270535Y-130647300D01*
X123297000Y-130646000D01*
X124607000Y-130646000D01*
X124633465Y-130647300D01*
G37*
G36*
X124633465Y-127847300D02*
G01*
X124659674Y-127851188D01*
X124685377Y-127857626D01*
X124710325Y-127866553D01*
X124734277Y-127877881D01*
X124757004Y-127891503D01*
X124778286Y-127907287D01*
X124797919Y-127925081D01*
X124815713Y-127944714D01*
X124831497Y-127965996D01*
X124845119Y-127988723D01*
X124856447Y-128012675D01*
X124865374Y-128037623D01*
X124871812Y-128063326D01*
X124875700Y-128089535D01*
X124877000Y-128116000D01*
X124877000Y-128926000D01*
X124875700Y-128952465D01*
X124871812Y-128978674D01*
X124865374Y-129004377D01*
X124856447Y-129029325D01*
X124845119Y-129053277D01*
X124831497Y-129076004D01*
X124815713Y-129097286D01*
X124797919Y-129116919D01*
X124778286Y-129134713D01*
X124757004Y-129150497D01*
X124734277Y-129164119D01*
X124710325Y-129175447D01*
X124685377Y-129184374D01*
X124659674Y-129190812D01*
X124633465Y-129194700D01*
X124607000Y-129196000D01*
X123297000Y-129196000D01*
X123270535Y-129194700D01*
X123244326Y-129190812D01*
X123218623Y-129184374D01*
X123193675Y-129175447D01*
X123169723Y-129164119D01*
X123146996Y-129150497D01*
X123125714Y-129134713D01*
X123106081Y-129116919D01*
X123088287Y-129097286D01*
X123072503Y-129076004D01*
X123058881Y-129053277D01*
X123047553Y-129029325D01*
X123038626Y-129004377D01*
X123032188Y-128978674D01*
X123028300Y-128952465D01*
X123027000Y-128926000D01*
X123027000Y-128116000D01*
X123028300Y-128089535D01*
X123032188Y-128063326D01*
X123038626Y-128037623D01*
X123047553Y-128012675D01*
X123058881Y-127988723D01*
X123072503Y-127965996D01*
X123088287Y-127944714D01*
X123106081Y-127925081D01*
X123125714Y-127907287D01*
X123146996Y-127891503D01*
X123169723Y-127877881D01*
X123193675Y-127866553D01*
X123218623Y-127857626D01*
X123244326Y-127851188D01*
X123270535Y-127847300D01*
X123297000Y-127846000D01*
X124607000Y-127846000D01*
X124633465Y-127847300D01*
G37*
%TD*%
D11*
%TO.C,J6*%
X106934000Y-88646000D03*
D12*
X106934000Y-86106000D03*
%TD*%
D11*
%TO.C,J5*%
X99949000Y-137541000D03*
X99949000Y-135001000D03*
X99949000Y-132461000D03*
X99949000Y-129921000D03*
X99949000Y-127381000D03*
D12*
X99949000Y-124841000D03*
%TD*%
D11*
%TO.C,J4*%
X99822000Y-120269000D03*
X99822000Y-117729000D03*
X99822000Y-115189000D03*
X99822000Y-112649000D03*
X99822000Y-110109000D03*
D12*
X99822000Y-107569000D03*
%TD*%
D13*
%TO.C,C5*%
G36*
X116459811Y-96061479D02*
G01*
X116485596Y-96065304D01*
X116510882Y-96071638D01*
X116535425Y-96080419D01*
X116558990Y-96091565D01*
X116581348Y-96104966D01*
X116602286Y-96120494D01*
X116621600Y-96138000D01*
X116639106Y-96157314D01*
X116654634Y-96178252D01*
X116668035Y-96200610D01*
X116679181Y-96224175D01*
X116687962Y-96248718D01*
X116694296Y-96274004D01*
X116698121Y-96299789D01*
X116699400Y-96325825D01*
X116699400Y-99394575D01*
X116698121Y-99420611D01*
X116694296Y-99446396D01*
X116687962Y-99471682D01*
X116679181Y-99496225D01*
X116668035Y-99519790D01*
X116654634Y-99542148D01*
X116639106Y-99563086D01*
X116621600Y-99582400D01*
X116602286Y-99599906D01*
X116581348Y-99615434D01*
X116558990Y-99628835D01*
X116535425Y-99639981D01*
X116510882Y-99648762D01*
X116485596Y-99655096D01*
X116459811Y-99658921D01*
X116433775Y-99660200D01*
X115265025Y-99660200D01*
X115238989Y-99658921D01*
X115213204Y-99655096D01*
X115187918Y-99648762D01*
X115163375Y-99639981D01*
X115139810Y-99628835D01*
X115117452Y-99615434D01*
X115096514Y-99599906D01*
X115077200Y-99582400D01*
X115059694Y-99563086D01*
X115044166Y-99542148D01*
X115030765Y-99519790D01*
X115019619Y-99496225D01*
X115010838Y-99471682D01*
X115004504Y-99446396D01*
X115000679Y-99420611D01*
X114999400Y-99394575D01*
X114999400Y-96325825D01*
X115000679Y-96299789D01*
X115004504Y-96274004D01*
X115010838Y-96248718D01*
X115019619Y-96224175D01*
X115030765Y-96200610D01*
X115044166Y-96178252D01*
X115059694Y-96157314D01*
X115077200Y-96138000D01*
X115096514Y-96120494D01*
X115117452Y-96104966D01*
X115139810Y-96091565D01*
X115163375Y-96080419D01*
X115187918Y-96071638D01*
X115213204Y-96065304D01*
X115238989Y-96061479D01*
X115265025Y-96060200D01*
X116433775Y-96060200D01*
X116459811Y-96061479D01*
G37*
G36*
X116459811Y-101661479D02*
G01*
X116485596Y-101665304D01*
X116510882Y-101671638D01*
X116535425Y-101680419D01*
X116558990Y-101691565D01*
X116581348Y-101704966D01*
X116602286Y-101720494D01*
X116621600Y-101738000D01*
X116639106Y-101757314D01*
X116654634Y-101778252D01*
X116668035Y-101800610D01*
X116679181Y-101824175D01*
X116687962Y-101848718D01*
X116694296Y-101874004D01*
X116698121Y-101899789D01*
X116699400Y-101925825D01*
X116699400Y-104994575D01*
X116698121Y-105020611D01*
X116694296Y-105046396D01*
X116687962Y-105071682D01*
X116679181Y-105096225D01*
X116668035Y-105119790D01*
X116654634Y-105142148D01*
X116639106Y-105163086D01*
X116621600Y-105182400D01*
X116602286Y-105199906D01*
X116581348Y-105215434D01*
X116558990Y-105228835D01*
X116535425Y-105239981D01*
X116510882Y-105248762D01*
X116485596Y-105255096D01*
X116459811Y-105258921D01*
X116433775Y-105260200D01*
X115265025Y-105260200D01*
X115238989Y-105258921D01*
X115213204Y-105255096D01*
X115187918Y-105248762D01*
X115163375Y-105239981D01*
X115139810Y-105228835D01*
X115117452Y-105215434D01*
X115096514Y-105199906D01*
X115077200Y-105182400D01*
X115059694Y-105163086D01*
X115044166Y-105142148D01*
X115030765Y-105119790D01*
X115019619Y-105096225D01*
X115010838Y-105071682D01*
X115004504Y-105046396D01*
X115000679Y-105020611D01*
X114999400Y-104994575D01*
X114999400Y-101925825D01*
X115000679Y-101899789D01*
X115004504Y-101874004D01*
X115010838Y-101848718D01*
X115019619Y-101824175D01*
X115030765Y-101800610D01*
X115044166Y-101778252D01*
X115059694Y-101757314D01*
X115077200Y-101738000D01*
X115096514Y-101720494D01*
X115117452Y-101704966D01*
X115139810Y-101691565D01*
X115163375Y-101680419D01*
X115187918Y-101671638D01*
X115213204Y-101665304D01*
X115238989Y-101661479D01*
X115265025Y-101660200D01*
X116433775Y-101660200D01*
X116459811Y-101661479D01*
G37*
%TD*%
%TO.C,C4*%
G36*
X112575465Y-92802300D02*
G01*
X112601674Y-92806188D01*
X112627377Y-92812626D01*
X112652325Y-92821553D01*
X112676277Y-92832881D01*
X112699004Y-92846503D01*
X112720286Y-92862287D01*
X112739919Y-92880081D01*
X112757713Y-92899714D01*
X112773497Y-92920996D01*
X112787119Y-92943723D01*
X112798447Y-92967675D01*
X112807374Y-92992623D01*
X112813812Y-93018326D01*
X112817700Y-93044535D01*
X112819000Y-93071000D01*
X112819000Y-94381000D01*
X112817700Y-94407465D01*
X112813812Y-94433674D01*
X112807374Y-94459377D01*
X112798447Y-94484325D01*
X112787119Y-94508277D01*
X112773497Y-94531004D01*
X112757713Y-94552286D01*
X112739919Y-94571919D01*
X112720286Y-94589713D01*
X112699004Y-94605497D01*
X112676277Y-94619119D01*
X112652325Y-94630447D01*
X112627377Y-94639374D01*
X112601674Y-94645812D01*
X112575465Y-94649700D01*
X112549000Y-94651000D01*
X111739000Y-94651000D01*
X111712535Y-94649700D01*
X111686326Y-94645812D01*
X111660623Y-94639374D01*
X111635675Y-94630447D01*
X111611723Y-94619119D01*
X111588996Y-94605497D01*
X111567714Y-94589713D01*
X111548081Y-94571919D01*
X111530287Y-94552286D01*
X111514503Y-94531004D01*
X111500881Y-94508277D01*
X111489553Y-94484325D01*
X111480626Y-94459377D01*
X111474188Y-94433674D01*
X111470300Y-94407465D01*
X111469000Y-94381000D01*
X111469000Y-93071000D01*
X111470300Y-93044535D01*
X111474188Y-93018326D01*
X111480626Y-92992623D01*
X111489553Y-92967675D01*
X111500881Y-92943723D01*
X111514503Y-92920996D01*
X111530287Y-92899714D01*
X111548081Y-92880081D01*
X111567714Y-92862287D01*
X111588996Y-92846503D01*
X111611723Y-92832881D01*
X111635675Y-92821553D01*
X111660623Y-92812626D01*
X111686326Y-92806188D01*
X111712535Y-92802300D01*
X111739000Y-92801000D01*
X112549000Y-92801000D01*
X112575465Y-92802300D01*
G37*
G36*
X109775465Y-92802300D02*
G01*
X109801674Y-92806188D01*
X109827377Y-92812626D01*
X109852325Y-92821553D01*
X109876277Y-92832881D01*
X109899004Y-92846503D01*
X109920286Y-92862287D01*
X109939919Y-92880081D01*
X109957713Y-92899714D01*
X109973497Y-92920996D01*
X109987119Y-92943723D01*
X109998447Y-92967675D01*
X110007374Y-92992623D01*
X110013812Y-93018326D01*
X110017700Y-93044535D01*
X110019000Y-93071000D01*
X110019000Y-94381000D01*
X110017700Y-94407465D01*
X110013812Y-94433674D01*
X110007374Y-94459377D01*
X109998447Y-94484325D01*
X109987119Y-94508277D01*
X109973497Y-94531004D01*
X109957713Y-94552286D01*
X109939919Y-94571919D01*
X109920286Y-94589713D01*
X109899004Y-94605497D01*
X109876277Y-94619119D01*
X109852325Y-94630447D01*
X109827377Y-94639374D01*
X109801674Y-94645812D01*
X109775465Y-94649700D01*
X109749000Y-94651000D01*
X108939000Y-94651000D01*
X108912535Y-94649700D01*
X108886326Y-94645812D01*
X108860623Y-94639374D01*
X108835675Y-94630447D01*
X108811723Y-94619119D01*
X108788996Y-94605497D01*
X108767714Y-94589713D01*
X108748081Y-94571919D01*
X108730287Y-94552286D01*
X108714503Y-94531004D01*
X108700881Y-94508277D01*
X108689553Y-94484325D01*
X108680626Y-94459377D01*
X108674188Y-94433674D01*
X108670300Y-94407465D01*
X108669000Y-94381000D01*
X108669000Y-93071000D01*
X108670300Y-93044535D01*
X108674188Y-93018326D01*
X108680626Y-92992623D01*
X108689553Y-92967675D01*
X108700881Y-92943723D01*
X108714503Y-92920996D01*
X108730287Y-92899714D01*
X108748081Y-92880081D01*
X108767714Y-92862287D01*
X108788996Y-92846503D01*
X108811723Y-92832881D01*
X108835675Y-92821553D01*
X108860623Y-92812626D01*
X108886326Y-92806188D01*
X108912535Y-92802300D01*
X108939000Y-92801000D01*
X109749000Y-92801000D01*
X109775465Y-92802300D01*
G37*
%TD*%
%TO.C,C3*%
G36*
X109144611Y-96061479D02*
G01*
X109170396Y-96065304D01*
X109195682Y-96071638D01*
X109220225Y-96080419D01*
X109243790Y-96091565D01*
X109266148Y-96104966D01*
X109287086Y-96120494D01*
X109306400Y-96138000D01*
X109323906Y-96157314D01*
X109339434Y-96178252D01*
X109352835Y-96200610D01*
X109363981Y-96224175D01*
X109372762Y-96248718D01*
X109379096Y-96274004D01*
X109382921Y-96299789D01*
X109384200Y-96325825D01*
X109384200Y-99394575D01*
X109382921Y-99420611D01*
X109379096Y-99446396D01*
X109372762Y-99471682D01*
X109363981Y-99496225D01*
X109352835Y-99519790D01*
X109339434Y-99542148D01*
X109323906Y-99563086D01*
X109306400Y-99582400D01*
X109287086Y-99599906D01*
X109266148Y-99615434D01*
X109243790Y-99628835D01*
X109220225Y-99639981D01*
X109195682Y-99648762D01*
X109170396Y-99655096D01*
X109144611Y-99658921D01*
X109118575Y-99660200D01*
X107949825Y-99660200D01*
X107923789Y-99658921D01*
X107898004Y-99655096D01*
X107872718Y-99648762D01*
X107848175Y-99639981D01*
X107824610Y-99628835D01*
X107802252Y-99615434D01*
X107781314Y-99599906D01*
X107762000Y-99582400D01*
X107744494Y-99563086D01*
X107728966Y-99542148D01*
X107715565Y-99519790D01*
X107704419Y-99496225D01*
X107695638Y-99471682D01*
X107689304Y-99446396D01*
X107685479Y-99420611D01*
X107684200Y-99394575D01*
X107684200Y-96325825D01*
X107685479Y-96299789D01*
X107689304Y-96274004D01*
X107695638Y-96248718D01*
X107704419Y-96224175D01*
X107715565Y-96200610D01*
X107728966Y-96178252D01*
X107744494Y-96157314D01*
X107762000Y-96138000D01*
X107781314Y-96120494D01*
X107802252Y-96104966D01*
X107824610Y-96091565D01*
X107848175Y-96080419D01*
X107872718Y-96071638D01*
X107898004Y-96065304D01*
X107923789Y-96061479D01*
X107949825Y-96060200D01*
X109118575Y-96060200D01*
X109144611Y-96061479D01*
G37*
G36*
X109144611Y-101661479D02*
G01*
X109170396Y-101665304D01*
X109195682Y-101671638D01*
X109220225Y-101680419D01*
X109243790Y-101691565D01*
X109266148Y-101704966D01*
X109287086Y-101720494D01*
X109306400Y-101738000D01*
X109323906Y-101757314D01*
X109339434Y-101778252D01*
X109352835Y-101800610D01*
X109363981Y-101824175D01*
X109372762Y-101848718D01*
X109379096Y-101874004D01*
X109382921Y-101899789D01*
X109384200Y-101925825D01*
X109384200Y-104994575D01*
X109382921Y-105020611D01*
X109379096Y-105046396D01*
X109372762Y-105071682D01*
X109363981Y-105096225D01*
X109352835Y-105119790D01*
X109339434Y-105142148D01*
X109323906Y-105163086D01*
X109306400Y-105182400D01*
X109287086Y-105199906D01*
X109266148Y-105215434D01*
X109243790Y-105228835D01*
X109220225Y-105239981D01*
X109195682Y-105248762D01*
X109170396Y-105255096D01*
X109144611Y-105258921D01*
X109118575Y-105260200D01*
X107949825Y-105260200D01*
X107923789Y-105258921D01*
X107898004Y-105255096D01*
X107872718Y-105248762D01*
X107848175Y-105239981D01*
X107824610Y-105228835D01*
X107802252Y-105215434D01*
X107781314Y-105199906D01*
X107762000Y-105182400D01*
X107744494Y-105163086D01*
X107728966Y-105142148D01*
X107715565Y-105119790D01*
X107704419Y-105096225D01*
X107695638Y-105071682D01*
X107689304Y-105046396D01*
X107685479Y-105020611D01*
X107684200Y-104994575D01*
X107684200Y-101925825D01*
X107685479Y-101899789D01*
X107689304Y-101874004D01*
X107695638Y-101848718D01*
X107704419Y-101824175D01*
X107715565Y-101800610D01*
X107728966Y-101778252D01*
X107744494Y-101757314D01*
X107762000Y-101738000D01*
X107781314Y-101720494D01*
X107802252Y-101704966D01*
X107824610Y-101691565D01*
X107848175Y-101680419D01*
X107872718Y-101671638D01*
X107898004Y-101665304D01*
X107923789Y-101661479D01*
X107949825Y-101660200D01*
X109118575Y-101660200D01*
X109144611Y-101661479D01*
G37*
%TD*%
%TO.C,C2*%
G36*
X115744465Y-92802300D02*
G01*
X115770674Y-92806188D01*
X115796377Y-92812626D01*
X115821325Y-92821553D01*
X115845277Y-92832881D01*
X115868004Y-92846503D01*
X115889286Y-92862287D01*
X115908919Y-92880081D01*
X115926713Y-92899714D01*
X115942497Y-92920996D01*
X115956119Y-92943723D01*
X115967447Y-92967675D01*
X115976374Y-92992623D01*
X115982812Y-93018326D01*
X115986700Y-93044535D01*
X115988000Y-93071000D01*
X115988000Y-94381000D01*
X115986700Y-94407465D01*
X115982812Y-94433674D01*
X115976374Y-94459377D01*
X115967447Y-94484325D01*
X115956119Y-94508277D01*
X115942497Y-94531004D01*
X115926713Y-94552286D01*
X115908919Y-94571919D01*
X115889286Y-94589713D01*
X115868004Y-94605497D01*
X115845277Y-94619119D01*
X115821325Y-94630447D01*
X115796377Y-94639374D01*
X115770674Y-94645812D01*
X115744465Y-94649700D01*
X115718000Y-94651000D01*
X114908000Y-94651000D01*
X114881535Y-94649700D01*
X114855326Y-94645812D01*
X114829623Y-94639374D01*
X114804675Y-94630447D01*
X114780723Y-94619119D01*
X114757996Y-94605497D01*
X114736714Y-94589713D01*
X114717081Y-94571919D01*
X114699287Y-94552286D01*
X114683503Y-94531004D01*
X114669881Y-94508277D01*
X114658553Y-94484325D01*
X114649626Y-94459377D01*
X114643188Y-94433674D01*
X114639300Y-94407465D01*
X114638000Y-94381000D01*
X114638000Y-93071000D01*
X114639300Y-93044535D01*
X114643188Y-93018326D01*
X114649626Y-92992623D01*
X114658553Y-92967675D01*
X114669881Y-92943723D01*
X114683503Y-92920996D01*
X114699287Y-92899714D01*
X114717081Y-92880081D01*
X114736714Y-92862287D01*
X114757996Y-92846503D01*
X114780723Y-92832881D01*
X114804675Y-92821553D01*
X114829623Y-92812626D01*
X114855326Y-92806188D01*
X114881535Y-92802300D01*
X114908000Y-92801000D01*
X115718000Y-92801000D01*
X115744465Y-92802300D01*
G37*
G36*
X118544465Y-92802300D02*
G01*
X118570674Y-92806188D01*
X118596377Y-92812626D01*
X118621325Y-92821553D01*
X118645277Y-92832881D01*
X118668004Y-92846503D01*
X118689286Y-92862287D01*
X118708919Y-92880081D01*
X118726713Y-92899714D01*
X118742497Y-92920996D01*
X118756119Y-92943723D01*
X118767447Y-92967675D01*
X118776374Y-92992623D01*
X118782812Y-93018326D01*
X118786700Y-93044535D01*
X118788000Y-93071000D01*
X118788000Y-94381000D01*
X118786700Y-94407465D01*
X118782812Y-94433674D01*
X118776374Y-94459377D01*
X118767447Y-94484325D01*
X118756119Y-94508277D01*
X118742497Y-94531004D01*
X118726713Y-94552286D01*
X118708919Y-94571919D01*
X118689286Y-94589713D01*
X118668004Y-94605497D01*
X118645277Y-94619119D01*
X118621325Y-94630447D01*
X118596377Y-94639374D01*
X118570674Y-94645812D01*
X118544465Y-94649700D01*
X118518000Y-94651000D01*
X117708000Y-94651000D01*
X117681535Y-94649700D01*
X117655326Y-94645812D01*
X117629623Y-94639374D01*
X117604675Y-94630447D01*
X117580723Y-94619119D01*
X117557996Y-94605497D01*
X117536714Y-94589713D01*
X117517081Y-94571919D01*
X117499287Y-94552286D01*
X117483503Y-94531004D01*
X117469881Y-94508277D01*
X117458553Y-94484325D01*
X117449626Y-94459377D01*
X117443188Y-94433674D01*
X117439300Y-94407465D01*
X117438000Y-94381000D01*
X117438000Y-93071000D01*
X117439300Y-93044535D01*
X117443188Y-93018326D01*
X117449626Y-92992623D01*
X117458553Y-92967675D01*
X117469881Y-92943723D01*
X117483503Y-92920996D01*
X117499287Y-92899714D01*
X117517081Y-92880081D01*
X117536714Y-92862287D01*
X117557996Y-92846503D01*
X117580723Y-92832881D01*
X117604675Y-92821553D01*
X117629623Y-92812626D01*
X117655326Y-92806188D01*
X117681535Y-92802300D01*
X117708000Y-92801000D01*
X118518000Y-92801000D01*
X118544465Y-92802300D01*
G37*
%TD*%
M02*
