%TF.GenerationSoftware,KiCad,Pcbnew,(5.1.6)-1*%
%TF.CreationDate,2021-01-28T12:38:02+01:00*%
%TF.ProjectId,ebus,65627573-2e6b-4696-9361-645f70636258,rev?*%
%TF.SameCoordinates,Original*%
%TF.FileFunction,Soldermask,Top*%
%TF.FilePolarity,Negative*%
%FSLAX46Y46*%
G04 Gerber Fmt 4.6, Leading zero omitted, Abs format (unit mm)*
G04 Created by KiCad (PCBNEW (5.1.6)-1) date 2021-01-28 12:38:02*
%MOMM*%
%LPD*%
G01*
G04 APERTURE LIST*
%ADD10C,3.300000*%
%ADD11O,1.700000X1.700000*%
%ADD12R,1.700000X1.700000*%
%ADD13C,1.700000*%
%ADD14R,2.100000X1.600000*%
%ADD15R,2.100000X3.900000*%
%ADD16R,2.600000X1.100000*%
%ADD17R,1.100000X1.900000*%
%ADD18O,2.005000X2.100000*%
%ADD19R,2.005000X2.100000*%
%ADD20O,3.600000X3.600000*%
%ADD21R,1.600000X1.150000*%
%ADD22O,1.600000X1.150000*%
%ADD23O,1.800000X1.800000*%
%ADD24R,1.800000X1.800000*%
%ADD25O,0.900000X0.900000*%
%ADD26O,1.250000X1.900000*%
%ADD27O,1.550000X2.100000*%
%ADD28R,0.550000X1.400000*%
%ADD29C,2.500000*%
%ADD30R,2.500000X2.500000*%
%ADD31C,1.900000*%
%ADD32R,1.900000X1.900000*%
%ADD33O,2.300000X2.300000*%
%ADD34R,2.300000X2.300000*%
G04 APERTURE END LIST*
D10*
%TO.C,REF\u002A\u002A*%
X121412000Y-136652000D03*
%TD*%
%TO.C,REF\u002A\u002A*%
X121412000Y-85852000D03*
%TD*%
%TO.C,REF\u002A\u002A*%
X43180000Y-136652000D03*
%TD*%
%TO.C,REF\u002A\u002A*%
X43180000Y-85852000D03*
%TD*%
D11*
%TO.C,D7*%
X53340000Y-111760000D03*
D12*
X53340000Y-119380000D03*
%TD*%
D13*
%TO.C,C6*%
X53340000Y-107910000D03*
X53340000Y-105410000D03*
%TD*%
D11*
%TO.C,U4*%
X82550000Y-118110000D03*
X90170000Y-113030000D03*
X82550000Y-115570000D03*
X90170000Y-115570000D03*
X82550000Y-113030000D03*
D12*
X90170000Y-118110000D03*
%TD*%
%TO.C,C4*%
G36*
G01*
X106025000Y-120105000D02*
X107335000Y-120105000D01*
G75*
G02*
X107605000Y-120375000I0J-270000D01*
G01*
X107605000Y-121185000D01*
G75*
G02*
X107335000Y-121455000I-270000J0D01*
G01*
X106025000Y-121455000D01*
G75*
G02*
X105755000Y-121185000I0J270000D01*
G01*
X105755000Y-120375000D01*
G75*
G02*
X106025000Y-120105000I270000J0D01*
G01*
G37*
G36*
G01*
X106025000Y-117305000D02*
X107335000Y-117305000D01*
G75*
G02*
X107605000Y-117575000I0J-270000D01*
G01*
X107605000Y-118385000D01*
G75*
G02*
X107335000Y-118655000I-270000J0D01*
G01*
X106025000Y-118655000D01*
G75*
G02*
X105755000Y-118385000I0J270000D01*
G01*
X105755000Y-117575000D01*
G75*
G02*
X106025000Y-117305000I270000J0D01*
G01*
G37*
%TD*%
%TO.C,C2*%
G36*
G01*
X107335000Y-133895000D02*
X106025000Y-133895000D01*
G75*
G02*
X105755000Y-133625000I0J270000D01*
G01*
X105755000Y-132815000D01*
G75*
G02*
X106025000Y-132545000I270000J0D01*
G01*
X107335000Y-132545000D01*
G75*
G02*
X107605000Y-132815000I0J-270000D01*
G01*
X107605000Y-133625000D01*
G75*
G02*
X107335000Y-133895000I-270000J0D01*
G01*
G37*
G36*
G01*
X107335000Y-136695000D02*
X106025000Y-136695000D01*
G75*
G02*
X105755000Y-136425000I0J270000D01*
G01*
X105755000Y-135615000D01*
G75*
G02*
X106025000Y-135345000I270000J0D01*
G01*
X107335000Y-135345000D01*
G75*
G02*
X107605000Y-135615000I0J-270000D01*
G01*
X107605000Y-136425000D01*
G75*
G02*
X107335000Y-136695000I-270000J0D01*
G01*
G37*
%TD*%
%TO.C,R21*%
G36*
G01*
X117455000Y-106135000D02*
X118765000Y-106135000D01*
G75*
G02*
X119035000Y-106405000I0J-270000D01*
G01*
X119035000Y-107215000D01*
G75*
G02*
X118765000Y-107485000I-270000J0D01*
G01*
X117455000Y-107485000D01*
G75*
G02*
X117185000Y-107215000I0J270000D01*
G01*
X117185000Y-106405000D01*
G75*
G02*
X117455000Y-106135000I270000J0D01*
G01*
G37*
G36*
G01*
X117455000Y-103335000D02*
X118765000Y-103335000D01*
G75*
G02*
X119035000Y-103605000I0J-270000D01*
G01*
X119035000Y-104415000D01*
G75*
G02*
X118765000Y-104685000I-270000J0D01*
G01*
X117455000Y-104685000D01*
G75*
G02*
X117185000Y-104415000I0J270000D01*
G01*
X117185000Y-103605000D01*
G75*
G02*
X117455000Y-103335000I270000J0D01*
G01*
G37*
%TD*%
%TO.C,R20*%
G36*
G01*
X94595000Y-93435000D02*
X95905000Y-93435000D01*
G75*
G02*
X96175000Y-93705000I0J-270000D01*
G01*
X96175000Y-94515000D01*
G75*
G02*
X95905000Y-94785000I-270000J0D01*
G01*
X94595000Y-94785000D01*
G75*
G02*
X94325000Y-94515000I0J270000D01*
G01*
X94325000Y-93705000D01*
G75*
G02*
X94595000Y-93435000I270000J0D01*
G01*
G37*
G36*
G01*
X94595000Y-90635000D02*
X95905000Y-90635000D01*
G75*
G02*
X96175000Y-90905000I0J-270000D01*
G01*
X96175000Y-91715000D01*
G75*
G02*
X95905000Y-91985000I-270000J0D01*
G01*
X94595000Y-91985000D01*
G75*
G02*
X94325000Y-91715000I0J270000D01*
G01*
X94325000Y-90905000D01*
G75*
G02*
X94595000Y-90635000I270000J0D01*
G01*
G37*
%TD*%
%TO.C,R18*%
G36*
G01*
X95905000Y-98335000D02*
X94595000Y-98335000D01*
G75*
G02*
X94325000Y-98065000I0J270000D01*
G01*
X94325000Y-97255000D01*
G75*
G02*
X94595000Y-96985000I270000J0D01*
G01*
X95905000Y-96985000D01*
G75*
G02*
X96175000Y-97255000I0J-270000D01*
G01*
X96175000Y-98065000D01*
G75*
G02*
X95905000Y-98335000I-270000J0D01*
G01*
G37*
G36*
G01*
X95905000Y-101135000D02*
X94595000Y-101135000D01*
G75*
G02*
X94325000Y-100865000I0J270000D01*
G01*
X94325000Y-100055000D01*
G75*
G02*
X94595000Y-99785000I270000J0D01*
G01*
X95905000Y-99785000D01*
G75*
G02*
X96175000Y-100055000I0J-270000D01*
G01*
X96175000Y-100865000D01*
G75*
G02*
X95905000Y-101135000I-270000J0D01*
G01*
G37*
%TD*%
D14*
%TO.C,U6*%
X108610000Y-124700000D03*
X108610000Y-129300000D03*
X108610000Y-127000000D03*
D15*
X114910000Y-127000000D03*
%TD*%
D16*
%TO.C,U5*%
X114280000Y-91750000D03*
X114280000Y-93750000D03*
X114280000Y-95750000D03*
X114280000Y-97750000D03*
X114280000Y-99750000D03*
X114280000Y-101750000D03*
X114280000Y-103750000D03*
X114280000Y-105750000D03*
D17*
X111680000Y-107250000D03*
X109680000Y-107250000D03*
X107680000Y-107250000D03*
X105680000Y-107250000D03*
X103680000Y-107250000D03*
X101680000Y-107250000D03*
D16*
X99080000Y-105750000D03*
X99080000Y-103750000D03*
X99080000Y-101750000D03*
X99080000Y-99750000D03*
X99080000Y-97750000D03*
X99080000Y-95750000D03*
X99080000Y-93750000D03*
X99080000Y-91750000D03*
%TD*%
D18*
%TO.C,U3*%
X43180000Y-113792000D03*
X45720000Y-113792000D03*
D19*
X48260000Y-113792000D03*
D20*
X45720000Y-130452000D03*
%TD*%
D11*
%TO.C,U2*%
X71120000Y-137160000D03*
X78740000Y-132080000D03*
X71120000Y-134620000D03*
X78740000Y-134620000D03*
X71120000Y-132080000D03*
D12*
X78740000Y-137160000D03*
%TD*%
D11*
%TO.C,U1*%
X90170000Y-99060000D03*
X82550000Y-106680000D03*
X90170000Y-101600000D03*
X82550000Y-104140000D03*
X90170000Y-104140000D03*
X82550000Y-101600000D03*
X90170000Y-106680000D03*
D12*
X82550000Y-99060000D03*
%TD*%
D11*
%TO.C,R19*%
X83820000Y-92710000D03*
D13*
X83820000Y-85090000D03*
%TD*%
D11*
%TO.C,R17*%
X53340000Y-92710000D03*
D13*
X53340000Y-85090000D03*
%TD*%
D11*
%TO.C,R16*%
X73660000Y-92710000D03*
D13*
X73660000Y-85090000D03*
%TD*%
D11*
%TO.C,R15*%
X69850000Y-119380000D03*
D13*
X77470000Y-119380000D03*
%TD*%
D11*
%TO.C,R14*%
X69850000Y-114300000D03*
D13*
X77470000Y-114300000D03*
%TD*%
D11*
%TO.C,R13*%
X82550000Y-124460000D03*
D13*
X90170000Y-124460000D03*
%TD*%
D11*
%TO.C,R12*%
X69850000Y-124460000D03*
D13*
X77470000Y-124460000D03*
%TD*%
D11*
%TO.C,R11*%
X57150000Y-109220000D03*
D13*
X64770000Y-109220000D03*
%TD*%
D11*
%TO.C,R10*%
X77470000Y-109220000D03*
D13*
X69850000Y-109220000D03*
%TD*%
D11*
%TO.C,R9*%
X57150000Y-104140000D03*
D13*
X64770000Y-104140000D03*
%TD*%
D11*
%TO.C,R8*%
X57150000Y-99060000D03*
D13*
X64770000Y-99060000D03*
%TD*%
D11*
%TO.C,R7*%
X77470000Y-104140000D03*
D13*
X69850000Y-104140000D03*
%TD*%
D11*
%TO.C,R6*%
X63500000Y-92710000D03*
D13*
X63500000Y-85090000D03*
%TD*%
D11*
%TO.C,R5*%
X64770000Y-124460000D03*
D13*
X57150000Y-124460000D03*
%TD*%
D11*
%TO.C,R4*%
X64770000Y-119380000D03*
D13*
X57150000Y-119380000D03*
%TD*%
D11*
%TO.C,R3*%
X57150000Y-114300000D03*
D13*
X64770000Y-114300000D03*
%TD*%
D11*
%TO.C,R2*%
X77470000Y-99060000D03*
D13*
X69850000Y-99060000D03*
%TD*%
D11*
%TO.C,R1*%
X53340000Y-134620000D03*
D13*
X60960000Y-134620000D03*
%TD*%
D21*
%TO.C,Q1*%
X66040000Y-134620000D03*
D22*
X66040000Y-137160000D03*
X66040000Y-135890000D03*
%TD*%
D23*
%TO.C,J6*%
X121920000Y-113284000D03*
X121920000Y-110744000D03*
X121920000Y-108204000D03*
D24*
X121920000Y-105664000D03*
%TD*%
D23*
%TO.C,J5*%
X121920000Y-99060000D03*
D24*
X121920000Y-96520000D03*
%TD*%
D23*
%TO.C,J4*%
X100330000Y-136906000D03*
D24*
X100330000Y-134366000D03*
%TD*%
D25*
%TO.C,J3*%
X93686000Y-135090000D03*
X88686000Y-135090000D03*
D26*
X95061000Y-137840000D03*
X87311000Y-137840000D03*
D27*
X94911000Y-134040000D03*
X87461000Y-134040000D03*
D28*
X92486000Y-133990000D03*
X91836000Y-133990000D03*
X91186000Y-133990000D03*
X90536000Y-133990000D03*
X89886000Y-133990000D03*
%TD*%
D23*
%TO.C,J2*%
X121920000Y-128016000D03*
X121920000Y-125476000D03*
X121920000Y-122936000D03*
D24*
X121920000Y-120396000D03*
%TD*%
D29*
%TO.C,J1*%
X44450000Y-94940000D03*
D30*
X44450000Y-91440000D03*
%TD*%
D31*
%TO.C,D6*%
X87630000Y-85852000D03*
D32*
X90170000Y-85852000D03*
%TD*%
D31*
%TO.C,D5*%
X57150000Y-85852000D03*
D32*
X59690000Y-85852000D03*
%TD*%
D31*
%TO.C,D4*%
X77470000Y-85852000D03*
D32*
X80010000Y-85852000D03*
%TD*%
D12*
%TO.C,D3*%
X43180000Y-106680000D03*
D11*
X48260000Y-99060000D03*
X48260000Y-106680000D03*
X43180000Y-99060000D03*
%TD*%
D31*
%TO.C,D2*%
X67310000Y-85852000D03*
D32*
X69850000Y-85852000D03*
%TD*%
D33*
%TO.C,D1*%
X67310000Y-130810000D03*
D34*
X57150000Y-130810000D03*
%TD*%
%TO.C,C5*%
G36*
G01*
X113680000Y-118694375D02*
X113680000Y-117525625D01*
G75*
G02*
X113945625Y-117260000I265625J0D01*
G01*
X116514375Y-117260000D01*
G75*
G02*
X116780000Y-117525625I0J-265625D01*
G01*
X116780000Y-118694375D01*
G75*
G02*
X116514375Y-118960000I-265625J0D01*
G01*
X113945625Y-118960000D01*
G75*
G02*
X113680000Y-118694375I0J265625D01*
G01*
G37*
G36*
G01*
X109280000Y-118694375D02*
X109280000Y-117525625D01*
G75*
G02*
X109545625Y-117260000I265625J0D01*
G01*
X112114375Y-117260000D01*
G75*
G02*
X112380000Y-117525625I0J-265625D01*
G01*
X112380000Y-118694375D01*
G75*
G02*
X112114375Y-118960000I-265625J0D01*
G01*
X109545625Y-118960000D01*
G75*
G02*
X109280000Y-118694375I0J265625D01*
G01*
G37*
%TD*%
%TO.C,C3*%
G36*
G01*
X113680000Y-136474375D02*
X113680000Y-135305625D01*
G75*
G02*
X113945625Y-135040000I265625J0D01*
G01*
X116514375Y-135040000D01*
G75*
G02*
X116780000Y-135305625I0J-265625D01*
G01*
X116780000Y-136474375D01*
G75*
G02*
X116514375Y-136740000I-265625J0D01*
G01*
X113945625Y-136740000D01*
G75*
G02*
X113680000Y-136474375I0J265625D01*
G01*
G37*
G36*
G01*
X109280000Y-136474375D02*
X109280000Y-135305625D01*
G75*
G02*
X109545625Y-135040000I265625J0D01*
G01*
X112114375Y-135040000D01*
G75*
G02*
X112380000Y-135305625I0J-265625D01*
G01*
X112380000Y-136474375D01*
G75*
G02*
X112114375Y-136740000I-265625J0D01*
G01*
X109545625Y-136740000D01*
G75*
G02*
X109280000Y-136474375I0J265625D01*
G01*
G37*
%TD*%
D13*
%TO.C,C1*%
X45760000Y-109982000D03*
X48260000Y-109982000D03*
%TD*%
M02*
