%TF.GenerationSoftware,KiCad,Pcbnew,(5.1.6)-1*%
%TF.CreationDate,2021-02-04T13:19:07+01:00*%
%TF.ProjectId,ebus,65627573-2e6b-4696-9361-645f70636258,rev?*%
%TF.SameCoordinates,Original*%
%TF.FileFunction,Legend,Bot*%
%TF.FilePolarity,Positive*%
%FSLAX46Y46*%
G04 Gerber Fmt 4.6, Leading zero omitted, Abs format (unit mm)*
G04 Created by KiCad (PCBNEW (5.1.6)-1) date 2021-02-04 13:19:07*
%MOMM*%
%LPD*%
G01*
G04 APERTURE LIST*
%ADD10C,0.400000*%
%ADD11C,0.200000*%
G04 APERTURE END LIST*
D10*
X88042095Y-100552047D02*
X88423047Y-100742523D01*
X89184952Y-100742523D01*
X89565904Y-100552047D01*
X89756380Y-100171095D01*
X89756380Y-98647285D01*
X89565904Y-98266333D01*
X89184952Y-98075857D01*
X88423047Y-98075857D01*
X88042095Y-98266333D01*
X87851619Y-98647285D01*
X87851619Y-99028238D01*
X89756380Y-99409190D01*
X84804000Y-98647285D02*
X84232571Y-98837761D01*
X84042095Y-99028238D01*
X83851619Y-99409190D01*
X83851619Y-99980619D01*
X84042095Y-100361571D01*
X84232571Y-100552047D01*
X84613523Y-100742523D01*
X86137333Y-100742523D01*
X86137333Y-96742523D01*
X84804000Y-96742523D01*
X84423047Y-96933000D01*
X84232571Y-97123476D01*
X84042095Y-97504428D01*
X84042095Y-97885380D01*
X84232571Y-98266333D01*
X84423047Y-98456809D01*
X84804000Y-98647285D01*
X86137333Y-98647285D01*
X82137333Y-96742523D02*
X82137333Y-99980619D01*
X81946857Y-100361571D01*
X81756380Y-100552047D01*
X81375428Y-100742523D01*
X80613523Y-100742523D01*
X80232571Y-100552047D01*
X80042095Y-100361571D01*
X79851619Y-99980619D01*
X79851619Y-96742523D01*
X78137333Y-100552047D02*
X77565904Y-100742523D01*
X76613523Y-100742523D01*
X76232571Y-100552047D01*
X76042095Y-100361571D01*
X75851619Y-99980619D01*
X75851619Y-99599666D01*
X76042095Y-99218714D01*
X76232571Y-99028238D01*
X76613523Y-98837761D01*
X77375428Y-98647285D01*
X77756380Y-98456809D01*
X77946857Y-98266333D01*
X78137333Y-97885380D01*
X78137333Y-97504428D01*
X77946857Y-97123476D01*
X77756380Y-96933000D01*
X77375428Y-96742523D01*
X76423047Y-96742523D01*
X75851619Y-96933000D01*
D11*
X89268285Y-102842142D02*
X89125428Y-102913571D01*
X88839714Y-102913571D01*
X88696857Y-102842142D01*
X88625428Y-102699285D01*
X88625428Y-102627857D01*
X88696857Y-102485000D01*
X88839714Y-102413571D01*
X89054000Y-102413571D01*
X89196857Y-102342142D01*
X89268285Y-102199285D01*
X89268285Y-102127857D01*
X89196857Y-101985000D01*
X89054000Y-101913571D01*
X88839714Y-101913571D01*
X88696857Y-101985000D01*
X87982571Y-102913571D02*
X87982571Y-101913571D01*
X87982571Y-102056428D02*
X87911142Y-101985000D01*
X87768285Y-101913571D01*
X87554000Y-101913571D01*
X87411142Y-101985000D01*
X87339714Y-102127857D01*
X87339714Y-102913571D01*
X87339714Y-102127857D02*
X87268285Y-101985000D01*
X87125428Y-101913571D01*
X86911142Y-101913571D01*
X86768285Y-101985000D01*
X86696857Y-102127857D01*
X86696857Y-102913571D01*
X85339714Y-102913571D02*
X85339714Y-102127857D01*
X85411142Y-101985000D01*
X85554000Y-101913571D01*
X85839714Y-101913571D01*
X85982571Y-101985000D01*
X85339714Y-102842142D02*
X85482571Y-102913571D01*
X85839714Y-102913571D01*
X85982571Y-102842142D01*
X86054000Y-102699285D01*
X86054000Y-102556428D01*
X85982571Y-102413571D01*
X85839714Y-102342142D01*
X85482571Y-102342142D01*
X85339714Y-102270714D01*
X84625428Y-102913571D02*
X84625428Y-101913571D01*
X84625428Y-102199285D02*
X84554000Y-102056428D01*
X84482571Y-101985000D01*
X84339714Y-101913571D01*
X84196857Y-101913571D01*
X83911142Y-101913571D02*
X83339714Y-101913571D01*
X83696857Y-101413571D02*
X83696857Y-102699285D01*
X83625428Y-102842142D01*
X83482571Y-102913571D01*
X83339714Y-102913571D01*
X81696857Y-102913571D02*
X81696857Y-101413571D01*
X81054000Y-102913571D02*
X81054000Y-102127857D01*
X81125428Y-101985000D01*
X81268285Y-101913571D01*
X81482571Y-101913571D01*
X81625428Y-101985000D01*
X81696857Y-102056428D01*
X80125428Y-102913571D02*
X80268285Y-102842142D01*
X80339714Y-102770714D01*
X80411142Y-102627857D01*
X80411142Y-102199285D01*
X80339714Y-102056428D01*
X80268285Y-101985000D01*
X80125428Y-101913571D01*
X79911142Y-101913571D01*
X79768285Y-101985000D01*
X79696857Y-102056428D01*
X79625428Y-102199285D01*
X79625428Y-102627857D01*
X79696857Y-102770714D01*
X79768285Y-102842142D01*
X79911142Y-102913571D01*
X80125428Y-102913571D01*
X78982571Y-102913571D02*
X78982571Y-101913571D01*
X78982571Y-102056428D02*
X78911142Y-101985000D01*
X78768285Y-101913571D01*
X78554000Y-101913571D01*
X78411142Y-101985000D01*
X78339714Y-102127857D01*
X78339714Y-102913571D01*
X78339714Y-102127857D02*
X78268285Y-101985000D01*
X78125428Y-101913571D01*
X77911142Y-101913571D01*
X77768285Y-101985000D01*
X77696857Y-102127857D01*
X77696857Y-102913571D01*
X76411142Y-102842142D02*
X76554000Y-102913571D01*
X76839714Y-102913571D01*
X76982571Y-102842142D01*
X77054000Y-102699285D01*
X77054000Y-102127857D01*
X76982571Y-101985000D01*
X76839714Y-101913571D01*
X76554000Y-101913571D01*
X76411142Y-101985000D01*
X76339714Y-102127857D01*
X76339714Y-102270714D01*
X77054000Y-102413571D01*
M02*
