%TF.GenerationSoftware,KiCad,Pcbnew,(5.1.6)-1*%
%TF.CreationDate,2021-01-27T21:31:29+01:00*%
%TF.ProjectId,ebus,65627573-2e6b-4696-9361-645f70636258,rev?*%
%TF.SameCoordinates,Original*%
%TF.FileFunction,Legend,Top*%
%TF.FilePolarity,Positive*%
%FSLAX46Y46*%
G04 Gerber Fmt 4.6, Leading zero omitted, Abs format (unit mm)*
G04 Created by KiCad (PCBNEW (5.1.6)-1) date 2021-01-27 21:31:29*
%MOMM*%
%LPD*%
G01*
G04 APERTURE LIST*
%ADD10C,0.500000*%
%ADD11C,0.150000*%
%ADD12C,0.125000*%
%ADD13C,0.120000*%
G04 APERTURE END LIST*
D10*
X96504285Y-123562571D02*
X96647142Y-123848285D01*
X96647142Y-124419714D01*
X96504285Y-124705428D01*
X96218571Y-124848285D01*
X95075714Y-124848285D01*
X94790000Y-124705428D01*
X94647142Y-124419714D01*
X94647142Y-123848285D01*
X94790000Y-123562571D01*
X95075714Y-123419714D01*
X95361428Y-123419714D01*
X95647142Y-124848285D01*
X95075714Y-121134000D02*
X95218571Y-120705428D01*
X95361428Y-120562571D01*
X95647142Y-120419714D01*
X96075714Y-120419714D01*
X96361428Y-120562571D01*
X96504285Y-120705428D01*
X96647142Y-120991142D01*
X96647142Y-122134000D01*
X93647142Y-122134000D01*
X93647142Y-121134000D01*
X93790000Y-120848285D01*
X93932857Y-120705428D01*
X94218571Y-120562571D01*
X94504285Y-120562571D01*
X94790000Y-120705428D01*
X94932857Y-120848285D01*
X95075714Y-121134000D01*
X95075714Y-122134000D01*
X93647142Y-119134000D02*
X96075714Y-119134000D01*
X96361428Y-118991142D01*
X96504285Y-118848285D01*
X96647142Y-118562571D01*
X96647142Y-117991142D01*
X96504285Y-117705428D01*
X96361428Y-117562571D01*
X96075714Y-117419714D01*
X93647142Y-117419714D01*
X96504285Y-116134000D02*
X96647142Y-115705428D01*
X96647142Y-114991142D01*
X96504285Y-114705428D01*
X96361428Y-114562571D01*
X96075714Y-114419714D01*
X95790000Y-114419714D01*
X95504285Y-114562571D01*
X95361428Y-114705428D01*
X95218571Y-114991142D01*
X95075714Y-115562571D01*
X94932857Y-115848285D01*
X94790000Y-115991142D01*
X94504285Y-116134000D01*
X94218571Y-116134000D01*
X93932857Y-115991142D01*
X93790000Y-115848285D01*
X93647142Y-115562571D01*
X93647142Y-114848285D01*
X93790000Y-114419714D01*
X100790000Y-127491142D02*
X100790000Y-126062571D01*
X101647142Y-127776857D02*
X98647142Y-126776857D01*
X101647142Y-125776857D01*
X101647142Y-123491142D02*
X98647142Y-123491142D01*
X101504285Y-123491142D02*
X101647142Y-123776857D01*
X101647142Y-124348285D01*
X101504285Y-124634000D01*
X101361428Y-124776857D01*
X101075714Y-124919714D01*
X100218571Y-124919714D01*
X99932857Y-124776857D01*
X99790000Y-124634000D01*
X99647142Y-124348285D01*
X99647142Y-123776857D01*
X99790000Y-123491142D01*
X101647142Y-120776857D02*
X100075714Y-120776857D01*
X99790000Y-120919714D01*
X99647142Y-121205428D01*
X99647142Y-121776857D01*
X99790000Y-122062571D01*
X101504285Y-120776857D02*
X101647142Y-121062571D01*
X101647142Y-121776857D01*
X101504285Y-122062571D01*
X101218571Y-122205428D01*
X100932857Y-122205428D01*
X100647142Y-122062571D01*
X100504285Y-121776857D01*
X100504285Y-121062571D01*
X100361428Y-120776857D01*
X99647142Y-119348285D02*
X102647142Y-119348285D01*
X99790000Y-119348285D02*
X99647142Y-119062571D01*
X99647142Y-118491142D01*
X99790000Y-118205428D01*
X99932857Y-118062571D01*
X100218571Y-117919714D01*
X101075714Y-117919714D01*
X101361428Y-118062571D01*
X101504285Y-118205428D01*
X101647142Y-118491142D01*
X101647142Y-119062571D01*
X101504285Y-119348285D01*
X99647142Y-117062571D02*
X99647142Y-115919714D01*
X98647142Y-116634000D02*
X101218571Y-116634000D01*
X101504285Y-116491142D01*
X101647142Y-116205428D01*
X101647142Y-115919714D01*
X101504285Y-113776857D02*
X101647142Y-114062571D01*
X101647142Y-114634000D01*
X101504285Y-114919714D01*
X101218571Y-115062571D01*
X100075714Y-115062571D01*
X99790000Y-114919714D01*
X99647142Y-114634000D01*
X99647142Y-114062571D01*
X99790000Y-113776857D01*
X100075714Y-113634000D01*
X100361428Y-113634000D01*
X100647142Y-115062571D01*
X101647142Y-112348285D02*
X99647142Y-112348285D01*
X100218571Y-112348285D02*
X99932857Y-112205428D01*
X99790000Y-112062571D01*
X99647142Y-111776857D01*
X99647142Y-111491142D01*
D11*
X116633809Y-127468380D02*
X117252857Y-127468380D01*
X116919523Y-127849333D01*
X117062380Y-127849333D01*
X117157619Y-127896952D01*
X117205238Y-127944571D01*
X117252857Y-128039809D01*
X117252857Y-128277904D01*
X117205238Y-128373142D01*
X117157619Y-128420761D01*
X117062380Y-128468380D01*
X116776666Y-128468380D01*
X116681428Y-128420761D01*
X116633809Y-128373142D01*
X117681428Y-128373142D02*
X117729047Y-128420761D01*
X117681428Y-128468380D01*
X117633809Y-128420761D01*
X117681428Y-128373142D01*
X117681428Y-128468380D01*
X118062380Y-127468380D02*
X118681428Y-127468380D01*
X118348095Y-127849333D01*
X118490952Y-127849333D01*
X118586190Y-127896952D01*
X118633809Y-127944571D01*
X118681428Y-128039809D01*
X118681428Y-128277904D01*
X118633809Y-128373142D01*
X118586190Y-128420761D01*
X118490952Y-128468380D01*
X118205238Y-128468380D01*
X118110000Y-128420761D01*
X118062380Y-128373142D01*
X118967142Y-127468380D02*
X119300476Y-128468380D01*
X119633809Y-127468380D01*
X118705333Y-125928380D02*
X118372000Y-125452190D01*
X118133904Y-125928380D02*
X118133904Y-124928380D01*
X118514857Y-124928380D01*
X118610095Y-124976000D01*
X118657714Y-125023619D01*
X118705333Y-125118857D01*
X118705333Y-125261714D01*
X118657714Y-125356952D01*
X118610095Y-125404571D01*
X118514857Y-125452190D01*
X118133904Y-125452190D01*
X119038666Y-124928380D02*
X119705333Y-125928380D01*
X119705333Y-124928380D02*
X119038666Y-125928380D01*
X118110095Y-122388380D02*
X118681523Y-122388380D01*
X118395809Y-123388380D02*
X118395809Y-122388380D01*
X118919619Y-122388380D02*
X119586285Y-123388380D01*
X119586285Y-122388380D02*
X118919619Y-123388380D01*
X117602095Y-119896000D02*
X117506857Y-119848380D01*
X117364000Y-119848380D01*
X117221142Y-119896000D01*
X117125904Y-119991238D01*
X117078285Y-120086476D01*
X117030666Y-120276952D01*
X117030666Y-120419809D01*
X117078285Y-120610285D01*
X117125904Y-120705523D01*
X117221142Y-120800761D01*
X117364000Y-120848380D01*
X117459238Y-120848380D01*
X117602095Y-120800761D01*
X117649714Y-120753142D01*
X117649714Y-120419809D01*
X117459238Y-120419809D01*
X118078285Y-120848380D02*
X118078285Y-119848380D01*
X118649714Y-120848380D01*
X118649714Y-119848380D01*
X119125904Y-120848380D02*
X119125904Y-119848380D01*
X119364000Y-119848380D01*
X119506857Y-119896000D01*
X119602095Y-119991238D01*
X119649714Y-120086476D01*
X119697333Y-120276952D01*
X119697333Y-120419809D01*
X119649714Y-120610285D01*
X119602095Y-120705523D01*
X119506857Y-120800761D01*
X119364000Y-120848380D01*
X119125904Y-120848380D01*
X118681523Y-108672380D02*
X118205333Y-108672380D01*
X118157714Y-109148571D01*
X118205333Y-109100952D01*
X118300571Y-109053333D01*
X118538666Y-109053333D01*
X118633904Y-109100952D01*
X118681523Y-109148571D01*
X118729142Y-109243809D01*
X118729142Y-109481904D01*
X118681523Y-109577142D01*
X118633904Y-109624761D01*
X118538666Y-109672380D01*
X118300571Y-109672380D01*
X118205333Y-109624761D01*
X118157714Y-109577142D01*
X119014857Y-108672380D02*
X119348190Y-109672380D01*
X119681523Y-108672380D01*
X117602095Y-114054000D02*
X117506857Y-114006380D01*
X117364000Y-114006380D01*
X117221142Y-114054000D01*
X117125904Y-114149238D01*
X117078285Y-114244476D01*
X117030666Y-114434952D01*
X117030666Y-114577809D01*
X117078285Y-114768285D01*
X117125904Y-114863523D01*
X117221142Y-114958761D01*
X117364000Y-115006380D01*
X117459238Y-115006380D01*
X117602095Y-114958761D01*
X117649714Y-114911142D01*
X117649714Y-114577809D01*
X117459238Y-114577809D01*
X118078285Y-115006380D02*
X118078285Y-114006380D01*
X118649714Y-115006380D01*
X118649714Y-114006380D01*
X119125904Y-115006380D02*
X119125904Y-114006380D01*
X119364000Y-114006380D01*
X119506857Y-114054000D01*
X119602095Y-114149238D01*
X119649714Y-114244476D01*
X119697333Y-114434952D01*
X119697333Y-114577809D01*
X119649714Y-114768285D01*
X119602095Y-114863523D01*
X119506857Y-114958761D01*
X119364000Y-115006380D01*
X119125904Y-115006380D01*
X118705333Y-113228380D02*
X118372000Y-112752190D01*
X118133904Y-113228380D02*
X118133904Y-112228380D01*
X118514857Y-112228380D01*
X118610095Y-112276000D01*
X118657714Y-112323619D01*
X118705333Y-112418857D01*
X118705333Y-112561714D01*
X118657714Y-112656952D01*
X118610095Y-112704571D01*
X118514857Y-112752190D01*
X118133904Y-112752190D01*
X119038666Y-112228380D02*
X119705333Y-113228380D01*
X119705333Y-112228380D02*
X119038666Y-113228380D01*
X118110095Y-110450380D02*
X118681523Y-110450380D01*
X118395809Y-111450380D02*
X118395809Y-110450380D01*
X118919619Y-110450380D02*
X119586285Y-111450380D01*
X119586285Y-110450380D02*
X118919619Y-111450380D01*
X117816380Y-99512380D02*
X117483047Y-99036190D01*
X117244952Y-99512380D02*
X117244952Y-98512380D01*
X117625904Y-98512380D01*
X117721142Y-98560000D01*
X117768761Y-98607619D01*
X117816380Y-98702857D01*
X117816380Y-98845714D01*
X117768761Y-98940952D01*
X117721142Y-98988571D01*
X117625904Y-99036190D01*
X117244952Y-99036190D01*
X118197333Y-99464761D02*
X118340190Y-99512380D01*
X118578285Y-99512380D01*
X118673523Y-99464761D01*
X118721142Y-99417142D01*
X118768761Y-99321904D01*
X118768761Y-99226666D01*
X118721142Y-99131428D01*
X118673523Y-99083809D01*
X118578285Y-99036190D01*
X118387809Y-98988571D01*
X118292571Y-98940952D01*
X118244952Y-98893333D01*
X118197333Y-98798095D01*
X118197333Y-98702857D01*
X118244952Y-98607619D01*
X118292571Y-98560000D01*
X118387809Y-98512380D01*
X118625904Y-98512380D01*
X118768761Y-98560000D01*
X119054476Y-98512380D02*
X119625904Y-98512380D01*
X119340190Y-99512380D02*
X119340190Y-98512380D01*
X117618000Y-96972380D02*
X117618000Y-95972380D01*
X118284666Y-95972380D02*
X118475142Y-95972380D01*
X118570380Y-96020000D01*
X118665619Y-96115238D01*
X118713238Y-96305714D01*
X118713238Y-96639047D01*
X118665619Y-96829523D01*
X118570380Y-96924761D01*
X118475142Y-96972380D01*
X118284666Y-96972380D01*
X118189428Y-96924761D01*
X118094190Y-96829523D01*
X118046571Y-96639047D01*
X118046571Y-96305714D01*
X118094190Y-96115238D01*
X118189428Y-96020000D01*
X118284666Y-95972380D01*
X119332285Y-95972380D02*
X119427523Y-95972380D01*
X119522761Y-96020000D01*
X119570380Y-96067619D01*
X119618000Y-96162857D01*
X119665619Y-96353333D01*
X119665619Y-96591428D01*
X119618000Y-96781904D01*
X119570380Y-96877142D01*
X119522761Y-96924761D01*
X119427523Y-96972380D01*
X119332285Y-96972380D01*
X119237047Y-96924761D01*
X119189428Y-96877142D01*
X119141809Y-96781904D01*
X119094190Y-96591428D01*
X119094190Y-96353333D01*
X119141809Y-96162857D01*
X119189428Y-96067619D01*
X119237047Y-96020000D01*
X119332285Y-95972380D01*
X103124095Y-133866000D02*
X103028857Y-133818380D01*
X102886000Y-133818380D01*
X102743142Y-133866000D01*
X102647904Y-133961238D01*
X102600285Y-134056476D01*
X102552666Y-134246952D01*
X102552666Y-134389809D01*
X102600285Y-134580285D01*
X102647904Y-134675523D01*
X102743142Y-134770761D01*
X102886000Y-134818380D01*
X102981238Y-134818380D01*
X103124095Y-134770761D01*
X103171714Y-134723142D01*
X103171714Y-134389809D01*
X102981238Y-134389809D01*
X103600285Y-134818380D02*
X103600285Y-133818380D01*
X104171714Y-134818380D01*
X104171714Y-133818380D01*
X104647904Y-134818380D02*
X104647904Y-133818380D01*
X104886000Y-133818380D01*
X105028857Y-133866000D01*
X105124095Y-133961238D01*
X105171714Y-134056476D01*
X105219333Y-134246952D01*
X105219333Y-134389809D01*
X105171714Y-134580285D01*
X105124095Y-134675523D01*
X105028857Y-134770761D01*
X104886000Y-134818380D01*
X104647904Y-134818380D01*
X103695523Y-136358380D02*
X103219333Y-136358380D01*
X103171714Y-136834571D01*
X103219333Y-136786952D01*
X103314571Y-136739333D01*
X103552666Y-136739333D01*
X103647904Y-136786952D01*
X103695523Y-136834571D01*
X103743142Y-136929809D01*
X103743142Y-137167904D01*
X103695523Y-137263142D01*
X103647904Y-137310761D01*
X103552666Y-137358380D01*
X103314571Y-137358380D01*
X103219333Y-137310761D01*
X103171714Y-137263142D01*
X104028857Y-136358380D02*
X104362190Y-137358380D01*
X104695523Y-136358380D01*
X111736380Y-134564380D02*
X111164952Y-134564380D01*
X111450666Y-134564380D02*
X111450666Y-133564380D01*
X111355428Y-133707238D01*
X111260190Y-133802476D01*
X111164952Y-133850095D01*
X112355428Y-133564380D02*
X112450666Y-133564380D01*
X112545904Y-133612000D01*
X112593523Y-133659619D01*
X112641142Y-133754857D01*
X112688761Y-133945333D01*
X112688761Y-134183428D01*
X112641142Y-134373904D01*
X112593523Y-134469142D01*
X112545904Y-134516761D01*
X112450666Y-134564380D01*
X112355428Y-134564380D01*
X112260190Y-134516761D01*
X112212571Y-134469142D01*
X112164952Y-134373904D01*
X112117333Y-134183428D01*
X112117333Y-133945333D01*
X112164952Y-133754857D01*
X112212571Y-133659619D01*
X112260190Y-133612000D01*
X112355428Y-133564380D01*
X113307809Y-133564380D02*
X113403047Y-133564380D01*
X113498285Y-133612000D01*
X113545904Y-133659619D01*
X113593523Y-133754857D01*
X113641142Y-133945333D01*
X113641142Y-134183428D01*
X113593523Y-134373904D01*
X113545904Y-134469142D01*
X113498285Y-134516761D01*
X113403047Y-134564380D01*
X113307809Y-134564380D01*
X113212571Y-134516761D01*
X113164952Y-134469142D01*
X113117333Y-134373904D01*
X113069714Y-134183428D01*
X113069714Y-133945333D01*
X113117333Y-133754857D01*
X113164952Y-133659619D01*
X113212571Y-133612000D01*
X113307809Y-133564380D01*
X114498285Y-133897714D02*
X114498285Y-134564380D01*
X114069714Y-133897714D02*
X114069714Y-134421523D01*
X114117333Y-134516761D01*
X114212571Y-134564380D01*
X114355428Y-134564380D01*
X114450666Y-134516761D01*
X114498285Y-134469142D01*
X115307809Y-134040571D02*
X114974476Y-134040571D01*
X114974476Y-134564380D02*
X114974476Y-133564380D01*
X115450666Y-133564380D01*
X111736380Y-116784380D02*
X111164952Y-116784380D01*
X111450666Y-116784380D02*
X111450666Y-115784380D01*
X111355428Y-115927238D01*
X111260190Y-116022476D01*
X111164952Y-116070095D01*
X112355428Y-115784380D02*
X112450666Y-115784380D01*
X112545904Y-115832000D01*
X112593523Y-115879619D01*
X112641142Y-115974857D01*
X112688761Y-116165333D01*
X112688761Y-116403428D01*
X112641142Y-116593904D01*
X112593523Y-116689142D01*
X112545904Y-116736761D01*
X112450666Y-116784380D01*
X112355428Y-116784380D01*
X112260190Y-116736761D01*
X112212571Y-116689142D01*
X112164952Y-116593904D01*
X112117333Y-116403428D01*
X112117333Y-116165333D01*
X112164952Y-115974857D01*
X112212571Y-115879619D01*
X112260190Y-115832000D01*
X112355428Y-115784380D01*
X113307809Y-115784380D02*
X113403047Y-115784380D01*
X113498285Y-115832000D01*
X113545904Y-115879619D01*
X113593523Y-115974857D01*
X113641142Y-116165333D01*
X113641142Y-116403428D01*
X113593523Y-116593904D01*
X113545904Y-116689142D01*
X113498285Y-116736761D01*
X113403047Y-116784380D01*
X113307809Y-116784380D01*
X113212571Y-116736761D01*
X113164952Y-116689142D01*
X113117333Y-116593904D01*
X113069714Y-116403428D01*
X113069714Y-116165333D01*
X113117333Y-115974857D01*
X113164952Y-115879619D01*
X113212571Y-115832000D01*
X113307809Y-115784380D01*
X114498285Y-116117714D02*
X114498285Y-116784380D01*
X114069714Y-116117714D02*
X114069714Y-116641523D01*
X114117333Y-116736761D01*
X114212571Y-116784380D01*
X114355428Y-116784380D01*
X114450666Y-116736761D01*
X114498285Y-116689142D01*
X115307809Y-116260571D02*
X114974476Y-116260571D01*
X114974476Y-116784380D02*
X114974476Y-115784380D01*
X115450666Y-115784380D01*
X105132380Y-132024380D02*
X104560952Y-132024380D01*
X104846666Y-132024380D02*
X104846666Y-131024380D01*
X104751428Y-131167238D01*
X104656190Y-131262476D01*
X104560952Y-131310095D01*
X105751428Y-131024380D02*
X105846666Y-131024380D01*
X105941904Y-131072000D01*
X105989523Y-131119619D01*
X106037142Y-131214857D01*
X106084761Y-131405333D01*
X106084761Y-131643428D01*
X106037142Y-131833904D01*
X105989523Y-131929142D01*
X105941904Y-131976761D01*
X105846666Y-132024380D01*
X105751428Y-132024380D01*
X105656190Y-131976761D01*
X105608571Y-131929142D01*
X105560952Y-131833904D01*
X105513333Y-131643428D01*
X105513333Y-131405333D01*
X105560952Y-131214857D01*
X105608571Y-131119619D01*
X105656190Y-131072000D01*
X105751428Y-131024380D01*
X106703809Y-131024380D02*
X106799047Y-131024380D01*
X106894285Y-131072000D01*
X106941904Y-131119619D01*
X106989523Y-131214857D01*
X107037142Y-131405333D01*
X107037142Y-131643428D01*
X106989523Y-131833904D01*
X106941904Y-131929142D01*
X106894285Y-131976761D01*
X106799047Y-132024380D01*
X106703809Y-132024380D01*
X106608571Y-131976761D01*
X106560952Y-131929142D01*
X106513333Y-131833904D01*
X106465714Y-131643428D01*
X106465714Y-131405333D01*
X106513333Y-131214857D01*
X106560952Y-131119619D01*
X106608571Y-131072000D01*
X106703809Y-131024380D01*
X107465714Y-131357714D02*
X107465714Y-132024380D01*
X107465714Y-131452952D02*
X107513333Y-131405333D01*
X107608571Y-131357714D01*
X107751428Y-131357714D01*
X107846666Y-131405333D01*
X107894285Y-131500571D01*
X107894285Y-132024380D01*
X108703809Y-131500571D02*
X108370476Y-131500571D01*
X108370476Y-132024380D02*
X108370476Y-131024380D01*
X108846666Y-131024380D01*
X105100380Y-120673619D02*
X105100380Y-121245047D01*
X105100380Y-120959333D02*
X104100380Y-120959333D01*
X104243238Y-121054571D01*
X104338476Y-121149809D01*
X104386095Y-121245047D01*
X104100380Y-120054571D02*
X104100380Y-119959333D01*
X104148000Y-119864095D01*
X104195619Y-119816476D01*
X104290857Y-119768857D01*
X104481333Y-119721238D01*
X104719428Y-119721238D01*
X104909904Y-119768857D01*
X105005142Y-119816476D01*
X105052761Y-119864095D01*
X105100380Y-119959333D01*
X105100380Y-120054571D01*
X105052761Y-120149809D01*
X105005142Y-120197428D01*
X104909904Y-120245047D01*
X104719428Y-120292666D01*
X104481333Y-120292666D01*
X104290857Y-120245047D01*
X104195619Y-120197428D01*
X104148000Y-120149809D01*
X104100380Y-120054571D01*
X104100380Y-119102190D02*
X104100380Y-119006952D01*
X104148000Y-118911714D01*
X104195619Y-118864095D01*
X104290857Y-118816476D01*
X104481333Y-118768857D01*
X104719428Y-118768857D01*
X104909904Y-118816476D01*
X105005142Y-118864095D01*
X105052761Y-118911714D01*
X105100380Y-119006952D01*
X105100380Y-119102190D01*
X105052761Y-119197428D01*
X105005142Y-119245047D01*
X104909904Y-119292666D01*
X104719428Y-119340285D01*
X104481333Y-119340285D01*
X104290857Y-119292666D01*
X104195619Y-119245047D01*
X104148000Y-119197428D01*
X104100380Y-119102190D01*
X104433714Y-118340285D02*
X105100380Y-118340285D01*
X104528952Y-118340285D02*
X104481333Y-118292666D01*
X104433714Y-118197428D01*
X104433714Y-118054571D01*
X104481333Y-117959333D01*
X104576571Y-117911714D01*
X105100380Y-117911714D01*
X104576571Y-117102190D02*
X104576571Y-117435523D01*
X105100380Y-117435523D02*
X104100380Y-117435523D01*
X104100380Y-116959333D01*
X50014380Y-110688380D02*
X49442952Y-110688380D01*
X49728666Y-110688380D02*
X49728666Y-109688380D01*
X49633428Y-109831238D01*
X49538190Y-109926476D01*
X49442952Y-109974095D01*
X50633428Y-109688380D02*
X50728666Y-109688380D01*
X50823904Y-109736000D01*
X50871523Y-109783619D01*
X50919142Y-109878857D01*
X50966761Y-110069333D01*
X50966761Y-110307428D01*
X50919142Y-110497904D01*
X50871523Y-110593142D01*
X50823904Y-110640761D01*
X50728666Y-110688380D01*
X50633428Y-110688380D01*
X50538190Y-110640761D01*
X50490571Y-110593142D01*
X50442952Y-110497904D01*
X50395333Y-110307428D01*
X50395333Y-110069333D01*
X50442952Y-109878857D01*
X50490571Y-109783619D01*
X50538190Y-109736000D01*
X50633428Y-109688380D01*
X51585809Y-109688380D02*
X51681047Y-109688380D01*
X51776285Y-109736000D01*
X51823904Y-109783619D01*
X51871523Y-109878857D01*
X51919142Y-110069333D01*
X51919142Y-110307428D01*
X51871523Y-110497904D01*
X51823904Y-110593142D01*
X51776285Y-110640761D01*
X51681047Y-110688380D01*
X51585809Y-110688380D01*
X51490571Y-110640761D01*
X51442952Y-110593142D01*
X51395333Y-110497904D01*
X51347714Y-110307428D01*
X51347714Y-110069333D01*
X51395333Y-109878857D01*
X51442952Y-109783619D01*
X51490571Y-109736000D01*
X51585809Y-109688380D01*
X52347714Y-110021714D02*
X52347714Y-110688380D01*
X52347714Y-110116952D02*
X52395333Y-110069333D01*
X52490571Y-110021714D01*
X52633428Y-110021714D01*
X52728666Y-110069333D01*
X52776285Y-110164571D01*
X52776285Y-110688380D01*
X53585809Y-110164571D02*
X53252476Y-110164571D01*
X53252476Y-110688380D02*
X53252476Y-109688380D01*
X53728666Y-109688380D01*
X116673428Y-105195714D02*
X116673428Y-105862380D01*
X116435333Y-104814761D02*
X116197238Y-105529047D01*
X116816285Y-105529047D01*
X117197238Y-105767142D02*
X117244857Y-105814761D01*
X117197238Y-105862380D01*
X117149619Y-105814761D01*
X117197238Y-105767142D01*
X117197238Y-105862380D01*
X117578190Y-104862380D02*
X118244857Y-104862380D01*
X117816285Y-105862380D01*
X118625809Y-105862380D02*
X118625809Y-104862380D01*
X118721047Y-105481428D02*
X119006761Y-105862380D01*
X119006761Y-105195714D02*
X118625809Y-105576666D01*
X93670380Y-99655238D02*
X93670380Y-100226666D01*
X93670380Y-99940952D02*
X92670380Y-99940952D01*
X92813238Y-100036190D01*
X92908476Y-100131428D01*
X92956095Y-100226666D01*
X92670380Y-99036190D02*
X92670380Y-98940952D01*
X92718000Y-98845714D01*
X92765619Y-98798095D01*
X92860857Y-98750476D01*
X93051333Y-98702857D01*
X93289428Y-98702857D01*
X93479904Y-98750476D01*
X93575142Y-98798095D01*
X93622761Y-98845714D01*
X93670380Y-98940952D01*
X93670380Y-99036190D01*
X93622761Y-99131428D01*
X93575142Y-99179047D01*
X93479904Y-99226666D01*
X93289428Y-99274285D01*
X93051333Y-99274285D01*
X92860857Y-99226666D01*
X92765619Y-99179047D01*
X92718000Y-99131428D01*
X92670380Y-99036190D01*
X93670380Y-98274285D02*
X92670380Y-98274285D01*
X93289428Y-98179047D02*
X93670380Y-97893333D01*
X93003714Y-97893333D02*
X93384666Y-98274285D01*
X93003714Y-93638571D02*
X93670380Y-93638571D01*
X92622761Y-93876666D02*
X93337047Y-94114761D01*
X93337047Y-93495714D01*
X93575142Y-93114761D02*
X93622761Y-93067142D01*
X93670380Y-93114761D01*
X93622761Y-93162380D01*
X93575142Y-93114761D01*
X93670380Y-93114761D01*
X92670380Y-92733809D02*
X92670380Y-92067142D01*
X93670380Y-92495714D01*
X93670380Y-91686190D02*
X92670380Y-91686190D01*
X93289428Y-91590952D02*
X93670380Y-91305238D01*
X93003714Y-91305238D02*
X93384666Y-91686190D01*
X55911904Y-134167619D02*
X55959523Y-134120000D01*
X56054761Y-134072380D01*
X56292857Y-134072380D01*
X56388095Y-134120000D01*
X56435714Y-134167619D01*
X56483333Y-134262857D01*
X56483333Y-134358095D01*
X56435714Y-134500952D01*
X55864285Y-135072380D01*
X56483333Y-135072380D01*
X56864285Y-134167619D02*
X56911904Y-134120000D01*
X57007142Y-134072380D01*
X57245238Y-134072380D01*
X57340476Y-134120000D01*
X57388095Y-134167619D01*
X57435714Y-134262857D01*
X57435714Y-134358095D01*
X57388095Y-134500952D01*
X56816666Y-135072380D01*
X57435714Y-135072380D01*
X58054761Y-134072380D02*
X58150000Y-134072380D01*
X58245238Y-134120000D01*
X58292857Y-134167619D01*
X58340476Y-134262857D01*
X58388095Y-134453333D01*
X58388095Y-134691428D01*
X58340476Y-134881904D01*
X58292857Y-134977142D01*
X58245238Y-135024761D01*
X58150000Y-135072380D01*
X58054761Y-135072380D01*
X57959523Y-135024761D01*
X57911904Y-134977142D01*
X57864285Y-134881904D01*
X57816666Y-134691428D01*
X57816666Y-134453333D01*
X57864285Y-134262857D01*
X57911904Y-134167619D01*
X57959523Y-134120000D01*
X58054761Y-134072380D01*
D12*
X61130857Y-130524285D02*
X60702285Y-130524285D01*
X60916571Y-130524285D02*
X60916571Y-129774285D01*
X60845142Y-129881428D01*
X60773714Y-129952857D01*
X60702285Y-129988571D01*
X61452285Y-130524285D02*
X61452285Y-129774285D01*
X61880857Y-130524285D01*
X61880857Y-129774285D01*
X62559428Y-130024285D02*
X62559428Y-130524285D01*
X62380857Y-129738571D02*
X62202285Y-130274285D01*
X62666571Y-130274285D01*
X62880857Y-129774285D02*
X63380857Y-129774285D01*
X63059428Y-130524285D01*
X63595142Y-129774285D02*
X64059428Y-129774285D01*
X63809428Y-130060000D01*
X63916571Y-130060000D01*
X63988000Y-130095714D01*
X64023714Y-130131428D01*
X64059428Y-130202857D01*
X64059428Y-130381428D01*
X64023714Y-130452857D01*
X63988000Y-130488571D01*
X63916571Y-130524285D01*
X63702285Y-130524285D01*
X63630857Y-130488571D01*
X63595142Y-130452857D01*
X64309428Y-129774285D02*
X64809428Y-129774285D01*
X64488000Y-130524285D01*
X61630857Y-131024285D02*
X62130857Y-131024285D01*
X61809428Y-131774285D01*
X62416571Y-131702857D02*
X62452285Y-131738571D01*
X62416571Y-131774285D01*
X62380857Y-131738571D01*
X62416571Y-131702857D01*
X62416571Y-131774285D01*
X63130857Y-131024285D02*
X62773714Y-131024285D01*
X62738000Y-131381428D01*
X62773714Y-131345714D01*
X62845142Y-131310000D01*
X63023714Y-131310000D01*
X63095142Y-131345714D01*
X63130857Y-131381428D01*
X63166571Y-131452857D01*
X63166571Y-131631428D01*
X63130857Y-131702857D01*
X63095142Y-131738571D01*
X63023714Y-131774285D01*
X62845142Y-131774285D01*
X62773714Y-131738571D01*
X62738000Y-131702857D01*
X63380857Y-131024285D02*
X63630857Y-131774285D01*
X63880857Y-131024285D01*
D11*
X85598095Y-124245714D02*
X85598095Y-124912380D01*
X85360000Y-123864761D02*
X85121904Y-124579047D01*
X85740952Y-124579047D01*
X86026666Y-123912380D02*
X86693333Y-123912380D01*
X86264761Y-124912380D01*
X87264761Y-123912380D02*
X87360000Y-123912380D01*
X87455238Y-123960000D01*
X87502857Y-124007619D01*
X87550476Y-124102857D01*
X87598095Y-124293333D01*
X87598095Y-124531428D01*
X87550476Y-124721904D01*
X87502857Y-124817142D01*
X87455238Y-124864761D01*
X87360000Y-124912380D01*
X87264761Y-124912380D01*
X87169523Y-124864761D01*
X87121904Y-124817142D01*
X87074285Y-124721904D01*
X87026666Y-124531428D01*
X87026666Y-124293333D01*
X87074285Y-124102857D01*
X87121904Y-124007619D01*
X87169523Y-123960000D01*
X87264761Y-123912380D01*
X72731428Y-124245714D02*
X72731428Y-124912380D01*
X72493333Y-123864761D02*
X72255238Y-124579047D01*
X72874285Y-124579047D01*
X73255238Y-124817142D02*
X73302857Y-124864761D01*
X73255238Y-124912380D01*
X73207619Y-124864761D01*
X73255238Y-124817142D01*
X73255238Y-124912380D01*
X73636190Y-123912380D02*
X74302857Y-123912380D01*
X73874285Y-124912380D01*
X74683809Y-124912380D02*
X74683809Y-123912380D01*
X74779047Y-124531428D02*
X75064761Y-124912380D01*
X75064761Y-124245714D02*
X74683809Y-124626666D01*
X73540952Y-119832380D02*
X72969523Y-119832380D01*
X73255238Y-119832380D02*
X73255238Y-118832380D01*
X73160000Y-118975238D01*
X73064761Y-119070476D01*
X72969523Y-119118095D01*
X73969523Y-119832380D02*
X73969523Y-118832380D01*
X74064761Y-119451428D02*
X74350476Y-119832380D01*
X74350476Y-119165714D02*
X73969523Y-119546666D01*
X73064761Y-114752380D02*
X72493333Y-114752380D01*
X72779047Y-114752380D02*
X72779047Y-113752380D01*
X72683809Y-113895238D01*
X72588571Y-113990476D01*
X72493333Y-114038095D01*
X73683809Y-113752380D02*
X73779047Y-113752380D01*
X73874285Y-113800000D01*
X73921904Y-113847619D01*
X73969523Y-113942857D01*
X74017142Y-114133333D01*
X74017142Y-114371428D01*
X73969523Y-114561904D01*
X73921904Y-114657142D01*
X73874285Y-114704761D01*
X73779047Y-114752380D01*
X73683809Y-114752380D01*
X73588571Y-114704761D01*
X73540952Y-114657142D01*
X73493333Y-114561904D01*
X73445714Y-114371428D01*
X73445714Y-114133333D01*
X73493333Y-113942857D01*
X73540952Y-113847619D01*
X73588571Y-113800000D01*
X73683809Y-113752380D01*
X74445714Y-114752380D02*
X74445714Y-113752380D01*
X74540952Y-114371428D02*
X74826666Y-114752380D01*
X74826666Y-114085714D02*
X74445714Y-114466666D01*
X72017142Y-108767619D02*
X72064761Y-108720000D01*
X72160000Y-108672380D01*
X72398095Y-108672380D01*
X72493333Y-108720000D01*
X72540952Y-108767619D01*
X72588571Y-108862857D01*
X72588571Y-108958095D01*
X72540952Y-109100952D01*
X71969523Y-109672380D01*
X72588571Y-109672380D01*
X72969523Y-108767619D02*
X73017142Y-108720000D01*
X73112380Y-108672380D01*
X73350476Y-108672380D01*
X73445714Y-108720000D01*
X73493333Y-108767619D01*
X73540952Y-108862857D01*
X73540952Y-108958095D01*
X73493333Y-109100952D01*
X72921904Y-109672380D01*
X73540952Y-109672380D01*
X74160000Y-108672380D02*
X74255238Y-108672380D01*
X74350476Y-108720000D01*
X74398095Y-108767619D01*
X74445714Y-108862857D01*
X74493333Y-109053333D01*
X74493333Y-109291428D01*
X74445714Y-109481904D01*
X74398095Y-109577142D01*
X74350476Y-109624761D01*
X74255238Y-109672380D01*
X74160000Y-109672380D01*
X74064761Y-109624761D01*
X74017142Y-109577142D01*
X73969523Y-109481904D01*
X73921904Y-109291428D01*
X73921904Y-109053333D01*
X73969523Y-108862857D01*
X74017142Y-108767619D01*
X74064761Y-108720000D01*
X74160000Y-108672380D01*
X74921904Y-109672380D02*
X74921904Y-108672380D01*
X75017142Y-109291428D02*
X75302857Y-109672380D01*
X75302857Y-109005714D02*
X74921904Y-109386666D01*
X73493333Y-103592380D02*
X73017142Y-103592380D01*
X72969523Y-104068571D01*
X73017142Y-104020952D01*
X73112380Y-103973333D01*
X73350476Y-103973333D01*
X73445714Y-104020952D01*
X73493333Y-104068571D01*
X73540952Y-104163809D01*
X73540952Y-104401904D01*
X73493333Y-104497142D01*
X73445714Y-104544761D01*
X73350476Y-104592380D01*
X73112380Y-104592380D01*
X73017142Y-104544761D01*
X72969523Y-104497142D01*
X73969523Y-104592380D02*
X73969523Y-103592380D01*
X74064761Y-104211428D02*
X74350476Y-104592380D01*
X74350476Y-103925714D02*
X73969523Y-104306666D01*
X73064761Y-99512380D02*
X72493333Y-99512380D01*
X72779047Y-99512380D02*
X72779047Y-98512380D01*
X72683809Y-98655238D01*
X72588571Y-98750476D01*
X72493333Y-98798095D01*
X73683809Y-98512380D02*
X73779047Y-98512380D01*
X73874285Y-98560000D01*
X73921904Y-98607619D01*
X73969523Y-98702857D01*
X74017142Y-98893333D01*
X74017142Y-99131428D01*
X73969523Y-99321904D01*
X73921904Y-99417142D01*
X73874285Y-99464761D01*
X73779047Y-99512380D01*
X73683809Y-99512380D01*
X73588571Y-99464761D01*
X73540952Y-99417142D01*
X73493333Y-99321904D01*
X73445714Y-99131428D01*
X73445714Y-98893333D01*
X73493333Y-98702857D01*
X73540952Y-98607619D01*
X73588571Y-98560000D01*
X73683809Y-98512380D01*
X74445714Y-99512380D02*
X74445714Y-98512380D01*
X74540952Y-99131428D02*
X74826666Y-99512380D01*
X74826666Y-98845714D02*
X74445714Y-99226666D01*
X60269523Y-124007619D02*
X60317142Y-123960000D01*
X60412380Y-123912380D01*
X60650476Y-123912380D01*
X60745714Y-123960000D01*
X60793333Y-124007619D01*
X60840952Y-124102857D01*
X60840952Y-124198095D01*
X60793333Y-124340952D01*
X60221904Y-124912380D01*
X60840952Y-124912380D01*
X61269523Y-124912380D02*
X61269523Y-123912380D01*
X61364761Y-124531428D02*
X61650476Y-124912380D01*
X61650476Y-124245714D02*
X61269523Y-124626666D01*
X59793333Y-118927619D02*
X59840952Y-118880000D01*
X59936190Y-118832380D01*
X60174285Y-118832380D01*
X60269523Y-118880000D01*
X60317142Y-118927619D01*
X60364761Y-119022857D01*
X60364761Y-119118095D01*
X60317142Y-119260952D01*
X59745714Y-119832380D01*
X60364761Y-119832380D01*
X60983809Y-118832380D02*
X61079047Y-118832380D01*
X61174285Y-118880000D01*
X61221904Y-118927619D01*
X61269523Y-119022857D01*
X61317142Y-119213333D01*
X61317142Y-119451428D01*
X61269523Y-119641904D01*
X61221904Y-119737142D01*
X61174285Y-119784761D01*
X61079047Y-119832380D01*
X60983809Y-119832380D01*
X60888571Y-119784761D01*
X60840952Y-119737142D01*
X60793333Y-119641904D01*
X60745714Y-119451428D01*
X60745714Y-119213333D01*
X60793333Y-119022857D01*
X60840952Y-118927619D01*
X60888571Y-118880000D01*
X60983809Y-118832380D01*
X61745714Y-119832380D02*
X61745714Y-118832380D01*
X61840952Y-119451428D02*
X62126666Y-119832380D01*
X62126666Y-119165714D02*
X61745714Y-119546666D01*
X59888571Y-114752380D02*
X59317142Y-114752380D01*
X59602857Y-114752380D02*
X59602857Y-113752380D01*
X59507619Y-113895238D01*
X59412380Y-113990476D01*
X59317142Y-114038095D01*
X60507619Y-113752380D02*
X60602857Y-113752380D01*
X60698095Y-113800000D01*
X60745714Y-113847619D01*
X60793333Y-113942857D01*
X60840952Y-114133333D01*
X60840952Y-114371428D01*
X60793333Y-114561904D01*
X60745714Y-114657142D01*
X60698095Y-114704761D01*
X60602857Y-114752380D01*
X60507619Y-114752380D01*
X60412380Y-114704761D01*
X60364761Y-114657142D01*
X60317142Y-114561904D01*
X60269523Y-114371428D01*
X60269523Y-114133333D01*
X60317142Y-113942857D01*
X60364761Y-113847619D01*
X60412380Y-113800000D01*
X60507619Y-113752380D01*
X61460000Y-113752380D02*
X61555238Y-113752380D01*
X61650476Y-113800000D01*
X61698095Y-113847619D01*
X61745714Y-113942857D01*
X61793333Y-114133333D01*
X61793333Y-114371428D01*
X61745714Y-114561904D01*
X61698095Y-114657142D01*
X61650476Y-114704761D01*
X61555238Y-114752380D01*
X61460000Y-114752380D01*
X61364761Y-114704761D01*
X61317142Y-114657142D01*
X61269523Y-114561904D01*
X61221904Y-114371428D01*
X61221904Y-114133333D01*
X61269523Y-113942857D01*
X61317142Y-113847619D01*
X61364761Y-113800000D01*
X61460000Y-113752380D01*
X62221904Y-114752380D02*
X62221904Y-113752380D01*
X62317142Y-114371428D02*
X62602857Y-114752380D01*
X62602857Y-114085714D02*
X62221904Y-114466666D01*
X60364761Y-109672380D02*
X59793333Y-109672380D01*
X60079047Y-109672380D02*
X60079047Y-108672380D01*
X59983809Y-108815238D01*
X59888571Y-108910476D01*
X59793333Y-108958095D01*
X60983809Y-108672380D02*
X61079047Y-108672380D01*
X61174285Y-108720000D01*
X61221904Y-108767619D01*
X61269523Y-108862857D01*
X61317142Y-109053333D01*
X61317142Y-109291428D01*
X61269523Y-109481904D01*
X61221904Y-109577142D01*
X61174285Y-109624761D01*
X61079047Y-109672380D01*
X60983809Y-109672380D01*
X60888571Y-109624761D01*
X60840952Y-109577142D01*
X60793333Y-109481904D01*
X60745714Y-109291428D01*
X60745714Y-109053333D01*
X60793333Y-108862857D01*
X60840952Y-108767619D01*
X60888571Y-108720000D01*
X60983809Y-108672380D01*
X61745714Y-109672380D02*
X61745714Y-108672380D01*
X61840952Y-109291428D02*
X62126666Y-109672380D01*
X62126666Y-109005714D02*
X61745714Y-109386666D01*
X59317142Y-103687619D02*
X59364761Y-103640000D01*
X59460000Y-103592380D01*
X59698095Y-103592380D01*
X59793333Y-103640000D01*
X59840952Y-103687619D01*
X59888571Y-103782857D01*
X59888571Y-103878095D01*
X59840952Y-104020952D01*
X59269523Y-104592380D01*
X59888571Y-104592380D01*
X60269523Y-103687619D02*
X60317142Y-103640000D01*
X60412380Y-103592380D01*
X60650476Y-103592380D01*
X60745714Y-103640000D01*
X60793333Y-103687619D01*
X60840952Y-103782857D01*
X60840952Y-103878095D01*
X60793333Y-104020952D01*
X60221904Y-104592380D01*
X60840952Y-104592380D01*
X61460000Y-103592380D02*
X61555238Y-103592380D01*
X61650476Y-103640000D01*
X61698095Y-103687619D01*
X61745714Y-103782857D01*
X61793333Y-103973333D01*
X61793333Y-104211428D01*
X61745714Y-104401904D01*
X61698095Y-104497142D01*
X61650476Y-104544761D01*
X61555238Y-104592380D01*
X61460000Y-104592380D01*
X61364761Y-104544761D01*
X61317142Y-104497142D01*
X61269523Y-104401904D01*
X61221904Y-104211428D01*
X61221904Y-103973333D01*
X61269523Y-103782857D01*
X61317142Y-103687619D01*
X61364761Y-103640000D01*
X61460000Y-103592380D01*
X62221904Y-104592380D02*
X62221904Y-103592380D01*
X62317142Y-104211428D02*
X62602857Y-104592380D01*
X62602857Y-103925714D02*
X62221904Y-104306666D01*
X59793333Y-98607619D02*
X59840952Y-98560000D01*
X59936190Y-98512380D01*
X60174285Y-98512380D01*
X60269523Y-98560000D01*
X60317142Y-98607619D01*
X60364761Y-98702857D01*
X60364761Y-98798095D01*
X60317142Y-98940952D01*
X59745714Y-99512380D01*
X60364761Y-99512380D01*
X60983809Y-98512380D02*
X61079047Y-98512380D01*
X61174285Y-98560000D01*
X61221904Y-98607619D01*
X61269523Y-98702857D01*
X61317142Y-98893333D01*
X61317142Y-99131428D01*
X61269523Y-99321904D01*
X61221904Y-99417142D01*
X61174285Y-99464761D01*
X61079047Y-99512380D01*
X60983809Y-99512380D01*
X60888571Y-99464761D01*
X60840952Y-99417142D01*
X60793333Y-99321904D01*
X60745714Y-99131428D01*
X60745714Y-98893333D01*
X60793333Y-98702857D01*
X60840952Y-98607619D01*
X60888571Y-98560000D01*
X60983809Y-98512380D01*
X61745714Y-99512380D02*
X61745714Y-98512380D01*
X61840952Y-99131428D02*
X62126666Y-99512380D01*
X62126666Y-98845714D02*
X61745714Y-99226666D01*
X87709523Y-89844571D02*
X88042857Y-89844571D01*
X88185714Y-90368380D02*
X87709523Y-90368380D01*
X87709523Y-89368380D01*
X88185714Y-89368380D01*
X88566666Y-90320761D02*
X88709523Y-90368380D01*
X88947619Y-90368380D01*
X89042857Y-90320761D01*
X89090476Y-90273142D01*
X89138095Y-90177904D01*
X89138095Y-90082666D01*
X89090476Y-89987428D01*
X89042857Y-89939809D01*
X88947619Y-89892190D01*
X88757142Y-89844571D01*
X88661904Y-89796952D01*
X88614285Y-89749333D01*
X88566666Y-89654095D01*
X88566666Y-89558857D01*
X88614285Y-89463619D01*
X88661904Y-89416000D01*
X88757142Y-89368380D01*
X88995238Y-89368380D01*
X89138095Y-89416000D01*
X89566666Y-90368380D02*
X89566666Y-89368380D01*
X89947619Y-89368380D01*
X90042857Y-89416000D01*
X90090476Y-89463619D01*
X90138095Y-89558857D01*
X90138095Y-89701714D01*
X90090476Y-89796952D01*
X90042857Y-89844571D01*
X89947619Y-89892190D01*
X89566666Y-89892190D01*
X87542857Y-84272380D02*
X87542857Y-83272380D01*
X87542857Y-83653333D02*
X87638095Y-83605714D01*
X87828571Y-83605714D01*
X87923809Y-83653333D01*
X87971428Y-83700952D01*
X88019047Y-83796190D01*
X88019047Y-84081904D01*
X87971428Y-84177142D01*
X87923809Y-84224761D01*
X87828571Y-84272380D01*
X87638095Y-84272380D01*
X87542857Y-84224761D01*
X88590476Y-84272380D02*
X88495238Y-84224761D01*
X88447619Y-84129523D01*
X88447619Y-83272380D01*
X89400000Y-83605714D02*
X89400000Y-84272380D01*
X88971428Y-83605714D02*
X88971428Y-84129523D01*
X89019047Y-84224761D01*
X89114285Y-84272380D01*
X89257142Y-84272380D01*
X89352380Y-84224761D01*
X89400000Y-84177142D01*
X90257142Y-84224761D02*
X90161904Y-84272380D01*
X89971428Y-84272380D01*
X89876190Y-84224761D01*
X89828571Y-84129523D01*
X89828571Y-83748571D01*
X89876190Y-83653333D01*
X89971428Y-83605714D01*
X90161904Y-83605714D01*
X90257142Y-83653333D01*
X90304761Y-83748571D01*
X90304761Y-83843809D01*
X89828571Y-83939047D01*
X56253333Y-83605714D02*
X56491428Y-84272380D01*
X56729523Y-83605714D02*
X56491428Y-84272380D01*
X56396190Y-84510476D01*
X56348571Y-84558095D01*
X56253333Y-84605714D01*
X57491428Y-84224761D02*
X57396190Y-84272380D01*
X57205714Y-84272380D01*
X57110476Y-84224761D01*
X57062857Y-84129523D01*
X57062857Y-83748571D01*
X57110476Y-83653333D01*
X57205714Y-83605714D01*
X57396190Y-83605714D01*
X57491428Y-83653333D01*
X57539047Y-83748571D01*
X57539047Y-83843809D01*
X57062857Y-83939047D01*
X58110476Y-84272380D02*
X58015238Y-84224761D01*
X57967619Y-84129523D01*
X57967619Y-83272380D01*
X58634285Y-84272380D02*
X58539047Y-84224761D01*
X58491428Y-84129523D01*
X58491428Y-83272380D01*
X59158095Y-84272380D02*
X59062857Y-84224761D01*
X59015238Y-84177142D01*
X58967619Y-84081904D01*
X58967619Y-83796190D01*
X59015238Y-83700952D01*
X59062857Y-83653333D01*
X59158095Y-83605714D01*
X59300952Y-83605714D01*
X59396190Y-83653333D01*
X59443809Y-83700952D01*
X59491428Y-83796190D01*
X59491428Y-84081904D01*
X59443809Y-84177142D01*
X59396190Y-84224761D01*
X59300952Y-84272380D01*
X59158095Y-84272380D01*
X59824761Y-83605714D02*
X60015238Y-84272380D01*
X60205714Y-83796190D01*
X60396190Y-84272380D01*
X60586666Y-83605714D01*
X77335238Y-83605714D02*
X77335238Y-84415238D01*
X77287619Y-84510476D01*
X77240000Y-84558095D01*
X77144761Y-84605714D01*
X77001904Y-84605714D01*
X76906666Y-84558095D01*
X77335238Y-84224761D02*
X77240000Y-84272380D01*
X77049523Y-84272380D01*
X76954285Y-84224761D01*
X76906666Y-84177142D01*
X76859047Y-84081904D01*
X76859047Y-83796190D01*
X76906666Y-83700952D01*
X76954285Y-83653333D01*
X77049523Y-83605714D01*
X77240000Y-83605714D01*
X77335238Y-83653333D01*
X77811428Y-84272380D02*
X77811428Y-83605714D01*
X77811428Y-83796190D02*
X77859047Y-83700952D01*
X77906666Y-83653333D01*
X78001904Y-83605714D01*
X78097142Y-83605714D01*
X78811428Y-84224761D02*
X78716190Y-84272380D01*
X78525714Y-84272380D01*
X78430476Y-84224761D01*
X78382857Y-84129523D01*
X78382857Y-83748571D01*
X78430476Y-83653333D01*
X78525714Y-83605714D01*
X78716190Y-83605714D01*
X78811428Y-83653333D01*
X78859047Y-83748571D01*
X78859047Y-83843809D01*
X78382857Y-83939047D01*
X79668571Y-84224761D02*
X79573333Y-84272380D01*
X79382857Y-84272380D01*
X79287619Y-84224761D01*
X79240000Y-84129523D01*
X79240000Y-83748571D01*
X79287619Y-83653333D01*
X79382857Y-83605714D01*
X79573333Y-83605714D01*
X79668571Y-83653333D01*
X79716190Y-83748571D01*
X79716190Y-83843809D01*
X79240000Y-83939047D01*
X80144761Y-83605714D02*
X80144761Y-84272380D01*
X80144761Y-83700952D02*
X80192380Y-83653333D01*
X80287619Y-83605714D01*
X80430476Y-83605714D01*
X80525714Y-83653333D01*
X80573333Y-83748571D01*
X80573333Y-84272380D01*
X78573333Y-90368380D02*
X78240000Y-89892190D01*
X78001904Y-90368380D02*
X78001904Y-89368380D01*
X78382857Y-89368380D01*
X78478095Y-89416000D01*
X78525714Y-89463619D01*
X78573333Y-89558857D01*
X78573333Y-89701714D01*
X78525714Y-89796952D01*
X78478095Y-89844571D01*
X78382857Y-89892190D01*
X78001904Y-89892190D01*
X78906666Y-89368380D02*
X79573333Y-90368380D01*
X79573333Y-89368380D02*
X78906666Y-90368380D01*
X67627619Y-84272380D02*
X67627619Y-83605714D01*
X67627619Y-83796190D02*
X67675238Y-83700952D01*
X67722857Y-83653333D01*
X67818095Y-83605714D01*
X67913333Y-83605714D01*
X68627619Y-84224761D02*
X68532380Y-84272380D01*
X68341904Y-84272380D01*
X68246666Y-84224761D01*
X68199047Y-84129523D01*
X68199047Y-83748571D01*
X68246666Y-83653333D01*
X68341904Y-83605714D01*
X68532380Y-83605714D01*
X68627619Y-83653333D01*
X68675238Y-83748571D01*
X68675238Y-83843809D01*
X68199047Y-83939047D01*
X69532380Y-84272380D02*
X69532380Y-83272380D01*
X69532380Y-84224761D02*
X69437142Y-84272380D01*
X69246666Y-84272380D01*
X69151428Y-84224761D01*
X69103809Y-84177142D01*
X69056190Y-84081904D01*
X69056190Y-83796190D01*
X69103809Y-83700952D01*
X69151428Y-83653333D01*
X69246666Y-83605714D01*
X69437142Y-83605714D01*
X69532380Y-83653333D01*
X67818095Y-89368380D02*
X68389523Y-89368380D01*
X68103809Y-90368380D02*
X68103809Y-89368380D01*
X68627619Y-89368380D02*
X69294285Y-90368380D01*
X69294285Y-89368380D02*
X68627619Y-90368380D01*
X56705714Y-89844571D02*
X57039047Y-89844571D01*
X57181904Y-90368380D02*
X56705714Y-90368380D01*
X56705714Y-89368380D01*
X57181904Y-89368380D01*
X57943809Y-89844571D02*
X58086666Y-89892190D01*
X58134285Y-89939809D01*
X58181904Y-90035047D01*
X58181904Y-90177904D01*
X58134285Y-90273142D01*
X58086666Y-90320761D01*
X57991428Y-90368380D01*
X57610476Y-90368380D01*
X57610476Y-89368380D01*
X57943809Y-89368380D01*
X58039047Y-89416000D01*
X58086666Y-89463619D01*
X58134285Y-89558857D01*
X58134285Y-89654095D01*
X58086666Y-89749333D01*
X58039047Y-89796952D01*
X57943809Y-89844571D01*
X57610476Y-89844571D01*
X58610476Y-89368380D02*
X58610476Y-90177904D01*
X58658095Y-90273142D01*
X58705714Y-90320761D01*
X58800952Y-90368380D01*
X58991428Y-90368380D01*
X59086666Y-90320761D01*
X59134285Y-90273142D01*
X59181904Y-90177904D01*
X59181904Y-89368380D01*
X59610476Y-90320761D02*
X59753333Y-90368380D01*
X59991428Y-90368380D01*
X60086666Y-90320761D01*
X60134285Y-90273142D01*
X60181904Y-90177904D01*
X60181904Y-90082666D01*
X60134285Y-89987428D01*
X60086666Y-89939809D01*
X59991428Y-89892190D01*
X59800952Y-89844571D01*
X59705714Y-89796952D01*
X59658095Y-89749333D01*
X59610476Y-89654095D01*
X59610476Y-89558857D01*
X59658095Y-89463619D01*
X59705714Y-89416000D01*
X59800952Y-89368380D01*
X60039047Y-89368380D01*
X60181904Y-89416000D01*
X84272380Y-89495238D02*
X84272380Y-90066666D01*
X84272380Y-89780952D02*
X83272380Y-89780952D01*
X83415238Y-89876190D01*
X83510476Y-89971428D01*
X83558095Y-90066666D01*
X83272380Y-88876190D02*
X83272380Y-88780952D01*
X83320000Y-88685714D01*
X83367619Y-88638095D01*
X83462857Y-88590476D01*
X83653333Y-88542857D01*
X83891428Y-88542857D01*
X84081904Y-88590476D01*
X84177142Y-88638095D01*
X84224761Y-88685714D01*
X84272380Y-88780952D01*
X84272380Y-88876190D01*
X84224761Y-88971428D01*
X84177142Y-89019047D01*
X84081904Y-89066666D01*
X83891428Y-89114285D01*
X83653333Y-89114285D01*
X83462857Y-89066666D01*
X83367619Y-89019047D01*
X83320000Y-88971428D01*
X83272380Y-88876190D01*
X84272380Y-88114285D02*
X83272380Y-88114285D01*
X83891428Y-88019047D02*
X84272380Y-87733333D01*
X83605714Y-87733333D02*
X83986666Y-88114285D01*
X73207619Y-90138095D02*
X73160000Y-90090476D01*
X73112380Y-89995238D01*
X73112380Y-89757142D01*
X73160000Y-89661904D01*
X73207619Y-89614285D01*
X73302857Y-89566666D01*
X73398095Y-89566666D01*
X73540952Y-89614285D01*
X74112380Y-90185714D01*
X74112380Y-89566666D01*
X73207619Y-89185714D02*
X73160000Y-89138095D01*
X73112380Y-89042857D01*
X73112380Y-88804761D01*
X73160000Y-88709523D01*
X73207619Y-88661904D01*
X73302857Y-88614285D01*
X73398095Y-88614285D01*
X73540952Y-88661904D01*
X74112380Y-89233333D01*
X74112380Y-88614285D01*
X73112380Y-87995238D02*
X73112380Y-87900000D01*
X73160000Y-87804761D01*
X73207619Y-87757142D01*
X73302857Y-87709523D01*
X73493333Y-87661904D01*
X73731428Y-87661904D01*
X73921904Y-87709523D01*
X74017142Y-87757142D01*
X74064761Y-87804761D01*
X74112380Y-87900000D01*
X74112380Y-87995238D01*
X74064761Y-88090476D01*
X74017142Y-88138095D01*
X73921904Y-88185714D01*
X73731428Y-88233333D01*
X73493333Y-88233333D01*
X73302857Y-88185714D01*
X73207619Y-88138095D01*
X73160000Y-88090476D01*
X73112380Y-87995238D01*
X63285714Y-89661904D02*
X63952380Y-89661904D01*
X62904761Y-89900000D02*
X63619047Y-90138095D01*
X63619047Y-89519047D01*
X62952380Y-89233333D02*
X62952380Y-88566666D01*
X63952380Y-88995238D01*
X62952380Y-87995238D02*
X62952380Y-87900000D01*
X63000000Y-87804761D01*
X63047619Y-87757142D01*
X63142857Y-87709523D01*
X63333333Y-87661904D01*
X63571428Y-87661904D01*
X63761904Y-87709523D01*
X63857142Y-87757142D01*
X63904761Y-87804761D01*
X63952380Y-87900000D01*
X63952380Y-87995238D01*
X63904761Y-88090476D01*
X63857142Y-88138095D01*
X63761904Y-88185714D01*
X63571428Y-88233333D01*
X63333333Y-88233333D01*
X63142857Y-88185714D01*
X63047619Y-88138095D01*
X63000000Y-88090476D01*
X62952380Y-87995238D01*
X53792380Y-89495238D02*
X53792380Y-90066666D01*
X53792380Y-89780952D02*
X52792380Y-89780952D01*
X52935238Y-89876190D01*
X53030476Y-89971428D01*
X53078095Y-90066666D01*
X52792380Y-88876190D02*
X52792380Y-88780952D01*
X52840000Y-88685714D01*
X52887619Y-88638095D01*
X52982857Y-88590476D01*
X53173333Y-88542857D01*
X53411428Y-88542857D01*
X53601904Y-88590476D01*
X53697142Y-88638095D01*
X53744761Y-88685714D01*
X53792380Y-88780952D01*
X53792380Y-88876190D01*
X53744761Y-88971428D01*
X53697142Y-89019047D01*
X53601904Y-89066666D01*
X53411428Y-89114285D01*
X53173333Y-89114285D01*
X52982857Y-89066666D01*
X52887619Y-89019047D01*
X52840000Y-88971428D01*
X52792380Y-88876190D01*
X53792380Y-88114285D02*
X52792380Y-88114285D01*
X53411428Y-88019047D02*
X53792380Y-87733333D01*
X53125714Y-87733333D02*
X53506666Y-88114285D01*
X42799047Y-104973428D02*
X43560952Y-104973428D01*
X43180000Y-105354380D02*
X43180000Y-104592476D01*
X47879047Y-104973428D02*
X48640952Y-104973428D01*
X49347428Y-91249714D02*
X49347428Y-91583047D01*
X48823619Y-91725904D02*
X48823619Y-91249714D01*
X49823619Y-91249714D01*
X49823619Y-91725904D01*
X49347428Y-92487809D02*
X49299809Y-92630666D01*
X49252190Y-92678285D01*
X49156952Y-92725904D01*
X49014095Y-92725904D01*
X48918857Y-92678285D01*
X48871238Y-92630666D01*
X48823619Y-92535428D01*
X48823619Y-92154476D01*
X49823619Y-92154476D01*
X49823619Y-92487809D01*
X49776000Y-92583047D01*
X49728380Y-92630666D01*
X49633142Y-92678285D01*
X49537904Y-92678285D01*
X49442666Y-92630666D01*
X49395047Y-92583047D01*
X49347428Y-92487809D01*
X49347428Y-92154476D01*
X49823619Y-93154476D02*
X49014095Y-93154476D01*
X48918857Y-93202095D01*
X48871238Y-93249714D01*
X48823619Y-93344952D01*
X48823619Y-93535428D01*
X48871238Y-93630666D01*
X48918857Y-93678285D01*
X49014095Y-93725904D01*
X49823619Y-93725904D01*
X48871238Y-94154476D02*
X48823619Y-94297333D01*
X48823619Y-94535428D01*
X48871238Y-94630666D01*
X48918857Y-94678285D01*
X49014095Y-94725904D01*
X49109333Y-94725904D01*
X49204571Y-94678285D01*
X49252190Y-94630666D01*
X49299809Y-94535428D01*
X49347428Y-94344952D01*
X49395047Y-94249714D01*
X49442666Y-94202095D01*
X49537904Y-94154476D01*
X49633142Y-94154476D01*
X49728380Y-94202095D01*
X49776000Y-94249714D01*
X49823619Y-94344952D01*
X49823619Y-94583047D01*
X49776000Y-94725904D01*
D13*
%TO.C,4N25*%
X87360000Y-119440000D02*
X89010000Y-119440000D01*
X89010000Y-119440000D02*
X89010000Y-111700000D01*
X89010000Y-111700000D02*
X83710000Y-111700000D01*
X83710000Y-111700000D02*
X83710000Y-119440000D01*
X83710000Y-119440000D02*
X85360000Y-119440000D01*
X85360000Y-119440000D02*
G75*
G02*
X87360000Y-119440000I1000000J0D01*
G01*
%TO.C,C4*%
X105770000Y-118777936D02*
X105770000Y-119982064D01*
X107590000Y-118777936D02*
X107590000Y-119982064D01*
%TO.C,C2*%
X107590000Y-135222064D02*
X107590000Y-134017936D01*
X105770000Y-135222064D02*
X105770000Y-134017936D01*
%TO.C,R21*%
X119020000Y-104807936D02*
X119020000Y-106012064D01*
X117200000Y-104807936D02*
X117200000Y-106012064D01*
%TO.C,R20*%
X96160000Y-92107936D02*
X96160000Y-93312064D01*
X94340000Y-92107936D02*
X94340000Y-93312064D01*
%TO.C,R18*%
X94340000Y-99662064D02*
X94340000Y-98457936D01*
X96160000Y-99662064D02*
X96160000Y-98457936D01*
%TO.C,AMS1117*%
X113670000Y-130410000D02*
X113670000Y-129150000D01*
X113670000Y-123590000D02*
X113670000Y-124850000D01*
X109910000Y-130410000D02*
X113670000Y-130410000D01*
X107660000Y-123590000D02*
X113670000Y-123590000D01*
%TO.C,ESP-12F*%
X98560000Y-83130000D02*
X114800000Y-83130000D01*
X114800000Y-83130000D02*
X114800000Y-90750000D01*
X114800000Y-106750000D02*
X114800000Y-107370000D01*
X114800000Y-107370000D02*
X112680000Y-107370000D01*
X100680000Y-107370000D02*
X98560000Y-107370000D01*
X98560000Y-107370000D02*
X98560000Y-106750000D01*
X98560000Y-90750000D02*
X98560000Y-83130000D01*
X98560000Y-90750000D02*
X97950000Y-90750000D01*
%TO.C,L7805*%
X50840000Y-117482000D02*
X40600000Y-117482000D01*
X50840000Y-133372000D02*
X40600000Y-133372000D01*
X50840000Y-133372000D02*
X50840000Y-117482000D01*
X40600000Y-133372000D02*
X40600000Y-117482000D01*
X48260000Y-117482000D02*
X48260000Y-114942000D01*
X45720000Y-117482000D02*
X45720000Y-114942000D01*
X43180000Y-117482000D02*
X43180000Y-114942000D01*
%TO.C,4N25*%
X75930000Y-138490000D02*
X77580000Y-138490000D01*
X77580000Y-138490000D02*
X77580000Y-130750000D01*
X77580000Y-130750000D02*
X72280000Y-130750000D01*
X72280000Y-130750000D02*
X72280000Y-138490000D01*
X72280000Y-138490000D02*
X73930000Y-138490000D01*
X73930000Y-138490000D02*
G75*
G02*
X75930000Y-138490000I1000000J0D01*
G01*
%TO.C,LM393P*%
X85360000Y-97730000D02*
X83710000Y-97730000D01*
X83710000Y-97730000D02*
X83710000Y-108010000D01*
X83710000Y-108010000D02*
X89010000Y-108010000D01*
X89010000Y-108010000D02*
X89010000Y-97730000D01*
X89010000Y-97730000D02*
X87360000Y-97730000D01*
X87360000Y-97730000D02*
G75*
G02*
X85360000Y-97730000I-1000000J0D01*
G01*
%TO.C,R19*%
X84860000Y-85630000D02*
X85190000Y-85630000D01*
X85190000Y-85630000D02*
X85190000Y-92170000D01*
X85190000Y-92170000D02*
X84860000Y-92170000D01*
X82780000Y-85630000D02*
X82450000Y-85630000D01*
X82450000Y-85630000D02*
X82450000Y-92170000D01*
X82450000Y-92170000D02*
X82780000Y-92170000D01*
%TO.C,R17*%
X54380000Y-85630000D02*
X54710000Y-85630000D01*
X54710000Y-85630000D02*
X54710000Y-92170000D01*
X54710000Y-92170000D02*
X54380000Y-92170000D01*
X52300000Y-85630000D02*
X51970000Y-85630000D01*
X51970000Y-85630000D02*
X51970000Y-92170000D01*
X51970000Y-92170000D02*
X52300000Y-92170000D01*
%TO.C,R16*%
X74700000Y-85630000D02*
X75030000Y-85630000D01*
X75030000Y-85630000D02*
X75030000Y-92170000D01*
X75030000Y-92170000D02*
X74700000Y-92170000D01*
X72620000Y-85630000D02*
X72290000Y-85630000D01*
X72290000Y-85630000D02*
X72290000Y-92170000D01*
X72290000Y-92170000D02*
X72620000Y-92170000D01*
%TO.C,R15*%
X76930000Y-120420000D02*
X76930000Y-120750000D01*
X76930000Y-120750000D02*
X70390000Y-120750000D01*
X70390000Y-120750000D02*
X70390000Y-120420000D01*
X76930000Y-118340000D02*
X76930000Y-118010000D01*
X76930000Y-118010000D02*
X70390000Y-118010000D01*
X70390000Y-118010000D02*
X70390000Y-118340000D01*
%TO.C,R14*%
X76930000Y-115340000D02*
X76930000Y-115670000D01*
X76930000Y-115670000D02*
X70390000Y-115670000D01*
X70390000Y-115670000D02*
X70390000Y-115340000D01*
X76930000Y-113260000D02*
X76930000Y-112930000D01*
X76930000Y-112930000D02*
X70390000Y-112930000D01*
X70390000Y-112930000D02*
X70390000Y-113260000D01*
%TO.C,R13*%
X89630000Y-125500000D02*
X89630000Y-125830000D01*
X89630000Y-125830000D02*
X83090000Y-125830000D01*
X83090000Y-125830000D02*
X83090000Y-125500000D01*
X89630000Y-123420000D02*
X89630000Y-123090000D01*
X89630000Y-123090000D02*
X83090000Y-123090000D01*
X83090000Y-123090000D02*
X83090000Y-123420000D01*
%TO.C,R12*%
X76930000Y-125500000D02*
X76930000Y-125830000D01*
X76930000Y-125830000D02*
X70390000Y-125830000D01*
X70390000Y-125830000D02*
X70390000Y-125500000D01*
X76930000Y-123420000D02*
X76930000Y-123090000D01*
X76930000Y-123090000D02*
X70390000Y-123090000D01*
X70390000Y-123090000D02*
X70390000Y-123420000D01*
%TO.C,R11*%
X64230000Y-110260000D02*
X64230000Y-110590000D01*
X64230000Y-110590000D02*
X57690000Y-110590000D01*
X57690000Y-110590000D02*
X57690000Y-110260000D01*
X64230000Y-108180000D02*
X64230000Y-107850000D01*
X64230000Y-107850000D02*
X57690000Y-107850000D01*
X57690000Y-107850000D02*
X57690000Y-108180000D01*
%TO.C,R10*%
X70390000Y-108180000D02*
X70390000Y-107850000D01*
X70390000Y-107850000D02*
X76930000Y-107850000D01*
X76930000Y-107850000D02*
X76930000Y-108180000D01*
X70390000Y-110260000D02*
X70390000Y-110590000D01*
X70390000Y-110590000D02*
X76930000Y-110590000D01*
X76930000Y-110590000D02*
X76930000Y-110260000D01*
%TO.C,R9*%
X64230000Y-105180000D02*
X64230000Y-105510000D01*
X64230000Y-105510000D02*
X57690000Y-105510000D01*
X57690000Y-105510000D02*
X57690000Y-105180000D01*
X64230000Y-103100000D02*
X64230000Y-102770000D01*
X64230000Y-102770000D02*
X57690000Y-102770000D01*
X57690000Y-102770000D02*
X57690000Y-103100000D01*
%TO.C,R8*%
X64230000Y-100100000D02*
X64230000Y-100430000D01*
X64230000Y-100430000D02*
X57690000Y-100430000D01*
X57690000Y-100430000D02*
X57690000Y-100100000D01*
X64230000Y-98020000D02*
X64230000Y-97690000D01*
X64230000Y-97690000D02*
X57690000Y-97690000D01*
X57690000Y-97690000D02*
X57690000Y-98020000D01*
%TO.C,R7*%
X70390000Y-103100000D02*
X70390000Y-102770000D01*
X70390000Y-102770000D02*
X76930000Y-102770000D01*
X76930000Y-102770000D02*
X76930000Y-103100000D01*
X70390000Y-105180000D02*
X70390000Y-105510000D01*
X70390000Y-105510000D02*
X76930000Y-105510000D01*
X76930000Y-105510000D02*
X76930000Y-105180000D01*
%TO.C,R6*%
X64540000Y-85630000D02*
X64870000Y-85630000D01*
X64870000Y-85630000D02*
X64870000Y-92170000D01*
X64870000Y-92170000D02*
X64540000Y-92170000D01*
X62460000Y-85630000D02*
X62130000Y-85630000D01*
X62130000Y-85630000D02*
X62130000Y-92170000D01*
X62130000Y-92170000D02*
X62460000Y-92170000D01*
%TO.C,R5*%
X57690000Y-123420000D02*
X57690000Y-123090000D01*
X57690000Y-123090000D02*
X64230000Y-123090000D01*
X64230000Y-123090000D02*
X64230000Y-123420000D01*
X57690000Y-125500000D02*
X57690000Y-125830000D01*
X57690000Y-125830000D02*
X64230000Y-125830000D01*
X64230000Y-125830000D02*
X64230000Y-125500000D01*
%TO.C,R4*%
X57690000Y-118340000D02*
X57690000Y-118010000D01*
X57690000Y-118010000D02*
X64230000Y-118010000D01*
X64230000Y-118010000D02*
X64230000Y-118340000D01*
X57690000Y-120420000D02*
X57690000Y-120750000D01*
X57690000Y-120750000D02*
X64230000Y-120750000D01*
X64230000Y-120750000D02*
X64230000Y-120420000D01*
%TO.C,R3*%
X64230000Y-115340000D02*
X64230000Y-115670000D01*
X64230000Y-115670000D02*
X57690000Y-115670000D01*
X57690000Y-115670000D02*
X57690000Y-115340000D01*
X64230000Y-113260000D02*
X64230000Y-112930000D01*
X64230000Y-112930000D02*
X57690000Y-112930000D01*
X57690000Y-112930000D02*
X57690000Y-113260000D01*
%TO.C,R2*%
X70390000Y-98020000D02*
X70390000Y-97690000D01*
X70390000Y-97690000D02*
X76930000Y-97690000D01*
X76930000Y-97690000D02*
X76930000Y-98020000D01*
X70390000Y-100100000D02*
X70390000Y-100430000D01*
X70390000Y-100430000D02*
X76930000Y-100430000D01*
X76930000Y-100430000D02*
X76930000Y-100100000D01*
%TO.C,R1*%
X60420000Y-135660000D02*
X60420000Y-135990000D01*
X60420000Y-135990000D02*
X53880000Y-135990000D01*
X53880000Y-135990000D02*
X53880000Y-135660000D01*
X60420000Y-133580000D02*
X60420000Y-133250000D01*
X60420000Y-133250000D02*
X53880000Y-133250000D01*
X53880000Y-133250000D02*
X53880000Y-133580000D01*
%TO.C,BC337*%
X64190000Y-134090000D02*
X64190000Y-137690000D01*
X64201522Y-137728478D02*
G75*
G03*
X68640000Y-135890000I1838478J1838478D01*
G01*
X64201522Y-134051522D02*
G75*
G02*
X68640000Y-135890000I1838478J-1838478D01*
G01*
%TO.C,Prog*%
X120590000Y-114614000D02*
X123250000Y-114614000D01*
X120590000Y-106934000D02*
X120590000Y-114614000D01*
X123250000Y-106934000D02*
X123250000Y-114614000D01*
X120590000Y-106934000D02*
X123250000Y-106934000D01*
X120590000Y-105664000D02*
X120590000Y-104334000D01*
X120590000Y-104334000D02*
X121920000Y-104334000D01*
%TO.C,Service*%
X120590000Y-100390000D02*
X123250000Y-100390000D01*
X120590000Y-97790000D02*
X120590000Y-100390000D01*
X123250000Y-97790000D02*
X123250000Y-100390000D01*
X120590000Y-97790000D02*
X123250000Y-97790000D01*
X120590000Y-96520000D02*
X120590000Y-95190000D01*
X120590000Y-95190000D02*
X121920000Y-95190000D01*
%TO.C,PWR*%
X99000000Y-138236000D02*
X101660000Y-138236000D01*
X99000000Y-135636000D02*
X99000000Y-138236000D01*
X101660000Y-135636000D02*
X101660000Y-138236000D01*
X99000000Y-135636000D02*
X101660000Y-135636000D01*
X99000000Y-134366000D02*
X99000000Y-133036000D01*
X99000000Y-133036000D02*
X100330000Y-133036000D01*
D11*
%TO.C,micro USB*%
X87036000Y-135240000D02*
X87036000Y-136640000D01*
X87036000Y-139040000D02*
X87036000Y-139190000D01*
X87036000Y-139190000D02*
X87336000Y-139190000D01*
X87336000Y-139190000D02*
X87336000Y-139640000D01*
X95036000Y-139640000D02*
X95036000Y-139190000D01*
X95036000Y-139190000D02*
X95336000Y-139190000D01*
X95336000Y-139190000D02*
X95336000Y-139040000D01*
X95336000Y-136640000D02*
X95336000Y-135240000D01*
X90111000Y-133065000D02*
X89386000Y-133065000D01*
X89386000Y-133065000D02*
X89386000Y-133490000D01*
X89386000Y-133490000D02*
X88386000Y-133490000D01*
X92986000Y-133490000D02*
X93986000Y-133490000D01*
D13*
%TO.C,UART*%
X120590000Y-129346000D02*
X123250000Y-129346000D01*
X120590000Y-121666000D02*
X120590000Y-129346000D01*
X123250000Y-121666000D02*
X123250000Y-129346000D01*
X120590000Y-121666000D02*
X123250000Y-121666000D01*
X120590000Y-120396000D02*
X120590000Y-119066000D01*
X120590000Y-119066000D02*
X121920000Y-119066000D01*
%TO.C,J1*%
X46005000Y-94940000D02*
G75*
G03*
X46005000Y-94940000I-1555000J0D01*
G01*
X42350000Y-89280000D02*
X42350000Y-97100000D01*
X47910000Y-89280000D02*
X47910000Y-97100000D01*
X40790000Y-89280000D02*
X40790000Y-97100000D01*
X47910000Y-89280000D02*
X40790000Y-89280000D01*
X47910000Y-97100000D02*
X40790000Y-97100000D01*
X42290000Y-89040000D02*
X40550000Y-89040000D01*
X40550000Y-89040000D02*
X40550000Y-90540000D01*
X42894508Y-91467011D02*
G75*
G02*
X43018000Y-90832000I1555492J27011D01*
G01*
X43842258Y-90007891D02*
G75*
G02*
X45058000Y-90008000I607742J-1432109D01*
G01*
X45882109Y-90832258D02*
G75*
G02*
X45882000Y-92048000I-1432109J-607742D01*
G01*
X45057742Y-92872109D02*
G75*
G02*
X43842000Y-92872000I-607742J1432109D01*
G01*
X43018615Y-92047587D02*
G75*
G02*
X42895000Y-91440000I1431385J607587D01*
G01*
%TO.C,D6*%
X90460000Y-84642000D02*
X90460000Y-80782000D01*
X87340000Y-84642000D02*
X87340000Y-80782000D01*
X90460000Y-84642000D02*
X87340000Y-84642000D01*
X86940000Y-84642000D02*
X86940000Y-83522000D01*
X86940000Y-83522000D02*
X87340000Y-83522000D01*
X87340000Y-83522000D02*
X87340000Y-84642000D01*
X87340000Y-84642000D02*
X86940000Y-84642000D01*
X90170000Y-84772000D02*
X90170000Y-84642000D01*
X90170000Y-84642000D02*
X90170000Y-84642000D01*
X90170000Y-84642000D02*
X90170000Y-84772000D01*
X90170000Y-84772000D02*
X90170000Y-84772000D01*
X87630000Y-84772000D02*
X87630000Y-84642000D01*
X87630000Y-84642000D02*
X87630000Y-84642000D01*
X87630000Y-84642000D02*
X87630000Y-84772000D01*
X87630000Y-84772000D02*
X87630000Y-84772000D01*
X87340000Y-80782000D02*
G75*
G02*
X90460000Y-80782000I1560000J0D01*
G01*
%TO.C,D5*%
X59980000Y-84642000D02*
X59980000Y-80782000D01*
X56860000Y-84642000D02*
X56860000Y-80782000D01*
X59980000Y-84642000D02*
X56860000Y-84642000D01*
X56460000Y-84642000D02*
X56460000Y-83522000D01*
X56460000Y-83522000D02*
X56860000Y-83522000D01*
X56860000Y-83522000D02*
X56860000Y-84642000D01*
X56860000Y-84642000D02*
X56460000Y-84642000D01*
X59690000Y-84772000D02*
X59690000Y-84642000D01*
X59690000Y-84642000D02*
X59690000Y-84642000D01*
X59690000Y-84642000D02*
X59690000Y-84772000D01*
X59690000Y-84772000D02*
X59690000Y-84772000D01*
X57150000Y-84772000D02*
X57150000Y-84642000D01*
X57150000Y-84642000D02*
X57150000Y-84642000D01*
X57150000Y-84642000D02*
X57150000Y-84772000D01*
X57150000Y-84772000D02*
X57150000Y-84772000D01*
X56860000Y-80782000D02*
G75*
G02*
X59980000Y-80782000I1560000J0D01*
G01*
%TO.C,D4*%
X80300000Y-84642000D02*
X80300000Y-80782000D01*
X77180000Y-84642000D02*
X77180000Y-80782000D01*
X80300000Y-84642000D02*
X77180000Y-84642000D01*
X76780000Y-84642000D02*
X76780000Y-83522000D01*
X76780000Y-83522000D02*
X77180000Y-83522000D01*
X77180000Y-83522000D02*
X77180000Y-84642000D01*
X77180000Y-84642000D02*
X76780000Y-84642000D01*
X80010000Y-84772000D02*
X80010000Y-84642000D01*
X80010000Y-84642000D02*
X80010000Y-84642000D01*
X80010000Y-84642000D02*
X80010000Y-84772000D01*
X80010000Y-84772000D02*
X80010000Y-84772000D01*
X77470000Y-84772000D02*
X77470000Y-84642000D01*
X77470000Y-84642000D02*
X77470000Y-84642000D01*
X77470000Y-84642000D02*
X77470000Y-84772000D01*
X77470000Y-84772000D02*
X77470000Y-84772000D01*
X77180000Y-80782000D02*
G75*
G02*
X80300000Y-80782000I1560000J0D01*
G01*
%TO.C,DF10M*%
X41280000Y-100100000D02*
X41280000Y-101870000D01*
X49880000Y-100100000D02*
X41280000Y-100100000D01*
X49880000Y-105640000D02*
X49880000Y-100100000D01*
X41280000Y-105640000D02*
X49880000Y-105640000D01*
X41280000Y-103870000D02*
X41280000Y-105640000D01*
X41280000Y-101870000D02*
G75*
G02*
X41280000Y-103870000I0J-1000000D01*
G01*
%TO.C,D2*%
X70140000Y-84642000D02*
X70140000Y-80782000D01*
X67020000Y-84642000D02*
X67020000Y-80782000D01*
X70140000Y-84642000D02*
X67020000Y-84642000D01*
X66620000Y-84642000D02*
X66620000Y-83522000D01*
X66620000Y-83522000D02*
X67020000Y-83522000D01*
X67020000Y-83522000D02*
X67020000Y-84642000D01*
X67020000Y-84642000D02*
X66620000Y-84642000D01*
X69850000Y-84772000D02*
X69850000Y-84642000D01*
X69850000Y-84642000D02*
X69850000Y-84642000D01*
X69850000Y-84642000D02*
X69850000Y-84772000D01*
X69850000Y-84772000D02*
X69850000Y-84772000D01*
X67310000Y-84772000D02*
X67310000Y-84642000D01*
X67310000Y-84642000D02*
X67310000Y-84642000D01*
X67310000Y-84642000D02*
X67310000Y-84772000D01*
X67310000Y-84772000D02*
X67310000Y-84772000D01*
X67020000Y-80782000D02*
G75*
G02*
X70140000Y-80782000I1560000J0D01*
G01*
%TO.C,D1*%
X59510000Y-129340000D02*
X59510000Y-132280000D01*
X59510000Y-132280000D02*
X64950000Y-132280000D01*
X64950000Y-132280000D02*
X64950000Y-129340000D01*
X64950000Y-129340000D02*
X59510000Y-129340000D01*
X58490000Y-130810000D02*
X59510000Y-130810000D01*
X65970000Y-130810000D02*
X64950000Y-130810000D01*
X60410000Y-129340000D02*
X60410000Y-132280000D01*
X60530000Y-129340000D02*
X60530000Y-132280000D01*
X60290000Y-129340000D02*
X60290000Y-132280000D01*
%TO.C,C5*%
X115790000Y-120870000D02*
X115790000Y-119170000D01*
X115790000Y-115350000D02*
X115790000Y-117050000D01*
X111334437Y-115350000D02*
X115790000Y-115350000D01*
X111334437Y-120870000D02*
X115790000Y-120870000D01*
X110270000Y-119805563D02*
X110270000Y-119170000D01*
X110270000Y-116414437D02*
X110270000Y-117050000D01*
X110270000Y-116414437D02*
X111334437Y-115350000D01*
X110270000Y-119805563D02*
X111334437Y-120870000D01*
X109405000Y-116425000D02*
X110030000Y-116425000D01*
X109717500Y-116112500D02*
X109717500Y-116737500D01*
%TO.C,C3*%
X115790000Y-138650000D02*
X115790000Y-136950000D01*
X115790000Y-133130000D02*
X115790000Y-134830000D01*
X111334437Y-133130000D02*
X115790000Y-133130000D01*
X111334437Y-138650000D02*
X115790000Y-138650000D01*
X110270000Y-137585563D02*
X110270000Y-136950000D01*
X110270000Y-134194437D02*
X110270000Y-134830000D01*
X110270000Y-134194437D02*
X111334437Y-133130000D01*
X110270000Y-137585563D02*
X111334437Y-138650000D01*
X109405000Y-134205000D02*
X110030000Y-134205000D01*
X109717500Y-133892500D02*
X109717500Y-134517500D01*
%TO.C,C1*%
X41810000Y-108866000D02*
X47050000Y-108866000D01*
X41810000Y-111606000D02*
X47050000Y-111606000D01*
X41810000Y-108866000D02*
X41810000Y-111606000D01*
X47050000Y-108866000D02*
X47050000Y-111606000D01*
%TO.C,4N25*%
D11*
X85074285Y-110275714D02*
X85074285Y-110942380D01*
X84836190Y-109894761D02*
X84598095Y-110609047D01*
X85217142Y-110609047D01*
X85598095Y-110942380D02*
X85598095Y-109942380D01*
X86169523Y-110942380D01*
X86169523Y-109942380D01*
X86598095Y-110037619D02*
X86645714Y-109990000D01*
X86740952Y-109942380D01*
X86979047Y-109942380D01*
X87074285Y-109990000D01*
X87121904Y-110037619D01*
X87169523Y-110132857D01*
X87169523Y-110228095D01*
X87121904Y-110370952D01*
X86550476Y-110942380D01*
X87169523Y-110942380D01*
X88074285Y-109942380D02*
X87598095Y-109942380D01*
X87550476Y-110418571D01*
X87598095Y-110370952D01*
X87693333Y-110323333D01*
X87931428Y-110323333D01*
X88026666Y-110370952D01*
X88074285Y-110418571D01*
X88121904Y-110513809D01*
X88121904Y-110751904D01*
X88074285Y-110847142D01*
X88026666Y-110894761D01*
X87931428Y-110942380D01*
X87693333Y-110942380D01*
X87598095Y-110894761D01*
X87550476Y-110847142D01*
%TO.C,C4*%
X106513333Y-116435142D02*
X106465714Y-116482761D01*
X106322857Y-116530380D01*
X106227619Y-116530380D01*
X106084761Y-116482761D01*
X105989523Y-116387523D01*
X105941904Y-116292285D01*
X105894285Y-116101809D01*
X105894285Y-115958952D01*
X105941904Y-115768476D01*
X105989523Y-115673238D01*
X106084761Y-115578000D01*
X106227619Y-115530380D01*
X106322857Y-115530380D01*
X106465714Y-115578000D01*
X106513333Y-115625619D01*
X107370476Y-115863714D02*
X107370476Y-116530380D01*
X107132380Y-115482761D02*
X106894285Y-116197047D01*
X107513333Y-116197047D01*
%TO.C,C2*%
X106513333Y-138533142D02*
X106465714Y-138580761D01*
X106322857Y-138628380D01*
X106227619Y-138628380D01*
X106084761Y-138580761D01*
X105989523Y-138485523D01*
X105941904Y-138390285D01*
X105894285Y-138199809D01*
X105894285Y-138056952D01*
X105941904Y-137866476D01*
X105989523Y-137771238D01*
X106084761Y-137676000D01*
X106227619Y-137628380D01*
X106322857Y-137628380D01*
X106465714Y-137676000D01*
X106513333Y-137723619D01*
X106894285Y-137723619D02*
X106941904Y-137676000D01*
X107037142Y-137628380D01*
X107275238Y-137628380D01*
X107370476Y-137676000D01*
X107418095Y-137723619D01*
X107465714Y-137818857D01*
X107465714Y-137914095D01*
X107418095Y-138056952D01*
X106846666Y-138628380D01*
X107465714Y-138628380D01*
%TO.C,R21*%
X117467142Y-102560380D02*
X117133809Y-102084190D01*
X116895714Y-102560380D02*
X116895714Y-101560380D01*
X117276666Y-101560380D01*
X117371904Y-101608000D01*
X117419523Y-101655619D01*
X117467142Y-101750857D01*
X117467142Y-101893714D01*
X117419523Y-101988952D01*
X117371904Y-102036571D01*
X117276666Y-102084190D01*
X116895714Y-102084190D01*
X117848095Y-101655619D02*
X117895714Y-101608000D01*
X117990952Y-101560380D01*
X118229047Y-101560380D01*
X118324285Y-101608000D01*
X118371904Y-101655619D01*
X118419523Y-101750857D01*
X118419523Y-101846095D01*
X118371904Y-101988952D01*
X117800476Y-102560380D01*
X118419523Y-102560380D01*
X119371904Y-102560380D02*
X118800476Y-102560380D01*
X119086190Y-102560380D02*
X119086190Y-101560380D01*
X118990952Y-101703238D01*
X118895714Y-101798476D01*
X118800476Y-101846095D01*
%TO.C,R20*%
X94607142Y-89860380D02*
X94273809Y-89384190D01*
X94035714Y-89860380D02*
X94035714Y-88860380D01*
X94416666Y-88860380D01*
X94511904Y-88908000D01*
X94559523Y-88955619D01*
X94607142Y-89050857D01*
X94607142Y-89193714D01*
X94559523Y-89288952D01*
X94511904Y-89336571D01*
X94416666Y-89384190D01*
X94035714Y-89384190D01*
X94988095Y-88955619D02*
X95035714Y-88908000D01*
X95130952Y-88860380D01*
X95369047Y-88860380D01*
X95464285Y-88908000D01*
X95511904Y-88955619D01*
X95559523Y-89050857D01*
X95559523Y-89146095D01*
X95511904Y-89288952D01*
X94940476Y-89860380D01*
X95559523Y-89860380D01*
X96178571Y-88860380D02*
X96273809Y-88860380D01*
X96369047Y-88908000D01*
X96416666Y-88955619D01*
X96464285Y-89050857D01*
X96511904Y-89241333D01*
X96511904Y-89479428D01*
X96464285Y-89669904D01*
X96416666Y-89765142D01*
X96369047Y-89812761D01*
X96273809Y-89860380D01*
X96178571Y-89860380D01*
X96083333Y-89812761D01*
X96035714Y-89765142D01*
X95988095Y-89669904D01*
X95940476Y-89479428D01*
X95940476Y-89241333D01*
X95988095Y-89050857D01*
X96035714Y-88955619D01*
X96083333Y-88908000D01*
X96178571Y-88860380D01*
%TO.C,R18*%
X94607142Y-102814380D02*
X94273809Y-102338190D01*
X94035714Y-102814380D02*
X94035714Y-101814380D01*
X94416666Y-101814380D01*
X94511904Y-101862000D01*
X94559523Y-101909619D01*
X94607142Y-102004857D01*
X94607142Y-102147714D01*
X94559523Y-102242952D01*
X94511904Y-102290571D01*
X94416666Y-102338190D01*
X94035714Y-102338190D01*
X95559523Y-102814380D02*
X94988095Y-102814380D01*
X95273809Y-102814380D02*
X95273809Y-101814380D01*
X95178571Y-101957238D01*
X95083333Y-102052476D01*
X94988095Y-102100095D01*
X96130952Y-102242952D02*
X96035714Y-102195333D01*
X95988095Y-102147714D01*
X95940476Y-102052476D01*
X95940476Y-102004857D01*
X95988095Y-101909619D01*
X96035714Y-101862000D01*
X96130952Y-101814380D01*
X96321428Y-101814380D01*
X96416666Y-101862000D01*
X96464285Y-101909619D01*
X96511904Y-102004857D01*
X96511904Y-102052476D01*
X96464285Y-102147714D01*
X96416666Y-102195333D01*
X96321428Y-102242952D01*
X96130952Y-102242952D01*
X96035714Y-102290571D01*
X95988095Y-102338190D01*
X95940476Y-102433428D01*
X95940476Y-102623904D01*
X95988095Y-102719142D01*
X96035714Y-102766761D01*
X96130952Y-102814380D01*
X96321428Y-102814380D01*
X96416666Y-102766761D01*
X96464285Y-102719142D01*
X96511904Y-102623904D01*
X96511904Y-102433428D01*
X96464285Y-102338190D01*
X96416666Y-102290571D01*
X96321428Y-102242952D01*
%TO.C,AMS1117*%
X106592666Y-130190476D02*
X106592666Y-129714285D01*
X106878380Y-130285714D02*
X105878380Y-129952380D01*
X106878380Y-129619047D01*
X106878380Y-129285714D02*
X105878380Y-129285714D01*
X106592666Y-128952380D01*
X105878380Y-128619047D01*
X106878380Y-128619047D01*
X106830761Y-128190476D02*
X106878380Y-128047619D01*
X106878380Y-127809523D01*
X106830761Y-127714285D01*
X106783142Y-127666666D01*
X106687904Y-127619047D01*
X106592666Y-127619047D01*
X106497428Y-127666666D01*
X106449809Y-127714285D01*
X106402190Y-127809523D01*
X106354571Y-128000000D01*
X106306952Y-128095238D01*
X106259333Y-128142857D01*
X106164095Y-128190476D01*
X106068857Y-128190476D01*
X105973619Y-128142857D01*
X105926000Y-128095238D01*
X105878380Y-128000000D01*
X105878380Y-127761904D01*
X105926000Y-127619047D01*
X106878380Y-126666666D02*
X106878380Y-127238095D01*
X106878380Y-126952380D02*
X105878380Y-126952380D01*
X106021238Y-127047619D01*
X106116476Y-127142857D01*
X106164095Y-127238095D01*
X106878380Y-125714285D02*
X106878380Y-126285714D01*
X106878380Y-126000000D02*
X105878380Y-126000000D01*
X106021238Y-126095238D01*
X106116476Y-126190476D01*
X106164095Y-126285714D01*
X106878380Y-124761904D02*
X106878380Y-125333333D01*
X106878380Y-125047619D02*
X105878380Y-125047619D01*
X106021238Y-125142857D01*
X106116476Y-125238095D01*
X106164095Y-125333333D01*
X105878380Y-124428571D02*
X105878380Y-123761904D01*
X106878380Y-124190476D01*
%TO.C,ESP-12F*%
X103743523Y-109656571D02*
X104076857Y-109656571D01*
X104219714Y-110180380D02*
X103743523Y-110180380D01*
X103743523Y-109180380D01*
X104219714Y-109180380D01*
X104600666Y-110132761D02*
X104743523Y-110180380D01*
X104981619Y-110180380D01*
X105076857Y-110132761D01*
X105124476Y-110085142D01*
X105172095Y-109989904D01*
X105172095Y-109894666D01*
X105124476Y-109799428D01*
X105076857Y-109751809D01*
X104981619Y-109704190D01*
X104791142Y-109656571D01*
X104695904Y-109608952D01*
X104648285Y-109561333D01*
X104600666Y-109466095D01*
X104600666Y-109370857D01*
X104648285Y-109275619D01*
X104695904Y-109228000D01*
X104791142Y-109180380D01*
X105029238Y-109180380D01*
X105172095Y-109228000D01*
X105600666Y-110180380D02*
X105600666Y-109180380D01*
X105981619Y-109180380D01*
X106076857Y-109228000D01*
X106124476Y-109275619D01*
X106172095Y-109370857D01*
X106172095Y-109513714D01*
X106124476Y-109608952D01*
X106076857Y-109656571D01*
X105981619Y-109704190D01*
X105600666Y-109704190D01*
X106600666Y-109799428D02*
X107362571Y-109799428D01*
X108362571Y-110180380D02*
X107791142Y-110180380D01*
X108076857Y-110180380D02*
X108076857Y-109180380D01*
X107981619Y-109323238D01*
X107886380Y-109418476D01*
X107791142Y-109466095D01*
X108743523Y-109275619D02*
X108791142Y-109228000D01*
X108886380Y-109180380D01*
X109124476Y-109180380D01*
X109219714Y-109228000D01*
X109267333Y-109275619D01*
X109314952Y-109370857D01*
X109314952Y-109466095D01*
X109267333Y-109608952D01*
X108695904Y-110180380D01*
X109314952Y-110180380D01*
X110076857Y-109656571D02*
X109743523Y-109656571D01*
X109743523Y-110180380D02*
X109743523Y-109180380D01*
X110219714Y-109180380D01*
%TO.C,L7805*%
X47172761Y-135072380D02*
X46696571Y-135072380D01*
X46696571Y-134072380D01*
X47410857Y-134072380D02*
X48077523Y-134072380D01*
X47648952Y-135072380D01*
X48601333Y-134500952D02*
X48506095Y-134453333D01*
X48458476Y-134405714D01*
X48410857Y-134310476D01*
X48410857Y-134262857D01*
X48458476Y-134167619D01*
X48506095Y-134120000D01*
X48601333Y-134072380D01*
X48791809Y-134072380D01*
X48887047Y-134120000D01*
X48934666Y-134167619D01*
X48982285Y-134262857D01*
X48982285Y-134310476D01*
X48934666Y-134405714D01*
X48887047Y-134453333D01*
X48791809Y-134500952D01*
X48601333Y-134500952D01*
X48506095Y-134548571D01*
X48458476Y-134596190D01*
X48410857Y-134691428D01*
X48410857Y-134881904D01*
X48458476Y-134977142D01*
X48506095Y-135024761D01*
X48601333Y-135072380D01*
X48791809Y-135072380D01*
X48887047Y-135024761D01*
X48934666Y-134977142D01*
X48982285Y-134881904D01*
X48982285Y-134691428D01*
X48934666Y-134596190D01*
X48887047Y-134548571D01*
X48791809Y-134500952D01*
X49601333Y-134072380D02*
X49696571Y-134072380D01*
X49791809Y-134120000D01*
X49839428Y-134167619D01*
X49887047Y-134262857D01*
X49934666Y-134453333D01*
X49934666Y-134691428D01*
X49887047Y-134881904D01*
X49839428Y-134977142D01*
X49791809Y-135024761D01*
X49696571Y-135072380D01*
X49601333Y-135072380D01*
X49506095Y-135024761D01*
X49458476Y-134977142D01*
X49410857Y-134881904D01*
X49363238Y-134691428D01*
X49363238Y-134453333D01*
X49410857Y-134262857D01*
X49458476Y-134167619D01*
X49506095Y-134120000D01*
X49601333Y-134072380D01*
X50839428Y-134072380D02*
X50363238Y-134072380D01*
X50315619Y-134548571D01*
X50363238Y-134500952D01*
X50458476Y-134453333D01*
X50696571Y-134453333D01*
X50791809Y-134500952D01*
X50839428Y-134548571D01*
X50887047Y-134643809D01*
X50887047Y-134881904D01*
X50839428Y-134977142D01*
X50791809Y-135024761D01*
X50696571Y-135072380D01*
X50458476Y-135072380D01*
X50363238Y-135024761D01*
X50315619Y-134977142D01*
%TO.C,4N25*%
X73644285Y-129325714D02*
X73644285Y-129992380D01*
X73406190Y-128944761D02*
X73168095Y-129659047D01*
X73787142Y-129659047D01*
X74168095Y-129992380D02*
X74168095Y-128992380D01*
X74739523Y-129992380D01*
X74739523Y-128992380D01*
X75168095Y-129087619D02*
X75215714Y-129040000D01*
X75310952Y-128992380D01*
X75549047Y-128992380D01*
X75644285Y-129040000D01*
X75691904Y-129087619D01*
X75739523Y-129182857D01*
X75739523Y-129278095D01*
X75691904Y-129420952D01*
X75120476Y-129992380D01*
X75739523Y-129992380D01*
X76644285Y-128992380D02*
X76168095Y-128992380D01*
X76120476Y-129468571D01*
X76168095Y-129420952D01*
X76263333Y-129373333D01*
X76501428Y-129373333D01*
X76596666Y-129420952D01*
X76644285Y-129468571D01*
X76691904Y-129563809D01*
X76691904Y-129801904D01*
X76644285Y-129897142D01*
X76596666Y-129944761D01*
X76501428Y-129992380D01*
X76263333Y-129992380D01*
X76168095Y-129944761D01*
X76120476Y-129897142D01*
%TO.C,LM393P*%
X84169523Y-96972380D02*
X83693333Y-96972380D01*
X83693333Y-95972380D01*
X84502857Y-96972380D02*
X84502857Y-95972380D01*
X84836190Y-96686666D01*
X85169523Y-95972380D01*
X85169523Y-96972380D01*
X85550476Y-95972380D02*
X86169523Y-95972380D01*
X85836190Y-96353333D01*
X85979047Y-96353333D01*
X86074285Y-96400952D01*
X86121904Y-96448571D01*
X86169523Y-96543809D01*
X86169523Y-96781904D01*
X86121904Y-96877142D01*
X86074285Y-96924761D01*
X85979047Y-96972380D01*
X85693333Y-96972380D01*
X85598095Y-96924761D01*
X85550476Y-96877142D01*
X86645714Y-96972380D02*
X86836190Y-96972380D01*
X86931428Y-96924761D01*
X86979047Y-96877142D01*
X87074285Y-96734285D01*
X87121904Y-96543809D01*
X87121904Y-96162857D01*
X87074285Y-96067619D01*
X87026666Y-96020000D01*
X86931428Y-95972380D01*
X86740952Y-95972380D01*
X86645714Y-96020000D01*
X86598095Y-96067619D01*
X86550476Y-96162857D01*
X86550476Y-96400952D01*
X86598095Y-96496190D01*
X86645714Y-96543809D01*
X86740952Y-96591428D01*
X86931428Y-96591428D01*
X87026666Y-96543809D01*
X87074285Y-96496190D01*
X87121904Y-96400952D01*
X87455238Y-95972380D02*
X88074285Y-95972380D01*
X87740952Y-96353333D01*
X87883809Y-96353333D01*
X87979047Y-96400952D01*
X88026666Y-96448571D01*
X88074285Y-96543809D01*
X88074285Y-96781904D01*
X88026666Y-96877142D01*
X87979047Y-96924761D01*
X87883809Y-96972380D01*
X87598095Y-96972380D01*
X87502857Y-96924761D01*
X87455238Y-96877142D01*
X88502857Y-96972380D02*
X88502857Y-95972380D01*
X88883809Y-95972380D01*
X88979047Y-96020000D01*
X89026666Y-96067619D01*
X89074285Y-96162857D01*
X89074285Y-96305714D01*
X89026666Y-96400952D01*
X88979047Y-96448571D01*
X88883809Y-96496190D01*
X88502857Y-96496190D01*
%TO.C,R19*%
X86812380Y-93098857D02*
X86336190Y-93432190D01*
X86812380Y-93670285D02*
X85812380Y-93670285D01*
X85812380Y-93289333D01*
X85860000Y-93194095D01*
X85907619Y-93146476D01*
X86002857Y-93098857D01*
X86145714Y-93098857D01*
X86240952Y-93146476D01*
X86288571Y-93194095D01*
X86336190Y-93289333D01*
X86336190Y-93670285D01*
X86812380Y-92146476D02*
X86812380Y-92717904D01*
X86812380Y-92432190D02*
X85812380Y-92432190D01*
X85955238Y-92527428D01*
X86050476Y-92622666D01*
X86098095Y-92717904D01*
X86812380Y-91670285D02*
X86812380Y-91479809D01*
X86764761Y-91384571D01*
X86717142Y-91336952D01*
X86574285Y-91241714D01*
X86383809Y-91194095D01*
X86002857Y-91194095D01*
X85907619Y-91241714D01*
X85860000Y-91289333D01*
X85812380Y-91384571D01*
X85812380Y-91575047D01*
X85860000Y-91670285D01*
X85907619Y-91717904D01*
X86002857Y-91765523D01*
X86240952Y-91765523D01*
X86336190Y-91717904D01*
X86383809Y-91670285D01*
X86431428Y-91575047D01*
X86431428Y-91384571D01*
X86383809Y-91289333D01*
X86336190Y-91241714D01*
X86240952Y-91194095D01*
%TO.C,R17*%
X56332380Y-93098857D02*
X55856190Y-93432190D01*
X56332380Y-93670285D02*
X55332380Y-93670285D01*
X55332380Y-93289333D01*
X55380000Y-93194095D01*
X55427619Y-93146476D01*
X55522857Y-93098857D01*
X55665714Y-93098857D01*
X55760952Y-93146476D01*
X55808571Y-93194095D01*
X55856190Y-93289333D01*
X55856190Y-93670285D01*
X56332380Y-92146476D02*
X56332380Y-92717904D01*
X56332380Y-92432190D02*
X55332380Y-92432190D01*
X55475238Y-92527428D01*
X55570476Y-92622666D01*
X55618095Y-92717904D01*
X55332380Y-91813142D02*
X55332380Y-91146476D01*
X56332380Y-91575047D01*
%TO.C,R16*%
X76652380Y-93098857D02*
X76176190Y-93432190D01*
X76652380Y-93670285D02*
X75652380Y-93670285D01*
X75652380Y-93289333D01*
X75700000Y-93194095D01*
X75747619Y-93146476D01*
X75842857Y-93098857D01*
X75985714Y-93098857D01*
X76080952Y-93146476D01*
X76128571Y-93194095D01*
X76176190Y-93289333D01*
X76176190Y-93670285D01*
X76652380Y-92146476D02*
X76652380Y-92717904D01*
X76652380Y-92432190D02*
X75652380Y-92432190D01*
X75795238Y-92527428D01*
X75890476Y-92622666D01*
X75938095Y-92717904D01*
X75652380Y-91289333D02*
X75652380Y-91479809D01*
X75700000Y-91575047D01*
X75747619Y-91622666D01*
X75890476Y-91717904D01*
X76080952Y-91765523D01*
X76461904Y-91765523D01*
X76557142Y-91717904D01*
X76604761Y-91670285D01*
X76652380Y-91575047D01*
X76652380Y-91384571D01*
X76604761Y-91289333D01*
X76557142Y-91241714D01*
X76461904Y-91194095D01*
X76223809Y-91194095D01*
X76128571Y-91241714D01*
X76080952Y-91289333D01*
X76033333Y-91384571D01*
X76033333Y-91575047D01*
X76080952Y-91670285D01*
X76128571Y-91717904D01*
X76223809Y-91765523D01*
%TO.C,R15*%
X73017142Y-117292380D02*
X72683809Y-116816190D01*
X72445714Y-117292380D02*
X72445714Y-116292380D01*
X72826666Y-116292380D01*
X72921904Y-116340000D01*
X72969523Y-116387619D01*
X73017142Y-116482857D01*
X73017142Y-116625714D01*
X72969523Y-116720952D01*
X72921904Y-116768571D01*
X72826666Y-116816190D01*
X72445714Y-116816190D01*
X73969523Y-117292380D02*
X73398095Y-117292380D01*
X73683809Y-117292380D02*
X73683809Y-116292380D01*
X73588571Y-116435238D01*
X73493333Y-116530476D01*
X73398095Y-116578095D01*
X74874285Y-116292380D02*
X74398095Y-116292380D01*
X74350476Y-116768571D01*
X74398095Y-116720952D01*
X74493333Y-116673333D01*
X74731428Y-116673333D01*
X74826666Y-116720952D01*
X74874285Y-116768571D01*
X74921904Y-116863809D01*
X74921904Y-117101904D01*
X74874285Y-117197142D01*
X74826666Y-117244761D01*
X74731428Y-117292380D01*
X74493333Y-117292380D01*
X74398095Y-117244761D01*
X74350476Y-117197142D01*
%TO.C,R14*%
X73017142Y-112212380D02*
X72683809Y-111736190D01*
X72445714Y-112212380D02*
X72445714Y-111212380D01*
X72826666Y-111212380D01*
X72921904Y-111260000D01*
X72969523Y-111307619D01*
X73017142Y-111402857D01*
X73017142Y-111545714D01*
X72969523Y-111640952D01*
X72921904Y-111688571D01*
X72826666Y-111736190D01*
X72445714Y-111736190D01*
X73969523Y-112212380D02*
X73398095Y-112212380D01*
X73683809Y-112212380D02*
X73683809Y-111212380D01*
X73588571Y-111355238D01*
X73493333Y-111450476D01*
X73398095Y-111498095D01*
X74826666Y-111545714D02*
X74826666Y-112212380D01*
X74588571Y-111164761D02*
X74350476Y-111879047D01*
X74969523Y-111879047D01*
%TO.C,R13*%
X85717142Y-122372380D02*
X85383809Y-121896190D01*
X85145714Y-122372380D02*
X85145714Y-121372380D01*
X85526666Y-121372380D01*
X85621904Y-121420000D01*
X85669523Y-121467619D01*
X85717142Y-121562857D01*
X85717142Y-121705714D01*
X85669523Y-121800952D01*
X85621904Y-121848571D01*
X85526666Y-121896190D01*
X85145714Y-121896190D01*
X86669523Y-122372380D02*
X86098095Y-122372380D01*
X86383809Y-122372380D02*
X86383809Y-121372380D01*
X86288571Y-121515238D01*
X86193333Y-121610476D01*
X86098095Y-121658095D01*
X87002857Y-121372380D02*
X87621904Y-121372380D01*
X87288571Y-121753333D01*
X87431428Y-121753333D01*
X87526666Y-121800952D01*
X87574285Y-121848571D01*
X87621904Y-121943809D01*
X87621904Y-122181904D01*
X87574285Y-122277142D01*
X87526666Y-122324761D01*
X87431428Y-122372380D01*
X87145714Y-122372380D01*
X87050476Y-122324761D01*
X87002857Y-122277142D01*
%TO.C,R12*%
X73017142Y-122372380D02*
X72683809Y-121896190D01*
X72445714Y-122372380D02*
X72445714Y-121372380D01*
X72826666Y-121372380D01*
X72921904Y-121420000D01*
X72969523Y-121467619D01*
X73017142Y-121562857D01*
X73017142Y-121705714D01*
X72969523Y-121800952D01*
X72921904Y-121848571D01*
X72826666Y-121896190D01*
X72445714Y-121896190D01*
X73969523Y-122372380D02*
X73398095Y-122372380D01*
X73683809Y-122372380D02*
X73683809Y-121372380D01*
X73588571Y-121515238D01*
X73493333Y-121610476D01*
X73398095Y-121658095D01*
X74350476Y-121467619D02*
X74398095Y-121420000D01*
X74493333Y-121372380D01*
X74731428Y-121372380D01*
X74826666Y-121420000D01*
X74874285Y-121467619D01*
X74921904Y-121562857D01*
X74921904Y-121658095D01*
X74874285Y-121800952D01*
X74302857Y-122372380D01*
X74921904Y-122372380D01*
%TO.C,R11*%
X60317142Y-107132380D02*
X59983809Y-106656190D01*
X59745714Y-107132380D02*
X59745714Y-106132380D01*
X60126666Y-106132380D01*
X60221904Y-106180000D01*
X60269523Y-106227619D01*
X60317142Y-106322857D01*
X60317142Y-106465714D01*
X60269523Y-106560952D01*
X60221904Y-106608571D01*
X60126666Y-106656190D01*
X59745714Y-106656190D01*
X61269523Y-107132380D02*
X60698095Y-107132380D01*
X60983809Y-107132380D02*
X60983809Y-106132380D01*
X60888571Y-106275238D01*
X60793333Y-106370476D01*
X60698095Y-106418095D01*
X62221904Y-107132380D02*
X61650476Y-107132380D01*
X61936190Y-107132380D02*
X61936190Y-106132380D01*
X61840952Y-106275238D01*
X61745714Y-106370476D01*
X61650476Y-106418095D01*
%TO.C,R10*%
X73017142Y-107132380D02*
X72683809Y-106656190D01*
X72445714Y-107132380D02*
X72445714Y-106132380D01*
X72826666Y-106132380D01*
X72921904Y-106180000D01*
X72969523Y-106227619D01*
X73017142Y-106322857D01*
X73017142Y-106465714D01*
X72969523Y-106560952D01*
X72921904Y-106608571D01*
X72826666Y-106656190D01*
X72445714Y-106656190D01*
X73969523Y-107132380D02*
X73398095Y-107132380D01*
X73683809Y-107132380D02*
X73683809Y-106132380D01*
X73588571Y-106275238D01*
X73493333Y-106370476D01*
X73398095Y-106418095D01*
X74588571Y-106132380D02*
X74683809Y-106132380D01*
X74779047Y-106180000D01*
X74826666Y-106227619D01*
X74874285Y-106322857D01*
X74921904Y-106513333D01*
X74921904Y-106751428D01*
X74874285Y-106941904D01*
X74826666Y-107037142D01*
X74779047Y-107084761D01*
X74683809Y-107132380D01*
X74588571Y-107132380D01*
X74493333Y-107084761D01*
X74445714Y-107037142D01*
X74398095Y-106941904D01*
X74350476Y-106751428D01*
X74350476Y-106513333D01*
X74398095Y-106322857D01*
X74445714Y-106227619D01*
X74493333Y-106180000D01*
X74588571Y-106132380D01*
%TO.C,R9*%
X60793333Y-102052380D02*
X60460000Y-101576190D01*
X60221904Y-102052380D02*
X60221904Y-101052380D01*
X60602857Y-101052380D01*
X60698095Y-101100000D01*
X60745714Y-101147619D01*
X60793333Y-101242857D01*
X60793333Y-101385714D01*
X60745714Y-101480952D01*
X60698095Y-101528571D01*
X60602857Y-101576190D01*
X60221904Y-101576190D01*
X61269523Y-102052380D02*
X61460000Y-102052380D01*
X61555238Y-102004761D01*
X61602857Y-101957142D01*
X61698095Y-101814285D01*
X61745714Y-101623809D01*
X61745714Y-101242857D01*
X61698095Y-101147619D01*
X61650476Y-101100000D01*
X61555238Y-101052380D01*
X61364761Y-101052380D01*
X61269523Y-101100000D01*
X61221904Y-101147619D01*
X61174285Y-101242857D01*
X61174285Y-101480952D01*
X61221904Y-101576190D01*
X61269523Y-101623809D01*
X61364761Y-101671428D01*
X61555238Y-101671428D01*
X61650476Y-101623809D01*
X61698095Y-101576190D01*
X61745714Y-101480952D01*
%TO.C,R8*%
X60793333Y-96972380D02*
X60460000Y-96496190D01*
X60221904Y-96972380D02*
X60221904Y-95972380D01*
X60602857Y-95972380D01*
X60698095Y-96020000D01*
X60745714Y-96067619D01*
X60793333Y-96162857D01*
X60793333Y-96305714D01*
X60745714Y-96400952D01*
X60698095Y-96448571D01*
X60602857Y-96496190D01*
X60221904Y-96496190D01*
X61364761Y-96400952D02*
X61269523Y-96353333D01*
X61221904Y-96305714D01*
X61174285Y-96210476D01*
X61174285Y-96162857D01*
X61221904Y-96067619D01*
X61269523Y-96020000D01*
X61364761Y-95972380D01*
X61555238Y-95972380D01*
X61650476Y-96020000D01*
X61698095Y-96067619D01*
X61745714Y-96162857D01*
X61745714Y-96210476D01*
X61698095Y-96305714D01*
X61650476Y-96353333D01*
X61555238Y-96400952D01*
X61364761Y-96400952D01*
X61269523Y-96448571D01*
X61221904Y-96496190D01*
X61174285Y-96591428D01*
X61174285Y-96781904D01*
X61221904Y-96877142D01*
X61269523Y-96924761D01*
X61364761Y-96972380D01*
X61555238Y-96972380D01*
X61650476Y-96924761D01*
X61698095Y-96877142D01*
X61745714Y-96781904D01*
X61745714Y-96591428D01*
X61698095Y-96496190D01*
X61650476Y-96448571D01*
X61555238Y-96400952D01*
%TO.C,R7*%
X73493333Y-102052380D02*
X73160000Y-101576190D01*
X72921904Y-102052380D02*
X72921904Y-101052380D01*
X73302857Y-101052380D01*
X73398095Y-101100000D01*
X73445714Y-101147619D01*
X73493333Y-101242857D01*
X73493333Y-101385714D01*
X73445714Y-101480952D01*
X73398095Y-101528571D01*
X73302857Y-101576190D01*
X72921904Y-101576190D01*
X73826666Y-101052380D02*
X74493333Y-101052380D01*
X74064761Y-102052380D01*
%TO.C,R6*%
X66492380Y-93130666D02*
X66016190Y-93464000D01*
X66492380Y-93702095D02*
X65492380Y-93702095D01*
X65492380Y-93321142D01*
X65540000Y-93225904D01*
X65587619Y-93178285D01*
X65682857Y-93130666D01*
X65825714Y-93130666D01*
X65920952Y-93178285D01*
X65968571Y-93225904D01*
X66016190Y-93321142D01*
X66016190Y-93702095D01*
X65492380Y-92273523D02*
X65492380Y-92464000D01*
X65540000Y-92559238D01*
X65587619Y-92606857D01*
X65730476Y-92702095D01*
X65920952Y-92749714D01*
X66301904Y-92749714D01*
X66397142Y-92702095D01*
X66444761Y-92654476D01*
X66492380Y-92559238D01*
X66492380Y-92368761D01*
X66444761Y-92273523D01*
X66397142Y-92225904D01*
X66301904Y-92178285D01*
X66063809Y-92178285D01*
X65968571Y-92225904D01*
X65920952Y-92273523D01*
X65873333Y-92368761D01*
X65873333Y-92559238D01*
X65920952Y-92654476D01*
X65968571Y-92702095D01*
X66063809Y-92749714D01*
%TO.C,R5*%
X60793333Y-122372380D02*
X60460000Y-121896190D01*
X60221904Y-122372380D02*
X60221904Y-121372380D01*
X60602857Y-121372380D01*
X60698095Y-121420000D01*
X60745714Y-121467619D01*
X60793333Y-121562857D01*
X60793333Y-121705714D01*
X60745714Y-121800952D01*
X60698095Y-121848571D01*
X60602857Y-121896190D01*
X60221904Y-121896190D01*
X61698095Y-121372380D02*
X61221904Y-121372380D01*
X61174285Y-121848571D01*
X61221904Y-121800952D01*
X61317142Y-121753333D01*
X61555238Y-121753333D01*
X61650476Y-121800952D01*
X61698095Y-121848571D01*
X61745714Y-121943809D01*
X61745714Y-122181904D01*
X61698095Y-122277142D01*
X61650476Y-122324761D01*
X61555238Y-122372380D01*
X61317142Y-122372380D01*
X61221904Y-122324761D01*
X61174285Y-122277142D01*
%TO.C,R4*%
X60793333Y-117292380D02*
X60460000Y-116816190D01*
X60221904Y-117292380D02*
X60221904Y-116292380D01*
X60602857Y-116292380D01*
X60698095Y-116340000D01*
X60745714Y-116387619D01*
X60793333Y-116482857D01*
X60793333Y-116625714D01*
X60745714Y-116720952D01*
X60698095Y-116768571D01*
X60602857Y-116816190D01*
X60221904Y-116816190D01*
X61650476Y-116625714D02*
X61650476Y-117292380D01*
X61412380Y-116244761D02*
X61174285Y-116959047D01*
X61793333Y-116959047D01*
%TO.C,R3*%
X60793333Y-112212380D02*
X60460000Y-111736190D01*
X60221904Y-112212380D02*
X60221904Y-111212380D01*
X60602857Y-111212380D01*
X60698095Y-111260000D01*
X60745714Y-111307619D01*
X60793333Y-111402857D01*
X60793333Y-111545714D01*
X60745714Y-111640952D01*
X60698095Y-111688571D01*
X60602857Y-111736190D01*
X60221904Y-111736190D01*
X61126666Y-111212380D02*
X61745714Y-111212380D01*
X61412380Y-111593333D01*
X61555238Y-111593333D01*
X61650476Y-111640952D01*
X61698095Y-111688571D01*
X61745714Y-111783809D01*
X61745714Y-112021904D01*
X61698095Y-112117142D01*
X61650476Y-112164761D01*
X61555238Y-112212380D01*
X61269523Y-112212380D01*
X61174285Y-112164761D01*
X61126666Y-112117142D01*
%TO.C,R2*%
X73493333Y-96972380D02*
X73160000Y-96496190D01*
X72921904Y-96972380D02*
X72921904Y-95972380D01*
X73302857Y-95972380D01*
X73398095Y-96020000D01*
X73445714Y-96067619D01*
X73493333Y-96162857D01*
X73493333Y-96305714D01*
X73445714Y-96400952D01*
X73398095Y-96448571D01*
X73302857Y-96496190D01*
X72921904Y-96496190D01*
X73874285Y-96067619D02*
X73921904Y-96020000D01*
X74017142Y-95972380D01*
X74255238Y-95972380D01*
X74350476Y-96020000D01*
X74398095Y-96067619D01*
X74445714Y-96162857D01*
X74445714Y-96258095D01*
X74398095Y-96400952D01*
X73826666Y-96972380D01*
X74445714Y-96972380D01*
%TO.C,R1*%
X56983333Y-137442380D02*
X56650000Y-136966190D01*
X56411904Y-137442380D02*
X56411904Y-136442380D01*
X56792857Y-136442380D01*
X56888095Y-136490000D01*
X56935714Y-136537619D01*
X56983333Y-136632857D01*
X56983333Y-136775714D01*
X56935714Y-136870952D01*
X56888095Y-136918571D01*
X56792857Y-136966190D01*
X56411904Y-136966190D01*
X57935714Y-137442380D02*
X57364285Y-137442380D01*
X57650000Y-137442380D02*
X57650000Y-136442380D01*
X57554761Y-136585238D01*
X57459523Y-136680476D01*
X57364285Y-136728095D01*
%TO.C,BC337*%
X59356857Y-138358571D02*
X59499714Y-138406190D01*
X59547333Y-138453809D01*
X59594952Y-138549047D01*
X59594952Y-138691904D01*
X59547333Y-138787142D01*
X59499714Y-138834761D01*
X59404476Y-138882380D01*
X59023523Y-138882380D01*
X59023523Y-137882380D01*
X59356857Y-137882380D01*
X59452095Y-137930000D01*
X59499714Y-137977619D01*
X59547333Y-138072857D01*
X59547333Y-138168095D01*
X59499714Y-138263333D01*
X59452095Y-138310952D01*
X59356857Y-138358571D01*
X59023523Y-138358571D01*
X60594952Y-138787142D02*
X60547333Y-138834761D01*
X60404476Y-138882380D01*
X60309238Y-138882380D01*
X60166380Y-138834761D01*
X60071142Y-138739523D01*
X60023523Y-138644285D01*
X59975904Y-138453809D01*
X59975904Y-138310952D01*
X60023523Y-138120476D01*
X60071142Y-138025238D01*
X60166380Y-137930000D01*
X60309238Y-137882380D01*
X60404476Y-137882380D01*
X60547333Y-137930000D01*
X60594952Y-137977619D01*
X60928285Y-137882380D02*
X61547333Y-137882380D01*
X61214000Y-138263333D01*
X61356857Y-138263333D01*
X61452095Y-138310952D01*
X61499714Y-138358571D01*
X61547333Y-138453809D01*
X61547333Y-138691904D01*
X61499714Y-138787142D01*
X61452095Y-138834761D01*
X61356857Y-138882380D01*
X61071142Y-138882380D01*
X60975904Y-138834761D01*
X60928285Y-138787142D01*
X61880666Y-137882380D02*
X62499714Y-137882380D01*
X62166380Y-138263333D01*
X62309238Y-138263333D01*
X62404476Y-138310952D01*
X62452095Y-138358571D01*
X62499714Y-138453809D01*
X62499714Y-138691904D01*
X62452095Y-138787142D01*
X62404476Y-138834761D01*
X62309238Y-138882380D01*
X62023523Y-138882380D01*
X61928285Y-138834761D01*
X61880666Y-138787142D01*
X62833047Y-137882380D02*
X63499714Y-137882380D01*
X63071142Y-138882380D01*
%TO.C,Prog*%
X120443809Y-103322380D02*
X120443809Y-102322380D01*
X120824761Y-102322380D01*
X120920000Y-102370000D01*
X120967619Y-102417619D01*
X121015238Y-102512857D01*
X121015238Y-102655714D01*
X120967619Y-102750952D01*
X120920000Y-102798571D01*
X120824761Y-102846190D01*
X120443809Y-102846190D01*
X121443809Y-103322380D02*
X121443809Y-102655714D01*
X121443809Y-102846190D02*
X121491428Y-102750952D01*
X121539047Y-102703333D01*
X121634285Y-102655714D01*
X121729523Y-102655714D01*
X122205714Y-103322380D02*
X122110476Y-103274761D01*
X122062857Y-103227142D01*
X122015238Y-103131904D01*
X122015238Y-102846190D01*
X122062857Y-102750952D01*
X122110476Y-102703333D01*
X122205714Y-102655714D01*
X122348571Y-102655714D01*
X122443809Y-102703333D01*
X122491428Y-102750952D01*
X122539047Y-102846190D01*
X122539047Y-103131904D01*
X122491428Y-103227142D01*
X122443809Y-103274761D01*
X122348571Y-103322380D01*
X122205714Y-103322380D01*
X123396190Y-102655714D02*
X123396190Y-103465238D01*
X123348571Y-103560476D01*
X123300952Y-103608095D01*
X123205714Y-103655714D01*
X123062857Y-103655714D01*
X122967619Y-103608095D01*
X123396190Y-103274761D02*
X123300952Y-103322380D01*
X123110476Y-103322380D01*
X123015238Y-103274761D01*
X122967619Y-103227142D01*
X122920000Y-103131904D01*
X122920000Y-102846190D01*
X122967619Y-102750952D01*
X123015238Y-102703333D01*
X123110476Y-102655714D01*
X123300952Y-102655714D01*
X123396190Y-102703333D01*
%TO.C,Service*%
X118658000Y-94130761D02*
X118800857Y-94178380D01*
X119038952Y-94178380D01*
X119134190Y-94130761D01*
X119181809Y-94083142D01*
X119229428Y-93987904D01*
X119229428Y-93892666D01*
X119181809Y-93797428D01*
X119134190Y-93749809D01*
X119038952Y-93702190D01*
X118848476Y-93654571D01*
X118753238Y-93606952D01*
X118705619Y-93559333D01*
X118658000Y-93464095D01*
X118658000Y-93368857D01*
X118705619Y-93273619D01*
X118753238Y-93226000D01*
X118848476Y-93178380D01*
X119086571Y-93178380D01*
X119229428Y-93226000D01*
X120038952Y-94130761D02*
X119943714Y-94178380D01*
X119753238Y-94178380D01*
X119658000Y-94130761D01*
X119610380Y-94035523D01*
X119610380Y-93654571D01*
X119658000Y-93559333D01*
X119753238Y-93511714D01*
X119943714Y-93511714D01*
X120038952Y-93559333D01*
X120086571Y-93654571D01*
X120086571Y-93749809D01*
X119610380Y-93845047D01*
X120515142Y-94178380D02*
X120515142Y-93511714D01*
X120515142Y-93702190D02*
X120562761Y-93606952D01*
X120610380Y-93559333D01*
X120705619Y-93511714D01*
X120800857Y-93511714D01*
X121038952Y-93511714D02*
X121277047Y-94178380D01*
X121515142Y-93511714D01*
X121896095Y-94178380D02*
X121896095Y-93511714D01*
X121896095Y-93178380D02*
X121848476Y-93226000D01*
X121896095Y-93273619D01*
X121943714Y-93226000D01*
X121896095Y-93178380D01*
X121896095Y-93273619D01*
X122800857Y-94130761D02*
X122705619Y-94178380D01*
X122515142Y-94178380D01*
X122419904Y-94130761D01*
X122372285Y-94083142D01*
X122324666Y-93987904D01*
X122324666Y-93702190D01*
X122372285Y-93606952D01*
X122419904Y-93559333D01*
X122515142Y-93511714D01*
X122705619Y-93511714D01*
X122800857Y-93559333D01*
X123610380Y-94130761D02*
X123515142Y-94178380D01*
X123324666Y-94178380D01*
X123229428Y-94130761D01*
X123181809Y-94035523D01*
X123181809Y-93654571D01*
X123229428Y-93559333D01*
X123324666Y-93511714D01*
X123515142Y-93511714D01*
X123610380Y-93559333D01*
X123658000Y-93654571D01*
X123658000Y-93749809D01*
X123181809Y-93845047D01*
%TO.C,PWR*%
X98996666Y-132024380D02*
X98996666Y-131024380D01*
X99377619Y-131024380D01*
X99472857Y-131072000D01*
X99520476Y-131119619D01*
X99568095Y-131214857D01*
X99568095Y-131357714D01*
X99520476Y-131452952D01*
X99472857Y-131500571D01*
X99377619Y-131548190D01*
X98996666Y-131548190D01*
X99901428Y-131024380D02*
X100139523Y-132024380D01*
X100330000Y-131310095D01*
X100520476Y-132024380D01*
X100758571Y-131024380D01*
X101710952Y-132024380D02*
X101377619Y-131548190D01*
X101139523Y-132024380D02*
X101139523Y-131024380D01*
X101520476Y-131024380D01*
X101615714Y-131072000D01*
X101663333Y-131119619D01*
X101710952Y-131214857D01*
X101710952Y-131357714D01*
X101663333Y-131452952D01*
X101615714Y-131500571D01*
X101520476Y-131548190D01*
X101139523Y-131548190D01*
%TO.C,micro USB*%
X87447904Y-132024380D02*
X87447904Y-131357714D01*
X87447904Y-131452952D02*
X87495523Y-131405333D01*
X87590761Y-131357714D01*
X87733619Y-131357714D01*
X87828857Y-131405333D01*
X87876476Y-131500571D01*
X87876476Y-132024380D01*
X87876476Y-131500571D02*
X87924095Y-131405333D01*
X88019333Y-131357714D01*
X88162190Y-131357714D01*
X88257428Y-131405333D01*
X88305047Y-131500571D01*
X88305047Y-132024380D01*
X88781238Y-132024380D02*
X88781238Y-131357714D01*
X88781238Y-131024380D02*
X88733619Y-131072000D01*
X88781238Y-131119619D01*
X88828857Y-131072000D01*
X88781238Y-131024380D01*
X88781238Y-131119619D01*
X89686000Y-131976761D02*
X89590761Y-132024380D01*
X89400285Y-132024380D01*
X89305047Y-131976761D01*
X89257428Y-131929142D01*
X89209809Y-131833904D01*
X89209809Y-131548190D01*
X89257428Y-131452952D01*
X89305047Y-131405333D01*
X89400285Y-131357714D01*
X89590761Y-131357714D01*
X89686000Y-131405333D01*
X90114571Y-132024380D02*
X90114571Y-131357714D01*
X90114571Y-131548190D02*
X90162190Y-131452952D01*
X90209809Y-131405333D01*
X90305047Y-131357714D01*
X90400285Y-131357714D01*
X90876476Y-132024380D02*
X90781238Y-131976761D01*
X90733619Y-131929142D01*
X90686000Y-131833904D01*
X90686000Y-131548190D01*
X90733619Y-131452952D01*
X90781238Y-131405333D01*
X90876476Y-131357714D01*
X91019333Y-131357714D01*
X91114571Y-131405333D01*
X91162190Y-131452952D01*
X91209809Y-131548190D01*
X91209809Y-131833904D01*
X91162190Y-131929142D01*
X91114571Y-131976761D01*
X91019333Y-132024380D01*
X90876476Y-132024380D01*
X92400285Y-131024380D02*
X92400285Y-131833904D01*
X92447904Y-131929142D01*
X92495523Y-131976761D01*
X92590761Y-132024380D01*
X92781238Y-132024380D01*
X92876476Y-131976761D01*
X92924095Y-131929142D01*
X92971714Y-131833904D01*
X92971714Y-131024380D01*
X93400285Y-131976761D02*
X93543142Y-132024380D01*
X93781238Y-132024380D01*
X93876476Y-131976761D01*
X93924095Y-131929142D01*
X93971714Y-131833904D01*
X93971714Y-131738666D01*
X93924095Y-131643428D01*
X93876476Y-131595809D01*
X93781238Y-131548190D01*
X93590761Y-131500571D01*
X93495523Y-131452952D01*
X93447904Y-131405333D01*
X93400285Y-131310095D01*
X93400285Y-131214857D01*
X93447904Y-131119619D01*
X93495523Y-131072000D01*
X93590761Y-131024380D01*
X93828857Y-131024380D01*
X93971714Y-131072000D01*
X94733619Y-131500571D02*
X94876476Y-131548190D01*
X94924095Y-131595809D01*
X94971714Y-131691047D01*
X94971714Y-131833904D01*
X94924095Y-131929142D01*
X94876476Y-131976761D01*
X94781238Y-132024380D01*
X94400285Y-132024380D01*
X94400285Y-131024380D01*
X94733619Y-131024380D01*
X94828857Y-131072000D01*
X94876476Y-131119619D01*
X94924095Y-131214857D01*
X94924095Y-131310095D01*
X94876476Y-131405333D01*
X94828857Y-131452952D01*
X94733619Y-131500571D01*
X94400285Y-131500571D01*
%TO.C,UART*%
X120324761Y-117054380D02*
X120324761Y-117863904D01*
X120372380Y-117959142D01*
X120420000Y-118006761D01*
X120515238Y-118054380D01*
X120705714Y-118054380D01*
X120800952Y-118006761D01*
X120848571Y-117959142D01*
X120896190Y-117863904D01*
X120896190Y-117054380D01*
X121324761Y-117768666D02*
X121800952Y-117768666D01*
X121229523Y-118054380D02*
X121562857Y-117054380D01*
X121896190Y-118054380D01*
X122800952Y-118054380D02*
X122467619Y-117578190D01*
X122229523Y-118054380D02*
X122229523Y-117054380D01*
X122610476Y-117054380D01*
X122705714Y-117102000D01*
X122753333Y-117149619D01*
X122800952Y-117244857D01*
X122800952Y-117387714D01*
X122753333Y-117482952D01*
X122705714Y-117530571D01*
X122610476Y-117578190D01*
X122229523Y-117578190D01*
X123086666Y-117054380D02*
X123658095Y-117054380D01*
X123372380Y-118054380D02*
X123372380Y-117054380D01*
%TO.C,J1*%
X44116666Y-87082380D02*
X44116666Y-87796666D01*
X44069047Y-87939523D01*
X43973809Y-88034761D01*
X43830952Y-88082380D01*
X43735714Y-88082380D01*
X45116666Y-88082380D02*
X44545238Y-88082380D01*
X44830952Y-88082380D02*
X44830952Y-87082380D01*
X44735714Y-87225238D01*
X44640476Y-87320476D01*
X44545238Y-87368095D01*
%TO.C,D6*%
X88161904Y-88772380D02*
X88161904Y-87772380D01*
X88400000Y-87772380D01*
X88542857Y-87820000D01*
X88638095Y-87915238D01*
X88685714Y-88010476D01*
X88733333Y-88200952D01*
X88733333Y-88343809D01*
X88685714Y-88534285D01*
X88638095Y-88629523D01*
X88542857Y-88724761D01*
X88400000Y-88772380D01*
X88161904Y-88772380D01*
X89590476Y-87772380D02*
X89400000Y-87772380D01*
X89304761Y-87820000D01*
X89257142Y-87867619D01*
X89161904Y-88010476D01*
X89114285Y-88200952D01*
X89114285Y-88581904D01*
X89161904Y-88677142D01*
X89209523Y-88724761D01*
X89304761Y-88772380D01*
X89495238Y-88772380D01*
X89590476Y-88724761D01*
X89638095Y-88677142D01*
X89685714Y-88581904D01*
X89685714Y-88343809D01*
X89638095Y-88248571D01*
X89590476Y-88200952D01*
X89495238Y-88153333D01*
X89304761Y-88153333D01*
X89209523Y-88200952D01*
X89161904Y-88248571D01*
X89114285Y-88343809D01*
%TO.C,D5*%
X57681904Y-88772380D02*
X57681904Y-87772380D01*
X57920000Y-87772380D01*
X58062857Y-87820000D01*
X58158095Y-87915238D01*
X58205714Y-88010476D01*
X58253333Y-88200952D01*
X58253333Y-88343809D01*
X58205714Y-88534285D01*
X58158095Y-88629523D01*
X58062857Y-88724761D01*
X57920000Y-88772380D01*
X57681904Y-88772380D01*
X59158095Y-87772380D02*
X58681904Y-87772380D01*
X58634285Y-88248571D01*
X58681904Y-88200952D01*
X58777142Y-88153333D01*
X59015238Y-88153333D01*
X59110476Y-88200952D01*
X59158095Y-88248571D01*
X59205714Y-88343809D01*
X59205714Y-88581904D01*
X59158095Y-88677142D01*
X59110476Y-88724761D01*
X59015238Y-88772380D01*
X58777142Y-88772380D01*
X58681904Y-88724761D01*
X58634285Y-88677142D01*
%TO.C,D4*%
X78001904Y-88772380D02*
X78001904Y-87772380D01*
X78240000Y-87772380D01*
X78382857Y-87820000D01*
X78478095Y-87915238D01*
X78525714Y-88010476D01*
X78573333Y-88200952D01*
X78573333Y-88343809D01*
X78525714Y-88534285D01*
X78478095Y-88629523D01*
X78382857Y-88724761D01*
X78240000Y-88772380D01*
X78001904Y-88772380D01*
X79430476Y-88105714D02*
X79430476Y-88772380D01*
X79192380Y-87724761D02*
X78954285Y-88439047D01*
X79573333Y-88439047D01*
%TO.C,DF10M*%
X51506380Y-105084285D02*
X50506380Y-105084285D01*
X50506380Y-104846190D01*
X50554000Y-104703333D01*
X50649238Y-104608095D01*
X50744476Y-104560476D01*
X50934952Y-104512857D01*
X51077809Y-104512857D01*
X51268285Y-104560476D01*
X51363523Y-104608095D01*
X51458761Y-104703333D01*
X51506380Y-104846190D01*
X51506380Y-105084285D01*
X50982571Y-103750952D02*
X50982571Y-104084285D01*
X51506380Y-104084285D02*
X50506380Y-104084285D01*
X50506380Y-103608095D01*
X51506380Y-102703333D02*
X51506380Y-103274761D01*
X51506380Y-102989047D02*
X50506380Y-102989047D01*
X50649238Y-103084285D01*
X50744476Y-103179523D01*
X50792095Y-103274761D01*
X50506380Y-102084285D02*
X50506380Y-101989047D01*
X50554000Y-101893809D01*
X50601619Y-101846190D01*
X50696857Y-101798571D01*
X50887333Y-101750952D01*
X51125428Y-101750952D01*
X51315904Y-101798571D01*
X51411142Y-101846190D01*
X51458761Y-101893809D01*
X51506380Y-101989047D01*
X51506380Y-102084285D01*
X51458761Y-102179523D01*
X51411142Y-102227142D01*
X51315904Y-102274761D01*
X51125428Y-102322380D01*
X50887333Y-102322380D01*
X50696857Y-102274761D01*
X50601619Y-102227142D01*
X50554000Y-102179523D01*
X50506380Y-102084285D01*
X51506380Y-101322380D02*
X50506380Y-101322380D01*
X51220666Y-100989047D01*
X50506380Y-100655714D01*
X51506380Y-100655714D01*
%TO.C,D2*%
X67841904Y-88772380D02*
X67841904Y-87772380D01*
X68080000Y-87772380D01*
X68222857Y-87820000D01*
X68318095Y-87915238D01*
X68365714Y-88010476D01*
X68413333Y-88200952D01*
X68413333Y-88343809D01*
X68365714Y-88534285D01*
X68318095Y-88629523D01*
X68222857Y-88724761D01*
X68080000Y-88772380D01*
X67841904Y-88772380D01*
X68794285Y-87867619D02*
X68841904Y-87820000D01*
X68937142Y-87772380D01*
X69175238Y-87772380D01*
X69270476Y-87820000D01*
X69318095Y-87867619D01*
X69365714Y-87962857D01*
X69365714Y-88058095D01*
X69318095Y-88200952D01*
X68746666Y-88772380D01*
X69365714Y-88772380D01*
%TO.C,D1*%
X61491904Y-128792380D02*
X61491904Y-127792380D01*
X61730000Y-127792380D01*
X61872857Y-127840000D01*
X61968095Y-127935238D01*
X62015714Y-128030476D01*
X62063333Y-128220952D01*
X62063333Y-128363809D01*
X62015714Y-128554285D01*
X61968095Y-128649523D01*
X61872857Y-128744761D01*
X61730000Y-128792380D01*
X61491904Y-128792380D01*
X63015714Y-128792380D02*
X62444285Y-128792380D01*
X62730000Y-128792380D02*
X62730000Y-127792380D01*
X62634761Y-127935238D01*
X62539523Y-128030476D01*
X62444285Y-128078095D01*
X56888095Y-129162380D02*
X56888095Y-128162380D01*
X57459523Y-129162380D02*
X57030952Y-128590952D01*
X57459523Y-128162380D02*
X56888095Y-128733809D01*
%TO.C,C5*%
X112863333Y-114767142D02*
X112815714Y-114814761D01*
X112672857Y-114862380D01*
X112577619Y-114862380D01*
X112434761Y-114814761D01*
X112339523Y-114719523D01*
X112291904Y-114624285D01*
X112244285Y-114433809D01*
X112244285Y-114290952D01*
X112291904Y-114100476D01*
X112339523Y-114005238D01*
X112434761Y-113910000D01*
X112577619Y-113862380D01*
X112672857Y-113862380D01*
X112815714Y-113910000D01*
X112863333Y-113957619D01*
X113768095Y-113862380D02*
X113291904Y-113862380D01*
X113244285Y-114338571D01*
X113291904Y-114290952D01*
X113387142Y-114243333D01*
X113625238Y-114243333D01*
X113720476Y-114290952D01*
X113768095Y-114338571D01*
X113815714Y-114433809D01*
X113815714Y-114671904D01*
X113768095Y-114767142D01*
X113720476Y-114814761D01*
X113625238Y-114862380D01*
X113387142Y-114862380D01*
X113291904Y-114814761D01*
X113244285Y-114767142D01*
%TO.C,C3*%
X112863333Y-132547142D02*
X112815714Y-132594761D01*
X112672857Y-132642380D01*
X112577619Y-132642380D01*
X112434761Y-132594761D01*
X112339523Y-132499523D01*
X112291904Y-132404285D01*
X112244285Y-132213809D01*
X112244285Y-132070952D01*
X112291904Y-131880476D01*
X112339523Y-131785238D01*
X112434761Y-131690000D01*
X112577619Y-131642380D01*
X112672857Y-131642380D01*
X112815714Y-131690000D01*
X112863333Y-131737619D01*
X113196666Y-131642380D02*
X113815714Y-131642380D01*
X113482380Y-132023333D01*
X113625238Y-132023333D01*
X113720476Y-132070952D01*
X113768095Y-132118571D01*
X113815714Y-132213809D01*
X113815714Y-132451904D01*
X113768095Y-132547142D01*
X113720476Y-132594761D01*
X113625238Y-132642380D01*
X113339523Y-132642380D01*
X113244285Y-132594761D01*
X113196666Y-132547142D01*
%TO.C,C1*%
X48617142Y-110402666D02*
X48664761Y-110450285D01*
X48712380Y-110593142D01*
X48712380Y-110688380D01*
X48664761Y-110831238D01*
X48569523Y-110926476D01*
X48474285Y-110974095D01*
X48283809Y-111021714D01*
X48140952Y-111021714D01*
X47950476Y-110974095D01*
X47855238Y-110926476D01*
X47760000Y-110831238D01*
X47712380Y-110688380D01*
X47712380Y-110593142D01*
X47760000Y-110450285D01*
X47807619Y-110402666D01*
X48712380Y-109450285D02*
X48712380Y-110021714D01*
X48712380Y-109736000D02*
X47712380Y-109736000D01*
X47855238Y-109831238D01*
X47950476Y-109926476D01*
X47998095Y-110021714D01*
%TD*%
M02*
