%TF.GenerationSoftware,KiCad,Pcbnew,5.1.5+dfsg1-2build2*%
%TF.CreationDate,2021-11-04T20:21:01+01:00*%
%TF.ProjectId,ebus,65627573-2e6b-4696-9361-645f70636258,rev?*%
%TF.SameCoordinates,Original*%
%TF.FileFunction,Soldermask,Bot*%
%TF.FilePolarity,Negative*%
%FSLAX46Y46*%
G04 Gerber Fmt 4.6, Leading zero omitted, Abs format (unit mm)*
G04 Created by KiCad (PCBNEW 5.1.5+dfsg1-2build2) date 2021-11-04 20:21:01*
%MOMM*%
%LPD*%
G04 APERTURE LIST*
%ADD10O,0.875000X1.650000*%
%ADD11O,1.400000X0.750000*%
%ADD12O,1.800000X1.800000*%
%ADD13R,1.800000X1.800000*%
%ADD14O,1.700000X1.700000*%
%ADD15C,1.700000*%
%ADD16C,2.200000*%
%ADD17R,1.700000X1.700000*%
%ADD18O,2.005000X2.100000*%
%ADD19R,2.005000X2.100000*%
%ADD20O,3.600000X3.600000*%
%ADD21R,1.600000X1.150000*%
%ADD22O,1.600000X1.150000*%
%ADD23C,2.500000*%
%ADD24R,2.500000X2.500000*%
%ADD25C,1.900000*%
%ADD26R,1.900000X1.900000*%
%ADD27O,2.300000X2.300000*%
%ADD28R,2.300000X2.300000*%
G04 APERTURE END LIST*
D10*
%TO.C,J3*%
X94940000Y-138176000D03*
X87940000Y-138176000D03*
D11*
X93940000Y-135476000D03*
X88940000Y-135476000D03*
%TD*%
D12*
%TO.C,J10*%
X74422000Y-96266000D03*
X74422000Y-98806000D03*
X71882000Y-96266000D03*
X71882000Y-98806000D03*
X69342000Y-96266000D03*
X69342000Y-98806000D03*
X66802000Y-96266000D03*
X66802000Y-98806000D03*
X64262000Y-96266000D03*
X64262000Y-98806000D03*
X61722000Y-96266000D03*
X61722000Y-98806000D03*
X59182000Y-96266000D03*
D13*
X59182000Y-98806000D03*
%TD*%
D14*
%TO.C,R3*%
X57150000Y-114300000D03*
D15*
X64770000Y-114300000D03*
%TD*%
%TO.C,C6*%
X53340000Y-106720000D03*
X53340000Y-109220000D03*
%TD*%
D16*
%TO.C,REF\002A\002A*%
X122174000Y-85090000D03*
%TD*%
%TO.C,REF\002A\002A*%
X122174000Y-137414000D03*
%TD*%
%TO.C,REF\002A\002A*%
X42418000Y-137414000D03*
%TD*%
%TO.C,REF\002A\002A*%
X42418000Y-85090000D03*
%TD*%
D12*
%TO.C,J9*%
X119380000Y-115316000D03*
D13*
X116840000Y-115316000D03*
%TD*%
D12*
%TO.C,J8*%
X119380000Y-112776000D03*
D13*
X116840000Y-112776000D03*
%TD*%
D12*
%TO.C,J7*%
X76200000Y-125984000D03*
D13*
X73660000Y-125984000D03*
%TD*%
D14*
%TO.C,D7*%
X64770000Y-125476000D03*
D17*
X57150000Y-125476000D03*
%TD*%
D14*
%TO.C,U4*%
X82550000Y-118110000D03*
X90170000Y-113030000D03*
X82550000Y-115570000D03*
X90170000Y-115570000D03*
X82550000Y-113030000D03*
D17*
X90170000Y-118110000D03*
%TD*%
D18*
%TO.C,U3*%
X43180000Y-113792000D03*
X45720000Y-113792000D03*
D19*
X48260000Y-113792000D03*
D20*
X45720000Y-130452000D03*
%TD*%
D14*
%TO.C,U2*%
X71120000Y-137160000D03*
X78740000Y-132080000D03*
X71120000Y-134620000D03*
X78740000Y-134620000D03*
X71120000Y-132080000D03*
D17*
X78740000Y-137160000D03*
%TD*%
D14*
%TO.C,U1*%
X90170000Y-99060000D03*
X82550000Y-106680000D03*
X90170000Y-101600000D03*
X82550000Y-104140000D03*
X90170000Y-104140000D03*
X82550000Y-101600000D03*
X90170000Y-106680000D03*
D17*
X82550000Y-99060000D03*
%TD*%
D14*
%TO.C,R19*%
X83820000Y-92710000D03*
D15*
X83820000Y-85090000D03*
%TD*%
D14*
%TO.C,R17*%
X53340000Y-92710000D03*
D15*
X53340000Y-85090000D03*
%TD*%
D14*
%TO.C,R16*%
X73660000Y-92710000D03*
D15*
X73660000Y-85090000D03*
%TD*%
D14*
%TO.C,R15*%
X69850000Y-119380000D03*
D15*
X77470000Y-119380000D03*
%TD*%
D14*
%TO.C,R14*%
X69850000Y-114300000D03*
D15*
X77470000Y-114300000D03*
%TD*%
D14*
%TO.C,R13*%
X82550000Y-124460000D03*
D15*
X90170000Y-124460000D03*
%TD*%
D14*
%TO.C,R11*%
X57150000Y-109220000D03*
D15*
X64770000Y-109220000D03*
%TD*%
D14*
%TO.C,R10*%
X77470000Y-109220000D03*
D15*
X69850000Y-109220000D03*
%TD*%
D14*
%TO.C,R9*%
X57150000Y-104140000D03*
D15*
X64770000Y-104140000D03*
%TD*%
D14*
%TO.C,R7*%
X77470000Y-104140000D03*
D15*
X69850000Y-104140000D03*
%TD*%
D14*
%TO.C,R6*%
X63500000Y-92710000D03*
D15*
X63500000Y-85090000D03*
%TD*%
D14*
%TO.C,R4*%
X64770000Y-119380000D03*
D15*
X57150000Y-119380000D03*
%TD*%
D14*
%TO.C,R1*%
X53340000Y-134620000D03*
D15*
X60960000Y-134620000D03*
%TD*%
D21*
%TO.C,Q1*%
X66040000Y-134620000D03*
D22*
X66040000Y-137160000D03*
X66040000Y-135890000D03*
%TD*%
D12*
%TO.C,J6*%
X121920000Y-117856000D03*
X121920000Y-115316000D03*
X121920000Y-112776000D03*
D13*
X121920000Y-110236000D03*
%TD*%
D12*
%TO.C,J5*%
X121920000Y-99060000D03*
D13*
X121920000Y-96520000D03*
%TD*%
D12*
%TO.C,J4*%
X100330000Y-136906000D03*
D13*
X100330000Y-134366000D03*
%TD*%
D12*
%TO.C,J2*%
X121920000Y-132080000D03*
X121920000Y-129540000D03*
X121920000Y-127000000D03*
D13*
X121920000Y-124460000D03*
%TD*%
D23*
%TO.C,J1*%
X44450000Y-94940000D03*
D24*
X44450000Y-91440000D03*
%TD*%
D25*
%TO.C,D6*%
X87630000Y-85852000D03*
D26*
X90170000Y-85852000D03*
%TD*%
D25*
%TO.C,D5*%
X57150000Y-85852000D03*
D26*
X59690000Y-85852000D03*
%TD*%
D25*
%TO.C,D4*%
X77470000Y-85852000D03*
D26*
X80010000Y-85852000D03*
%TD*%
D17*
%TO.C,D3*%
X43180000Y-106680000D03*
D14*
X48260000Y-99060000D03*
X48260000Y-106680000D03*
X43180000Y-99060000D03*
%TD*%
D25*
%TO.C,D2*%
X67310000Y-85852000D03*
D26*
X69850000Y-85852000D03*
%TD*%
D27*
%TO.C,D1*%
X67310000Y-130810000D03*
D28*
X57150000Y-130810000D03*
%TD*%
D15*
%TO.C,C1*%
X45760000Y-109982000D03*
X48260000Y-109982000D03*
%TD*%
M02*
