%TF.GenerationSoftware,KiCad,Pcbnew,6.0.11-2627ca5db0~126~ubuntu20.04.1*%
%TF.CreationDate,2023-05-17T16:55:42+02:00*%
%TF.ProjectId,ebus,65627573-2e6b-4696-9361-645f70636258,rev?*%
%TF.SameCoordinates,Original*%
%TF.FileFunction,Soldermask,Bot*%
%TF.FilePolarity,Negative*%
%FSLAX46Y46*%
G04 Gerber Fmt 4.6, Leading zero omitted, Abs format (unit mm)*
G04 Created by KiCad (PCBNEW 6.0.11-2627ca5db0~126~ubuntu20.04.1) date 2023-05-17 16:55:42*
%MOMM*%
%LPD*%
G01*
G04 APERTURE LIST*
G04 Aperture macros list*
%AMRoundRect*
0 Rectangle with rounded corners*
0 $1 Rounding radius*
0 $2 $3 $4 $5 $6 $7 $8 $9 X,Y pos of 4 corners*
0 Add a 4 corners polygon primitive as box body*
4,1,4,$2,$3,$4,$5,$6,$7,$8,$9,$2,$3,0*
0 Add four circle primitives for the rounded corners*
1,1,$1+$1,$2,$3*
1,1,$1+$1,$4,$5*
1,1,$1+$1,$6,$7*
1,1,$1+$1,$8,$9*
0 Add four rect primitives between the rounded corners*
20,1,$1+$1,$2,$3,$4,$5,0*
20,1,$1+$1,$4,$5,$6,$7,0*
20,1,$1+$1,$6,$7,$8,$9,0*
20,1,$1+$1,$8,$9,$2,$3,0*%
G04 Aperture macros list end*
%ADD10C,3.300000*%
%ADD11RoundRect,0.050000X-0.850000X-0.850000X0.850000X-0.850000X0.850000X0.850000X-0.850000X0.850000X0*%
%ADD12O,1.800000X1.800000*%
%ADD13RoundRect,0.050000X-0.500000X-0.500000X0.500000X-0.500000X0.500000X0.500000X-0.500000X0.500000X0*%
%ADD14O,1.100000X1.100000*%
%ADD15RoundRect,0.300000X0.375000X0.625000X-0.375000X0.625000X-0.375000X-0.625000X0.375000X-0.625000X0*%
%ADD16RoundRect,0.300000X0.550000X-1.500000X0.550000X1.500000X-0.550000X1.500000X-0.550000X-1.500000X0*%
%ADD17RoundRect,0.300000X-0.375000X-0.625000X0.375000X-0.625000X0.375000X0.625000X-0.375000X0.625000X0*%
%ADD18C,0.750000*%
%ADD19RoundRect,0.050000X-0.300000X-0.725000X0.300000X-0.725000X0.300000X0.725000X-0.300000X0.725000X0*%
%ADD20RoundRect,0.050000X-0.150000X-0.725000X0.150000X-0.725000X0.150000X0.725000X-0.150000X0.725000X0*%
%ADD21O,1.100000X1.700000*%
%ADD22O,1.100000X2.200000*%
%ADD23RoundRect,0.050000X0.850000X0.850000X-0.850000X0.850000X-0.850000X-0.850000X0.850000X-0.850000X0*%
%ADD24RoundRect,0.300000X-0.625000X0.375000X-0.625000X-0.375000X0.625000X-0.375000X0.625000X0.375000X0*%
%ADD25RoundRect,0.300000X0.625000X-0.375000X0.625000X0.375000X-0.625000X0.375000X-0.625000X-0.375000X0*%
%ADD26RoundRect,0.050000X-0.750000X1.000000X-0.750000X-1.000000X0.750000X-1.000000X0.750000X1.000000X0*%
%ADD27RoundRect,0.050000X-1.900000X1.000000X-1.900000X-1.000000X1.900000X-1.000000X1.900000X1.000000X0*%
%ADD28RoundRect,0.050000X-1.250000X-0.500000X1.250000X-0.500000X1.250000X0.500000X-1.250000X0.500000X0*%
%ADD29RoundRect,0.050000X-0.500000X-0.900000X0.500000X-0.900000X0.500000X0.900000X-0.500000X0.900000X0*%
%ADD30RoundRect,0.050000X-0.450000X-0.400000X0.450000X-0.400000X0.450000X0.400000X-0.450000X0.400000X0*%
%ADD31RoundRect,0.200000X-0.825000X-0.150000X0.825000X-0.150000X0.825000X0.150000X-0.825000X0.150000X0*%
%ADD32RoundRect,0.050000X-1.200000X-1.200000X1.200000X-1.200000X1.200000X1.200000X-1.200000X1.200000X0*%
%ADD33C,2.500000*%
%ADD34RoundRect,0.293750X-0.243750X-0.456250X0.243750X-0.456250X0.243750X0.456250X-0.243750X0.456250X0*%
%ADD35RoundRect,0.293750X0.243750X0.456250X-0.243750X0.456250X-0.243750X-0.456250X0.243750X-0.456250X0*%
%ADD36RoundRect,0.050000X1.000000X-2.250000X1.000000X2.250000X-1.000000X2.250000X-1.000000X-2.250000X0*%
G04 APERTURE END LIST*
D10*
%TO.C,H1*%
X66929000Y-86741000D03*
%TD*%
%TO.C,H2*%
X66929000Y-144653000D03*
%TD*%
%TO.C,H3*%
X89662000Y-86741000D03*
%TD*%
%TO.C,H4*%
X89662000Y-144653000D03*
%TD*%
D11*
%TO.C,J3*%
X68072000Y-91567000D03*
D12*
X65532000Y-91567000D03*
X68072000Y-94107000D03*
X65532000Y-94107000D03*
X68072000Y-96647000D03*
X65532000Y-96647000D03*
X68072000Y-99187000D03*
X65532000Y-99187000D03*
X68072000Y-101727000D03*
X65532000Y-101727000D03*
%TD*%
D13*
%TO.C,J8*%
X65405000Y-106807000D03*
D14*
X66675000Y-106807000D03*
X65405000Y-108077000D03*
X66675000Y-108077000D03*
X65405000Y-109347000D03*
X66675000Y-109347000D03*
X65405000Y-110617000D03*
X66675000Y-110617000D03*
X65405000Y-111887000D03*
X66675000Y-111887000D03*
X65405000Y-113157000D03*
X66675000Y-113157000D03*
X65405000Y-114427000D03*
X66675000Y-114427000D03*
%TD*%
D15*
%TO.C,C2*%
X118113000Y-93726000D03*
X115313000Y-93726000D03*
%TD*%
D16*
%TO.C,C3*%
X108534200Y-103460200D03*
X108534200Y-97860200D03*
%TD*%
D17*
%TO.C,C4*%
X109344000Y-93726000D03*
X112144000Y-93726000D03*
%TD*%
D18*
%TO.C,J2*%
X119272800Y-88248800D03*
X113492800Y-88248800D03*
D19*
X113132800Y-89693800D03*
X113932800Y-89693800D03*
D20*
X115132800Y-89693800D03*
X116132800Y-89693800D03*
X116632800Y-89693800D03*
X117632800Y-89693800D03*
D19*
X118832800Y-89693800D03*
X119632800Y-89693800D03*
X119632800Y-89693800D03*
X118832800Y-89693800D03*
D20*
X118132800Y-89693800D03*
X117132800Y-89693800D03*
X115632800Y-89693800D03*
X114632800Y-89693800D03*
D19*
X113932800Y-89693800D03*
X113132800Y-89693800D03*
D21*
X120702800Y-84598800D03*
D22*
X112062800Y-88778800D03*
D21*
X112062800Y-84598800D03*
D22*
X120702800Y-88778800D03*
%TD*%
D23*
%TO.C,J4*%
X99822000Y-107569000D03*
D12*
X99822000Y-110109000D03*
X99822000Y-112649000D03*
X99822000Y-115189000D03*
X99822000Y-117729000D03*
X99822000Y-120269000D03*
%TD*%
D23*
%TO.C,J5*%
X99949000Y-124841000D03*
D12*
X99949000Y-127381000D03*
X99949000Y-129921000D03*
X99949000Y-132461000D03*
X99949000Y-135001000D03*
X99949000Y-137541000D03*
%TD*%
D23*
%TO.C,J6*%
X125222000Y-91790600D03*
D12*
X125222000Y-94330600D03*
%TD*%
D24*
%TO.C,R18*%
X123952000Y-128521000D03*
X123952000Y-131321000D03*
%TD*%
D25*
%TO.C,R20*%
X123952000Y-136909000D03*
X123952000Y-134109000D03*
%TD*%
D26*
%TO.C,U5*%
X121093200Y-99161200D03*
D27*
X123393200Y-105461200D03*
D26*
X123393200Y-99161200D03*
X125693200Y-99161200D03*
%TD*%
D28*
%TO.C,U6*%
X104922000Y-139720200D03*
X104922000Y-137720200D03*
X104922000Y-135720200D03*
X104922000Y-133720200D03*
X104922000Y-131720200D03*
X104922000Y-129720200D03*
X104922000Y-127720200D03*
X104922000Y-125720200D03*
D29*
X107522000Y-124220200D03*
X109522000Y-124220200D03*
X111522000Y-124220200D03*
X113522000Y-124220200D03*
X115522000Y-124220200D03*
X117522000Y-124220200D03*
D28*
X120122000Y-125720200D03*
X120122000Y-127720200D03*
X120122000Y-129720200D03*
X120122000Y-131720200D03*
X120122000Y-133720200D03*
X120122000Y-135720200D03*
X120122000Y-137720200D03*
X120122000Y-139720200D03*
%TD*%
D10*
%TO.C,H5*%
X123825000Y-86868000D03*
%TD*%
%TO.C,H6*%
X123825000Y-144653000D03*
%TD*%
%TO.C,H7*%
X101092000Y-86868000D03*
%TD*%
%TO.C,H8*%
X101092000Y-144653000D03*
%TD*%
D24*
%TO.C,R21*%
X123952000Y-122679000D03*
X123952000Y-125479000D03*
%TD*%
D16*
%TO.C,C5*%
X115849400Y-103460200D03*
X115849400Y-97860200D03*
%TD*%
D23*
%TO.C,J7*%
X102235000Y-91694000D03*
D12*
X99695000Y-91694000D03*
X102235000Y-94234000D03*
X99695000Y-94234000D03*
X102235000Y-96774000D03*
X99695000Y-96774000D03*
X102235000Y-99314000D03*
X99695000Y-99314000D03*
X102235000Y-101854000D03*
X99695000Y-101854000D03*
%TD*%
D30*
%TO.C,Q2*%
X121529600Y-110881200D03*
X121529600Y-108981200D03*
X123529600Y-109931200D03*
%TD*%
%TO.C,Q3*%
X121529600Y-114691200D03*
X121529600Y-112791200D03*
X123529600Y-113741200D03*
%TD*%
D24*
%TO.C,R2*%
X121945400Y-117141800D03*
X121945400Y-119941800D03*
%TD*%
%TO.C,R5*%
X124612400Y-117141800D03*
X124612400Y-119941800D03*
%TD*%
D31*
%TO.C,U7*%
X108423000Y-117684000D03*
X108423000Y-116414000D03*
X108423000Y-115144000D03*
X108423000Y-113874000D03*
X108423000Y-112604000D03*
X108423000Y-111334000D03*
X108423000Y-110064000D03*
X108423000Y-108794000D03*
X113373000Y-108794000D03*
X113373000Y-110064000D03*
X113373000Y-111334000D03*
X113373000Y-112604000D03*
X113373000Y-113874000D03*
X113373000Y-115144000D03*
X113373000Y-116414000D03*
X113373000Y-117684000D03*
%TD*%
D32*
%TO.C,J1*%
X71656000Y-86968000D03*
D33*
X75156000Y-86968000D03*
%TD*%
D34*
%TO.C,C7*%
X107799900Y-120319800D03*
X109674900Y-120319800D03*
%TD*%
D35*
%TO.C,C8*%
X114084900Y-120319800D03*
X112209900Y-120319800D03*
%TD*%
D36*
%TO.C,Y1*%
X117729000Y-119159600D03*
X117729000Y-110659600D03*
%TD*%
M02*
