M48
; DRILL file {KiCad 5.1.5+dfsg1-2build2} date Thu 04 Nov 2021 20:21:03 CET
; FORMAT={-:-/ absolute / inch / decimal}
; #@! TF.CreationDate,2021-11-04T20:21:03+01:00
; #@! TF.GenerationSoftware,Kicad,Pcbnew,5.1.5+dfsg1-2build2
FMAT,2
INCH
T1C0.0157
T2C0.0197
T3C0.0217
T4C0.0295
T5C0.0315
T6C0.0354
T7C0.0394
T8C0.0433
T9C0.0472
T10C0.0827
T11C0.1378
%
G90
G05
T1
X2.04Y-4.06
X2.5Y-3.98
X2.6215Y-4.44
X2.88Y-4.11
X2.88Y-4.62
X2.88Y-4.83
X3.049Y-4.4262
X3.16Y-4.54
X3.19Y-3.85
X3.35Y-4.78
X3.4Y-4.62
X3.51Y-4.32
X3.53Y-4.77
X3.6015Y-3.69
X3.63Y-3.6343
X3.88Y-5.25
X4.03Y-4.4189
X4.03Y-4.48
X4.34Y-4.54
X4.36Y-3.94
X4.36Y-4.08
X4.39Y-4.93
X4.42Y-4.0098
X4.42Y-4.08
X4.48Y-4.22
X4.8754Y-5.0
T4
X2.6Y-5.3
X2.6Y-5.35
X2.6Y-5.4
T5
X3.25Y-3.9
X3.25Y-4.0
X3.25Y-4.1
X3.25Y-4.2
X3.55Y-3.9
X3.55Y-4.0
X3.55Y-4.1
X3.55Y-4.2
X3.3Y-3.35
X3.3Y-3.65
X2.75Y-4.1
X3.05Y-4.1
X1.7Y-3.9
X1.7Y-4.2
X1.9Y-3.9
X1.9Y-4.2
X2.25Y-4.5
X2.55Y-4.5
X2.25Y-4.7
X2.55Y-4.7
X3.25Y-4.9
X3.55Y-4.9
X2.75Y-4.3
X3.05Y-4.3
X2.5Y-3.35
X2.5Y-3.65
X2.75Y-4.7
X3.05Y-4.7
X1.8016Y-4.33
X1.9Y-4.33
X2.1Y-4.2016
X2.1Y-4.3
X2.1Y-3.35
X2.1Y-3.65
X2.25Y-4.3
X2.55Y-4.3
X3.25Y-4.45
X3.25Y-4.55
X3.25Y-4.65
X3.55Y-4.45
X3.55Y-4.55
X3.55Y-4.65
X2.9Y-3.35
X2.9Y-3.65
X2.25Y-4.94
X2.55Y-4.94
X2.8Y-5.2
X2.8Y-5.3
X2.8Y-5.4
X3.1Y-5.2
X3.1Y-5.3
X3.1Y-5.4
X2.25Y-4.1
X2.55Y-4.1
X2.75Y-4.5
X3.05Y-4.5
X2.1Y-5.3
X2.4Y-5.3
T6
X2.25Y-3.38
X2.35Y-3.38
X3.05Y-3.38
X3.15Y-3.38
X3.45Y-3.38
X3.55Y-3.38
X2.65Y-3.38
X2.75Y-3.38
T7
X3.95Y-5.29
X3.95Y-5.39
X4.8Y-4.34
X4.8Y-4.44
X4.8Y-4.54
X4.8Y-4.64
X4.8Y-3.8
X4.8Y-3.9
X4.6Y-4.44
X4.7Y-4.44
X4.8Y-4.9
X4.8Y-5.0
X4.8Y-5.1
X4.8Y-5.2
X2.33Y-3.79
X2.33Y-3.89
X2.43Y-3.79
X2.43Y-3.89
X2.53Y-3.79
X2.53Y-3.89
X2.63Y-3.79
X2.63Y-3.89
X2.73Y-3.79
X2.73Y-3.89
X2.83Y-3.79
X2.83Y-3.89
X2.93Y-3.79
X2.93Y-3.89
X2.9Y-4.96
X3.0Y-4.96
X4.6Y-4.54
X4.7Y-4.54
T8
X2.25Y-5.15
X2.65Y-5.15
X1.7Y-4.48
X1.8Y-4.48
X1.9Y-4.48
T9
X1.75Y-3.6
X1.75Y-3.7378
T10
X4.81Y-5.41
X4.81Y-3.35
X1.67Y-5.41
X1.67Y-3.35
T11
X1.8Y-5.1359
T2
G00X3.4622Y-5.4272
M15
G01X3.4622Y-5.4528
M16
G05
G00X3.7378Y-5.4272
M15
G01X3.7378Y-5.4528
M16
G05
T3
G00X3.4957Y-5.3337
M15
G01X3.5075Y-5.3337
M16
G05
G00X3.6925Y-5.3337
M15
G01X3.7043Y-5.3337
M16
G05
T0
M30
