M48
; DRILL file {KiCad (5.1.6)-1} date 02/04/21 13:19:09
; FORMAT={-:-/ absolute / inch / decimal}
; #@! TF.CreationDate,2021-02-04T13:19:09+01:00
; #@! TF.GenerationSoftware,Kicad,Pcbnew,(5.1.6)-1
FMAT,2
INCH
T1C0.0157
T2C0.0354
T3C0.0394
T4C0.0472
T5C0.1260
%
G90
G05
T1
X2.595Y-4.11
X2.605Y-4.56
X2.63Y-4.09
X2.7498Y-4.8663
X2.75Y-4.714
X2.75Y-4.9335
X2.7938Y-3.8438
X2.84Y-3.64
X2.85Y-4.1
X2.85Y-4.714
X2.8554Y-4.8554
X2.8715Y-5.1
X2.8835Y-4.7809
X2.9164Y-5.2336
X2.9385Y-5.1
X2.95Y-4.65
X3.0Y-4.6035
X3.025Y-3.875
X3.05Y-5.075
X3.216Y-4.509
X3.29Y-4.315
X3.32Y-3.49
X3.35Y-3.995
X3.37Y-5.795
X3.4157Y-4.625
X3.425Y-4.2
X3.4335Y-4.2966
X3.4358Y-4.4892
X3.5102Y-4.625
X3.525Y-4.325
X3.55Y-3.85
T2
X2.58Y-4.9
X2.58Y-5.0
X2.58Y-5.3
X2.58Y-5.4
X2.58Y-4.7
X2.58Y-4.8
X2.58Y-5.1
X2.58Y-5.2
T3
X2.58Y-3.605
X2.58Y-3.705
X2.58Y-3.805
X2.58Y-3.905
X2.58Y-4.005
X2.68Y-3.605
X2.68Y-3.705
X2.68Y-3.805
X2.68Y-3.905
X2.68Y-4.005
T4
X2.58Y-4.2972
X2.58Y-4.435
T5
X2.63Y-3.415
X3.535Y-3.405
X2.63Y-5.7
X3.54Y-5.695
T0
M30
