%TF.GenerationSoftware,KiCad,Pcbnew,5.1.5+dfsg1-2build2*%
%TF.CreationDate,2021-11-04T20:21:01+01:00*%
%TF.ProjectId,ebus,65627573-2e6b-4696-9361-645f70636258,rev?*%
%TF.SameCoordinates,Original*%
%TF.FileFunction,Copper,L2,Bot*%
%TF.FilePolarity,Positive*%
%FSLAX46Y46*%
G04 Gerber Fmt 4.6, Leading zero omitted, Abs format (unit mm)*
G04 Created by KiCad (PCBNEW 5.1.5+dfsg1-2build2) date 2021-11-04 20:21:01*
%MOMM*%
%LPD*%
G04 APERTURE LIST*
%TA.AperFunction,ComponentPad*%
%ADD10O,0.775000X1.550000*%
%TD*%
%TA.AperFunction,ComponentPad*%
%ADD11O,1.300000X0.650000*%
%TD*%
%TA.AperFunction,ComponentPad*%
%ADD12O,1.700000X1.700000*%
%TD*%
%TA.AperFunction,ComponentPad*%
%ADD13R,1.700000X1.700000*%
%TD*%
%TA.AperFunction,ComponentPad*%
%ADD14O,1.600000X1.600000*%
%TD*%
%TA.AperFunction,ComponentPad*%
%ADD15C,1.600000*%
%TD*%
%TA.AperFunction,ComponentPad*%
%ADD16R,1.600000X1.600000*%
%TD*%
%TA.AperFunction,ComponentPad*%
%ADD17O,1.905000X2.000000*%
%TD*%
%TA.AperFunction,ComponentPad*%
%ADD18R,1.905000X2.000000*%
%TD*%
%TA.AperFunction,ComponentPad*%
%ADD19R,1.500000X1.050000*%
%TD*%
%TA.AperFunction,ComponentPad*%
%ADD20O,1.500000X1.050000*%
%TD*%
%TA.AperFunction,ComponentPad*%
%ADD21C,2.400000*%
%TD*%
%TA.AperFunction,ComponentPad*%
%ADD22R,2.400000X2.400000*%
%TD*%
%TA.AperFunction,ComponentPad*%
%ADD23C,1.800000*%
%TD*%
%TA.AperFunction,ComponentPad*%
%ADD24R,1.800000X1.800000*%
%TD*%
%TA.AperFunction,ComponentPad*%
%ADD25O,2.200000X2.200000*%
%TD*%
%TA.AperFunction,ComponentPad*%
%ADD26R,2.200000X2.200000*%
%TD*%
%TA.AperFunction,ViaPad*%
%ADD27C,0.800000*%
%TD*%
%TA.AperFunction,Conductor*%
%ADD28C,0.250000*%
%TD*%
%TA.AperFunction,Conductor*%
%ADD29C,0.500000*%
%TD*%
%TA.AperFunction,Conductor*%
%ADD30C,0.254000*%
%TD*%
G04 APERTURE END LIST*
D10*
%TO.P,J3,S6*%
%TO.N,N/C*%
X94940000Y-138176000D03*
%TO.P,J3,S3*%
X87940000Y-138176000D03*
D11*
%TO.P,J3,S2*%
X93940000Y-135476000D03*
%TO.P,J3,S1*%
X88940000Y-135476000D03*
%TD*%
D12*
%TO.P,J10,14*%
%TO.N,MP7*%
X74422000Y-96266000D03*
%TO.P,J10,13*%
%TO.N,MP13*%
X74422000Y-98806000D03*
%TO.P,J10,12*%
%TO.N,MP6*%
X71882000Y-96266000D03*
%TO.P,J10,11*%
%TO.N,MP12*%
X71882000Y-98806000D03*
%TO.P,J10,10*%
%TO.N,MP5*%
X69342000Y-96266000D03*
%TO.P,J10,9*%
%TO.N,MP11*%
X69342000Y-98806000D03*
%TO.P,J10,8*%
%TO.N,MP4*%
X66802000Y-96266000D03*
%TO.P,J10,7*%
%TO.N,MP10*%
X66802000Y-98806000D03*
%TO.P,J10,6*%
%TO.N,MP3*%
X64262000Y-96266000D03*
%TO.P,J10,5*%
%TO.N,MP9*%
X64262000Y-98806000D03*
%TO.P,J10,4*%
%TO.N,Net-(J10-Pad4)*%
X61722000Y-96266000D03*
%TO.P,J10,3*%
%TO.N,MP4*%
X61722000Y-98806000D03*
%TO.P,J10,2*%
%TO.N,MP1*%
X59182000Y-96266000D03*
D13*
%TO.P,J10,1*%
%TO.N,MP_COM*%
X59182000Y-98806000D03*
%TD*%
D14*
%TO.P,R3,2*%
%TO.N,MP1*%
X57150000Y-114300000D03*
D15*
%TO.P,R3,1*%
%TO.N,MP3*%
X64770000Y-114300000D03*
%TD*%
%TO.P,C6,2*%
%TO.N,MP_COM*%
X53340000Y-106720000D03*
%TO.P,C6,1*%
%TO.N,Net-(C6-Pad1)*%
X53340000Y-109220000D03*
%TD*%
D12*
%TO.P,J9,2*%
%TO.N,RX*%
X119380000Y-115316000D03*
D13*
%TO.P,J9,1*%
%TO.N,Net-(J9-Pad1)*%
X116840000Y-115316000D03*
%TD*%
D12*
%TO.P,J8,2*%
%TO.N,TX*%
X119380000Y-112776000D03*
D13*
%TO.P,J8,1*%
%TO.N,Net-(J8-Pad1)*%
X116840000Y-112776000D03*
%TD*%
D12*
%TO.P,J7,2*%
%TO.N,MP12*%
X76200000Y-125984000D03*
D13*
%TO.P,J7,1*%
%TO.N,MP13*%
X73660000Y-125984000D03*
%TD*%
D14*
%TO.P,D7,2*%
%TO.N,Net-(C6-Pad1)*%
X64770000Y-125476000D03*
D16*
%TO.P,D7,1*%
%TO.N,MP1*%
X57150000Y-125476000D03*
%TD*%
D14*
%TO.P,U4,6*%
%TO.N,Net-(U4-Pad6)*%
X82550000Y-118110000D03*
%TO.P,U4,3*%
%TO.N,Net-(U4-Pad3)*%
X90170000Y-113030000D03*
%TO.P,U4,5*%
%TO.N,RX*%
X82550000Y-115570000D03*
%TO.P,U4,2*%
%TO.N,MP10*%
X90170000Y-115570000D03*
%TO.P,U4,4*%
%TO.N,GNDREF*%
X82550000Y-113030000D03*
D16*
%TO.P,U4,1*%
%TO.N,MP9*%
X90170000Y-118110000D03*
%TD*%
D17*
%TO.P,U3,3*%
%TO.N,MP5*%
X43180000Y-113792000D03*
%TO.P,U3,2*%
%TO.N,MP_COM*%
X45720000Y-113792000D03*
D18*
%TO.P,U3,1*%
%TO.N,MP1*%
X48260000Y-113792000D03*
%TD*%
D14*
%TO.P,U2,6*%
%TO.N,Net-(U2-Pad6)*%
X71120000Y-137160000D03*
%TO.P,U2,3*%
%TO.N,Net-(U2-Pad3)*%
X78740000Y-132080000D03*
%TO.P,U2,5*%
%TO.N,MP12*%
X71120000Y-134620000D03*
%TO.P,U2,2*%
%TO.N,TX*%
X78740000Y-134620000D03*
%TO.P,U2,4*%
%TO.N,MP13*%
X71120000Y-132080000D03*
D16*
%TO.P,U2,1*%
%TO.N,Net-(R13-Pad2)*%
X78740000Y-137160000D03*
%TD*%
D14*
%TO.P,U1,8*%
%TO.N,MP5*%
X90170000Y-99060000D03*
%TO.P,U1,4*%
%TO.N,MP_COM*%
X82550000Y-106680000D03*
%TO.P,U1,7*%
%TO.N,MP10*%
X90170000Y-101600000D03*
%TO.P,U1,3*%
%TO.N,MP4*%
X82550000Y-104140000D03*
%TO.P,U1,6*%
%TO.N,MP7*%
X90170000Y-104140000D03*
%TO.P,U1,2*%
%TO.N,MP3*%
X82550000Y-101600000D03*
%TO.P,U1,5*%
%TO.N,MP4*%
X90170000Y-106680000D03*
D16*
%TO.P,U1,1*%
%TO.N,MP7*%
X82550000Y-99060000D03*
%TD*%
D14*
%TO.P,R19,2*%
%TO.N,+5VP*%
X83820000Y-92710000D03*
D15*
%TO.P,R19,1*%
%TO.N,Net-(D6-Pad2)*%
X83820000Y-85090000D03*
%TD*%
D14*
%TO.P,R17,2*%
%TO.N,MP5*%
X53340000Y-92710000D03*
D15*
%TO.P,R17,1*%
%TO.N,Net-(D5-Pad2)*%
X53340000Y-85090000D03*
%TD*%
D14*
%TO.P,R16,2*%
%TO.N,+3V3*%
X73660000Y-92710000D03*
D15*
%TO.P,R16,1*%
%TO.N,Net-(D4-Pad2)*%
X73660000Y-85090000D03*
%TD*%
D14*
%TO.P,R15,2*%
%TO.N,+3V3*%
X69850000Y-119380000D03*
D15*
%TO.P,R15,1*%
%TO.N,RX*%
X77470000Y-119380000D03*
%TD*%
D14*
%TO.P,R14,2*%
%TO.N,MP5*%
X69850000Y-114300000D03*
D15*
%TO.P,R14,1*%
%TO.N,MP9*%
X77470000Y-114300000D03*
%TD*%
D14*
%TO.P,R13,2*%
%TO.N,Net-(R13-Pad2)*%
X82550000Y-124460000D03*
D15*
%TO.P,R13,1*%
%TO.N,+3V3*%
X90170000Y-124460000D03*
%TD*%
D14*
%TO.P,R11,2*%
%TO.N,MP5*%
X57150000Y-109220000D03*
D15*
%TO.P,R11,1*%
%TO.N,MP7*%
X64770000Y-109220000D03*
%TD*%
D14*
%TO.P,R10,2*%
%TO.N,MP4*%
X77470000Y-109220000D03*
D15*
%TO.P,R10,1*%
%TO.N,MP7*%
X69850000Y-109220000D03*
%TD*%
D14*
%TO.P,R9,2*%
%TO.N,MP5*%
X57150000Y-104140000D03*
D15*
%TO.P,R9,1*%
%TO.N,MP4*%
X64770000Y-104140000D03*
%TD*%
D14*
%TO.P,R7,2*%
%TO.N,MP_COM*%
X77470000Y-104140000D03*
D15*
%TO.P,R7,1*%
%TO.N,MP4*%
X69850000Y-104140000D03*
%TD*%
D14*
%TO.P,R6,2*%
%TO.N,MP5*%
X63500000Y-92710000D03*
D15*
%TO.P,R6,1*%
%TO.N,MP11*%
X63500000Y-85090000D03*
%TD*%
D14*
%TO.P,R4,2*%
%TO.N,MP3*%
X64770000Y-119380000D03*
D15*
%TO.P,R4,1*%
%TO.N,MP_COM*%
X57150000Y-119380000D03*
%TD*%
D14*
%TO.P,R1,2*%
%TO.N,MP_COM*%
X53340000Y-134620000D03*
D15*
%TO.P,R1,1*%
%TO.N,MP13*%
X60960000Y-134620000D03*
%TD*%
D19*
%TO.P,Q1,1*%
%TO.N,MP6*%
X66040000Y-134620000D03*
D20*
%TO.P,Q1,3*%
%TO.N,MP_COM*%
X66040000Y-137160000D03*
%TO.P,Q1,2*%
%TO.N,MP13*%
X66040000Y-135890000D03*
%TD*%
D12*
%TO.P,J6,4*%
%TO.N,GNDREF*%
X121920000Y-117856000D03*
%TO.P,J6,3*%
%TO.N,P_RX*%
X121920000Y-115316000D03*
%TO.P,J6,2*%
%TO.N,P_TX*%
X121920000Y-112776000D03*
D13*
%TO.P,J6,1*%
%TO.N,+5VP*%
X121920000Y-110236000D03*
%TD*%
D12*
%TO.P,J5,2*%
%TO.N,RESET*%
X121920000Y-99060000D03*
D13*
%TO.P,J5,1*%
%TO.N,GPIO0*%
X121920000Y-96520000D03*
%TD*%
D12*
%TO.P,J4,2*%
%TO.N,+5VP*%
X100330000Y-136906000D03*
D13*
%TO.P,J4,1*%
%TO.N,GNDREF*%
X100330000Y-134366000D03*
%TD*%
D12*
%TO.P,J2,4*%
%TO.N,+3V3*%
X121920000Y-132080000D03*
%TO.P,J2,3*%
%TO.N,RX*%
X121920000Y-129540000D03*
%TO.P,J2,2*%
%TO.N,TX*%
X121920000Y-127000000D03*
D13*
%TO.P,J2,1*%
%TO.N,GNDREF*%
X121920000Y-124460000D03*
%TD*%
D21*
%TO.P,J1,2*%
%TO.N,Net-(D3-Pad4)*%
X44450000Y-94940000D03*
D22*
%TO.P,J1,1*%
%TO.N,Net-(D3-Pad3)*%
X44450000Y-91440000D03*
%TD*%
D23*
%TO.P,D6,2*%
%TO.N,Net-(D6-Pad2)*%
X87630000Y-85852000D03*
D24*
%TO.P,D6,1*%
%TO.N,GNDREF*%
X90170000Y-85852000D03*
%TD*%
D23*
%TO.P,D5,2*%
%TO.N,Net-(D5-Pad2)*%
X57150000Y-85852000D03*
D24*
%TO.P,D5,1*%
%TO.N,MP_COM*%
X59690000Y-85852000D03*
%TD*%
D23*
%TO.P,D4,2*%
%TO.N,Net-(D4-Pad2)*%
X77470000Y-85852000D03*
D24*
%TO.P,D4,1*%
%TO.N,RX*%
X80010000Y-85852000D03*
%TD*%
D16*
%TO.P,D3,1*%
%TO.N,Net-(C6-Pad1)*%
X43180000Y-106680000D03*
D14*
%TO.P,D3,3*%
%TO.N,Net-(D3-Pad3)*%
X48260000Y-99060000D03*
%TO.P,D3,2*%
%TO.N,MP_COM*%
X48260000Y-106680000D03*
%TO.P,D3,4*%
%TO.N,Net-(D3-Pad4)*%
X43180000Y-99060000D03*
%TD*%
D23*
%TO.P,D2,2*%
%TO.N,MP11*%
X67310000Y-85852000D03*
D24*
%TO.P,D2,1*%
%TO.N,MP12*%
X69850000Y-85852000D03*
%TD*%
D25*
%TO.P,D1,2*%
%TO.N,MP6*%
X67310000Y-130810000D03*
D26*
%TO.P,D1,1*%
%TO.N,MP1*%
X57150000Y-130810000D03*
%TD*%
D15*
%TO.P,C1,2*%
%TO.N,MP_COM*%
X45760000Y-109982000D03*
%TO.P,C1,1*%
%TO.N,MP1*%
X48260000Y-109982000D03*
%TD*%
D27*
%TO.N,GNDREF*%
X92202000Y-92309999D03*
X110236000Y-115316000D03*
X113792000Y-107188000D03*
X85090000Y-121412000D03*
%TO.N,+5VP*%
X98552000Y-133350000D03*
X111506000Y-125222000D03*
X91477000Y-93726000D03*
%TO.N,+3V3*%
X102362000Y-112240990D03*
X102362000Y-113792000D03*
%TO.N,TX*%
X123835000Y-127000000D03*
%TO.N,Net-(J8-Pad1)*%
X112268000Y-103632000D03*
X112268000Y-101850001D03*
%TO.N,Net-(J9-Pad1)*%
X110744000Y-103632000D03*
X110744000Y-100076000D03*
%TO.N,MP_COM*%
X51816000Y-103124000D03*
X80264000Y-115316000D03*
X89154000Y-109728000D03*
X86360000Y-117348000D03*
X89662000Y-121158000D03*
X73152000Y-122682000D03*
X73152000Y-117348000D03*
X73152000Y-104394000D03*
X63500000Y-101092000D03*
%TO.N,MP10*%
X81026000Y-97790000D03*
%TO.N,MP9*%
X66585000Y-112776000D03*
X77444849Y-112424848D03*
%TD*%
D28*
%TO.N,GNDREF*%
X91320000Y-85852000D02*
X90170000Y-85852000D01*
X92202000Y-86734000D02*
X91320000Y-85852000D01*
X92202000Y-92309999D02*
X92202000Y-86734000D01*
X113792000Y-111760000D02*
X113792000Y-107188000D01*
X110236000Y-115316000D02*
X113792000Y-111760000D01*
X81750001Y-113829999D02*
X82550000Y-113030000D01*
X81424999Y-114155001D02*
X81750001Y-113829999D01*
X81424999Y-116110001D02*
X81424999Y-114155001D01*
X82009999Y-116695001D02*
X81424999Y-116110001D01*
X83090001Y-116695001D02*
X82009999Y-116695001D01*
X85090000Y-118695000D02*
X83090001Y-116695001D01*
X85090000Y-121412000D02*
X85090000Y-118695000D01*
%TO.N,+5VP*%
X98552000Y-135128000D02*
X98552000Y-133350000D01*
X100330000Y-136906000D02*
X98552000Y-135128000D01*
X118015001Y-118712999D02*
X111506000Y-125222000D01*
X118015001Y-114941997D02*
X118015001Y-118712999D01*
X119754003Y-114140999D02*
X118815999Y-114140999D01*
X120555001Y-113340001D02*
X119754003Y-114140999D01*
X120555001Y-110500999D02*
X120555001Y-113340001D01*
X120820000Y-110236000D02*
X120555001Y-110500999D01*
X118815999Y-114140999D02*
X118015001Y-114941997D01*
X121920000Y-110236000D02*
X120820000Y-110236000D01*
X121920000Y-109136000D02*
X121920000Y-110236000D01*
X119246999Y-106462999D02*
X121920000Y-109136000D01*
X104213999Y-106462999D02*
X119246999Y-106462999D01*
X91477000Y-93726000D02*
X104213999Y-106462999D01*
%TO.N,+3V3*%
X102362000Y-112240990D02*
X102362000Y-113792000D01*
%TO.N,RX*%
X83349999Y-114770001D02*
X82550000Y-115570000D01*
X83675001Y-114444999D02*
X83349999Y-114770001D01*
X83675001Y-106139999D02*
X83675001Y-114444999D01*
X83090001Y-105554999D02*
X83675001Y-106139999D01*
X82061409Y-105554999D02*
X83090001Y-105554999D01*
X80010000Y-103503590D02*
X82061409Y-105554999D01*
X80010000Y-85852000D02*
X80010000Y-103503590D01*
%TO.N,TX*%
X123835000Y-127000000D02*
X121920000Y-127000000D01*
%TO.N,Net-(J8-Pad1)*%
X112268000Y-103632000D02*
X112268000Y-101850001D01*
%TO.N,Net-(J9-Pad1)*%
X110744000Y-103632000D02*
X110744000Y-100076000D01*
D29*
%TO.N,Net-(C6-Pad1)*%
X53340000Y-109220000D02*
X53340000Y-119380000D01*
X53340000Y-119380000D02*
X57404000Y-123444000D01*
X62738000Y-123444000D02*
X64770000Y-125476000D01*
X57404000Y-123444000D02*
X62738000Y-123444000D01*
%TO.N,MP_COM*%
X53300000Y-106680000D02*
X53340000Y-106720000D01*
D28*
X80010000Y-104140000D02*
X82550000Y-106680000D01*
X77470000Y-104140000D02*
X80010000Y-104140000D01*
X51816000Y-103124000D02*
X51816000Y-106680000D01*
D29*
X51816000Y-106680000D02*
X53300000Y-106680000D01*
X48260000Y-106680000D02*
X51816000Y-106680000D01*
D28*
X81750001Y-107479999D02*
X82550000Y-106680000D01*
X80663999Y-108566001D02*
X81750001Y-107479999D01*
X80663999Y-114916001D02*
X80663999Y-108566001D01*
X80264000Y-115316000D02*
X80663999Y-114916001D01*
X54471370Y-106720000D02*
X53340000Y-106720000D01*
X56235002Y-106720000D02*
X54471370Y-106720000D01*
X59182000Y-103773002D02*
X56235002Y-106720000D01*
X59182000Y-98806000D02*
X59182000Y-103773002D01*
D29*
%TO.N,MP1*%
X57150000Y-125476000D02*
X57150000Y-130810000D01*
D28*
X60357001Y-97441001D02*
X60357001Y-103726999D01*
X59182000Y-96266000D02*
X60357001Y-97441001D01*
X56350001Y-113500001D02*
X57150000Y-114300000D01*
X56024999Y-113174999D02*
X56350001Y-113500001D01*
X56024999Y-108059001D02*
X56024999Y-113174999D01*
X60357001Y-103726999D02*
X56024999Y-108059001D01*
%TO.N,MP6*%
X67310000Y-129254366D02*
X67310000Y-130810000D01*
X67310000Y-105014998D02*
X67310000Y-129254366D01*
X70706999Y-101617999D02*
X67310000Y-105014998D01*
X70706999Y-97441001D02*
X70706999Y-101617999D01*
X71882000Y-96266000D02*
X70706999Y-97441001D01*
%TO.N,MP12*%
X69994999Y-133494999D02*
X70320001Y-133820001D01*
X69994999Y-131539999D02*
X69994999Y-133494999D01*
X71882000Y-129652998D02*
X69994999Y-131539999D01*
X70320001Y-133820001D02*
X71120000Y-134620000D01*
X71882000Y-98806000D02*
X71882000Y-129652998D01*
%TO.N,MP13*%
X74422000Y-125222000D02*
X73660000Y-125984000D01*
X74422000Y-98806000D02*
X74422000Y-125222000D01*
%TO.N,MP10*%
X90969999Y-100800001D02*
X90170000Y-101600000D01*
X91295001Y-98519999D02*
X91295001Y-100474999D01*
X90165003Y-97390001D02*
X91295001Y-98519999D01*
X91295001Y-100474999D02*
X90969999Y-100800001D01*
X81425999Y-97390001D02*
X90165003Y-97390001D01*
X81026000Y-97790000D02*
X81425999Y-97390001D01*
%TO.N,MP9*%
X66585000Y-101129000D02*
X66585000Y-112776000D01*
X64262000Y-98806000D02*
X66585000Y-101129000D01*
X77444849Y-114274849D02*
X77470000Y-114300000D01*
X77444849Y-112424848D02*
X77444849Y-114274849D01*
%TO.N,MP4*%
X85090000Y-106680000D02*
X90170000Y-106680000D01*
X82550000Y-104140000D02*
X85090000Y-106680000D01*
X61722000Y-101092000D02*
X64770000Y-104140000D01*
X61722000Y-98806000D02*
X61722000Y-101092000D01*
%TD*%
D30*
%TO.N,MP_COM*%
G36*
X91821000Y-85279992D02*
G01*
X91744276Y-85217026D01*
X91708072Y-85197674D01*
X91708072Y-84952000D01*
X91695812Y-84827518D01*
X91659502Y-84707820D01*
X91600537Y-84597506D01*
X91521185Y-84500815D01*
X91424494Y-84421463D01*
X91314180Y-84362498D01*
X91194482Y-84326188D01*
X91070000Y-84313928D01*
X89270000Y-84313928D01*
X89145518Y-84326188D01*
X89025820Y-84362498D01*
X88915506Y-84421463D01*
X88818815Y-84500815D01*
X88739463Y-84597506D01*
X88680498Y-84707820D01*
X88674944Y-84726127D01*
X88608505Y-84659688D01*
X88357095Y-84491701D01*
X88077743Y-84375989D01*
X87781184Y-84317000D01*
X87478816Y-84317000D01*
X87182257Y-84375989D01*
X86902905Y-84491701D01*
X86651495Y-84659688D01*
X86437688Y-84873495D01*
X86269701Y-85124905D01*
X86153989Y-85404257D01*
X86095000Y-85700816D01*
X86095000Y-86003184D01*
X86153989Y-86299743D01*
X86269701Y-86579095D01*
X86437688Y-86830505D01*
X86651495Y-87044312D01*
X86902905Y-87212299D01*
X87182257Y-87328011D01*
X87478816Y-87387000D01*
X87781184Y-87387000D01*
X88077743Y-87328011D01*
X88357095Y-87212299D01*
X88608505Y-87044312D01*
X88674944Y-86977873D01*
X88680498Y-86996180D01*
X88739463Y-87106494D01*
X88818815Y-87203185D01*
X88915506Y-87282537D01*
X89025820Y-87341502D01*
X89145518Y-87377812D01*
X89270000Y-87390072D01*
X91070000Y-87390072D01*
X91194482Y-87377812D01*
X91314180Y-87341502D01*
X91424494Y-87282537D01*
X91442001Y-87268170D01*
X91442000Y-91606288D01*
X91398063Y-91650225D01*
X91284795Y-91819743D01*
X91206774Y-92008101D01*
X91167000Y-92208060D01*
X91167000Y-92411938D01*
X91206774Y-92611897D01*
X91249856Y-92715905D01*
X91175102Y-92730774D01*
X90986744Y-92808795D01*
X90817226Y-92922063D01*
X90673063Y-93066226D01*
X90559795Y-93235744D01*
X90481774Y-93424102D01*
X90442000Y-93624061D01*
X90442000Y-93827939D01*
X90481774Y-94027898D01*
X90559795Y-94216256D01*
X90673063Y-94385774D01*
X90817226Y-94529937D01*
X90986744Y-94643205D01*
X91175102Y-94721226D01*
X91375061Y-94761000D01*
X91437199Y-94761000D01*
X91821000Y-95144801D01*
X91821000Y-97968507D01*
X91806010Y-97956205D01*
X90728806Y-96879003D01*
X90705004Y-96850000D01*
X90589279Y-96755027D01*
X90457250Y-96684455D01*
X90313989Y-96640998D01*
X90202336Y-96630001D01*
X90202325Y-96630001D01*
X90165003Y-96626325D01*
X90127681Y-96630001D01*
X81463321Y-96630001D01*
X81425998Y-96626325D01*
X81388676Y-96630001D01*
X81388666Y-96630001D01*
X81277013Y-96640998D01*
X81133752Y-96684455D01*
X81001774Y-96755000D01*
X80924061Y-96755000D01*
X80770000Y-96785644D01*
X80770000Y-92568665D01*
X82385000Y-92568665D01*
X82385000Y-92851335D01*
X82440147Y-93128574D01*
X82548320Y-93389727D01*
X82705363Y-93624759D01*
X82905241Y-93824637D01*
X83140273Y-93981680D01*
X83401426Y-94089853D01*
X83678665Y-94145000D01*
X83961335Y-94145000D01*
X84238574Y-94089853D01*
X84499727Y-93981680D01*
X84734759Y-93824637D01*
X84934637Y-93624759D01*
X85091680Y-93389727D01*
X85199853Y-93128574D01*
X85255000Y-92851335D01*
X85255000Y-92568665D01*
X85199853Y-92291426D01*
X85091680Y-92030273D01*
X84934637Y-91795241D01*
X84734759Y-91595363D01*
X84499727Y-91438320D01*
X84238574Y-91330147D01*
X83961335Y-91275000D01*
X83678665Y-91275000D01*
X83401426Y-91330147D01*
X83140273Y-91438320D01*
X82905241Y-91595363D01*
X82705363Y-91795241D01*
X82548320Y-92030273D01*
X82440147Y-92291426D01*
X82385000Y-92568665D01*
X80770000Y-92568665D01*
X80770000Y-87390072D01*
X80910000Y-87390072D01*
X81034482Y-87377812D01*
X81154180Y-87341502D01*
X81264494Y-87282537D01*
X81361185Y-87203185D01*
X81440537Y-87106494D01*
X81499502Y-86996180D01*
X81535812Y-86876482D01*
X81548072Y-86752000D01*
X81548072Y-84952000D01*
X81547744Y-84948665D01*
X82385000Y-84948665D01*
X82385000Y-85231335D01*
X82440147Y-85508574D01*
X82548320Y-85769727D01*
X82705363Y-86004759D01*
X82905241Y-86204637D01*
X83140273Y-86361680D01*
X83401426Y-86469853D01*
X83678665Y-86525000D01*
X83961335Y-86525000D01*
X84238574Y-86469853D01*
X84499727Y-86361680D01*
X84734759Y-86204637D01*
X84934637Y-86004759D01*
X85091680Y-85769727D01*
X85199853Y-85508574D01*
X85255000Y-85231335D01*
X85255000Y-84948665D01*
X85199853Y-84671426D01*
X85091680Y-84410273D01*
X84934637Y-84175241D01*
X84734759Y-83975363D01*
X84499727Y-83818320D01*
X84238574Y-83710147D01*
X83961335Y-83655000D01*
X83678665Y-83655000D01*
X83401426Y-83710147D01*
X83140273Y-83818320D01*
X82905241Y-83975363D01*
X82705363Y-84175241D01*
X82548320Y-84410273D01*
X82440147Y-84671426D01*
X82385000Y-84948665D01*
X81547744Y-84948665D01*
X81535812Y-84827518D01*
X81499502Y-84707820D01*
X81440537Y-84597506D01*
X81361185Y-84500815D01*
X81264494Y-84421463D01*
X81154180Y-84362498D01*
X81034482Y-84326188D01*
X80910000Y-84313928D01*
X79110000Y-84313928D01*
X78985518Y-84326188D01*
X78865820Y-84362498D01*
X78755506Y-84421463D01*
X78658815Y-84500815D01*
X78579463Y-84597506D01*
X78520498Y-84707820D01*
X78514944Y-84726127D01*
X78448505Y-84659688D01*
X78197095Y-84491701D01*
X77917743Y-84375989D01*
X77621184Y-84317000D01*
X77318816Y-84317000D01*
X77022257Y-84375989D01*
X76742905Y-84491701D01*
X76491495Y-84659688D01*
X76277688Y-84873495D01*
X76109701Y-85124905D01*
X75993989Y-85404257D01*
X75935000Y-85700816D01*
X75935000Y-86003184D01*
X75993989Y-86299743D01*
X76109701Y-86579095D01*
X76277688Y-86830505D01*
X76491495Y-87044312D01*
X76742905Y-87212299D01*
X77022257Y-87328011D01*
X77318816Y-87387000D01*
X77621184Y-87387000D01*
X77917743Y-87328011D01*
X78197095Y-87212299D01*
X78448505Y-87044312D01*
X78514944Y-86977873D01*
X78520498Y-86996180D01*
X78579463Y-87106494D01*
X78658815Y-87203185D01*
X78755506Y-87282537D01*
X78865820Y-87341502D01*
X78985518Y-87377812D01*
X79110000Y-87390072D01*
X79250000Y-87390072D01*
X79250001Y-103466257D01*
X79246324Y-103503590D01*
X79260998Y-103652575D01*
X79304454Y-103795836D01*
X79375026Y-103927866D01*
X79446201Y-104014592D01*
X79470000Y-104043591D01*
X79498998Y-104067389D01*
X81342472Y-105910865D01*
X81318963Y-105942580D01*
X81198754Y-106196913D01*
X81158096Y-106330961D01*
X81280085Y-106553000D01*
X82423000Y-106553000D01*
X82423000Y-106533000D01*
X82677000Y-106533000D01*
X82677000Y-106553000D01*
X82697000Y-106553000D01*
X82697000Y-106807000D01*
X82677000Y-106807000D01*
X82677000Y-107950624D01*
X82899040Y-108071909D01*
X82915001Y-108066193D01*
X82915002Y-111639491D01*
X82691335Y-111595000D01*
X82408665Y-111595000D01*
X82131426Y-111650147D01*
X81870273Y-111758320D01*
X81635241Y-111915363D01*
X81435363Y-112115241D01*
X81278320Y-112350273D01*
X81170147Y-112611426D01*
X81115000Y-112888665D01*
X81115000Y-113171335D01*
X81151312Y-113353887D01*
X80913997Y-113591202D01*
X80884999Y-113615000D01*
X80861201Y-113643998D01*
X80861200Y-113643999D01*
X80790025Y-113730725D01*
X80719453Y-113862755D01*
X80696424Y-113938676D01*
X80675997Y-114006015D01*
X80675826Y-114007753D01*
X80661323Y-114155001D01*
X80665000Y-114192333D01*
X80664999Y-116072678D01*
X80661323Y-116110001D01*
X80664999Y-116147323D01*
X80664999Y-116147333D01*
X80675996Y-116258986D01*
X80698653Y-116333676D01*
X80719453Y-116402247D01*
X80790025Y-116534277D01*
X80829870Y-116582827D01*
X80884998Y-116650002D01*
X80914001Y-116673804D01*
X81435400Y-117195204D01*
X81435363Y-117195241D01*
X81278320Y-117430273D01*
X81170147Y-117691426D01*
X81115000Y-117968665D01*
X81115000Y-118251335D01*
X81170147Y-118528574D01*
X81278320Y-118789727D01*
X81435363Y-119024759D01*
X81635241Y-119224637D01*
X81870273Y-119381680D01*
X82131426Y-119489853D01*
X82408665Y-119545000D01*
X82691335Y-119545000D01*
X82968574Y-119489853D01*
X83229727Y-119381680D01*
X83464759Y-119224637D01*
X83664637Y-119024759D01*
X83821680Y-118789727D01*
X83906105Y-118585907D01*
X84330001Y-119009803D01*
X84330000Y-120708289D01*
X84286063Y-120752226D01*
X84172795Y-120921744D01*
X84094774Y-121110102D01*
X84055000Y-121310061D01*
X84055000Y-121513939D01*
X84094774Y-121713898D01*
X84172795Y-121902256D01*
X84286063Y-122071774D01*
X84430226Y-122215937D01*
X84599744Y-122329205D01*
X84788102Y-122407226D01*
X84988061Y-122447000D01*
X85191939Y-122447000D01*
X85391898Y-122407226D01*
X85580256Y-122329205D01*
X85749774Y-122215937D01*
X85893937Y-122071774D01*
X86007205Y-121902256D01*
X86085226Y-121713898D01*
X86125000Y-121513939D01*
X86125000Y-121310061D01*
X86085226Y-121110102D01*
X86007205Y-120921744D01*
X85893937Y-120752226D01*
X85850000Y-120708289D01*
X85850000Y-118732325D01*
X85853676Y-118695000D01*
X85850000Y-118657675D01*
X85850000Y-118657667D01*
X85839003Y-118546014D01*
X85795546Y-118402753D01*
X85724974Y-118270724D01*
X85630001Y-118154999D01*
X85601003Y-118131201D01*
X84779802Y-117310000D01*
X88731928Y-117310000D01*
X88731928Y-118910000D01*
X88744188Y-119034482D01*
X88780498Y-119154180D01*
X88839463Y-119264494D01*
X88918815Y-119361185D01*
X89015506Y-119440537D01*
X89125820Y-119499502D01*
X89245518Y-119535812D01*
X89370000Y-119548072D01*
X90970000Y-119548072D01*
X91094482Y-119535812D01*
X91214180Y-119499502D01*
X91324494Y-119440537D01*
X91421185Y-119361185D01*
X91500537Y-119264494D01*
X91559502Y-119154180D01*
X91595812Y-119034482D01*
X91608072Y-118910000D01*
X91608072Y-117310000D01*
X91595812Y-117185518D01*
X91559502Y-117065820D01*
X91500537Y-116955506D01*
X91421185Y-116858815D01*
X91324494Y-116779463D01*
X91214180Y-116720498D01*
X91094482Y-116684188D01*
X91086039Y-116683357D01*
X91284637Y-116484759D01*
X91441680Y-116249727D01*
X91549853Y-115988574D01*
X91605000Y-115711335D01*
X91605000Y-115428665D01*
X91549853Y-115151426D01*
X91441680Y-114890273D01*
X91284637Y-114655241D01*
X91084759Y-114455363D01*
X90852241Y-114300000D01*
X91084759Y-114144637D01*
X91284637Y-113944759D01*
X91441680Y-113709727D01*
X91549853Y-113448574D01*
X91605000Y-113171335D01*
X91605000Y-112888665D01*
X91549853Y-112611426D01*
X91441680Y-112350273D01*
X91284637Y-112115241D01*
X91084759Y-111915363D01*
X90849727Y-111758320D01*
X90588574Y-111650147D01*
X90311335Y-111595000D01*
X90028665Y-111595000D01*
X89751426Y-111650147D01*
X89490273Y-111758320D01*
X89255241Y-111915363D01*
X89055363Y-112115241D01*
X88898320Y-112350273D01*
X88790147Y-112611426D01*
X88735000Y-112888665D01*
X88735000Y-113171335D01*
X88790147Y-113448574D01*
X88898320Y-113709727D01*
X89055363Y-113944759D01*
X89255241Y-114144637D01*
X89487759Y-114300000D01*
X89255241Y-114455363D01*
X89055363Y-114655241D01*
X88898320Y-114890273D01*
X88790147Y-115151426D01*
X88735000Y-115428665D01*
X88735000Y-115711335D01*
X88790147Y-115988574D01*
X88898320Y-116249727D01*
X89055363Y-116484759D01*
X89253961Y-116683357D01*
X89245518Y-116684188D01*
X89125820Y-116720498D01*
X89015506Y-116779463D01*
X88918815Y-116858815D01*
X88839463Y-116955506D01*
X88780498Y-117065820D01*
X88744188Y-117185518D01*
X88731928Y-117310000D01*
X84779802Y-117310000D01*
X83780764Y-116310963D01*
X83821680Y-116249727D01*
X83929853Y-115988574D01*
X83985000Y-115711335D01*
X83985000Y-115428665D01*
X83948688Y-115246113D01*
X84185998Y-115008803D01*
X84215002Y-114985000D01*
X84309975Y-114869275D01*
X84380547Y-114737246D01*
X84424004Y-114593985D01*
X84435001Y-114482332D01*
X84435001Y-114482323D01*
X84438677Y-114445000D01*
X84435001Y-114407677D01*
X84435001Y-107099804D01*
X84526205Y-107191008D01*
X84549999Y-107220001D01*
X84578992Y-107243795D01*
X84578996Y-107243799D01*
X84640022Y-107293881D01*
X84665724Y-107314974D01*
X84797753Y-107385546D01*
X84941014Y-107429003D01*
X85052667Y-107440000D01*
X85052676Y-107440000D01*
X85089999Y-107443676D01*
X85127322Y-107440000D01*
X88951957Y-107440000D01*
X89055363Y-107594759D01*
X89255241Y-107794637D01*
X89490273Y-107951680D01*
X89751426Y-108059853D01*
X90028665Y-108115000D01*
X90311335Y-108115000D01*
X90588574Y-108059853D01*
X90849727Y-107951680D01*
X91084759Y-107794637D01*
X91284637Y-107594759D01*
X91441680Y-107359727D01*
X91549853Y-107098574D01*
X91605000Y-106821335D01*
X91605000Y-106538665D01*
X91549853Y-106261426D01*
X91441680Y-106000273D01*
X91284637Y-105765241D01*
X91084759Y-105565363D01*
X90852241Y-105410000D01*
X91084759Y-105254637D01*
X91284637Y-105054759D01*
X91441680Y-104819727D01*
X91549853Y-104558574D01*
X91605000Y-104281335D01*
X91605000Y-103998665D01*
X91549853Y-103721426D01*
X91441680Y-103460273D01*
X91284637Y-103225241D01*
X91084759Y-103025363D01*
X90852241Y-102870000D01*
X91084759Y-102714637D01*
X91284637Y-102514759D01*
X91441680Y-102279727D01*
X91549853Y-102018574D01*
X91605000Y-101741335D01*
X91605000Y-101458665D01*
X91568688Y-101276113D01*
X91805998Y-101038803D01*
X91821000Y-101026491D01*
X91821000Y-130429000D01*
X85852000Y-130429000D01*
X85827224Y-130431440D01*
X85803399Y-130438667D01*
X85781443Y-130450403D01*
X85762197Y-130466197D01*
X85746403Y-130485443D01*
X85734667Y-130507399D01*
X85727440Y-130531224D01*
X85725000Y-130556000D01*
X85725000Y-139040000D01*
X42880569Y-139040000D01*
X42909496Y-139034246D01*
X43216147Y-138907228D01*
X43492125Y-138722825D01*
X43726825Y-138488125D01*
X43911228Y-138212147D01*
X44038246Y-137905496D01*
X44103000Y-137579958D01*
X44103000Y-137465810D01*
X64696036Y-137465810D01*
X64704728Y-137527337D01*
X64797725Y-137736882D01*
X64929816Y-137924258D01*
X65095924Y-138082264D01*
X65289666Y-138204828D01*
X65503596Y-138287239D01*
X65729493Y-138326331D01*
X65913000Y-138166598D01*
X65913000Y-137287000D01*
X66167000Y-137287000D01*
X66167000Y-138166598D01*
X66350507Y-138326331D01*
X66576404Y-138287239D01*
X66790334Y-138204828D01*
X66984076Y-138082264D01*
X67150184Y-137924258D01*
X67282275Y-137736882D01*
X67375272Y-137527337D01*
X67383964Y-137465810D01*
X67258163Y-137287000D01*
X66167000Y-137287000D01*
X65913000Y-137287000D01*
X64821837Y-137287000D01*
X64696036Y-137465810D01*
X44103000Y-137465810D01*
X44103000Y-137248042D01*
X44038246Y-136922504D01*
X43911228Y-136615853D01*
X43726825Y-136339875D01*
X43492125Y-136105175D01*
X43216147Y-135920772D01*
X42909496Y-135793754D01*
X42583958Y-135729000D01*
X42252042Y-135729000D01*
X41926504Y-135793754D01*
X41619853Y-135920772D01*
X41343875Y-136105175D01*
X41109175Y-136339875D01*
X40924772Y-136615853D01*
X40797754Y-136922504D01*
X40792000Y-136951431D01*
X40792000Y-134969039D01*
X51948096Y-134969039D01*
X51988754Y-135103087D01*
X52108963Y-135357420D01*
X52276481Y-135583414D01*
X52484869Y-135772385D01*
X52726119Y-135917070D01*
X52990960Y-136011909D01*
X53213000Y-135890624D01*
X53213000Y-134747000D01*
X53467000Y-134747000D01*
X53467000Y-135890624D01*
X53689040Y-136011909D01*
X53953881Y-135917070D01*
X54195131Y-135772385D01*
X54403519Y-135583414D01*
X54571037Y-135357420D01*
X54691246Y-135103087D01*
X54731904Y-134969039D01*
X54609915Y-134747000D01*
X53467000Y-134747000D01*
X53213000Y-134747000D01*
X52070085Y-134747000D01*
X51948096Y-134969039D01*
X40792000Y-134969039D01*
X40792000Y-134270961D01*
X51948096Y-134270961D01*
X52070085Y-134493000D01*
X53213000Y-134493000D01*
X53213000Y-133349376D01*
X53467000Y-133349376D01*
X53467000Y-134493000D01*
X54609915Y-134493000D01*
X54617790Y-134478665D01*
X59525000Y-134478665D01*
X59525000Y-134761335D01*
X59580147Y-135038574D01*
X59688320Y-135299727D01*
X59845363Y-135534759D01*
X60045241Y-135734637D01*
X60280273Y-135891680D01*
X60541426Y-135999853D01*
X60818665Y-136055000D01*
X61101335Y-136055000D01*
X61378574Y-135999853D01*
X61639727Y-135891680D01*
X61642241Y-135890000D01*
X64649388Y-135890000D01*
X64671785Y-136117400D01*
X64738115Y-136336060D01*
X64838929Y-136524669D01*
X64797725Y-136583118D01*
X64704728Y-136792663D01*
X64696036Y-136854190D01*
X64821837Y-137033000D01*
X65586891Y-137033000D01*
X65587600Y-137033215D01*
X65758021Y-137050000D01*
X66321979Y-137050000D01*
X66492400Y-137033215D01*
X66493109Y-137033000D01*
X67258163Y-137033000D01*
X67383964Y-136854190D01*
X67375272Y-136792663D01*
X67282275Y-136583118D01*
X67241071Y-136524669D01*
X67341885Y-136336060D01*
X67408215Y-136117400D01*
X67430612Y-135890000D01*
X67408215Y-135662600D01*
X67344907Y-135453902D01*
X67379502Y-135389180D01*
X67415812Y-135269482D01*
X67428072Y-135145000D01*
X67428072Y-134095000D01*
X67415812Y-133970518D01*
X67379502Y-133850820D01*
X67320537Y-133740506D01*
X67241185Y-133643815D01*
X67144494Y-133564463D01*
X67034180Y-133505498D01*
X66914482Y-133469188D01*
X66790000Y-133456928D01*
X65290000Y-133456928D01*
X65165518Y-133469188D01*
X65045820Y-133505498D01*
X64935506Y-133564463D01*
X64838815Y-133643815D01*
X64759463Y-133740506D01*
X64700498Y-133850820D01*
X64664188Y-133970518D01*
X64651928Y-134095000D01*
X64651928Y-135145000D01*
X64664188Y-135269482D01*
X64700498Y-135389180D01*
X64735093Y-135453902D01*
X64671785Y-135662600D01*
X64649388Y-135890000D01*
X61642241Y-135890000D01*
X61874759Y-135734637D01*
X62074637Y-135534759D01*
X62231680Y-135299727D01*
X62339853Y-135038574D01*
X62395000Y-134761335D01*
X62395000Y-134478665D01*
X62339853Y-134201426D01*
X62231680Y-133940273D01*
X62074637Y-133705241D01*
X61874759Y-133505363D01*
X61639727Y-133348320D01*
X61378574Y-133240147D01*
X61101335Y-133185000D01*
X60818665Y-133185000D01*
X60541426Y-133240147D01*
X60280273Y-133348320D01*
X60045241Y-133505363D01*
X59845363Y-133705241D01*
X59688320Y-133940273D01*
X59580147Y-134201426D01*
X59525000Y-134478665D01*
X54617790Y-134478665D01*
X54731904Y-134270961D01*
X54691246Y-134136913D01*
X54571037Y-133882580D01*
X54403519Y-133656586D01*
X54195131Y-133467615D01*
X53953881Y-133322930D01*
X53689040Y-133228091D01*
X53467000Y-133349376D01*
X53213000Y-133349376D01*
X52990960Y-133228091D01*
X52726119Y-133322930D01*
X52484869Y-133467615D01*
X52276481Y-133656586D01*
X52108963Y-133882580D01*
X51988754Y-134136913D01*
X51948096Y-134270961D01*
X40792000Y-134270961D01*
X40792000Y-130217098D01*
X43335000Y-130217098D01*
X43335000Y-130686902D01*
X43426654Y-131147679D01*
X43606440Y-131581721D01*
X43867450Y-131972349D01*
X44199651Y-132304550D01*
X44590279Y-132565560D01*
X45024321Y-132745346D01*
X45485098Y-132837000D01*
X45954902Y-132837000D01*
X46415679Y-132745346D01*
X46849721Y-132565560D01*
X47240349Y-132304550D01*
X47572550Y-131972349D01*
X47833560Y-131581721D01*
X48013346Y-131147679D01*
X48105000Y-130686902D01*
X48105000Y-130217098D01*
X48013346Y-129756321D01*
X47833560Y-129322279D01*
X47572550Y-128931651D01*
X47240349Y-128599450D01*
X46849721Y-128338440D01*
X46415679Y-128158654D01*
X45954902Y-128067000D01*
X45485098Y-128067000D01*
X45024321Y-128158654D01*
X44590279Y-128338440D01*
X44199651Y-128599450D01*
X43867450Y-128931651D01*
X43606440Y-129322279D01*
X43426654Y-129756321D01*
X43335000Y-130217098D01*
X40792000Y-130217098D01*
X40792000Y-113666514D01*
X41592500Y-113666514D01*
X41592500Y-113917485D01*
X41615470Y-114150703D01*
X41706245Y-114449948D01*
X41853655Y-114725734D01*
X42052037Y-114967463D01*
X42293765Y-115165845D01*
X42569551Y-115313255D01*
X42868796Y-115404030D01*
X43180000Y-115434681D01*
X43491203Y-115404030D01*
X43790448Y-115313255D01*
X44066234Y-115165845D01*
X44307963Y-114967463D01*
X44455163Y-114788101D01*
X44610563Y-114973315D01*
X44853077Y-115167969D01*
X45128906Y-115311571D01*
X45347020Y-115382563D01*
X45593000Y-115262594D01*
X45593000Y-113919000D01*
X45573000Y-113919000D01*
X45573000Y-113665000D01*
X45593000Y-113665000D01*
X45593000Y-112321406D01*
X45847000Y-112321406D01*
X45847000Y-113665000D01*
X45867000Y-113665000D01*
X45867000Y-113919000D01*
X45847000Y-113919000D01*
X45847000Y-115262594D01*
X46092980Y-115382563D01*
X46311094Y-115311571D01*
X46586923Y-115167969D01*
X46727941Y-115054781D01*
X46776963Y-115146494D01*
X46856315Y-115243185D01*
X46953006Y-115322537D01*
X47063320Y-115381502D01*
X47183018Y-115417812D01*
X47307500Y-115430072D01*
X49212500Y-115430072D01*
X49336982Y-115417812D01*
X49456680Y-115381502D01*
X49566994Y-115322537D01*
X49663685Y-115243185D01*
X49743037Y-115146494D01*
X49802002Y-115036180D01*
X49838312Y-114916482D01*
X49850572Y-114792000D01*
X49850572Y-112792000D01*
X49838312Y-112667518D01*
X49802002Y-112547820D01*
X49743037Y-112437506D01*
X49663685Y-112340815D01*
X49566994Y-112261463D01*
X49456680Y-112202498D01*
X49336982Y-112166188D01*
X49212500Y-112153928D01*
X47307500Y-112153928D01*
X47183018Y-112166188D01*
X47063320Y-112202498D01*
X46953006Y-112261463D01*
X46856315Y-112340815D01*
X46776963Y-112437506D01*
X46727941Y-112529219D01*
X46586923Y-112416031D01*
X46311094Y-112272429D01*
X46092980Y-112201437D01*
X45847000Y-112321406D01*
X45593000Y-112321406D01*
X45347020Y-112201437D01*
X45128906Y-112272429D01*
X44853077Y-112416031D01*
X44610563Y-112610685D01*
X44455162Y-112795900D01*
X44307963Y-112616537D01*
X44066235Y-112418155D01*
X43790449Y-112270745D01*
X43491204Y-112179970D01*
X43180000Y-112149319D01*
X42868797Y-112179970D01*
X42569552Y-112270745D01*
X42293766Y-112418155D01*
X42052037Y-112616537D01*
X41853655Y-112858265D01*
X41706245Y-113134051D01*
X41615470Y-113433296D01*
X41592500Y-113666514D01*
X40792000Y-113666514D01*
X40792000Y-110974702D01*
X44946903Y-110974702D01*
X45018486Y-111218671D01*
X45273996Y-111339571D01*
X45548184Y-111408300D01*
X45830512Y-111422217D01*
X46110130Y-111380787D01*
X46376292Y-111285603D01*
X46501514Y-111218671D01*
X46573097Y-110974702D01*
X45760000Y-110161605D01*
X44946903Y-110974702D01*
X40792000Y-110974702D01*
X40792000Y-110052512D01*
X44319783Y-110052512D01*
X44361213Y-110332130D01*
X44456397Y-110598292D01*
X44523329Y-110723514D01*
X44767298Y-110795097D01*
X45580395Y-109982000D01*
X45939605Y-109982000D01*
X46752702Y-110795097D01*
X46996671Y-110723514D01*
X47010324Y-110694659D01*
X47145363Y-110896759D01*
X47345241Y-111096637D01*
X47580273Y-111253680D01*
X47841426Y-111361853D01*
X48118665Y-111417000D01*
X48401335Y-111417000D01*
X48678574Y-111361853D01*
X48939727Y-111253680D01*
X49174759Y-111096637D01*
X49374637Y-110896759D01*
X49531680Y-110661727D01*
X49639853Y-110400574D01*
X49695000Y-110123335D01*
X49695000Y-109840665D01*
X49639853Y-109563426D01*
X49531680Y-109302273D01*
X49382271Y-109078665D01*
X51905000Y-109078665D01*
X51905000Y-109361335D01*
X51960147Y-109638574D01*
X52068320Y-109899727D01*
X52225363Y-110134759D01*
X52425241Y-110334637D01*
X52455000Y-110354521D01*
X52455001Y-119336521D01*
X52450719Y-119380000D01*
X52467805Y-119553490D01*
X52518412Y-119720313D01*
X52600590Y-119874059D01*
X52683468Y-119975046D01*
X52683471Y-119975049D01*
X52711184Y-120008817D01*
X52744951Y-120036530D01*
X56746349Y-124037928D01*
X56350000Y-124037928D01*
X56225518Y-124050188D01*
X56105820Y-124086498D01*
X55995506Y-124145463D01*
X55898815Y-124224815D01*
X55819463Y-124321506D01*
X55760498Y-124431820D01*
X55724188Y-124551518D01*
X55711928Y-124676000D01*
X55711928Y-126276000D01*
X55724188Y-126400482D01*
X55760498Y-126520180D01*
X55819463Y-126630494D01*
X55898815Y-126727185D01*
X55995506Y-126806537D01*
X56105820Y-126865502D01*
X56225518Y-126901812D01*
X56265000Y-126905701D01*
X56265001Y-129071928D01*
X56050000Y-129071928D01*
X55925518Y-129084188D01*
X55805820Y-129120498D01*
X55695506Y-129179463D01*
X55598815Y-129258815D01*
X55519463Y-129355506D01*
X55460498Y-129465820D01*
X55424188Y-129585518D01*
X55411928Y-129710000D01*
X55411928Y-131910000D01*
X55424188Y-132034482D01*
X55460498Y-132154180D01*
X55519463Y-132264494D01*
X55598815Y-132361185D01*
X55695506Y-132440537D01*
X55805820Y-132499502D01*
X55925518Y-132535812D01*
X56050000Y-132548072D01*
X58250000Y-132548072D01*
X58374482Y-132535812D01*
X58494180Y-132499502D01*
X58604494Y-132440537D01*
X58701185Y-132361185D01*
X58780537Y-132264494D01*
X58839502Y-132154180D01*
X58875812Y-132034482D01*
X58888072Y-131910000D01*
X58888072Y-129710000D01*
X58875812Y-129585518D01*
X58839502Y-129465820D01*
X58780537Y-129355506D01*
X58701185Y-129258815D01*
X58604494Y-129179463D01*
X58494180Y-129120498D01*
X58374482Y-129084188D01*
X58250000Y-129071928D01*
X58035000Y-129071928D01*
X58035000Y-126905701D01*
X58074482Y-126901812D01*
X58194180Y-126865502D01*
X58304494Y-126806537D01*
X58401185Y-126727185D01*
X58480537Y-126630494D01*
X58539502Y-126520180D01*
X58575812Y-126400482D01*
X58588072Y-126276000D01*
X58588072Y-124676000D01*
X58575812Y-124551518D01*
X58539502Y-124431820D01*
X58484543Y-124329000D01*
X62371422Y-124329000D01*
X63341983Y-125299561D01*
X63335000Y-125334665D01*
X63335000Y-125617335D01*
X63390147Y-125894574D01*
X63498320Y-126155727D01*
X63655363Y-126390759D01*
X63855241Y-126590637D01*
X64090273Y-126747680D01*
X64351426Y-126855853D01*
X64628665Y-126911000D01*
X64911335Y-126911000D01*
X65188574Y-126855853D01*
X65449727Y-126747680D01*
X65684759Y-126590637D01*
X65884637Y-126390759D01*
X66041680Y-126155727D01*
X66149853Y-125894574D01*
X66205000Y-125617335D01*
X66205000Y-125334665D01*
X66149853Y-125057426D01*
X66041680Y-124796273D01*
X65884637Y-124561241D01*
X65684759Y-124361363D01*
X65449727Y-124204320D01*
X65188574Y-124096147D01*
X64911335Y-124041000D01*
X64628665Y-124041000D01*
X64593561Y-124047983D01*
X63394534Y-122848956D01*
X63366817Y-122815183D01*
X63232059Y-122704589D01*
X63078313Y-122622411D01*
X62911490Y-122571805D01*
X62781477Y-122559000D01*
X62781469Y-122559000D01*
X62738000Y-122554719D01*
X62694531Y-122559000D01*
X57770579Y-122559000D01*
X55584281Y-120372702D01*
X56336903Y-120372702D01*
X56408486Y-120616671D01*
X56663996Y-120737571D01*
X56938184Y-120806300D01*
X57220512Y-120820217D01*
X57500130Y-120778787D01*
X57766292Y-120683603D01*
X57891514Y-120616671D01*
X57963097Y-120372702D01*
X57150000Y-119559605D01*
X56336903Y-120372702D01*
X55584281Y-120372702D01*
X54662091Y-119450512D01*
X55709783Y-119450512D01*
X55751213Y-119730130D01*
X55846397Y-119996292D01*
X55913329Y-120121514D01*
X56157298Y-120193097D01*
X56970395Y-119380000D01*
X57329605Y-119380000D01*
X58142702Y-120193097D01*
X58386671Y-120121514D01*
X58507571Y-119866004D01*
X58576300Y-119591816D01*
X58590217Y-119309488D01*
X58579724Y-119238665D01*
X63335000Y-119238665D01*
X63335000Y-119521335D01*
X63390147Y-119798574D01*
X63498320Y-120059727D01*
X63655363Y-120294759D01*
X63855241Y-120494637D01*
X64090273Y-120651680D01*
X64351426Y-120759853D01*
X64628665Y-120815000D01*
X64911335Y-120815000D01*
X65188574Y-120759853D01*
X65449727Y-120651680D01*
X65684759Y-120494637D01*
X65884637Y-120294759D01*
X66041680Y-120059727D01*
X66149853Y-119798574D01*
X66205000Y-119521335D01*
X66205000Y-119238665D01*
X66149853Y-118961426D01*
X66041680Y-118700273D01*
X65884637Y-118465241D01*
X65684759Y-118265363D01*
X65449727Y-118108320D01*
X65188574Y-118000147D01*
X64911335Y-117945000D01*
X64628665Y-117945000D01*
X64351426Y-118000147D01*
X64090273Y-118108320D01*
X63855241Y-118265363D01*
X63655363Y-118465241D01*
X63498320Y-118700273D01*
X63390147Y-118961426D01*
X63335000Y-119238665D01*
X58579724Y-119238665D01*
X58548787Y-119029870D01*
X58453603Y-118763708D01*
X58386671Y-118638486D01*
X58142702Y-118566903D01*
X57329605Y-119380000D01*
X56970395Y-119380000D01*
X56157298Y-118566903D01*
X55913329Y-118638486D01*
X55792429Y-118893996D01*
X55723700Y-119168184D01*
X55709783Y-119450512D01*
X54662091Y-119450512D01*
X54225000Y-119013422D01*
X54225000Y-118387298D01*
X56336903Y-118387298D01*
X57150000Y-119200395D01*
X57963097Y-118387298D01*
X57891514Y-118143329D01*
X57636004Y-118022429D01*
X57361816Y-117953700D01*
X57079488Y-117939783D01*
X56799870Y-117981213D01*
X56533708Y-118076397D01*
X56408486Y-118143329D01*
X56336903Y-118387298D01*
X54225000Y-118387298D01*
X54225000Y-110354521D01*
X54254759Y-110334637D01*
X54454637Y-110134759D01*
X54611680Y-109899727D01*
X54719853Y-109638574D01*
X54775000Y-109361335D01*
X54775000Y-109078665D01*
X54719853Y-108801426D01*
X54611680Y-108540273D01*
X54454637Y-108305241D01*
X54254759Y-108105363D01*
X54185374Y-108059001D01*
X55261323Y-108059001D01*
X55264999Y-108096324D01*
X55265000Y-113137667D01*
X55261323Y-113174999D01*
X55265000Y-113212332D01*
X55266621Y-113228785D01*
X55275997Y-113323984D01*
X55319453Y-113467245D01*
X55390025Y-113599275D01*
X55445208Y-113666515D01*
X55484999Y-113715000D01*
X55513997Y-113738798D01*
X55751312Y-113976113D01*
X55715000Y-114158665D01*
X55715000Y-114441335D01*
X55770147Y-114718574D01*
X55878320Y-114979727D01*
X56035363Y-115214759D01*
X56235241Y-115414637D01*
X56470273Y-115571680D01*
X56731426Y-115679853D01*
X57008665Y-115735000D01*
X57291335Y-115735000D01*
X57568574Y-115679853D01*
X57829727Y-115571680D01*
X58064759Y-115414637D01*
X58264637Y-115214759D01*
X58421680Y-114979727D01*
X58529853Y-114718574D01*
X58585000Y-114441335D01*
X58585000Y-114158665D01*
X58529853Y-113881426D01*
X58421680Y-113620273D01*
X58264637Y-113385241D01*
X58064759Y-113185363D01*
X57829727Y-113028320D01*
X57568574Y-112920147D01*
X57291335Y-112865000D01*
X57008665Y-112865000D01*
X56826113Y-112901312D01*
X56784999Y-112860198D01*
X56784999Y-110610509D01*
X57008665Y-110655000D01*
X57291335Y-110655000D01*
X57568574Y-110599853D01*
X57829727Y-110491680D01*
X58064759Y-110334637D01*
X58264637Y-110134759D01*
X58421680Y-109899727D01*
X58529853Y-109638574D01*
X58585000Y-109361335D01*
X58585000Y-109078665D01*
X58529853Y-108801426D01*
X58421680Y-108540273D01*
X58264637Y-108305241D01*
X58064759Y-108105363D01*
X57829727Y-107948320D01*
X57568574Y-107840147D01*
X57360119Y-107798682D01*
X60868004Y-104290798D01*
X60897002Y-104267000D01*
X60944490Y-104209136D01*
X60991975Y-104151276D01*
X61062547Y-104019246D01*
X61068790Y-103998665D01*
X61106004Y-103875985D01*
X61117001Y-103764332D01*
X61117001Y-103764322D01*
X61120677Y-103726999D01*
X61117001Y-103689677D01*
X61117001Y-101552800D01*
X61155737Y-101600000D01*
X61182000Y-101632001D01*
X61210998Y-101655799D01*
X63371312Y-103816114D01*
X63335000Y-103998665D01*
X63335000Y-104281335D01*
X63390147Y-104558574D01*
X63498320Y-104819727D01*
X63655363Y-105054759D01*
X63855241Y-105254637D01*
X64090273Y-105411680D01*
X64351426Y-105519853D01*
X64628665Y-105575000D01*
X64911335Y-105575000D01*
X65188574Y-105519853D01*
X65449727Y-105411680D01*
X65684759Y-105254637D01*
X65825000Y-105114396D01*
X65825001Y-108245605D01*
X65684759Y-108105363D01*
X65449727Y-107948320D01*
X65188574Y-107840147D01*
X64911335Y-107785000D01*
X64628665Y-107785000D01*
X64351426Y-107840147D01*
X64090273Y-107948320D01*
X63855241Y-108105363D01*
X63655363Y-108305241D01*
X63498320Y-108540273D01*
X63390147Y-108801426D01*
X63335000Y-109078665D01*
X63335000Y-109361335D01*
X63390147Y-109638574D01*
X63498320Y-109899727D01*
X63655363Y-110134759D01*
X63855241Y-110334637D01*
X64090273Y-110491680D01*
X64351426Y-110599853D01*
X64628665Y-110655000D01*
X64911335Y-110655000D01*
X65188574Y-110599853D01*
X65449727Y-110491680D01*
X65684759Y-110334637D01*
X65825001Y-110194395D01*
X65825001Y-112072288D01*
X65781063Y-112116226D01*
X65667795Y-112285744D01*
X65589774Y-112474102D01*
X65550000Y-112674061D01*
X65550000Y-112877939D01*
X65589774Y-113077898D01*
X65614973Y-113138734D01*
X65449727Y-113028320D01*
X65188574Y-112920147D01*
X64911335Y-112865000D01*
X64628665Y-112865000D01*
X64351426Y-112920147D01*
X64090273Y-113028320D01*
X63855241Y-113185363D01*
X63655363Y-113385241D01*
X63498320Y-113620273D01*
X63390147Y-113881426D01*
X63335000Y-114158665D01*
X63335000Y-114441335D01*
X63390147Y-114718574D01*
X63498320Y-114979727D01*
X63655363Y-115214759D01*
X63855241Y-115414637D01*
X64090273Y-115571680D01*
X64351426Y-115679853D01*
X64628665Y-115735000D01*
X64911335Y-115735000D01*
X65188574Y-115679853D01*
X65449727Y-115571680D01*
X65684759Y-115414637D01*
X65884637Y-115214759D01*
X66041680Y-114979727D01*
X66149853Y-114718574D01*
X66205000Y-114441335D01*
X66205000Y-114158665D01*
X66149853Y-113881426D01*
X66063143Y-113672090D01*
X66094744Y-113693205D01*
X66283102Y-113771226D01*
X66483061Y-113811000D01*
X66550000Y-113811000D01*
X66550001Y-129217024D01*
X66550000Y-129217034D01*
X66550000Y-129246852D01*
X66488169Y-129272463D01*
X66204002Y-129462337D01*
X65962337Y-129704002D01*
X65772463Y-129988169D01*
X65641675Y-130303919D01*
X65575000Y-130639117D01*
X65575000Y-130980883D01*
X65641675Y-131316081D01*
X65772463Y-131631831D01*
X65962337Y-131915998D01*
X66204002Y-132157663D01*
X66488169Y-132347537D01*
X66803919Y-132478325D01*
X67139117Y-132545000D01*
X67480883Y-132545000D01*
X67816081Y-132478325D01*
X68131831Y-132347537D01*
X68415998Y-132157663D01*
X68657663Y-131915998D01*
X68847537Y-131631831D01*
X68978325Y-131316081D01*
X69045000Y-130980883D01*
X69045000Y-130639117D01*
X68978325Y-130303919D01*
X68847537Y-129988169D01*
X68657663Y-129704002D01*
X68415998Y-129462337D01*
X68131831Y-129272463D01*
X68070000Y-129246852D01*
X68070000Y-105329799D01*
X68579022Y-104820777D01*
X68735363Y-105054759D01*
X68935241Y-105254637D01*
X69170273Y-105411680D01*
X69431426Y-105519853D01*
X69708665Y-105575000D01*
X69991335Y-105575000D01*
X70268574Y-105519853D01*
X70529727Y-105411680D01*
X70764759Y-105254637D01*
X70964637Y-105054759D01*
X71121680Y-104819727D01*
X71122000Y-104818954D01*
X71122000Y-108541046D01*
X71121680Y-108540273D01*
X70964637Y-108305241D01*
X70764759Y-108105363D01*
X70529727Y-107948320D01*
X70268574Y-107840147D01*
X69991335Y-107785000D01*
X69708665Y-107785000D01*
X69431426Y-107840147D01*
X69170273Y-107948320D01*
X68935241Y-108105363D01*
X68735363Y-108305241D01*
X68578320Y-108540273D01*
X68470147Y-108801426D01*
X68415000Y-109078665D01*
X68415000Y-109361335D01*
X68470147Y-109638574D01*
X68578320Y-109899727D01*
X68735363Y-110134759D01*
X68935241Y-110334637D01*
X69170273Y-110491680D01*
X69431426Y-110599853D01*
X69708665Y-110655000D01*
X69991335Y-110655000D01*
X70268574Y-110599853D01*
X70529727Y-110491680D01*
X70764759Y-110334637D01*
X70964637Y-110134759D01*
X71121680Y-109899727D01*
X71122000Y-109898954D01*
X71122000Y-113621047D01*
X71121680Y-113620273D01*
X70964637Y-113385241D01*
X70764759Y-113185363D01*
X70529727Y-113028320D01*
X70268574Y-112920147D01*
X69991335Y-112865000D01*
X69708665Y-112865000D01*
X69431426Y-112920147D01*
X69170273Y-113028320D01*
X68935241Y-113185363D01*
X68735363Y-113385241D01*
X68578320Y-113620273D01*
X68470147Y-113881426D01*
X68415000Y-114158665D01*
X68415000Y-114441335D01*
X68470147Y-114718574D01*
X68578320Y-114979727D01*
X68735363Y-115214759D01*
X68935241Y-115414637D01*
X69170273Y-115571680D01*
X69431426Y-115679853D01*
X69708665Y-115735000D01*
X69991335Y-115735000D01*
X70268574Y-115679853D01*
X70529727Y-115571680D01*
X70764759Y-115414637D01*
X70964637Y-115214759D01*
X71121680Y-114979727D01*
X71122001Y-114978953D01*
X71122001Y-118701047D01*
X71121680Y-118700273D01*
X70964637Y-118465241D01*
X70764759Y-118265363D01*
X70529727Y-118108320D01*
X70268574Y-118000147D01*
X69991335Y-117945000D01*
X69708665Y-117945000D01*
X69431426Y-118000147D01*
X69170273Y-118108320D01*
X68935241Y-118265363D01*
X68735363Y-118465241D01*
X68578320Y-118700273D01*
X68470147Y-118961426D01*
X68415000Y-119238665D01*
X68415000Y-119521335D01*
X68470147Y-119798574D01*
X68578320Y-120059727D01*
X68735363Y-120294759D01*
X68935241Y-120494637D01*
X69170273Y-120651680D01*
X69431426Y-120759853D01*
X69708665Y-120815000D01*
X69991335Y-120815000D01*
X70268574Y-120759853D01*
X70529727Y-120651680D01*
X70764759Y-120494637D01*
X70964637Y-120294759D01*
X71121680Y-120059727D01*
X71122001Y-120058953D01*
X71122001Y-129338194D01*
X69484001Y-130976196D01*
X69454998Y-130999998D01*
X69399870Y-131067173D01*
X69360025Y-131115723D01*
X69333557Y-131165241D01*
X69289453Y-131247753D01*
X69245996Y-131391014D01*
X69234999Y-131502667D01*
X69234999Y-131502677D01*
X69231323Y-131539999D01*
X69234999Y-131577322D01*
X69235000Y-133457667D01*
X69231323Y-133494999D01*
X69235000Y-133532332D01*
X69245997Y-133643985D01*
X69254196Y-133671014D01*
X69289453Y-133787245D01*
X69360025Y-133919275D01*
X69402080Y-133970518D01*
X69454999Y-134035000D01*
X69483997Y-134058798D01*
X69721312Y-134296113D01*
X69685000Y-134478665D01*
X69685000Y-134761335D01*
X69740147Y-135038574D01*
X69848320Y-135299727D01*
X70005363Y-135534759D01*
X70205241Y-135734637D01*
X70437759Y-135890000D01*
X70205241Y-136045363D01*
X70005363Y-136245241D01*
X69848320Y-136480273D01*
X69740147Y-136741426D01*
X69685000Y-137018665D01*
X69685000Y-137301335D01*
X69740147Y-137578574D01*
X69848320Y-137839727D01*
X70005363Y-138074759D01*
X70205241Y-138274637D01*
X70440273Y-138431680D01*
X70701426Y-138539853D01*
X70978665Y-138595000D01*
X71261335Y-138595000D01*
X71538574Y-138539853D01*
X71799727Y-138431680D01*
X72034759Y-138274637D01*
X72234637Y-138074759D01*
X72391680Y-137839727D01*
X72499853Y-137578574D01*
X72555000Y-137301335D01*
X72555000Y-137018665D01*
X72499853Y-136741426D01*
X72391680Y-136480273D01*
X72311317Y-136360000D01*
X77301928Y-136360000D01*
X77301928Y-137960000D01*
X77314188Y-138084482D01*
X77350498Y-138204180D01*
X77409463Y-138314494D01*
X77488815Y-138411185D01*
X77585506Y-138490537D01*
X77695820Y-138549502D01*
X77815518Y-138585812D01*
X77940000Y-138598072D01*
X79540000Y-138598072D01*
X79664482Y-138585812D01*
X79784180Y-138549502D01*
X79894494Y-138490537D01*
X79991185Y-138411185D01*
X80070537Y-138314494D01*
X80129502Y-138204180D01*
X80165812Y-138084482D01*
X80178072Y-137960000D01*
X80178072Y-136360000D01*
X80165812Y-136235518D01*
X80129502Y-136115820D01*
X80070537Y-136005506D01*
X79991185Y-135908815D01*
X79894494Y-135829463D01*
X79784180Y-135770498D01*
X79664482Y-135734188D01*
X79656039Y-135733357D01*
X79854637Y-135534759D01*
X80011680Y-135299727D01*
X80119853Y-135038574D01*
X80175000Y-134761335D01*
X80175000Y-134478665D01*
X80119853Y-134201426D01*
X80011680Y-133940273D01*
X79854637Y-133705241D01*
X79654759Y-133505363D01*
X79422241Y-133350000D01*
X79654759Y-133194637D01*
X79854637Y-132994759D01*
X80011680Y-132759727D01*
X80119853Y-132498574D01*
X80175000Y-132221335D01*
X80175000Y-131938665D01*
X80119853Y-131661426D01*
X80011680Y-131400273D01*
X79854637Y-131165241D01*
X79654759Y-130965363D01*
X79419727Y-130808320D01*
X79158574Y-130700147D01*
X78881335Y-130645000D01*
X78598665Y-130645000D01*
X78321426Y-130700147D01*
X78060273Y-130808320D01*
X77825241Y-130965363D01*
X77625363Y-131165241D01*
X77468320Y-131400273D01*
X77360147Y-131661426D01*
X77305000Y-131938665D01*
X77305000Y-132221335D01*
X77360147Y-132498574D01*
X77468320Y-132759727D01*
X77625363Y-132994759D01*
X77825241Y-133194637D01*
X78057759Y-133350000D01*
X77825241Y-133505363D01*
X77625363Y-133705241D01*
X77468320Y-133940273D01*
X77360147Y-134201426D01*
X77305000Y-134478665D01*
X77305000Y-134761335D01*
X77360147Y-135038574D01*
X77468320Y-135299727D01*
X77625363Y-135534759D01*
X77823961Y-135733357D01*
X77815518Y-135734188D01*
X77695820Y-135770498D01*
X77585506Y-135829463D01*
X77488815Y-135908815D01*
X77409463Y-136005506D01*
X77350498Y-136115820D01*
X77314188Y-136235518D01*
X77301928Y-136360000D01*
X72311317Y-136360000D01*
X72234637Y-136245241D01*
X72034759Y-136045363D01*
X71802241Y-135890000D01*
X72034759Y-135734637D01*
X72234637Y-135534759D01*
X72391680Y-135299727D01*
X72499853Y-135038574D01*
X72555000Y-134761335D01*
X72555000Y-134478665D01*
X72499853Y-134201426D01*
X72391680Y-133940273D01*
X72234637Y-133705241D01*
X72034759Y-133505363D01*
X71802241Y-133350000D01*
X72034759Y-133194637D01*
X72234637Y-132994759D01*
X72391680Y-132759727D01*
X72499853Y-132498574D01*
X72555000Y-132221335D01*
X72555000Y-131938665D01*
X72499853Y-131661426D01*
X72391680Y-131400273D01*
X72234637Y-131165241D01*
X72034759Y-130965363D01*
X71800778Y-130809022D01*
X72393008Y-130216793D01*
X72422001Y-130192999D01*
X72445795Y-130164006D01*
X72445799Y-130164002D01*
X72516973Y-130077275D01*
X72516974Y-130077274D01*
X72587546Y-129945245D01*
X72631003Y-129801984D01*
X72642000Y-129690331D01*
X72642000Y-129690322D01*
X72645676Y-129652999D01*
X72642000Y-129615676D01*
X72642000Y-127446611D01*
X72685518Y-127459812D01*
X72810000Y-127472072D01*
X74510000Y-127472072D01*
X74634482Y-127459812D01*
X74754180Y-127423502D01*
X74864494Y-127364537D01*
X74961185Y-127285185D01*
X75040537Y-127188494D01*
X75099502Y-127078180D01*
X75121513Y-127005620D01*
X75253368Y-127137475D01*
X75496589Y-127299990D01*
X75766842Y-127411932D01*
X76053740Y-127469000D01*
X76346260Y-127469000D01*
X76633158Y-127411932D01*
X76903411Y-127299990D01*
X77146632Y-127137475D01*
X77353475Y-126930632D01*
X77515990Y-126687411D01*
X77627932Y-126417158D01*
X77685000Y-126130260D01*
X77685000Y-125837740D01*
X77627932Y-125550842D01*
X77515990Y-125280589D01*
X77353475Y-125037368D01*
X77146632Y-124830525D01*
X76903411Y-124668010D01*
X76633158Y-124556068D01*
X76346260Y-124499000D01*
X76053740Y-124499000D01*
X75766842Y-124556068D01*
X75496589Y-124668010D01*
X75253368Y-124830525D01*
X75182000Y-124901893D01*
X75182000Y-124318665D01*
X81115000Y-124318665D01*
X81115000Y-124601335D01*
X81170147Y-124878574D01*
X81278320Y-125139727D01*
X81435363Y-125374759D01*
X81635241Y-125574637D01*
X81870273Y-125731680D01*
X82131426Y-125839853D01*
X82408665Y-125895000D01*
X82691335Y-125895000D01*
X82968574Y-125839853D01*
X83229727Y-125731680D01*
X83464759Y-125574637D01*
X83664637Y-125374759D01*
X83821680Y-125139727D01*
X83929853Y-124878574D01*
X83985000Y-124601335D01*
X83985000Y-124318665D01*
X88735000Y-124318665D01*
X88735000Y-124601335D01*
X88790147Y-124878574D01*
X88898320Y-125139727D01*
X89055363Y-125374759D01*
X89255241Y-125574637D01*
X89490273Y-125731680D01*
X89751426Y-125839853D01*
X90028665Y-125895000D01*
X90311335Y-125895000D01*
X90588574Y-125839853D01*
X90849727Y-125731680D01*
X91084759Y-125574637D01*
X91284637Y-125374759D01*
X91441680Y-125139727D01*
X91549853Y-124878574D01*
X91605000Y-124601335D01*
X91605000Y-124318665D01*
X91549853Y-124041426D01*
X91441680Y-123780273D01*
X91284637Y-123545241D01*
X91084759Y-123345363D01*
X90849727Y-123188320D01*
X90588574Y-123080147D01*
X90311335Y-123025000D01*
X90028665Y-123025000D01*
X89751426Y-123080147D01*
X89490273Y-123188320D01*
X89255241Y-123345363D01*
X89055363Y-123545241D01*
X88898320Y-123780273D01*
X88790147Y-124041426D01*
X88735000Y-124318665D01*
X83985000Y-124318665D01*
X83929853Y-124041426D01*
X83821680Y-123780273D01*
X83664637Y-123545241D01*
X83464759Y-123345363D01*
X83229727Y-123188320D01*
X82968574Y-123080147D01*
X82691335Y-123025000D01*
X82408665Y-123025000D01*
X82131426Y-123080147D01*
X81870273Y-123188320D01*
X81635241Y-123345363D01*
X81435363Y-123545241D01*
X81278320Y-123780273D01*
X81170147Y-124041426D01*
X81115000Y-124318665D01*
X75182000Y-124318665D01*
X75182000Y-119238665D01*
X76035000Y-119238665D01*
X76035000Y-119521335D01*
X76090147Y-119798574D01*
X76198320Y-120059727D01*
X76355363Y-120294759D01*
X76555241Y-120494637D01*
X76790273Y-120651680D01*
X77051426Y-120759853D01*
X77328665Y-120815000D01*
X77611335Y-120815000D01*
X77888574Y-120759853D01*
X78149727Y-120651680D01*
X78384759Y-120494637D01*
X78584637Y-120294759D01*
X78741680Y-120059727D01*
X78849853Y-119798574D01*
X78905000Y-119521335D01*
X78905000Y-119238665D01*
X78849853Y-118961426D01*
X78741680Y-118700273D01*
X78584637Y-118465241D01*
X78384759Y-118265363D01*
X78149727Y-118108320D01*
X77888574Y-118000147D01*
X77611335Y-117945000D01*
X77328665Y-117945000D01*
X77051426Y-118000147D01*
X76790273Y-118108320D01*
X76555241Y-118265363D01*
X76355363Y-118465241D01*
X76198320Y-118700273D01*
X76090147Y-118961426D01*
X76035000Y-119238665D01*
X75182000Y-119238665D01*
X75182000Y-114158665D01*
X76035000Y-114158665D01*
X76035000Y-114441335D01*
X76090147Y-114718574D01*
X76198320Y-114979727D01*
X76355363Y-115214759D01*
X76555241Y-115414637D01*
X76790273Y-115571680D01*
X77051426Y-115679853D01*
X77328665Y-115735000D01*
X77611335Y-115735000D01*
X77888574Y-115679853D01*
X78149727Y-115571680D01*
X78384759Y-115414637D01*
X78584637Y-115214759D01*
X78741680Y-114979727D01*
X78849853Y-114718574D01*
X78905000Y-114441335D01*
X78905000Y-114158665D01*
X78849853Y-113881426D01*
X78741680Y-113620273D01*
X78584637Y-113385241D01*
X78384759Y-113185363D01*
X78242859Y-113090549D01*
X78248786Y-113084622D01*
X78362054Y-112915104D01*
X78440075Y-112726746D01*
X78479849Y-112526787D01*
X78479849Y-112322909D01*
X78440075Y-112122950D01*
X78362054Y-111934592D01*
X78248786Y-111765074D01*
X78104623Y-111620911D01*
X77935105Y-111507643D01*
X77746747Y-111429622D01*
X77546788Y-111389848D01*
X77342910Y-111389848D01*
X77142951Y-111429622D01*
X76954593Y-111507643D01*
X76785075Y-111620911D01*
X76640912Y-111765074D01*
X76527644Y-111934592D01*
X76449623Y-112122950D01*
X76409849Y-112322909D01*
X76409849Y-112526787D01*
X76449623Y-112726746D01*
X76527644Y-112915104D01*
X76640912Y-113084622D01*
X76666987Y-113110697D01*
X76555241Y-113185363D01*
X76355363Y-113385241D01*
X76198320Y-113620273D01*
X76090147Y-113881426D01*
X76035000Y-114158665D01*
X75182000Y-114158665D01*
X75182000Y-109078665D01*
X76035000Y-109078665D01*
X76035000Y-109361335D01*
X76090147Y-109638574D01*
X76198320Y-109899727D01*
X76355363Y-110134759D01*
X76555241Y-110334637D01*
X76790273Y-110491680D01*
X77051426Y-110599853D01*
X77328665Y-110655000D01*
X77611335Y-110655000D01*
X77888574Y-110599853D01*
X78149727Y-110491680D01*
X78384759Y-110334637D01*
X78584637Y-110134759D01*
X78741680Y-109899727D01*
X78849853Y-109638574D01*
X78905000Y-109361335D01*
X78905000Y-109078665D01*
X78849853Y-108801426D01*
X78741680Y-108540273D01*
X78584637Y-108305241D01*
X78384759Y-108105363D01*
X78149727Y-107948320D01*
X77888574Y-107840147D01*
X77611335Y-107785000D01*
X77328665Y-107785000D01*
X77051426Y-107840147D01*
X76790273Y-107948320D01*
X76555241Y-108105363D01*
X76355363Y-108305241D01*
X76198320Y-108540273D01*
X76090147Y-108801426D01*
X76035000Y-109078665D01*
X75182000Y-109078665D01*
X75182000Y-107029039D01*
X81158096Y-107029039D01*
X81198754Y-107163087D01*
X81318963Y-107417420D01*
X81486481Y-107643414D01*
X81694869Y-107832385D01*
X81936119Y-107977070D01*
X82200960Y-108071909D01*
X82423000Y-107950624D01*
X82423000Y-106807000D01*
X81280085Y-106807000D01*
X81158096Y-107029039D01*
X75182000Y-107029039D01*
X75182000Y-104489039D01*
X76078096Y-104489039D01*
X76118754Y-104623087D01*
X76238963Y-104877420D01*
X76406481Y-105103414D01*
X76614869Y-105292385D01*
X76856119Y-105437070D01*
X77120960Y-105531909D01*
X77343000Y-105410624D01*
X77343000Y-104267000D01*
X77597000Y-104267000D01*
X77597000Y-105410624D01*
X77819040Y-105531909D01*
X78083881Y-105437070D01*
X78325131Y-105292385D01*
X78533519Y-105103414D01*
X78701037Y-104877420D01*
X78821246Y-104623087D01*
X78861904Y-104489039D01*
X78739915Y-104267000D01*
X77597000Y-104267000D01*
X77343000Y-104267000D01*
X76200085Y-104267000D01*
X76078096Y-104489039D01*
X75182000Y-104489039D01*
X75182000Y-103790961D01*
X76078096Y-103790961D01*
X76200085Y-104013000D01*
X77343000Y-104013000D01*
X77343000Y-102869376D01*
X77597000Y-102869376D01*
X77597000Y-104013000D01*
X78739915Y-104013000D01*
X78861904Y-103790961D01*
X78821246Y-103656913D01*
X78701037Y-103402580D01*
X78533519Y-103176586D01*
X78325131Y-102987615D01*
X78083881Y-102842930D01*
X77819040Y-102748091D01*
X77597000Y-102869376D01*
X77343000Y-102869376D01*
X77120960Y-102748091D01*
X76856119Y-102842930D01*
X76614869Y-102987615D01*
X76406481Y-103176586D01*
X76238963Y-103402580D01*
X76118754Y-103656913D01*
X76078096Y-103790961D01*
X75182000Y-103790961D01*
X75182000Y-100084178D01*
X75368632Y-99959475D01*
X75575475Y-99752632D01*
X75737990Y-99509411D01*
X75849932Y-99239158D01*
X75907000Y-98952260D01*
X75907000Y-98659740D01*
X75849932Y-98372842D01*
X75737990Y-98102589D01*
X75575475Y-97859368D01*
X75368632Y-97652525D01*
X75194240Y-97536000D01*
X75368632Y-97419475D01*
X75575475Y-97212632D01*
X75737990Y-96969411D01*
X75849932Y-96699158D01*
X75907000Y-96412260D01*
X75907000Y-96119740D01*
X75849932Y-95832842D01*
X75737990Y-95562589D01*
X75575475Y-95319368D01*
X75368632Y-95112525D01*
X75125411Y-94950010D01*
X74855158Y-94838068D01*
X74568260Y-94781000D01*
X74275740Y-94781000D01*
X73988842Y-94838068D01*
X73718589Y-94950010D01*
X73475368Y-95112525D01*
X73268525Y-95319368D01*
X73152000Y-95493760D01*
X73035475Y-95319368D01*
X72828632Y-95112525D01*
X72585411Y-94950010D01*
X72315158Y-94838068D01*
X72028260Y-94781000D01*
X71735740Y-94781000D01*
X71448842Y-94838068D01*
X71178589Y-94950010D01*
X70935368Y-95112525D01*
X70728525Y-95319368D01*
X70612000Y-95493760D01*
X70495475Y-95319368D01*
X70288632Y-95112525D01*
X70045411Y-94950010D01*
X69775158Y-94838068D01*
X69488260Y-94781000D01*
X69195740Y-94781000D01*
X68908842Y-94838068D01*
X68638589Y-94950010D01*
X68395368Y-95112525D01*
X68188525Y-95319368D01*
X68072000Y-95493760D01*
X67955475Y-95319368D01*
X67748632Y-95112525D01*
X67505411Y-94950010D01*
X67235158Y-94838068D01*
X66948260Y-94781000D01*
X66655740Y-94781000D01*
X66368842Y-94838068D01*
X66098589Y-94950010D01*
X65855368Y-95112525D01*
X65648525Y-95319368D01*
X65532000Y-95493760D01*
X65415475Y-95319368D01*
X65208632Y-95112525D01*
X64965411Y-94950010D01*
X64695158Y-94838068D01*
X64408260Y-94781000D01*
X64115740Y-94781000D01*
X63828842Y-94838068D01*
X63558589Y-94950010D01*
X63315368Y-95112525D01*
X63108525Y-95319368D01*
X62992000Y-95493760D01*
X62875475Y-95319368D01*
X62668632Y-95112525D01*
X62425411Y-94950010D01*
X62155158Y-94838068D01*
X61868260Y-94781000D01*
X61575740Y-94781000D01*
X61288842Y-94838068D01*
X61018589Y-94950010D01*
X60775368Y-95112525D01*
X60568525Y-95319368D01*
X60452000Y-95493760D01*
X60335475Y-95319368D01*
X60128632Y-95112525D01*
X59885411Y-94950010D01*
X59615158Y-94838068D01*
X59328260Y-94781000D01*
X59035740Y-94781000D01*
X58748842Y-94838068D01*
X58478589Y-94950010D01*
X58235368Y-95112525D01*
X58028525Y-95319368D01*
X57866010Y-95562589D01*
X57754068Y-95832842D01*
X57697000Y-96119740D01*
X57697000Y-96412260D01*
X57754068Y-96699158D01*
X57866010Y-96969411D01*
X58028525Y-97212632D01*
X58160380Y-97344487D01*
X58087820Y-97366498D01*
X57977506Y-97425463D01*
X57880815Y-97504815D01*
X57801463Y-97601506D01*
X57742498Y-97711820D01*
X57706188Y-97831518D01*
X57693928Y-97956000D01*
X57697000Y-98520250D01*
X57855750Y-98679000D01*
X59055000Y-98679000D01*
X59055000Y-98659000D01*
X59309000Y-98659000D01*
X59309000Y-98679000D01*
X59329000Y-98679000D01*
X59329000Y-98933000D01*
X59309000Y-98933000D01*
X59309000Y-100132250D01*
X59467750Y-100291000D01*
X59597001Y-100291704D01*
X59597002Y-103412196D01*
X58549526Y-104459672D01*
X58585000Y-104281335D01*
X58585000Y-103998665D01*
X58529853Y-103721426D01*
X58421680Y-103460273D01*
X58264637Y-103225241D01*
X58064759Y-103025363D01*
X57829727Y-102868320D01*
X57568574Y-102760147D01*
X57291335Y-102705000D01*
X57008665Y-102705000D01*
X56731426Y-102760147D01*
X56470273Y-102868320D01*
X56235241Y-103025363D01*
X56035363Y-103225241D01*
X55878320Y-103460273D01*
X55770147Y-103721426D01*
X55715000Y-103998665D01*
X55715000Y-104281335D01*
X55770147Y-104558574D01*
X55878320Y-104819727D01*
X56035363Y-105054759D01*
X56235241Y-105254637D01*
X56470273Y-105411680D01*
X56731426Y-105519853D01*
X57008665Y-105575000D01*
X57291335Y-105575000D01*
X57469673Y-105539526D01*
X55514002Y-107495197D01*
X55484998Y-107519000D01*
X55429870Y-107586175D01*
X55390025Y-107634725D01*
X55385381Y-107643414D01*
X55319453Y-107766755D01*
X55275996Y-107910016D01*
X55264999Y-108021669D01*
X55264999Y-108021679D01*
X55261323Y-108059001D01*
X54185374Y-108059001D01*
X54054131Y-107971308D01*
X54081514Y-107956671D01*
X54153097Y-107712702D01*
X53340000Y-106899605D01*
X52526903Y-107712702D01*
X52598486Y-107956671D01*
X52627341Y-107970324D01*
X52425241Y-108105363D01*
X52225363Y-108305241D01*
X52068320Y-108540273D01*
X51960147Y-108801426D01*
X51905000Y-109078665D01*
X49382271Y-109078665D01*
X49374637Y-109067241D01*
X49174759Y-108867363D01*
X48939727Y-108710320D01*
X48678574Y-108602147D01*
X48401335Y-108547000D01*
X48118665Y-108547000D01*
X47841426Y-108602147D01*
X47580273Y-108710320D01*
X47345241Y-108867363D01*
X47145363Y-109067241D01*
X47011308Y-109267869D01*
X46996671Y-109240486D01*
X46752702Y-109168903D01*
X45939605Y-109982000D01*
X45580395Y-109982000D01*
X44767298Y-109168903D01*
X44523329Y-109240486D01*
X44402429Y-109495996D01*
X44333700Y-109770184D01*
X44319783Y-110052512D01*
X40792000Y-110052512D01*
X40792000Y-108989298D01*
X44946903Y-108989298D01*
X45760000Y-109802395D01*
X46573097Y-108989298D01*
X46501514Y-108745329D01*
X46246004Y-108624429D01*
X45971816Y-108555700D01*
X45689488Y-108541783D01*
X45409870Y-108583213D01*
X45143708Y-108678397D01*
X45018486Y-108745329D01*
X44946903Y-108989298D01*
X40792000Y-108989298D01*
X40792000Y-105880000D01*
X41741928Y-105880000D01*
X41741928Y-107480000D01*
X41754188Y-107604482D01*
X41790498Y-107724180D01*
X41849463Y-107834494D01*
X41928815Y-107931185D01*
X42025506Y-108010537D01*
X42135820Y-108069502D01*
X42255518Y-108105812D01*
X42380000Y-108118072D01*
X43980000Y-108118072D01*
X44104482Y-108105812D01*
X44224180Y-108069502D01*
X44334494Y-108010537D01*
X44431185Y-107931185D01*
X44510537Y-107834494D01*
X44569502Y-107724180D01*
X44605812Y-107604482D01*
X44618072Y-107480000D01*
X44618072Y-107029040D01*
X46868091Y-107029040D01*
X46962930Y-107293881D01*
X47107615Y-107535131D01*
X47296586Y-107743519D01*
X47522580Y-107911037D01*
X47776913Y-108031246D01*
X47910961Y-108071904D01*
X48133000Y-107949915D01*
X48133000Y-106807000D01*
X48387000Y-106807000D01*
X48387000Y-107949915D01*
X48609039Y-108071904D01*
X48743087Y-108031246D01*
X48997420Y-107911037D01*
X49223414Y-107743519D01*
X49412385Y-107535131D01*
X49557070Y-107293881D01*
X49651909Y-107029040D01*
X49530624Y-106807000D01*
X48387000Y-106807000D01*
X48133000Y-106807000D01*
X46989376Y-106807000D01*
X46868091Y-107029040D01*
X44618072Y-107029040D01*
X44618072Y-106790512D01*
X51899783Y-106790512D01*
X51941213Y-107070130D01*
X52036397Y-107336292D01*
X52103329Y-107461514D01*
X52347298Y-107533097D01*
X53160395Y-106720000D01*
X53519605Y-106720000D01*
X54332702Y-107533097D01*
X54576671Y-107461514D01*
X54697571Y-107206004D01*
X54766300Y-106931816D01*
X54780217Y-106649488D01*
X54738787Y-106369870D01*
X54643603Y-106103708D01*
X54576671Y-105978486D01*
X54332702Y-105906903D01*
X53519605Y-106720000D01*
X53160395Y-106720000D01*
X52347298Y-105906903D01*
X52103329Y-105978486D01*
X51982429Y-106233996D01*
X51913700Y-106508184D01*
X51899783Y-106790512D01*
X44618072Y-106790512D01*
X44618072Y-106330960D01*
X46868091Y-106330960D01*
X46989376Y-106553000D01*
X48133000Y-106553000D01*
X48133000Y-105410085D01*
X48387000Y-105410085D01*
X48387000Y-106553000D01*
X49530624Y-106553000D01*
X49651909Y-106330960D01*
X49557070Y-106066119D01*
X49412385Y-105824869D01*
X49323906Y-105727298D01*
X52526903Y-105727298D01*
X53340000Y-106540395D01*
X54153097Y-105727298D01*
X54081514Y-105483329D01*
X53826004Y-105362429D01*
X53551816Y-105293700D01*
X53269488Y-105279783D01*
X52989870Y-105321213D01*
X52723708Y-105416397D01*
X52598486Y-105483329D01*
X52526903Y-105727298D01*
X49323906Y-105727298D01*
X49223414Y-105616481D01*
X48997420Y-105448963D01*
X48743087Y-105328754D01*
X48609039Y-105288096D01*
X48387000Y-105410085D01*
X48133000Y-105410085D01*
X47910961Y-105288096D01*
X47776913Y-105328754D01*
X47522580Y-105448963D01*
X47296586Y-105616481D01*
X47107615Y-105824869D01*
X46962930Y-106066119D01*
X46868091Y-106330960D01*
X44618072Y-106330960D01*
X44618072Y-105880000D01*
X44605812Y-105755518D01*
X44569502Y-105635820D01*
X44510537Y-105525506D01*
X44431185Y-105428815D01*
X44334494Y-105349463D01*
X44224180Y-105290498D01*
X44104482Y-105254188D01*
X43980000Y-105241928D01*
X42380000Y-105241928D01*
X42255518Y-105254188D01*
X42135820Y-105290498D01*
X42025506Y-105349463D01*
X41928815Y-105428815D01*
X41849463Y-105525506D01*
X41790498Y-105635820D01*
X41754188Y-105755518D01*
X41741928Y-105880000D01*
X40792000Y-105880000D01*
X40792000Y-101981000D01*
X50038000Y-101981000D01*
X50062776Y-101978560D01*
X50086601Y-101971333D01*
X50108557Y-101959597D01*
X50127803Y-101943803D01*
X50143597Y-101924557D01*
X50155333Y-101902601D01*
X50162560Y-101878776D01*
X50165000Y-101854000D01*
X50165000Y-99656000D01*
X57693928Y-99656000D01*
X57706188Y-99780482D01*
X57742498Y-99900180D01*
X57801463Y-100010494D01*
X57880815Y-100107185D01*
X57977506Y-100186537D01*
X58087820Y-100245502D01*
X58207518Y-100281812D01*
X58332000Y-100294072D01*
X58896250Y-100291000D01*
X59055000Y-100132250D01*
X59055000Y-98933000D01*
X57855750Y-98933000D01*
X57697000Y-99091750D01*
X57693928Y-99656000D01*
X50165000Y-99656000D01*
X50165000Y-92568665D01*
X51905000Y-92568665D01*
X51905000Y-92851335D01*
X51960147Y-93128574D01*
X52068320Y-93389727D01*
X52225363Y-93624759D01*
X52425241Y-93824637D01*
X52660273Y-93981680D01*
X52921426Y-94089853D01*
X53198665Y-94145000D01*
X53481335Y-94145000D01*
X53758574Y-94089853D01*
X54019727Y-93981680D01*
X54254759Y-93824637D01*
X54454637Y-93624759D01*
X54611680Y-93389727D01*
X54719853Y-93128574D01*
X54775000Y-92851335D01*
X54775000Y-92568665D01*
X62065000Y-92568665D01*
X62065000Y-92851335D01*
X62120147Y-93128574D01*
X62228320Y-93389727D01*
X62385363Y-93624759D01*
X62585241Y-93824637D01*
X62820273Y-93981680D01*
X63081426Y-94089853D01*
X63358665Y-94145000D01*
X63641335Y-94145000D01*
X63918574Y-94089853D01*
X64179727Y-93981680D01*
X64414759Y-93824637D01*
X64614637Y-93624759D01*
X64771680Y-93389727D01*
X64879853Y-93128574D01*
X64935000Y-92851335D01*
X64935000Y-92568665D01*
X72225000Y-92568665D01*
X72225000Y-92851335D01*
X72280147Y-93128574D01*
X72388320Y-93389727D01*
X72545363Y-93624759D01*
X72745241Y-93824637D01*
X72980273Y-93981680D01*
X73241426Y-94089853D01*
X73518665Y-94145000D01*
X73801335Y-94145000D01*
X74078574Y-94089853D01*
X74339727Y-93981680D01*
X74574759Y-93824637D01*
X74774637Y-93624759D01*
X74931680Y-93389727D01*
X75039853Y-93128574D01*
X75095000Y-92851335D01*
X75095000Y-92568665D01*
X75039853Y-92291426D01*
X74931680Y-92030273D01*
X74774637Y-91795241D01*
X74574759Y-91595363D01*
X74339727Y-91438320D01*
X74078574Y-91330147D01*
X73801335Y-91275000D01*
X73518665Y-91275000D01*
X73241426Y-91330147D01*
X72980273Y-91438320D01*
X72745241Y-91595363D01*
X72545363Y-91795241D01*
X72388320Y-92030273D01*
X72280147Y-92291426D01*
X72225000Y-92568665D01*
X64935000Y-92568665D01*
X64879853Y-92291426D01*
X64771680Y-92030273D01*
X64614637Y-91795241D01*
X64414759Y-91595363D01*
X64179727Y-91438320D01*
X63918574Y-91330147D01*
X63641335Y-91275000D01*
X63358665Y-91275000D01*
X63081426Y-91330147D01*
X62820273Y-91438320D01*
X62585241Y-91595363D01*
X62385363Y-91795241D01*
X62228320Y-92030273D01*
X62120147Y-92291426D01*
X62065000Y-92568665D01*
X54775000Y-92568665D01*
X54719853Y-92291426D01*
X54611680Y-92030273D01*
X54454637Y-91795241D01*
X54254759Y-91595363D01*
X54019727Y-91438320D01*
X53758574Y-91330147D01*
X53481335Y-91275000D01*
X53198665Y-91275000D01*
X52921426Y-91330147D01*
X52660273Y-91438320D01*
X52425241Y-91595363D01*
X52225363Y-91795241D01*
X52068320Y-92030273D01*
X51960147Y-92291426D01*
X51905000Y-92568665D01*
X50165000Y-92568665D01*
X50165000Y-88646000D01*
X50162560Y-88621224D01*
X50155333Y-88597399D01*
X50143597Y-88575443D01*
X50127803Y-88556197D01*
X50108557Y-88540403D01*
X50086601Y-88528667D01*
X50062776Y-88521440D01*
X50038000Y-88519000D01*
X40792000Y-88519000D01*
X40792000Y-85552569D01*
X40797754Y-85581496D01*
X40924772Y-85888147D01*
X41109175Y-86164125D01*
X41343875Y-86398825D01*
X41619853Y-86583228D01*
X41926504Y-86710246D01*
X42252042Y-86775000D01*
X42583958Y-86775000D01*
X42909496Y-86710246D01*
X43216147Y-86583228D01*
X43492125Y-86398825D01*
X43726825Y-86164125D01*
X43911228Y-85888147D01*
X44038246Y-85581496D01*
X44103000Y-85255958D01*
X44103000Y-84948665D01*
X51905000Y-84948665D01*
X51905000Y-85231335D01*
X51960147Y-85508574D01*
X52068320Y-85769727D01*
X52225363Y-86004759D01*
X52425241Y-86204637D01*
X52660273Y-86361680D01*
X52921426Y-86469853D01*
X53198665Y-86525000D01*
X53481335Y-86525000D01*
X53758574Y-86469853D01*
X54019727Y-86361680D01*
X54254759Y-86204637D01*
X54454637Y-86004759D01*
X54611680Y-85769727D01*
X54640223Y-85700816D01*
X55615000Y-85700816D01*
X55615000Y-86003184D01*
X55673989Y-86299743D01*
X55789701Y-86579095D01*
X55957688Y-86830505D01*
X56171495Y-87044312D01*
X56422905Y-87212299D01*
X56702257Y-87328011D01*
X56998816Y-87387000D01*
X57301184Y-87387000D01*
X57597743Y-87328011D01*
X57877095Y-87212299D01*
X58128505Y-87044312D01*
X58194944Y-86977873D01*
X58200498Y-86996180D01*
X58259463Y-87106494D01*
X58338815Y-87203185D01*
X58435506Y-87282537D01*
X58545820Y-87341502D01*
X58665518Y-87377812D01*
X58790000Y-87390072D01*
X59404250Y-87387000D01*
X59563000Y-87228250D01*
X59563000Y-85979000D01*
X59817000Y-85979000D01*
X59817000Y-87228250D01*
X59975750Y-87387000D01*
X60590000Y-87390072D01*
X60714482Y-87377812D01*
X60834180Y-87341502D01*
X60944494Y-87282537D01*
X61041185Y-87203185D01*
X61120537Y-87106494D01*
X61179502Y-86996180D01*
X61215812Y-86876482D01*
X61228072Y-86752000D01*
X61225000Y-86137750D01*
X61066250Y-85979000D01*
X59817000Y-85979000D01*
X59563000Y-85979000D01*
X59543000Y-85979000D01*
X59543000Y-85725000D01*
X59563000Y-85725000D01*
X59563000Y-84475750D01*
X59817000Y-84475750D01*
X59817000Y-85725000D01*
X61066250Y-85725000D01*
X61225000Y-85566250D01*
X61228072Y-84952000D01*
X61227744Y-84948665D01*
X62065000Y-84948665D01*
X62065000Y-85231335D01*
X62120147Y-85508574D01*
X62228320Y-85769727D01*
X62385363Y-86004759D01*
X62585241Y-86204637D01*
X62820273Y-86361680D01*
X63081426Y-86469853D01*
X63358665Y-86525000D01*
X63641335Y-86525000D01*
X63918574Y-86469853D01*
X64179727Y-86361680D01*
X64414759Y-86204637D01*
X64614637Y-86004759D01*
X64771680Y-85769727D01*
X64800223Y-85700816D01*
X65775000Y-85700816D01*
X65775000Y-86003184D01*
X65833989Y-86299743D01*
X65949701Y-86579095D01*
X66117688Y-86830505D01*
X66331495Y-87044312D01*
X66582905Y-87212299D01*
X66862257Y-87328011D01*
X67158816Y-87387000D01*
X67461184Y-87387000D01*
X67757743Y-87328011D01*
X68037095Y-87212299D01*
X68288505Y-87044312D01*
X68354944Y-86977873D01*
X68360498Y-86996180D01*
X68419463Y-87106494D01*
X68498815Y-87203185D01*
X68595506Y-87282537D01*
X68705820Y-87341502D01*
X68825518Y-87377812D01*
X68950000Y-87390072D01*
X70750000Y-87390072D01*
X70874482Y-87377812D01*
X70994180Y-87341502D01*
X71104494Y-87282537D01*
X71201185Y-87203185D01*
X71280537Y-87106494D01*
X71339502Y-86996180D01*
X71375812Y-86876482D01*
X71388072Y-86752000D01*
X71388072Y-84952000D01*
X71387744Y-84948665D01*
X72225000Y-84948665D01*
X72225000Y-85231335D01*
X72280147Y-85508574D01*
X72388320Y-85769727D01*
X72545363Y-86004759D01*
X72745241Y-86204637D01*
X72980273Y-86361680D01*
X73241426Y-86469853D01*
X73518665Y-86525000D01*
X73801335Y-86525000D01*
X74078574Y-86469853D01*
X74339727Y-86361680D01*
X74574759Y-86204637D01*
X74774637Y-86004759D01*
X74931680Y-85769727D01*
X75039853Y-85508574D01*
X75095000Y-85231335D01*
X75095000Y-84948665D01*
X75039853Y-84671426D01*
X74931680Y-84410273D01*
X74774637Y-84175241D01*
X74574759Y-83975363D01*
X74339727Y-83818320D01*
X74078574Y-83710147D01*
X73801335Y-83655000D01*
X73518665Y-83655000D01*
X73241426Y-83710147D01*
X72980273Y-83818320D01*
X72745241Y-83975363D01*
X72545363Y-84175241D01*
X72388320Y-84410273D01*
X72280147Y-84671426D01*
X72225000Y-84948665D01*
X71387744Y-84948665D01*
X71375812Y-84827518D01*
X71339502Y-84707820D01*
X71280537Y-84597506D01*
X71201185Y-84500815D01*
X71104494Y-84421463D01*
X70994180Y-84362498D01*
X70874482Y-84326188D01*
X70750000Y-84313928D01*
X68950000Y-84313928D01*
X68825518Y-84326188D01*
X68705820Y-84362498D01*
X68595506Y-84421463D01*
X68498815Y-84500815D01*
X68419463Y-84597506D01*
X68360498Y-84707820D01*
X68354944Y-84726127D01*
X68288505Y-84659688D01*
X68037095Y-84491701D01*
X67757743Y-84375989D01*
X67461184Y-84317000D01*
X67158816Y-84317000D01*
X66862257Y-84375989D01*
X66582905Y-84491701D01*
X66331495Y-84659688D01*
X66117688Y-84873495D01*
X65949701Y-85124905D01*
X65833989Y-85404257D01*
X65775000Y-85700816D01*
X64800223Y-85700816D01*
X64879853Y-85508574D01*
X64935000Y-85231335D01*
X64935000Y-84948665D01*
X64879853Y-84671426D01*
X64771680Y-84410273D01*
X64614637Y-84175241D01*
X64414759Y-83975363D01*
X64179727Y-83818320D01*
X63918574Y-83710147D01*
X63641335Y-83655000D01*
X63358665Y-83655000D01*
X63081426Y-83710147D01*
X62820273Y-83818320D01*
X62585241Y-83975363D01*
X62385363Y-84175241D01*
X62228320Y-84410273D01*
X62120147Y-84671426D01*
X62065000Y-84948665D01*
X61227744Y-84948665D01*
X61215812Y-84827518D01*
X61179502Y-84707820D01*
X61120537Y-84597506D01*
X61041185Y-84500815D01*
X60944494Y-84421463D01*
X60834180Y-84362498D01*
X60714482Y-84326188D01*
X60590000Y-84313928D01*
X59975750Y-84317000D01*
X59817000Y-84475750D01*
X59563000Y-84475750D01*
X59404250Y-84317000D01*
X58790000Y-84313928D01*
X58665518Y-84326188D01*
X58545820Y-84362498D01*
X58435506Y-84421463D01*
X58338815Y-84500815D01*
X58259463Y-84597506D01*
X58200498Y-84707820D01*
X58194944Y-84726127D01*
X58128505Y-84659688D01*
X57877095Y-84491701D01*
X57597743Y-84375989D01*
X57301184Y-84317000D01*
X56998816Y-84317000D01*
X56702257Y-84375989D01*
X56422905Y-84491701D01*
X56171495Y-84659688D01*
X55957688Y-84873495D01*
X55789701Y-85124905D01*
X55673989Y-85404257D01*
X55615000Y-85700816D01*
X54640223Y-85700816D01*
X54719853Y-85508574D01*
X54775000Y-85231335D01*
X54775000Y-84948665D01*
X54719853Y-84671426D01*
X54611680Y-84410273D01*
X54454637Y-84175241D01*
X54254759Y-83975363D01*
X54019727Y-83818320D01*
X53758574Y-83710147D01*
X53481335Y-83655000D01*
X53198665Y-83655000D01*
X52921426Y-83710147D01*
X52660273Y-83818320D01*
X52425241Y-83975363D01*
X52225363Y-84175241D01*
X52068320Y-84410273D01*
X51960147Y-84671426D01*
X51905000Y-84948665D01*
X44103000Y-84948665D01*
X44103000Y-84924042D01*
X44038246Y-84598504D01*
X43911228Y-84291853D01*
X43726825Y-84015875D01*
X43492125Y-83781175D01*
X43216147Y-83596772D01*
X42909496Y-83469754D01*
X42880569Y-83464000D01*
X91821000Y-83464000D01*
X91821000Y-85279992D01*
G37*
X91821000Y-85279992D02*
X91744276Y-85217026D01*
X91708072Y-85197674D01*
X91708072Y-84952000D01*
X91695812Y-84827518D01*
X91659502Y-84707820D01*
X91600537Y-84597506D01*
X91521185Y-84500815D01*
X91424494Y-84421463D01*
X91314180Y-84362498D01*
X91194482Y-84326188D01*
X91070000Y-84313928D01*
X89270000Y-84313928D01*
X89145518Y-84326188D01*
X89025820Y-84362498D01*
X88915506Y-84421463D01*
X88818815Y-84500815D01*
X88739463Y-84597506D01*
X88680498Y-84707820D01*
X88674944Y-84726127D01*
X88608505Y-84659688D01*
X88357095Y-84491701D01*
X88077743Y-84375989D01*
X87781184Y-84317000D01*
X87478816Y-84317000D01*
X87182257Y-84375989D01*
X86902905Y-84491701D01*
X86651495Y-84659688D01*
X86437688Y-84873495D01*
X86269701Y-85124905D01*
X86153989Y-85404257D01*
X86095000Y-85700816D01*
X86095000Y-86003184D01*
X86153989Y-86299743D01*
X86269701Y-86579095D01*
X86437688Y-86830505D01*
X86651495Y-87044312D01*
X86902905Y-87212299D01*
X87182257Y-87328011D01*
X87478816Y-87387000D01*
X87781184Y-87387000D01*
X88077743Y-87328011D01*
X88357095Y-87212299D01*
X88608505Y-87044312D01*
X88674944Y-86977873D01*
X88680498Y-86996180D01*
X88739463Y-87106494D01*
X88818815Y-87203185D01*
X88915506Y-87282537D01*
X89025820Y-87341502D01*
X89145518Y-87377812D01*
X89270000Y-87390072D01*
X91070000Y-87390072D01*
X91194482Y-87377812D01*
X91314180Y-87341502D01*
X91424494Y-87282537D01*
X91442001Y-87268170D01*
X91442000Y-91606288D01*
X91398063Y-91650225D01*
X91284795Y-91819743D01*
X91206774Y-92008101D01*
X91167000Y-92208060D01*
X91167000Y-92411938D01*
X91206774Y-92611897D01*
X91249856Y-92715905D01*
X91175102Y-92730774D01*
X90986744Y-92808795D01*
X90817226Y-92922063D01*
X90673063Y-93066226D01*
X90559795Y-93235744D01*
X90481774Y-93424102D01*
X90442000Y-93624061D01*
X90442000Y-93827939D01*
X90481774Y-94027898D01*
X90559795Y-94216256D01*
X90673063Y-94385774D01*
X90817226Y-94529937D01*
X90986744Y-94643205D01*
X91175102Y-94721226D01*
X91375061Y-94761000D01*
X91437199Y-94761000D01*
X91821000Y-95144801D01*
X91821000Y-97968507D01*
X91806010Y-97956205D01*
X90728806Y-96879003D01*
X90705004Y-96850000D01*
X90589279Y-96755027D01*
X90457250Y-96684455D01*
X90313989Y-96640998D01*
X90202336Y-96630001D01*
X90202325Y-96630001D01*
X90165003Y-96626325D01*
X90127681Y-96630001D01*
X81463321Y-96630001D01*
X81425998Y-96626325D01*
X81388676Y-96630001D01*
X81388666Y-96630001D01*
X81277013Y-96640998D01*
X81133752Y-96684455D01*
X81001774Y-96755000D01*
X80924061Y-96755000D01*
X80770000Y-96785644D01*
X80770000Y-92568665D01*
X82385000Y-92568665D01*
X82385000Y-92851335D01*
X82440147Y-93128574D01*
X82548320Y-93389727D01*
X82705363Y-93624759D01*
X82905241Y-93824637D01*
X83140273Y-93981680D01*
X83401426Y-94089853D01*
X83678665Y-94145000D01*
X83961335Y-94145000D01*
X84238574Y-94089853D01*
X84499727Y-93981680D01*
X84734759Y-93824637D01*
X84934637Y-93624759D01*
X85091680Y-93389727D01*
X85199853Y-93128574D01*
X85255000Y-92851335D01*
X85255000Y-92568665D01*
X85199853Y-92291426D01*
X85091680Y-92030273D01*
X84934637Y-91795241D01*
X84734759Y-91595363D01*
X84499727Y-91438320D01*
X84238574Y-91330147D01*
X83961335Y-91275000D01*
X83678665Y-91275000D01*
X83401426Y-91330147D01*
X83140273Y-91438320D01*
X82905241Y-91595363D01*
X82705363Y-91795241D01*
X82548320Y-92030273D01*
X82440147Y-92291426D01*
X82385000Y-92568665D01*
X80770000Y-92568665D01*
X80770000Y-87390072D01*
X80910000Y-87390072D01*
X81034482Y-87377812D01*
X81154180Y-87341502D01*
X81264494Y-87282537D01*
X81361185Y-87203185D01*
X81440537Y-87106494D01*
X81499502Y-86996180D01*
X81535812Y-86876482D01*
X81548072Y-86752000D01*
X81548072Y-84952000D01*
X81547744Y-84948665D01*
X82385000Y-84948665D01*
X82385000Y-85231335D01*
X82440147Y-85508574D01*
X82548320Y-85769727D01*
X82705363Y-86004759D01*
X82905241Y-86204637D01*
X83140273Y-86361680D01*
X83401426Y-86469853D01*
X83678665Y-86525000D01*
X83961335Y-86525000D01*
X84238574Y-86469853D01*
X84499727Y-86361680D01*
X84734759Y-86204637D01*
X84934637Y-86004759D01*
X85091680Y-85769727D01*
X85199853Y-85508574D01*
X85255000Y-85231335D01*
X85255000Y-84948665D01*
X85199853Y-84671426D01*
X85091680Y-84410273D01*
X84934637Y-84175241D01*
X84734759Y-83975363D01*
X84499727Y-83818320D01*
X84238574Y-83710147D01*
X83961335Y-83655000D01*
X83678665Y-83655000D01*
X83401426Y-83710147D01*
X83140273Y-83818320D01*
X82905241Y-83975363D01*
X82705363Y-84175241D01*
X82548320Y-84410273D01*
X82440147Y-84671426D01*
X82385000Y-84948665D01*
X81547744Y-84948665D01*
X81535812Y-84827518D01*
X81499502Y-84707820D01*
X81440537Y-84597506D01*
X81361185Y-84500815D01*
X81264494Y-84421463D01*
X81154180Y-84362498D01*
X81034482Y-84326188D01*
X80910000Y-84313928D01*
X79110000Y-84313928D01*
X78985518Y-84326188D01*
X78865820Y-84362498D01*
X78755506Y-84421463D01*
X78658815Y-84500815D01*
X78579463Y-84597506D01*
X78520498Y-84707820D01*
X78514944Y-84726127D01*
X78448505Y-84659688D01*
X78197095Y-84491701D01*
X77917743Y-84375989D01*
X77621184Y-84317000D01*
X77318816Y-84317000D01*
X77022257Y-84375989D01*
X76742905Y-84491701D01*
X76491495Y-84659688D01*
X76277688Y-84873495D01*
X76109701Y-85124905D01*
X75993989Y-85404257D01*
X75935000Y-85700816D01*
X75935000Y-86003184D01*
X75993989Y-86299743D01*
X76109701Y-86579095D01*
X76277688Y-86830505D01*
X76491495Y-87044312D01*
X76742905Y-87212299D01*
X77022257Y-87328011D01*
X77318816Y-87387000D01*
X77621184Y-87387000D01*
X77917743Y-87328011D01*
X78197095Y-87212299D01*
X78448505Y-87044312D01*
X78514944Y-86977873D01*
X78520498Y-86996180D01*
X78579463Y-87106494D01*
X78658815Y-87203185D01*
X78755506Y-87282537D01*
X78865820Y-87341502D01*
X78985518Y-87377812D01*
X79110000Y-87390072D01*
X79250000Y-87390072D01*
X79250001Y-103466257D01*
X79246324Y-103503590D01*
X79260998Y-103652575D01*
X79304454Y-103795836D01*
X79375026Y-103927866D01*
X79446201Y-104014592D01*
X79470000Y-104043591D01*
X79498998Y-104067389D01*
X81342472Y-105910865D01*
X81318963Y-105942580D01*
X81198754Y-106196913D01*
X81158096Y-106330961D01*
X81280085Y-106553000D01*
X82423000Y-106553000D01*
X82423000Y-106533000D01*
X82677000Y-106533000D01*
X82677000Y-106553000D01*
X82697000Y-106553000D01*
X82697000Y-106807000D01*
X82677000Y-106807000D01*
X82677000Y-107950624D01*
X82899040Y-108071909D01*
X82915001Y-108066193D01*
X82915002Y-111639491D01*
X82691335Y-111595000D01*
X82408665Y-111595000D01*
X82131426Y-111650147D01*
X81870273Y-111758320D01*
X81635241Y-111915363D01*
X81435363Y-112115241D01*
X81278320Y-112350273D01*
X81170147Y-112611426D01*
X81115000Y-112888665D01*
X81115000Y-113171335D01*
X81151312Y-113353887D01*
X80913997Y-113591202D01*
X80884999Y-113615000D01*
X80861201Y-113643998D01*
X80861200Y-113643999D01*
X80790025Y-113730725D01*
X80719453Y-113862755D01*
X80696424Y-113938676D01*
X80675997Y-114006015D01*
X80675826Y-114007753D01*
X80661323Y-114155001D01*
X80665000Y-114192333D01*
X80664999Y-116072678D01*
X80661323Y-116110001D01*
X80664999Y-116147323D01*
X80664999Y-116147333D01*
X80675996Y-116258986D01*
X80698653Y-116333676D01*
X80719453Y-116402247D01*
X80790025Y-116534277D01*
X80829870Y-116582827D01*
X80884998Y-116650002D01*
X80914001Y-116673804D01*
X81435400Y-117195204D01*
X81435363Y-117195241D01*
X81278320Y-117430273D01*
X81170147Y-117691426D01*
X81115000Y-117968665D01*
X81115000Y-118251335D01*
X81170147Y-118528574D01*
X81278320Y-118789727D01*
X81435363Y-119024759D01*
X81635241Y-119224637D01*
X81870273Y-119381680D01*
X82131426Y-119489853D01*
X82408665Y-119545000D01*
X82691335Y-119545000D01*
X82968574Y-119489853D01*
X83229727Y-119381680D01*
X83464759Y-119224637D01*
X83664637Y-119024759D01*
X83821680Y-118789727D01*
X83906105Y-118585907D01*
X84330001Y-119009803D01*
X84330000Y-120708289D01*
X84286063Y-120752226D01*
X84172795Y-120921744D01*
X84094774Y-121110102D01*
X84055000Y-121310061D01*
X84055000Y-121513939D01*
X84094774Y-121713898D01*
X84172795Y-121902256D01*
X84286063Y-122071774D01*
X84430226Y-122215937D01*
X84599744Y-122329205D01*
X84788102Y-122407226D01*
X84988061Y-122447000D01*
X85191939Y-122447000D01*
X85391898Y-122407226D01*
X85580256Y-122329205D01*
X85749774Y-122215937D01*
X85893937Y-122071774D01*
X86007205Y-121902256D01*
X86085226Y-121713898D01*
X86125000Y-121513939D01*
X86125000Y-121310061D01*
X86085226Y-121110102D01*
X86007205Y-120921744D01*
X85893937Y-120752226D01*
X85850000Y-120708289D01*
X85850000Y-118732325D01*
X85853676Y-118695000D01*
X85850000Y-118657675D01*
X85850000Y-118657667D01*
X85839003Y-118546014D01*
X85795546Y-118402753D01*
X85724974Y-118270724D01*
X85630001Y-118154999D01*
X85601003Y-118131201D01*
X84779802Y-117310000D01*
X88731928Y-117310000D01*
X88731928Y-118910000D01*
X88744188Y-119034482D01*
X88780498Y-119154180D01*
X88839463Y-119264494D01*
X88918815Y-119361185D01*
X89015506Y-119440537D01*
X89125820Y-119499502D01*
X89245518Y-119535812D01*
X89370000Y-119548072D01*
X90970000Y-119548072D01*
X91094482Y-119535812D01*
X91214180Y-119499502D01*
X91324494Y-119440537D01*
X91421185Y-119361185D01*
X91500537Y-119264494D01*
X91559502Y-119154180D01*
X91595812Y-119034482D01*
X91608072Y-118910000D01*
X91608072Y-117310000D01*
X91595812Y-117185518D01*
X91559502Y-117065820D01*
X91500537Y-116955506D01*
X91421185Y-116858815D01*
X91324494Y-116779463D01*
X91214180Y-116720498D01*
X91094482Y-116684188D01*
X91086039Y-116683357D01*
X91284637Y-116484759D01*
X91441680Y-116249727D01*
X91549853Y-115988574D01*
X91605000Y-115711335D01*
X91605000Y-115428665D01*
X91549853Y-115151426D01*
X91441680Y-114890273D01*
X91284637Y-114655241D01*
X91084759Y-114455363D01*
X90852241Y-114300000D01*
X91084759Y-114144637D01*
X91284637Y-113944759D01*
X91441680Y-113709727D01*
X91549853Y-113448574D01*
X91605000Y-113171335D01*
X91605000Y-112888665D01*
X91549853Y-112611426D01*
X91441680Y-112350273D01*
X91284637Y-112115241D01*
X91084759Y-111915363D01*
X90849727Y-111758320D01*
X90588574Y-111650147D01*
X90311335Y-111595000D01*
X90028665Y-111595000D01*
X89751426Y-111650147D01*
X89490273Y-111758320D01*
X89255241Y-111915363D01*
X89055363Y-112115241D01*
X88898320Y-112350273D01*
X88790147Y-112611426D01*
X88735000Y-112888665D01*
X88735000Y-113171335D01*
X88790147Y-113448574D01*
X88898320Y-113709727D01*
X89055363Y-113944759D01*
X89255241Y-114144637D01*
X89487759Y-114300000D01*
X89255241Y-114455363D01*
X89055363Y-114655241D01*
X88898320Y-114890273D01*
X88790147Y-115151426D01*
X88735000Y-115428665D01*
X88735000Y-115711335D01*
X88790147Y-115988574D01*
X88898320Y-116249727D01*
X89055363Y-116484759D01*
X89253961Y-116683357D01*
X89245518Y-116684188D01*
X89125820Y-116720498D01*
X89015506Y-116779463D01*
X88918815Y-116858815D01*
X88839463Y-116955506D01*
X88780498Y-117065820D01*
X88744188Y-117185518D01*
X88731928Y-117310000D01*
X84779802Y-117310000D01*
X83780764Y-116310963D01*
X83821680Y-116249727D01*
X83929853Y-115988574D01*
X83985000Y-115711335D01*
X83985000Y-115428665D01*
X83948688Y-115246113D01*
X84185998Y-115008803D01*
X84215002Y-114985000D01*
X84309975Y-114869275D01*
X84380547Y-114737246D01*
X84424004Y-114593985D01*
X84435001Y-114482332D01*
X84435001Y-114482323D01*
X84438677Y-114445000D01*
X84435001Y-114407677D01*
X84435001Y-107099804D01*
X84526205Y-107191008D01*
X84549999Y-107220001D01*
X84578992Y-107243795D01*
X84578996Y-107243799D01*
X84640022Y-107293881D01*
X84665724Y-107314974D01*
X84797753Y-107385546D01*
X84941014Y-107429003D01*
X85052667Y-107440000D01*
X85052676Y-107440000D01*
X85089999Y-107443676D01*
X85127322Y-107440000D01*
X88951957Y-107440000D01*
X89055363Y-107594759D01*
X89255241Y-107794637D01*
X89490273Y-107951680D01*
X89751426Y-108059853D01*
X90028665Y-108115000D01*
X90311335Y-108115000D01*
X90588574Y-108059853D01*
X90849727Y-107951680D01*
X91084759Y-107794637D01*
X91284637Y-107594759D01*
X91441680Y-107359727D01*
X91549853Y-107098574D01*
X91605000Y-106821335D01*
X91605000Y-106538665D01*
X91549853Y-106261426D01*
X91441680Y-106000273D01*
X91284637Y-105765241D01*
X91084759Y-105565363D01*
X90852241Y-105410000D01*
X91084759Y-105254637D01*
X91284637Y-105054759D01*
X91441680Y-104819727D01*
X91549853Y-104558574D01*
X91605000Y-104281335D01*
X91605000Y-103998665D01*
X91549853Y-103721426D01*
X91441680Y-103460273D01*
X91284637Y-103225241D01*
X91084759Y-103025363D01*
X90852241Y-102870000D01*
X91084759Y-102714637D01*
X91284637Y-102514759D01*
X91441680Y-102279727D01*
X91549853Y-102018574D01*
X91605000Y-101741335D01*
X91605000Y-101458665D01*
X91568688Y-101276113D01*
X91805998Y-101038803D01*
X91821000Y-101026491D01*
X91821000Y-130429000D01*
X85852000Y-130429000D01*
X85827224Y-130431440D01*
X85803399Y-130438667D01*
X85781443Y-130450403D01*
X85762197Y-130466197D01*
X85746403Y-130485443D01*
X85734667Y-130507399D01*
X85727440Y-130531224D01*
X85725000Y-130556000D01*
X85725000Y-139040000D01*
X42880569Y-139040000D01*
X42909496Y-139034246D01*
X43216147Y-138907228D01*
X43492125Y-138722825D01*
X43726825Y-138488125D01*
X43911228Y-138212147D01*
X44038246Y-137905496D01*
X44103000Y-137579958D01*
X44103000Y-137465810D01*
X64696036Y-137465810D01*
X64704728Y-137527337D01*
X64797725Y-137736882D01*
X64929816Y-137924258D01*
X65095924Y-138082264D01*
X65289666Y-138204828D01*
X65503596Y-138287239D01*
X65729493Y-138326331D01*
X65913000Y-138166598D01*
X65913000Y-137287000D01*
X66167000Y-137287000D01*
X66167000Y-138166598D01*
X66350507Y-138326331D01*
X66576404Y-138287239D01*
X66790334Y-138204828D01*
X66984076Y-138082264D01*
X67150184Y-137924258D01*
X67282275Y-137736882D01*
X67375272Y-137527337D01*
X67383964Y-137465810D01*
X67258163Y-137287000D01*
X66167000Y-137287000D01*
X65913000Y-137287000D01*
X64821837Y-137287000D01*
X64696036Y-137465810D01*
X44103000Y-137465810D01*
X44103000Y-137248042D01*
X44038246Y-136922504D01*
X43911228Y-136615853D01*
X43726825Y-136339875D01*
X43492125Y-136105175D01*
X43216147Y-135920772D01*
X42909496Y-135793754D01*
X42583958Y-135729000D01*
X42252042Y-135729000D01*
X41926504Y-135793754D01*
X41619853Y-135920772D01*
X41343875Y-136105175D01*
X41109175Y-136339875D01*
X40924772Y-136615853D01*
X40797754Y-136922504D01*
X40792000Y-136951431D01*
X40792000Y-134969039D01*
X51948096Y-134969039D01*
X51988754Y-135103087D01*
X52108963Y-135357420D01*
X52276481Y-135583414D01*
X52484869Y-135772385D01*
X52726119Y-135917070D01*
X52990960Y-136011909D01*
X53213000Y-135890624D01*
X53213000Y-134747000D01*
X53467000Y-134747000D01*
X53467000Y-135890624D01*
X53689040Y-136011909D01*
X53953881Y-135917070D01*
X54195131Y-135772385D01*
X54403519Y-135583414D01*
X54571037Y-135357420D01*
X54691246Y-135103087D01*
X54731904Y-134969039D01*
X54609915Y-134747000D01*
X53467000Y-134747000D01*
X53213000Y-134747000D01*
X52070085Y-134747000D01*
X51948096Y-134969039D01*
X40792000Y-134969039D01*
X40792000Y-134270961D01*
X51948096Y-134270961D01*
X52070085Y-134493000D01*
X53213000Y-134493000D01*
X53213000Y-133349376D01*
X53467000Y-133349376D01*
X53467000Y-134493000D01*
X54609915Y-134493000D01*
X54617790Y-134478665D01*
X59525000Y-134478665D01*
X59525000Y-134761335D01*
X59580147Y-135038574D01*
X59688320Y-135299727D01*
X59845363Y-135534759D01*
X60045241Y-135734637D01*
X60280273Y-135891680D01*
X60541426Y-135999853D01*
X60818665Y-136055000D01*
X61101335Y-136055000D01*
X61378574Y-135999853D01*
X61639727Y-135891680D01*
X61642241Y-135890000D01*
X64649388Y-135890000D01*
X64671785Y-136117400D01*
X64738115Y-136336060D01*
X64838929Y-136524669D01*
X64797725Y-136583118D01*
X64704728Y-136792663D01*
X64696036Y-136854190D01*
X64821837Y-137033000D01*
X65586891Y-137033000D01*
X65587600Y-137033215D01*
X65758021Y-137050000D01*
X66321979Y-137050000D01*
X66492400Y-137033215D01*
X66493109Y-137033000D01*
X67258163Y-137033000D01*
X67383964Y-136854190D01*
X67375272Y-136792663D01*
X67282275Y-136583118D01*
X67241071Y-136524669D01*
X67341885Y-136336060D01*
X67408215Y-136117400D01*
X67430612Y-135890000D01*
X67408215Y-135662600D01*
X67344907Y-135453902D01*
X67379502Y-135389180D01*
X67415812Y-135269482D01*
X67428072Y-135145000D01*
X67428072Y-134095000D01*
X67415812Y-133970518D01*
X67379502Y-133850820D01*
X67320537Y-133740506D01*
X67241185Y-133643815D01*
X67144494Y-133564463D01*
X67034180Y-133505498D01*
X66914482Y-133469188D01*
X66790000Y-133456928D01*
X65290000Y-133456928D01*
X65165518Y-133469188D01*
X65045820Y-133505498D01*
X64935506Y-133564463D01*
X64838815Y-133643815D01*
X64759463Y-133740506D01*
X64700498Y-133850820D01*
X64664188Y-133970518D01*
X64651928Y-134095000D01*
X64651928Y-135145000D01*
X64664188Y-135269482D01*
X64700498Y-135389180D01*
X64735093Y-135453902D01*
X64671785Y-135662600D01*
X64649388Y-135890000D01*
X61642241Y-135890000D01*
X61874759Y-135734637D01*
X62074637Y-135534759D01*
X62231680Y-135299727D01*
X62339853Y-135038574D01*
X62395000Y-134761335D01*
X62395000Y-134478665D01*
X62339853Y-134201426D01*
X62231680Y-133940273D01*
X62074637Y-133705241D01*
X61874759Y-133505363D01*
X61639727Y-133348320D01*
X61378574Y-133240147D01*
X61101335Y-133185000D01*
X60818665Y-133185000D01*
X60541426Y-133240147D01*
X60280273Y-133348320D01*
X60045241Y-133505363D01*
X59845363Y-133705241D01*
X59688320Y-133940273D01*
X59580147Y-134201426D01*
X59525000Y-134478665D01*
X54617790Y-134478665D01*
X54731904Y-134270961D01*
X54691246Y-134136913D01*
X54571037Y-133882580D01*
X54403519Y-133656586D01*
X54195131Y-133467615D01*
X53953881Y-133322930D01*
X53689040Y-133228091D01*
X53467000Y-133349376D01*
X53213000Y-133349376D01*
X52990960Y-133228091D01*
X52726119Y-133322930D01*
X52484869Y-133467615D01*
X52276481Y-133656586D01*
X52108963Y-133882580D01*
X51988754Y-134136913D01*
X51948096Y-134270961D01*
X40792000Y-134270961D01*
X40792000Y-130217098D01*
X43335000Y-130217098D01*
X43335000Y-130686902D01*
X43426654Y-131147679D01*
X43606440Y-131581721D01*
X43867450Y-131972349D01*
X44199651Y-132304550D01*
X44590279Y-132565560D01*
X45024321Y-132745346D01*
X45485098Y-132837000D01*
X45954902Y-132837000D01*
X46415679Y-132745346D01*
X46849721Y-132565560D01*
X47240349Y-132304550D01*
X47572550Y-131972349D01*
X47833560Y-131581721D01*
X48013346Y-131147679D01*
X48105000Y-130686902D01*
X48105000Y-130217098D01*
X48013346Y-129756321D01*
X47833560Y-129322279D01*
X47572550Y-128931651D01*
X47240349Y-128599450D01*
X46849721Y-128338440D01*
X46415679Y-128158654D01*
X45954902Y-128067000D01*
X45485098Y-128067000D01*
X45024321Y-128158654D01*
X44590279Y-128338440D01*
X44199651Y-128599450D01*
X43867450Y-128931651D01*
X43606440Y-129322279D01*
X43426654Y-129756321D01*
X43335000Y-130217098D01*
X40792000Y-130217098D01*
X40792000Y-113666514D01*
X41592500Y-113666514D01*
X41592500Y-113917485D01*
X41615470Y-114150703D01*
X41706245Y-114449948D01*
X41853655Y-114725734D01*
X42052037Y-114967463D01*
X42293765Y-115165845D01*
X42569551Y-115313255D01*
X42868796Y-115404030D01*
X43180000Y-115434681D01*
X43491203Y-115404030D01*
X43790448Y-115313255D01*
X44066234Y-115165845D01*
X44307963Y-114967463D01*
X44455163Y-114788101D01*
X44610563Y-114973315D01*
X44853077Y-115167969D01*
X45128906Y-115311571D01*
X45347020Y-115382563D01*
X45593000Y-115262594D01*
X45593000Y-113919000D01*
X45573000Y-113919000D01*
X45573000Y-113665000D01*
X45593000Y-113665000D01*
X45593000Y-112321406D01*
X45847000Y-112321406D01*
X45847000Y-113665000D01*
X45867000Y-113665000D01*
X45867000Y-113919000D01*
X45847000Y-113919000D01*
X45847000Y-115262594D01*
X46092980Y-115382563D01*
X46311094Y-115311571D01*
X46586923Y-115167969D01*
X46727941Y-115054781D01*
X46776963Y-115146494D01*
X46856315Y-115243185D01*
X46953006Y-115322537D01*
X47063320Y-115381502D01*
X47183018Y-115417812D01*
X47307500Y-115430072D01*
X49212500Y-115430072D01*
X49336982Y-115417812D01*
X49456680Y-115381502D01*
X49566994Y-115322537D01*
X49663685Y-115243185D01*
X49743037Y-115146494D01*
X49802002Y-115036180D01*
X49838312Y-114916482D01*
X49850572Y-114792000D01*
X49850572Y-112792000D01*
X49838312Y-112667518D01*
X49802002Y-112547820D01*
X49743037Y-112437506D01*
X49663685Y-112340815D01*
X49566994Y-112261463D01*
X49456680Y-112202498D01*
X49336982Y-112166188D01*
X49212500Y-112153928D01*
X47307500Y-112153928D01*
X47183018Y-112166188D01*
X47063320Y-112202498D01*
X46953006Y-112261463D01*
X46856315Y-112340815D01*
X46776963Y-112437506D01*
X46727941Y-112529219D01*
X46586923Y-112416031D01*
X46311094Y-112272429D01*
X46092980Y-112201437D01*
X45847000Y-112321406D01*
X45593000Y-112321406D01*
X45347020Y-112201437D01*
X45128906Y-112272429D01*
X44853077Y-112416031D01*
X44610563Y-112610685D01*
X44455162Y-112795900D01*
X44307963Y-112616537D01*
X44066235Y-112418155D01*
X43790449Y-112270745D01*
X43491204Y-112179970D01*
X43180000Y-112149319D01*
X42868797Y-112179970D01*
X42569552Y-112270745D01*
X42293766Y-112418155D01*
X42052037Y-112616537D01*
X41853655Y-112858265D01*
X41706245Y-113134051D01*
X41615470Y-113433296D01*
X41592500Y-113666514D01*
X40792000Y-113666514D01*
X40792000Y-110974702D01*
X44946903Y-110974702D01*
X45018486Y-111218671D01*
X45273996Y-111339571D01*
X45548184Y-111408300D01*
X45830512Y-111422217D01*
X46110130Y-111380787D01*
X46376292Y-111285603D01*
X46501514Y-111218671D01*
X46573097Y-110974702D01*
X45760000Y-110161605D01*
X44946903Y-110974702D01*
X40792000Y-110974702D01*
X40792000Y-110052512D01*
X44319783Y-110052512D01*
X44361213Y-110332130D01*
X44456397Y-110598292D01*
X44523329Y-110723514D01*
X44767298Y-110795097D01*
X45580395Y-109982000D01*
X45939605Y-109982000D01*
X46752702Y-110795097D01*
X46996671Y-110723514D01*
X47010324Y-110694659D01*
X47145363Y-110896759D01*
X47345241Y-111096637D01*
X47580273Y-111253680D01*
X47841426Y-111361853D01*
X48118665Y-111417000D01*
X48401335Y-111417000D01*
X48678574Y-111361853D01*
X48939727Y-111253680D01*
X49174759Y-111096637D01*
X49374637Y-110896759D01*
X49531680Y-110661727D01*
X49639853Y-110400574D01*
X49695000Y-110123335D01*
X49695000Y-109840665D01*
X49639853Y-109563426D01*
X49531680Y-109302273D01*
X49382271Y-109078665D01*
X51905000Y-109078665D01*
X51905000Y-109361335D01*
X51960147Y-109638574D01*
X52068320Y-109899727D01*
X52225363Y-110134759D01*
X52425241Y-110334637D01*
X52455000Y-110354521D01*
X52455001Y-119336521D01*
X52450719Y-119380000D01*
X52467805Y-119553490D01*
X52518412Y-119720313D01*
X52600590Y-119874059D01*
X52683468Y-119975046D01*
X52683471Y-119975049D01*
X52711184Y-120008817D01*
X52744951Y-120036530D01*
X56746349Y-124037928D01*
X56350000Y-124037928D01*
X56225518Y-124050188D01*
X56105820Y-124086498D01*
X55995506Y-124145463D01*
X55898815Y-124224815D01*
X55819463Y-124321506D01*
X55760498Y-124431820D01*
X55724188Y-124551518D01*
X55711928Y-124676000D01*
X55711928Y-126276000D01*
X55724188Y-126400482D01*
X55760498Y-126520180D01*
X55819463Y-126630494D01*
X55898815Y-126727185D01*
X55995506Y-126806537D01*
X56105820Y-126865502D01*
X56225518Y-126901812D01*
X56265000Y-126905701D01*
X56265001Y-129071928D01*
X56050000Y-129071928D01*
X55925518Y-129084188D01*
X55805820Y-129120498D01*
X55695506Y-129179463D01*
X55598815Y-129258815D01*
X55519463Y-129355506D01*
X55460498Y-129465820D01*
X55424188Y-129585518D01*
X55411928Y-129710000D01*
X55411928Y-131910000D01*
X55424188Y-132034482D01*
X55460498Y-132154180D01*
X55519463Y-132264494D01*
X55598815Y-132361185D01*
X55695506Y-132440537D01*
X55805820Y-132499502D01*
X55925518Y-132535812D01*
X56050000Y-132548072D01*
X58250000Y-132548072D01*
X58374482Y-132535812D01*
X58494180Y-132499502D01*
X58604494Y-132440537D01*
X58701185Y-132361185D01*
X58780537Y-132264494D01*
X58839502Y-132154180D01*
X58875812Y-132034482D01*
X58888072Y-131910000D01*
X58888072Y-129710000D01*
X58875812Y-129585518D01*
X58839502Y-129465820D01*
X58780537Y-129355506D01*
X58701185Y-129258815D01*
X58604494Y-129179463D01*
X58494180Y-129120498D01*
X58374482Y-129084188D01*
X58250000Y-129071928D01*
X58035000Y-129071928D01*
X58035000Y-126905701D01*
X58074482Y-126901812D01*
X58194180Y-126865502D01*
X58304494Y-126806537D01*
X58401185Y-126727185D01*
X58480537Y-126630494D01*
X58539502Y-126520180D01*
X58575812Y-126400482D01*
X58588072Y-126276000D01*
X58588072Y-124676000D01*
X58575812Y-124551518D01*
X58539502Y-124431820D01*
X58484543Y-124329000D01*
X62371422Y-124329000D01*
X63341983Y-125299561D01*
X63335000Y-125334665D01*
X63335000Y-125617335D01*
X63390147Y-125894574D01*
X63498320Y-126155727D01*
X63655363Y-126390759D01*
X63855241Y-126590637D01*
X64090273Y-126747680D01*
X64351426Y-126855853D01*
X64628665Y-126911000D01*
X64911335Y-126911000D01*
X65188574Y-126855853D01*
X65449727Y-126747680D01*
X65684759Y-126590637D01*
X65884637Y-126390759D01*
X66041680Y-126155727D01*
X66149853Y-125894574D01*
X66205000Y-125617335D01*
X66205000Y-125334665D01*
X66149853Y-125057426D01*
X66041680Y-124796273D01*
X65884637Y-124561241D01*
X65684759Y-124361363D01*
X65449727Y-124204320D01*
X65188574Y-124096147D01*
X64911335Y-124041000D01*
X64628665Y-124041000D01*
X64593561Y-124047983D01*
X63394534Y-122848956D01*
X63366817Y-122815183D01*
X63232059Y-122704589D01*
X63078313Y-122622411D01*
X62911490Y-122571805D01*
X62781477Y-122559000D01*
X62781469Y-122559000D01*
X62738000Y-122554719D01*
X62694531Y-122559000D01*
X57770579Y-122559000D01*
X55584281Y-120372702D01*
X56336903Y-120372702D01*
X56408486Y-120616671D01*
X56663996Y-120737571D01*
X56938184Y-120806300D01*
X57220512Y-120820217D01*
X57500130Y-120778787D01*
X57766292Y-120683603D01*
X57891514Y-120616671D01*
X57963097Y-120372702D01*
X57150000Y-119559605D01*
X56336903Y-120372702D01*
X55584281Y-120372702D01*
X54662091Y-119450512D01*
X55709783Y-119450512D01*
X55751213Y-119730130D01*
X55846397Y-119996292D01*
X55913329Y-120121514D01*
X56157298Y-120193097D01*
X56970395Y-119380000D01*
X57329605Y-119380000D01*
X58142702Y-120193097D01*
X58386671Y-120121514D01*
X58507571Y-119866004D01*
X58576300Y-119591816D01*
X58590217Y-119309488D01*
X58579724Y-119238665D01*
X63335000Y-119238665D01*
X63335000Y-119521335D01*
X63390147Y-119798574D01*
X63498320Y-120059727D01*
X63655363Y-120294759D01*
X63855241Y-120494637D01*
X64090273Y-120651680D01*
X64351426Y-120759853D01*
X64628665Y-120815000D01*
X64911335Y-120815000D01*
X65188574Y-120759853D01*
X65449727Y-120651680D01*
X65684759Y-120494637D01*
X65884637Y-120294759D01*
X66041680Y-120059727D01*
X66149853Y-119798574D01*
X66205000Y-119521335D01*
X66205000Y-119238665D01*
X66149853Y-118961426D01*
X66041680Y-118700273D01*
X65884637Y-118465241D01*
X65684759Y-118265363D01*
X65449727Y-118108320D01*
X65188574Y-118000147D01*
X64911335Y-117945000D01*
X64628665Y-117945000D01*
X64351426Y-118000147D01*
X64090273Y-118108320D01*
X63855241Y-118265363D01*
X63655363Y-118465241D01*
X63498320Y-118700273D01*
X63390147Y-118961426D01*
X63335000Y-119238665D01*
X58579724Y-119238665D01*
X58548787Y-119029870D01*
X58453603Y-118763708D01*
X58386671Y-118638486D01*
X58142702Y-118566903D01*
X57329605Y-119380000D01*
X56970395Y-119380000D01*
X56157298Y-118566903D01*
X55913329Y-118638486D01*
X55792429Y-118893996D01*
X55723700Y-119168184D01*
X55709783Y-119450512D01*
X54662091Y-119450512D01*
X54225000Y-119013422D01*
X54225000Y-118387298D01*
X56336903Y-118387298D01*
X57150000Y-119200395D01*
X57963097Y-118387298D01*
X57891514Y-118143329D01*
X57636004Y-118022429D01*
X57361816Y-117953700D01*
X57079488Y-117939783D01*
X56799870Y-117981213D01*
X56533708Y-118076397D01*
X56408486Y-118143329D01*
X56336903Y-118387298D01*
X54225000Y-118387298D01*
X54225000Y-110354521D01*
X54254759Y-110334637D01*
X54454637Y-110134759D01*
X54611680Y-109899727D01*
X54719853Y-109638574D01*
X54775000Y-109361335D01*
X54775000Y-109078665D01*
X54719853Y-108801426D01*
X54611680Y-108540273D01*
X54454637Y-108305241D01*
X54254759Y-108105363D01*
X54185374Y-108059001D01*
X55261323Y-108059001D01*
X55264999Y-108096324D01*
X55265000Y-113137667D01*
X55261323Y-113174999D01*
X55265000Y-113212332D01*
X55266621Y-113228785D01*
X55275997Y-113323984D01*
X55319453Y-113467245D01*
X55390025Y-113599275D01*
X55445208Y-113666515D01*
X55484999Y-113715000D01*
X55513997Y-113738798D01*
X55751312Y-113976113D01*
X55715000Y-114158665D01*
X55715000Y-114441335D01*
X55770147Y-114718574D01*
X55878320Y-114979727D01*
X56035363Y-115214759D01*
X56235241Y-115414637D01*
X56470273Y-115571680D01*
X56731426Y-115679853D01*
X57008665Y-115735000D01*
X57291335Y-115735000D01*
X57568574Y-115679853D01*
X57829727Y-115571680D01*
X58064759Y-115414637D01*
X58264637Y-115214759D01*
X58421680Y-114979727D01*
X58529853Y-114718574D01*
X58585000Y-114441335D01*
X58585000Y-114158665D01*
X58529853Y-113881426D01*
X58421680Y-113620273D01*
X58264637Y-113385241D01*
X58064759Y-113185363D01*
X57829727Y-113028320D01*
X57568574Y-112920147D01*
X57291335Y-112865000D01*
X57008665Y-112865000D01*
X56826113Y-112901312D01*
X56784999Y-112860198D01*
X56784999Y-110610509D01*
X57008665Y-110655000D01*
X57291335Y-110655000D01*
X57568574Y-110599853D01*
X57829727Y-110491680D01*
X58064759Y-110334637D01*
X58264637Y-110134759D01*
X58421680Y-109899727D01*
X58529853Y-109638574D01*
X58585000Y-109361335D01*
X58585000Y-109078665D01*
X58529853Y-108801426D01*
X58421680Y-108540273D01*
X58264637Y-108305241D01*
X58064759Y-108105363D01*
X57829727Y-107948320D01*
X57568574Y-107840147D01*
X57360119Y-107798682D01*
X60868004Y-104290798D01*
X60897002Y-104267000D01*
X60944490Y-104209136D01*
X60991975Y-104151276D01*
X61062547Y-104019246D01*
X61068790Y-103998665D01*
X61106004Y-103875985D01*
X61117001Y-103764332D01*
X61117001Y-103764322D01*
X61120677Y-103726999D01*
X61117001Y-103689677D01*
X61117001Y-101552800D01*
X61155737Y-101600000D01*
X61182000Y-101632001D01*
X61210998Y-101655799D01*
X63371312Y-103816114D01*
X63335000Y-103998665D01*
X63335000Y-104281335D01*
X63390147Y-104558574D01*
X63498320Y-104819727D01*
X63655363Y-105054759D01*
X63855241Y-105254637D01*
X64090273Y-105411680D01*
X64351426Y-105519853D01*
X64628665Y-105575000D01*
X64911335Y-105575000D01*
X65188574Y-105519853D01*
X65449727Y-105411680D01*
X65684759Y-105254637D01*
X65825000Y-105114396D01*
X65825001Y-108245605D01*
X65684759Y-108105363D01*
X65449727Y-107948320D01*
X65188574Y-107840147D01*
X64911335Y-107785000D01*
X64628665Y-107785000D01*
X64351426Y-107840147D01*
X64090273Y-107948320D01*
X63855241Y-108105363D01*
X63655363Y-108305241D01*
X63498320Y-108540273D01*
X63390147Y-108801426D01*
X63335000Y-109078665D01*
X63335000Y-109361335D01*
X63390147Y-109638574D01*
X63498320Y-109899727D01*
X63655363Y-110134759D01*
X63855241Y-110334637D01*
X64090273Y-110491680D01*
X64351426Y-110599853D01*
X64628665Y-110655000D01*
X64911335Y-110655000D01*
X65188574Y-110599853D01*
X65449727Y-110491680D01*
X65684759Y-110334637D01*
X65825001Y-110194395D01*
X65825001Y-112072288D01*
X65781063Y-112116226D01*
X65667795Y-112285744D01*
X65589774Y-112474102D01*
X65550000Y-112674061D01*
X65550000Y-112877939D01*
X65589774Y-113077898D01*
X65614973Y-113138734D01*
X65449727Y-113028320D01*
X65188574Y-112920147D01*
X64911335Y-112865000D01*
X64628665Y-112865000D01*
X64351426Y-112920147D01*
X64090273Y-113028320D01*
X63855241Y-113185363D01*
X63655363Y-113385241D01*
X63498320Y-113620273D01*
X63390147Y-113881426D01*
X63335000Y-114158665D01*
X63335000Y-114441335D01*
X63390147Y-114718574D01*
X63498320Y-114979727D01*
X63655363Y-115214759D01*
X63855241Y-115414637D01*
X64090273Y-115571680D01*
X64351426Y-115679853D01*
X64628665Y-115735000D01*
X64911335Y-115735000D01*
X65188574Y-115679853D01*
X65449727Y-115571680D01*
X65684759Y-115414637D01*
X65884637Y-115214759D01*
X66041680Y-114979727D01*
X66149853Y-114718574D01*
X66205000Y-114441335D01*
X66205000Y-114158665D01*
X66149853Y-113881426D01*
X66063143Y-113672090D01*
X66094744Y-113693205D01*
X66283102Y-113771226D01*
X66483061Y-113811000D01*
X66550000Y-113811000D01*
X66550001Y-129217024D01*
X66550000Y-129217034D01*
X66550000Y-129246852D01*
X66488169Y-129272463D01*
X66204002Y-129462337D01*
X65962337Y-129704002D01*
X65772463Y-129988169D01*
X65641675Y-130303919D01*
X65575000Y-130639117D01*
X65575000Y-130980883D01*
X65641675Y-131316081D01*
X65772463Y-131631831D01*
X65962337Y-131915998D01*
X66204002Y-132157663D01*
X66488169Y-132347537D01*
X66803919Y-132478325D01*
X67139117Y-132545000D01*
X67480883Y-132545000D01*
X67816081Y-132478325D01*
X68131831Y-132347537D01*
X68415998Y-132157663D01*
X68657663Y-131915998D01*
X68847537Y-131631831D01*
X68978325Y-131316081D01*
X69045000Y-130980883D01*
X69045000Y-130639117D01*
X68978325Y-130303919D01*
X68847537Y-129988169D01*
X68657663Y-129704002D01*
X68415998Y-129462337D01*
X68131831Y-129272463D01*
X68070000Y-129246852D01*
X68070000Y-105329799D01*
X68579022Y-104820777D01*
X68735363Y-105054759D01*
X68935241Y-105254637D01*
X69170273Y-105411680D01*
X69431426Y-105519853D01*
X69708665Y-105575000D01*
X69991335Y-105575000D01*
X70268574Y-105519853D01*
X70529727Y-105411680D01*
X70764759Y-105254637D01*
X70964637Y-105054759D01*
X71121680Y-104819727D01*
X71122000Y-104818954D01*
X71122000Y-108541046D01*
X71121680Y-108540273D01*
X70964637Y-108305241D01*
X70764759Y-108105363D01*
X70529727Y-107948320D01*
X70268574Y-107840147D01*
X69991335Y-107785000D01*
X69708665Y-107785000D01*
X69431426Y-107840147D01*
X69170273Y-107948320D01*
X68935241Y-108105363D01*
X68735363Y-108305241D01*
X68578320Y-108540273D01*
X68470147Y-108801426D01*
X68415000Y-109078665D01*
X68415000Y-109361335D01*
X68470147Y-109638574D01*
X68578320Y-109899727D01*
X68735363Y-110134759D01*
X68935241Y-110334637D01*
X69170273Y-110491680D01*
X69431426Y-110599853D01*
X69708665Y-110655000D01*
X69991335Y-110655000D01*
X70268574Y-110599853D01*
X70529727Y-110491680D01*
X70764759Y-110334637D01*
X70964637Y-110134759D01*
X71121680Y-109899727D01*
X71122000Y-109898954D01*
X71122000Y-113621047D01*
X71121680Y-113620273D01*
X70964637Y-113385241D01*
X70764759Y-113185363D01*
X70529727Y-113028320D01*
X70268574Y-112920147D01*
X69991335Y-112865000D01*
X69708665Y-112865000D01*
X69431426Y-112920147D01*
X69170273Y-113028320D01*
X68935241Y-113185363D01*
X68735363Y-113385241D01*
X68578320Y-113620273D01*
X68470147Y-113881426D01*
X68415000Y-114158665D01*
X68415000Y-114441335D01*
X68470147Y-114718574D01*
X68578320Y-114979727D01*
X68735363Y-115214759D01*
X68935241Y-115414637D01*
X69170273Y-115571680D01*
X69431426Y-115679853D01*
X69708665Y-115735000D01*
X69991335Y-115735000D01*
X70268574Y-115679853D01*
X70529727Y-115571680D01*
X70764759Y-115414637D01*
X70964637Y-115214759D01*
X71121680Y-114979727D01*
X71122001Y-114978953D01*
X71122001Y-118701047D01*
X71121680Y-118700273D01*
X70964637Y-118465241D01*
X70764759Y-118265363D01*
X70529727Y-118108320D01*
X70268574Y-118000147D01*
X69991335Y-117945000D01*
X69708665Y-117945000D01*
X69431426Y-118000147D01*
X69170273Y-118108320D01*
X68935241Y-118265363D01*
X68735363Y-118465241D01*
X68578320Y-118700273D01*
X68470147Y-118961426D01*
X68415000Y-119238665D01*
X68415000Y-119521335D01*
X68470147Y-119798574D01*
X68578320Y-120059727D01*
X68735363Y-120294759D01*
X68935241Y-120494637D01*
X69170273Y-120651680D01*
X69431426Y-120759853D01*
X69708665Y-120815000D01*
X69991335Y-120815000D01*
X70268574Y-120759853D01*
X70529727Y-120651680D01*
X70764759Y-120494637D01*
X70964637Y-120294759D01*
X71121680Y-120059727D01*
X71122001Y-120058953D01*
X71122001Y-129338194D01*
X69484001Y-130976196D01*
X69454998Y-130999998D01*
X69399870Y-131067173D01*
X69360025Y-131115723D01*
X69333557Y-131165241D01*
X69289453Y-131247753D01*
X69245996Y-131391014D01*
X69234999Y-131502667D01*
X69234999Y-131502677D01*
X69231323Y-131539999D01*
X69234999Y-131577322D01*
X69235000Y-133457667D01*
X69231323Y-133494999D01*
X69235000Y-133532332D01*
X69245997Y-133643985D01*
X69254196Y-133671014D01*
X69289453Y-133787245D01*
X69360025Y-133919275D01*
X69402080Y-133970518D01*
X69454999Y-134035000D01*
X69483997Y-134058798D01*
X69721312Y-134296113D01*
X69685000Y-134478665D01*
X69685000Y-134761335D01*
X69740147Y-135038574D01*
X69848320Y-135299727D01*
X70005363Y-135534759D01*
X70205241Y-135734637D01*
X70437759Y-135890000D01*
X70205241Y-136045363D01*
X70005363Y-136245241D01*
X69848320Y-136480273D01*
X69740147Y-136741426D01*
X69685000Y-137018665D01*
X69685000Y-137301335D01*
X69740147Y-137578574D01*
X69848320Y-137839727D01*
X70005363Y-138074759D01*
X70205241Y-138274637D01*
X70440273Y-138431680D01*
X70701426Y-138539853D01*
X70978665Y-138595000D01*
X71261335Y-138595000D01*
X71538574Y-138539853D01*
X71799727Y-138431680D01*
X72034759Y-138274637D01*
X72234637Y-138074759D01*
X72391680Y-137839727D01*
X72499853Y-137578574D01*
X72555000Y-137301335D01*
X72555000Y-137018665D01*
X72499853Y-136741426D01*
X72391680Y-136480273D01*
X72311317Y-136360000D01*
X77301928Y-136360000D01*
X77301928Y-137960000D01*
X77314188Y-138084482D01*
X77350498Y-138204180D01*
X77409463Y-138314494D01*
X77488815Y-138411185D01*
X77585506Y-138490537D01*
X77695820Y-138549502D01*
X77815518Y-138585812D01*
X77940000Y-138598072D01*
X79540000Y-138598072D01*
X79664482Y-138585812D01*
X79784180Y-138549502D01*
X79894494Y-138490537D01*
X79991185Y-138411185D01*
X80070537Y-138314494D01*
X80129502Y-138204180D01*
X80165812Y-138084482D01*
X80178072Y-137960000D01*
X80178072Y-136360000D01*
X80165812Y-136235518D01*
X80129502Y-136115820D01*
X80070537Y-136005506D01*
X79991185Y-135908815D01*
X79894494Y-135829463D01*
X79784180Y-135770498D01*
X79664482Y-135734188D01*
X79656039Y-135733357D01*
X79854637Y-135534759D01*
X80011680Y-135299727D01*
X80119853Y-135038574D01*
X80175000Y-134761335D01*
X80175000Y-134478665D01*
X80119853Y-134201426D01*
X80011680Y-133940273D01*
X79854637Y-133705241D01*
X79654759Y-133505363D01*
X79422241Y-133350000D01*
X79654759Y-133194637D01*
X79854637Y-132994759D01*
X80011680Y-132759727D01*
X80119853Y-132498574D01*
X80175000Y-132221335D01*
X80175000Y-131938665D01*
X80119853Y-131661426D01*
X80011680Y-131400273D01*
X79854637Y-131165241D01*
X79654759Y-130965363D01*
X79419727Y-130808320D01*
X79158574Y-130700147D01*
X78881335Y-130645000D01*
X78598665Y-130645000D01*
X78321426Y-130700147D01*
X78060273Y-130808320D01*
X77825241Y-130965363D01*
X77625363Y-131165241D01*
X77468320Y-131400273D01*
X77360147Y-131661426D01*
X77305000Y-131938665D01*
X77305000Y-132221335D01*
X77360147Y-132498574D01*
X77468320Y-132759727D01*
X77625363Y-132994759D01*
X77825241Y-133194637D01*
X78057759Y-133350000D01*
X77825241Y-133505363D01*
X77625363Y-133705241D01*
X77468320Y-133940273D01*
X77360147Y-134201426D01*
X77305000Y-134478665D01*
X77305000Y-134761335D01*
X77360147Y-135038574D01*
X77468320Y-135299727D01*
X77625363Y-135534759D01*
X77823961Y-135733357D01*
X77815518Y-135734188D01*
X77695820Y-135770498D01*
X77585506Y-135829463D01*
X77488815Y-135908815D01*
X77409463Y-136005506D01*
X77350498Y-136115820D01*
X77314188Y-136235518D01*
X77301928Y-136360000D01*
X72311317Y-136360000D01*
X72234637Y-136245241D01*
X72034759Y-136045363D01*
X71802241Y-135890000D01*
X72034759Y-135734637D01*
X72234637Y-135534759D01*
X72391680Y-135299727D01*
X72499853Y-135038574D01*
X72555000Y-134761335D01*
X72555000Y-134478665D01*
X72499853Y-134201426D01*
X72391680Y-133940273D01*
X72234637Y-133705241D01*
X72034759Y-133505363D01*
X71802241Y-133350000D01*
X72034759Y-133194637D01*
X72234637Y-132994759D01*
X72391680Y-132759727D01*
X72499853Y-132498574D01*
X72555000Y-132221335D01*
X72555000Y-131938665D01*
X72499853Y-131661426D01*
X72391680Y-131400273D01*
X72234637Y-131165241D01*
X72034759Y-130965363D01*
X71800778Y-130809022D01*
X72393008Y-130216793D01*
X72422001Y-130192999D01*
X72445795Y-130164006D01*
X72445799Y-130164002D01*
X72516973Y-130077275D01*
X72516974Y-130077274D01*
X72587546Y-129945245D01*
X72631003Y-129801984D01*
X72642000Y-129690331D01*
X72642000Y-129690322D01*
X72645676Y-129652999D01*
X72642000Y-129615676D01*
X72642000Y-127446611D01*
X72685518Y-127459812D01*
X72810000Y-127472072D01*
X74510000Y-127472072D01*
X74634482Y-127459812D01*
X74754180Y-127423502D01*
X74864494Y-127364537D01*
X74961185Y-127285185D01*
X75040537Y-127188494D01*
X75099502Y-127078180D01*
X75121513Y-127005620D01*
X75253368Y-127137475D01*
X75496589Y-127299990D01*
X75766842Y-127411932D01*
X76053740Y-127469000D01*
X76346260Y-127469000D01*
X76633158Y-127411932D01*
X76903411Y-127299990D01*
X77146632Y-127137475D01*
X77353475Y-126930632D01*
X77515990Y-126687411D01*
X77627932Y-126417158D01*
X77685000Y-126130260D01*
X77685000Y-125837740D01*
X77627932Y-125550842D01*
X77515990Y-125280589D01*
X77353475Y-125037368D01*
X77146632Y-124830525D01*
X76903411Y-124668010D01*
X76633158Y-124556068D01*
X76346260Y-124499000D01*
X76053740Y-124499000D01*
X75766842Y-124556068D01*
X75496589Y-124668010D01*
X75253368Y-124830525D01*
X75182000Y-124901893D01*
X75182000Y-124318665D01*
X81115000Y-124318665D01*
X81115000Y-124601335D01*
X81170147Y-124878574D01*
X81278320Y-125139727D01*
X81435363Y-125374759D01*
X81635241Y-125574637D01*
X81870273Y-125731680D01*
X82131426Y-125839853D01*
X82408665Y-125895000D01*
X82691335Y-125895000D01*
X82968574Y-125839853D01*
X83229727Y-125731680D01*
X83464759Y-125574637D01*
X83664637Y-125374759D01*
X83821680Y-125139727D01*
X83929853Y-124878574D01*
X83985000Y-124601335D01*
X83985000Y-124318665D01*
X88735000Y-124318665D01*
X88735000Y-124601335D01*
X88790147Y-124878574D01*
X88898320Y-125139727D01*
X89055363Y-125374759D01*
X89255241Y-125574637D01*
X89490273Y-125731680D01*
X89751426Y-125839853D01*
X90028665Y-125895000D01*
X90311335Y-125895000D01*
X90588574Y-125839853D01*
X90849727Y-125731680D01*
X91084759Y-125574637D01*
X91284637Y-125374759D01*
X91441680Y-125139727D01*
X91549853Y-124878574D01*
X91605000Y-124601335D01*
X91605000Y-124318665D01*
X91549853Y-124041426D01*
X91441680Y-123780273D01*
X91284637Y-123545241D01*
X91084759Y-123345363D01*
X90849727Y-123188320D01*
X90588574Y-123080147D01*
X90311335Y-123025000D01*
X90028665Y-123025000D01*
X89751426Y-123080147D01*
X89490273Y-123188320D01*
X89255241Y-123345363D01*
X89055363Y-123545241D01*
X88898320Y-123780273D01*
X88790147Y-124041426D01*
X88735000Y-124318665D01*
X83985000Y-124318665D01*
X83929853Y-124041426D01*
X83821680Y-123780273D01*
X83664637Y-123545241D01*
X83464759Y-123345363D01*
X83229727Y-123188320D01*
X82968574Y-123080147D01*
X82691335Y-123025000D01*
X82408665Y-123025000D01*
X82131426Y-123080147D01*
X81870273Y-123188320D01*
X81635241Y-123345363D01*
X81435363Y-123545241D01*
X81278320Y-123780273D01*
X81170147Y-124041426D01*
X81115000Y-124318665D01*
X75182000Y-124318665D01*
X75182000Y-119238665D01*
X76035000Y-119238665D01*
X76035000Y-119521335D01*
X76090147Y-119798574D01*
X76198320Y-120059727D01*
X76355363Y-120294759D01*
X76555241Y-120494637D01*
X76790273Y-120651680D01*
X77051426Y-120759853D01*
X77328665Y-120815000D01*
X77611335Y-120815000D01*
X77888574Y-120759853D01*
X78149727Y-120651680D01*
X78384759Y-120494637D01*
X78584637Y-120294759D01*
X78741680Y-120059727D01*
X78849853Y-119798574D01*
X78905000Y-119521335D01*
X78905000Y-119238665D01*
X78849853Y-118961426D01*
X78741680Y-118700273D01*
X78584637Y-118465241D01*
X78384759Y-118265363D01*
X78149727Y-118108320D01*
X77888574Y-118000147D01*
X77611335Y-117945000D01*
X77328665Y-117945000D01*
X77051426Y-118000147D01*
X76790273Y-118108320D01*
X76555241Y-118265363D01*
X76355363Y-118465241D01*
X76198320Y-118700273D01*
X76090147Y-118961426D01*
X76035000Y-119238665D01*
X75182000Y-119238665D01*
X75182000Y-114158665D01*
X76035000Y-114158665D01*
X76035000Y-114441335D01*
X76090147Y-114718574D01*
X76198320Y-114979727D01*
X76355363Y-115214759D01*
X76555241Y-115414637D01*
X76790273Y-115571680D01*
X77051426Y-115679853D01*
X77328665Y-115735000D01*
X77611335Y-115735000D01*
X77888574Y-115679853D01*
X78149727Y-115571680D01*
X78384759Y-115414637D01*
X78584637Y-115214759D01*
X78741680Y-114979727D01*
X78849853Y-114718574D01*
X78905000Y-114441335D01*
X78905000Y-114158665D01*
X78849853Y-113881426D01*
X78741680Y-113620273D01*
X78584637Y-113385241D01*
X78384759Y-113185363D01*
X78242859Y-113090549D01*
X78248786Y-113084622D01*
X78362054Y-112915104D01*
X78440075Y-112726746D01*
X78479849Y-112526787D01*
X78479849Y-112322909D01*
X78440075Y-112122950D01*
X78362054Y-111934592D01*
X78248786Y-111765074D01*
X78104623Y-111620911D01*
X77935105Y-111507643D01*
X77746747Y-111429622D01*
X77546788Y-111389848D01*
X77342910Y-111389848D01*
X77142951Y-111429622D01*
X76954593Y-111507643D01*
X76785075Y-111620911D01*
X76640912Y-111765074D01*
X76527644Y-111934592D01*
X76449623Y-112122950D01*
X76409849Y-112322909D01*
X76409849Y-112526787D01*
X76449623Y-112726746D01*
X76527644Y-112915104D01*
X76640912Y-113084622D01*
X76666987Y-113110697D01*
X76555241Y-113185363D01*
X76355363Y-113385241D01*
X76198320Y-113620273D01*
X76090147Y-113881426D01*
X76035000Y-114158665D01*
X75182000Y-114158665D01*
X75182000Y-109078665D01*
X76035000Y-109078665D01*
X76035000Y-109361335D01*
X76090147Y-109638574D01*
X76198320Y-109899727D01*
X76355363Y-110134759D01*
X76555241Y-110334637D01*
X76790273Y-110491680D01*
X77051426Y-110599853D01*
X77328665Y-110655000D01*
X77611335Y-110655000D01*
X77888574Y-110599853D01*
X78149727Y-110491680D01*
X78384759Y-110334637D01*
X78584637Y-110134759D01*
X78741680Y-109899727D01*
X78849853Y-109638574D01*
X78905000Y-109361335D01*
X78905000Y-109078665D01*
X78849853Y-108801426D01*
X78741680Y-108540273D01*
X78584637Y-108305241D01*
X78384759Y-108105363D01*
X78149727Y-107948320D01*
X77888574Y-107840147D01*
X77611335Y-107785000D01*
X77328665Y-107785000D01*
X77051426Y-107840147D01*
X76790273Y-107948320D01*
X76555241Y-108105363D01*
X76355363Y-108305241D01*
X76198320Y-108540273D01*
X76090147Y-108801426D01*
X76035000Y-109078665D01*
X75182000Y-109078665D01*
X75182000Y-107029039D01*
X81158096Y-107029039D01*
X81198754Y-107163087D01*
X81318963Y-107417420D01*
X81486481Y-107643414D01*
X81694869Y-107832385D01*
X81936119Y-107977070D01*
X82200960Y-108071909D01*
X82423000Y-107950624D01*
X82423000Y-106807000D01*
X81280085Y-106807000D01*
X81158096Y-107029039D01*
X75182000Y-107029039D01*
X75182000Y-104489039D01*
X76078096Y-104489039D01*
X76118754Y-104623087D01*
X76238963Y-104877420D01*
X76406481Y-105103414D01*
X76614869Y-105292385D01*
X76856119Y-105437070D01*
X77120960Y-105531909D01*
X77343000Y-105410624D01*
X77343000Y-104267000D01*
X77597000Y-104267000D01*
X77597000Y-105410624D01*
X77819040Y-105531909D01*
X78083881Y-105437070D01*
X78325131Y-105292385D01*
X78533519Y-105103414D01*
X78701037Y-104877420D01*
X78821246Y-104623087D01*
X78861904Y-104489039D01*
X78739915Y-104267000D01*
X77597000Y-104267000D01*
X77343000Y-104267000D01*
X76200085Y-104267000D01*
X76078096Y-104489039D01*
X75182000Y-104489039D01*
X75182000Y-103790961D01*
X76078096Y-103790961D01*
X76200085Y-104013000D01*
X77343000Y-104013000D01*
X77343000Y-102869376D01*
X77597000Y-102869376D01*
X77597000Y-104013000D01*
X78739915Y-104013000D01*
X78861904Y-103790961D01*
X78821246Y-103656913D01*
X78701037Y-103402580D01*
X78533519Y-103176586D01*
X78325131Y-102987615D01*
X78083881Y-102842930D01*
X77819040Y-102748091D01*
X77597000Y-102869376D01*
X77343000Y-102869376D01*
X77120960Y-102748091D01*
X76856119Y-102842930D01*
X76614869Y-102987615D01*
X76406481Y-103176586D01*
X76238963Y-103402580D01*
X76118754Y-103656913D01*
X76078096Y-103790961D01*
X75182000Y-103790961D01*
X75182000Y-100084178D01*
X75368632Y-99959475D01*
X75575475Y-99752632D01*
X75737990Y-99509411D01*
X75849932Y-99239158D01*
X75907000Y-98952260D01*
X75907000Y-98659740D01*
X75849932Y-98372842D01*
X75737990Y-98102589D01*
X75575475Y-97859368D01*
X75368632Y-97652525D01*
X75194240Y-97536000D01*
X75368632Y-97419475D01*
X75575475Y-97212632D01*
X75737990Y-96969411D01*
X75849932Y-96699158D01*
X75907000Y-96412260D01*
X75907000Y-96119740D01*
X75849932Y-95832842D01*
X75737990Y-95562589D01*
X75575475Y-95319368D01*
X75368632Y-95112525D01*
X75125411Y-94950010D01*
X74855158Y-94838068D01*
X74568260Y-94781000D01*
X74275740Y-94781000D01*
X73988842Y-94838068D01*
X73718589Y-94950010D01*
X73475368Y-95112525D01*
X73268525Y-95319368D01*
X73152000Y-95493760D01*
X73035475Y-95319368D01*
X72828632Y-95112525D01*
X72585411Y-94950010D01*
X72315158Y-94838068D01*
X72028260Y-94781000D01*
X71735740Y-94781000D01*
X71448842Y-94838068D01*
X71178589Y-94950010D01*
X70935368Y-95112525D01*
X70728525Y-95319368D01*
X70612000Y-95493760D01*
X70495475Y-95319368D01*
X70288632Y-95112525D01*
X70045411Y-94950010D01*
X69775158Y-94838068D01*
X69488260Y-94781000D01*
X69195740Y-94781000D01*
X68908842Y-94838068D01*
X68638589Y-94950010D01*
X68395368Y-95112525D01*
X68188525Y-95319368D01*
X68072000Y-95493760D01*
X67955475Y-95319368D01*
X67748632Y-95112525D01*
X67505411Y-94950010D01*
X67235158Y-94838068D01*
X66948260Y-94781000D01*
X66655740Y-94781000D01*
X66368842Y-94838068D01*
X66098589Y-94950010D01*
X65855368Y-95112525D01*
X65648525Y-95319368D01*
X65532000Y-95493760D01*
X65415475Y-95319368D01*
X65208632Y-95112525D01*
X64965411Y-94950010D01*
X64695158Y-94838068D01*
X64408260Y-94781000D01*
X64115740Y-94781000D01*
X63828842Y-94838068D01*
X63558589Y-94950010D01*
X63315368Y-95112525D01*
X63108525Y-95319368D01*
X62992000Y-95493760D01*
X62875475Y-95319368D01*
X62668632Y-95112525D01*
X62425411Y-94950010D01*
X62155158Y-94838068D01*
X61868260Y-94781000D01*
X61575740Y-94781000D01*
X61288842Y-94838068D01*
X61018589Y-94950010D01*
X60775368Y-95112525D01*
X60568525Y-95319368D01*
X60452000Y-95493760D01*
X60335475Y-95319368D01*
X60128632Y-95112525D01*
X59885411Y-94950010D01*
X59615158Y-94838068D01*
X59328260Y-94781000D01*
X59035740Y-94781000D01*
X58748842Y-94838068D01*
X58478589Y-94950010D01*
X58235368Y-95112525D01*
X58028525Y-95319368D01*
X57866010Y-95562589D01*
X57754068Y-95832842D01*
X57697000Y-96119740D01*
X57697000Y-96412260D01*
X57754068Y-96699158D01*
X57866010Y-96969411D01*
X58028525Y-97212632D01*
X58160380Y-97344487D01*
X58087820Y-97366498D01*
X57977506Y-97425463D01*
X57880815Y-97504815D01*
X57801463Y-97601506D01*
X57742498Y-97711820D01*
X57706188Y-97831518D01*
X57693928Y-97956000D01*
X57697000Y-98520250D01*
X57855750Y-98679000D01*
X59055000Y-98679000D01*
X59055000Y-98659000D01*
X59309000Y-98659000D01*
X59309000Y-98679000D01*
X59329000Y-98679000D01*
X59329000Y-98933000D01*
X59309000Y-98933000D01*
X59309000Y-100132250D01*
X59467750Y-100291000D01*
X59597001Y-100291704D01*
X59597002Y-103412196D01*
X58549526Y-104459672D01*
X58585000Y-104281335D01*
X58585000Y-103998665D01*
X58529853Y-103721426D01*
X58421680Y-103460273D01*
X58264637Y-103225241D01*
X58064759Y-103025363D01*
X57829727Y-102868320D01*
X57568574Y-102760147D01*
X57291335Y-102705000D01*
X57008665Y-102705000D01*
X56731426Y-102760147D01*
X56470273Y-102868320D01*
X56235241Y-103025363D01*
X56035363Y-103225241D01*
X55878320Y-103460273D01*
X55770147Y-103721426D01*
X55715000Y-103998665D01*
X55715000Y-104281335D01*
X55770147Y-104558574D01*
X55878320Y-104819727D01*
X56035363Y-105054759D01*
X56235241Y-105254637D01*
X56470273Y-105411680D01*
X56731426Y-105519853D01*
X57008665Y-105575000D01*
X57291335Y-105575000D01*
X57469673Y-105539526D01*
X55514002Y-107495197D01*
X55484998Y-107519000D01*
X55429870Y-107586175D01*
X55390025Y-107634725D01*
X55385381Y-107643414D01*
X55319453Y-107766755D01*
X55275996Y-107910016D01*
X55264999Y-108021669D01*
X55264999Y-108021679D01*
X55261323Y-108059001D01*
X54185374Y-108059001D01*
X54054131Y-107971308D01*
X54081514Y-107956671D01*
X54153097Y-107712702D01*
X53340000Y-106899605D01*
X52526903Y-107712702D01*
X52598486Y-107956671D01*
X52627341Y-107970324D01*
X52425241Y-108105363D01*
X52225363Y-108305241D01*
X52068320Y-108540273D01*
X51960147Y-108801426D01*
X51905000Y-109078665D01*
X49382271Y-109078665D01*
X49374637Y-109067241D01*
X49174759Y-108867363D01*
X48939727Y-108710320D01*
X48678574Y-108602147D01*
X48401335Y-108547000D01*
X48118665Y-108547000D01*
X47841426Y-108602147D01*
X47580273Y-108710320D01*
X47345241Y-108867363D01*
X47145363Y-109067241D01*
X47011308Y-109267869D01*
X46996671Y-109240486D01*
X46752702Y-109168903D01*
X45939605Y-109982000D01*
X45580395Y-109982000D01*
X44767298Y-109168903D01*
X44523329Y-109240486D01*
X44402429Y-109495996D01*
X44333700Y-109770184D01*
X44319783Y-110052512D01*
X40792000Y-110052512D01*
X40792000Y-108989298D01*
X44946903Y-108989298D01*
X45760000Y-109802395D01*
X46573097Y-108989298D01*
X46501514Y-108745329D01*
X46246004Y-108624429D01*
X45971816Y-108555700D01*
X45689488Y-108541783D01*
X45409870Y-108583213D01*
X45143708Y-108678397D01*
X45018486Y-108745329D01*
X44946903Y-108989298D01*
X40792000Y-108989298D01*
X40792000Y-105880000D01*
X41741928Y-105880000D01*
X41741928Y-107480000D01*
X41754188Y-107604482D01*
X41790498Y-107724180D01*
X41849463Y-107834494D01*
X41928815Y-107931185D01*
X42025506Y-108010537D01*
X42135820Y-108069502D01*
X42255518Y-108105812D01*
X42380000Y-108118072D01*
X43980000Y-108118072D01*
X44104482Y-108105812D01*
X44224180Y-108069502D01*
X44334494Y-108010537D01*
X44431185Y-107931185D01*
X44510537Y-107834494D01*
X44569502Y-107724180D01*
X44605812Y-107604482D01*
X44618072Y-107480000D01*
X44618072Y-107029040D01*
X46868091Y-107029040D01*
X46962930Y-107293881D01*
X47107615Y-107535131D01*
X47296586Y-107743519D01*
X47522580Y-107911037D01*
X47776913Y-108031246D01*
X47910961Y-108071904D01*
X48133000Y-107949915D01*
X48133000Y-106807000D01*
X48387000Y-106807000D01*
X48387000Y-107949915D01*
X48609039Y-108071904D01*
X48743087Y-108031246D01*
X48997420Y-107911037D01*
X49223414Y-107743519D01*
X49412385Y-107535131D01*
X49557070Y-107293881D01*
X49651909Y-107029040D01*
X49530624Y-106807000D01*
X48387000Y-106807000D01*
X48133000Y-106807000D01*
X46989376Y-106807000D01*
X46868091Y-107029040D01*
X44618072Y-107029040D01*
X44618072Y-106790512D01*
X51899783Y-106790512D01*
X51941213Y-107070130D01*
X52036397Y-107336292D01*
X52103329Y-107461514D01*
X52347298Y-107533097D01*
X53160395Y-106720000D01*
X53519605Y-106720000D01*
X54332702Y-107533097D01*
X54576671Y-107461514D01*
X54697571Y-107206004D01*
X54766300Y-106931816D01*
X54780217Y-106649488D01*
X54738787Y-106369870D01*
X54643603Y-106103708D01*
X54576671Y-105978486D01*
X54332702Y-105906903D01*
X53519605Y-106720000D01*
X53160395Y-106720000D01*
X52347298Y-105906903D01*
X52103329Y-105978486D01*
X51982429Y-106233996D01*
X51913700Y-106508184D01*
X51899783Y-106790512D01*
X44618072Y-106790512D01*
X44618072Y-106330960D01*
X46868091Y-106330960D01*
X46989376Y-106553000D01*
X48133000Y-106553000D01*
X48133000Y-105410085D01*
X48387000Y-105410085D01*
X48387000Y-106553000D01*
X49530624Y-106553000D01*
X49651909Y-106330960D01*
X49557070Y-106066119D01*
X49412385Y-105824869D01*
X49323906Y-105727298D01*
X52526903Y-105727298D01*
X53340000Y-106540395D01*
X54153097Y-105727298D01*
X54081514Y-105483329D01*
X53826004Y-105362429D01*
X53551816Y-105293700D01*
X53269488Y-105279783D01*
X52989870Y-105321213D01*
X52723708Y-105416397D01*
X52598486Y-105483329D01*
X52526903Y-105727298D01*
X49323906Y-105727298D01*
X49223414Y-105616481D01*
X48997420Y-105448963D01*
X48743087Y-105328754D01*
X48609039Y-105288096D01*
X48387000Y-105410085D01*
X48133000Y-105410085D01*
X47910961Y-105288096D01*
X47776913Y-105328754D01*
X47522580Y-105448963D01*
X47296586Y-105616481D01*
X47107615Y-105824869D01*
X46962930Y-106066119D01*
X46868091Y-106330960D01*
X44618072Y-106330960D01*
X44618072Y-105880000D01*
X44605812Y-105755518D01*
X44569502Y-105635820D01*
X44510537Y-105525506D01*
X44431185Y-105428815D01*
X44334494Y-105349463D01*
X44224180Y-105290498D01*
X44104482Y-105254188D01*
X43980000Y-105241928D01*
X42380000Y-105241928D01*
X42255518Y-105254188D01*
X42135820Y-105290498D01*
X42025506Y-105349463D01*
X41928815Y-105428815D01*
X41849463Y-105525506D01*
X41790498Y-105635820D01*
X41754188Y-105755518D01*
X41741928Y-105880000D01*
X40792000Y-105880000D01*
X40792000Y-101981000D01*
X50038000Y-101981000D01*
X50062776Y-101978560D01*
X50086601Y-101971333D01*
X50108557Y-101959597D01*
X50127803Y-101943803D01*
X50143597Y-101924557D01*
X50155333Y-101902601D01*
X50162560Y-101878776D01*
X50165000Y-101854000D01*
X50165000Y-99656000D01*
X57693928Y-99656000D01*
X57706188Y-99780482D01*
X57742498Y-99900180D01*
X57801463Y-100010494D01*
X57880815Y-100107185D01*
X57977506Y-100186537D01*
X58087820Y-100245502D01*
X58207518Y-100281812D01*
X58332000Y-100294072D01*
X58896250Y-100291000D01*
X59055000Y-100132250D01*
X59055000Y-98933000D01*
X57855750Y-98933000D01*
X57697000Y-99091750D01*
X57693928Y-99656000D01*
X50165000Y-99656000D01*
X50165000Y-92568665D01*
X51905000Y-92568665D01*
X51905000Y-92851335D01*
X51960147Y-93128574D01*
X52068320Y-93389727D01*
X52225363Y-93624759D01*
X52425241Y-93824637D01*
X52660273Y-93981680D01*
X52921426Y-94089853D01*
X53198665Y-94145000D01*
X53481335Y-94145000D01*
X53758574Y-94089853D01*
X54019727Y-93981680D01*
X54254759Y-93824637D01*
X54454637Y-93624759D01*
X54611680Y-93389727D01*
X54719853Y-93128574D01*
X54775000Y-92851335D01*
X54775000Y-92568665D01*
X62065000Y-92568665D01*
X62065000Y-92851335D01*
X62120147Y-93128574D01*
X62228320Y-93389727D01*
X62385363Y-93624759D01*
X62585241Y-93824637D01*
X62820273Y-93981680D01*
X63081426Y-94089853D01*
X63358665Y-94145000D01*
X63641335Y-94145000D01*
X63918574Y-94089853D01*
X64179727Y-93981680D01*
X64414759Y-93824637D01*
X64614637Y-93624759D01*
X64771680Y-93389727D01*
X64879853Y-93128574D01*
X64935000Y-92851335D01*
X64935000Y-92568665D01*
X72225000Y-92568665D01*
X72225000Y-92851335D01*
X72280147Y-93128574D01*
X72388320Y-93389727D01*
X72545363Y-93624759D01*
X72745241Y-93824637D01*
X72980273Y-93981680D01*
X73241426Y-94089853D01*
X73518665Y-94145000D01*
X73801335Y-94145000D01*
X74078574Y-94089853D01*
X74339727Y-93981680D01*
X74574759Y-93824637D01*
X74774637Y-93624759D01*
X74931680Y-93389727D01*
X75039853Y-93128574D01*
X75095000Y-92851335D01*
X75095000Y-92568665D01*
X75039853Y-92291426D01*
X74931680Y-92030273D01*
X74774637Y-91795241D01*
X74574759Y-91595363D01*
X74339727Y-91438320D01*
X74078574Y-91330147D01*
X73801335Y-91275000D01*
X73518665Y-91275000D01*
X73241426Y-91330147D01*
X72980273Y-91438320D01*
X72745241Y-91595363D01*
X72545363Y-91795241D01*
X72388320Y-92030273D01*
X72280147Y-92291426D01*
X72225000Y-92568665D01*
X64935000Y-92568665D01*
X64879853Y-92291426D01*
X64771680Y-92030273D01*
X64614637Y-91795241D01*
X64414759Y-91595363D01*
X64179727Y-91438320D01*
X63918574Y-91330147D01*
X63641335Y-91275000D01*
X63358665Y-91275000D01*
X63081426Y-91330147D01*
X62820273Y-91438320D01*
X62585241Y-91595363D01*
X62385363Y-91795241D01*
X62228320Y-92030273D01*
X62120147Y-92291426D01*
X62065000Y-92568665D01*
X54775000Y-92568665D01*
X54719853Y-92291426D01*
X54611680Y-92030273D01*
X54454637Y-91795241D01*
X54254759Y-91595363D01*
X54019727Y-91438320D01*
X53758574Y-91330147D01*
X53481335Y-91275000D01*
X53198665Y-91275000D01*
X52921426Y-91330147D01*
X52660273Y-91438320D01*
X52425241Y-91595363D01*
X52225363Y-91795241D01*
X52068320Y-92030273D01*
X51960147Y-92291426D01*
X51905000Y-92568665D01*
X50165000Y-92568665D01*
X50165000Y-88646000D01*
X50162560Y-88621224D01*
X50155333Y-88597399D01*
X50143597Y-88575443D01*
X50127803Y-88556197D01*
X50108557Y-88540403D01*
X50086601Y-88528667D01*
X50062776Y-88521440D01*
X50038000Y-88519000D01*
X40792000Y-88519000D01*
X40792000Y-85552569D01*
X40797754Y-85581496D01*
X40924772Y-85888147D01*
X41109175Y-86164125D01*
X41343875Y-86398825D01*
X41619853Y-86583228D01*
X41926504Y-86710246D01*
X42252042Y-86775000D01*
X42583958Y-86775000D01*
X42909496Y-86710246D01*
X43216147Y-86583228D01*
X43492125Y-86398825D01*
X43726825Y-86164125D01*
X43911228Y-85888147D01*
X44038246Y-85581496D01*
X44103000Y-85255958D01*
X44103000Y-84948665D01*
X51905000Y-84948665D01*
X51905000Y-85231335D01*
X51960147Y-85508574D01*
X52068320Y-85769727D01*
X52225363Y-86004759D01*
X52425241Y-86204637D01*
X52660273Y-86361680D01*
X52921426Y-86469853D01*
X53198665Y-86525000D01*
X53481335Y-86525000D01*
X53758574Y-86469853D01*
X54019727Y-86361680D01*
X54254759Y-86204637D01*
X54454637Y-86004759D01*
X54611680Y-85769727D01*
X54640223Y-85700816D01*
X55615000Y-85700816D01*
X55615000Y-86003184D01*
X55673989Y-86299743D01*
X55789701Y-86579095D01*
X55957688Y-86830505D01*
X56171495Y-87044312D01*
X56422905Y-87212299D01*
X56702257Y-87328011D01*
X56998816Y-87387000D01*
X57301184Y-87387000D01*
X57597743Y-87328011D01*
X57877095Y-87212299D01*
X58128505Y-87044312D01*
X58194944Y-86977873D01*
X58200498Y-86996180D01*
X58259463Y-87106494D01*
X58338815Y-87203185D01*
X58435506Y-87282537D01*
X58545820Y-87341502D01*
X58665518Y-87377812D01*
X58790000Y-87390072D01*
X59404250Y-87387000D01*
X59563000Y-87228250D01*
X59563000Y-85979000D01*
X59817000Y-85979000D01*
X59817000Y-87228250D01*
X59975750Y-87387000D01*
X60590000Y-87390072D01*
X60714482Y-87377812D01*
X60834180Y-87341502D01*
X60944494Y-87282537D01*
X61041185Y-87203185D01*
X61120537Y-87106494D01*
X61179502Y-86996180D01*
X61215812Y-86876482D01*
X61228072Y-86752000D01*
X61225000Y-86137750D01*
X61066250Y-85979000D01*
X59817000Y-85979000D01*
X59563000Y-85979000D01*
X59543000Y-85979000D01*
X59543000Y-85725000D01*
X59563000Y-85725000D01*
X59563000Y-84475750D01*
X59817000Y-84475750D01*
X59817000Y-85725000D01*
X61066250Y-85725000D01*
X61225000Y-85566250D01*
X61228072Y-84952000D01*
X61227744Y-84948665D01*
X62065000Y-84948665D01*
X62065000Y-85231335D01*
X62120147Y-85508574D01*
X62228320Y-85769727D01*
X62385363Y-86004759D01*
X62585241Y-86204637D01*
X62820273Y-86361680D01*
X63081426Y-86469853D01*
X63358665Y-86525000D01*
X63641335Y-86525000D01*
X63918574Y-86469853D01*
X64179727Y-86361680D01*
X64414759Y-86204637D01*
X64614637Y-86004759D01*
X64771680Y-85769727D01*
X64800223Y-85700816D01*
X65775000Y-85700816D01*
X65775000Y-86003184D01*
X65833989Y-86299743D01*
X65949701Y-86579095D01*
X66117688Y-86830505D01*
X66331495Y-87044312D01*
X66582905Y-87212299D01*
X66862257Y-87328011D01*
X67158816Y-87387000D01*
X67461184Y-87387000D01*
X67757743Y-87328011D01*
X68037095Y-87212299D01*
X68288505Y-87044312D01*
X68354944Y-86977873D01*
X68360498Y-86996180D01*
X68419463Y-87106494D01*
X68498815Y-87203185D01*
X68595506Y-87282537D01*
X68705820Y-87341502D01*
X68825518Y-87377812D01*
X68950000Y-87390072D01*
X70750000Y-87390072D01*
X70874482Y-87377812D01*
X70994180Y-87341502D01*
X71104494Y-87282537D01*
X71201185Y-87203185D01*
X71280537Y-87106494D01*
X71339502Y-86996180D01*
X71375812Y-86876482D01*
X71388072Y-86752000D01*
X71388072Y-84952000D01*
X71387744Y-84948665D01*
X72225000Y-84948665D01*
X72225000Y-85231335D01*
X72280147Y-85508574D01*
X72388320Y-85769727D01*
X72545363Y-86004759D01*
X72745241Y-86204637D01*
X72980273Y-86361680D01*
X73241426Y-86469853D01*
X73518665Y-86525000D01*
X73801335Y-86525000D01*
X74078574Y-86469853D01*
X74339727Y-86361680D01*
X74574759Y-86204637D01*
X74774637Y-86004759D01*
X74931680Y-85769727D01*
X75039853Y-85508574D01*
X75095000Y-85231335D01*
X75095000Y-84948665D01*
X75039853Y-84671426D01*
X74931680Y-84410273D01*
X74774637Y-84175241D01*
X74574759Y-83975363D01*
X74339727Y-83818320D01*
X74078574Y-83710147D01*
X73801335Y-83655000D01*
X73518665Y-83655000D01*
X73241426Y-83710147D01*
X72980273Y-83818320D01*
X72745241Y-83975363D01*
X72545363Y-84175241D01*
X72388320Y-84410273D01*
X72280147Y-84671426D01*
X72225000Y-84948665D01*
X71387744Y-84948665D01*
X71375812Y-84827518D01*
X71339502Y-84707820D01*
X71280537Y-84597506D01*
X71201185Y-84500815D01*
X71104494Y-84421463D01*
X70994180Y-84362498D01*
X70874482Y-84326188D01*
X70750000Y-84313928D01*
X68950000Y-84313928D01*
X68825518Y-84326188D01*
X68705820Y-84362498D01*
X68595506Y-84421463D01*
X68498815Y-84500815D01*
X68419463Y-84597506D01*
X68360498Y-84707820D01*
X68354944Y-84726127D01*
X68288505Y-84659688D01*
X68037095Y-84491701D01*
X67757743Y-84375989D01*
X67461184Y-84317000D01*
X67158816Y-84317000D01*
X66862257Y-84375989D01*
X66582905Y-84491701D01*
X66331495Y-84659688D01*
X66117688Y-84873495D01*
X65949701Y-85124905D01*
X65833989Y-85404257D01*
X65775000Y-85700816D01*
X64800223Y-85700816D01*
X64879853Y-85508574D01*
X64935000Y-85231335D01*
X64935000Y-84948665D01*
X64879853Y-84671426D01*
X64771680Y-84410273D01*
X64614637Y-84175241D01*
X64414759Y-83975363D01*
X64179727Y-83818320D01*
X63918574Y-83710147D01*
X63641335Y-83655000D01*
X63358665Y-83655000D01*
X63081426Y-83710147D01*
X62820273Y-83818320D01*
X62585241Y-83975363D01*
X62385363Y-84175241D01*
X62228320Y-84410273D01*
X62120147Y-84671426D01*
X62065000Y-84948665D01*
X61227744Y-84948665D01*
X61215812Y-84827518D01*
X61179502Y-84707820D01*
X61120537Y-84597506D01*
X61041185Y-84500815D01*
X60944494Y-84421463D01*
X60834180Y-84362498D01*
X60714482Y-84326188D01*
X60590000Y-84313928D01*
X59975750Y-84317000D01*
X59817000Y-84475750D01*
X59563000Y-84475750D01*
X59404250Y-84317000D01*
X58790000Y-84313928D01*
X58665518Y-84326188D01*
X58545820Y-84362498D01*
X58435506Y-84421463D01*
X58338815Y-84500815D01*
X58259463Y-84597506D01*
X58200498Y-84707820D01*
X58194944Y-84726127D01*
X58128505Y-84659688D01*
X57877095Y-84491701D01*
X57597743Y-84375989D01*
X57301184Y-84317000D01*
X56998816Y-84317000D01*
X56702257Y-84375989D01*
X56422905Y-84491701D01*
X56171495Y-84659688D01*
X55957688Y-84873495D01*
X55789701Y-85124905D01*
X55673989Y-85404257D01*
X55615000Y-85700816D01*
X54640223Y-85700816D01*
X54719853Y-85508574D01*
X54775000Y-85231335D01*
X54775000Y-84948665D01*
X54719853Y-84671426D01*
X54611680Y-84410273D01*
X54454637Y-84175241D01*
X54254759Y-83975363D01*
X54019727Y-83818320D01*
X53758574Y-83710147D01*
X53481335Y-83655000D01*
X53198665Y-83655000D01*
X52921426Y-83710147D01*
X52660273Y-83818320D01*
X52425241Y-83975363D01*
X52225363Y-84175241D01*
X52068320Y-84410273D01*
X51960147Y-84671426D01*
X51905000Y-84948665D01*
X44103000Y-84948665D01*
X44103000Y-84924042D01*
X44038246Y-84598504D01*
X43911228Y-84291853D01*
X43726825Y-84015875D01*
X43492125Y-83781175D01*
X43216147Y-83596772D01*
X42909496Y-83469754D01*
X42880569Y-83464000D01*
X91821000Y-83464000D01*
X91821000Y-85279992D01*
G36*
X73268525Y-99752632D02*
G01*
X73475368Y-99959475D01*
X73662000Y-100084178D01*
X73662001Y-124495928D01*
X72810000Y-124495928D01*
X72685518Y-124508188D01*
X72642000Y-124521389D01*
X72642000Y-100084178D01*
X72828632Y-99959475D01*
X73035475Y-99752632D01*
X73152000Y-99578240D01*
X73268525Y-99752632D01*
G37*
X73268525Y-99752632D02*
X73475368Y-99959475D01*
X73662000Y-100084178D01*
X73662001Y-124495928D01*
X72810000Y-124495928D01*
X72685518Y-124508188D01*
X72642000Y-124521389D01*
X72642000Y-100084178D01*
X72828632Y-99959475D01*
X73035475Y-99752632D01*
X73152000Y-99578240D01*
X73268525Y-99752632D01*
G36*
X63108525Y-99752632D02*
G01*
X63315368Y-99959475D01*
X63558589Y-100121990D01*
X63828842Y-100233932D01*
X64115740Y-100291000D01*
X64408260Y-100291000D01*
X64628408Y-100247209D01*
X65825000Y-101443802D01*
X65825000Y-103165604D01*
X65684759Y-103025363D01*
X65449727Y-102868320D01*
X65188574Y-102760147D01*
X64911335Y-102705000D01*
X64628665Y-102705000D01*
X64446114Y-102741312D01*
X62482000Y-100777199D01*
X62482000Y-100084178D01*
X62668632Y-99959475D01*
X62875475Y-99752632D01*
X62992000Y-99578240D01*
X63108525Y-99752632D01*
G37*
X63108525Y-99752632D02*
X63315368Y-99959475D01*
X63558589Y-100121990D01*
X63828842Y-100233932D01*
X64115740Y-100291000D01*
X64408260Y-100291000D01*
X64628408Y-100247209D01*
X65825000Y-101443802D01*
X65825000Y-103165604D01*
X65684759Y-103025363D01*
X65449727Y-102868320D01*
X65188574Y-102760147D01*
X64911335Y-102705000D01*
X64628665Y-102705000D01*
X64446114Y-102741312D01*
X62482000Y-100777199D01*
X62482000Y-100084178D01*
X62668632Y-99959475D01*
X62875475Y-99752632D01*
X62992000Y-99578240D01*
X63108525Y-99752632D01*
%TO.N,GNDREF*%
G36*
X123800001Y-125965000D02*
G01*
X123733061Y-125965000D01*
X123533102Y-126004774D01*
X123344744Y-126082795D01*
X123175226Y-126196063D01*
X123171386Y-126199903D01*
X123073475Y-126053368D01*
X122941620Y-125921513D01*
X123014180Y-125899502D01*
X123124494Y-125840537D01*
X123221185Y-125761185D01*
X123300537Y-125664494D01*
X123359502Y-125554180D01*
X123395812Y-125434482D01*
X123408072Y-125310000D01*
X123405000Y-124745750D01*
X123246250Y-124587000D01*
X122047000Y-124587000D01*
X122047000Y-124607000D01*
X121793000Y-124607000D01*
X121793000Y-124587000D01*
X120593750Y-124587000D01*
X120435000Y-124745750D01*
X120431928Y-125310000D01*
X120444188Y-125434482D01*
X120480498Y-125554180D01*
X120539463Y-125664494D01*
X120618815Y-125761185D01*
X120715506Y-125840537D01*
X120825820Y-125899502D01*
X120898380Y-125921513D01*
X120766525Y-126053368D01*
X120604010Y-126296589D01*
X120492068Y-126566842D01*
X120435000Y-126853740D01*
X120435000Y-127146260D01*
X120492068Y-127433158D01*
X120604010Y-127703411D01*
X120766525Y-127946632D01*
X120973368Y-128153475D01*
X121147760Y-128270000D01*
X120973368Y-128386525D01*
X120766525Y-128593368D01*
X120604010Y-128836589D01*
X120492068Y-129106842D01*
X120435000Y-129393740D01*
X120435000Y-129686260D01*
X120492068Y-129973158D01*
X120604010Y-130243411D01*
X120766525Y-130486632D01*
X120973368Y-130693475D01*
X121147760Y-130810000D01*
X120973368Y-130926525D01*
X120766525Y-131133368D01*
X120604010Y-131376589D01*
X120492068Y-131646842D01*
X120435000Y-131933740D01*
X120435000Y-132226260D01*
X120492068Y-132513158D01*
X120604010Y-132783411D01*
X120766525Y-133026632D01*
X120973368Y-133233475D01*
X121216589Y-133395990D01*
X121486842Y-133507932D01*
X121773740Y-133565000D01*
X122066260Y-133565000D01*
X122353158Y-133507932D01*
X122623411Y-133395990D01*
X122866632Y-133233475D01*
X123073475Y-133026632D01*
X123235990Y-132783411D01*
X123347932Y-132513158D01*
X123405000Y-132226260D01*
X123405000Y-131933740D01*
X123347932Y-131646842D01*
X123235990Y-131376589D01*
X123073475Y-131133368D01*
X122866632Y-130926525D01*
X122692240Y-130810000D01*
X122866632Y-130693475D01*
X123073475Y-130486632D01*
X123235990Y-130243411D01*
X123347932Y-129973158D01*
X123405000Y-129686260D01*
X123405000Y-129393740D01*
X123347932Y-129106842D01*
X123235990Y-128836589D01*
X123073475Y-128593368D01*
X122866632Y-128386525D01*
X122692240Y-128270000D01*
X122866632Y-128153475D01*
X123073475Y-127946632D01*
X123171386Y-127800097D01*
X123175226Y-127803937D01*
X123344744Y-127917205D01*
X123533102Y-127995226D01*
X123733061Y-128035000D01*
X123800001Y-128035000D01*
X123800001Y-136951436D01*
X123794246Y-136922504D01*
X123667228Y-136615853D01*
X123482825Y-136339875D01*
X123248125Y-136105175D01*
X122972147Y-135920772D01*
X122665496Y-135793754D01*
X122339958Y-135729000D01*
X122008042Y-135729000D01*
X121682504Y-135793754D01*
X121375853Y-135920772D01*
X121099875Y-136105175D01*
X120865175Y-136339875D01*
X120680772Y-136615853D01*
X120553754Y-136922504D01*
X120489000Y-137248042D01*
X120489000Y-137579958D01*
X120553754Y-137905496D01*
X120680772Y-138212147D01*
X120865175Y-138488125D01*
X121099875Y-138722825D01*
X121375853Y-138907228D01*
X121682504Y-139034246D01*
X121711431Y-139040000D01*
X95844705Y-139040000D01*
X95889237Y-138956687D01*
X95947705Y-138763944D01*
X95962500Y-138613727D01*
X95962500Y-137738272D01*
X95947705Y-137588055D01*
X95889237Y-137395313D01*
X95794291Y-137217681D01*
X95666515Y-137061985D01*
X95510819Y-136934209D01*
X95333186Y-136839263D01*
X95140444Y-136780795D01*
X94940000Y-136761053D01*
X94739555Y-136780795D01*
X94546813Y-136839263D01*
X94369181Y-136934209D01*
X94213485Y-137061985D01*
X94085709Y-137217681D01*
X93990763Y-137395314D01*
X93932295Y-137588056D01*
X93917500Y-137738273D01*
X93917500Y-138613728D01*
X93932296Y-138763945D01*
X93990764Y-138956687D01*
X94035296Y-139040000D01*
X88844705Y-139040000D01*
X88889237Y-138956687D01*
X88947705Y-138763944D01*
X88962500Y-138613727D01*
X88962500Y-137738272D01*
X88947705Y-137588055D01*
X88889237Y-137395313D01*
X88794291Y-137217681D01*
X88666515Y-137061985D01*
X88510819Y-136934209D01*
X88333186Y-136839263D01*
X88140444Y-136780795D01*
X87940000Y-136761053D01*
X87739555Y-136780795D01*
X87546813Y-136839263D01*
X87369181Y-136934209D01*
X87213485Y-137061985D01*
X87085709Y-137217681D01*
X86990763Y-137395314D01*
X86932295Y-137588056D01*
X86917500Y-137738273D01*
X86917500Y-138613728D01*
X86932296Y-138763945D01*
X86990764Y-138956687D01*
X87035296Y-139040000D01*
X86487000Y-139040000D01*
X86487000Y-135476000D01*
X87650355Y-135476000D01*
X87668890Y-135664193D01*
X87723784Y-135845154D01*
X87812927Y-136011928D01*
X87932893Y-136158107D01*
X88079072Y-136278073D01*
X88245846Y-136367216D01*
X88426807Y-136422110D01*
X88567838Y-136436000D01*
X89312162Y-136436000D01*
X89453193Y-136422110D01*
X89634154Y-136367216D01*
X89800928Y-136278073D01*
X89947107Y-136158107D01*
X90067073Y-136011928D01*
X90156216Y-135845154D01*
X90211110Y-135664193D01*
X90229645Y-135476000D01*
X92650355Y-135476000D01*
X92668890Y-135664193D01*
X92723784Y-135845154D01*
X92812927Y-136011928D01*
X92932893Y-136158107D01*
X93079072Y-136278073D01*
X93245846Y-136367216D01*
X93426807Y-136422110D01*
X93567838Y-136436000D01*
X94312162Y-136436000D01*
X94453193Y-136422110D01*
X94634154Y-136367216D01*
X94800928Y-136278073D01*
X94947107Y-136158107D01*
X95067073Y-136011928D01*
X95156216Y-135845154D01*
X95211110Y-135664193D01*
X95229645Y-135476000D01*
X95211110Y-135287807D01*
X95156216Y-135106846D01*
X95067073Y-134940072D01*
X94947107Y-134793893D01*
X94800928Y-134673927D01*
X94634154Y-134584784D01*
X94453193Y-134529890D01*
X94312162Y-134516000D01*
X93567838Y-134516000D01*
X93426807Y-134529890D01*
X93245846Y-134584784D01*
X93079072Y-134673927D01*
X92932893Y-134793893D01*
X92812927Y-134940072D01*
X92723784Y-135106846D01*
X92668890Y-135287807D01*
X92650355Y-135476000D01*
X90229645Y-135476000D01*
X90211110Y-135287807D01*
X90156216Y-135106846D01*
X90067073Y-134940072D01*
X89947107Y-134793893D01*
X89800928Y-134673927D01*
X89634154Y-134584784D01*
X89453193Y-134529890D01*
X89312162Y-134516000D01*
X88567838Y-134516000D01*
X88426807Y-134529890D01*
X88245846Y-134584784D01*
X88079072Y-134673927D01*
X87932893Y-134793893D01*
X87812927Y-134940072D01*
X87723784Y-135106846D01*
X87668890Y-135287807D01*
X87650355Y-135476000D01*
X86487000Y-135476000D01*
X86487000Y-133248061D01*
X97517000Y-133248061D01*
X97517000Y-133451939D01*
X97556774Y-133651898D01*
X97634795Y-133840256D01*
X97748063Y-134009774D01*
X97792001Y-134053712D01*
X97792000Y-135090677D01*
X97788324Y-135128000D01*
X97792000Y-135165322D01*
X97792000Y-135165332D01*
X97802997Y-135276985D01*
X97846454Y-135420246D01*
X97917026Y-135552276D01*
X97947994Y-135590010D01*
X98011999Y-135668001D01*
X98041003Y-135691804D01*
X98888790Y-136539592D01*
X98845000Y-136759740D01*
X98845000Y-137052260D01*
X98902068Y-137339158D01*
X99014010Y-137609411D01*
X99176525Y-137852632D01*
X99383368Y-138059475D01*
X99626589Y-138221990D01*
X99896842Y-138333932D01*
X100183740Y-138391000D01*
X100476260Y-138391000D01*
X100763158Y-138333932D01*
X101033411Y-138221990D01*
X101276632Y-138059475D01*
X101483475Y-137852632D01*
X101645990Y-137609411D01*
X101757932Y-137339158D01*
X101815000Y-137052260D01*
X101815000Y-136759740D01*
X101757932Y-136472842D01*
X101645990Y-136202589D01*
X101483475Y-135959368D01*
X101351620Y-135827513D01*
X101424180Y-135805502D01*
X101534494Y-135746537D01*
X101631185Y-135667185D01*
X101710537Y-135570494D01*
X101769502Y-135460180D01*
X101805812Y-135340482D01*
X101818072Y-135216000D01*
X101815000Y-134651750D01*
X101656250Y-134493000D01*
X100457000Y-134493000D01*
X100457000Y-134513000D01*
X100203000Y-134513000D01*
X100203000Y-134493000D01*
X100183000Y-134493000D01*
X100183000Y-134239000D01*
X100203000Y-134239000D01*
X100203000Y-133039750D01*
X100457000Y-133039750D01*
X100457000Y-134239000D01*
X101656250Y-134239000D01*
X101815000Y-134080250D01*
X101818072Y-133516000D01*
X101805812Y-133391518D01*
X101769502Y-133271820D01*
X101710537Y-133161506D01*
X101631185Y-133064815D01*
X101534494Y-132985463D01*
X101424180Y-132926498D01*
X101304482Y-132890188D01*
X101180000Y-132877928D01*
X100615750Y-132881000D01*
X100457000Y-133039750D01*
X100203000Y-133039750D01*
X100044250Y-132881000D01*
X99480000Y-132877928D01*
X99476865Y-132878237D01*
X99469205Y-132859744D01*
X99355937Y-132690226D01*
X99211774Y-132546063D01*
X99042256Y-132432795D01*
X98853898Y-132354774D01*
X98653939Y-132315000D01*
X98450061Y-132315000D01*
X98250102Y-132354774D01*
X98061744Y-132432795D01*
X97892226Y-132546063D01*
X97748063Y-132690226D01*
X97634795Y-132859744D01*
X97556774Y-133048102D01*
X97517000Y-133248061D01*
X86487000Y-133248061D01*
X86487000Y-131191000D01*
X92456000Y-131191000D01*
X92480776Y-131188560D01*
X92504601Y-131181333D01*
X92526557Y-131169597D01*
X92545803Y-131153803D01*
X92561597Y-131134557D01*
X92573333Y-131112601D01*
X92580560Y-131088776D01*
X92582998Y-131064794D01*
X92701283Y-112139051D01*
X101327000Y-112139051D01*
X101327000Y-112342929D01*
X101366774Y-112542888D01*
X101444795Y-112731246D01*
X101558063Y-112900764D01*
X101602000Y-112944701D01*
X101602001Y-113088288D01*
X101558063Y-113132226D01*
X101444795Y-113301744D01*
X101366774Y-113490102D01*
X101327000Y-113690061D01*
X101327000Y-113893939D01*
X101366774Y-114093898D01*
X101444795Y-114282256D01*
X101558063Y-114451774D01*
X101702226Y-114595937D01*
X101871744Y-114709205D01*
X102060102Y-114787226D01*
X102260061Y-114827000D01*
X102463939Y-114827000D01*
X102663898Y-114787226D01*
X102852256Y-114709205D01*
X103021774Y-114595937D01*
X103165937Y-114451774D01*
X103279205Y-114282256D01*
X103357226Y-114093898D01*
X103397000Y-113893939D01*
X103397000Y-113690061D01*
X103357226Y-113490102D01*
X103279205Y-113301744D01*
X103165937Y-113132226D01*
X103122000Y-113088289D01*
X103122000Y-112944701D01*
X103165937Y-112900764D01*
X103279205Y-112731246D01*
X103357226Y-112542888D01*
X103397000Y-112342929D01*
X103397000Y-112139051D01*
X103357226Y-111939092D01*
X103279205Y-111750734D01*
X103165937Y-111581216D01*
X103021774Y-111437053D01*
X102852256Y-111323785D01*
X102663898Y-111245764D01*
X102463939Y-111205990D01*
X102260061Y-111205990D01*
X102060102Y-111245764D01*
X101871744Y-111323785D01*
X101702226Y-111437053D01*
X101558063Y-111581216D01*
X101444795Y-111750734D01*
X101366774Y-111939092D01*
X101327000Y-112139051D01*
X92701283Y-112139051D01*
X92801370Y-96125172D01*
X103650199Y-106974001D01*
X103673998Y-107003000D01*
X103789723Y-107097973D01*
X103921752Y-107168545D01*
X104065013Y-107212002D01*
X104176666Y-107222999D01*
X104176674Y-107222999D01*
X104213999Y-107226675D01*
X104251324Y-107222999D01*
X118932198Y-107222999D01*
X120632655Y-108923457D01*
X120618815Y-108934815D01*
X120539463Y-109031506D01*
X120480498Y-109141820D01*
X120444188Y-109261518D01*
X120431928Y-109386000D01*
X120431928Y-109581674D01*
X120395724Y-109601026D01*
X120279999Y-109695999D01*
X120256196Y-109725003D01*
X120044004Y-109937195D01*
X120015000Y-109960998D01*
X119959872Y-110028173D01*
X119920027Y-110076723D01*
X119914526Y-110087015D01*
X119849455Y-110208753D01*
X119805998Y-110352014D01*
X119795001Y-110463667D01*
X119795001Y-110463677D01*
X119791325Y-110500999D01*
X119795001Y-110538322D01*
X119795001Y-111344456D01*
X119526260Y-111291000D01*
X119233740Y-111291000D01*
X118946842Y-111348068D01*
X118676589Y-111460010D01*
X118433368Y-111622525D01*
X118301513Y-111754380D01*
X118279502Y-111681820D01*
X118220537Y-111571506D01*
X118141185Y-111474815D01*
X118044494Y-111395463D01*
X117934180Y-111336498D01*
X117814482Y-111300188D01*
X117690000Y-111287928D01*
X115990000Y-111287928D01*
X115865518Y-111300188D01*
X115745820Y-111336498D01*
X115635506Y-111395463D01*
X115538815Y-111474815D01*
X115459463Y-111571506D01*
X115400498Y-111681820D01*
X115364188Y-111801518D01*
X115351928Y-111926000D01*
X115351928Y-113626000D01*
X115364188Y-113750482D01*
X115400498Y-113870180D01*
X115459463Y-113980494D01*
X115513222Y-114046000D01*
X115459463Y-114111506D01*
X115400498Y-114221820D01*
X115364188Y-114341518D01*
X115351928Y-114466000D01*
X115351928Y-116166000D01*
X115364188Y-116290482D01*
X115400498Y-116410180D01*
X115459463Y-116520494D01*
X115538815Y-116617185D01*
X115635506Y-116696537D01*
X115745820Y-116755502D01*
X115865518Y-116791812D01*
X115990000Y-116804072D01*
X117255001Y-116804072D01*
X117255002Y-118398195D01*
X111466199Y-124187000D01*
X111404061Y-124187000D01*
X111204102Y-124226774D01*
X111015744Y-124304795D01*
X110846226Y-124418063D01*
X110702063Y-124562226D01*
X110588795Y-124731744D01*
X110510774Y-124920102D01*
X110471000Y-125120061D01*
X110471000Y-125323939D01*
X110510774Y-125523898D01*
X110588795Y-125712256D01*
X110702063Y-125881774D01*
X110846226Y-126025937D01*
X111015744Y-126139205D01*
X111204102Y-126217226D01*
X111404061Y-126257000D01*
X111607939Y-126257000D01*
X111807898Y-126217226D01*
X111996256Y-126139205D01*
X112165774Y-126025937D01*
X112309937Y-125881774D01*
X112423205Y-125712256D01*
X112501226Y-125523898D01*
X112541000Y-125323939D01*
X112541000Y-125261801D01*
X114192801Y-123610000D01*
X120431928Y-123610000D01*
X120435000Y-124174250D01*
X120593750Y-124333000D01*
X121793000Y-124333000D01*
X121793000Y-123133750D01*
X122047000Y-123133750D01*
X122047000Y-124333000D01*
X123246250Y-124333000D01*
X123405000Y-124174250D01*
X123408072Y-123610000D01*
X123395812Y-123485518D01*
X123359502Y-123365820D01*
X123300537Y-123255506D01*
X123221185Y-123158815D01*
X123124494Y-123079463D01*
X123014180Y-123020498D01*
X122894482Y-122984188D01*
X122770000Y-122971928D01*
X122205750Y-122975000D01*
X122047000Y-123133750D01*
X121793000Y-123133750D01*
X121634250Y-122975000D01*
X121070000Y-122971928D01*
X120945518Y-122984188D01*
X120825820Y-123020498D01*
X120715506Y-123079463D01*
X120618815Y-123158815D01*
X120539463Y-123255506D01*
X120480498Y-123365820D01*
X120444188Y-123485518D01*
X120431928Y-123610000D01*
X114192801Y-123610000D01*
X118526009Y-119276794D01*
X118555002Y-119253000D01*
X118578796Y-119224007D01*
X118578800Y-119224003D01*
X118649974Y-119137276D01*
X118695995Y-119051178D01*
X118720547Y-119005246D01*
X118764004Y-118861985D01*
X118775001Y-118750332D01*
X118775001Y-118750323D01*
X118778677Y-118713000D01*
X118775001Y-118675677D01*
X118775001Y-118212890D01*
X120478524Y-118212890D01*
X120523175Y-118360099D01*
X120648359Y-118622920D01*
X120822412Y-118856269D01*
X121038645Y-119051178D01*
X121288748Y-119200157D01*
X121563109Y-119297481D01*
X121793000Y-119176814D01*
X121793000Y-117983000D01*
X122047000Y-117983000D01*
X122047000Y-119176814D01*
X122276891Y-119297481D01*
X122551252Y-119200157D01*
X122801355Y-119051178D01*
X123017588Y-118856269D01*
X123191641Y-118622920D01*
X123316825Y-118360099D01*
X123361476Y-118212890D01*
X123240155Y-117983000D01*
X122047000Y-117983000D01*
X121793000Y-117983000D01*
X120599845Y-117983000D01*
X120478524Y-118212890D01*
X118775001Y-118212890D01*
X118775001Y-116672753D01*
X118946842Y-116743932D01*
X119233740Y-116801000D01*
X119526260Y-116801000D01*
X119813158Y-116743932D01*
X120083411Y-116631990D01*
X120326632Y-116469475D01*
X120533475Y-116262632D01*
X120650000Y-116088240D01*
X120766525Y-116262632D01*
X120973368Y-116469475D01*
X121155534Y-116591195D01*
X121038645Y-116660822D01*
X120822412Y-116855731D01*
X120648359Y-117089080D01*
X120523175Y-117351901D01*
X120478524Y-117499110D01*
X120599845Y-117729000D01*
X121793000Y-117729000D01*
X121793000Y-117709000D01*
X122047000Y-117709000D01*
X122047000Y-117729000D01*
X123240155Y-117729000D01*
X123361476Y-117499110D01*
X123316825Y-117351901D01*
X123191641Y-117089080D01*
X123017588Y-116855731D01*
X122801355Y-116660822D01*
X122684466Y-116591195D01*
X122866632Y-116469475D01*
X123073475Y-116262632D01*
X123235990Y-116019411D01*
X123347932Y-115749158D01*
X123405000Y-115462260D01*
X123405000Y-115169740D01*
X123347932Y-114882842D01*
X123235990Y-114612589D01*
X123073475Y-114369368D01*
X122866632Y-114162525D01*
X122692240Y-114046000D01*
X122866632Y-113929475D01*
X123073475Y-113722632D01*
X123235990Y-113479411D01*
X123347932Y-113209158D01*
X123405000Y-112922260D01*
X123405000Y-112629740D01*
X123347932Y-112342842D01*
X123235990Y-112072589D01*
X123073475Y-111829368D01*
X122941620Y-111697513D01*
X123014180Y-111675502D01*
X123124494Y-111616537D01*
X123221185Y-111537185D01*
X123300537Y-111440494D01*
X123359502Y-111330180D01*
X123395812Y-111210482D01*
X123408072Y-111086000D01*
X123408072Y-109386000D01*
X123395812Y-109261518D01*
X123359502Y-109141820D01*
X123300537Y-109031506D01*
X123221185Y-108934815D01*
X123124494Y-108855463D01*
X123014180Y-108796498D01*
X122894482Y-108760188D01*
X122770000Y-108747928D01*
X122574326Y-108747928D01*
X122554974Y-108711724D01*
X122460001Y-108595999D01*
X122431004Y-108572202D01*
X119810803Y-105952002D01*
X119787000Y-105922998D01*
X119671275Y-105828025D01*
X119539246Y-105757453D01*
X119395985Y-105713996D01*
X119284332Y-105702999D01*
X119284321Y-105702999D01*
X119246999Y-105699323D01*
X119209677Y-105702999D01*
X104528801Y-105702999D01*
X98799863Y-99974061D01*
X109709000Y-99974061D01*
X109709000Y-100177939D01*
X109748774Y-100377898D01*
X109826795Y-100566256D01*
X109940063Y-100735774D01*
X109984001Y-100779712D01*
X109984000Y-102928289D01*
X109940063Y-102972226D01*
X109826795Y-103141744D01*
X109748774Y-103330102D01*
X109709000Y-103530061D01*
X109709000Y-103733939D01*
X109748774Y-103933898D01*
X109826795Y-104122256D01*
X109940063Y-104291774D01*
X110084226Y-104435937D01*
X110253744Y-104549205D01*
X110442102Y-104627226D01*
X110642061Y-104667000D01*
X110845939Y-104667000D01*
X111045898Y-104627226D01*
X111234256Y-104549205D01*
X111403774Y-104435937D01*
X111506000Y-104333711D01*
X111608226Y-104435937D01*
X111777744Y-104549205D01*
X111966102Y-104627226D01*
X112166061Y-104667000D01*
X112369939Y-104667000D01*
X112569898Y-104627226D01*
X112758256Y-104549205D01*
X112927774Y-104435937D01*
X113071937Y-104291774D01*
X113185205Y-104122256D01*
X113263226Y-103933898D01*
X113303000Y-103733939D01*
X113303000Y-103530061D01*
X113263226Y-103330102D01*
X113185205Y-103141744D01*
X113071937Y-102972226D01*
X113028000Y-102928289D01*
X113028000Y-102553712D01*
X113071937Y-102509775D01*
X113185205Y-102340257D01*
X113263226Y-102151899D01*
X113303000Y-101951940D01*
X113303000Y-101748062D01*
X113263226Y-101548103D01*
X113185205Y-101359745D01*
X113071937Y-101190227D01*
X112927774Y-101046064D01*
X112758256Y-100932796D01*
X112569898Y-100854775D01*
X112369939Y-100815001D01*
X112166061Y-100815001D01*
X111966102Y-100854775D01*
X111777744Y-100932796D01*
X111608226Y-101046064D01*
X111504000Y-101150290D01*
X111504000Y-100779711D01*
X111547937Y-100735774D01*
X111661205Y-100566256D01*
X111739226Y-100377898D01*
X111779000Y-100177939D01*
X111779000Y-99974061D01*
X111739226Y-99774102D01*
X111661205Y-99585744D01*
X111547937Y-99416226D01*
X111403774Y-99272063D01*
X111234256Y-99158795D01*
X111045898Y-99080774D01*
X110845939Y-99041000D01*
X110642061Y-99041000D01*
X110442102Y-99080774D01*
X110253744Y-99158795D01*
X110084226Y-99272063D01*
X109940063Y-99416226D01*
X109826795Y-99585744D01*
X109748774Y-99774102D01*
X109709000Y-99974061D01*
X98799863Y-99974061D01*
X94495802Y-95670000D01*
X120431928Y-95670000D01*
X120431928Y-97370000D01*
X120444188Y-97494482D01*
X120480498Y-97614180D01*
X120539463Y-97724494D01*
X120618815Y-97821185D01*
X120715506Y-97900537D01*
X120825820Y-97959502D01*
X120898380Y-97981513D01*
X120766525Y-98113368D01*
X120604010Y-98356589D01*
X120492068Y-98626842D01*
X120435000Y-98913740D01*
X120435000Y-99206260D01*
X120492068Y-99493158D01*
X120604010Y-99763411D01*
X120766525Y-100006632D01*
X120973368Y-100213475D01*
X121216589Y-100375990D01*
X121486842Y-100487932D01*
X121773740Y-100545000D01*
X122066260Y-100545000D01*
X122353158Y-100487932D01*
X122623411Y-100375990D01*
X122866632Y-100213475D01*
X123073475Y-100006632D01*
X123235990Y-99763411D01*
X123347932Y-99493158D01*
X123405000Y-99206260D01*
X123405000Y-98913740D01*
X123347932Y-98626842D01*
X123235990Y-98356589D01*
X123073475Y-98113368D01*
X122941620Y-97981513D01*
X123014180Y-97959502D01*
X123124494Y-97900537D01*
X123221185Y-97821185D01*
X123300537Y-97724494D01*
X123359502Y-97614180D01*
X123395812Y-97494482D01*
X123408072Y-97370000D01*
X123408072Y-95670000D01*
X123395812Y-95545518D01*
X123359502Y-95425820D01*
X123300537Y-95315506D01*
X123221185Y-95218815D01*
X123124494Y-95139463D01*
X123014180Y-95080498D01*
X122894482Y-95044188D01*
X122770000Y-95031928D01*
X121070000Y-95031928D01*
X120945518Y-95044188D01*
X120825820Y-95080498D01*
X120715506Y-95139463D01*
X120618815Y-95218815D01*
X120539463Y-95315506D01*
X120480498Y-95425820D01*
X120444188Y-95545518D01*
X120431928Y-95670000D01*
X94495802Y-95670000D01*
X92814722Y-93988921D01*
X92836209Y-90551000D01*
X123800000Y-90551000D01*
X123800001Y-125965000D01*
G37*
X123800001Y-125965000D02*
X123733061Y-125965000D01*
X123533102Y-126004774D01*
X123344744Y-126082795D01*
X123175226Y-126196063D01*
X123171386Y-126199903D01*
X123073475Y-126053368D01*
X122941620Y-125921513D01*
X123014180Y-125899502D01*
X123124494Y-125840537D01*
X123221185Y-125761185D01*
X123300537Y-125664494D01*
X123359502Y-125554180D01*
X123395812Y-125434482D01*
X123408072Y-125310000D01*
X123405000Y-124745750D01*
X123246250Y-124587000D01*
X122047000Y-124587000D01*
X122047000Y-124607000D01*
X121793000Y-124607000D01*
X121793000Y-124587000D01*
X120593750Y-124587000D01*
X120435000Y-124745750D01*
X120431928Y-125310000D01*
X120444188Y-125434482D01*
X120480498Y-125554180D01*
X120539463Y-125664494D01*
X120618815Y-125761185D01*
X120715506Y-125840537D01*
X120825820Y-125899502D01*
X120898380Y-125921513D01*
X120766525Y-126053368D01*
X120604010Y-126296589D01*
X120492068Y-126566842D01*
X120435000Y-126853740D01*
X120435000Y-127146260D01*
X120492068Y-127433158D01*
X120604010Y-127703411D01*
X120766525Y-127946632D01*
X120973368Y-128153475D01*
X121147760Y-128270000D01*
X120973368Y-128386525D01*
X120766525Y-128593368D01*
X120604010Y-128836589D01*
X120492068Y-129106842D01*
X120435000Y-129393740D01*
X120435000Y-129686260D01*
X120492068Y-129973158D01*
X120604010Y-130243411D01*
X120766525Y-130486632D01*
X120973368Y-130693475D01*
X121147760Y-130810000D01*
X120973368Y-130926525D01*
X120766525Y-131133368D01*
X120604010Y-131376589D01*
X120492068Y-131646842D01*
X120435000Y-131933740D01*
X120435000Y-132226260D01*
X120492068Y-132513158D01*
X120604010Y-132783411D01*
X120766525Y-133026632D01*
X120973368Y-133233475D01*
X121216589Y-133395990D01*
X121486842Y-133507932D01*
X121773740Y-133565000D01*
X122066260Y-133565000D01*
X122353158Y-133507932D01*
X122623411Y-133395990D01*
X122866632Y-133233475D01*
X123073475Y-133026632D01*
X123235990Y-132783411D01*
X123347932Y-132513158D01*
X123405000Y-132226260D01*
X123405000Y-131933740D01*
X123347932Y-131646842D01*
X123235990Y-131376589D01*
X123073475Y-131133368D01*
X122866632Y-130926525D01*
X122692240Y-130810000D01*
X122866632Y-130693475D01*
X123073475Y-130486632D01*
X123235990Y-130243411D01*
X123347932Y-129973158D01*
X123405000Y-129686260D01*
X123405000Y-129393740D01*
X123347932Y-129106842D01*
X123235990Y-128836589D01*
X123073475Y-128593368D01*
X122866632Y-128386525D01*
X122692240Y-128270000D01*
X122866632Y-128153475D01*
X123073475Y-127946632D01*
X123171386Y-127800097D01*
X123175226Y-127803937D01*
X123344744Y-127917205D01*
X123533102Y-127995226D01*
X123733061Y-128035000D01*
X123800001Y-128035000D01*
X123800001Y-136951436D01*
X123794246Y-136922504D01*
X123667228Y-136615853D01*
X123482825Y-136339875D01*
X123248125Y-136105175D01*
X122972147Y-135920772D01*
X122665496Y-135793754D01*
X122339958Y-135729000D01*
X122008042Y-135729000D01*
X121682504Y-135793754D01*
X121375853Y-135920772D01*
X121099875Y-136105175D01*
X120865175Y-136339875D01*
X120680772Y-136615853D01*
X120553754Y-136922504D01*
X120489000Y-137248042D01*
X120489000Y-137579958D01*
X120553754Y-137905496D01*
X120680772Y-138212147D01*
X120865175Y-138488125D01*
X121099875Y-138722825D01*
X121375853Y-138907228D01*
X121682504Y-139034246D01*
X121711431Y-139040000D01*
X95844705Y-139040000D01*
X95889237Y-138956687D01*
X95947705Y-138763944D01*
X95962500Y-138613727D01*
X95962500Y-137738272D01*
X95947705Y-137588055D01*
X95889237Y-137395313D01*
X95794291Y-137217681D01*
X95666515Y-137061985D01*
X95510819Y-136934209D01*
X95333186Y-136839263D01*
X95140444Y-136780795D01*
X94940000Y-136761053D01*
X94739555Y-136780795D01*
X94546813Y-136839263D01*
X94369181Y-136934209D01*
X94213485Y-137061985D01*
X94085709Y-137217681D01*
X93990763Y-137395314D01*
X93932295Y-137588056D01*
X93917500Y-137738273D01*
X93917500Y-138613728D01*
X93932296Y-138763945D01*
X93990764Y-138956687D01*
X94035296Y-139040000D01*
X88844705Y-139040000D01*
X88889237Y-138956687D01*
X88947705Y-138763944D01*
X88962500Y-138613727D01*
X88962500Y-137738272D01*
X88947705Y-137588055D01*
X88889237Y-137395313D01*
X88794291Y-137217681D01*
X88666515Y-137061985D01*
X88510819Y-136934209D01*
X88333186Y-136839263D01*
X88140444Y-136780795D01*
X87940000Y-136761053D01*
X87739555Y-136780795D01*
X87546813Y-136839263D01*
X87369181Y-136934209D01*
X87213485Y-137061985D01*
X87085709Y-137217681D01*
X86990763Y-137395314D01*
X86932295Y-137588056D01*
X86917500Y-137738273D01*
X86917500Y-138613728D01*
X86932296Y-138763945D01*
X86990764Y-138956687D01*
X87035296Y-139040000D01*
X86487000Y-139040000D01*
X86487000Y-135476000D01*
X87650355Y-135476000D01*
X87668890Y-135664193D01*
X87723784Y-135845154D01*
X87812927Y-136011928D01*
X87932893Y-136158107D01*
X88079072Y-136278073D01*
X88245846Y-136367216D01*
X88426807Y-136422110D01*
X88567838Y-136436000D01*
X89312162Y-136436000D01*
X89453193Y-136422110D01*
X89634154Y-136367216D01*
X89800928Y-136278073D01*
X89947107Y-136158107D01*
X90067073Y-136011928D01*
X90156216Y-135845154D01*
X90211110Y-135664193D01*
X90229645Y-135476000D01*
X92650355Y-135476000D01*
X92668890Y-135664193D01*
X92723784Y-135845154D01*
X92812927Y-136011928D01*
X92932893Y-136158107D01*
X93079072Y-136278073D01*
X93245846Y-136367216D01*
X93426807Y-136422110D01*
X93567838Y-136436000D01*
X94312162Y-136436000D01*
X94453193Y-136422110D01*
X94634154Y-136367216D01*
X94800928Y-136278073D01*
X94947107Y-136158107D01*
X95067073Y-136011928D01*
X95156216Y-135845154D01*
X95211110Y-135664193D01*
X95229645Y-135476000D01*
X95211110Y-135287807D01*
X95156216Y-135106846D01*
X95067073Y-134940072D01*
X94947107Y-134793893D01*
X94800928Y-134673927D01*
X94634154Y-134584784D01*
X94453193Y-134529890D01*
X94312162Y-134516000D01*
X93567838Y-134516000D01*
X93426807Y-134529890D01*
X93245846Y-134584784D01*
X93079072Y-134673927D01*
X92932893Y-134793893D01*
X92812927Y-134940072D01*
X92723784Y-135106846D01*
X92668890Y-135287807D01*
X92650355Y-135476000D01*
X90229645Y-135476000D01*
X90211110Y-135287807D01*
X90156216Y-135106846D01*
X90067073Y-134940072D01*
X89947107Y-134793893D01*
X89800928Y-134673927D01*
X89634154Y-134584784D01*
X89453193Y-134529890D01*
X89312162Y-134516000D01*
X88567838Y-134516000D01*
X88426807Y-134529890D01*
X88245846Y-134584784D01*
X88079072Y-134673927D01*
X87932893Y-134793893D01*
X87812927Y-134940072D01*
X87723784Y-135106846D01*
X87668890Y-135287807D01*
X87650355Y-135476000D01*
X86487000Y-135476000D01*
X86487000Y-133248061D01*
X97517000Y-133248061D01*
X97517000Y-133451939D01*
X97556774Y-133651898D01*
X97634795Y-133840256D01*
X97748063Y-134009774D01*
X97792001Y-134053712D01*
X97792000Y-135090677D01*
X97788324Y-135128000D01*
X97792000Y-135165322D01*
X97792000Y-135165332D01*
X97802997Y-135276985D01*
X97846454Y-135420246D01*
X97917026Y-135552276D01*
X97947994Y-135590010D01*
X98011999Y-135668001D01*
X98041003Y-135691804D01*
X98888790Y-136539592D01*
X98845000Y-136759740D01*
X98845000Y-137052260D01*
X98902068Y-137339158D01*
X99014010Y-137609411D01*
X99176525Y-137852632D01*
X99383368Y-138059475D01*
X99626589Y-138221990D01*
X99896842Y-138333932D01*
X100183740Y-138391000D01*
X100476260Y-138391000D01*
X100763158Y-138333932D01*
X101033411Y-138221990D01*
X101276632Y-138059475D01*
X101483475Y-137852632D01*
X101645990Y-137609411D01*
X101757932Y-137339158D01*
X101815000Y-137052260D01*
X101815000Y-136759740D01*
X101757932Y-136472842D01*
X101645990Y-136202589D01*
X101483475Y-135959368D01*
X101351620Y-135827513D01*
X101424180Y-135805502D01*
X101534494Y-135746537D01*
X101631185Y-135667185D01*
X101710537Y-135570494D01*
X101769502Y-135460180D01*
X101805812Y-135340482D01*
X101818072Y-135216000D01*
X101815000Y-134651750D01*
X101656250Y-134493000D01*
X100457000Y-134493000D01*
X100457000Y-134513000D01*
X100203000Y-134513000D01*
X100203000Y-134493000D01*
X100183000Y-134493000D01*
X100183000Y-134239000D01*
X100203000Y-134239000D01*
X100203000Y-133039750D01*
X100457000Y-133039750D01*
X100457000Y-134239000D01*
X101656250Y-134239000D01*
X101815000Y-134080250D01*
X101818072Y-133516000D01*
X101805812Y-133391518D01*
X101769502Y-133271820D01*
X101710537Y-133161506D01*
X101631185Y-133064815D01*
X101534494Y-132985463D01*
X101424180Y-132926498D01*
X101304482Y-132890188D01*
X101180000Y-132877928D01*
X100615750Y-132881000D01*
X100457000Y-133039750D01*
X100203000Y-133039750D01*
X100044250Y-132881000D01*
X99480000Y-132877928D01*
X99476865Y-132878237D01*
X99469205Y-132859744D01*
X99355937Y-132690226D01*
X99211774Y-132546063D01*
X99042256Y-132432795D01*
X98853898Y-132354774D01*
X98653939Y-132315000D01*
X98450061Y-132315000D01*
X98250102Y-132354774D01*
X98061744Y-132432795D01*
X97892226Y-132546063D01*
X97748063Y-132690226D01*
X97634795Y-132859744D01*
X97556774Y-133048102D01*
X97517000Y-133248061D01*
X86487000Y-133248061D01*
X86487000Y-131191000D01*
X92456000Y-131191000D01*
X92480776Y-131188560D01*
X92504601Y-131181333D01*
X92526557Y-131169597D01*
X92545803Y-131153803D01*
X92561597Y-131134557D01*
X92573333Y-131112601D01*
X92580560Y-131088776D01*
X92582998Y-131064794D01*
X92701283Y-112139051D01*
X101327000Y-112139051D01*
X101327000Y-112342929D01*
X101366774Y-112542888D01*
X101444795Y-112731246D01*
X101558063Y-112900764D01*
X101602000Y-112944701D01*
X101602001Y-113088288D01*
X101558063Y-113132226D01*
X101444795Y-113301744D01*
X101366774Y-113490102D01*
X101327000Y-113690061D01*
X101327000Y-113893939D01*
X101366774Y-114093898D01*
X101444795Y-114282256D01*
X101558063Y-114451774D01*
X101702226Y-114595937D01*
X101871744Y-114709205D01*
X102060102Y-114787226D01*
X102260061Y-114827000D01*
X102463939Y-114827000D01*
X102663898Y-114787226D01*
X102852256Y-114709205D01*
X103021774Y-114595937D01*
X103165937Y-114451774D01*
X103279205Y-114282256D01*
X103357226Y-114093898D01*
X103397000Y-113893939D01*
X103397000Y-113690061D01*
X103357226Y-113490102D01*
X103279205Y-113301744D01*
X103165937Y-113132226D01*
X103122000Y-113088289D01*
X103122000Y-112944701D01*
X103165937Y-112900764D01*
X103279205Y-112731246D01*
X103357226Y-112542888D01*
X103397000Y-112342929D01*
X103397000Y-112139051D01*
X103357226Y-111939092D01*
X103279205Y-111750734D01*
X103165937Y-111581216D01*
X103021774Y-111437053D01*
X102852256Y-111323785D01*
X102663898Y-111245764D01*
X102463939Y-111205990D01*
X102260061Y-111205990D01*
X102060102Y-111245764D01*
X101871744Y-111323785D01*
X101702226Y-111437053D01*
X101558063Y-111581216D01*
X101444795Y-111750734D01*
X101366774Y-111939092D01*
X101327000Y-112139051D01*
X92701283Y-112139051D01*
X92801370Y-96125172D01*
X103650199Y-106974001D01*
X103673998Y-107003000D01*
X103789723Y-107097973D01*
X103921752Y-107168545D01*
X104065013Y-107212002D01*
X104176666Y-107222999D01*
X104176674Y-107222999D01*
X104213999Y-107226675D01*
X104251324Y-107222999D01*
X118932198Y-107222999D01*
X120632655Y-108923457D01*
X120618815Y-108934815D01*
X120539463Y-109031506D01*
X120480498Y-109141820D01*
X120444188Y-109261518D01*
X120431928Y-109386000D01*
X120431928Y-109581674D01*
X120395724Y-109601026D01*
X120279999Y-109695999D01*
X120256196Y-109725003D01*
X120044004Y-109937195D01*
X120015000Y-109960998D01*
X119959872Y-110028173D01*
X119920027Y-110076723D01*
X119914526Y-110087015D01*
X119849455Y-110208753D01*
X119805998Y-110352014D01*
X119795001Y-110463667D01*
X119795001Y-110463677D01*
X119791325Y-110500999D01*
X119795001Y-110538322D01*
X119795001Y-111344456D01*
X119526260Y-111291000D01*
X119233740Y-111291000D01*
X118946842Y-111348068D01*
X118676589Y-111460010D01*
X118433368Y-111622525D01*
X118301513Y-111754380D01*
X118279502Y-111681820D01*
X118220537Y-111571506D01*
X118141185Y-111474815D01*
X118044494Y-111395463D01*
X117934180Y-111336498D01*
X117814482Y-111300188D01*
X117690000Y-111287928D01*
X115990000Y-111287928D01*
X115865518Y-111300188D01*
X115745820Y-111336498D01*
X115635506Y-111395463D01*
X115538815Y-111474815D01*
X115459463Y-111571506D01*
X115400498Y-111681820D01*
X115364188Y-111801518D01*
X115351928Y-111926000D01*
X115351928Y-113626000D01*
X115364188Y-113750482D01*
X115400498Y-113870180D01*
X115459463Y-113980494D01*
X115513222Y-114046000D01*
X115459463Y-114111506D01*
X115400498Y-114221820D01*
X115364188Y-114341518D01*
X115351928Y-114466000D01*
X115351928Y-116166000D01*
X115364188Y-116290482D01*
X115400498Y-116410180D01*
X115459463Y-116520494D01*
X115538815Y-116617185D01*
X115635506Y-116696537D01*
X115745820Y-116755502D01*
X115865518Y-116791812D01*
X115990000Y-116804072D01*
X117255001Y-116804072D01*
X117255002Y-118398195D01*
X111466199Y-124187000D01*
X111404061Y-124187000D01*
X111204102Y-124226774D01*
X111015744Y-124304795D01*
X110846226Y-124418063D01*
X110702063Y-124562226D01*
X110588795Y-124731744D01*
X110510774Y-124920102D01*
X110471000Y-125120061D01*
X110471000Y-125323939D01*
X110510774Y-125523898D01*
X110588795Y-125712256D01*
X110702063Y-125881774D01*
X110846226Y-126025937D01*
X111015744Y-126139205D01*
X111204102Y-126217226D01*
X111404061Y-126257000D01*
X111607939Y-126257000D01*
X111807898Y-126217226D01*
X111996256Y-126139205D01*
X112165774Y-126025937D01*
X112309937Y-125881774D01*
X112423205Y-125712256D01*
X112501226Y-125523898D01*
X112541000Y-125323939D01*
X112541000Y-125261801D01*
X114192801Y-123610000D01*
X120431928Y-123610000D01*
X120435000Y-124174250D01*
X120593750Y-124333000D01*
X121793000Y-124333000D01*
X121793000Y-123133750D01*
X122047000Y-123133750D01*
X122047000Y-124333000D01*
X123246250Y-124333000D01*
X123405000Y-124174250D01*
X123408072Y-123610000D01*
X123395812Y-123485518D01*
X123359502Y-123365820D01*
X123300537Y-123255506D01*
X123221185Y-123158815D01*
X123124494Y-123079463D01*
X123014180Y-123020498D01*
X122894482Y-122984188D01*
X122770000Y-122971928D01*
X122205750Y-122975000D01*
X122047000Y-123133750D01*
X121793000Y-123133750D01*
X121634250Y-122975000D01*
X121070000Y-122971928D01*
X120945518Y-122984188D01*
X120825820Y-123020498D01*
X120715506Y-123079463D01*
X120618815Y-123158815D01*
X120539463Y-123255506D01*
X120480498Y-123365820D01*
X120444188Y-123485518D01*
X120431928Y-123610000D01*
X114192801Y-123610000D01*
X118526009Y-119276794D01*
X118555002Y-119253000D01*
X118578796Y-119224007D01*
X118578800Y-119224003D01*
X118649974Y-119137276D01*
X118695995Y-119051178D01*
X118720547Y-119005246D01*
X118764004Y-118861985D01*
X118775001Y-118750332D01*
X118775001Y-118750323D01*
X118778677Y-118713000D01*
X118775001Y-118675677D01*
X118775001Y-118212890D01*
X120478524Y-118212890D01*
X120523175Y-118360099D01*
X120648359Y-118622920D01*
X120822412Y-118856269D01*
X121038645Y-119051178D01*
X121288748Y-119200157D01*
X121563109Y-119297481D01*
X121793000Y-119176814D01*
X121793000Y-117983000D01*
X122047000Y-117983000D01*
X122047000Y-119176814D01*
X122276891Y-119297481D01*
X122551252Y-119200157D01*
X122801355Y-119051178D01*
X123017588Y-118856269D01*
X123191641Y-118622920D01*
X123316825Y-118360099D01*
X123361476Y-118212890D01*
X123240155Y-117983000D01*
X122047000Y-117983000D01*
X121793000Y-117983000D01*
X120599845Y-117983000D01*
X120478524Y-118212890D01*
X118775001Y-118212890D01*
X118775001Y-116672753D01*
X118946842Y-116743932D01*
X119233740Y-116801000D01*
X119526260Y-116801000D01*
X119813158Y-116743932D01*
X120083411Y-116631990D01*
X120326632Y-116469475D01*
X120533475Y-116262632D01*
X120650000Y-116088240D01*
X120766525Y-116262632D01*
X120973368Y-116469475D01*
X121155534Y-116591195D01*
X121038645Y-116660822D01*
X120822412Y-116855731D01*
X120648359Y-117089080D01*
X120523175Y-117351901D01*
X120478524Y-117499110D01*
X120599845Y-117729000D01*
X121793000Y-117729000D01*
X121793000Y-117709000D01*
X122047000Y-117709000D01*
X122047000Y-117729000D01*
X123240155Y-117729000D01*
X123361476Y-117499110D01*
X123316825Y-117351901D01*
X123191641Y-117089080D01*
X123017588Y-116855731D01*
X122801355Y-116660822D01*
X122684466Y-116591195D01*
X122866632Y-116469475D01*
X123073475Y-116262632D01*
X123235990Y-116019411D01*
X123347932Y-115749158D01*
X123405000Y-115462260D01*
X123405000Y-115169740D01*
X123347932Y-114882842D01*
X123235990Y-114612589D01*
X123073475Y-114369368D01*
X122866632Y-114162525D01*
X122692240Y-114046000D01*
X122866632Y-113929475D01*
X123073475Y-113722632D01*
X123235990Y-113479411D01*
X123347932Y-113209158D01*
X123405000Y-112922260D01*
X123405000Y-112629740D01*
X123347932Y-112342842D01*
X123235990Y-112072589D01*
X123073475Y-111829368D01*
X122941620Y-111697513D01*
X123014180Y-111675502D01*
X123124494Y-111616537D01*
X123221185Y-111537185D01*
X123300537Y-111440494D01*
X123359502Y-111330180D01*
X123395812Y-111210482D01*
X123408072Y-111086000D01*
X123408072Y-109386000D01*
X123395812Y-109261518D01*
X123359502Y-109141820D01*
X123300537Y-109031506D01*
X123221185Y-108934815D01*
X123124494Y-108855463D01*
X123014180Y-108796498D01*
X122894482Y-108760188D01*
X122770000Y-108747928D01*
X122574326Y-108747928D01*
X122554974Y-108711724D01*
X122460001Y-108595999D01*
X122431004Y-108572202D01*
X119810803Y-105952002D01*
X119787000Y-105922998D01*
X119671275Y-105828025D01*
X119539246Y-105757453D01*
X119395985Y-105713996D01*
X119284332Y-105702999D01*
X119284321Y-105702999D01*
X119246999Y-105699323D01*
X119209677Y-105702999D01*
X104528801Y-105702999D01*
X98799863Y-99974061D01*
X109709000Y-99974061D01*
X109709000Y-100177939D01*
X109748774Y-100377898D01*
X109826795Y-100566256D01*
X109940063Y-100735774D01*
X109984001Y-100779712D01*
X109984000Y-102928289D01*
X109940063Y-102972226D01*
X109826795Y-103141744D01*
X109748774Y-103330102D01*
X109709000Y-103530061D01*
X109709000Y-103733939D01*
X109748774Y-103933898D01*
X109826795Y-104122256D01*
X109940063Y-104291774D01*
X110084226Y-104435937D01*
X110253744Y-104549205D01*
X110442102Y-104627226D01*
X110642061Y-104667000D01*
X110845939Y-104667000D01*
X111045898Y-104627226D01*
X111234256Y-104549205D01*
X111403774Y-104435937D01*
X111506000Y-104333711D01*
X111608226Y-104435937D01*
X111777744Y-104549205D01*
X111966102Y-104627226D01*
X112166061Y-104667000D01*
X112369939Y-104667000D01*
X112569898Y-104627226D01*
X112758256Y-104549205D01*
X112927774Y-104435937D01*
X113071937Y-104291774D01*
X113185205Y-104122256D01*
X113263226Y-103933898D01*
X113303000Y-103733939D01*
X113303000Y-103530061D01*
X113263226Y-103330102D01*
X113185205Y-103141744D01*
X113071937Y-102972226D01*
X113028000Y-102928289D01*
X113028000Y-102553712D01*
X113071937Y-102509775D01*
X113185205Y-102340257D01*
X113263226Y-102151899D01*
X113303000Y-101951940D01*
X113303000Y-101748062D01*
X113263226Y-101548103D01*
X113185205Y-101359745D01*
X113071937Y-101190227D01*
X112927774Y-101046064D01*
X112758256Y-100932796D01*
X112569898Y-100854775D01*
X112369939Y-100815001D01*
X112166061Y-100815001D01*
X111966102Y-100854775D01*
X111777744Y-100932796D01*
X111608226Y-101046064D01*
X111504000Y-101150290D01*
X111504000Y-100779711D01*
X111547937Y-100735774D01*
X111661205Y-100566256D01*
X111739226Y-100377898D01*
X111779000Y-100177939D01*
X111779000Y-99974061D01*
X111739226Y-99774102D01*
X111661205Y-99585744D01*
X111547937Y-99416226D01*
X111403774Y-99272063D01*
X111234256Y-99158795D01*
X111045898Y-99080774D01*
X110845939Y-99041000D01*
X110642061Y-99041000D01*
X110442102Y-99080774D01*
X110253744Y-99158795D01*
X110084226Y-99272063D01*
X109940063Y-99416226D01*
X109826795Y-99585744D01*
X109748774Y-99774102D01*
X109709000Y-99974061D01*
X98799863Y-99974061D01*
X94495802Y-95670000D01*
X120431928Y-95670000D01*
X120431928Y-97370000D01*
X120444188Y-97494482D01*
X120480498Y-97614180D01*
X120539463Y-97724494D01*
X120618815Y-97821185D01*
X120715506Y-97900537D01*
X120825820Y-97959502D01*
X120898380Y-97981513D01*
X120766525Y-98113368D01*
X120604010Y-98356589D01*
X120492068Y-98626842D01*
X120435000Y-98913740D01*
X120435000Y-99206260D01*
X120492068Y-99493158D01*
X120604010Y-99763411D01*
X120766525Y-100006632D01*
X120973368Y-100213475D01*
X121216589Y-100375990D01*
X121486842Y-100487932D01*
X121773740Y-100545000D01*
X122066260Y-100545000D01*
X122353158Y-100487932D01*
X122623411Y-100375990D01*
X122866632Y-100213475D01*
X123073475Y-100006632D01*
X123235990Y-99763411D01*
X123347932Y-99493158D01*
X123405000Y-99206260D01*
X123405000Y-98913740D01*
X123347932Y-98626842D01*
X123235990Y-98356589D01*
X123073475Y-98113368D01*
X122941620Y-97981513D01*
X123014180Y-97959502D01*
X123124494Y-97900537D01*
X123221185Y-97821185D01*
X123300537Y-97724494D01*
X123359502Y-97614180D01*
X123395812Y-97494482D01*
X123408072Y-97370000D01*
X123408072Y-95670000D01*
X123395812Y-95545518D01*
X123359502Y-95425820D01*
X123300537Y-95315506D01*
X123221185Y-95218815D01*
X123124494Y-95139463D01*
X123014180Y-95080498D01*
X122894482Y-95044188D01*
X122770000Y-95031928D01*
X121070000Y-95031928D01*
X120945518Y-95044188D01*
X120825820Y-95080498D01*
X120715506Y-95139463D01*
X120618815Y-95218815D01*
X120539463Y-95315506D01*
X120480498Y-95425820D01*
X120444188Y-95545518D01*
X120431928Y-95670000D01*
X94495802Y-95670000D01*
X92814722Y-93988921D01*
X92836209Y-90551000D01*
X123800000Y-90551000D01*
X123800001Y-125965000D01*
%TD*%
M02*
