%TF.GenerationSoftware,KiCad,Pcbnew,(5.1.6)-1*%
%TF.CreationDate,2021-01-28T12:38:02+01:00*%
%TF.ProjectId,ebus,65627573-2e6b-4696-9361-645f70636258,rev?*%
%TF.SameCoordinates,Original*%
%TF.FileFunction,Soldermask,Bot*%
%TF.FilePolarity,Negative*%
%FSLAX46Y46*%
G04 Gerber Fmt 4.6, Leading zero omitted, Abs format (unit mm)*
G04 Created by KiCad (PCBNEW (5.1.6)-1) date 2021-01-28 12:38:02*
%MOMM*%
%LPD*%
G01*
G04 APERTURE LIST*
%ADD10C,3.300000*%
%ADD11O,1.700000X1.700000*%
%ADD12R,1.700000X1.700000*%
%ADD13C,1.700000*%
%ADD14O,2.005000X2.100000*%
%ADD15R,2.005000X2.100000*%
%ADD16O,3.600000X3.600000*%
%ADD17R,1.600000X1.150000*%
%ADD18O,1.600000X1.150000*%
%ADD19O,1.800000X1.800000*%
%ADD20R,1.800000X1.800000*%
%ADD21O,0.900000X0.900000*%
%ADD22O,1.250000X1.900000*%
%ADD23O,1.550000X2.100000*%
%ADD24C,2.500000*%
%ADD25R,2.500000X2.500000*%
%ADD26C,1.900000*%
%ADD27R,1.900000X1.900000*%
%ADD28O,2.300000X2.300000*%
%ADD29R,2.300000X2.300000*%
G04 APERTURE END LIST*
D10*
%TO.C,REF\u002A\u002A*%
X121412000Y-136652000D03*
%TD*%
%TO.C,REF\u002A\u002A*%
X121412000Y-85852000D03*
%TD*%
%TO.C,REF\u002A\u002A*%
X43180000Y-136652000D03*
%TD*%
%TO.C,REF\u002A\u002A*%
X43180000Y-85852000D03*
%TD*%
D11*
%TO.C,D7*%
X53340000Y-111760000D03*
D12*
X53340000Y-119380000D03*
%TD*%
D13*
%TO.C,C6*%
X53340000Y-107910000D03*
X53340000Y-105410000D03*
%TD*%
D11*
%TO.C,U4*%
X82550000Y-118110000D03*
X90170000Y-113030000D03*
X82550000Y-115570000D03*
X90170000Y-115570000D03*
X82550000Y-113030000D03*
D12*
X90170000Y-118110000D03*
%TD*%
D14*
%TO.C,U3*%
X43180000Y-113792000D03*
X45720000Y-113792000D03*
D15*
X48260000Y-113792000D03*
D16*
X45720000Y-130452000D03*
%TD*%
D11*
%TO.C,U2*%
X71120000Y-137160000D03*
X78740000Y-132080000D03*
X71120000Y-134620000D03*
X78740000Y-134620000D03*
X71120000Y-132080000D03*
D12*
X78740000Y-137160000D03*
%TD*%
D11*
%TO.C,U1*%
X90170000Y-99060000D03*
X82550000Y-106680000D03*
X90170000Y-101600000D03*
X82550000Y-104140000D03*
X90170000Y-104140000D03*
X82550000Y-101600000D03*
X90170000Y-106680000D03*
D12*
X82550000Y-99060000D03*
%TD*%
D11*
%TO.C,R19*%
X83820000Y-92710000D03*
D13*
X83820000Y-85090000D03*
%TD*%
D11*
%TO.C,R17*%
X53340000Y-92710000D03*
D13*
X53340000Y-85090000D03*
%TD*%
D11*
%TO.C,R16*%
X73660000Y-92710000D03*
D13*
X73660000Y-85090000D03*
%TD*%
D11*
%TO.C,R15*%
X69850000Y-119380000D03*
D13*
X77470000Y-119380000D03*
%TD*%
D11*
%TO.C,R14*%
X69850000Y-114300000D03*
D13*
X77470000Y-114300000D03*
%TD*%
D11*
%TO.C,R13*%
X82550000Y-124460000D03*
D13*
X90170000Y-124460000D03*
%TD*%
D11*
%TO.C,R12*%
X69850000Y-124460000D03*
D13*
X77470000Y-124460000D03*
%TD*%
D11*
%TO.C,R11*%
X57150000Y-109220000D03*
D13*
X64770000Y-109220000D03*
%TD*%
D11*
%TO.C,R10*%
X77470000Y-109220000D03*
D13*
X69850000Y-109220000D03*
%TD*%
D11*
%TO.C,R9*%
X57150000Y-104140000D03*
D13*
X64770000Y-104140000D03*
%TD*%
D11*
%TO.C,R8*%
X57150000Y-99060000D03*
D13*
X64770000Y-99060000D03*
%TD*%
D11*
%TO.C,R7*%
X77470000Y-104140000D03*
D13*
X69850000Y-104140000D03*
%TD*%
D11*
%TO.C,R6*%
X63500000Y-92710000D03*
D13*
X63500000Y-85090000D03*
%TD*%
D11*
%TO.C,R5*%
X64770000Y-124460000D03*
D13*
X57150000Y-124460000D03*
%TD*%
D11*
%TO.C,R4*%
X64770000Y-119380000D03*
D13*
X57150000Y-119380000D03*
%TD*%
D11*
%TO.C,R3*%
X57150000Y-114300000D03*
D13*
X64770000Y-114300000D03*
%TD*%
D11*
%TO.C,R2*%
X77470000Y-99060000D03*
D13*
X69850000Y-99060000D03*
%TD*%
D11*
%TO.C,R1*%
X53340000Y-134620000D03*
D13*
X60960000Y-134620000D03*
%TD*%
D17*
%TO.C,Q1*%
X66040000Y-134620000D03*
D18*
X66040000Y-137160000D03*
X66040000Y-135890000D03*
%TD*%
D19*
%TO.C,J6*%
X121920000Y-113284000D03*
X121920000Y-110744000D03*
X121920000Y-108204000D03*
D20*
X121920000Y-105664000D03*
%TD*%
D19*
%TO.C,J5*%
X121920000Y-99060000D03*
D20*
X121920000Y-96520000D03*
%TD*%
D19*
%TO.C,J4*%
X100330000Y-136906000D03*
D20*
X100330000Y-134366000D03*
%TD*%
D21*
%TO.C,J3*%
X93686000Y-135090000D03*
X88686000Y-135090000D03*
D22*
X95061000Y-137840000D03*
X87311000Y-137840000D03*
D23*
X94911000Y-134040000D03*
X87461000Y-134040000D03*
%TD*%
D19*
%TO.C,J2*%
X121920000Y-128016000D03*
X121920000Y-125476000D03*
X121920000Y-122936000D03*
D20*
X121920000Y-120396000D03*
%TD*%
D24*
%TO.C,J1*%
X44450000Y-94940000D03*
D25*
X44450000Y-91440000D03*
%TD*%
D26*
%TO.C,D6*%
X87630000Y-85852000D03*
D27*
X90170000Y-85852000D03*
%TD*%
D26*
%TO.C,D5*%
X57150000Y-85852000D03*
D27*
X59690000Y-85852000D03*
%TD*%
D26*
%TO.C,D4*%
X77470000Y-85852000D03*
D27*
X80010000Y-85852000D03*
%TD*%
D12*
%TO.C,D3*%
X43180000Y-106680000D03*
D11*
X48260000Y-99060000D03*
X48260000Y-106680000D03*
X43180000Y-99060000D03*
%TD*%
D26*
%TO.C,D2*%
X67310000Y-85852000D03*
D27*
X69850000Y-85852000D03*
%TD*%
D28*
%TO.C,D1*%
X67310000Y-130810000D03*
D29*
X57150000Y-130810000D03*
%TD*%
D13*
%TO.C,C1*%
X45760000Y-109982000D03*
X48260000Y-109982000D03*
%TD*%
M02*
