%TF.GenerationSoftware,KiCad,Pcbnew,(5.1.6)-1*%
%TF.CreationDate,2021-02-04T13:19:07+01:00*%
%TF.ProjectId,ebus,65627573-2e6b-4696-9361-645f70636258,rev?*%
%TF.SameCoordinates,Original*%
%TF.FileFunction,Copper,L2,Bot*%
%TF.FilePolarity,Positive*%
%FSLAX46Y46*%
G04 Gerber Fmt 4.6, Leading zero omitted, Abs format (unit mm)*
G04 Created by KiCad (PCBNEW (5.1.6)-1) date 2021-02-04 13:19:07*
%MOMM*%
%LPD*%
G01*
G04 APERTURE LIST*
%TA.AperFunction,ComponentPad*%
%ADD10O,1.700000X1.700000*%
%TD*%
%TA.AperFunction,ComponentPad*%
%ADD11R,1.700000X1.700000*%
%TD*%
%TA.AperFunction,ComponentPad*%
%ADD12C,2.400000*%
%TD*%
%TA.AperFunction,ComponentPad*%
%ADD13R,2.400000X2.400000*%
%TD*%
%TA.AperFunction,ComponentPad*%
%ADD14C,1.800000*%
%TD*%
%TA.AperFunction,ComponentPad*%
%ADD15R,1.800000X1.800000*%
%TD*%
%TA.AperFunction,ViaPad*%
%ADD16C,0.800000*%
%TD*%
%TA.AperFunction,Conductor*%
%ADD17C,0.500000*%
%TD*%
%TA.AperFunction,Conductor*%
%ADD18C,0.254000*%
%TD*%
G04 APERTURE END LIST*
D10*
%TO.P,J3,10*%
%TO.N,TX*%
X65532000Y-101727000D03*
%TO.P,J3,9*%
%TO.N,N/C*%
X68072000Y-101727000D03*
%TO.P,J3,8*%
%TO.N,RX*%
X65532000Y-99187000D03*
%TO.P,J3,7*%
%TO.N,N/C*%
X68072000Y-99187000D03*
%TO.P,J3,6*%
%TO.N,GNDREF*%
X65532000Y-96647000D03*
%TO.P,J3,5*%
%TO.N,N/C*%
X68072000Y-96647000D03*
%TO.P,J3,4*%
X65532000Y-94107000D03*
%TO.P,J3,3*%
X68072000Y-94107000D03*
%TO.P,J3,2*%
X65532000Y-91567000D03*
D11*
%TO.P,J3,1*%
%TO.N,+3V3*%
X68072000Y-91567000D03*
%TD*%
D12*
%TO.P,J1,2*%
%TO.N,Net-(D3-Pad4)*%
X65532000Y-109149000D03*
D13*
%TO.P,J1,1*%
%TO.N,Net-(D3-Pad3)*%
X65532000Y-112649000D03*
%TD*%
D14*
%TO.P,D6,2*%
%TO.N,Net-(D6-Pad2)*%
X65532000Y-121920000D03*
D15*
%TO.P,D6,1*%
%TO.N,GNDREF*%
X65532000Y-119380000D03*
%TD*%
D14*
%TO.P,D5,2*%
%TO.N,Net-(D5-Pad2)*%
X65532000Y-137160000D03*
D15*
%TO.P,D5,1*%
%TO.N,GNDD*%
X65532000Y-134620000D03*
%TD*%
D14*
%TO.P,D4,2*%
%TO.N,Net-(D4-Pad2)*%
X65532000Y-127000000D03*
D15*
%TO.P,D4,1*%
%TO.N,RX*%
X65532000Y-124460000D03*
%TD*%
D14*
%TO.P,D2,2*%
%TO.N,Net-(D2-Pad2)*%
X65532000Y-132080000D03*
D15*
%TO.P,D2,1*%
%TO.N,Net-(D2-Pad1)*%
X65532000Y-129540000D03*
%TD*%
D16*
%TO.N,GNDD*%
X86760001Y-117475000D03*
X89160011Y-117475000D03*
X90170000Y-97790000D03*
X76835000Y-98425000D03*
X89535000Y-109855000D03*
X85598000Y-147193000D03*
X72136000Y-92456000D03*
X65913000Y-104394000D03*
X66167000Y-115824000D03*
X84328000Y-88646000D03*
X85090000Y-101473000D03*
X83566000Y-109601000D03*
X77470000Y-128905000D03*
%TO.N,SIGNAL*%
X87210000Y-109134664D03*
X74930000Y-118110000D03*
%TO.N,+3V3*%
X69844942Y-123604942D03*
X69850000Y-125310000D03*
X69850000Y-119734990D03*
%TO.N,Net-(D2-Pad1)*%
X72937000Y-129540000D03*
X74637000Y-129540000D03*
%TO.N,RX*%
X73240000Y-121434990D03*
X70963459Y-97633459D03*
%TO.N,TX*%
X76200000Y-116928000D03*
X72390000Y-104140000D03*
X66802000Y-103886000D03*
%TO.N,Net-(Q1-Pad1)*%
X72390000Y-119734990D03*
X72527024Y-123327024D03*
%TO.N,Net-(R3-Pad1)*%
X81686731Y-114528269D03*
X86995000Y-106680000D03*
%TO.N,+5V*%
X74076458Y-132933542D03*
X87268813Y-114026187D03*
%TD*%
D17*
%TO.N,GNDD*%
X86760001Y-117475000D02*
X89160011Y-117475000D01*
X90170000Y-97790000D02*
X89535000Y-98425000D01*
X89535000Y-98425000D02*
X76835000Y-98425000D01*
X90170000Y-97790000D02*
X90170000Y-109220000D01*
X90170000Y-109220000D02*
X89535000Y-109855000D01*
X86760001Y-119614999D02*
X86760001Y-117475000D01*
X77470000Y-128905000D02*
X86760001Y-119614999D01*
%TO.N,SIGNAL*%
X87210000Y-109134664D02*
X87210000Y-110275000D01*
X87210000Y-110275000D02*
X79375000Y-118110000D01*
X79375000Y-118110000D02*
X74930000Y-118110000D01*
%TO.N,GNDREF*%
X67945000Y-116967000D02*
X65532000Y-119380000D01*
X64231999Y-97947001D02*
X65532000Y-96647000D01*
X64231999Y-105125999D02*
X64231999Y-97947001D01*
X67945000Y-110236000D02*
X67182001Y-109473001D01*
X67182001Y-108076001D02*
X64231999Y-105125999D01*
X67182001Y-109473001D02*
X67182001Y-108076001D01*
X67945000Y-116967000D02*
X67945000Y-110236000D01*
%TO.N,+3V3*%
X69844942Y-123604942D02*
X69844942Y-125304942D01*
X69844942Y-125304942D02*
X69850000Y-125310000D01*
X69844942Y-123604942D02*
X69844942Y-119740048D01*
X69844942Y-119740048D02*
X69850000Y-119734990D01*
%TO.N,Net-(D2-Pad1)*%
X72937000Y-129540000D02*
X74637000Y-129540000D01*
%TO.N,RX*%
X73240000Y-121434990D02*
X73240000Y-114957962D01*
X71539999Y-98209999D02*
X70963459Y-97633459D01*
X71539999Y-113257962D02*
X71539999Y-98209999D01*
X73240000Y-114957962D02*
X71539999Y-113257962D01*
%TO.N,TX*%
X76200000Y-116928000D02*
X72390000Y-113118000D01*
X72390000Y-113118000D02*
X72390000Y-104140000D01*
X66802000Y-102997000D02*
X65532000Y-101727000D01*
X66802000Y-103886000D02*
X66802000Y-102997000D01*
%TO.N,Net-(Q1-Pad1)*%
X72390000Y-119734990D02*
X72390000Y-123190000D01*
X72390000Y-123190000D02*
X72527024Y-123327024D01*
%TO.N,Net-(R3-Pad1)*%
X81686731Y-114528269D02*
X86487000Y-109728000D01*
X86359999Y-107315001D02*
X86995000Y-106680000D01*
X86359999Y-109542665D02*
X86359999Y-107315001D01*
X86487000Y-109669666D02*
X86359999Y-109542665D01*
X86487000Y-109728000D02*
X86487000Y-109669666D01*
%TO.N,+5V*%
X75487001Y-131522999D02*
X75487001Y-128982999D01*
X74076458Y-132933542D02*
X75487001Y-131522999D01*
X75487001Y-128982999D02*
X85725000Y-118745000D01*
X85725000Y-118745000D02*
X85725000Y-115570000D01*
X85725000Y-115570000D02*
X87268813Y-114026187D01*
%TD*%
D18*
%TO.N,GNDD*%
G36*
X92685001Y-149327000D02*
G01*
X63652000Y-149327000D01*
X63652000Y-144559872D01*
X64567000Y-144559872D01*
X64567000Y-145000128D01*
X64652890Y-145431925D01*
X64821369Y-145838669D01*
X65065962Y-146204729D01*
X65377271Y-146516038D01*
X65743331Y-146760631D01*
X66150075Y-146929110D01*
X66581872Y-147015000D01*
X67022128Y-147015000D01*
X67453925Y-146929110D01*
X67860669Y-146760631D01*
X68226729Y-146516038D01*
X68538038Y-146204729D01*
X68782631Y-145838669D01*
X68951110Y-145431925D01*
X69037000Y-145000128D01*
X69037000Y-144559872D01*
X69011739Y-144432872D01*
X87681000Y-144432872D01*
X87681000Y-144873128D01*
X87766890Y-145304925D01*
X87935369Y-145711669D01*
X88179962Y-146077729D01*
X88491271Y-146389038D01*
X88857331Y-146633631D01*
X89264075Y-146802110D01*
X89695872Y-146888000D01*
X90136128Y-146888000D01*
X90567925Y-146802110D01*
X90974669Y-146633631D01*
X91340729Y-146389038D01*
X91652038Y-146077729D01*
X91896631Y-145711669D01*
X92065110Y-145304925D01*
X92151000Y-144873128D01*
X92151000Y-144432872D01*
X92065110Y-144001075D01*
X91896631Y-143594331D01*
X91652038Y-143228271D01*
X91340729Y-142916962D01*
X90974669Y-142672369D01*
X90567925Y-142503890D01*
X90136128Y-142418000D01*
X89695872Y-142418000D01*
X89264075Y-142503890D01*
X88857331Y-142672369D01*
X88491271Y-142916962D01*
X88179962Y-143228271D01*
X87935369Y-143594331D01*
X87766890Y-144001075D01*
X87681000Y-144432872D01*
X69011739Y-144432872D01*
X68951110Y-144128075D01*
X68782631Y-143721331D01*
X68538038Y-143355271D01*
X68226729Y-143043962D01*
X67860669Y-142799369D01*
X67453925Y-142630890D01*
X67022128Y-142545000D01*
X66581872Y-142545000D01*
X66150075Y-142630890D01*
X65743331Y-142799369D01*
X65377271Y-143043962D01*
X65065962Y-143355271D01*
X64821369Y-143721331D01*
X64652890Y-144128075D01*
X64567000Y-144559872D01*
X63652000Y-144559872D01*
X63652000Y-135520000D01*
X63993928Y-135520000D01*
X64006188Y-135644482D01*
X64042498Y-135764180D01*
X64101463Y-135874494D01*
X64180815Y-135971185D01*
X64277506Y-136050537D01*
X64387820Y-136109502D01*
X64406127Y-136115056D01*
X64339688Y-136181495D01*
X64171701Y-136432905D01*
X64055989Y-136712257D01*
X63997000Y-137008816D01*
X63997000Y-137311184D01*
X64055989Y-137607743D01*
X64171701Y-137887095D01*
X64339688Y-138138505D01*
X64553495Y-138352312D01*
X64804905Y-138520299D01*
X65084257Y-138636011D01*
X65380816Y-138695000D01*
X65683184Y-138695000D01*
X65979743Y-138636011D01*
X66259095Y-138520299D01*
X66510505Y-138352312D01*
X66724312Y-138138505D01*
X66892299Y-137887095D01*
X67008011Y-137607743D01*
X67067000Y-137311184D01*
X67067000Y-137008816D01*
X67008011Y-136712257D01*
X66892299Y-136432905D01*
X66724312Y-136181495D01*
X66657873Y-136115056D01*
X66676180Y-136109502D01*
X66786494Y-136050537D01*
X66883185Y-135971185D01*
X66962537Y-135874494D01*
X67021502Y-135764180D01*
X67057812Y-135644482D01*
X67070072Y-135520000D01*
X67067000Y-134905750D01*
X66908250Y-134747000D01*
X65659000Y-134747000D01*
X65659000Y-134767000D01*
X65405000Y-134767000D01*
X65405000Y-134747000D01*
X64155750Y-134747000D01*
X63997000Y-134905750D01*
X63993928Y-135520000D01*
X63652000Y-135520000D01*
X63652000Y-105797578D01*
X65198758Y-107344336D01*
X64996750Y-107384518D01*
X64662801Y-107522844D01*
X64362256Y-107723662D01*
X64106662Y-107979256D01*
X63905844Y-108279801D01*
X63767518Y-108613750D01*
X63697000Y-108968268D01*
X63697000Y-109329732D01*
X63767518Y-109684250D01*
X63905844Y-110018199D01*
X64106662Y-110318744D01*
X64362256Y-110574338D01*
X64662801Y-110775156D01*
X64749162Y-110810928D01*
X64332000Y-110810928D01*
X64207518Y-110823188D01*
X64087820Y-110859498D01*
X63977506Y-110918463D01*
X63880815Y-110997815D01*
X63801463Y-111094506D01*
X63742498Y-111204820D01*
X63706188Y-111324518D01*
X63693928Y-111449000D01*
X63693928Y-113849000D01*
X63706188Y-113973482D01*
X63742498Y-114093180D01*
X63801463Y-114203494D01*
X63880815Y-114300185D01*
X63977506Y-114379537D01*
X64087820Y-114438502D01*
X64207518Y-114474812D01*
X64332000Y-114487072D01*
X66732000Y-114487072D01*
X66856482Y-114474812D01*
X66976180Y-114438502D01*
X67060000Y-114393698D01*
X67060000Y-116600421D01*
X65818494Y-117841928D01*
X64632000Y-117841928D01*
X64507518Y-117854188D01*
X64387820Y-117890498D01*
X64277506Y-117949463D01*
X64180815Y-118028815D01*
X64101463Y-118125506D01*
X64042498Y-118235820D01*
X64006188Y-118355518D01*
X63993928Y-118480000D01*
X63993928Y-120280000D01*
X64006188Y-120404482D01*
X64042498Y-120524180D01*
X64101463Y-120634494D01*
X64180815Y-120731185D01*
X64277506Y-120810537D01*
X64387820Y-120869502D01*
X64406127Y-120875056D01*
X64339688Y-120941495D01*
X64171701Y-121192905D01*
X64055989Y-121472257D01*
X63997000Y-121768816D01*
X63997000Y-122071184D01*
X64055989Y-122367743D01*
X64171701Y-122647095D01*
X64339688Y-122898505D01*
X64406127Y-122964944D01*
X64387820Y-122970498D01*
X64277506Y-123029463D01*
X64180815Y-123108815D01*
X64101463Y-123205506D01*
X64042498Y-123315820D01*
X64006188Y-123435518D01*
X63993928Y-123560000D01*
X63993928Y-125360000D01*
X64006188Y-125484482D01*
X64042498Y-125604180D01*
X64101463Y-125714494D01*
X64180815Y-125811185D01*
X64277506Y-125890537D01*
X64387820Y-125949502D01*
X64406127Y-125955056D01*
X64339688Y-126021495D01*
X64171701Y-126272905D01*
X64055989Y-126552257D01*
X63997000Y-126848816D01*
X63997000Y-127151184D01*
X64055989Y-127447743D01*
X64171701Y-127727095D01*
X64339688Y-127978505D01*
X64406127Y-128044944D01*
X64387820Y-128050498D01*
X64277506Y-128109463D01*
X64180815Y-128188815D01*
X64101463Y-128285506D01*
X64042498Y-128395820D01*
X64006188Y-128515518D01*
X63993928Y-128640000D01*
X63993928Y-130440000D01*
X64006188Y-130564482D01*
X64042498Y-130684180D01*
X64101463Y-130794494D01*
X64180815Y-130891185D01*
X64277506Y-130970537D01*
X64387820Y-131029502D01*
X64406127Y-131035056D01*
X64339688Y-131101495D01*
X64171701Y-131352905D01*
X64055989Y-131632257D01*
X63997000Y-131928816D01*
X63997000Y-132231184D01*
X64055989Y-132527743D01*
X64171701Y-132807095D01*
X64339688Y-133058505D01*
X64406127Y-133124944D01*
X64387820Y-133130498D01*
X64277506Y-133189463D01*
X64180815Y-133268815D01*
X64101463Y-133365506D01*
X64042498Y-133475820D01*
X64006188Y-133595518D01*
X63993928Y-133720000D01*
X63997000Y-134334250D01*
X64155750Y-134493000D01*
X65405000Y-134493000D01*
X65405000Y-134473000D01*
X65659000Y-134473000D01*
X65659000Y-134493000D01*
X66908250Y-134493000D01*
X67067000Y-134334250D01*
X67070072Y-133720000D01*
X67057812Y-133595518D01*
X67021502Y-133475820D01*
X66962537Y-133365506D01*
X66883185Y-133268815D01*
X66786494Y-133189463D01*
X66676180Y-133130498D01*
X66657873Y-133124944D01*
X66724312Y-133058505D01*
X66892299Y-132807095D01*
X67008011Y-132527743D01*
X67067000Y-132231184D01*
X67067000Y-131928816D01*
X67008011Y-131632257D01*
X66892299Y-131352905D01*
X66724312Y-131101495D01*
X66657873Y-131035056D01*
X66676180Y-131029502D01*
X66786494Y-130970537D01*
X66883185Y-130891185D01*
X66962537Y-130794494D01*
X67021502Y-130684180D01*
X67057812Y-130564482D01*
X67070072Y-130440000D01*
X67070072Y-129438061D01*
X71902000Y-129438061D01*
X71902000Y-129641939D01*
X71941774Y-129841898D01*
X72019795Y-130030256D01*
X72133063Y-130199774D01*
X72277226Y-130343937D01*
X72446744Y-130457205D01*
X72635102Y-130535226D01*
X72835061Y-130575000D01*
X73038939Y-130575000D01*
X73238898Y-130535226D01*
X73427256Y-130457205D01*
X73475454Y-130425000D01*
X74098546Y-130425000D01*
X74146744Y-130457205D01*
X74335102Y-130535226D01*
X74535061Y-130575000D01*
X74602001Y-130575000D01*
X74602001Y-131156420D01*
X73831415Y-131927007D01*
X73774560Y-131938316D01*
X73586202Y-132016337D01*
X73416684Y-132129605D01*
X73272521Y-132273768D01*
X73159253Y-132443286D01*
X73081232Y-132631644D01*
X73041458Y-132831603D01*
X73041458Y-133035481D01*
X73081232Y-133235440D01*
X73159253Y-133423798D01*
X73272521Y-133593316D01*
X73416684Y-133737479D01*
X73586202Y-133850747D01*
X73774560Y-133928768D01*
X73974519Y-133968542D01*
X74178397Y-133968542D01*
X74378356Y-133928768D01*
X74566714Y-133850747D01*
X74736232Y-133737479D01*
X74880395Y-133593316D01*
X74993663Y-133423798D01*
X75071684Y-133235440D01*
X75082993Y-133178585D01*
X76082051Y-132179528D01*
X76115818Y-132151816D01*
X76226412Y-132017058D01*
X76308590Y-131863312D01*
X76359196Y-131696489D01*
X76372001Y-131566476D01*
X76372001Y-131566466D01*
X76376282Y-131523000D01*
X76372001Y-131479533D01*
X76372001Y-129349577D01*
X86320051Y-119401528D01*
X86353817Y-119373817D01*
X86464411Y-119239059D01*
X86546589Y-119085313D01*
X86597195Y-118918490D01*
X86610000Y-118788477D01*
X86610000Y-118788467D01*
X86614281Y-118745001D01*
X86610000Y-118701534D01*
X86610000Y-115936578D01*
X87513857Y-115032722D01*
X87570711Y-115021413D01*
X87759069Y-114943392D01*
X87928587Y-114830124D01*
X88072750Y-114685961D01*
X88186018Y-114516443D01*
X88264039Y-114328085D01*
X88303813Y-114128126D01*
X88303813Y-113924248D01*
X88264039Y-113724289D01*
X88186018Y-113535931D01*
X88072750Y-113366413D01*
X87928587Y-113222250D01*
X87759069Y-113108982D01*
X87570711Y-113030961D01*
X87370752Y-112991187D01*
X87166874Y-112991187D01*
X86966915Y-113030961D01*
X86778557Y-113108982D01*
X86609039Y-113222250D01*
X86464876Y-113366413D01*
X86351608Y-113535931D01*
X86273587Y-113724289D01*
X86262278Y-113781143D01*
X85129951Y-114913471D01*
X85096184Y-114941183D01*
X85068471Y-114974951D01*
X85068468Y-114974954D01*
X84985590Y-115075941D01*
X84903412Y-115229687D01*
X84852805Y-115396510D01*
X84835719Y-115570000D01*
X84840001Y-115613479D01*
X84840000Y-118378421D01*
X74891953Y-128326469D01*
X74858185Y-128354182D01*
X74830472Y-128387950D01*
X74830469Y-128387953D01*
X74747591Y-128488940D01*
X74739000Y-128505012D01*
X74738939Y-128505000D01*
X74535061Y-128505000D01*
X74335102Y-128544774D01*
X74146744Y-128622795D01*
X74098546Y-128655000D01*
X73475454Y-128655000D01*
X73427256Y-128622795D01*
X73238898Y-128544774D01*
X73038939Y-128505000D01*
X72835061Y-128505000D01*
X72635102Y-128544774D01*
X72446744Y-128622795D01*
X72277226Y-128736063D01*
X72133063Y-128880226D01*
X72019795Y-129049744D01*
X71941774Y-129238102D01*
X71902000Y-129438061D01*
X67070072Y-129438061D01*
X67070072Y-128640000D01*
X67057812Y-128515518D01*
X67021502Y-128395820D01*
X66962537Y-128285506D01*
X66883185Y-128188815D01*
X66786494Y-128109463D01*
X66676180Y-128050498D01*
X66657873Y-128044944D01*
X66724312Y-127978505D01*
X66892299Y-127727095D01*
X67008011Y-127447743D01*
X67067000Y-127151184D01*
X67067000Y-126848816D01*
X67008011Y-126552257D01*
X66892299Y-126272905D01*
X66724312Y-126021495D01*
X66657873Y-125955056D01*
X66676180Y-125949502D01*
X66786494Y-125890537D01*
X66883185Y-125811185D01*
X66962537Y-125714494D01*
X67021502Y-125604180D01*
X67057812Y-125484482D01*
X67070072Y-125360000D01*
X67070072Y-123560000D01*
X67064459Y-123503003D01*
X68809942Y-123503003D01*
X68809942Y-123706881D01*
X68849716Y-123906840D01*
X68927737Y-124095198D01*
X68959942Y-124143397D01*
X68959943Y-124779115D01*
X68932795Y-124819744D01*
X68854774Y-125008102D01*
X68815000Y-125208061D01*
X68815000Y-125411939D01*
X68854774Y-125611898D01*
X68932795Y-125800256D01*
X69046063Y-125969774D01*
X69190226Y-126113937D01*
X69359744Y-126227205D01*
X69548102Y-126305226D01*
X69748061Y-126345000D01*
X69951939Y-126345000D01*
X70151898Y-126305226D01*
X70340256Y-126227205D01*
X70509774Y-126113937D01*
X70653937Y-125969774D01*
X70767205Y-125800256D01*
X70845226Y-125611898D01*
X70885000Y-125411939D01*
X70885000Y-125208061D01*
X70845226Y-125008102D01*
X70767205Y-124819744D01*
X70729942Y-124763976D01*
X70729942Y-124143396D01*
X70762147Y-124095198D01*
X70840168Y-123906840D01*
X70879942Y-123706881D01*
X70879942Y-123503003D01*
X70840168Y-123303044D01*
X70762147Y-123114686D01*
X70729942Y-123066488D01*
X70729942Y-120281014D01*
X70767205Y-120225246D01*
X70845226Y-120036888D01*
X70885000Y-119836929D01*
X70885000Y-119633051D01*
X70845226Y-119433092D01*
X70767205Y-119244734D01*
X70653937Y-119075216D01*
X70509774Y-118931053D01*
X70340256Y-118817785D01*
X70151898Y-118739764D01*
X69951939Y-118699990D01*
X69748061Y-118699990D01*
X69548102Y-118739764D01*
X69359744Y-118817785D01*
X69190226Y-118931053D01*
X69046063Y-119075216D01*
X68932795Y-119244734D01*
X68854774Y-119433092D01*
X68815000Y-119633051D01*
X68815000Y-119836929D01*
X68854774Y-120036888D01*
X68932795Y-120225246D01*
X68959943Y-120265876D01*
X68959942Y-123066487D01*
X68927737Y-123114686D01*
X68849716Y-123303044D01*
X68809942Y-123503003D01*
X67064459Y-123503003D01*
X67057812Y-123435518D01*
X67021502Y-123315820D01*
X66962537Y-123205506D01*
X66883185Y-123108815D01*
X66786494Y-123029463D01*
X66676180Y-122970498D01*
X66657873Y-122964944D01*
X66724312Y-122898505D01*
X66892299Y-122647095D01*
X67008011Y-122367743D01*
X67067000Y-122071184D01*
X67067000Y-121768816D01*
X67008011Y-121472257D01*
X66892299Y-121192905D01*
X66724312Y-120941495D01*
X66657873Y-120875056D01*
X66676180Y-120869502D01*
X66786494Y-120810537D01*
X66883185Y-120731185D01*
X66962537Y-120634494D01*
X67021502Y-120524180D01*
X67057812Y-120404482D01*
X67070072Y-120280000D01*
X67070072Y-119093506D01*
X68540050Y-117623529D01*
X68573817Y-117595817D01*
X68684411Y-117461059D01*
X68766589Y-117307313D01*
X68817195Y-117140490D01*
X68830000Y-117010477D01*
X68830000Y-117010467D01*
X68834281Y-116967001D01*
X68830000Y-116923535D01*
X68830000Y-110279469D01*
X68834281Y-110236000D01*
X68830000Y-110192531D01*
X68830000Y-110192523D01*
X68817195Y-110062510D01*
X68809373Y-110036724D01*
X68766589Y-109895686D01*
X68684411Y-109741941D01*
X68601532Y-109640953D01*
X68601530Y-109640951D01*
X68573817Y-109607183D01*
X68540049Y-109579470D01*
X68067001Y-109106423D01*
X68067001Y-108119470D01*
X68071282Y-108076001D01*
X68067001Y-108032532D01*
X68067001Y-108032524D01*
X68054196Y-107902511D01*
X68003590Y-107735688D01*
X67921412Y-107581942D01*
X67810818Y-107447184D01*
X67777050Y-107419471D01*
X65116999Y-104759421D01*
X65116999Y-103158544D01*
X65385740Y-103212000D01*
X65678260Y-103212000D01*
X65750960Y-103197539D01*
X65910578Y-103357157D01*
X65884795Y-103395744D01*
X65806774Y-103584102D01*
X65767000Y-103784061D01*
X65767000Y-103987939D01*
X65806774Y-104187898D01*
X65884795Y-104376256D01*
X65998063Y-104545774D01*
X66142226Y-104689937D01*
X66311744Y-104803205D01*
X66500102Y-104881226D01*
X66700061Y-104921000D01*
X66903939Y-104921000D01*
X67103898Y-104881226D01*
X67292256Y-104803205D01*
X67461774Y-104689937D01*
X67605937Y-104545774D01*
X67719205Y-104376256D01*
X67797226Y-104187898D01*
X67837000Y-103987939D01*
X67837000Y-103784061D01*
X67797226Y-103584102D01*
X67719205Y-103395744D01*
X67687000Y-103347546D01*
X67687000Y-103164511D01*
X67925740Y-103212000D01*
X68218260Y-103212000D01*
X68505158Y-103154932D01*
X68775411Y-103042990D01*
X69018632Y-102880475D01*
X69225475Y-102673632D01*
X69387990Y-102430411D01*
X69499932Y-102160158D01*
X69557000Y-101873260D01*
X69557000Y-101580740D01*
X69499932Y-101293842D01*
X69387990Y-101023589D01*
X69225475Y-100780368D01*
X69018632Y-100573525D01*
X68844240Y-100457000D01*
X69018632Y-100340475D01*
X69225475Y-100133632D01*
X69387990Y-99890411D01*
X69499932Y-99620158D01*
X69557000Y-99333260D01*
X69557000Y-99040740D01*
X69499932Y-98753842D01*
X69387990Y-98483589D01*
X69225475Y-98240368D01*
X69018632Y-98033525D01*
X68844240Y-97917000D01*
X69018632Y-97800475D01*
X69225475Y-97593632D01*
X69266976Y-97531520D01*
X69928459Y-97531520D01*
X69928459Y-97735398D01*
X69968233Y-97935357D01*
X70046254Y-98123715D01*
X70159522Y-98293233D01*
X70303685Y-98437396D01*
X70473203Y-98550664D01*
X70655000Y-98625967D01*
X70654999Y-113214493D01*
X70650718Y-113257962D01*
X70654999Y-113301428D01*
X70654999Y-113301438D01*
X70667804Y-113431451D01*
X70718410Y-113598274D01*
X70800588Y-113752020D01*
X70911182Y-113886779D01*
X70944955Y-113914496D01*
X72355001Y-115324542D01*
X72355000Y-118699990D01*
X72288061Y-118699990D01*
X72088102Y-118739764D01*
X71899744Y-118817785D01*
X71730226Y-118931053D01*
X71586063Y-119075216D01*
X71472795Y-119244734D01*
X71394774Y-119433092D01*
X71355000Y-119633051D01*
X71355000Y-119836929D01*
X71394774Y-120036888D01*
X71472795Y-120225246D01*
X71505000Y-120273445D01*
X71505001Y-123146521D01*
X71502402Y-123172911D01*
X71492024Y-123225085D01*
X71492024Y-123428963D01*
X71531798Y-123628922D01*
X71609819Y-123817280D01*
X71723087Y-123986798D01*
X71867250Y-124130961D01*
X72036768Y-124244229D01*
X72225126Y-124322250D01*
X72425085Y-124362024D01*
X72628963Y-124362024D01*
X72828922Y-124322250D01*
X73017280Y-124244229D01*
X73186798Y-124130961D01*
X73330961Y-123986798D01*
X73444229Y-123817280D01*
X73522250Y-123628922D01*
X73562024Y-123428963D01*
X73562024Y-123225085D01*
X73522250Y-123025126D01*
X73444229Y-122836768D01*
X73330961Y-122667250D01*
X73275000Y-122611289D01*
X73275000Y-122469990D01*
X73341939Y-122469990D01*
X73541898Y-122430216D01*
X73730256Y-122352195D01*
X73899774Y-122238927D01*
X74043937Y-122094764D01*
X74157205Y-121925246D01*
X74235226Y-121736888D01*
X74275000Y-121536929D01*
X74275000Y-121333051D01*
X74235226Y-121133092D01*
X74157205Y-120944734D01*
X74125000Y-120896536D01*
X74125000Y-118768183D01*
X74126063Y-118769774D01*
X74270226Y-118913937D01*
X74439744Y-119027205D01*
X74628102Y-119105226D01*
X74828061Y-119145000D01*
X75031939Y-119145000D01*
X75231898Y-119105226D01*
X75420256Y-119027205D01*
X75468454Y-118995000D01*
X79331531Y-118995000D01*
X79375000Y-118999281D01*
X79418469Y-118995000D01*
X79418477Y-118995000D01*
X79548490Y-118982195D01*
X79715313Y-118931589D01*
X79869059Y-118849411D01*
X80003817Y-118738817D01*
X80031534Y-118705044D01*
X87805049Y-110931530D01*
X87838817Y-110903817D01*
X87949411Y-110769059D01*
X88031589Y-110615313D01*
X88082195Y-110448490D01*
X88095000Y-110318477D01*
X88095000Y-110318467D01*
X88099281Y-110275001D01*
X88095000Y-110231535D01*
X88095000Y-109673118D01*
X88127205Y-109624920D01*
X88205226Y-109436562D01*
X88245000Y-109236603D01*
X88245000Y-109032725D01*
X88205226Y-108832766D01*
X88127205Y-108644408D01*
X88013937Y-108474890D01*
X87869774Y-108330727D01*
X87700256Y-108217459D01*
X87511898Y-108139438D01*
X87311939Y-108099664D01*
X87244999Y-108099664D01*
X87244999Y-107685549D01*
X87296898Y-107675226D01*
X87485256Y-107597205D01*
X87654774Y-107483937D01*
X87798937Y-107339774D01*
X87912205Y-107170256D01*
X87990226Y-106981898D01*
X88030000Y-106781939D01*
X88030000Y-106578061D01*
X87990226Y-106378102D01*
X87912205Y-106189744D01*
X87798937Y-106020226D01*
X87654774Y-105876063D01*
X87485256Y-105762795D01*
X87296898Y-105684774D01*
X87096939Y-105645000D01*
X86893061Y-105645000D01*
X86693102Y-105684774D01*
X86504744Y-105762795D01*
X86335226Y-105876063D01*
X86191063Y-106020226D01*
X86077795Y-106189744D01*
X85999774Y-106378102D01*
X85988465Y-106434957D01*
X85764950Y-106658472D01*
X85731183Y-106686184D01*
X85703470Y-106719952D01*
X85703467Y-106719955D01*
X85620589Y-106820942D01*
X85538411Y-106974688D01*
X85487804Y-107141511D01*
X85470718Y-107315001D01*
X85475000Y-107358480D01*
X85474999Y-109488422D01*
X81441688Y-113521734D01*
X81384833Y-113533043D01*
X81196475Y-113611064D01*
X81026957Y-113724332D01*
X80882794Y-113868495D01*
X80769526Y-114038013D01*
X80691505Y-114226371D01*
X80651731Y-114426330D01*
X80651731Y-114630208D01*
X80691505Y-114830167D01*
X80769526Y-115018525D01*
X80882794Y-115188043D01*
X80964086Y-115269335D01*
X79008422Y-117225000D01*
X77196200Y-117225000D01*
X77235000Y-117029939D01*
X77235000Y-116826061D01*
X77195226Y-116626102D01*
X77117205Y-116437744D01*
X77003937Y-116268226D01*
X76859774Y-116124063D01*
X76690256Y-116010795D01*
X76501898Y-115932774D01*
X76445044Y-115921465D01*
X73275000Y-112751422D01*
X73275000Y-104678454D01*
X73307205Y-104630256D01*
X73385226Y-104441898D01*
X73425000Y-104241939D01*
X73425000Y-104038061D01*
X73385226Y-103838102D01*
X73307205Y-103649744D01*
X73193937Y-103480226D01*
X73049774Y-103336063D01*
X72880256Y-103222795D01*
X72691898Y-103144774D01*
X72491939Y-103105000D01*
X72424999Y-103105000D01*
X72424999Y-98253468D01*
X72429280Y-98209999D01*
X72424999Y-98166530D01*
X72424999Y-98166522D01*
X72412194Y-98036509D01*
X72385042Y-97947001D01*
X72361588Y-97869685D01*
X72279410Y-97715940D01*
X72196531Y-97614953D01*
X72168816Y-97581182D01*
X72135043Y-97553465D01*
X71969994Y-97388416D01*
X71958685Y-97331561D01*
X71880664Y-97143203D01*
X71767396Y-96973685D01*
X71623233Y-96829522D01*
X71453715Y-96716254D01*
X71265357Y-96638233D01*
X71065398Y-96598459D01*
X70861520Y-96598459D01*
X70661561Y-96638233D01*
X70473203Y-96716254D01*
X70303685Y-96829522D01*
X70159522Y-96973685D01*
X70046254Y-97143203D01*
X69968233Y-97331561D01*
X69928459Y-97531520D01*
X69266976Y-97531520D01*
X69387990Y-97350411D01*
X69499932Y-97080158D01*
X69557000Y-96793260D01*
X69557000Y-96500740D01*
X69499932Y-96213842D01*
X69387990Y-95943589D01*
X69225475Y-95700368D01*
X69018632Y-95493525D01*
X68844240Y-95377000D01*
X69018632Y-95260475D01*
X69225475Y-95053632D01*
X69387990Y-94810411D01*
X69499932Y-94540158D01*
X69557000Y-94253260D01*
X69557000Y-93960740D01*
X69499932Y-93673842D01*
X69387990Y-93403589D01*
X69225475Y-93160368D01*
X69093620Y-93028513D01*
X69166180Y-93006502D01*
X69276494Y-92947537D01*
X69373185Y-92868185D01*
X69452537Y-92771494D01*
X69511502Y-92661180D01*
X69547812Y-92541482D01*
X69560072Y-92417000D01*
X69560072Y-90717000D01*
X69547812Y-90592518D01*
X69511502Y-90472820D01*
X69452537Y-90362506D01*
X69373185Y-90265815D01*
X69276494Y-90186463D01*
X69166180Y-90127498D01*
X69046482Y-90091188D01*
X68922000Y-90078928D01*
X67222000Y-90078928D01*
X67097518Y-90091188D01*
X66977820Y-90127498D01*
X66867506Y-90186463D01*
X66770815Y-90265815D01*
X66691463Y-90362506D01*
X66632498Y-90472820D01*
X66610487Y-90545380D01*
X66478632Y-90413525D01*
X66235411Y-90251010D01*
X65965158Y-90139068D01*
X65678260Y-90082000D01*
X65385740Y-90082000D01*
X65098842Y-90139068D01*
X64828589Y-90251010D01*
X64585368Y-90413525D01*
X64378525Y-90620368D01*
X64216010Y-90863589D01*
X64104068Y-91133842D01*
X64047000Y-91420740D01*
X64047000Y-91713260D01*
X64104068Y-92000158D01*
X64216010Y-92270411D01*
X64378525Y-92513632D01*
X64585368Y-92720475D01*
X64759760Y-92837000D01*
X64585368Y-92953525D01*
X64378525Y-93160368D01*
X64216010Y-93403589D01*
X64104068Y-93673842D01*
X64047000Y-93960740D01*
X64047000Y-94253260D01*
X64104068Y-94540158D01*
X64216010Y-94810411D01*
X64378525Y-95053632D01*
X64585368Y-95260475D01*
X64759760Y-95377000D01*
X64585368Y-95493525D01*
X64378525Y-95700368D01*
X64216010Y-95943589D01*
X64104068Y-96213842D01*
X64047000Y-96500740D01*
X64047000Y-96793260D01*
X64061461Y-96865961D01*
X63652000Y-97275422D01*
X63652000Y-86520872D01*
X64567000Y-86520872D01*
X64567000Y-86961128D01*
X64652890Y-87392925D01*
X64821369Y-87799669D01*
X65065962Y-88165729D01*
X65377271Y-88477038D01*
X65743331Y-88721631D01*
X66150075Y-88890110D01*
X66581872Y-88976000D01*
X67022128Y-88976000D01*
X67453925Y-88890110D01*
X67860669Y-88721631D01*
X68226729Y-88477038D01*
X68538038Y-88165729D01*
X68782631Y-87799669D01*
X68951110Y-87392925D01*
X69037000Y-86961128D01*
X69037000Y-86520872D01*
X68986477Y-86266872D01*
X87554000Y-86266872D01*
X87554000Y-86707128D01*
X87639890Y-87138925D01*
X87808369Y-87545669D01*
X88052962Y-87911729D01*
X88364271Y-88223038D01*
X88730331Y-88467631D01*
X89137075Y-88636110D01*
X89568872Y-88722000D01*
X90009128Y-88722000D01*
X90440925Y-88636110D01*
X90847669Y-88467631D01*
X91213729Y-88223038D01*
X91525038Y-87911729D01*
X91769631Y-87545669D01*
X91938110Y-87138925D01*
X92024000Y-86707128D01*
X92024000Y-86266872D01*
X91938110Y-85835075D01*
X91769631Y-85428331D01*
X91525038Y-85062271D01*
X91213729Y-84750962D01*
X90847669Y-84506369D01*
X90440925Y-84337890D01*
X90009128Y-84252000D01*
X89568872Y-84252000D01*
X89137075Y-84337890D01*
X88730331Y-84506369D01*
X88364271Y-84750962D01*
X88052962Y-85062271D01*
X87808369Y-85428331D01*
X87639890Y-85835075D01*
X87554000Y-86266872D01*
X68986477Y-86266872D01*
X68951110Y-86089075D01*
X68782631Y-85682331D01*
X68538038Y-85316271D01*
X68226729Y-85004962D01*
X67860669Y-84760369D01*
X67453925Y-84591890D01*
X67022128Y-84506000D01*
X66581872Y-84506000D01*
X66150075Y-84591890D01*
X65743331Y-84760369D01*
X65377271Y-85004962D01*
X65065962Y-85316271D01*
X64821369Y-85682331D01*
X64652890Y-86089075D01*
X64567000Y-86520872D01*
X63652000Y-86520872D01*
X63652000Y-83464000D01*
X92685000Y-83464000D01*
X92685001Y-149327000D01*
G37*
X92685001Y-149327000D02*
X63652000Y-149327000D01*
X63652000Y-144559872D01*
X64567000Y-144559872D01*
X64567000Y-145000128D01*
X64652890Y-145431925D01*
X64821369Y-145838669D01*
X65065962Y-146204729D01*
X65377271Y-146516038D01*
X65743331Y-146760631D01*
X66150075Y-146929110D01*
X66581872Y-147015000D01*
X67022128Y-147015000D01*
X67453925Y-146929110D01*
X67860669Y-146760631D01*
X68226729Y-146516038D01*
X68538038Y-146204729D01*
X68782631Y-145838669D01*
X68951110Y-145431925D01*
X69037000Y-145000128D01*
X69037000Y-144559872D01*
X69011739Y-144432872D01*
X87681000Y-144432872D01*
X87681000Y-144873128D01*
X87766890Y-145304925D01*
X87935369Y-145711669D01*
X88179962Y-146077729D01*
X88491271Y-146389038D01*
X88857331Y-146633631D01*
X89264075Y-146802110D01*
X89695872Y-146888000D01*
X90136128Y-146888000D01*
X90567925Y-146802110D01*
X90974669Y-146633631D01*
X91340729Y-146389038D01*
X91652038Y-146077729D01*
X91896631Y-145711669D01*
X92065110Y-145304925D01*
X92151000Y-144873128D01*
X92151000Y-144432872D01*
X92065110Y-144001075D01*
X91896631Y-143594331D01*
X91652038Y-143228271D01*
X91340729Y-142916962D01*
X90974669Y-142672369D01*
X90567925Y-142503890D01*
X90136128Y-142418000D01*
X89695872Y-142418000D01*
X89264075Y-142503890D01*
X88857331Y-142672369D01*
X88491271Y-142916962D01*
X88179962Y-143228271D01*
X87935369Y-143594331D01*
X87766890Y-144001075D01*
X87681000Y-144432872D01*
X69011739Y-144432872D01*
X68951110Y-144128075D01*
X68782631Y-143721331D01*
X68538038Y-143355271D01*
X68226729Y-143043962D01*
X67860669Y-142799369D01*
X67453925Y-142630890D01*
X67022128Y-142545000D01*
X66581872Y-142545000D01*
X66150075Y-142630890D01*
X65743331Y-142799369D01*
X65377271Y-143043962D01*
X65065962Y-143355271D01*
X64821369Y-143721331D01*
X64652890Y-144128075D01*
X64567000Y-144559872D01*
X63652000Y-144559872D01*
X63652000Y-135520000D01*
X63993928Y-135520000D01*
X64006188Y-135644482D01*
X64042498Y-135764180D01*
X64101463Y-135874494D01*
X64180815Y-135971185D01*
X64277506Y-136050537D01*
X64387820Y-136109502D01*
X64406127Y-136115056D01*
X64339688Y-136181495D01*
X64171701Y-136432905D01*
X64055989Y-136712257D01*
X63997000Y-137008816D01*
X63997000Y-137311184D01*
X64055989Y-137607743D01*
X64171701Y-137887095D01*
X64339688Y-138138505D01*
X64553495Y-138352312D01*
X64804905Y-138520299D01*
X65084257Y-138636011D01*
X65380816Y-138695000D01*
X65683184Y-138695000D01*
X65979743Y-138636011D01*
X66259095Y-138520299D01*
X66510505Y-138352312D01*
X66724312Y-138138505D01*
X66892299Y-137887095D01*
X67008011Y-137607743D01*
X67067000Y-137311184D01*
X67067000Y-137008816D01*
X67008011Y-136712257D01*
X66892299Y-136432905D01*
X66724312Y-136181495D01*
X66657873Y-136115056D01*
X66676180Y-136109502D01*
X66786494Y-136050537D01*
X66883185Y-135971185D01*
X66962537Y-135874494D01*
X67021502Y-135764180D01*
X67057812Y-135644482D01*
X67070072Y-135520000D01*
X67067000Y-134905750D01*
X66908250Y-134747000D01*
X65659000Y-134747000D01*
X65659000Y-134767000D01*
X65405000Y-134767000D01*
X65405000Y-134747000D01*
X64155750Y-134747000D01*
X63997000Y-134905750D01*
X63993928Y-135520000D01*
X63652000Y-135520000D01*
X63652000Y-105797578D01*
X65198758Y-107344336D01*
X64996750Y-107384518D01*
X64662801Y-107522844D01*
X64362256Y-107723662D01*
X64106662Y-107979256D01*
X63905844Y-108279801D01*
X63767518Y-108613750D01*
X63697000Y-108968268D01*
X63697000Y-109329732D01*
X63767518Y-109684250D01*
X63905844Y-110018199D01*
X64106662Y-110318744D01*
X64362256Y-110574338D01*
X64662801Y-110775156D01*
X64749162Y-110810928D01*
X64332000Y-110810928D01*
X64207518Y-110823188D01*
X64087820Y-110859498D01*
X63977506Y-110918463D01*
X63880815Y-110997815D01*
X63801463Y-111094506D01*
X63742498Y-111204820D01*
X63706188Y-111324518D01*
X63693928Y-111449000D01*
X63693928Y-113849000D01*
X63706188Y-113973482D01*
X63742498Y-114093180D01*
X63801463Y-114203494D01*
X63880815Y-114300185D01*
X63977506Y-114379537D01*
X64087820Y-114438502D01*
X64207518Y-114474812D01*
X64332000Y-114487072D01*
X66732000Y-114487072D01*
X66856482Y-114474812D01*
X66976180Y-114438502D01*
X67060000Y-114393698D01*
X67060000Y-116600421D01*
X65818494Y-117841928D01*
X64632000Y-117841928D01*
X64507518Y-117854188D01*
X64387820Y-117890498D01*
X64277506Y-117949463D01*
X64180815Y-118028815D01*
X64101463Y-118125506D01*
X64042498Y-118235820D01*
X64006188Y-118355518D01*
X63993928Y-118480000D01*
X63993928Y-120280000D01*
X64006188Y-120404482D01*
X64042498Y-120524180D01*
X64101463Y-120634494D01*
X64180815Y-120731185D01*
X64277506Y-120810537D01*
X64387820Y-120869502D01*
X64406127Y-120875056D01*
X64339688Y-120941495D01*
X64171701Y-121192905D01*
X64055989Y-121472257D01*
X63997000Y-121768816D01*
X63997000Y-122071184D01*
X64055989Y-122367743D01*
X64171701Y-122647095D01*
X64339688Y-122898505D01*
X64406127Y-122964944D01*
X64387820Y-122970498D01*
X64277506Y-123029463D01*
X64180815Y-123108815D01*
X64101463Y-123205506D01*
X64042498Y-123315820D01*
X64006188Y-123435518D01*
X63993928Y-123560000D01*
X63993928Y-125360000D01*
X64006188Y-125484482D01*
X64042498Y-125604180D01*
X64101463Y-125714494D01*
X64180815Y-125811185D01*
X64277506Y-125890537D01*
X64387820Y-125949502D01*
X64406127Y-125955056D01*
X64339688Y-126021495D01*
X64171701Y-126272905D01*
X64055989Y-126552257D01*
X63997000Y-126848816D01*
X63997000Y-127151184D01*
X64055989Y-127447743D01*
X64171701Y-127727095D01*
X64339688Y-127978505D01*
X64406127Y-128044944D01*
X64387820Y-128050498D01*
X64277506Y-128109463D01*
X64180815Y-128188815D01*
X64101463Y-128285506D01*
X64042498Y-128395820D01*
X64006188Y-128515518D01*
X63993928Y-128640000D01*
X63993928Y-130440000D01*
X64006188Y-130564482D01*
X64042498Y-130684180D01*
X64101463Y-130794494D01*
X64180815Y-130891185D01*
X64277506Y-130970537D01*
X64387820Y-131029502D01*
X64406127Y-131035056D01*
X64339688Y-131101495D01*
X64171701Y-131352905D01*
X64055989Y-131632257D01*
X63997000Y-131928816D01*
X63997000Y-132231184D01*
X64055989Y-132527743D01*
X64171701Y-132807095D01*
X64339688Y-133058505D01*
X64406127Y-133124944D01*
X64387820Y-133130498D01*
X64277506Y-133189463D01*
X64180815Y-133268815D01*
X64101463Y-133365506D01*
X64042498Y-133475820D01*
X64006188Y-133595518D01*
X63993928Y-133720000D01*
X63997000Y-134334250D01*
X64155750Y-134493000D01*
X65405000Y-134493000D01*
X65405000Y-134473000D01*
X65659000Y-134473000D01*
X65659000Y-134493000D01*
X66908250Y-134493000D01*
X67067000Y-134334250D01*
X67070072Y-133720000D01*
X67057812Y-133595518D01*
X67021502Y-133475820D01*
X66962537Y-133365506D01*
X66883185Y-133268815D01*
X66786494Y-133189463D01*
X66676180Y-133130498D01*
X66657873Y-133124944D01*
X66724312Y-133058505D01*
X66892299Y-132807095D01*
X67008011Y-132527743D01*
X67067000Y-132231184D01*
X67067000Y-131928816D01*
X67008011Y-131632257D01*
X66892299Y-131352905D01*
X66724312Y-131101495D01*
X66657873Y-131035056D01*
X66676180Y-131029502D01*
X66786494Y-130970537D01*
X66883185Y-130891185D01*
X66962537Y-130794494D01*
X67021502Y-130684180D01*
X67057812Y-130564482D01*
X67070072Y-130440000D01*
X67070072Y-129438061D01*
X71902000Y-129438061D01*
X71902000Y-129641939D01*
X71941774Y-129841898D01*
X72019795Y-130030256D01*
X72133063Y-130199774D01*
X72277226Y-130343937D01*
X72446744Y-130457205D01*
X72635102Y-130535226D01*
X72835061Y-130575000D01*
X73038939Y-130575000D01*
X73238898Y-130535226D01*
X73427256Y-130457205D01*
X73475454Y-130425000D01*
X74098546Y-130425000D01*
X74146744Y-130457205D01*
X74335102Y-130535226D01*
X74535061Y-130575000D01*
X74602001Y-130575000D01*
X74602001Y-131156420D01*
X73831415Y-131927007D01*
X73774560Y-131938316D01*
X73586202Y-132016337D01*
X73416684Y-132129605D01*
X73272521Y-132273768D01*
X73159253Y-132443286D01*
X73081232Y-132631644D01*
X73041458Y-132831603D01*
X73041458Y-133035481D01*
X73081232Y-133235440D01*
X73159253Y-133423798D01*
X73272521Y-133593316D01*
X73416684Y-133737479D01*
X73586202Y-133850747D01*
X73774560Y-133928768D01*
X73974519Y-133968542D01*
X74178397Y-133968542D01*
X74378356Y-133928768D01*
X74566714Y-133850747D01*
X74736232Y-133737479D01*
X74880395Y-133593316D01*
X74993663Y-133423798D01*
X75071684Y-133235440D01*
X75082993Y-133178585D01*
X76082051Y-132179528D01*
X76115818Y-132151816D01*
X76226412Y-132017058D01*
X76308590Y-131863312D01*
X76359196Y-131696489D01*
X76372001Y-131566476D01*
X76372001Y-131566466D01*
X76376282Y-131523000D01*
X76372001Y-131479533D01*
X76372001Y-129349577D01*
X86320051Y-119401528D01*
X86353817Y-119373817D01*
X86464411Y-119239059D01*
X86546589Y-119085313D01*
X86597195Y-118918490D01*
X86610000Y-118788477D01*
X86610000Y-118788467D01*
X86614281Y-118745001D01*
X86610000Y-118701534D01*
X86610000Y-115936578D01*
X87513857Y-115032722D01*
X87570711Y-115021413D01*
X87759069Y-114943392D01*
X87928587Y-114830124D01*
X88072750Y-114685961D01*
X88186018Y-114516443D01*
X88264039Y-114328085D01*
X88303813Y-114128126D01*
X88303813Y-113924248D01*
X88264039Y-113724289D01*
X88186018Y-113535931D01*
X88072750Y-113366413D01*
X87928587Y-113222250D01*
X87759069Y-113108982D01*
X87570711Y-113030961D01*
X87370752Y-112991187D01*
X87166874Y-112991187D01*
X86966915Y-113030961D01*
X86778557Y-113108982D01*
X86609039Y-113222250D01*
X86464876Y-113366413D01*
X86351608Y-113535931D01*
X86273587Y-113724289D01*
X86262278Y-113781143D01*
X85129951Y-114913471D01*
X85096184Y-114941183D01*
X85068471Y-114974951D01*
X85068468Y-114974954D01*
X84985590Y-115075941D01*
X84903412Y-115229687D01*
X84852805Y-115396510D01*
X84835719Y-115570000D01*
X84840001Y-115613479D01*
X84840000Y-118378421D01*
X74891953Y-128326469D01*
X74858185Y-128354182D01*
X74830472Y-128387950D01*
X74830469Y-128387953D01*
X74747591Y-128488940D01*
X74739000Y-128505012D01*
X74738939Y-128505000D01*
X74535061Y-128505000D01*
X74335102Y-128544774D01*
X74146744Y-128622795D01*
X74098546Y-128655000D01*
X73475454Y-128655000D01*
X73427256Y-128622795D01*
X73238898Y-128544774D01*
X73038939Y-128505000D01*
X72835061Y-128505000D01*
X72635102Y-128544774D01*
X72446744Y-128622795D01*
X72277226Y-128736063D01*
X72133063Y-128880226D01*
X72019795Y-129049744D01*
X71941774Y-129238102D01*
X71902000Y-129438061D01*
X67070072Y-129438061D01*
X67070072Y-128640000D01*
X67057812Y-128515518D01*
X67021502Y-128395820D01*
X66962537Y-128285506D01*
X66883185Y-128188815D01*
X66786494Y-128109463D01*
X66676180Y-128050498D01*
X66657873Y-128044944D01*
X66724312Y-127978505D01*
X66892299Y-127727095D01*
X67008011Y-127447743D01*
X67067000Y-127151184D01*
X67067000Y-126848816D01*
X67008011Y-126552257D01*
X66892299Y-126272905D01*
X66724312Y-126021495D01*
X66657873Y-125955056D01*
X66676180Y-125949502D01*
X66786494Y-125890537D01*
X66883185Y-125811185D01*
X66962537Y-125714494D01*
X67021502Y-125604180D01*
X67057812Y-125484482D01*
X67070072Y-125360000D01*
X67070072Y-123560000D01*
X67064459Y-123503003D01*
X68809942Y-123503003D01*
X68809942Y-123706881D01*
X68849716Y-123906840D01*
X68927737Y-124095198D01*
X68959942Y-124143397D01*
X68959943Y-124779115D01*
X68932795Y-124819744D01*
X68854774Y-125008102D01*
X68815000Y-125208061D01*
X68815000Y-125411939D01*
X68854774Y-125611898D01*
X68932795Y-125800256D01*
X69046063Y-125969774D01*
X69190226Y-126113937D01*
X69359744Y-126227205D01*
X69548102Y-126305226D01*
X69748061Y-126345000D01*
X69951939Y-126345000D01*
X70151898Y-126305226D01*
X70340256Y-126227205D01*
X70509774Y-126113937D01*
X70653937Y-125969774D01*
X70767205Y-125800256D01*
X70845226Y-125611898D01*
X70885000Y-125411939D01*
X70885000Y-125208061D01*
X70845226Y-125008102D01*
X70767205Y-124819744D01*
X70729942Y-124763976D01*
X70729942Y-124143396D01*
X70762147Y-124095198D01*
X70840168Y-123906840D01*
X70879942Y-123706881D01*
X70879942Y-123503003D01*
X70840168Y-123303044D01*
X70762147Y-123114686D01*
X70729942Y-123066488D01*
X70729942Y-120281014D01*
X70767205Y-120225246D01*
X70845226Y-120036888D01*
X70885000Y-119836929D01*
X70885000Y-119633051D01*
X70845226Y-119433092D01*
X70767205Y-119244734D01*
X70653937Y-119075216D01*
X70509774Y-118931053D01*
X70340256Y-118817785D01*
X70151898Y-118739764D01*
X69951939Y-118699990D01*
X69748061Y-118699990D01*
X69548102Y-118739764D01*
X69359744Y-118817785D01*
X69190226Y-118931053D01*
X69046063Y-119075216D01*
X68932795Y-119244734D01*
X68854774Y-119433092D01*
X68815000Y-119633051D01*
X68815000Y-119836929D01*
X68854774Y-120036888D01*
X68932795Y-120225246D01*
X68959943Y-120265876D01*
X68959942Y-123066487D01*
X68927737Y-123114686D01*
X68849716Y-123303044D01*
X68809942Y-123503003D01*
X67064459Y-123503003D01*
X67057812Y-123435518D01*
X67021502Y-123315820D01*
X66962537Y-123205506D01*
X66883185Y-123108815D01*
X66786494Y-123029463D01*
X66676180Y-122970498D01*
X66657873Y-122964944D01*
X66724312Y-122898505D01*
X66892299Y-122647095D01*
X67008011Y-122367743D01*
X67067000Y-122071184D01*
X67067000Y-121768816D01*
X67008011Y-121472257D01*
X66892299Y-121192905D01*
X66724312Y-120941495D01*
X66657873Y-120875056D01*
X66676180Y-120869502D01*
X66786494Y-120810537D01*
X66883185Y-120731185D01*
X66962537Y-120634494D01*
X67021502Y-120524180D01*
X67057812Y-120404482D01*
X67070072Y-120280000D01*
X67070072Y-119093506D01*
X68540050Y-117623529D01*
X68573817Y-117595817D01*
X68684411Y-117461059D01*
X68766589Y-117307313D01*
X68817195Y-117140490D01*
X68830000Y-117010477D01*
X68830000Y-117010467D01*
X68834281Y-116967001D01*
X68830000Y-116923535D01*
X68830000Y-110279469D01*
X68834281Y-110236000D01*
X68830000Y-110192531D01*
X68830000Y-110192523D01*
X68817195Y-110062510D01*
X68809373Y-110036724D01*
X68766589Y-109895686D01*
X68684411Y-109741941D01*
X68601532Y-109640953D01*
X68601530Y-109640951D01*
X68573817Y-109607183D01*
X68540049Y-109579470D01*
X68067001Y-109106423D01*
X68067001Y-108119470D01*
X68071282Y-108076001D01*
X68067001Y-108032532D01*
X68067001Y-108032524D01*
X68054196Y-107902511D01*
X68003590Y-107735688D01*
X67921412Y-107581942D01*
X67810818Y-107447184D01*
X67777050Y-107419471D01*
X65116999Y-104759421D01*
X65116999Y-103158544D01*
X65385740Y-103212000D01*
X65678260Y-103212000D01*
X65750960Y-103197539D01*
X65910578Y-103357157D01*
X65884795Y-103395744D01*
X65806774Y-103584102D01*
X65767000Y-103784061D01*
X65767000Y-103987939D01*
X65806774Y-104187898D01*
X65884795Y-104376256D01*
X65998063Y-104545774D01*
X66142226Y-104689937D01*
X66311744Y-104803205D01*
X66500102Y-104881226D01*
X66700061Y-104921000D01*
X66903939Y-104921000D01*
X67103898Y-104881226D01*
X67292256Y-104803205D01*
X67461774Y-104689937D01*
X67605937Y-104545774D01*
X67719205Y-104376256D01*
X67797226Y-104187898D01*
X67837000Y-103987939D01*
X67837000Y-103784061D01*
X67797226Y-103584102D01*
X67719205Y-103395744D01*
X67687000Y-103347546D01*
X67687000Y-103164511D01*
X67925740Y-103212000D01*
X68218260Y-103212000D01*
X68505158Y-103154932D01*
X68775411Y-103042990D01*
X69018632Y-102880475D01*
X69225475Y-102673632D01*
X69387990Y-102430411D01*
X69499932Y-102160158D01*
X69557000Y-101873260D01*
X69557000Y-101580740D01*
X69499932Y-101293842D01*
X69387990Y-101023589D01*
X69225475Y-100780368D01*
X69018632Y-100573525D01*
X68844240Y-100457000D01*
X69018632Y-100340475D01*
X69225475Y-100133632D01*
X69387990Y-99890411D01*
X69499932Y-99620158D01*
X69557000Y-99333260D01*
X69557000Y-99040740D01*
X69499932Y-98753842D01*
X69387990Y-98483589D01*
X69225475Y-98240368D01*
X69018632Y-98033525D01*
X68844240Y-97917000D01*
X69018632Y-97800475D01*
X69225475Y-97593632D01*
X69266976Y-97531520D01*
X69928459Y-97531520D01*
X69928459Y-97735398D01*
X69968233Y-97935357D01*
X70046254Y-98123715D01*
X70159522Y-98293233D01*
X70303685Y-98437396D01*
X70473203Y-98550664D01*
X70655000Y-98625967D01*
X70654999Y-113214493D01*
X70650718Y-113257962D01*
X70654999Y-113301428D01*
X70654999Y-113301438D01*
X70667804Y-113431451D01*
X70718410Y-113598274D01*
X70800588Y-113752020D01*
X70911182Y-113886779D01*
X70944955Y-113914496D01*
X72355001Y-115324542D01*
X72355000Y-118699990D01*
X72288061Y-118699990D01*
X72088102Y-118739764D01*
X71899744Y-118817785D01*
X71730226Y-118931053D01*
X71586063Y-119075216D01*
X71472795Y-119244734D01*
X71394774Y-119433092D01*
X71355000Y-119633051D01*
X71355000Y-119836929D01*
X71394774Y-120036888D01*
X71472795Y-120225246D01*
X71505000Y-120273445D01*
X71505001Y-123146521D01*
X71502402Y-123172911D01*
X71492024Y-123225085D01*
X71492024Y-123428963D01*
X71531798Y-123628922D01*
X71609819Y-123817280D01*
X71723087Y-123986798D01*
X71867250Y-124130961D01*
X72036768Y-124244229D01*
X72225126Y-124322250D01*
X72425085Y-124362024D01*
X72628963Y-124362024D01*
X72828922Y-124322250D01*
X73017280Y-124244229D01*
X73186798Y-124130961D01*
X73330961Y-123986798D01*
X73444229Y-123817280D01*
X73522250Y-123628922D01*
X73562024Y-123428963D01*
X73562024Y-123225085D01*
X73522250Y-123025126D01*
X73444229Y-122836768D01*
X73330961Y-122667250D01*
X73275000Y-122611289D01*
X73275000Y-122469990D01*
X73341939Y-122469990D01*
X73541898Y-122430216D01*
X73730256Y-122352195D01*
X73899774Y-122238927D01*
X74043937Y-122094764D01*
X74157205Y-121925246D01*
X74235226Y-121736888D01*
X74275000Y-121536929D01*
X74275000Y-121333051D01*
X74235226Y-121133092D01*
X74157205Y-120944734D01*
X74125000Y-120896536D01*
X74125000Y-118768183D01*
X74126063Y-118769774D01*
X74270226Y-118913937D01*
X74439744Y-119027205D01*
X74628102Y-119105226D01*
X74828061Y-119145000D01*
X75031939Y-119145000D01*
X75231898Y-119105226D01*
X75420256Y-119027205D01*
X75468454Y-118995000D01*
X79331531Y-118995000D01*
X79375000Y-118999281D01*
X79418469Y-118995000D01*
X79418477Y-118995000D01*
X79548490Y-118982195D01*
X79715313Y-118931589D01*
X79869059Y-118849411D01*
X80003817Y-118738817D01*
X80031534Y-118705044D01*
X87805049Y-110931530D01*
X87838817Y-110903817D01*
X87949411Y-110769059D01*
X88031589Y-110615313D01*
X88082195Y-110448490D01*
X88095000Y-110318477D01*
X88095000Y-110318467D01*
X88099281Y-110275001D01*
X88095000Y-110231535D01*
X88095000Y-109673118D01*
X88127205Y-109624920D01*
X88205226Y-109436562D01*
X88245000Y-109236603D01*
X88245000Y-109032725D01*
X88205226Y-108832766D01*
X88127205Y-108644408D01*
X88013937Y-108474890D01*
X87869774Y-108330727D01*
X87700256Y-108217459D01*
X87511898Y-108139438D01*
X87311939Y-108099664D01*
X87244999Y-108099664D01*
X87244999Y-107685549D01*
X87296898Y-107675226D01*
X87485256Y-107597205D01*
X87654774Y-107483937D01*
X87798937Y-107339774D01*
X87912205Y-107170256D01*
X87990226Y-106981898D01*
X88030000Y-106781939D01*
X88030000Y-106578061D01*
X87990226Y-106378102D01*
X87912205Y-106189744D01*
X87798937Y-106020226D01*
X87654774Y-105876063D01*
X87485256Y-105762795D01*
X87296898Y-105684774D01*
X87096939Y-105645000D01*
X86893061Y-105645000D01*
X86693102Y-105684774D01*
X86504744Y-105762795D01*
X86335226Y-105876063D01*
X86191063Y-106020226D01*
X86077795Y-106189744D01*
X85999774Y-106378102D01*
X85988465Y-106434957D01*
X85764950Y-106658472D01*
X85731183Y-106686184D01*
X85703470Y-106719952D01*
X85703467Y-106719955D01*
X85620589Y-106820942D01*
X85538411Y-106974688D01*
X85487804Y-107141511D01*
X85470718Y-107315001D01*
X85475000Y-107358480D01*
X85474999Y-109488422D01*
X81441688Y-113521734D01*
X81384833Y-113533043D01*
X81196475Y-113611064D01*
X81026957Y-113724332D01*
X80882794Y-113868495D01*
X80769526Y-114038013D01*
X80691505Y-114226371D01*
X80651731Y-114426330D01*
X80651731Y-114630208D01*
X80691505Y-114830167D01*
X80769526Y-115018525D01*
X80882794Y-115188043D01*
X80964086Y-115269335D01*
X79008422Y-117225000D01*
X77196200Y-117225000D01*
X77235000Y-117029939D01*
X77235000Y-116826061D01*
X77195226Y-116626102D01*
X77117205Y-116437744D01*
X77003937Y-116268226D01*
X76859774Y-116124063D01*
X76690256Y-116010795D01*
X76501898Y-115932774D01*
X76445044Y-115921465D01*
X73275000Y-112751422D01*
X73275000Y-104678454D01*
X73307205Y-104630256D01*
X73385226Y-104441898D01*
X73425000Y-104241939D01*
X73425000Y-104038061D01*
X73385226Y-103838102D01*
X73307205Y-103649744D01*
X73193937Y-103480226D01*
X73049774Y-103336063D01*
X72880256Y-103222795D01*
X72691898Y-103144774D01*
X72491939Y-103105000D01*
X72424999Y-103105000D01*
X72424999Y-98253468D01*
X72429280Y-98209999D01*
X72424999Y-98166530D01*
X72424999Y-98166522D01*
X72412194Y-98036509D01*
X72385042Y-97947001D01*
X72361588Y-97869685D01*
X72279410Y-97715940D01*
X72196531Y-97614953D01*
X72168816Y-97581182D01*
X72135043Y-97553465D01*
X71969994Y-97388416D01*
X71958685Y-97331561D01*
X71880664Y-97143203D01*
X71767396Y-96973685D01*
X71623233Y-96829522D01*
X71453715Y-96716254D01*
X71265357Y-96638233D01*
X71065398Y-96598459D01*
X70861520Y-96598459D01*
X70661561Y-96638233D01*
X70473203Y-96716254D01*
X70303685Y-96829522D01*
X70159522Y-96973685D01*
X70046254Y-97143203D01*
X69968233Y-97331561D01*
X69928459Y-97531520D01*
X69266976Y-97531520D01*
X69387990Y-97350411D01*
X69499932Y-97080158D01*
X69557000Y-96793260D01*
X69557000Y-96500740D01*
X69499932Y-96213842D01*
X69387990Y-95943589D01*
X69225475Y-95700368D01*
X69018632Y-95493525D01*
X68844240Y-95377000D01*
X69018632Y-95260475D01*
X69225475Y-95053632D01*
X69387990Y-94810411D01*
X69499932Y-94540158D01*
X69557000Y-94253260D01*
X69557000Y-93960740D01*
X69499932Y-93673842D01*
X69387990Y-93403589D01*
X69225475Y-93160368D01*
X69093620Y-93028513D01*
X69166180Y-93006502D01*
X69276494Y-92947537D01*
X69373185Y-92868185D01*
X69452537Y-92771494D01*
X69511502Y-92661180D01*
X69547812Y-92541482D01*
X69560072Y-92417000D01*
X69560072Y-90717000D01*
X69547812Y-90592518D01*
X69511502Y-90472820D01*
X69452537Y-90362506D01*
X69373185Y-90265815D01*
X69276494Y-90186463D01*
X69166180Y-90127498D01*
X69046482Y-90091188D01*
X68922000Y-90078928D01*
X67222000Y-90078928D01*
X67097518Y-90091188D01*
X66977820Y-90127498D01*
X66867506Y-90186463D01*
X66770815Y-90265815D01*
X66691463Y-90362506D01*
X66632498Y-90472820D01*
X66610487Y-90545380D01*
X66478632Y-90413525D01*
X66235411Y-90251010D01*
X65965158Y-90139068D01*
X65678260Y-90082000D01*
X65385740Y-90082000D01*
X65098842Y-90139068D01*
X64828589Y-90251010D01*
X64585368Y-90413525D01*
X64378525Y-90620368D01*
X64216010Y-90863589D01*
X64104068Y-91133842D01*
X64047000Y-91420740D01*
X64047000Y-91713260D01*
X64104068Y-92000158D01*
X64216010Y-92270411D01*
X64378525Y-92513632D01*
X64585368Y-92720475D01*
X64759760Y-92837000D01*
X64585368Y-92953525D01*
X64378525Y-93160368D01*
X64216010Y-93403589D01*
X64104068Y-93673842D01*
X64047000Y-93960740D01*
X64047000Y-94253260D01*
X64104068Y-94540158D01*
X64216010Y-94810411D01*
X64378525Y-95053632D01*
X64585368Y-95260475D01*
X64759760Y-95377000D01*
X64585368Y-95493525D01*
X64378525Y-95700368D01*
X64216010Y-95943589D01*
X64104068Y-96213842D01*
X64047000Y-96500740D01*
X64047000Y-96793260D01*
X64061461Y-96865961D01*
X63652000Y-97275422D01*
X63652000Y-86520872D01*
X64567000Y-86520872D01*
X64567000Y-86961128D01*
X64652890Y-87392925D01*
X64821369Y-87799669D01*
X65065962Y-88165729D01*
X65377271Y-88477038D01*
X65743331Y-88721631D01*
X66150075Y-88890110D01*
X66581872Y-88976000D01*
X67022128Y-88976000D01*
X67453925Y-88890110D01*
X67860669Y-88721631D01*
X68226729Y-88477038D01*
X68538038Y-88165729D01*
X68782631Y-87799669D01*
X68951110Y-87392925D01*
X69037000Y-86961128D01*
X69037000Y-86520872D01*
X68986477Y-86266872D01*
X87554000Y-86266872D01*
X87554000Y-86707128D01*
X87639890Y-87138925D01*
X87808369Y-87545669D01*
X88052962Y-87911729D01*
X88364271Y-88223038D01*
X88730331Y-88467631D01*
X89137075Y-88636110D01*
X89568872Y-88722000D01*
X90009128Y-88722000D01*
X90440925Y-88636110D01*
X90847669Y-88467631D01*
X91213729Y-88223038D01*
X91525038Y-87911729D01*
X91769631Y-87545669D01*
X91938110Y-87138925D01*
X92024000Y-86707128D01*
X92024000Y-86266872D01*
X91938110Y-85835075D01*
X91769631Y-85428331D01*
X91525038Y-85062271D01*
X91213729Y-84750962D01*
X90847669Y-84506369D01*
X90440925Y-84337890D01*
X90009128Y-84252000D01*
X89568872Y-84252000D01*
X89137075Y-84337890D01*
X88730331Y-84506369D01*
X88364271Y-84750962D01*
X88052962Y-85062271D01*
X87808369Y-85428331D01*
X87639890Y-85835075D01*
X87554000Y-86266872D01*
X68986477Y-86266872D01*
X68951110Y-86089075D01*
X68782631Y-85682331D01*
X68538038Y-85316271D01*
X68226729Y-85004962D01*
X67860669Y-84760369D01*
X67453925Y-84591890D01*
X67022128Y-84506000D01*
X66581872Y-84506000D01*
X66150075Y-84591890D01*
X65743331Y-84760369D01*
X65377271Y-85004962D01*
X65065962Y-85316271D01*
X64821369Y-85682331D01*
X64652890Y-86089075D01*
X64567000Y-86520872D01*
X63652000Y-86520872D01*
X63652000Y-83464000D01*
X92685000Y-83464000D01*
X92685001Y-149327000D01*
%TD*%
M02*
