M48
; DRILL file {KiCad (5.1.6)-1} date 01/28/21 12:38:16
; FORMAT={-:-/ absolute / inch / decimal}
; #@! TF.CreationDate,2021-01-28T12:38:16+01:00
; #@! TF.GenerationSoftware,Kicad,Pcbnew,(5.1.6)-1
FMAT,2
INCH
T1C0.0157
T2C0.0217
T3C0.0295
T4C0.0315
T5C0.0335
T6C0.0354
T7C0.0394
T8C0.0433
T9C0.0472
T10C0.0315
T11C0.1260
T12C0.1378
%
G90
G05
T1
X3.4Y-4.28
X3.43Y-4.57
X3.59Y-5.21
X4.5715Y-3.9774
X4.6Y-3.75
X4.63Y-5.18
X4.64Y-3.61
X4.64Y-3.82
X4.71Y-3.92
X4.73Y-5.23
X4.74Y-3.58
T3
X2.6Y-5.3
X2.6Y-5.35
X2.6Y-5.4
T4
X2.45Y-3.9
X2.45Y-4.05
X3.15Y-4.0571
X3.15Y-4.7429
X3.5826Y-4.7674
X4.3Y-4.7429
X4.55Y-4.7429
X2.75Y-4.5
X3.05Y-4.5
X2.1Y-4.15
X2.1Y-4.2484
X2.25Y-4.3
X2.55Y-4.3
X1.7Y-3.9
X1.7Y-4.2
X1.9Y-3.9
X1.9Y-4.2
X2.1Y-5.3
X2.4Y-5.3
X2.8Y-5.2
X2.8Y-5.3
X2.8Y-5.4
X3.1Y-5.2
X3.1Y-5.3
X3.1Y-5.4
X2.25Y-4.9
X2.55Y-4.9
X2.75Y-3.9
X3.05Y-3.9
X2.75Y-4.3
X3.05Y-4.3
X2.75Y-4.1
X3.05Y-4.1
X2.9Y-3.35
X2.9Y-3.65
X2.5Y-3.35
X2.5Y-3.65
X2.75Y-4.9
X3.05Y-4.9
X2.25Y-4.5
X2.55Y-4.5
X2.25Y-3.9
X2.55Y-3.9
X2.75Y-4.7
X3.05Y-4.7
X2.1Y-4.4
X2.1Y-4.7
X2.25Y-4.1
X2.55Y-4.1
X3.3Y-3.35
X3.3Y-3.65
X2.1Y-3.35
X2.1Y-3.65
X3.25Y-3.9
X3.25Y-4.0
X3.25Y-4.1
X3.25Y-4.2
X3.55Y-3.9
X3.55Y-4.0
X3.55Y-4.1
X3.55Y-4.2
X1.8016Y-4.33
X1.9Y-4.33
X3.25Y-4.9
X3.55Y-4.9
X3.25Y-4.45
X3.25Y-4.55
X3.25Y-4.65
X3.55Y-4.45
X3.55Y-4.55
X3.55Y-4.65
X2.25Y-4.7
X2.55Y-4.7
T6
X2.65Y-3.38
X2.75Y-3.38
X3.45Y-3.38
X3.55Y-3.38
X3.05Y-3.38
X3.15Y-3.38
X2.25Y-3.38
X2.35Y-3.38
T7
X4.8Y-3.8
X4.8Y-3.9
X4.8Y-4.16
X4.8Y-4.26
X4.8Y-4.36
X4.8Y-4.46
X4.8Y-4.74
X4.8Y-4.84
X4.8Y-4.94
X4.8Y-5.04
X3.95Y-5.29
X3.95Y-5.39
T8
X2.25Y-5.15
X2.65Y-5.15
X1.7Y-4.48
X1.8Y-4.48
X1.9Y-4.48
T9
X1.75Y-3.6
X1.75Y-3.7378
T10
X3.4916Y-5.3185
X3.6884Y-5.3185
T11
X1.7Y-3.38
X4.78Y-3.38
X1.7Y-5.38
X4.78Y-5.38
T12
X1.8Y-5.1359
T2
G00X3.4374Y-5.414
M15
G01X3.4374Y-5.4396
M16
G05
G00X3.7426Y-5.414
M15
G01X3.7426Y-5.4396
M16
G05
T5
G00X3.4433Y-5.2663
M15
G01X3.4433Y-5.288
M16
G05
G00X3.7367Y-5.2663
M15
G01X3.7367Y-5.288
M16
G05
T0
M30
