%TF.GenerationSoftware,KiCad,Pcbnew,5.1.5+dfsg1-2build2*%
%TF.CreationDate,2021-10-28T20:34:33+02:00*%
%TF.ProjectId,ebus,65627573-2e6b-4696-9361-645f70636258,rev?*%
%TF.SameCoordinates,Original*%
%TF.FileFunction,Soldermask,Top*%
%TF.FilePolarity,Negative*%
%FSLAX46Y46*%
G04 Gerber Fmt 4.6, Leading zero omitted, Abs format (unit mm)*
G04 Created by KiCad (PCBNEW 5.1.5+dfsg1-2build2) date 2021-10-28 20:34:33*
%MOMM*%
%LPD*%
G04 APERTURE LIST*
%ADD10O,1.800000X1.800000*%
%ADD11R,1.800000X1.800000*%
%ADD12O,1.700000X1.700000*%
%ADD13C,1.700000*%
%ADD14C,2.200000*%
%ADD15R,1.700000X1.700000*%
%ADD16C,0.100000*%
%ADD17R,1.600000X2.100000*%
%ADD18R,3.900000X2.100000*%
%ADD19R,2.600000X1.100000*%
%ADD20R,1.100000X1.900000*%
%ADD21O,2.005000X2.100000*%
%ADD22R,2.005000X2.100000*%
%ADD23O,3.600000X3.600000*%
%ADD24R,1.600000X1.150000*%
%ADD25O,1.600000X1.150000*%
%ADD26O,0.900000X0.900000*%
%ADD27O,1.250000X1.900000*%
%ADD28O,1.550000X2.100000*%
%ADD29R,0.550000X1.400000*%
%ADD30C,2.500000*%
%ADD31R,2.500000X2.500000*%
%ADD32C,1.900000*%
%ADD33R,1.900000X1.900000*%
%ADD34O,2.300000X2.300000*%
%ADD35R,2.300000X2.300000*%
G04 APERTURE END LIST*
D10*
%TO.C,J10*%
X74422000Y-96266000D03*
X74422000Y-98806000D03*
X71882000Y-96266000D03*
X71882000Y-98806000D03*
X69342000Y-96266000D03*
X69342000Y-98806000D03*
X66802000Y-96266000D03*
X66802000Y-98806000D03*
X64262000Y-96266000D03*
X64262000Y-98806000D03*
X61722000Y-96266000D03*
X61722000Y-98806000D03*
X59182000Y-96266000D03*
D11*
X59182000Y-98806000D03*
%TD*%
D12*
%TO.C,R3*%
X57150000Y-114300000D03*
D13*
X64770000Y-114300000D03*
%TD*%
%TO.C,C6*%
X53340000Y-106720000D03*
X53340000Y-109220000D03*
%TD*%
D14*
%TO.C,REF\002A\002A*%
X122174000Y-85090000D03*
%TD*%
%TO.C,REF\002A\002A*%
X122174000Y-137414000D03*
%TD*%
%TO.C,REF\002A\002A*%
X42418000Y-137414000D03*
%TD*%
%TO.C,REF\002A\002A*%
X42418000Y-85090000D03*
%TD*%
D10*
%TO.C,J9*%
X119380000Y-115316000D03*
D11*
X116840000Y-115316000D03*
%TD*%
D10*
%TO.C,J8*%
X119380000Y-112776000D03*
D11*
X116840000Y-112776000D03*
%TD*%
D10*
%TO.C,J7*%
X76200000Y-125984000D03*
D11*
X73660000Y-125984000D03*
%TD*%
D12*
%TO.C,D7*%
X64770000Y-125476000D03*
D15*
X57150000Y-125476000D03*
%TD*%
D12*
%TO.C,U4*%
X82550000Y-118110000D03*
X90170000Y-113030000D03*
X82550000Y-115570000D03*
X90170000Y-115570000D03*
X82550000Y-113030000D03*
D15*
X90170000Y-118110000D03*
%TD*%
D16*
%TO.C,C4*%
G36*
X112187465Y-116042300D02*
G01*
X112213674Y-116046188D01*
X112239377Y-116052626D01*
X112264325Y-116061553D01*
X112288277Y-116072881D01*
X112311004Y-116086503D01*
X112332286Y-116102287D01*
X112351919Y-116120081D01*
X112369713Y-116139714D01*
X112385497Y-116160996D01*
X112399119Y-116183723D01*
X112410447Y-116207675D01*
X112419374Y-116232623D01*
X112425812Y-116258326D01*
X112429700Y-116284535D01*
X112431000Y-116311000D01*
X112431000Y-117121000D01*
X112429700Y-117147465D01*
X112425812Y-117173674D01*
X112419374Y-117199377D01*
X112410447Y-117224325D01*
X112399119Y-117248277D01*
X112385497Y-117271004D01*
X112369713Y-117292286D01*
X112351919Y-117311919D01*
X112332286Y-117329713D01*
X112311004Y-117345497D01*
X112288277Y-117359119D01*
X112264325Y-117370447D01*
X112239377Y-117379374D01*
X112213674Y-117385812D01*
X112187465Y-117389700D01*
X112161000Y-117391000D01*
X110851000Y-117391000D01*
X110824535Y-117389700D01*
X110798326Y-117385812D01*
X110772623Y-117379374D01*
X110747675Y-117370447D01*
X110723723Y-117359119D01*
X110700996Y-117345497D01*
X110679714Y-117329713D01*
X110660081Y-117311919D01*
X110642287Y-117292286D01*
X110626503Y-117271004D01*
X110612881Y-117248277D01*
X110601553Y-117224325D01*
X110592626Y-117199377D01*
X110586188Y-117173674D01*
X110582300Y-117147465D01*
X110581000Y-117121000D01*
X110581000Y-116311000D01*
X110582300Y-116284535D01*
X110586188Y-116258326D01*
X110592626Y-116232623D01*
X110601553Y-116207675D01*
X110612881Y-116183723D01*
X110626503Y-116160996D01*
X110642287Y-116139714D01*
X110660081Y-116120081D01*
X110679714Y-116102287D01*
X110700996Y-116086503D01*
X110723723Y-116072881D01*
X110747675Y-116061553D01*
X110772623Y-116052626D01*
X110798326Y-116046188D01*
X110824535Y-116042300D01*
X110851000Y-116041000D01*
X112161000Y-116041000D01*
X112187465Y-116042300D01*
G37*
G36*
X112187465Y-113242300D02*
G01*
X112213674Y-113246188D01*
X112239377Y-113252626D01*
X112264325Y-113261553D01*
X112288277Y-113272881D01*
X112311004Y-113286503D01*
X112332286Y-113302287D01*
X112351919Y-113320081D01*
X112369713Y-113339714D01*
X112385497Y-113360996D01*
X112399119Y-113383723D01*
X112410447Y-113407675D01*
X112419374Y-113432623D01*
X112425812Y-113458326D01*
X112429700Y-113484535D01*
X112431000Y-113511000D01*
X112431000Y-114321000D01*
X112429700Y-114347465D01*
X112425812Y-114373674D01*
X112419374Y-114399377D01*
X112410447Y-114424325D01*
X112399119Y-114448277D01*
X112385497Y-114471004D01*
X112369713Y-114492286D01*
X112351919Y-114511919D01*
X112332286Y-114529713D01*
X112311004Y-114545497D01*
X112288277Y-114559119D01*
X112264325Y-114570447D01*
X112239377Y-114579374D01*
X112213674Y-114585812D01*
X112187465Y-114589700D01*
X112161000Y-114591000D01*
X110851000Y-114591000D01*
X110824535Y-114589700D01*
X110798326Y-114585812D01*
X110772623Y-114579374D01*
X110747675Y-114570447D01*
X110723723Y-114559119D01*
X110700996Y-114545497D01*
X110679714Y-114529713D01*
X110660081Y-114511919D01*
X110642287Y-114492286D01*
X110626503Y-114471004D01*
X110612881Y-114448277D01*
X110601553Y-114424325D01*
X110592626Y-114399377D01*
X110586188Y-114373674D01*
X110582300Y-114347465D01*
X110581000Y-114321000D01*
X110581000Y-113511000D01*
X110582300Y-113484535D01*
X110586188Y-113458326D01*
X110592626Y-113432623D01*
X110601553Y-113407675D01*
X110612881Y-113383723D01*
X110626503Y-113360996D01*
X110642287Y-113339714D01*
X110660081Y-113320081D01*
X110679714Y-113302287D01*
X110700996Y-113286503D01*
X110723723Y-113272881D01*
X110747675Y-113261553D01*
X110772623Y-113252626D01*
X110798326Y-113246188D01*
X110824535Y-113242300D01*
X110851000Y-113241000D01*
X112161000Y-113241000D01*
X112187465Y-113242300D01*
G37*
%TD*%
%TO.C,C2*%
G36*
X112187465Y-119846300D02*
G01*
X112213674Y-119850188D01*
X112239377Y-119856626D01*
X112264325Y-119865553D01*
X112288277Y-119876881D01*
X112311004Y-119890503D01*
X112332286Y-119906287D01*
X112351919Y-119924081D01*
X112369713Y-119943714D01*
X112385497Y-119964996D01*
X112399119Y-119987723D01*
X112410447Y-120011675D01*
X112419374Y-120036623D01*
X112425812Y-120062326D01*
X112429700Y-120088535D01*
X112431000Y-120115000D01*
X112431000Y-120925000D01*
X112429700Y-120951465D01*
X112425812Y-120977674D01*
X112419374Y-121003377D01*
X112410447Y-121028325D01*
X112399119Y-121052277D01*
X112385497Y-121075004D01*
X112369713Y-121096286D01*
X112351919Y-121115919D01*
X112332286Y-121133713D01*
X112311004Y-121149497D01*
X112288277Y-121163119D01*
X112264325Y-121174447D01*
X112239377Y-121183374D01*
X112213674Y-121189812D01*
X112187465Y-121193700D01*
X112161000Y-121195000D01*
X110851000Y-121195000D01*
X110824535Y-121193700D01*
X110798326Y-121189812D01*
X110772623Y-121183374D01*
X110747675Y-121174447D01*
X110723723Y-121163119D01*
X110700996Y-121149497D01*
X110679714Y-121133713D01*
X110660081Y-121115919D01*
X110642287Y-121096286D01*
X110626503Y-121075004D01*
X110612881Y-121052277D01*
X110601553Y-121028325D01*
X110592626Y-121003377D01*
X110586188Y-120977674D01*
X110582300Y-120951465D01*
X110581000Y-120925000D01*
X110581000Y-120115000D01*
X110582300Y-120088535D01*
X110586188Y-120062326D01*
X110592626Y-120036623D01*
X110601553Y-120011675D01*
X110612881Y-119987723D01*
X110626503Y-119964996D01*
X110642287Y-119943714D01*
X110660081Y-119924081D01*
X110679714Y-119906287D01*
X110700996Y-119890503D01*
X110723723Y-119876881D01*
X110747675Y-119865553D01*
X110772623Y-119856626D01*
X110798326Y-119850188D01*
X110824535Y-119846300D01*
X110851000Y-119845000D01*
X112161000Y-119845000D01*
X112187465Y-119846300D01*
G37*
G36*
X112187465Y-122646300D02*
G01*
X112213674Y-122650188D01*
X112239377Y-122656626D01*
X112264325Y-122665553D01*
X112288277Y-122676881D01*
X112311004Y-122690503D01*
X112332286Y-122706287D01*
X112351919Y-122724081D01*
X112369713Y-122743714D01*
X112385497Y-122764996D01*
X112399119Y-122787723D01*
X112410447Y-122811675D01*
X112419374Y-122836623D01*
X112425812Y-122862326D01*
X112429700Y-122888535D01*
X112431000Y-122915000D01*
X112431000Y-123725000D01*
X112429700Y-123751465D01*
X112425812Y-123777674D01*
X112419374Y-123803377D01*
X112410447Y-123828325D01*
X112399119Y-123852277D01*
X112385497Y-123875004D01*
X112369713Y-123896286D01*
X112351919Y-123915919D01*
X112332286Y-123933713D01*
X112311004Y-123949497D01*
X112288277Y-123963119D01*
X112264325Y-123974447D01*
X112239377Y-123983374D01*
X112213674Y-123989812D01*
X112187465Y-123993700D01*
X112161000Y-123995000D01*
X110851000Y-123995000D01*
X110824535Y-123993700D01*
X110798326Y-123989812D01*
X110772623Y-123983374D01*
X110747675Y-123974447D01*
X110723723Y-123963119D01*
X110700996Y-123949497D01*
X110679714Y-123933713D01*
X110660081Y-123915919D01*
X110642287Y-123896286D01*
X110626503Y-123875004D01*
X110612881Y-123852277D01*
X110601553Y-123828325D01*
X110592626Y-123803377D01*
X110586188Y-123777674D01*
X110582300Y-123751465D01*
X110581000Y-123725000D01*
X110581000Y-122915000D01*
X110582300Y-122888535D01*
X110586188Y-122862326D01*
X110592626Y-122836623D01*
X110601553Y-122811675D01*
X110612881Y-122787723D01*
X110626503Y-122764996D01*
X110642287Y-122743714D01*
X110660081Y-122724081D01*
X110679714Y-122706287D01*
X110700996Y-122690503D01*
X110723723Y-122676881D01*
X110747675Y-122665553D01*
X110772623Y-122656626D01*
X110798326Y-122650188D01*
X110824535Y-122646300D01*
X110851000Y-122645000D01*
X112161000Y-122645000D01*
X112187465Y-122646300D01*
G37*
%TD*%
%TO.C,R21*%
G36*
X118791465Y-106136300D02*
G01*
X118817674Y-106140188D01*
X118843377Y-106146626D01*
X118868325Y-106155553D01*
X118892277Y-106166881D01*
X118915004Y-106180503D01*
X118936286Y-106196287D01*
X118955919Y-106214081D01*
X118973713Y-106233714D01*
X118989497Y-106254996D01*
X119003119Y-106277723D01*
X119014447Y-106301675D01*
X119023374Y-106326623D01*
X119029812Y-106352326D01*
X119033700Y-106378535D01*
X119035000Y-106405000D01*
X119035000Y-107215000D01*
X119033700Y-107241465D01*
X119029812Y-107267674D01*
X119023374Y-107293377D01*
X119014447Y-107318325D01*
X119003119Y-107342277D01*
X118989497Y-107365004D01*
X118973713Y-107386286D01*
X118955919Y-107405919D01*
X118936286Y-107423713D01*
X118915004Y-107439497D01*
X118892277Y-107453119D01*
X118868325Y-107464447D01*
X118843377Y-107473374D01*
X118817674Y-107479812D01*
X118791465Y-107483700D01*
X118765000Y-107485000D01*
X117455000Y-107485000D01*
X117428535Y-107483700D01*
X117402326Y-107479812D01*
X117376623Y-107473374D01*
X117351675Y-107464447D01*
X117327723Y-107453119D01*
X117304996Y-107439497D01*
X117283714Y-107423713D01*
X117264081Y-107405919D01*
X117246287Y-107386286D01*
X117230503Y-107365004D01*
X117216881Y-107342277D01*
X117205553Y-107318325D01*
X117196626Y-107293377D01*
X117190188Y-107267674D01*
X117186300Y-107241465D01*
X117185000Y-107215000D01*
X117185000Y-106405000D01*
X117186300Y-106378535D01*
X117190188Y-106352326D01*
X117196626Y-106326623D01*
X117205553Y-106301675D01*
X117216881Y-106277723D01*
X117230503Y-106254996D01*
X117246287Y-106233714D01*
X117264081Y-106214081D01*
X117283714Y-106196287D01*
X117304996Y-106180503D01*
X117327723Y-106166881D01*
X117351675Y-106155553D01*
X117376623Y-106146626D01*
X117402326Y-106140188D01*
X117428535Y-106136300D01*
X117455000Y-106135000D01*
X118765000Y-106135000D01*
X118791465Y-106136300D01*
G37*
G36*
X118791465Y-103336300D02*
G01*
X118817674Y-103340188D01*
X118843377Y-103346626D01*
X118868325Y-103355553D01*
X118892277Y-103366881D01*
X118915004Y-103380503D01*
X118936286Y-103396287D01*
X118955919Y-103414081D01*
X118973713Y-103433714D01*
X118989497Y-103454996D01*
X119003119Y-103477723D01*
X119014447Y-103501675D01*
X119023374Y-103526623D01*
X119029812Y-103552326D01*
X119033700Y-103578535D01*
X119035000Y-103605000D01*
X119035000Y-104415000D01*
X119033700Y-104441465D01*
X119029812Y-104467674D01*
X119023374Y-104493377D01*
X119014447Y-104518325D01*
X119003119Y-104542277D01*
X118989497Y-104565004D01*
X118973713Y-104586286D01*
X118955919Y-104605919D01*
X118936286Y-104623713D01*
X118915004Y-104639497D01*
X118892277Y-104653119D01*
X118868325Y-104664447D01*
X118843377Y-104673374D01*
X118817674Y-104679812D01*
X118791465Y-104683700D01*
X118765000Y-104685000D01*
X117455000Y-104685000D01*
X117428535Y-104683700D01*
X117402326Y-104679812D01*
X117376623Y-104673374D01*
X117351675Y-104664447D01*
X117327723Y-104653119D01*
X117304996Y-104639497D01*
X117283714Y-104623713D01*
X117264081Y-104605919D01*
X117246287Y-104586286D01*
X117230503Y-104565004D01*
X117216881Y-104542277D01*
X117205553Y-104518325D01*
X117196626Y-104493377D01*
X117190188Y-104467674D01*
X117186300Y-104441465D01*
X117185000Y-104415000D01*
X117185000Y-103605000D01*
X117186300Y-103578535D01*
X117190188Y-103552326D01*
X117196626Y-103526623D01*
X117205553Y-103501675D01*
X117216881Y-103477723D01*
X117230503Y-103454996D01*
X117246287Y-103433714D01*
X117264081Y-103414081D01*
X117283714Y-103396287D01*
X117304996Y-103380503D01*
X117327723Y-103366881D01*
X117351675Y-103355553D01*
X117376623Y-103346626D01*
X117402326Y-103340188D01*
X117428535Y-103336300D01*
X117455000Y-103335000D01*
X118765000Y-103335000D01*
X118791465Y-103336300D01*
G37*
%TD*%
%TO.C,R20*%
G36*
X95931465Y-93436300D02*
G01*
X95957674Y-93440188D01*
X95983377Y-93446626D01*
X96008325Y-93455553D01*
X96032277Y-93466881D01*
X96055004Y-93480503D01*
X96076286Y-93496287D01*
X96095919Y-93514081D01*
X96113713Y-93533714D01*
X96129497Y-93554996D01*
X96143119Y-93577723D01*
X96154447Y-93601675D01*
X96163374Y-93626623D01*
X96169812Y-93652326D01*
X96173700Y-93678535D01*
X96175000Y-93705000D01*
X96175000Y-94515000D01*
X96173700Y-94541465D01*
X96169812Y-94567674D01*
X96163374Y-94593377D01*
X96154447Y-94618325D01*
X96143119Y-94642277D01*
X96129497Y-94665004D01*
X96113713Y-94686286D01*
X96095919Y-94705919D01*
X96076286Y-94723713D01*
X96055004Y-94739497D01*
X96032277Y-94753119D01*
X96008325Y-94764447D01*
X95983377Y-94773374D01*
X95957674Y-94779812D01*
X95931465Y-94783700D01*
X95905000Y-94785000D01*
X94595000Y-94785000D01*
X94568535Y-94783700D01*
X94542326Y-94779812D01*
X94516623Y-94773374D01*
X94491675Y-94764447D01*
X94467723Y-94753119D01*
X94444996Y-94739497D01*
X94423714Y-94723713D01*
X94404081Y-94705919D01*
X94386287Y-94686286D01*
X94370503Y-94665004D01*
X94356881Y-94642277D01*
X94345553Y-94618325D01*
X94336626Y-94593377D01*
X94330188Y-94567674D01*
X94326300Y-94541465D01*
X94325000Y-94515000D01*
X94325000Y-93705000D01*
X94326300Y-93678535D01*
X94330188Y-93652326D01*
X94336626Y-93626623D01*
X94345553Y-93601675D01*
X94356881Y-93577723D01*
X94370503Y-93554996D01*
X94386287Y-93533714D01*
X94404081Y-93514081D01*
X94423714Y-93496287D01*
X94444996Y-93480503D01*
X94467723Y-93466881D01*
X94491675Y-93455553D01*
X94516623Y-93446626D01*
X94542326Y-93440188D01*
X94568535Y-93436300D01*
X94595000Y-93435000D01*
X95905000Y-93435000D01*
X95931465Y-93436300D01*
G37*
G36*
X95931465Y-90636300D02*
G01*
X95957674Y-90640188D01*
X95983377Y-90646626D01*
X96008325Y-90655553D01*
X96032277Y-90666881D01*
X96055004Y-90680503D01*
X96076286Y-90696287D01*
X96095919Y-90714081D01*
X96113713Y-90733714D01*
X96129497Y-90754996D01*
X96143119Y-90777723D01*
X96154447Y-90801675D01*
X96163374Y-90826623D01*
X96169812Y-90852326D01*
X96173700Y-90878535D01*
X96175000Y-90905000D01*
X96175000Y-91715000D01*
X96173700Y-91741465D01*
X96169812Y-91767674D01*
X96163374Y-91793377D01*
X96154447Y-91818325D01*
X96143119Y-91842277D01*
X96129497Y-91865004D01*
X96113713Y-91886286D01*
X96095919Y-91905919D01*
X96076286Y-91923713D01*
X96055004Y-91939497D01*
X96032277Y-91953119D01*
X96008325Y-91964447D01*
X95983377Y-91973374D01*
X95957674Y-91979812D01*
X95931465Y-91983700D01*
X95905000Y-91985000D01*
X94595000Y-91985000D01*
X94568535Y-91983700D01*
X94542326Y-91979812D01*
X94516623Y-91973374D01*
X94491675Y-91964447D01*
X94467723Y-91953119D01*
X94444996Y-91939497D01*
X94423714Y-91923713D01*
X94404081Y-91905919D01*
X94386287Y-91886286D01*
X94370503Y-91865004D01*
X94356881Y-91842277D01*
X94345553Y-91818325D01*
X94336626Y-91793377D01*
X94330188Y-91767674D01*
X94326300Y-91741465D01*
X94325000Y-91715000D01*
X94325000Y-90905000D01*
X94326300Y-90878535D01*
X94330188Y-90852326D01*
X94336626Y-90826623D01*
X94345553Y-90801675D01*
X94356881Y-90777723D01*
X94370503Y-90754996D01*
X94386287Y-90733714D01*
X94404081Y-90714081D01*
X94423714Y-90696287D01*
X94444996Y-90680503D01*
X94467723Y-90666881D01*
X94491675Y-90655553D01*
X94516623Y-90646626D01*
X94542326Y-90640188D01*
X94568535Y-90636300D01*
X94595000Y-90635000D01*
X95905000Y-90635000D01*
X95931465Y-90636300D01*
G37*
%TD*%
%TO.C,R18*%
G36*
X95931465Y-96986300D02*
G01*
X95957674Y-96990188D01*
X95983377Y-96996626D01*
X96008325Y-97005553D01*
X96032277Y-97016881D01*
X96055004Y-97030503D01*
X96076286Y-97046287D01*
X96095919Y-97064081D01*
X96113713Y-97083714D01*
X96129497Y-97104996D01*
X96143119Y-97127723D01*
X96154447Y-97151675D01*
X96163374Y-97176623D01*
X96169812Y-97202326D01*
X96173700Y-97228535D01*
X96175000Y-97255000D01*
X96175000Y-98065000D01*
X96173700Y-98091465D01*
X96169812Y-98117674D01*
X96163374Y-98143377D01*
X96154447Y-98168325D01*
X96143119Y-98192277D01*
X96129497Y-98215004D01*
X96113713Y-98236286D01*
X96095919Y-98255919D01*
X96076286Y-98273713D01*
X96055004Y-98289497D01*
X96032277Y-98303119D01*
X96008325Y-98314447D01*
X95983377Y-98323374D01*
X95957674Y-98329812D01*
X95931465Y-98333700D01*
X95905000Y-98335000D01*
X94595000Y-98335000D01*
X94568535Y-98333700D01*
X94542326Y-98329812D01*
X94516623Y-98323374D01*
X94491675Y-98314447D01*
X94467723Y-98303119D01*
X94444996Y-98289497D01*
X94423714Y-98273713D01*
X94404081Y-98255919D01*
X94386287Y-98236286D01*
X94370503Y-98215004D01*
X94356881Y-98192277D01*
X94345553Y-98168325D01*
X94336626Y-98143377D01*
X94330188Y-98117674D01*
X94326300Y-98091465D01*
X94325000Y-98065000D01*
X94325000Y-97255000D01*
X94326300Y-97228535D01*
X94330188Y-97202326D01*
X94336626Y-97176623D01*
X94345553Y-97151675D01*
X94356881Y-97127723D01*
X94370503Y-97104996D01*
X94386287Y-97083714D01*
X94404081Y-97064081D01*
X94423714Y-97046287D01*
X94444996Y-97030503D01*
X94467723Y-97016881D01*
X94491675Y-97005553D01*
X94516623Y-96996626D01*
X94542326Y-96990188D01*
X94568535Y-96986300D01*
X94595000Y-96985000D01*
X95905000Y-96985000D01*
X95931465Y-96986300D01*
G37*
G36*
X95931465Y-99786300D02*
G01*
X95957674Y-99790188D01*
X95983377Y-99796626D01*
X96008325Y-99805553D01*
X96032277Y-99816881D01*
X96055004Y-99830503D01*
X96076286Y-99846287D01*
X96095919Y-99864081D01*
X96113713Y-99883714D01*
X96129497Y-99904996D01*
X96143119Y-99927723D01*
X96154447Y-99951675D01*
X96163374Y-99976623D01*
X96169812Y-100002326D01*
X96173700Y-100028535D01*
X96175000Y-100055000D01*
X96175000Y-100865000D01*
X96173700Y-100891465D01*
X96169812Y-100917674D01*
X96163374Y-100943377D01*
X96154447Y-100968325D01*
X96143119Y-100992277D01*
X96129497Y-101015004D01*
X96113713Y-101036286D01*
X96095919Y-101055919D01*
X96076286Y-101073713D01*
X96055004Y-101089497D01*
X96032277Y-101103119D01*
X96008325Y-101114447D01*
X95983377Y-101123374D01*
X95957674Y-101129812D01*
X95931465Y-101133700D01*
X95905000Y-101135000D01*
X94595000Y-101135000D01*
X94568535Y-101133700D01*
X94542326Y-101129812D01*
X94516623Y-101123374D01*
X94491675Y-101114447D01*
X94467723Y-101103119D01*
X94444996Y-101089497D01*
X94423714Y-101073713D01*
X94404081Y-101055919D01*
X94386287Y-101036286D01*
X94370503Y-101015004D01*
X94356881Y-100992277D01*
X94345553Y-100968325D01*
X94336626Y-100943377D01*
X94330188Y-100917674D01*
X94326300Y-100891465D01*
X94325000Y-100865000D01*
X94325000Y-100055000D01*
X94326300Y-100028535D01*
X94330188Y-100002326D01*
X94336626Y-99976623D01*
X94345553Y-99951675D01*
X94356881Y-99927723D01*
X94370503Y-99904996D01*
X94386287Y-99883714D01*
X94404081Y-99864081D01*
X94423714Y-99846287D01*
X94444996Y-99830503D01*
X94467723Y-99816881D01*
X94491675Y-99805553D01*
X94516623Y-99796626D01*
X94542326Y-99790188D01*
X94568535Y-99786300D01*
X94595000Y-99785000D01*
X95905000Y-99785000D01*
X95931465Y-99786300D01*
G37*
%TD*%
D17*
%TO.C,U6*%
X115076000Y-131216000D03*
X110476000Y-131216000D03*
X112776000Y-131216000D03*
D18*
X112776000Y-137516000D03*
%TD*%
D19*
%TO.C,U5*%
X114280000Y-91750000D03*
X114280000Y-93750000D03*
X114280000Y-95750000D03*
X114280000Y-97750000D03*
X114280000Y-99750000D03*
X114280000Y-101750000D03*
X114280000Y-103750000D03*
X114280000Y-105750000D03*
D20*
X111680000Y-107250000D03*
X109680000Y-107250000D03*
X107680000Y-107250000D03*
X105680000Y-107250000D03*
X103680000Y-107250000D03*
X101680000Y-107250000D03*
D19*
X99080000Y-105750000D03*
X99080000Y-103750000D03*
X99080000Y-101750000D03*
X99080000Y-99750000D03*
X99080000Y-97750000D03*
X99080000Y-95750000D03*
X99080000Y-93750000D03*
X99080000Y-91750000D03*
%TD*%
D21*
%TO.C,U3*%
X43180000Y-113792000D03*
X45720000Y-113792000D03*
D22*
X48260000Y-113792000D03*
D23*
X45720000Y-130452000D03*
%TD*%
D12*
%TO.C,U2*%
X71120000Y-137160000D03*
X78740000Y-132080000D03*
X71120000Y-134620000D03*
X78740000Y-134620000D03*
X71120000Y-132080000D03*
D15*
X78740000Y-137160000D03*
%TD*%
D12*
%TO.C,U1*%
X90170000Y-99060000D03*
X82550000Y-106680000D03*
X90170000Y-101600000D03*
X82550000Y-104140000D03*
X90170000Y-104140000D03*
X82550000Y-101600000D03*
X90170000Y-106680000D03*
D15*
X82550000Y-99060000D03*
%TD*%
D12*
%TO.C,R19*%
X83820000Y-92710000D03*
D13*
X83820000Y-85090000D03*
%TD*%
D12*
%TO.C,R17*%
X53340000Y-92710000D03*
D13*
X53340000Y-85090000D03*
%TD*%
D12*
%TO.C,R16*%
X73660000Y-92710000D03*
D13*
X73660000Y-85090000D03*
%TD*%
D12*
%TO.C,R15*%
X69850000Y-119380000D03*
D13*
X77470000Y-119380000D03*
%TD*%
D12*
%TO.C,R14*%
X69850000Y-114300000D03*
D13*
X77470000Y-114300000D03*
%TD*%
D12*
%TO.C,R13*%
X82550000Y-124460000D03*
D13*
X90170000Y-124460000D03*
%TD*%
D12*
%TO.C,R11*%
X57150000Y-109220000D03*
D13*
X64770000Y-109220000D03*
%TD*%
D12*
%TO.C,R10*%
X77470000Y-109220000D03*
D13*
X69850000Y-109220000D03*
%TD*%
D12*
%TO.C,R9*%
X57150000Y-104140000D03*
D13*
X64770000Y-104140000D03*
%TD*%
D12*
%TO.C,R7*%
X77470000Y-104140000D03*
D13*
X69850000Y-104140000D03*
%TD*%
D12*
%TO.C,R6*%
X63500000Y-92710000D03*
D13*
X63500000Y-85090000D03*
%TD*%
D12*
%TO.C,R4*%
X64770000Y-119380000D03*
D13*
X57150000Y-119380000D03*
%TD*%
D12*
%TO.C,R1*%
X53340000Y-134620000D03*
D13*
X60960000Y-134620000D03*
%TD*%
D24*
%TO.C,Q1*%
X66040000Y-134620000D03*
D25*
X66040000Y-137160000D03*
X66040000Y-135890000D03*
%TD*%
D10*
%TO.C,J6*%
X121920000Y-117856000D03*
X121920000Y-115316000D03*
X121920000Y-112776000D03*
D11*
X121920000Y-110236000D03*
%TD*%
D10*
%TO.C,J5*%
X121920000Y-99060000D03*
D11*
X121920000Y-96520000D03*
%TD*%
D10*
%TO.C,J4*%
X100330000Y-136906000D03*
D11*
X100330000Y-134366000D03*
%TD*%
D26*
%TO.C,J3*%
X93686000Y-135090000D03*
X88686000Y-135090000D03*
D27*
X95061000Y-137840000D03*
X87311000Y-137840000D03*
D28*
X94911000Y-134040000D03*
X87461000Y-134040000D03*
D29*
X92486000Y-133990000D03*
X91836000Y-133990000D03*
X91186000Y-133990000D03*
X90536000Y-133990000D03*
X89886000Y-133990000D03*
%TD*%
D10*
%TO.C,J2*%
X121920000Y-132080000D03*
X121920000Y-129540000D03*
X121920000Y-127000000D03*
D11*
X121920000Y-124460000D03*
%TD*%
D30*
%TO.C,J1*%
X44450000Y-94940000D03*
D31*
X44450000Y-91440000D03*
%TD*%
D32*
%TO.C,D6*%
X87630000Y-85852000D03*
D33*
X90170000Y-85852000D03*
%TD*%
D32*
%TO.C,D5*%
X57150000Y-85852000D03*
D33*
X59690000Y-85852000D03*
%TD*%
D32*
%TO.C,D4*%
X77470000Y-85852000D03*
D33*
X80010000Y-85852000D03*
%TD*%
D15*
%TO.C,D3*%
X43180000Y-106680000D03*
D12*
X48260000Y-99060000D03*
X48260000Y-106680000D03*
X43180000Y-99060000D03*
%TD*%
D32*
%TO.C,D2*%
X67310000Y-85852000D03*
D33*
X69850000Y-85852000D03*
%TD*%
D34*
%TO.C,D1*%
X67310000Y-130810000D03*
D35*
X57150000Y-130810000D03*
%TD*%
D16*
%TO.C,C5*%
G36*
X108920411Y-114721279D02*
G01*
X108946196Y-114725104D01*
X108971482Y-114731438D01*
X108996025Y-114740219D01*
X109019590Y-114751365D01*
X109041948Y-114764766D01*
X109062886Y-114780294D01*
X109082200Y-114797800D01*
X109099706Y-114817114D01*
X109115234Y-114838052D01*
X109128635Y-114860410D01*
X109139781Y-114883975D01*
X109148562Y-114908518D01*
X109154896Y-114933804D01*
X109158721Y-114959589D01*
X109160000Y-114985625D01*
X109160000Y-116154375D01*
X109158721Y-116180411D01*
X109154896Y-116206196D01*
X109148562Y-116231482D01*
X109139781Y-116256025D01*
X109128635Y-116279590D01*
X109115234Y-116301948D01*
X109099706Y-116322886D01*
X109082200Y-116342200D01*
X109062886Y-116359706D01*
X109041948Y-116375234D01*
X109019590Y-116388635D01*
X108996025Y-116399781D01*
X108971482Y-116408562D01*
X108946196Y-116414896D01*
X108920411Y-116418721D01*
X108894375Y-116420000D01*
X106325625Y-116420000D01*
X106299589Y-116418721D01*
X106273804Y-116414896D01*
X106248518Y-116408562D01*
X106223975Y-116399781D01*
X106200410Y-116388635D01*
X106178052Y-116375234D01*
X106157114Y-116359706D01*
X106137800Y-116342200D01*
X106120294Y-116322886D01*
X106104766Y-116301948D01*
X106091365Y-116279590D01*
X106080219Y-116256025D01*
X106071438Y-116231482D01*
X106065104Y-116206196D01*
X106061279Y-116180411D01*
X106060000Y-116154375D01*
X106060000Y-114985625D01*
X106061279Y-114959589D01*
X106065104Y-114933804D01*
X106071438Y-114908518D01*
X106080219Y-114883975D01*
X106091365Y-114860410D01*
X106104766Y-114838052D01*
X106120294Y-114817114D01*
X106137800Y-114797800D01*
X106157114Y-114780294D01*
X106178052Y-114764766D01*
X106200410Y-114751365D01*
X106223975Y-114740219D01*
X106248518Y-114731438D01*
X106273804Y-114725104D01*
X106299589Y-114721279D01*
X106325625Y-114720000D01*
X108894375Y-114720000D01*
X108920411Y-114721279D01*
G37*
G36*
X104520411Y-114721279D02*
G01*
X104546196Y-114725104D01*
X104571482Y-114731438D01*
X104596025Y-114740219D01*
X104619590Y-114751365D01*
X104641948Y-114764766D01*
X104662886Y-114780294D01*
X104682200Y-114797800D01*
X104699706Y-114817114D01*
X104715234Y-114838052D01*
X104728635Y-114860410D01*
X104739781Y-114883975D01*
X104748562Y-114908518D01*
X104754896Y-114933804D01*
X104758721Y-114959589D01*
X104760000Y-114985625D01*
X104760000Y-116154375D01*
X104758721Y-116180411D01*
X104754896Y-116206196D01*
X104748562Y-116231482D01*
X104739781Y-116256025D01*
X104728635Y-116279590D01*
X104715234Y-116301948D01*
X104699706Y-116322886D01*
X104682200Y-116342200D01*
X104662886Y-116359706D01*
X104641948Y-116375234D01*
X104619590Y-116388635D01*
X104596025Y-116399781D01*
X104571482Y-116408562D01*
X104546196Y-116414896D01*
X104520411Y-116418721D01*
X104494375Y-116420000D01*
X101925625Y-116420000D01*
X101899589Y-116418721D01*
X101873804Y-116414896D01*
X101848518Y-116408562D01*
X101823975Y-116399781D01*
X101800410Y-116388635D01*
X101778052Y-116375234D01*
X101757114Y-116359706D01*
X101737800Y-116342200D01*
X101720294Y-116322886D01*
X101704766Y-116301948D01*
X101691365Y-116279590D01*
X101680219Y-116256025D01*
X101671438Y-116231482D01*
X101665104Y-116206196D01*
X101661279Y-116180411D01*
X101660000Y-116154375D01*
X101660000Y-114985625D01*
X101661279Y-114959589D01*
X101665104Y-114933804D01*
X101671438Y-114908518D01*
X101680219Y-114883975D01*
X101691365Y-114860410D01*
X101704766Y-114838052D01*
X101720294Y-114817114D01*
X101737800Y-114797800D01*
X101757114Y-114780294D01*
X101778052Y-114764766D01*
X101800410Y-114751365D01*
X101823975Y-114740219D01*
X101848518Y-114731438D01*
X101873804Y-114725104D01*
X101899589Y-114721279D01*
X101925625Y-114720000D01*
X104494375Y-114720000D01*
X104520411Y-114721279D01*
G37*
%TD*%
%TO.C,C3*%
G36*
X108920411Y-122341279D02*
G01*
X108946196Y-122345104D01*
X108971482Y-122351438D01*
X108996025Y-122360219D01*
X109019590Y-122371365D01*
X109041948Y-122384766D01*
X109062886Y-122400294D01*
X109082200Y-122417800D01*
X109099706Y-122437114D01*
X109115234Y-122458052D01*
X109128635Y-122480410D01*
X109139781Y-122503975D01*
X109148562Y-122528518D01*
X109154896Y-122553804D01*
X109158721Y-122579589D01*
X109160000Y-122605625D01*
X109160000Y-123774375D01*
X109158721Y-123800411D01*
X109154896Y-123826196D01*
X109148562Y-123851482D01*
X109139781Y-123876025D01*
X109128635Y-123899590D01*
X109115234Y-123921948D01*
X109099706Y-123942886D01*
X109082200Y-123962200D01*
X109062886Y-123979706D01*
X109041948Y-123995234D01*
X109019590Y-124008635D01*
X108996025Y-124019781D01*
X108971482Y-124028562D01*
X108946196Y-124034896D01*
X108920411Y-124038721D01*
X108894375Y-124040000D01*
X106325625Y-124040000D01*
X106299589Y-124038721D01*
X106273804Y-124034896D01*
X106248518Y-124028562D01*
X106223975Y-124019781D01*
X106200410Y-124008635D01*
X106178052Y-123995234D01*
X106157114Y-123979706D01*
X106137800Y-123962200D01*
X106120294Y-123942886D01*
X106104766Y-123921948D01*
X106091365Y-123899590D01*
X106080219Y-123876025D01*
X106071438Y-123851482D01*
X106065104Y-123826196D01*
X106061279Y-123800411D01*
X106060000Y-123774375D01*
X106060000Y-122605625D01*
X106061279Y-122579589D01*
X106065104Y-122553804D01*
X106071438Y-122528518D01*
X106080219Y-122503975D01*
X106091365Y-122480410D01*
X106104766Y-122458052D01*
X106120294Y-122437114D01*
X106137800Y-122417800D01*
X106157114Y-122400294D01*
X106178052Y-122384766D01*
X106200410Y-122371365D01*
X106223975Y-122360219D01*
X106248518Y-122351438D01*
X106273804Y-122345104D01*
X106299589Y-122341279D01*
X106325625Y-122340000D01*
X108894375Y-122340000D01*
X108920411Y-122341279D01*
G37*
G36*
X104520411Y-122341279D02*
G01*
X104546196Y-122345104D01*
X104571482Y-122351438D01*
X104596025Y-122360219D01*
X104619590Y-122371365D01*
X104641948Y-122384766D01*
X104662886Y-122400294D01*
X104682200Y-122417800D01*
X104699706Y-122437114D01*
X104715234Y-122458052D01*
X104728635Y-122480410D01*
X104739781Y-122503975D01*
X104748562Y-122528518D01*
X104754896Y-122553804D01*
X104758721Y-122579589D01*
X104760000Y-122605625D01*
X104760000Y-123774375D01*
X104758721Y-123800411D01*
X104754896Y-123826196D01*
X104748562Y-123851482D01*
X104739781Y-123876025D01*
X104728635Y-123899590D01*
X104715234Y-123921948D01*
X104699706Y-123942886D01*
X104682200Y-123962200D01*
X104662886Y-123979706D01*
X104641948Y-123995234D01*
X104619590Y-124008635D01*
X104596025Y-124019781D01*
X104571482Y-124028562D01*
X104546196Y-124034896D01*
X104520411Y-124038721D01*
X104494375Y-124040000D01*
X101925625Y-124040000D01*
X101899589Y-124038721D01*
X101873804Y-124034896D01*
X101848518Y-124028562D01*
X101823975Y-124019781D01*
X101800410Y-124008635D01*
X101778052Y-123995234D01*
X101757114Y-123979706D01*
X101737800Y-123962200D01*
X101720294Y-123942886D01*
X101704766Y-123921948D01*
X101691365Y-123899590D01*
X101680219Y-123876025D01*
X101671438Y-123851482D01*
X101665104Y-123826196D01*
X101661279Y-123800411D01*
X101660000Y-123774375D01*
X101660000Y-122605625D01*
X101661279Y-122579589D01*
X101665104Y-122553804D01*
X101671438Y-122528518D01*
X101680219Y-122503975D01*
X101691365Y-122480410D01*
X101704766Y-122458052D01*
X101720294Y-122437114D01*
X101737800Y-122417800D01*
X101757114Y-122400294D01*
X101778052Y-122384766D01*
X101800410Y-122371365D01*
X101823975Y-122360219D01*
X101848518Y-122351438D01*
X101873804Y-122345104D01*
X101899589Y-122341279D01*
X101925625Y-122340000D01*
X104494375Y-122340000D01*
X104520411Y-122341279D01*
G37*
%TD*%
D13*
%TO.C,C1*%
X45760000Y-109982000D03*
X48260000Y-109982000D03*
%TD*%
M02*
