%TF.GenerationSoftware,KiCad,Pcbnew,(5.1.6)-1*%
%TF.CreationDate,2021-02-02T21:14:54+01:00*%
%TF.ProjectId,ebus,65627573-2e6b-4696-9361-645f70636258,rev?*%
%TF.SameCoordinates,Original*%
%TF.FileFunction,Soldermask,Top*%
%TF.FilePolarity,Negative*%
%FSLAX46Y46*%
G04 Gerber Fmt 4.6, Leading zero omitted, Abs format (unit mm)*
G04 Created by KiCad (PCBNEW (5.1.6)-1) date 2021-02-02 21:14:54*
%MOMM*%
%LPD*%
G01*
G04 APERTURE LIST*
%ADD10R,6.800000X6.600000*%
%ADD11R,1.700000X1.600000*%
%ADD12O,1.800000X1.800000*%
%ADD13R,1.800000X1.800000*%
%ADD14C,3.300000*%
%ADD15R,1.700000X1.700000*%
%ADD16R,0.900000X1.000000*%
%ADD17R,1.700000X3.200000*%
%ADD18R,1.300000X1.000000*%
%ADD19C,2.500000*%
%ADD20R,2.500000X2.500000*%
%ADD21C,1.900000*%
%ADD22R,1.900000X1.900000*%
G04 APERTURE END LIST*
D10*
%TO.C,U3*%
X76813000Y-144907000D03*
D11*
X82963000Y-142607000D03*
X82963000Y-147207000D03*
%TD*%
D12*
%TO.C,J3*%
X65532000Y-101727000D03*
X68072000Y-101727000D03*
X65532000Y-99187000D03*
X68072000Y-99187000D03*
X65532000Y-96647000D03*
X68072000Y-96647000D03*
X65532000Y-94107000D03*
X68072000Y-94107000D03*
X65532000Y-91567000D03*
D13*
X68072000Y-91567000D03*
%TD*%
D14*
%TO.C,H4*%
X89916000Y-144653000D03*
%TD*%
%TO.C,H3*%
X89789000Y-86487000D03*
%TD*%
%TO.C,H2*%
X66802000Y-144780000D03*
%TD*%
%TO.C,H1*%
X66802000Y-86741000D03*
%TD*%
D15*
%TO.C,U4*%
X78740000Y-124841000D03*
X86360000Y-119761000D03*
X78740000Y-122301000D03*
X86360000Y-122301000D03*
X78740000Y-119761000D03*
X86360000Y-124841000D03*
%TD*%
%TO.C,U2*%
X78994000Y-134239000D03*
X86614000Y-129159000D03*
X78994000Y-131699000D03*
X86614000Y-131699000D03*
X78994000Y-129159000D03*
X86614000Y-134239000D03*
%TD*%
%TO.C,U1*%
G36*
G01*
X84000000Y-112443000D02*
X84000000Y-112093000D01*
G75*
G02*
X84175000Y-111918000I175000J0D01*
G01*
X85875000Y-111918000D01*
G75*
G02*
X86050000Y-112093000I0J-175000D01*
G01*
X86050000Y-112443000D01*
G75*
G02*
X85875000Y-112618000I-175000J0D01*
G01*
X84175000Y-112618000D01*
G75*
G02*
X84000000Y-112443000I0J175000D01*
G01*
G37*
G36*
G01*
X84000000Y-113713000D02*
X84000000Y-113363000D01*
G75*
G02*
X84175000Y-113188000I175000J0D01*
G01*
X85875000Y-113188000D01*
G75*
G02*
X86050000Y-113363000I0J-175000D01*
G01*
X86050000Y-113713000D01*
G75*
G02*
X85875000Y-113888000I-175000J0D01*
G01*
X84175000Y-113888000D01*
G75*
G02*
X84000000Y-113713000I0J175000D01*
G01*
G37*
G36*
G01*
X84000000Y-114983000D02*
X84000000Y-114633000D01*
G75*
G02*
X84175000Y-114458000I175000J0D01*
G01*
X85875000Y-114458000D01*
G75*
G02*
X86050000Y-114633000I0J-175000D01*
G01*
X86050000Y-114983000D01*
G75*
G02*
X85875000Y-115158000I-175000J0D01*
G01*
X84175000Y-115158000D01*
G75*
G02*
X84000000Y-114983000I0J175000D01*
G01*
G37*
G36*
G01*
X84000000Y-116253000D02*
X84000000Y-115903000D01*
G75*
G02*
X84175000Y-115728000I175000J0D01*
G01*
X85875000Y-115728000D01*
G75*
G02*
X86050000Y-115903000I0J-175000D01*
G01*
X86050000Y-116253000D01*
G75*
G02*
X85875000Y-116428000I-175000J0D01*
G01*
X84175000Y-116428000D01*
G75*
G02*
X84000000Y-116253000I0J175000D01*
G01*
G37*
G36*
G01*
X79050000Y-116253000D02*
X79050000Y-115903000D01*
G75*
G02*
X79225000Y-115728000I175000J0D01*
G01*
X80925000Y-115728000D01*
G75*
G02*
X81100000Y-115903000I0J-175000D01*
G01*
X81100000Y-116253000D01*
G75*
G02*
X80925000Y-116428000I-175000J0D01*
G01*
X79225000Y-116428000D01*
G75*
G02*
X79050000Y-116253000I0J175000D01*
G01*
G37*
G36*
G01*
X79050000Y-114983000D02*
X79050000Y-114633000D01*
G75*
G02*
X79225000Y-114458000I175000J0D01*
G01*
X80925000Y-114458000D01*
G75*
G02*
X81100000Y-114633000I0J-175000D01*
G01*
X81100000Y-114983000D01*
G75*
G02*
X80925000Y-115158000I-175000J0D01*
G01*
X79225000Y-115158000D01*
G75*
G02*
X79050000Y-114983000I0J175000D01*
G01*
G37*
G36*
G01*
X79050000Y-113713000D02*
X79050000Y-113363000D01*
G75*
G02*
X79225000Y-113188000I175000J0D01*
G01*
X80925000Y-113188000D01*
G75*
G02*
X81100000Y-113363000I0J-175000D01*
G01*
X81100000Y-113713000D01*
G75*
G02*
X80925000Y-113888000I-175000J0D01*
G01*
X79225000Y-113888000D01*
G75*
G02*
X79050000Y-113713000I0J175000D01*
G01*
G37*
G36*
G01*
X79050000Y-112443000D02*
X79050000Y-112093000D01*
G75*
G02*
X79225000Y-111918000I175000J0D01*
G01*
X80925000Y-111918000D01*
G75*
G02*
X81100000Y-112093000I0J-175000D01*
G01*
X81100000Y-112443000D01*
G75*
G02*
X80925000Y-112618000I-175000J0D01*
G01*
X79225000Y-112618000D01*
G75*
G02*
X79050000Y-112443000I0J175000D01*
G01*
G37*
%TD*%
D16*
%TO.C,Q1*%
X73787000Y-127492000D03*
X72837000Y-125492000D03*
X74737000Y-125492000D03*
%TD*%
%TO.C,D7*%
X86614000Y-137938000D03*
X87564000Y-139938000D03*
X85664000Y-139938000D03*
%TD*%
D17*
%TO.C,D3*%
X72009000Y-106807000D03*
X74549000Y-115697000D03*
X74549000Y-106807000D03*
X72009000Y-115697000D03*
%TD*%
D18*
%TO.C,D1*%
X74930000Y-122935000D03*
X74930000Y-119635000D03*
%TD*%
%TO.C,R19*%
G36*
G01*
X70067000Y-122575000D02*
X70067000Y-121265000D01*
G75*
G02*
X70337000Y-120995000I270000J0D01*
G01*
X71147000Y-120995000D01*
G75*
G02*
X71417000Y-121265000I0J-270000D01*
G01*
X71417000Y-122575000D01*
G75*
G02*
X71147000Y-122845000I-270000J0D01*
G01*
X70337000Y-122845000D01*
G75*
G02*
X70067000Y-122575000I0J270000D01*
G01*
G37*
G36*
G01*
X67267000Y-122575000D02*
X67267000Y-121265000D01*
G75*
G02*
X67537000Y-120995000I270000J0D01*
G01*
X68347000Y-120995000D01*
G75*
G02*
X68617000Y-121265000I0J-270000D01*
G01*
X68617000Y-122575000D01*
G75*
G02*
X68347000Y-122845000I-270000J0D01*
G01*
X67537000Y-122845000D01*
G75*
G02*
X67267000Y-122575000I0J270000D01*
G01*
G37*
%TD*%
%TO.C,R17*%
G36*
G01*
X70067000Y-137815000D02*
X70067000Y-136505000D01*
G75*
G02*
X70337000Y-136235000I270000J0D01*
G01*
X71147000Y-136235000D01*
G75*
G02*
X71417000Y-136505000I0J-270000D01*
G01*
X71417000Y-137815000D01*
G75*
G02*
X71147000Y-138085000I-270000J0D01*
G01*
X70337000Y-138085000D01*
G75*
G02*
X70067000Y-137815000I0J270000D01*
G01*
G37*
G36*
G01*
X67267000Y-137815000D02*
X67267000Y-136505000D01*
G75*
G02*
X67537000Y-136235000I270000J0D01*
G01*
X68347000Y-136235000D01*
G75*
G02*
X68617000Y-136505000I0J-270000D01*
G01*
X68617000Y-137815000D01*
G75*
G02*
X68347000Y-138085000I-270000J0D01*
G01*
X67537000Y-138085000D01*
G75*
G02*
X67267000Y-137815000I0J270000D01*
G01*
G37*
%TD*%
%TO.C,R16*%
G36*
G01*
X70067000Y-127655000D02*
X70067000Y-126345000D01*
G75*
G02*
X70337000Y-126075000I270000J0D01*
G01*
X71147000Y-126075000D01*
G75*
G02*
X71417000Y-126345000I0J-270000D01*
G01*
X71417000Y-127655000D01*
G75*
G02*
X71147000Y-127925000I-270000J0D01*
G01*
X70337000Y-127925000D01*
G75*
G02*
X70067000Y-127655000I0J270000D01*
G01*
G37*
G36*
G01*
X67267000Y-127655000D02*
X67267000Y-126345000D01*
G75*
G02*
X67537000Y-126075000I270000J0D01*
G01*
X68347000Y-126075000D01*
G75*
G02*
X68617000Y-126345000I0J-270000D01*
G01*
X68617000Y-127655000D01*
G75*
G02*
X68347000Y-127925000I-270000J0D01*
G01*
X67537000Y-127925000D01*
G75*
G02*
X67267000Y-127655000I0J270000D01*
G01*
G37*
%TD*%
%TO.C,R15*%
G36*
G01*
X77560000Y-92730000D02*
X77560000Y-91420000D01*
G75*
G02*
X77830000Y-91150000I270000J0D01*
G01*
X78640000Y-91150000D01*
G75*
G02*
X78910000Y-91420000I0J-270000D01*
G01*
X78910000Y-92730000D01*
G75*
G02*
X78640000Y-93000000I-270000J0D01*
G01*
X77830000Y-93000000D01*
G75*
G02*
X77560000Y-92730000I0J270000D01*
G01*
G37*
G36*
G01*
X74760000Y-92730000D02*
X74760000Y-91420000D01*
G75*
G02*
X75030000Y-91150000I270000J0D01*
G01*
X75840000Y-91150000D01*
G75*
G02*
X76110000Y-91420000I0J-270000D01*
G01*
X76110000Y-92730000D01*
G75*
G02*
X75840000Y-93000000I-270000J0D01*
G01*
X75030000Y-93000000D01*
G75*
G02*
X74760000Y-92730000I0J270000D01*
G01*
G37*
%TD*%
%TO.C,R14*%
G36*
G01*
X82460000Y-106660000D02*
X82460000Y-107970000D01*
G75*
G02*
X82190000Y-108240000I-270000J0D01*
G01*
X81380000Y-108240000D01*
G75*
G02*
X81110000Y-107970000I0J270000D01*
G01*
X81110000Y-106660000D01*
G75*
G02*
X81380000Y-106390000I270000J0D01*
G01*
X82190000Y-106390000D01*
G75*
G02*
X82460000Y-106660000I0J-270000D01*
G01*
G37*
G36*
G01*
X85260000Y-106660000D02*
X85260000Y-107970000D01*
G75*
G02*
X84990000Y-108240000I-270000J0D01*
G01*
X84180000Y-108240000D01*
G75*
G02*
X83910000Y-107970000I0J270000D01*
G01*
X83910000Y-106660000D01*
G75*
G02*
X84180000Y-106390000I270000J0D01*
G01*
X84990000Y-106390000D01*
G75*
G02*
X85260000Y-106660000I0J-270000D01*
G01*
G37*
%TD*%
%TO.C,R13*%
G36*
G01*
X90260000Y-92730000D02*
X90260000Y-91420000D01*
G75*
G02*
X90530000Y-91150000I270000J0D01*
G01*
X91340000Y-91150000D01*
G75*
G02*
X91610000Y-91420000I0J-270000D01*
G01*
X91610000Y-92730000D01*
G75*
G02*
X91340000Y-93000000I-270000J0D01*
G01*
X90530000Y-93000000D01*
G75*
G02*
X90260000Y-92730000I0J270000D01*
G01*
G37*
G36*
G01*
X87460000Y-92730000D02*
X87460000Y-91420000D01*
G75*
G02*
X87730000Y-91150000I270000J0D01*
G01*
X88540000Y-91150000D01*
G75*
G02*
X88810000Y-91420000I0J-270000D01*
G01*
X88810000Y-92730000D01*
G75*
G02*
X88540000Y-93000000I-270000J0D01*
G01*
X87730000Y-93000000D01*
G75*
G02*
X87460000Y-92730000I0J270000D01*
G01*
G37*
%TD*%
%TO.C,R12*%
G36*
G01*
X77560000Y-96540000D02*
X77560000Y-95230000D01*
G75*
G02*
X77830000Y-94960000I270000J0D01*
G01*
X78640000Y-94960000D01*
G75*
G02*
X78910000Y-95230000I0J-270000D01*
G01*
X78910000Y-96540000D01*
G75*
G02*
X78640000Y-96810000I-270000J0D01*
G01*
X77830000Y-96810000D01*
G75*
G02*
X77560000Y-96540000I0J270000D01*
G01*
G37*
G36*
G01*
X74760000Y-96540000D02*
X74760000Y-95230000D01*
G75*
G02*
X75030000Y-94960000I270000J0D01*
G01*
X75840000Y-94960000D01*
G75*
G02*
X76110000Y-95230000I0J-270000D01*
G01*
X76110000Y-96540000D01*
G75*
G02*
X75840000Y-96810000I-270000J0D01*
G01*
X75030000Y-96810000D01*
G75*
G02*
X74760000Y-96540000I0J270000D01*
G01*
G37*
%TD*%
%TO.C,R11*%
G36*
G01*
X90260000Y-100350000D02*
X90260000Y-99040000D01*
G75*
G02*
X90530000Y-98770000I270000J0D01*
G01*
X91340000Y-98770000D01*
G75*
G02*
X91610000Y-99040000I0J-270000D01*
G01*
X91610000Y-100350000D01*
G75*
G02*
X91340000Y-100620000I-270000J0D01*
G01*
X90530000Y-100620000D01*
G75*
G02*
X90260000Y-100350000I0J270000D01*
G01*
G37*
G36*
G01*
X87460000Y-100350000D02*
X87460000Y-99040000D01*
G75*
G02*
X87730000Y-98770000I270000J0D01*
G01*
X88540000Y-98770000D01*
G75*
G02*
X88810000Y-99040000I0J-270000D01*
G01*
X88810000Y-100350000D01*
G75*
G02*
X88540000Y-100620000I-270000J0D01*
G01*
X87730000Y-100620000D01*
G75*
G02*
X87460000Y-100350000I0J270000D01*
G01*
G37*
%TD*%
%TO.C,R10*%
G36*
G01*
X82460000Y-102850000D02*
X82460000Y-104160000D01*
G75*
G02*
X82190000Y-104430000I-270000J0D01*
G01*
X81380000Y-104430000D01*
G75*
G02*
X81110000Y-104160000I0J270000D01*
G01*
X81110000Y-102850000D01*
G75*
G02*
X81380000Y-102580000I270000J0D01*
G01*
X82190000Y-102580000D01*
G75*
G02*
X82460000Y-102850000I0J-270000D01*
G01*
G37*
G36*
G01*
X85260000Y-102850000D02*
X85260000Y-104160000D01*
G75*
G02*
X84990000Y-104430000I-270000J0D01*
G01*
X84180000Y-104430000D01*
G75*
G02*
X83910000Y-104160000I0J270000D01*
G01*
X83910000Y-102850000D01*
G75*
G02*
X84180000Y-102580000I270000J0D01*
G01*
X84990000Y-102580000D01*
G75*
G02*
X85260000Y-102850000I0J-270000D01*
G01*
G37*
%TD*%
%TO.C,R9*%
G36*
G01*
X83910000Y-96540000D02*
X83910000Y-95230000D01*
G75*
G02*
X84180000Y-94960000I270000J0D01*
G01*
X84990000Y-94960000D01*
G75*
G02*
X85260000Y-95230000I0J-270000D01*
G01*
X85260000Y-96540000D01*
G75*
G02*
X84990000Y-96810000I-270000J0D01*
G01*
X84180000Y-96810000D01*
G75*
G02*
X83910000Y-96540000I0J270000D01*
G01*
G37*
G36*
G01*
X81110000Y-96540000D02*
X81110000Y-95230000D01*
G75*
G02*
X81380000Y-94960000I270000J0D01*
G01*
X82190000Y-94960000D01*
G75*
G02*
X82460000Y-95230000I0J-270000D01*
G01*
X82460000Y-96540000D01*
G75*
G02*
X82190000Y-96810000I-270000J0D01*
G01*
X81380000Y-96810000D01*
G75*
G02*
X81110000Y-96540000I0J270000D01*
G01*
G37*
%TD*%
%TO.C,R8*%
G36*
G01*
X83910000Y-92730000D02*
X83910000Y-91420000D01*
G75*
G02*
X84180000Y-91150000I270000J0D01*
G01*
X84990000Y-91150000D01*
G75*
G02*
X85260000Y-91420000I0J-270000D01*
G01*
X85260000Y-92730000D01*
G75*
G02*
X84990000Y-93000000I-270000J0D01*
G01*
X84180000Y-93000000D01*
G75*
G02*
X83910000Y-92730000I0J270000D01*
G01*
G37*
G36*
G01*
X81110000Y-92730000D02*
X81110000Y-91420000D01*
G75*
G02*
X81380000Y-91150000I270000J0D01*
G01*
X82190000Y-91150000D01*
G75*
G02*
X82460000Y-91420000I0J-270000D01*
G01*
X82460000Y-92730000D01*
G75*
G02*
X82190000Y-93000000I-270000J0D01*
G01*
X81380000Y-93000000D01*
G75*
G02*
X81110000Y-92730000I0J270000D01*
G01*
G37*
%TD*%
%TO.C,R7*%
G36*
G01*
X83910000Y-100350000D02*
X83910000Y-99040000D01*
G75*
G02*
X84180000Y-98770000I270000J0D01*
G01*
X84990000Y-98770000D01*
G75*
G02*
X85260000Y-99040000I0J-270000D01*
G01*
X85260000Y-100350000D01*
G75*
G02*
X84990000Y-100620000I-270000J0D01*
G01*
X84180000Y-100620000D01*
G75*
G02*
X83910000Y-100350000I0J270000D01*
G01*
G37*
G36*
G01*
X81110000Y-100350000D02*
X81110000Y-99040000D01*
G75*
G02*
X81380000Y-98770000I270000J0D01*
G01*
X82190000Y-98770000D01*
G75*
G02*
X82460000Y-99040000I0J-270000D01*
G01*
X82460000Y-100350000D01*
G75*
G02*
X82190000Y-100620000I-270000J0D01*
G01*
X81380000Y-100620000D01*
G75*
G02*
X81110000Y-100350000I0J270000D01*
G01*
G37*
%TD*%
%TO.C,R6*%
G36*
G01*
X70067000Y-132735000D02*
X70067000Y-131425000D01*
G75*
G02*
X70337000Y-131155000I270000J0D01*
G01*
X71147000Y-131155000D01*
G75*
G02*
X71417000Y-131425000I0J-270000D01*
G01*
X71417000Y-132735000D01*
G75*
G02*
X71147000Y-133005000I-270000J0D01*
G01*
X70337000Y-133005000D01*
G75*
G02*
X70067000Y-132735000I0J270000D01*
G01*
G37*
G36*
G01*
X67267000Y-132735000D02*
X67267000Y-131425000D01*
G75*
G02*
X67537000Y-131155000I270000J0D01*
G01*
X68347000Y-131155000D01*
G75*
G02*
X68617000Y-131425000I0J-270000D01*
G01*
X68617000Y-132735000D01*
G75*
G02*
X68347000Y-133005000I-270000J0D01*
G01*
X67537000Y-133005000D01*
G75*
G02*
X67267000Y-132735000I0J270000D01*
G01*
G37*
%TD*%
%TO.C,R5*%
G36*
G01*
X90260000Y-111780000D02*
X90260000Y-110470000D01*
G75*
G02*
X90530000Y-110200000I270000J0D01*
G01*
X91340000Y-110200000D01*
G75*
G02*
X91610000Y-110470000I0J-270000D01*
G01*
X91610000Y-111780000D01*
G75*
G02*
X91340000Y-112050000I-270000J0D01*
G01*
X90530000Y-112050000D01*
G75*
G02*
X90260000Y-111780000I0J270000D01*
G01*
G37*
G36*
G01*
X87460000Y-111780000D02*
X87460000Y-110470000D01*
G75*
G02*
X87730000Y-110200000I270000J0D01*
G01*
X88540000Y-110200000D01*
G75*
G02*
X88810000Y-110470000I0J-270000D01*
G01*
X88810000Y-111780000D01*
G75*
G02*
X88540000Y-112050000I-270000J0D01*
G01*
X87730000Y-112050000D01*
G75*
G02*
X87460000Y-111780000I0J270000D01*
G01*
G37*
%TD*%
%TO.C,R4*%
G36*
G01*
X88810000Y-106660000D02*
X88810000Y-107970000D01*
G75*
G02*
X88540000Y-108240000I-270000J0D01*
G01*
X87730000Y-108240000D01*
G75*
G02*
X87460000Y-107970000I0J270000D01*
G01*
X87460000Y-106660000D01*
G75*
G02*
X87730000Y-106390000I270000J0D01*
G01*
X88540000Y-106390000D01*
G75*
G02*
X88810000Y-106660000I0J-270000D01*
G01*
G37*
G36*
G01*
X91610000Y-106660000D02*
X91610000Y-107970000D01*
G75*
G02*
X91340000Y-108240000I-270000J0D01*
G01*
X90530000Y-108240000D01*
G75*
G02*
X90260000Y-107970000I0J270000D01*
G01*
X90260000Y-106660000D01*
G75*
G02*
X90530000Y-106390000I270000J0D01*
G01*
X91340000Y-106390000D01*
G75*
G02*
X91610000Y-106660000I0J-270000D01*
G01*
G37*
%TD*%
%TO.C,R3*%
G36*
G01*
X90260000Y-104160000D02*
X90260000Y-102850000D01*
G75*
G02*
X90530000Y-102580000I270000J0D01*
G01*
X91340000Y-102580000D01*
G75*
G02*
X91610000Y-102850000I0J-270000D01*
G01*
X91610000Y-104160000D01*
G75*
G02*
X91340000Y-104430000I-270000J0D01*
G01*
X90530000Y-104430000D01*
G75*
G02*
X90260000Y-104160000I0J270000D01*
G01*
G37*
G36*
G01*
X87460000Y-104160000D02*
X87460000Y-102850000D01*
G75*
G02*
X87730000Y-102580000I270000J0D01*
G01*
X88540000Y-102580000D01*
G75*
G02*
X88810000Y-102850000I0J-270000D01*
G01*
X88810000Y-104160000D01*
G75*
G02*
X88540000Y-104430000I-270000J0D01*
G01*
X87730000Y-104430000D01*
G75*
G02*
X87460000Y-104160000I0J270000D01*
G01*
G37*
%TD*%
%TO.C,R2*%
G36*
G01*
X90260000Y-96540000D02*
X90260000Y-95230000D01*
G75*
G02*
X90530000Y-94960000I270000J0D01*
G01*
X91340000Y-94960000D01*
G75*
G02*
X91610000Y-95230000I0J-270000D01*
G01*
X91610000Y-96540000D01*
G75*
G02*
X91340000Y-96810000I-270000J0D01*
G01*
X90530000Y-96810000D01*
G75*
G02*
X90260000Y-96540000I0J270000D01*
G01*
G37*
G36*
G01*
X87460000Y-96540000D02*
X87460000Y-95230000D01*
G75*
G02*
X87730000Y-94960000I270000J0D01*
G01*
X88540000Y-94960000D01*
G75*
G02*
X88810000Y-95230000I0J-270000D01*
G01*
X88810000Y-96540000D01*
G75*
G02*
X88540000Y-96810000I-270000J0D01*
G01*
X87730000Y-96810000D01*
G75*
G02*
X87460000Y-96540000I0J270000D01*
G01*
G37*
%TD*%
%TO.C,R1*%
G36*
G01*
X76110000Y-99040000D02*
X76110000Y-100350000D01*
G75*
G02*
X75840000Y-100620000I-270000J0D01*
G01*
X75030000Y-100620000D01*
G75*
G02*
X74760000Y-100350000I0J270000D01*
G01*
X74760000Y-99040000D01*
G75*
G02*
X75030000Y-98770000I270000J0D01*
G01*
X75840000Y-98770000D01*
G75*
G02*
X76110000Y-99040000I0J-270000D01*
G01*
G37*
G36*
G01*
X78910000Y-99040000D02*
X78910000Y-100350000D01*
G75*
G02*
X78640000Y-100620000I-270000J0D01*
G01*
X77830000Y-100620000D01*
G75*
G02*
X77560000Y-100350000I0J270000D01*
G01*
X77560000Y-99040000D01*
G75*
G02*
X77830000Y-98770000I270000J0D01*
G01*
X78640000Y-98770000D01*
G75*
G02*
X78910000Y-99040000I0J-270000D01*
G01*
G37*
%TD*%
%TO.C,C6*%
G36*
G01*
X76290000Y-140101000D02*
X76290000Y-138791000D01*
G75*
G02*
X76560000Y-138521000I270000J0D01*
G01*
X77370000Y-138521000D01*
G75*
G02*
X77640000Y-138791000I0J-270000D01*
G01*
X77640000Y-140101000D01*
G75*
G02*
X77370000Y-140371000I-270000J0D01*
G01*
X76560000Y-140371000D01*
G75*
G02*
X76290000Y-140101000I0J270000D01*
G01*
G37*
G36*
G01*
X73490000Y-140101000D02*
X73490000Y-138791000D01*
G75*
G02*
X73760000Y-138521000I270000J0D01*
G01*
X74570000Y-138521000D01*
G75*
G02*
X74840000Y-138791000I0J-270000D01*
G01*
X74840000Y-140101000D01*
G75*
G02*
X74570000Y-140371000I-270000J0D01*
G01*
X73760000Y-140371000D01*
G75*
G02*
X73490000Y-140101000I0J270000D01*
G01*
G37*
%TD*%
%TO.C,C1*%
G36*
G01*
X80809000Y-138791000D02*
X80809000Y-140101000D01*
G75*
G02*
X80539000Y-140371000I-270000J0D01*
G01*
X79729000Y-140371000D01*
G75*
G02*
X79459000Y-140101000I0J270000D01*
G01*
X79459000Y-138791000D01*
G75*
G02*
X79729000Y-138521000I270000J0D01*
G01*
X80539000Y-138521000D01*
G75*
G02*
X80809000Y-138791000I0J-270000D01*
G01*
G37*
G36*
G01*
X83609000Y-138791000D02*
X83609000Y-140101000D01*
G75*
G02*
X83339000Y-140371000I-270000J0D01*
G01*
X82529000Y-140371000D01*
G75*
G02*
X82259000Y-140101000I0J270000D01*
G01*
X82259000Y-138791000D01*
G75*
G02*
X82529000Y-138521000I270000J0D01*
G01*
X83339000Y-138521000D01*
G75*
G02*
X83609000Y-138791000I0J-270000D01*
G01*
G37*
%TD*%
D19*
%TO.C,J1*%
X65532000Y-109149000D03*
D20*
X65532000Y-112649000D03*
%TD*%
D21*
%TO.C,D6*%
X65532000Y-121920000D03*
D22*
X65532000Y-119380000D03*
%TD*%
D21*
%TO.C,D5*%
X65532000Y-137160000D03*
D22*
X65532000Y-134620000D03*
%TD*%
D21*
%TO.C,D4*%
X65532000Y-127000000D03*
D22*
X65532000Y-124460000D03*
%TD*%
D21*
%TO.C,D2*%
X65532000Y-132080000D03*
D22*
X65532000Y-129540000D03*
%TD*%
M02*
