%TF.GenerationSoftware,KiCad,Pcbnew,(5.1.6)-1*%
%TF.CreationDate,2021-01-28T12:38:02+01:00*%
%TF.ProjectId,ebus,65627573-2e6b-4696-9361-645f70636258,rev?*%
%TF.SameCoordinates,Original*%
%TF.FileFunction,Copper,L2,Bot*%
%TF.FilePolarity,Positive*%
%FSLAX46Y46*%
G04 Gerber Fmt 4.6, Leading zero omitted, Abs format (unit mm)*
G04 Created by KiCad (PCBNEW (5.1.6)-1) date 2021-01-28 12:38:02*
%MOMM*%
%LPD*%
G01*
G04 APERTURE LIST*
%TA.AperFunction,ComponentPad*%
%ADD10O,1.600000X1.600000*%
%TD*%
%TA.AperFunction,ComponentPad*%
%ADD11R,1.600000X1.600000*%
%TD*%
%TA.AperFunction,ComponentPad*%
%ADD12C,1.600000*%
%TD*%
%TA.AperFunction,ComponentPad*%
%ADD13O,1.905000X2.000000*%
%TD*%
%TA.AperFunction,ComponentPad*%
%ADD14R,1.905000X2.000000*%
%TD*%
%TA.AperFunction,ComponentPad*%
%ADD15R,1.500000X1.050000*%
%TD*%
%TA.AperFunction,ComponentPad*%
%ADD16O,1.500000X1.050000*%
%TD*%
%TA.AperFunction,ComponentPad*%
%ADD17O,1.700000X1.700000*%
%TD*%
%TA.AperFunction,ComponentPad*%
%ADD18R,1.700000X1.700000*%
%TD*%
%TA.AperFunction,ComponentPad*%
%ADD19O,1.150000X1.800000*%
%TD*%
%TA.AperFunction,ComponentPad*%
%ADD20O,1.450000X2.000000*%
%TD*%
%TA.AperFunction,ComponentPad*%
%ADD21C,2.400000*%
%TD*%
%TA.AperFunction,ComponentPad*%
%ADD22R,2.400000X2.400000*%
%TD*%
%TA.AperFunction,ComponentPad*%
%ADD23C,1.800000*%
%TD*%
%TA.AperFunction,ComponentPad*%
%ADD24R,1.800000X1.800000*%
%TD*%
%TA.AperFunction,ComponentPad*%
%ADD25O,2.200000X2.200000*%
%TD*%
%TA.AperFunction,ComponentPad*%
%ADD26R,2.200000X2.200000*%
%TD*%
%TA.AperFunction,ViaPad*%
%ADD27C,1.600000*%
%TD*%
%TA.AperFunction,ViaPad*%
%ADD28C,0.800000*%
%TD*%
%TA.AperFunction,Conductor*%
%ADD29C,0.500000*%
%TD*%
%TA.AperFunction,Conductor*%
%ADD30C,0.250000*%
%TD*%
%TA.AperFunction,Conductor*%
%ADD31C,0.254000*%
%TD*%
G04 APERTURE END LIST*
D10*
%TO.P,D7,2*%
%TO.N,SIGNAL*%
X53340000Y-111760000D03*
D11*
%TO.P,D7,1*%
%TO.N,Net-(C1-Pad1)*%
X53340000Y-119380000D03*
%TD*%
D12*
%TO.P,C6,2*%
%TO.N,GNDD*%
X53340000Y-107910000D03*
%TO.P,C6,1*%
%TO.N,+5V*%
X53340000Y-105410000D03*
%TD*%
D10*
%TO.P,U4,6*%
%TO.N,N/C*%
X82550000Y-118110000D03*
%TO.P,U4,3*%
X90170000Y-113030000D03*
%TO.P,U4,5*%
%TO.N,RX*%
X82550000Y-115570000D03*
%TO.P,U4,2*%
%TO.N,Net-(U1-Pad7)*%
X90170000Y-115570000D03*
%TO.P,U4,4*%
%TO.N,GNDREF*%
X82550000Y-113030000D03*
D11*
%TO.P,U4,1*%
%TO.N,Net-(R14-Pad1)*%
X90170000Y-118110000D03*
%TD*%
D13*
%TO.P,U3,3*%
%TO.N,+5V*%
X43180000Y-113792000D03*
%TO.P,U3,2*%
%TO.N,GNDD*%
X45720000Y-113792000D03*
D14*
%TO.P,U3,1*%
%TO.N,Net-(C1-Pad1)*%
X48260000Y-113792000D03*
%TD*%
D10*
%TO.P,U2,6*%
%TO.N,N/C*%
X71120000Y-137160000D03*
%TO.P,U2,3*%
X78740000Y-132080000D03*
%TO.P,U2,5*%
%TO.N,Net-(D2-Pad1)*%
X71120000Y-134620000D03*
%TO.P,U2,2*%
%TO.N,TX*%
X78740000Y-134620000D03*
%TO.P,U2,4*%
%TO.N,Net-(Q1-Pad2)*%
X71120000Y-132080000D03*
D11*
%TO.P,U2,1*%
%TO.N,Net-(R13-Pad2)*%
X78740000Y-137160000D03*
%TD*%
D10*
%TO.P,U1,8*%
%TO.N,+5V*%
X90170000Y-99060000D03*
%TO.P,U1,4*%
%TO.N,GNDD*%
X82550000Y-106680000D03*
%TO.P,U1,7*%
%TO.N,Net-(U1-Pad7)*%
X90170000Y-101600000D03*
%TO.P,U1,3*%
%TO.N,Net-(R10-Pad2)*%
X82550000Y-104140000D03*
%TO.P,U1,6*%
%TO.N,Net-(R10-Pad1)*%
X90170000Y-104140000D03*
%TO.P,U1,2*%
%TO.N,Net-(R3-Pad1)*%
X82550000Y-101600000D03*
%TO.P,U1,5*%
%TO.N,Net-(R10-Pad2)*%
X90170000Y-106680000D03*
D11*
%TO.P,U1,1*%
%TO.N,Net-(R10-Pad1)*%
X82550000Y-99060000D03*
%TD*%
D10*
%TO.P,R19,2*%
%TO.N,+5VP*%
X83820000Y-92710000D03*
D12*
%TO.P,R19,1*%
%TO.N,Net-(D6-Pad2)*%
X83820000Y-85090000D03*
%TD*%
D10*
%TO.P,R17,2*%
%TO.N,+5V*%
X53340000Y-92710000D03*
D12*
%TO.P,R17,1*%
%TO.N,Net-(D5-Pad2)*%
X53340000Y-85090000D03*
%TD*%
D10*
%TO.P,R16,2*%
%TO.N,+3V3*%
X73660000Y-92710000D03*
D12*
%TO.P,R16,1*%
%TO.N,Net-(D4-Pad2)*%
X73660000Y-85090000D03*
%TD*%
D10*
%TO.P,R15,2*%
%TO.N,+3V3*%
X69850000Y-119380000D03*
D12*
%TO.P,R15,1*%
%TO.N,RX*%
X77470000Y-119380000D03*
%TD*%
D10*
%TO.P,R14,2*%
%TO.N,+5V*%
X69850000Y-114300000D03*
D12*
%TO.P,R14,1*%
%TO.N,Net-(R14-Pad1)*%
X77470000Y-114300000D03*
%TD*%
D10*
%TO.P,R13,2*%
%TO.N,Net-(R13-Pad2)*%
X82550000Y-124460000D03*
D12*
%TO.P,R13,1*%
%TO.N,+3V3*%
X90170000Y-124460000D03*
%TD*%
D10*
%TO.P,R12,2*%
%TO.N,+3V3*%
X69850000Y-124460000D03*
D12*
%TO.P,R12,1*%
%TO.N,TX*%
X77470000Y-124460000D03*
%TD*%
D10*
%TO.P,R11,2*%
%TO.N,+5V*%
X57150000Y-109220000D03*
D12*
%TO.P,R11,1*%
%TO.N,Net-(R10-Pad1)*%
X64770000Y-109220000D03*
%TD*%
D10*
%TO.P,R10,2*%
%TO.N,Net-(R10-Pad2)*%
X77470000Y-109220000D03*
D12*
%TO.P,R10,1*%
%TO.N,Net-(R10-Pad1)*%
X69850000Y-109220000D03*
%TD*%
D10*
%TO.P,R9,2*%
%TO.N,+5V*%
X57150000Y-104140000D03*
D12*
%TO.P,R9,1*%
%TO.N,Net-(R10-Pad2)*%
X64770000Y-104140000D03*
%TD*%
D10*
%TO.P,R8,2*%
%TO.N,+5V*%
X57150000Y-99060000D03*
D12*
%TO.P,R8,1*%
%TO.N,Net-(R10-Pad2)*%
X64770000Y-99060000D03*
%TD*%
D10*
%TO.P,R7,2*%
%TO.N,Net-(R2-Pad1)*%
X77470000Y-104140000D03*
D12*
%TO.P,R7,1*%
%TO.N,Net-(R10-Pad2)*%
X69850000Y-104140000D03*
%TD*%
D10*
%TO.P,R6,2*%
%TO.N,+5V*%
X63500000Y-92710000D03*
D12*
%TO.P,R6,1*%
%TO.N,Net-(D2-Pad2)*%
X63500000Y-85090000D03*
%TD*%
D10*
%TO.P,R5,2*%
%TO.N,Net-(R4-Pad1)*%
X64770000Y-124460000D03*
D12*
%TO.P,R5,1*%
%TO.N,GNDD*%
X57150000Y-124460000D03*
%TD*%
D10*
%TO.P,R4,2*%
%TO.N,Net-(R3-Pad1)*%
X64770000Y-119380000D03*
D12*
%TO.P,R4,1*%
%TO.N,Net-(R4-Pad1)*%
X57150000Y-119380000D03*
%TD*%
D10*
%TO.P,R3,2*%
%TO.N,SIGNAL*%
X57150000Y-114300000D03*
D12*
%TO.P,R3,1*%
%TO.N,Net-(R3-Pad1)*%
X64770000Y-114300000D03*
%TD*%
D10*
%TO.P,R2,2*%
%TO.N,GNDD*%
X77470000Y-99060000D03*
D12*
%TO.P,R2,1*%
%TO.N,Net-(R2-Pad1)*%
X69850000Y-99060000D03*
%TD*%
D10*
%TO.P,R1,2*%
%TO.N,GNDD*%
X53340000Y-134620000D03*
D12*
%TO.P,R1,1*%
%TO.N,Net-(Q1-Pad2)*%
X60960000Y-134620000D03*
%TD*%
D15*
%TO.P,Q1,1*%
%TO.N,Net-(D1-Pad2)*%
X66040000Y-134620000D03*
D16*
%TO.P,Q1,3*%
%TO.N,GNDD*%
X66040000Y-137160000D03*
%TO.P,Q1,2*%
%TO.N,Net-(Q1-Pad2)*%
X66040000Y-135890000D03*
%TD*%
D17*
%TO.P,J6,4*%
%TO.N,GNDREF*%
X121920000Y-113284000D03*
%TO.P,J6,3*%
%TO.N,P_RX*%
X121920000Y-110744000D03*
%TO.P,J6,2*%
%TO.N,P_TX*%
X121920000Y-108204000D03*
D18*
%TO.P,J6,1*%
%TO.N,+5VP*%
X121920000Y-105664000D03*
%TD*%
D17*
%TO.P,J5,2*%
%TO.N,RESET*%
X121920000Y-99060000D03*
D18*
%TO.P,J5,1*%
%TO.N,GPIO0*%
X121920000Y-96520000D03*
%TD*%
D17*
%TO.P,J4,2*%
%TO.N,+5VP*%
X100330000Y-136906000D03*
D18*
%TO.P,J4,1*%
%TO.N,GNDREF*%
X100330000Y-134366000D03*
%TD*%
D19*
%TO.P,J3,6*%
%TO.N,GNDREF*%
X95061000Y-137840000D03*
X87311000Y-137840000D03*
D20*
X94911000Y-134040000D03*
X87461000Y-134040000D03*
%TD*%
D17*
%TO.P,J2,4*%
%TO.N,+3V3*%
X121920000Y-128016000D03*
%TO.P,J2,3*%
%TO.N,RX*%
X121920000Y-125476000D03*
%TO.P,J2,2*%
%TO.N,TX*%
X121920000Y-122936000D03*
D18*
%TO.P,J2,1*%
%TO.N,GNDREF*%
X121920000Y-120396000D03*
%TD*%
D21*
%TO.P,J1,2*%
%TO.N,Net-(D3-Pad4)*%
X44450000Y-94940000D03*
D22*
%TO.P,J1,1*%
%TO.N,Net-(D3-Pad3)*%
X44450000Y-91440000D03*
%TD*%
D23*
%TO.P,D6,2*%
%TO.N,Net-(D6-Pad2)*%
X87630000Y-85852000D03*
D24*
%TO.P,D6,1*%
%TO.N,GNDREF*%
X90170000Y-85852000D03*
%TD*%
D23*
%TO.P,D5,2*%
%TO.N,Net-(D5-Pad2)*%
X57150000Y-85852000D03*
D24*
%TO.P,D5,1*%
%TO.N,GNDD*%
X59690000Y-85852000D03*
%TD*%
D23*
%TO.P,D4,2*%
%TO.N,Net-(D4-Pad2)*%
X77470000Y-85852000D03*
D24*
%TO.P,D4,1*%
%TO.N,RX*%
X80010000Y-85852000D03*
%TD*%
D11*
%TO.P,D3,1*%
%TO.N,SIGNAL*%
X43180000Y-106680000D03*
D10*
%TO.P,D3,3*%
%TO.N,Net-(D3-Pad3)*%
X48260000Y-99060000D03*
%TO.P,D3,2*%
%TO.N,GNDD*%
X48260000Y-106680000D03*
%TO.P,D3,4*%
%TO.N,Net-(D3-Pad4)*%
X43180000Y-99060000D03*
%TD*%
D23*
%TO.P,D2,2*%
%TO.N,Net-(D2-Pad2)*%
X67310000Y-85852000D03*
D24*
%TO.P,D2,1*%
%TO.N,Net-(D2-Pad1)*%
X69850000Y-85852000D03*
%TD*%
D25*
%TO.P,D1,2*%
%TO.N,Net-(D1-Pad2)*%
X67310000Y-130810000D03*
D26*
%TO.P,D1,1*%
%TO.N,SIGNAL*%
X57150000Y-130810000D03*
%TD*%
D12*
%TO.P,C1,2*%
%TO.N,GNDD*%
X45760000Y-109982000D03*
%TO.P,C1,1*%
%TO.N,Net-(C1-Pad1)*%
X48260000Y-109982000D03*
%TD*%
D27*
%TO.N,GNDD*%
X80010000Y-103050000D03*
D28*
X86360000Y-108712000D03*
X87122000Y-116078000D03*
D27*
%TO.N,GNDREF*%
X115570000Y-120470000D03*
X109220000Y-120470000D03*
D28*
X117602000Y-131572000D03*
X120142000Y-132842000D03*
X117856000Y-97028000D03*
X119634000Y-99568000D03*
X117856000Y-91694000D03*
X120396000Y-90932000D03*
%TO.N,+5VP*%
X91186000Y-132334000D03*
D27*
%TO.N,Net-(D2-Pad1)*%
X62230000Y-102870000D03*
X62230000Y-99060000D03*
%TO.N,TX*%
X80010000Y-120470000D03*
X90998306Y-121091694D03*
D28*
%TO.N,GPIO0*%
X116115000Y-101025000D03*
%TO.N,P_RX*%
X116840000Y-95250000D03*
%TD*%
D29*
%TO.N,GNDD*%
X57150000Y-124460000D02*
X52070000Y-129540000D01*
X52070000Y-133350000D02*
X53340000Y-134620000D01*
X52070000Y-129540000D02*
X52070000Y-133350000D01*
X54790001Y-90751999D02*
X59690000Y-85852000D01*
X54790001Y-100149999D02*
X54790001Y-90751999D01*
X48260000Y-106680000D02*
X54790001Y-100149999D01*
X82550000Y-106680000D02*
X80010000Y-104140000D01*
X80010000Y-104140000D02*
X80010000Y-103050000D01*
X55150003Y-100510001D02*
X54790001Y-100149999D01*
X76019999Y-100510001D02*
X55150003Y-100510001D01*
X77470000Y-99060000D02*
X76019999Y-100510001D01*
X49490000Y-107910000D02*
X48260000Y-106680000D01*
X53340000Y-107910000D02*
X49490000Y-107910000D01*
%TO.N,GNDREF*%
X121846000Y-120470000D02*
X121920000Y-120396000D01*
X115570000Y-120470000D02*
X121846000Y-120470000D01*
X115570000Y-120470000D02*
X109220000Y-120470000D01*
X82550000Y-113030000D02*
X82550000Y-109982000D01*
X88819999Y-87202001D02*
X90170000Y-85852000D01*
X87477997Y-87202001D02*
X88819999Y-87202001D01*
X82569999Y-92109999D02*
X87477997Y-87202001D01*
X84700011Y-95440013D02*
X82569999Y-93310001D01*
X84700011Y-107831989D02*
X84700011Y-95440013D01*
X82569999Y-93310001D02*
X82569999Y-92109999D01*
X82550000Y-109982000D02*
X84700011Y-107831989D01*
%TO.N,+5VP*%
X123420001Y-128736001D02*
X122616002Y-129540000D01*
X121920000Y-105664000D02*
X123420001Y-107164001D01*
X123420001Y-107164001D02*
X123420001Y-128736001D01*
X121920000Y-129540000D02*
X116840000Y-134620000D01*
X122616002Y-129540000D02*
X121920000Y-129540000D01*
X116840000Y-134620000D02*
X116840000Y-135890000D01*
X116840000Y-135890000D02*
X114300000Y-138430000D01*
X101854000Y-138430000D02*
X100330000Y-136906000D01*
X114300000Y-138430000D02*
X101854000Y-138430000D01*
X123420001Y-104163999D02*
X121920000Y-105664000D01*
X123420001Y-95149999D02*
X123420001Y-104163999D01*
X120980002Y-92710000D02*
X123420001Y-95149999D01*
X83820000Y-92710000D02*
X120980002Y-92710000D01*
%TO.N,+3V3*%
X118364000Y-124460000D02*
X121920000Y-128016000D01*
X90170000Y-124460000D02*
X118364000Y-124460000D01*
%TO.N,Net-(D2-Pad1)*%
X62230000Y-119346004D02*
X62230000Y-102870000D01*
X69669999Y-126786003D02*
X62230000Y-119346004D01*
X71120000Y-134620000D02*
X69669999Y-133169999D01*
X69669999Y-133169999D02*
X69669999Y-126786003D01*
X69850000Y-91440000D02*
X69850000Y-85852000D01*
X62230000Y-99060000D02*
X69850000Y-91440000D01*
%TO.N,RX*%
X80010000Y-92318808D02*
X80010000Y-85852000D01*
X84000001Y-96308809D02*
X80010000Y-92318808D01*
X84000001Y-107376001D02*
X84000001Y-96308809D01*
X81099999Y-110276003D02*
X84000001Y-107376001D01*
X81099999Y-114119999D02*
X81099999Y-110276003D01*
X82550000Y-115570000D02*
X81099999Y-114119999D01*
X121920000Y-125476000D02*
X120003990Y-123559990D01*
X91415992Y-123559990D02*
X88506002Y-120650000D01*
X120003990Y-123559990D02*
X91415992Y-123559990D01*
X87630000Y-120650000D02*
X82550000Y-115570000D01*
X88506002Y-120650000D02*
X87630000Y-120650000D01*
%TO.N,Net-(D6-Pad2)*%
X86868000Y-85090000D02*
X87630000Y-85852000D01*
X83820000Y-85090000D02*
X86868000Y-85090000D01*
%TO.N,TX*%
X80010000Y-121920000D02*
X77470000Y-124460000D01*
X80010000Y-120470000D02*
X80010000Y-121920000D01*
X121920000Y-122936000D02*
X121412000Y-122428000D01*
X92334612Y-122428000D02*
X90998306Y-121091694D01*
X121412000Y-122428000D02*
X92334612Y-122428000D01*
D30*
%TO.N,GPIO0*%
X121920000Y-96520000D02*
X120620000Y-96520000D01*
X120620000Y-96520000D02*
X116115000Y-101025000D01*
%TO.N,P_RX*%
X115389999Y-96700001D02*
X116840000Y-95250000D01*
X121920000Y-110744000D02*
X115389999Y-104213999D01*
X115389999Y-104213999D02*
X115389999Y-96700001D01*
D29*
%TO.N,Net-(R3-Pad1)*%
X64770000Y-112153998D02*
X64770000Y-114300000D01*
X75323998Y-101600000D02*
X64770000Y-112153998D01*
X82550000Y-101600000D02*
X75323998Y-101600000D01*
%TO.N,Net-(C1-Pad1)*%
X48260000Y-114300000D02*
X53340000Y-119380000D01*
X48260000Y-113792000D02*
X48260000Y-114300000D01*
%TD*%
D31*
%TO.N,GNDD*%
G36*
X92583000Y-91825000D02*
G01*
X84954521Y-91825000D01*
X84934637Y-91795241D01*
X84734759Y-91595363D01*
X84499727Y-91438320D01*
X84495151Y-91436425D01*
X87844576Y-88087001D01*
X88776530Y-88087001D01*
X88819999Y-88091282D01*
X88863468Y-88087001D01*
X88863476Y-88087001D01*
X88993489Y-88074196D01*
X89160312Y-88023590D01*
X89314058Y-87941412D01*
X89448816Y-87830818D01*
X89476533Y-87797045D01*
X89883506Y-87390072D01*
X91070000Y-87390072D01*
X91194482Y-87377812D01*
X91314180Y-87341502D01*
X91424494Y-87282537D01*
X91521185Y-87203185D01*
X91600537Y-87106494D01*
X91659502Y-86996180D01*
X91695812Y-86876482D01*
X91708072Y-86752000D01*
X91708072Y-84952000D01*
X91695812Y-84827518D01*
X91659502Y-84707820D01*
X91600537Y-84597506D01*
X91521185Y-84500815D01*
X91424494Y-84421463D01*
X91314180Y-84362498D01*
X91194482Y-84326188D01*
X91070000Y-84313928D01*
X89270000Y-84313928D01*
X89145518Y-84326188D01*
X89025820Y-84362498D01*
X88915506Y-84421463D01*
X88818815Y-84500815D01*
X88739463Y-84597506D01*
X88680498Y-84707820D01*
X88674944Y-84726127D01*
X88608505Y-84659688D01*
X88357095Y-84491701D01*
X88077743Y-84375989D01*
X87781184Y-84317000D01*
X87478816Y-84317000D01*
X87347927Y-84343035D01*
X87208313Y-84268411D01*
X87041490Y-84217805D01*
X86911477Y-84205000D01*
X86911469Y-84205000D01*
X86868000Y-84200719D01*
X86824531Y-84205000D01*
X84954521Y-84205000D01*
X84934637Y-84175241D01*
X84734759Y-83975363D01*
X84499727Y-83818320D01*
X84238574Y-83710147D01*
X83961335Y-83655000D01*
X83678665Y-83655000D01*
X83401426Y-83710147D01*
X83140273Y-83818320D01*
X82905241Y-83975363D01*
X82705363Y-84175241D01*
X82548320Y-84410273D01*
X82440147Y-84671426D01*
X82385000Y-84948665D01*
X82385000Y-85231335D01*
X82440147Y-85508574D01*
X82548320Y-85769727D01*
X82705363Y-86004759D01*
X82905241Y-86204637D01*
X83140273Y-86361680D01*
X83401426Y-86469853D01*
X83678665Y-86525000D01*
X83961335Y-86525000D01*
X84238574Y-86469853D01*
X84499727Y-86361680D01*
X84734759Y-86204637D01*
X84934637Y-86004759D01*
X84954521Y-85975000D01*
X86095000Y-85975000D01*
X86095000Y-86003184D01*
X86153989Y-86299743D01*
X86269701Y-86579095D01*
X86437688Y-86830505D01*
X86517801Y-86910618D01*
X81974951Y-91453469D01*
X81941183Y-91481182D01*
X81913470Y-91514950D01*
X81913467Y-91514953D01*
X81830589Y-91615940D01*
X81748411Y-91769686D01*
X81697804Y-91936509D01*
X81680718Y-92109999D01*
X81685000Y-92153477D01*
X81684999Y-92742229D01*
X80895000Y-91952230D01*
X80895000Y-87390072D01*
X80910000Y-87390072D01*
X81034482Y-87377812D01*
X81154180Y-87341502D01*
X81264494Y-87282537D01*
X81361185Y-87203185D01*
X81440537Y-87106494D01*
X81499502Y-86996180D01*
X81535812Y-86876482D01*
X81548072Y-86752000D01*
X81548072Y-84952000D01*
X81535812Y-84827518D01*
X81499502Y-84707820D01*
X81440537Y-84597506D01*
X81361185Y-84500815D01*
X81264494Y-84421463D01*
X81154180Y-84362498D01*
X81034482Y-84326188D01*
X80910000Y-84313928D01*
X79110000Y-84313928D01*
X78985518Y-84326188D01*
X78865820Y-84362498D01*
X78755506Y-84421463D01*
X78658815Y-84500815D01*
X78579463Y-84597506D01*
X78520498Y-84707820D01*
X78514944Y-84726127D01*
X78448505Y-84659688D01*
X78197095Y-84491701D01*
X77917743Y-84375989D01*
X77621184Y-84317000D01*
X77318816Y-84317000D01*
X77022257Y-84375989D01*
X76742905Y-84491701D01*
X76491495Y-84659688D01*
X76277688Y-84873495D01*
X76109701Y-85124905D01*
X75993989Y-85404257D01*
X75935000Y-85700816D01*
X75935000Y-86003184D01*
X75993989Y-86299743D01*
X76109701Y-86579095D01*
X76277688Y-86830505D01*
X76491495Y-87044312D01*
X76742905Y-87212299D01*
X77022257Y-87328011D01*
X77318816Y-87387000D01*
X77621184Y-87387000D01*
X77917743Y-87328011D01*
X78197095Y-87212299D01*
X78448505Y-87044312D01*
X78514944Y-86977873D01*
X78520498Y-86996180D01*
X78579463Y-87106494D01*
X78658815Y-87203185D01*
X78755506Y-87282537D01*
X78865820Y-87341502D01*
X78985518Y-87377812D01*
X79110000Y-87390072D01*
X79125001Y-87390072D01*
X79125000Y-92275339D01*
X79120719Y-92318808D01*
X79125000Y-92362277D01*
X79125000Y-92362284D01*
X79137805Y-92492297D01*
X79188411Y-92659120D01*
X79270589Y-92812866D01*
X79381183Y-92947625D01*
X79414956Y-92975342D01*
X83115002Y-96675389D01*
X83115002Y-97621928D01*
X81750000Y-97621928D01*
X81625518Y-97634188D01*
X81505820Y-97670498D01*
X81395506Y-97729463D01*
X81298815Y-97808815D01*
X81219463Y-97905506D01*
X81160498Y-98015820D01*
X81124188Y-98135518D01*
X81111928Y-98260000D01*
X81111928Y-99860000D01*
X81124188Y-99984482D01*
X81160498Y-100104180D01*
X81219463Y-100214494D01*
X81298815Y-100311185D01*
X81395506Y-100390537D01*
X81505820Y-100449502D01*
X81625518Y-100485812D01*
X81633961Y-100486643D01*
X81435363Y-100685241D01*
X81415479Y-100715000D01*
X75367463Y-100715000D01*
X75323997Y-100710719D01*
X75280531Y-100715000D01*
X75280521Y-100715000D01*
X75150508Y-100727805D01*
X74983685Y-100778411D01*
X74829939Y-100860589D01*
X74829937Y-100860590D01*
X74829938Y-100860590D01*
X74728951Y-100943468D01*
X74728949Y-100943470D01*
X74695181Y-100971183D01*
X74667468Y-101004951D01*
X71258659Y-104413761D01*
X71285000Y-104281335D01*
X71285000Y-103998665D01*
X71229853Y-103721426D01*
X71121680Y-103460273D01*
X70964637Y-103225241D01*
X70764759Y-103025363D01*
X70529727Y-102868320D01*
X70268574Y-102760147D01*
X69991335Y-102705000D01*
X69708665Y-102705000D01*
X69431426Y-102760147D01*
X69170273Y-102868320D01*
X68935241Y-103025363D01*
X68735363Y-103225241D01*
X68578320Y-103460273D01*
X68470147Y-103721426D01*
X68415000Y-103998665D01*
X68415000Y-104281335D01*
X68470147Y-104558574D01*
X68578320Y-104819727D01*
X68735363Y-105054759D01*
X68935241Y-105254637D01*
X69170273Y-105411680D01*
X69431426Y-105519853D01*
X69708665Y-105575000D01*
X69991335Y-105575000D01*
X70123761Y-105548658D01*
X66178658Y-109493761D01*
X66205000Y-109361335D01*
X66205000Y-109078665D01*
X66149853Y-108801426D01*
X66041680Y-108540273D01*
X65884637Y-108305241D01*
X65684759Y-108105363D01*
X65449727Y-107948320D01*
X65188574Y-107840147D01*
X64911335Y-107785000D01*
X64628665Y-107785000D01*
X64351426Y-107840147D01*
X64090273Y-107948320D01*
X63855241Y-108105363D01*
X63655363Y-108305241D01*
X63498320Y-108540273D01*
X63390147Y-108801426D01*
X63335000Y-109078665D01*
X63335000Y-109361335D01*
X63390147Y-109638574D01*
X63498320Y-109899727D01*
X63655363Y-110134759D01*
X63855241Y-110334637D01*
X64090273Y-110491680D01*
X64351426Y-110599853D01*
X64628665Y-110655000D01*
X64911335Y-110655000D01*
X65043762Y-110628658D01*
X64174956Y-111497464D01*
X64141183Y-111525181D01*
X64030589Y-111659940D01*
X63948411Y-111813686D01*
X63897805Y-111980509D01*
X63885000Y-112110522D01*
X63885000Y-112110529D01*
X63880719Y-112153998D01*
X63885000Y-112197467D01*
X63885000Y-113165478D01*
X63855241Y-113185363D01*
X63655363Y-113385241D01*
X63498320Y-113620273D01*
X63390147Y-113881426D01*
X63335000Y-114158665D01*
X63335000Y-114441335D01*
X63390147Y-114718574D01*
X63498320Y-114979727D01*
X63655363Y-115214759D01*
X63855241Y-115414637D01*
X64090273Y-115571680D01*
X64351426Y-115679853D01*
X64628665Y-115735000D01*
X64911335Y-115735000D01*
X65188574Y-115679853D01*
X65449727Y-115571680D01*
X65684759Y-115414637D01*
X65884637Y-115214759D01*
X66041680Y-114979727D01*
X66149853Y-114718574D01*
X66205000Y-114441335D01*
X66205000Y-114158665D01*
X68415000Y-114158665D01*
X68415000Y-114441335D01*
X68470147Y-114718574D01*
X68578320Y-114979727D01*
X68735363Y-115214759D01*
X68935241Y-115414637D01*
X69170273Y-115571680D01*
X69431426Y-115679853D01*
X69708665Y-115735000D01*
X69991335Y-115735000D01*
X70268574Y-115679853D01*
X70529727Y-115571680D01*
X70764759Y-115414637D01*
X70964637Y-115214759D01*
X71121680Y-114979727D01*
X71229853Y-114718574D01*
X71285000Y-114441335D01*
X71285000Y-114158665D01*
X76035000Y-114158665D01*
X76035000Y-114441335D01*
X76090147Y-114718574D01*
X76198320Y-114979727D01*
X76355363Y-115214759D01*
X76555241Y-115414637D01*
X76790273Y-115571680D01*
X77051426Y-115679853D01*
X77328665Y-115735000D01*
X77611335Y-115735000D01*
X77888574Y-115679853D01*
X78149727Y-115571680D01*
X78384759Y-115414637D01*
X78584637Y-115214759D01*
X78741680Y-114979727D01*
X78849853Y-114718574D01*
X78905000Y-114441335D01*
X78905000Y-114158665D01*
X78849853Y-113881426D01*
X78741680Y-113620273D01*
X78584637Y-113385241D01*
X78384759Y-113185363D01*
X78149727Y-113028320D01*
X77888574Y-112920147D01*
X77611335Y-112865000D01*
X77328665Y-112865000D01*
X77051426Y-112920147D01*
X76790273Y-113028320D01*
X76555241Y-113185363D01*
X76355363Y-113385241D01*
X76198320Y-113620273D01*
X76090147Y-113881426D01*
X76035000Y-114158665D01*
X71285000Y-114158665D01*
X71229853Y-113881426D01*
X71121680Y-113620273D01*
X70964637Y-113385241D01*
X70764759Y-113185363D01*
X70529727Y-113028320D01*
X70268574Y-112920147D01*
X69991335Y-112865000D01*
X69708665Y-112865000D01*
X69431426Y-112920147D01*
X69170273Y-113028320D01*
X68935241Y-113185363D01*
X68735363Y-113385241D01*
X68578320Y-113620273D01*
X68470147Y-113881426D01*
X68415000Y-114158665D01*
X66205000Y-114158665D01*
X66149853Y-113881426D01*
X66041680Y-113620273D01*
X65884637Y-113385241D01*
X65684759Y-113185363D01*
X65655000Y-113165479D01*
X65655000Y-112520576D01*
X68489728Y-109685848D01*
X68578320Y-109899727D01*
X68735363Y-110134759D01*
X68935241Y-110334637D01*
X69170273Y-110491680D01*
X69431426Y-110599853D01*
X69708665Y-110655000D01*
X69991335Y-110655000D01*
X70268574Y-110599853D01*
X70529727Y-110491680D01*
X70764759Y-110334637D01*
X70964637Y-110134759D01*
X71121680Y-109899727D01*
X71229853Y-109638574D01*
X71285000Y-109361335D01*
X71285000Y-109078665D01*
X76035000Y-109078665D01*
X76035000Y-109361335D01*
X76090147Y-109638574D01*
X76198320Y-109899727D01*
X76355363Y-110134759D01*
X76555241Y-110334637D01*
X76790273Y-110491680D01*
X77051426Y-110599853D01*
X77328665Y-110655000D01*
X77611335Y-110655000D01*
X77888574Y-110599853D01*
X78149727Y-110491680D01*
X78384759Y-110334637D01*
X78584637Y-110134759D01*
X78741680Y-109899727D01*
X78849853Y-109638574D01*
X78905000Y-109361335D01*
X78905000Y-109078665D01*
X78849853Y-108801426D01*
X78741680Y-108540273D01*
X78584637Y-108305241D01*
X78384759Y-108105363D01*
X78149727Y-107948320D01*
X77888574Y-107840147D01*
X77611335Y-107785000D01*
X77328665Y-107785000D01*
X77051426Y-107840147D01*
X76790273Y-107948320D01*
X76555241Y-108105363D01*
X76355363Y-108305241D01*
X76198320Y-108540273D01*
X76090147Y-108801426D01*
X76035000Y-109078665D01*
X71285000Y-109078665D01*
X71229853Y-108801426D01*
X71121680Y-108540273D01*
X70964637Y-108305241D01*
X70764759Y-108105363D01*
X70529727Y-107948320D01*
X70315848Y-107859728D01*
X74176911Y-103998665D01*
X76035000Y-103998665D01*
X76035000Y-104281335D01*
X76090147Y-104558574D01*
X76198320Y-104819727D01*
X76355363Y-105054759D01*
X76555241Y-105254637D01*
X76790273Y-105411680D01*
X77051426Y-105519853D01*
X77328665Y-105575000D01*
X77611335Y-105575000D01*
X77888574Y-105519853D01*
X78149727Y-105411680D01*
X78384759Y-105254637D01*
X78584637Y-105054759D01*
X78741680Y-104819727D01*
X78849853Y-104558574D01*
X78905000Y-104281335D01*
X78905000Y-103998665D01*
X78849853Y-103721426D01*
X78741680Y-103460273D01*
X78584637Y-103225241D01*
X78384759Y-103025363D01*
X78149727Y-102868320D01*
X77888574Y-102760147D01*
X77611335Y-102705000D01*
X77328665Y-102705000D01*
X77051426Y-102760147D01*
X76790273Y-102868320D01*
X76555241Y-103025363D01*
X76355363Y-103225241D01*
X76198320Y-103460273D01*
X76090147Y-103721426D01*
X76035000Y-103998665D01*
X74176911Y-103998665D01*
X75690577Y-102485000D01*
X81415479Y-102485000D01*
X81435363Y-102514759D01*
X81635241Y-102714637D01*
X81867759Y-102870000D01*
X81635241Y-103025363D01*
X81435363Y-103225241D01*
X81278320Y-103460273D01*
X81170147Y-103721426D01*
X81115000Y-103998665D01*
X81115000Y-104281335D01*
X81170147Y-104558574D01*
X81278320Y-104819727D01*
X81435363Y-105054759D01*
X81635241Y-105254637D01*
X81870273Y-105411680D01*
X81880865Y-105416067D01*
X81694869Y-105527615D01*
X81486481Y-105716586D01*
X81318963Y-105942580D01*
X81198754Y-106196913D01*
X81158096Y-106330961D01*
X81280085Y-106553000D01*
X82423000Y-106553000D01*
X82423000Y-106533000D01*
X82677000Y-106533000D01*
X82677000Y-106553000D01*
X82697000Y-106553000D01*
X82697000Y-106807000D01*
X82677000Y-106807000D01*
X82677000Y-106827000D01*
X82423000Y-106827000D01*
X82423000Y-106807000D01*
X81280085Y-106807000D01*
X81158096Y-107029039D01*
X81198754Y-107163087D01*
X81318963Y-107417420D01*
X81486481Y-107643414D01*
X81694869Y-107832385D01*
X81936119Y-107977070D01*
X82091656Y-108032767D01*
X80504950Y-109619474D01*
X80471183Y-109647186D01*
X80443470Y-109680954D01*
X80443467Y-109680957D01*
X80360589Y-109781944D01*
X80278411Y-109935690D01*
X80227804Y-110102513D01*
X80210718Y-110276003D01*
X80215000Y-110319482D01*
X80214999Y-114076530D01*
X80210718Y-114119999D01*
X80214999Y-114163468D01*
X80214999Y-114163475D01*
X80227804Y-114293488D01*
X80278410Y-114460311D01*
X80360588Y-114614057D01*
X80471182Y-114748816D01*
X80504955Y-114776533D01*
X81121983Y-115393561D01*
X81115000Y-115428665D01*
X81115000Y-115711335D01*
X81170147Y-115988574D01*
X81278320Y-116249727D01*
X81435363Y-116484759D01*
X81635241Y-116684637D01*
X81867759Y-116840000D01*
X81635241Y-116995363D01*
X81435363Y-117195241D01*
X81278320Y-117430273D01*
X81170147Y-117691426D01*
X81115000Y-117968665D01*
X81115000Y-118251335D01*
X81170147Y-118528574D01*
X81278320Y-118789727D01*
X81435363Y-119024759D01*
X81635241Y-119224637D01*
X81870273Y-119381680D01*
X82131426Y-119489853D01*
X82408665Y-119545000D01*
X82691335Y-119545000D01*
X82968574Y-119489853D01*
X83229727Y-119381680D01*
X83464759Y-119224637D01*
X83664637Y-119024759D01*
X83821680Y-118789727D01*
X83929853Y-118528574D01*
X83984130Y-118255708D01*
X86973470Y-121245049D01*
X87001183Y-121278817D01*
X87034951Y-121306530D01*
X87034953Y-121306532D01*
X87130273Y-121384759D01*
X87135941Y-121389411D01*
X87289687Y-121471589D01*
X87456510Y-121522195D01*
X87586523Y-121535000D01*
X87586531Y-121535000D01*
X87630000Y-121539281D01*
X87673469Y-121535000D01*
X88139424Y-121535000D01*
X89704152Y-123099729D01*
X89490273Y-123188320D01*
X89255241Y-123345363D01*
X89055363Y-123545241D01*
X88898320Y-123780273D01*
X88790147Y-124041426D01*
X88735000Y-124318665D01*
X88735000Y-124601335D01*
X88790147Y-124878574D01*
X88898320Y-125139727D01*
X89055363Y-125374759D01*
X89255241Y-125574637D01*
X89490273Y-125731680D01*
X89751426Y-125839853D01*
X90028665Y-125895000D01*
X90311335Y-125895000D01*
X90588574Y-125839853D01*
X90849727Y-125731680D01*
X91084759Y-125574637D01*
X91284637Y-125374759D01*
X91304521Y-125345000D01*
X92583000Y-125345000D01*
X92583000Y-130429000D01*
X85852000Y-130429000D01*
X85827224Y-130431440D01*
X85803399Y-130438667D01*
X85781443Y-130450403D01*
X85762197Y-130466197D01*
X85746403Y-130485443D01*
X85734667Y-130507399D01*
X85727440Y-130531224D01*
X85725000Y-130556000D01*
X85725000Y-139040000D01*
X40792000Y-139040000D01*
X40792000Y-136431872D01*
X40945000Y-136431872D01*
X40945000Y-136872128D01*
X41030890Y-137303925D01*
X41199369Y-137710669D01*
X41443962Y-138076729D01*
X41755271Y-138388038D01*
X42121331Y-138632631D01*
X42528075Y-138801110D01*
X42959872Y-138887000D01*
X43400128Y-138887000D01*
X43831925Y-138801110D01*
X44238669Y-138632631D01*
X44604729Y-138388038D01*
X44916038Y-138076729D01*
X45160631Y-137710669D01*
X45262054Y-137465810D01*
X64696036Y-137465810D01*
X64704728Y-137527337D01*
X64797725Y-137736882D01*
X64929816Y-137924258D01*
X65095924Y-138082264D01*
X65289666Y-138204828D01*
X65503596Y-138287239D01*
X65729493Y-138326331D01*
X65913000Y-138166598D01*
X65913000Y-137287000D01*
X66167000Y-137287000D01*
X66167000Y-138166598D01*
X66350507Y-138326331D01*
X66576404Y-138287239D01*
X66790334Y-138204828D01*
X66984076Y-138082264D01*
X67150184Y-137924258D01*
X67282275Y-137736882D01*
X67375272Y-137527337D01*
X67383964Y-137465810D01*
X67258163Y-137287000D01*
X66167000Y-137287000D01*
X65913000Y-137287000D01*
X64821837Y-137287000D01*
X64696036Y-137465810D01*
X45262054Y-137465810D01*
X45329110Y-137303925D01*
X45415000Y-136872128D01*
X45415000Y-136431872D01*
X45329110Y-136000075D01*
X45160631Y-135593331D01*
X44916038Y-135227271D01*
X44657806Y-134969039D01*
X51948096Y-134969039D01*
X51988754Y-135103087D01*
X52108963Y-135357420D01*
X52276481Y-135583414D01*
X52484869Y-135772385D01*
X52726119Y-135917070D01*
X52990960Y-136011909D01*
X53213000Y-135890624D01*
X53213000Y-134747000D01*
X53467000Y-134747000D01*
X53467000Y-135890624D01*
X53689040Y-136011909D01*
X53953881Y-135917070D01*
X54195131Y-135772385D01*
X54403519Y-135583414D01*
X54571037Y-135357420D01*
X54691246Y-135103087D01*
X54731904Y-134969039D01*
X54609915Y-134747000D01*
X53467000Y-134747000D01*
X53213000Y-134747000D01*
X52070085Y-134747000D01*
X51948096Y-134969039D01*
X44657806Y-134969039D01*
X44604729Y-134915962D01*
X44238669Y-134671369D01*
X43831925Y-134502890D01*
X43400128Y-134417000D01*
X42959872Y-134417000D01*
X42528075Y-134502890D01*
X42121331Y-134671369D01*
X41755271Y-134915962D01*
X41443962Y-135227271D01*
X41199369Y-135593331D01*
X41030890Y-136000075D01*
X40945000Y-136431872D01*
X40792000Y-136431872D01*
X40792000Y-134270961D01*
X51948096Y-134270961D01*
X52070085Y-134493000D01*
X53213000Y-134493000D01*
X53213000Y-133349376D01*
X53467000Y-133349376D01*
X53467000Y-134493000D01*
X54609915Y-134493000D01*
X54617790Y-134478665D01*
X59525000Y-134478665D01*
X59525000Y-134761335D01*
X59580147Y-135038574D01*
X59688320Y-135299727D01*
X59845363Y-135534759D01*
X60045241Y-135734637D01*
X60280273Y-135891680D01*
X60541426Y-135999853D01*
X60818665Y-136055000D01*
X61101335Y-136055000D01*
X61378574Y-135999853D01*
X61639727Y-135891680D01*
X61642241Y-135890000D01*
X64649388Y-135890000D01*
X64671785Y-136117400D01*
X64738115Y-136336060D01*
X64838929Y-136524669D01*
X64797725Y-136583118D01*
X64704728Y-136792663D01*
X64696036Y-136854190D01*
X64821837Y-137033000D01*
X65586891Y-137033000D01*
X65587600Y-137033215D01*
X65758021Y-137050000D01*
X66321979Y-137050000D01*
X66492400Y-137033215D01*
X66493109Y-137033000D01*
X67258163Y-137033000D01*
X67383964Y-136854190D01*
X67375272Y-136792663D01*
X67282275Y-136583118D01*
X67241071Y-136524669D01*
X67341885Y-136336060D01*
X67408215Y-136117400D01*
X67430612Y-135890000D01*
X67408215Y-135662600D01*
X67344907Y-135453902D01*
X67379502Y-135389180D01*
X67415812Y-135269482D01*
X67428072Y-135145000D01*
X67428072Y-134095000D01*
X67415812Y-133970518D01*
X67379502Y-133850820D01*
X67320537Y-133740506D01*
X67241185Y-133643815D01*
X67144494Y-133564463D01*
X67034180Y-133505498D01*
X66914482Y-133469188D01*
X66790000Y-133456928D01*
X65290000Y-133456928D01*
X65165518Y-133469188D01*
X65045820Y-133505498D01*
X64935506Y-133564463D01*
X64838815Y-133643815D01*
X64759463Y-133740506D01*
X64700498Y-133850820D01*
X64664188Y-133970518D01*
X64651928Y-134095000D01*
X64651928Y-135145000D01*
X64664188Y-135269482D01*
X64700498Y-135389180D01*
X64735093Y-135453902D01*
X64671785Y-135662600D01*
X64649388Y-135890000D01*
X61642241Y-135890000D01*
X61874759Y-135734637D01*
X62074637Y-135534759D01*
X62231680Y-135299727D01*
X62339853Y-135038574D01*
X62395000Y-134761335D01*
X62395000Y-134478665D01*
X62339853Y-134201426D01*
X62231680Y-133940273D01*
X62074637Y-133705241D01*
X61874759Y-133505363D01*
X61639727Y-133348320D01*
X61378574Y-133240147D01*
X61101335Y-133185000D01*
X60818665Y-133185000D01*
X60541426Y-133240147D01*
X60280273Y-133348320D01*
X60045241Y-133505363D01*
X59845363Y-133705241D01*
X59688320Y-133940273D01*
X59580147Y-134201426D01*
X59525000Y-134478665D01*
X54617790Y-134478665D01*
X54731904Y-134270961D01*
X54691246Y-134136913D01*
X54571037Y-133882580D01*
X54403519Y-133656586D01*
X54195131Y-133467615D01*
X53953881Y-133322930D01*
X53689040Y-133228091D01*
X53467000Y-133349376D01*
X53213000Y-133349376D01*
X52990960Y-133228091D01*
X52726119Y-133322930D01*
X52484869Y-133467615D01*
X52276481Y-133656586D01*
X52108963Y-133882580D01*
X51988754Y-134136913D01*
X51948096Y-134270961D01*
X40792000Y-134270961D01*
X40792000Y-130217098D01*
X43335000Y-130217098D01*
X43335000Y-130686902D01*
X43426654Y-131147679D01*
X43606440Y-131581721D01*
X43867450Y-131972349D01*
X44199651Y-132304550D01*
X44590279Y-132565560D01*
X45024321Y-132745346D01*
X45485098Y-132837000D01*
X45954902Y-132837000D01*
X46415679Y-132745346D01*
X46849721Y-132565560D01*
X47240349Y-132304550D01*
X47572550Y-131972349D01*
X47833560Y-131581721D01*
X48013346Y-131147679D01*
X48105000Y-130686902D01*
X48105000Y-130217098D01*
X48013346Y-129756321D01*
X47994160Y-129710000D01*
X55411928Y-129710000D01*
X55411928Y-131910000D01*
X55424188Y-132034482D01*
X55460498Y-132154180D01*
X55519463Y-132264494D01*
X55598815Y-132361185D01*
X55695506Y-132440537D01*
X55805820Y-132499502D01*
X55925518Y-132535812D01*
X56050000Y-132548072D01*
X58250000Y-132548072D01*
X58374482Y-132535812D01*
X58494180Y-132499502D01*
X58604494Y-132440537D01*
X58701185Y-132361185D01*
X58780537Y-132264494D01*
X58839502Y-132154180D01*
X58875812Y-132034482D01*
X58888072Y-131910000D01*
X58888072Y-129710000D01*
X58875812Y-129585518D01*
X58839502Y-129465820D01*
X58780537Y-129355506D01*
X58701185Y-129258815D01*
X58604494Y-129179463D01*
X58494180Y-129120498D01*
X58374482Y-129084188D01*
X58250000Y-129071928D01*
X56050000Y-129071928D01*
X55925518Y-129084188D01*
X55805820Y-129120498D01*
X55695506Y-129179463D01*
X55598815Y-129258815D01*
X55519463Y-129355506D01*
X55460498Y-129465820D01*
X55424188Y-129585518D01*
X55411928Y-129710000D01*
X47994160Y-129710000D01*
X47833560Y-129322279D01*
X47572550Y-128931651D01*
X47240349Y-128599450D01*
X46849721Y-128338440D01*
X46415679Y-128158654D01*
X45954902Y-128067000D01*
X45485098Y-128067000D01*
X45024321Y-128158654D01*
X44590279Y-128338440D01*
X44199651Y-128599450D01*
X43867450Y-128931651D01*
X43606440Y-129322279D01*
X43426654Y-129756321D01*
X43335000Y-130217098D01*
X40792000Y-130217098D01*
X40792000Y-125452702D01*
X56336903Y-125452702D01*
X56408486Y-125696671D01*
X56663996Y-125817571D01*
X56938184Y-125886300D01*
X57220512Y-125900217D01*
X57500130Y-125858787D01*
X57766292Y-125763603D01*
X57891514Y-125696671D01*
X57963097Y-125452702D01*
X57150000Y-124639605D01*
X56336903Y-125452702D01*
X40792000Y-125452702D01*
X40792000Y-124530512D01*
X55709783Y-124530512D01*
X55751213Y-124810130D01*
X55846397Y-125076292D01*
X55913329Y-125201514D01*
X56157298Y-125273097D01*
X56970395Y-124460000D01*
X57329605Y-124460000D01*
X58142702Y-125273097D01*
X58386671Y-125201514D01*
X58507571Y-124946004D01*
X58576300Y-124671816D01*
X58590217Y-124389488D01*
X58548787Y-124109870D01*
X58453603Y-123843708D01*
X58386671Y-123718486D01*
X58142702Y-123646903D01*
X57329605Y-124460000D01*
X56970395Y-124460000D01*
X56157298Y-123646903D01*
X55913329Y-123718486D01*
X55792429Y-123973996D01*
X55723700Y-124248184D01*
X55709783Y-124530512D01*
X40792000Y-124530512D01*
X40792000Y-123467298D01*
X56336903Y-123467298D01*
X57150000Y-124280395D01*
X57963097Y-123467298D01*
X57891514Y-123223329D01*
X57636004Y-123102429D01*
X57361816Y-123033700D01*
X57079488Y-123019783D01*
X56799870Y-123061213D01*
X56533708Y-123156397D01*
X56408486Y-123223329D01*
X56336903Y-123467298D01*
X40792000Y-123467298D01*
X40792000Y-113666514D01*
X41592500Y-113666514D01*
X41592500Y-113917485D01*
X41615470Y-114150703D01*
X41706245Y-114449948D01*
X41853655Y-114725734D01*
X42052037Y-114967463D01*
X42293765Y-115165845D01*
X42569551Y-115313255D01*
X42868796Y-115404030D01*
X43180000Y-115434681D01*
X43491203Y-115404030D01*
X43790448Y-115313255D01*
X44066234Y-115165845D01*
X44307963Y-114967463D01*
X44455163Y-114788101D01*
X44610563Y-114973315D01*
X44853077Y-115167969D01*
X45128906Y-115311571D01*
X45347020Y-115382563D01*
X45593000Y-115262594D01*
X45593000Y-113919000D01*
X45573000Y-113919000D01*
X45573000Y-113665000D01*
X45593000Y-113665000D01*
X45593000Y-112321406D01*
X45847000Y-112321406D01*
X45847000Y-113665000D01*
X45867000Y-113665000D01*
X45867000Y-113919000D01*
X45847000Y-113919000D01*
X45847000Y-115262594D01*
X46092980Y-115382563D01*
X46311094Y-115311571D01*
X46586923Y-115167969D01*
X46727941Y-115054781D01*
X46776963Y-115146494D01*
X46856315Y-115243185D01*
X46953006Y-115322537D01*
X47063320Y-115381502D01*
X47183018Y-115417812D01*
X47307500Y-115430072D01*
X48138494Y-115430072D01*
X51901928Y-119193507D01*
X51901928Y-120180000D01*
X51914188Y-120304482D01*
X51950498Y-120424180D01*
X52009463Y-120534494D01*
X52088815Y-120631185D01*
X52185506Y-120710537D01*
X52295820Y-120769502D01*
X52415518Y-120805812D01*
X52540000Y-120818072D01*
X54140000Y-120818072D01*
X54264482Y-120805812D01*
X54384180Y-120769502D01*
X54494494Y-120710537D01*
X54591185Y-120631185D01*
X54670537Y-120534494D01*
X54729502Y-120424180D01*
X54765812Y-120304482D01*
X54778072Y-120180000D01*
X54778072Y-119238665D01*
X55715000Y-119238665D01*
X55715000Y-119521335D01*
X55770147Y-119798574D01*
X55878320Y-120059727D01*
X56035363Y-120294759D01*
X56235241Y-120494637D01*
X56470273Y-120651680D01*
X56731426Y-120759853D01*
X57008665Y-120815000D01*
X57291335Y-120815000D01*
X57568574Y-120759853D01*
X57829727Y-120651680D01*
X58064759Y-120494637D01*
X58264637Y-120294759D01*
X58421680Y-120059727D01*
X58529853Y-119798574D01*
X58585000Y-119521335D01*
X58585000Y-119238665D01*
X58529853Y-118961426D01*
X58421680Y-118700273D01*
X58264637Y-118465241D01*
X58064759Y-118265363D01*
X57829727Y-118108320D01*
X57568574Y-118000147D01*
X57291335Y-117945000D01*
X57008665Y-117945000D01*
X56731426Y-118000147D01*
X56470273Y-118108320D01*
X56235241Y-118265363D01*
X56035363Y-118465241D01*
X55878320Y-118700273D01*
X55770147Y-118961426D01*
X55715000Y-119238665D01*
X54778072Y-119238665D01*
X54778072Y-118580000D01*
X54765812Y-118455518D01*
X54729502Y-118335820D01*
X54670537Y-118225506D01*
X54591185Y-118128815D01*
X54494494Y-118049463D01*
X54384180Y-117990498D01*
X54264482Y-117954188D01*
X54140000Y-117941928D01*
X53153507Y-117941928D01*
X49850572Y-114638994D01*
X49850572Y-114158665D01*
X55715000Y-114158665D01*
X55715000Y-114441335D01*
X55770147Y-114718574D01*
X55878320Y-114979727D01*
X56035363Y-115214759D01*
X56235241Y-115414637D01*
X56470273Y-115571680D01*
X56731426Y-115679853D01*
X57008665Y-115735000D01*
X57291335Y-115735000D01*
X57568574Y-115679853D01*
X57829727Y-115571680D01*
X58064759Y-115414637D01*
X58264637Y-115214759D01*
X58421680Y-114979727D01*
X58529853Y-114718574D01*
X58585000Y-114441335D01*
X58585000Y-114158665D01*
X58529853Y-113881426D01*
X58421680Y-113620273D01*
X58264637Y-113385241D01*
X58064759Y-113185363D01*
X57829727Y-113028320D01*
X57568574Y-112920147D01*
X57291335Y-112865000D01*
X57008665Y-112865000D01*
X56731426Y-112920147D01*
X56470273Y-113028320D01*
X56235241Y-113185363D01*
X56035363Y-113385241D01*
X55878320Y-113620273D01*
X55770147Y-113881426D01*
X55715000Y-114158665D01*
X49850572Y-114158665D01*
X49850572Y-112792000D01*
X49838312Y-112667518D01*
X49802002Y-112547820D01*
X49743037Y-112437506D01*
X49663685Y-112340815D01*
X49566994Y-112261463D01*
X49456680Y-112202498D01*
X49336982Y-112166188D01*
X49212500Y-112153928D01*
X47307500Y-112153928D01*
X47183018Y-112166188D01*
X47063320Y-112202498D01*
X46953006Y-112261463D01*
X46856315Y-112340815D01*
X46776963Y-112437506D01*
X46727941Y-112529219D01*
X46586923Y-112416031D01*
X46311094Y-112272429D01*
X46092980Y-112201437D01*
X45847000Y-112321406D01*
X45593000Y-112321406D01*
X45347020Y-112201437D01*
X45128906Y-112272429D01*
X44853077Y-112416031D01*
X44610563Y-112610685D01*
X44455162Y-112795900D01*
X44307963Y-112616537D01*
X44066235Y-112418155D01*
X43790449Y-112270745D01*
X43491204Y-112179970D01*
X43180000Y-112149319D01*
X42868797Y-112179970D01*
X42569552Y-112270745D01*
X42293766Y-112418155D01*
X42052037Y-112616537D01*
X41853655Y-112858265D01*
X41706245Y-113134051D01*
X41615470Y-113433296D01*
X41592500Y-113666514D01*
X40792000Y-113666514D01*
X40792000Y-111618665D01*
X51905000Y-111618665D01*
X51905000Y-111901335D01*
X51960147Y-112178574D01*
X52068320Y-112439727D01*
X52225363Y-112674759D01*
X52425241Y-112874637D01*
X52660273Y-113031680D01*
X52921426Y-113139853D01*
X53198665Y-113195000D01*
X53481335Y-113195000D01*
X53758574Y-113139853D01*
X54019727Y-113031680D01*
X54254759Y-112874637D01*
X54454637Y-112674759D01*
X54611680Y-112439727D01*
X54719853Y-112178574D01*
X54775000Y-111901335D01*
X54775000Y-111618665D01*
X54719853Y-111341426D01*
X54611680Y-111080273D01*
X54454637Y-110845241D01*
X54254759Y-110645363D01*
X54019727Y-110488320D01*
X53758574Y-110380147D01*
X53481335Y-110325000D01*
X53198665Y-110325000D01*
X52921426Y-110380147D01*
X52660273Y-110488320D01*
X52425241Y-110645363D01*
X52225363Y-110845241D01*
X52068320Y-111080273D01*
X51960147Y-111341426D01*
X51905000Y-111618665D01*
X40792000Y-111618665D01*
X40792000Y-110974702D01*
X44946903Y-110974702D01*
X45018486Y-111218671D01*
X45273996Y-111339571D01*
X45548184Y-111408300D01*
X45830512Y-111422217D01*
X46110130Y-111380787D01*
X46376292Y-111285603D01*
X46501514Y-111218671D01*
X46573097Y-110974702D01*
X45760000Y-110161605D01*
X44946903Y-110974702D01*
X40792000Y-110974702D01*
X40792000Y-110052512D01*
X44319783Y-110052512D01*
X44361213Y-110332130D01*
X44456397Y-110598292D01*
X44523329Y-110723514D01*
X44767298Y-110795097D01*
X45580395Y-109982000D01*
X45939605Y-109982000D01*
X46752702Y-110795097D01*
X46996671Y-110723514D01*
X47010324Y-110694659D01*
X47145363Y-110896759D01*
X47345241Y-111096637D01*
X47580273Y-111253680D01*
X47841426Y-111361853D01*
X48118665Y-111417000D01*
X48401335Y-111417000D01*
X48678574Y-111361853D01*
X48939727Y-111253680D01*
X49174759Y-111096637D01*
X49374637Y-110896759D01*
X49531680Y-110661727D01*
X49639853Y-110400574D01*
X49695000Y-110123335D01*
X49695000Y-109840665D01*
X49639853Y-109563426D01*
X49531680Y-109302273D01*
X49374637Y-109067241D01*
X49210098Y-108902702D01*
X52526903Y-108902702D01*
X52598486Y-109146671D01*
X52853996Y-109267571D01*
X53128184Y-109336300D01*
X53410512Y-109350217D01*
X53690130Y-109308787D01*
X53956292Y-109213603D01*
X54081514Y-109146671D01*
X54101467Y-109078665D01*
X55715000Y-109078665D01*
X55715000Y-109361335D01*
X55770147Y-109638574D01*
X55878320Y-109899727D01*
X56035363Y-110134759D01*
X56235241Y-110334637D01*
X56470273Y-110491680D01*
X56731426Y-110599853D01*
X57008665Y-110655000D01*
X57291335Y-110655000D01*
X57568574Y-110599853D01*
X57829727Y-110491680D01*
X58064759Y-110334637D01*
X58264637Y-110134759D01*
X58421680Y-109899727D01*
X58529853Y-109638574D01*
X58585000Y-109361335D01*
X58585000Y-109078665D01*
X58529853Y-108801426D01*
X58421680Y-108540273D01*
X58264637Y-108305241D01*
X58064759Y-108105363D01*
X57829727Y-107948320D01*
X57568574Y-107840147D01*
X57291335Y-107785000D01*
X57008665Y-107785000D01*
X56731426Y-107840147D01*
X56470273Y-107948320D01*
X56235241Y-108105363D01*
X56035363Y-108305241D01*
X55878320Y-108540273D01*
X55770147Y-108801426D01*
X55715000Y-109078665D01*
X54101467Y-109078665D01*
X54153097Y-108902702D01*
X53340000Y-108089605D01*
X52526903Y-108902702D01*
X49210098Y-108902702D01*
X49174759Y-108867363D01*
X48939727Y-108710320D01*
X48678574Y-108602147D01*
X48401335Y-108547000D01*
X48118665Y-108547000D01*
X47841426Y-108602147D01*
X47580273Y-108710320D01*
X47345241Y-108867363D01*
X47145363Y-109067241D01*
X47011308Y-109267869D01*
X46996671Y-109240486D01*
X46752702Y-109168903D01*
X45939605Y-109982000D01*
X45580395Y-109982000D01*
X44767298Y-109168903D01*
X44523329Y-109240486D01*
X44402429Y-109495996D01*
X44333700Y-109770184D01*
X44319783Y-110052512D01*
X40792000Y-110052512D01*
X40792000Y-108989298D01*
X44946903Y-108989298D01*
X45760000Y-109802395D01*
X46573097Y-108989298D01*
X46501514Y-108745329D01*
X46246004Y-108624429D01*
X45971816Y-108555700D01*
X45689488Y-108541783D01*
X45409870Y-108583213D01*
X45143708Y-108678397D01*
X45018486Y-108745329D01*
X44946903Y-108989298D01*
X40792000Y-108989298D01*
X40792000Y-105880000D01*
X41741928Y-105880000D01*
X41741928Y-107480000D01*
X41754188Y-107604482D01*
X41790498Y-107724180D01*
X41849463Y-107834494D01*
X41928815Y-107931185D01*
X42025506Y-108010537D01*
X42135820Y-108069502D01*
X42255518Y-108105812D01*
X42380000Y-108118072D01*
X43980000Y-108118072D01*
X44104482Y-108105812D01*
X44224180Y-108069502D01*
X44334494Y-108010537D01*
X44431185Y-107931185D01*
X44510537Y-107834494D01*
X44569502Y-107724180D01*
X44605812Y-107604482D01*
X44618072Y-107480000D01*
X44618072Y-107029040D01*
X46868091Y-107029040D01*
X46962930Y-107293881D01*
X47107615Y-107535131D01*
X47296586Y-107743519D01*
X47522580Y-107911037D01*
X47776913Y-108031246D01*
X47910961Y-108071904D01*
X48133000Y-107949915D01*
X48133000Y-106807000D01*
X48387000Y-106807000D01*
X48387000Y-107949915D01*
X48609039Y-108071904D01*
X48743087Y-108031246D01*
X48850427Y-107980512D01*
X51899783Y-107980512D01*
X51941213Y-108260130D01*
X52036397Y-108526292D01*
X52103329Y-108651514D01*
X52347298Y-108723097D01*
X53160395Y-107910000D01*
X53519605Y-107910000D01*
X54332702Y-108723097D01*
X54576671Y-108651514D01*
X54697571Y-108396004D01*
X54766300Y-108121816D01*
X54780217Y-107839488D01*
X54738787Y-107559870D01*
X54643603Y-107293708D01*
X54576671Y-107168486D01*
X54332702Y-107096903D01*
X53519605Y-107910000D01*
X53160395Y-107910000D01*
X52347298Y-107096903D01*
X52103329Y-107168486D01*
X51982429Y-107423996D01*
X51913700Y-107698184D01*
X51899783Y-107980512D01*
X48850427Y-107980512D01*
X48997420Y-107911037D01*
X49223414Y-107743519D01*
X49412385Y-107535131D01*
X49557070Y-107293881D01*
X49651909Y-107029040D01*
X49530624Y-106807000D01*
X48387000Y-106807000D01*
X48133000Y-106807000D01*
X46989376Y-106807000D01*
X46868091Y-107029040D01*
X44618072Y-107029040D01*
X44618072Y-106330960D01*
X46868091Y-106330960D01*
X46989376Y-106553000D01*
X48133000Y-106553000D01*
X48133000Y-105410085D01*
X48387000Y-105410085D01*
X48387000Y-106553000D01*
X49530624Y-106553000D01*
X49651909Y-106330960D01*
X49557070Y-106066119D01*
X49412385Y-105824869D01*
X49223414Y-105616481D01*
X48997420Y-105448963D01*
X48743087Y-105328754D01*
X48609039Y-105288096D01*
X48387000Y-105410085D01*
X48133000Y-105410085D01*
X47910961Y-105288096D01*
X47776913Y-105328754D01*
X47522580Y-105448963D01*
X47296586Y-105616481D01*
X47107615Y-105824869D01*
X46962930Y-106066119D01*
X46868091Y-106330960D01*
X44618072Y-106330960D01*
X44618072Y-105880000D01*
X44605812Y-105755518D01*
X44569502Y-105635820D01*
X44510537Y-105525506D01*
X44431185Y-105428815D01*
X44334494Y-105349463D01*
X44224180Y-105290498D01*
X44152207Y-105268665D01*
X51905000Y-105268665D01*
X51905000Y-105551335D01*
X51960147Y-105828574D01*
X52068320Y-106089727D01*
X52225363Y-106324759D01*
X52425241Y-106524637D01*
X52625869Y-106658692D01*
X52598486Y-106673329D01*
X52526903Y-106917298D01*
X53340000Y-107730395D01*
X54153097Y-106917298D01*
X54081514Y-106673329D01*
X54052659Y-106659676D01*
X54254759Y-106524637D01*
X54454637Y-106324759D01*
X54611680Y-106089727D01*
X54719853Y-105828574D01*
X54775000Y-105551335D01*
X54775000Y-105268665D01*
X54719853Y-104991426D01*
X54611680Y-104730273D01*
X54454637Y-104495241D01*
X54254759Y-104295363D01*
X54019727Y-104138320D01*
X53758574Y-104030147D01*
X53600306Y-103998665D01*
X55715000Y-103998665D01*
X55715000Y-104281335D01*
X55770147Y-104558574D01*
X55878320Y-104819727D01*
X56035363Y-105054759D01*
X56235241Y-105254637D01*
X56470273Y-105411680D01*
X56731426Y-105519853D01*
X57008665Y-105575000D01*
X57291335Y-105575000D01*
X57568574Y-105519853D01*
X57829727Y-105411680D01*
X58064759Y-105254637D01*
X58264637Y-105054759D01*
X58421680Y-104819727D01*
X58529853Y-104558574D01*
X58585000Y-104281335D01*
X58585000Y-103998665D01*
X58529853Y-103721426D01*
X58421680Y-103460273D01*
X58264637Y-103225241D01*
X58064759Y-103025363D01*
X57829727Y-102868320D01*
X57568574Y-102760147D01*
X57410306Y-102728665D01*
X60795000Y-102728665D01*
X60795000Y-103011335D01*
X60850147Y-103288574D01*
X60958320Y-103549727D01*
X61115363Y-103784759D01*
X61315241Y-103984637D01*
X61345001Y-104004522D01*
X61345000Y-119302535D01*
X61340719Y-119346004D01*
X61345000Y-119389473D01*
X61345000Y-119389480D01*
X61350029Y-119440537D01*
X61357805Y-119519494D01*
X61366474Y-119548072D01*
X61408411Y-119686316D01*
X61490589Y-119840062D01*
X61601183Y-119974821D01*
X61634956Y-120002538D01*
X64657418Y-123025000D01*
X64628665Y-123025000D01*
X64351426Y-123080147D01*
X64090273Y-123188320D01*
X63855241Y-123345363D01*
X63655363Y-123545241D01*
X63498320Y-123780273D01*
X63390147Y-124041426D01*
X63335000Y-124318665D01*
X63335000Y-124601335D01*
X63390147Y-124878574D01*
X63498320Y-125139727D01*
X63655363Y-125374759D01*
X63855241Y-125574637D01*
X64090273Y-125731680D01*
X64351426Y-125839853D01*
X64628665Y-125895000D01*
X64911335Y-125895000D01*
X65188574Y-125839853D01*
X65449727Y-125731680D01*
X65684759Y-125574637D01*
X65884637Y-125374759D01*
X66041680Y-125139727D01*
X66149853Y-124878574D01*
X66205000Y-124601335D01*
X66205000Y-124572583D01*
X68785000Y-127152583D01*
X68785000Y-129894575D01*
X68657663Y-129704002D01*
X68415998Y-129462337D01*
X68131831Y-129272463D01*
X67816081Y-129141675D01*
X67480883Y-129075000D01*
X67139117Y-129075000D01*
X66803919Y-129141675D01*
X66488169Y-129272463D01*
X66204002Y-129462337D01*
X65962337Y-129704002D01*
X65772463Y-129988169D01*
X65641675Y-130303919D01*
X65575000Y-130639117D01*
X65575000Y-130980883D01*
X65641675Y-131316081D01*
X65772463Y-131631831D01*
X65962337Y-131915998D01*
X66204002Y-132157663D01*
X66488169Y-132347537D01*
X66803919Y-132478325D01*
X67139117Y-132545000D01*
X67480883Y-132545000D01*
X67816081Y-132478325D01*
X68131831Y-132347537D01*
X68415998Y-132157663D01*
X68657663Y-131915998D01*
X68784999Y-131725426D01*
X68784999Y-133126530D01*
X68780718Y-133169999D01*
X68784999Y-133213468D01*
X68784999Y-133213475D01*
X68797804Y-133343488D01*
X68848410Y-133510311D01*
X68930588Y-133664057D01*
X69041182Y-133798816D01*
X69074955Y-133826533D01*
X69691983Y-134443561D01*
X69685000Y-134478665D01*
X69685000Y-134761335D01*
X69740147Y-135038574D01*
X69848320Y-135299727D01*
X70005363Y-135534759D01*
X70205241Y-135734637D01*
X70437759Y-135890000D01*
X70205241Y-136045363D01*
X70005363Y-136245241D01*
X69848320Y-136480273D01*
X69740147Y-136741426D01*
X69685000Y-137018665D01*
X69685000Y-137301335D01*
X69740147Y-137578574D01*
X69848320Y-137839727D01*
X70005363Y-138074759D01*
X70205241Y-138274637D01*
X70440273Y-138431680D01*
X70701426Y-138539853D01*
X70978665Y-138595000D01*
X71261335Y-138595000D01*
X71538574Y-138539853D01*
X71799727Y-138431680D01*
X72034759Y-138274637D01*
X72234637Y-138074759D01*
X72391680Y-137839727D01*
X72499853Y-137578574D01*
X72555000Y-137301335D01*
X72555000Y-137018665D01*
X72499853Y-136741426D01*
X72391680Y-136480273D01*
X72311317Y-136360000D01*
X77301928Y-136360000D01*
X77301928Y-137960000D01*
X77314188Y-138084482D01*
X77350498Y-138204180D01*
X77409463Y-138314494D01*
X77488815Y-138411185D01*
X77585506Y-138490537D01*
X77695820Y-138549502D01*
X77815518Y-138585812D01*
X77940000Y-138598072D01*
X79540000Y-138598072D01*
X79664482Y-138585812D01*
X79784180Y-138549502D01*
X79894494Y-138490537D01*
X79991185Y-138411185D01*
X80070537Y-138314494D01*
X80129502Y-138204180D01*
X80165812Y-138084482D01*
X80178072Y-137960000D01*
X80178072Y-136360000D01*
X80165812Y-136235518D01*
X80129502Y-136115820D01*
X80070537Y-136005506D01*
X79991185Y-135908815D01*
X79894494Y-135829463D01*
X79784180Y-135770498D01*
X79664482Y-135734188D01*
X79656039Y-135733357D01*
X79854637Y-135534759D01*
X80011680Y-135299727D01*
X80119853Y-135038574D01*
X80175000Y-134761335D01*
X80175000Y-134478665D01*
X80119853Y-134201426D01*
X80011680Y-133940273D01*
X79854637Y-133705241D01*
X79654759Y-133505363D01*
X79422241Y-133350000D01*
X79654759Y-133194637D01*
X79854637Y-132994759D01*
X80011680Y-132759727D01*
X80119853Y-132498574D01*
X80175000Y-132221335D01*
X80175000Y-131938665D01*
X80119853Y-131661426D01*
X80011680Y-131400273D01*
X79854637Y-131165241D01*
X79654759Y-130965363D01*
X79419727Y-130808320D01*
X79158574Y-130700147D01*
X78881335Y-130645000D01*
X78598665Y-130645000D01*
X78321426Y-130700147D01*
X78060273Y-130808320D01*
X77825241Y-130965363D01*
X77625363Y-131165241D01*
X77468320Y-131400273D01*
X77360147Y-131661426D01*
X77305000Y-131938665D01*
X77305000Y-132221335D01*
X77360147Y-132498574D01*
X77468320Y-132759727D01*
X77625363Y-132994759D01*
X77825241Y-133194637D01*
X78057759Y-133350000D01*
X77825241Y-133505363D01*
X77625363Y-133705241D01*
X77468320Y-133940273D01*
X77360147Y-134201426D01*
X77305000Y-134478665D01*
X77305000Y-134761335D01*
X77360147Y-135038574D01*
X77468320Y-135299727D01*
X77625363Y-135534759D01*
X77823961Y-135733357D01*
X77815518Y-135734188D01*
X77695820Y-135770498D01*
X77585506Y-135829463D01*
X77488815Y-135908815D01*
X77409463Y-136005506D01*
X77350498Y-136115820D01*
X77314188Y-136235518D01*
X77301928Y-136360000D01*
X72311317Y-136360000D01*
X72234637Y-136245241D01*
X72034759Y-136045363D01*
X71802241Y-135890000D01*
X72034759Y-135734637D01*
X72234637Y-135534759D01*
X72391680Y-135299727D01*
X72499853Y-135038574D01*
X72555000Y-134761335D01*
X72555000Y-134478665D01*
X72499853Y-134201426D01*
X72391680Y-133940273D01*
X72234637Y-133705241D01*
X72034759Y-133505363D01*
X71802241Y-133350000D01*
X72034759Y-133194637D01*
X72234637Y-132994759D01*
X72391680Y-132759727D01*
X72499853Y-132498574D01*
X72555000Y-132221335D01*
X72555000Y-131938665D01*
X72499853Y-131661426D01*
X72391680Y-131400273D01*
X72234637Y-131165241D01*
X72034759Y-130965363D01*
X71799727Y-130808320D01*
X71538574Y-130700147D01*
X71261335Y-130645000D01*
X70978665Y-130645000D01*
X70701426Y-130700147D01*
X70554999Y-130760799D01*
X70554999Y-126829468D01*
X70559280Y-126786002D01*
X70554999Y-126742536D01*
X70554999Y-126742526D01*
X70542194Y-126612513D01*
X70491588Y-126445690D01*
X70409410Y-126291944D01*
X70298816Y-126157186D01*
X70265048Y-126129473D01*
X70024065Y-125888490D01*
X70268574Y-125839853D01*
X70529727Y-125731680D01*
X70764759Y-125574637D01*
X70964637Y-125374759D01*
X71121680Y-125139727D01*
X71229853Y-124878574D01*
X71285000Y-124601335D01*
X71285000Y-124318665D01*
X71229853Y-124041426D01*
X71121680Y-123780273D01*
X70964637Y-123545241D01*
X70764759Y-123345363D01*
X70529727Y-123188320D01*
X70268574Y-123080147D01*
X69991335Y-123025000D01*
X69708665Y-123025000D01*
X69431426Y-123080147D01*
X69170273Y-123188320D01*
X68935241Y-123345363D01*
X68735363Y-123545241D01*
X68578320Y-123780273D01*
X68470147Y-124041426D01*
X68421510Y-124285936D01*
X64944064Y-120808490D01*
X65188574Y-120759853D01*
X65449727Y-120651680D01*
X65684759Y-120494637D01*
X65884637Y-120294759D01*
X66041680Y-120059727D01*
X66149853Y-119798574D01*
X66205000Y-119521335D01*
X66205000Y-119238665D01*
X68415000Y-119238665D01*
X68415000Y-119521335D01*
X68470147Y-119798574D01*
X68578320Y-120059727D01*
X68735363Y-120294759D01*
X68935241Y-120494637D01*
X69170273Y-120651680D01*
X69431426Y-120759853D01*
X69708665Y-120815000D01*
X69991335Y-120815000D01*
X70268574Y-120759853D01*
X70529727Y-120651680D01*
X70764759Y-120494637D01*
X70964637Y-120294759D01*
X71121680Y-120059727D01*
X71229853Y-119798574D01*
X71285000Y-119521335D01*
X71285000Y-119238665D01*
X76035000Y-119238665D01*
X76035000Y-119521335D01*
X76090147Y-119798574D01*
X76198320Y-120059727D01*
X76355363Y-120294759D01*
X76555241Y-120494637D01*
X76790273Y-120651680D01*
X77051426Y-120759853D01*
X77328665Y-120815000D01*
X77611335Y-120815000D01*
X77888574Y-120759853D01*
X78149727Y-120651680D01*
X78384759Y-120494637D01*
X78581026Y-120298370D01*
X78575000Y-120328665D01*
X78575000Y-120611335D01*
X78630147Y-120888574D01*
X78738320Y-121149727D01*
X78895363Y-121384759D01*
X79094513Y-121583909D01*
X77646439Y-123031983D01*
X77611335Y-123025000D01*
X77328665Y-123025000D01*
X77051426Y-123080147D01*
X76790273Y-123188320D01*
X76555241Y-123345363D01*
X76355363Y-123545241D01*
X76198320Y-123780273D01*
X76090147Y-124041426D01*
X76035000Y-124318665D01*
X76035000Y-124601335D01*
X76090147Y-124878574D01*
X76198320Y-125139727D01*
X76355363Y-125374759D01*
X76555241Y-125574637D01*
X76790273Y-125731680D01*
X77051426Y-125839853D01*
X77328665Y-125895000D01*
X77611335Y-125895000D01*
X77888574Y-125839853D01*
X78149727Y-125731680D01*
X78384759Y-125574637D01*
X78584637Y-125374759D01*
X78741680Y-125139727D01*
X78849853Y-124878574D01*
X78905000Y-124601335D01*
X78905000Y-124318665D01*
X81115000Y-124318665D01*
X81115000Y-124601335D01*
X81170147Y-124878574D01*
X81278320Y-125139727D01*
X81435363Y-125374759D01*
X81635241Y-125574637D01*
X81870273Y-125731680D01*
X82131426Y-125839853D01*
X82408665Y-125895000D01*
X82691335Y-125895000D01*
X82968574Y-125839853D01*
X83229727Y-125731680D01*
X83464759Y-125574637D01*
X83664637Y-125374759D01*
X83821680Y-125139727D01*
X83929853Y-124878574D01*
X83985000Y-124601335D01*
X83985000Y-124318665D01*
X83929853Y-124041426D01*
X83821680Y-123780273D01*
X83664637Y-123545241D01*
X83464759Y-123345363D01*
X83229727Y-123188320D01*
X82968574Y-123080147D01*
X82691335Y-123025000D01*
X82408665Y-123025000D01*
X82131426Y-123080147D01*
X81870273Y-123188320D01*
X81635241Y-123345363D01*
X81435363Y-123545241D01*
X81278320Y-123780273D01*
X81170147Y-124041426D01*
X81115000Y-124318665D01*
X78905000Y-124318665D01*
X78898017Y-124283561D01*
X80605049Y-122576530D01*
X80638817Y-122548817D01*
X80702232Y-122471547D01*
X80749410Y-122414060D01*
X80831588Y-122260314D01*
X80831589Y-122260313D01*
X80882195Y-122093490D01*
X80895000Y-121963477D01*
X80895000Y-121963467D01*
X80899281Y-121920001D01*
X80895000Y-121876535D01*
X80895000Y-121604521D01*
X80924759Y-121584637D01*
X81124637Y-121384759D01*
X81281680Y-121149727D01*
X81389853Y-120888574D01*
X81445000Y-120611335D01*
X81445000Y-120328665D01*
X81389853Y-120051426D01*
X81281680Y-119790273D01*
X81124637Y-119555241D01*
X80924759Y-119355363D01*
X80689727Y-119198320D01*
X80428574Y-119090147D01*
X80151335Y-119035000D01*
X79868665Y-119035000D01*
X79591426Y-119090147D01*
X79330273Y-119198320D01*
X79095241Y-119355363D01*
X78898974Y-119551630D01*
X78905000Y-119521335D01*
X78905000Y-119238665D01*
X78849853Y-118961426D01*
X78741680Y-118700273D01*
X78584637Y-118465241D01*
X78384759Y-118265363D01*
X78149727Y-118108320D01*
X77888574Y-118000147D01*
X77611335Y-117945000D01*
X77328665Y-117945000D01*
X77051426Y-118000147D01*
X76790273Y-118108320D01*
X76555241Y-118265363D01*
X76355363Y-118465241D01*
X76198320Y-118700273D01*
X76090147Y-118961426D01*
X76035000Y-119238665D01*
X71285000Y-119238665D01*
X71229853Y-118961426D01*
X71121680Y-118700273D01*
X70964637Y-118465241D01*
X70764759Y-118265363D01*
X70529727Y-118108320D01*
X70268574Y-118000147D01*
X69991335Y-117945000D01*
X69708665Y-117945000D01*
X69431426Y-118000147D01*
X69170273Y-118108320D01*
X68935241Y-118265363D01*
X68735363Y-118465241D01*
X68578320Y-118700273D01*
X68470147Y-118961426D01*
X68415000Y-119238665D01*
X66205000Y-119238665D01*
X66149853Y-118961426D01*
X66041680Y-118700273D01*
X65884637Y-118465241D01*
X65684759Y-118265363D01*
X65449727Y-118108320D01*
X65188574Y-118000147D01*
X64911335Y-117945000D01*
X64628665Y-117945000D01*
X64351426Y-118000147D01*
X64090273Y-118108320D01*
X63855241Y-118265363D01*
X63655363Y-118465241D01*
X63498320Y-118700273D01*
X63390147Y-118961426D01*
X63341510Y-119205936D01*
X63115000Y-118979426D01*
X63115000Y-104004521D01*
X63144759Y-103984637D01*
X63344637Y-103784759D01*
X63395354Y-103708856D01*
X63390147Y-103721426D01*
X63335000Y-103998665D01*
X63335000Y-104281335D01*
X63390147Y-104558574D01*
X63498320Y-104819727D01*
X63655363Y-105054759D01*
X63855241Y-105254637D01*
X64090273Y-105411680D01*
X64351426Y-105519853D01*
X64628665Y-105575000D01*
X64911335Y-105575000D01*
X65188574Y-105519853D01*
X65449727Y-105411680D01*
X65684759Y-105254637D01*
X65884637Y-105054759D01*
X66041680Y-104819727D01*
X66149853Y-104558574D01*
X66205000Y-104281335D01*
X66205000Y-103998665D01*
X66149853Y-103721426D01*
X66041680Y-103460273D01*
X65884637Y-103225241D01*
X65684759Y-103025363D01*
X65449727Y-102868320D01*
X65188574Y-102760147D01*
X64911335Y-102705000D01*
X64628665Y-102705000D01*
X64351426Y-102760147D01*
X64090273Y-102868320D01*
X63855241Y-103025363D01*
X63655363Y-103225241D01*
X63604646Y-103301144D01*
X63609853Y-103288574D01*
X63665000Y-103011335D01*
X63665000Y-102728665D01*
X63609853Y-102451426D01*
X63501680Y-102190273D01*
X63344637Y-101955241D01*
X63144759Y-101755363D01*
X62909727Y-101598320D01*
X62648574Y-101490147D01*
X62371335Y-101435000D01*
X62088665Y-101435000D01*
X61811426Y-101490147D01*
X61550273Y-101598320D01*
X61315241Y-101755363D01*
X61115363Y-101955241D01*
X60958320Y-102190273D01*
X60850147Y-102451426D01*
X60795000Y-102728665D01*
X57410306Y-102728665D01*
X57291335Y-102705000D01*
X57008665Y-102705000D01*
X56731426Y-102760147D01*
X56470273Y-102868320D01*
X56235241Y-103025363D01*
X56035363Y-103225241D01*
X55878320Y-103460273D01*
X55770147Y-103721426D01*
X55715000Y-103998665D01*
X53600306Y-103998665D01*
X53481335Y-103975000D01*
X53198665Y-103975000D01*
X52921426Y-104030147D01*
X52660273Y-104138320D01*
X52425241Y-104295363D01*
X52225363Y-104495241D01*
X52068320Y-104730273D01*
X51960147Y-104991426D01*
X51905000Y-105268665D01*
X44152207Y-105268665D01*
X44104482Y-105254188D01*
X43980000Y-105241928D01*
X42380000Y-105241928D01*
X42255518Y-105254188D01*
X42135820Y-105290498D01*
X42025506Y-105349463D01*
X41928815Y-105428815D01*
X41849463Y-105525506D01*
X41790498Y-105635820D01*
X41754188Y-105755518D01*
X41741928Y-105880000D01*
X40792000Y-105880000D01*
X40792000Y-102489000D01*
X50038000Y-102489000D01*
X50062776Y-102486560D01*
X50086601Y-102479333D01*
X50108557Y-102467597D01*
X50127803Y-102451803D01*
X50143597Y-102432557D01*
X50155333Y-102410601D01*
X50162560Y-102386776D01*
X50165000Y-102362000D01*
X50165000Y-98918665D01*
X55715000Y-98918665D01*
X55715000Y-99201335D01*
X55770147Y-99478574D01*
X55878320Y-99739727D01*
X56035363Y-99974759D01*
X56235241Y-100174637D01*
X56470273Y-100331680D01*
X56731426Y-100439853D01*
X57008665Y-100495000D01*
X57291335Y-100495000D01*
X57568574Y-100439853D01*
X57829727Y-100331680D01*
X58064759Y-100174637D01*
X58264637Y-99974759D01*
X58421680Y-99739727D01*
X58529853Y-99478574D01*
X58585000Y-99201335D01*
X58585000Y-98918665D01*
X60795000Y-98918665D01*
X60795000Y-99201335D01*
X60850147Y-99478574D01*
X60958320Y-99739727D01*
X61115363Y-99974759D01*
X61315241Y-100174637D01*
X61550273Y-100331680D01*
X61811426Y-100439853D01*
X62088665Y-100495000D01*
X62371335Y-100495000D01*
X62648574Y-100439853D01*
X62909727Y-100331680D01*
X63144759Y-100174637D01*
X63344637Y-99974759D01*
X63500000Y-99742241D01*
X63655363Y-99974759D01*
X63855241Y-100174637D01*
X64090273Y-100331680D01*
X64351426Y-100439853D01*
X64628665Y-100495000D01*
X64911335Y-100495000D01*
X65188574Y-100439853D01*
X65449727Y-100331680D01*
X65684759Y-100174637D01*
X65884637Y-99974759D01*
X66041680Y-99739727D01*
X66149853Y-99478574D01*
X66205000Y-99201335D01*
X66205000Y-98918665D01*
X68415000Y-98918665D01*
X68415000Y-99201335D01*
X68470147Y-99478574D01*
X68578320Y-99739727D01*
X68735363Y-99974759D01*
X68935241Y-100174637D01*
X69170273Y-100331680D01*
X69431426Y-100439853D01*
X69708665Y-100495000D01*
X69991335Y-100495000D01*
X70268574Y-100439853D01*
X70529727Y-100331680D01*
X70764759Y-100174637D01*
X70964637Y-99974759D01*
X71121680Y-99739727D01*
X71229853Y-99478574D01*
X71243684Y-99409039D01*
X76078096Y-99409039D01*
X76118754Y-99543087D01*
X76238963Y-99797420D01*
X76406481Y-100023414D01*
X76614869Y-100212385D01*
X76856119Y-100357070D01*
X77120960Y-100451909D01*
X77343000Y-100330624D01*
X77343000Y-99187000D01*
X77597000Y-99187000D01*
X77597000Y-100330624D01*
X77819040Y-100451909D01*
X78083881Y-100357070D01*
X78325131Y-100212385D01*
X78533519Y-100023414D01*
X78701037Y-99797420D01*
X78821246Y-99543087D01*
X78861904Y-99409039D01*
X78739915Y-99187000D01*
X77597000Y-99187000D01*
X77343000Y-99187000D01*
X76200085Y-99187000D01*
X76078096Y-99409039D01*
X71243684Y-99409039D01*
X71285000Y-99201335D01*
X71285000Y-98918665D01*
X71243685Y-98710961D01*
X76078096Y-98710961D01*
X76200085Y-98933000D01*
X77343000Y-98933000D01*
X77343000Y-97789376D01*
X77597000Y-97789376D01*
X77597000Y-98933000D01*
X78739915Y-98933000D01*
X78861904Y-98710961D01*
X78821246Y-98576913D01*
X78701037Y-98322580D01*
X78533519Y-98096586D01*
X78325131Y-97907615D01*
X78083881Y-97762930D01*
X77819040Y-97668091D01*
X77597000Y-97789376D01*
X77343000Y-97789376D01*
X77120960Y-97668091D01*
X76856119Y-97762930D01*
X76614869Y-97907615D01*
X76406481Y-98096586D01*
X76238963Y-98322580D01*
X76118754Y-98576913D01*
X76078096Y-98710961D01*
X71243685Y-98710961D01*
X71229853Y-98641426D01*
X71121680Y-98380273D01*
X70964637Y-98145241D01*
X70764759Y-97945363D01*
X70529727Y-97788320D01*
X70268574Y-97680147D01*
X69991335Y-97625000D01*
X69708665Y-97625000D01*
X69431426Y-97680147D01*
X69170273Y-97788320D01*
X68935241Y-97945363D01*
X68735363Y-98145241D01*
X68578320Y-98380273D01*
X68470147Y-98641426D01*
X68415000Y-98918665D01*
X66205000Y-98918665D01*
X66149853Y-98641426D01*
X66041680Y-98380273D01*
X65884637Y-98145241D01*
X65684759Y-97945363D01*
X65449727Y-97788320D01*
X65188574Y-97680147D01*
X64915708Y-97625870D01*
X69972913Y-92568665D01*
X72225000Y-92568665D01*
X72225000Y-92851335D01*
X72280147Y-93128574D01*
X72388320Y-93389727D01*
X72545363Y-93624759D01*
X72745241Y-93824637D01*
X72980273Y-93981680D01*
X73241426Y-94089853D01*
X73518665Y-94145000D01*
X73801335Y-94145000D01*
X74078574Y-94089853D01*
X74339727Y-93981680D01*
X74574759Y-93824637D01*
X74774637Y-93624759D01*
X74931680Y-93389727D01*
X75039853Y-93128574D01*
X75095000Y-92851335D01*
X75095000Y-92568665D01*
X75039853Y-92291426D01*
X74931680Y-92030273D01*
X74774637Y-91795241D01*
X74574759Y-91595363D01*
X74339727Y-91438320D01*
X74078574Y-91330147D01*
X73801335Y-91275000D01*
X73518665Y-91275000D01*
X73241426Y-91330147D01*
X72980273Y-91438320D01*
X72745241Y-91595363D01*
X72545363Y-91795241D01*
X72388320Y-92030273D01*
X72280147Y-92291426D01*
X72225000Y-92568665D01*
X69972913Y-92568665D01*
X70445051Y-92096528D01*
X70478817Y-92068817D01*
X70589411Y-91934059D01*
X70671589Y-91780313D01*
X70722195Y-91613490D01*
X70735000Y-91483477D01*
X70735000Y-91483467D01*
X70739281Y-91440001D01*
X70735000Y-91396535D01*
X70735000Y-87390072D01*
X70750000Y-87390072D01*
X70874482Y-87377812D01*
X70994180Y-87341502D01*
X71104494Y-87282537D01*
X71201185Y-87203185D01*
X71280537Y-87106494D01*
X71339502Y-86996180D01*
X71375812Y-86876482D01*
X71388072Y-86752000D01*
X71388072Y-84952000D01*
X71387744Y-84948665D01*
X72225000Y-84948665D01*
X72225000Y-85231335D01*
X72280147Y-85508574D01*
X72388320Y-85769727D01*
X72545363Y-86004759D01*
X72745241Y-86204637D01*
X72980273Y-86361680D01*
X73241426Y-86469853D01*
X73518665Y-86525000D01*
X73801335Y-86525000D01*
X74078574Y-86469853D01*
X74339727Y-86361680D01*
X74574759Y-86204637D01*
X74774637Y-86004759D01*
X74931680Y-85769727D01*
X75039853Y-85508574D01*
X75095000Y-85231335D01*
X75095000Y-84948665D01*
X75039853Y-84671426D01*
X74931680Y-84410273D01*
X74774637Y-84175241D01*
X74574759Y-83975363D01*
X74339727Y-83818320D01*
X74078574Y-83710147D01*
X73801335Y-83655000D01*
X73518665Y-83655000D01*
X73241426Y-83710147D01*
X72980273Y-83818320D01*
X72745241Y-83975363D01*
X72545363Y-84175241D01*
X72388320Y-84410273D01*
X72280147Y-84671426D01*
X72225000Y-84948665D01*
X71387744Y-84948665D01*
X71375812Y-84827518D01*
X71339502Y-84707820D01*
X71280537Y-84597506D01*
X71201185Y-84500815D01*
X71104494Y-84421463D01*
X70994180Y-84362498D01*
X70874482Y-84326188D01*
X70750000Y-84313928D01*
X68950000Y-84313928D01*
X68825518Y-84326188D01*
X68705820Y-84362498D01*
X68595506Y-84421463D01*
X68498815Y-84500815D01*
X68419463Y-84597506D01*
X68360498Y-84707820D01*
X68354944Y-84726127D01*
X68288505Y-84659688D01*
X68037095Y-84491701D01*
X67757743Y-84375989D01*
X67461184Y-84317000D01*
X67158816Y-84317000D01*
X66862257Y-84375989D01*
X66582905Y-84491701D01*
X66331495Y-84659688D01*
X66117688Y-84873495D01*
X65949701Y-85124905D01*
X65833989Y-85404257D01*
X65775000Y-85700816D01*
X65775000Y-86003184D01*
X65833989Y-86299743D01*
X65949701Y-86579095D01*
X66117688Y-86830505D01*
X66331495Y-87044312D01*
X66582905Y-87212299D01*
X66862257Y-87328011D01*
X67158816Y-87387000D01*
X67461184Y-87387000D01*
X67757743Y-87328011D01*
X68037095Y-87212299D01*
X68288505Y-87044312D01*
X68354944Y-86977873D01*
X68360498Y-86996180D01*
X68419463Y-87106494D01*
X68498815Y-87203185D01*
X68595506Y-87282537D01*
X68705820Y-87341502D01*
X68825518Y-87377812D01*
X68950000Y-87390072D01*
X68965001Y-87390072D01*
X68965000Y-91073421D01*
X62406439Y-97631983D01*
X62371335Y-97625000D01*
X62088665Y-97625000D01*
X61811426Y-97680147D01*
X61550273Y-97788320D01*
X61315241Y-97945363D01*
X61115363Y-98145241D01*
X60958320Y-98380273D01*
X60850147Y-98641426D01*
X60795000Y-98918665D01*
X58585000Y-98918665D01*
X58529853Y-98641426D01*
X58421680Y-98380273D01*
X58264637Y-98145241D01*
X58064759Y-97945363D01*
X57829727Y-97788320D01*
X57568574Y-97680147D01*
X57291335Y-97625000D01*
X57008665Y-97625000D01*
X56731426Y-97680147D01*
X56470273Y-97788320D01*
X56235241Y-97945363D01*
X56035363Y-98145241D01*
X55878320Y-98380273D01*
X55770147Y-98641426D01*
X55715000Y-98918665D01*
X50165000Y-98918665D01*
X50165000Y-92568665D01*
X51905000Y-92568665D01*
X51905000Y-92851335D01*
X51960147Y-93128574D01*
X52068320Y-93389727D01*
X52225363Y-93624759D01*
X52425241Y-93824637D01*
X52660273Y-93981680D01*
X52921426Y-94089853D01*
X53198665Y-94145000D01*
X53481335Y-94145000D01*
X53758574Y-94089853D01*
X54019727Y-93981680D01*
X54254759Y-93824637D01*
X54454637Y-93624759D01*
X54611680Y-93389727D01*
X54719853Y-93128574D01*
X54775000Y-92851335D01*
X54775000Y-92568665D01*
X62065000Y-92568665D01*
X62065000Y-92851335D01*
X62120147Y-93128574D01*
X62228320Y-93389727D01*
X62385363Y-93624759D01*
X62585241Y-93824637D01*
X62820273Y-93981680D01*
X63081426Y-94089853D01*
X63358665Y-94145000D01*
X63641335Y-94145000D01*
X63918574Y-94089853D01*
X64179727Y-93981680D01*
X64414759Y-93824637D01*
X64614637Y-93624759D01*
X64771680Y-93389727D01*
X64879853Y-93128574D01*
X64935000Y-92851335D01*
X64935000Y-92568665D01*
X64879853Y-92291426D01*
X64771680Y-92030273D01*
X64614637Y-91795241D01*
X64414759Y-91595363D01*
X64179727Y-91438320D01*
X63918574Y-91330147D01*
X63641335Y-91275000D01*
X63358665Y-91275000D01*
X63081426Y-91330147D01*
X62820273Y-91438320D01*
X62585241Y-91595363D01*
X62385363Y-91795241D01*
X62228320Y-92030273D01*
X62120147Y-92291426D01*
X62065000Y-92568665D01*
X54775000Y-92568665D01*
X54719853Y-92291426D01*
X54611680Y-92030273D01*
X54454637Y-91795241D01*
X54254759Y-91595363D01*
X54019727Y-91438320D01*
X53758574Y-91330147D01*
X53481335Y-91275000D01*
X53198665Y-91275000D01*
X52921426Y-91330147D01*
X52660273Y-91438320D01*
X52425241Y-91595363D01*
X52225363Y-91795241D01*
X52068320Y-92030273D01*
X51960147Y-92291426D01*
X51905000Y-92568665D01*
X50165000Y-92568665D01*
X50165000Y-88900000D01*
X50162560Y-88875224D01*
X50155333Y-88851399D01*
X50143597Y-88829443D01*
X50127803Y-88810197D01*
X50108557Y-88794403D01*
X50086601Y-88782667D01*
X50062776Y-88775440D01*
X50038000Y-88773000D01*
X40792000Y-88773000D01*
X40792000Y-85631872D01*
X40945000Y-85631872D01*
X40945000Y-86072128D01*
X41030890Y-86503925D01*
X41199369Y-86910669D01*
X41443962Y-87276729D01*
X41755271Y-87588038D01*
X42121331Y-87832631D01*
X42528075Y-88001110D01*
X42959872Y-88087000D01*
X43400128Y-88087000D01*
X43831925Y-88001110D01*
X44238669Y-87832631D01*
X44604729Y-87588038D01*
X44916038Y-87276729D01*
X45160631Y-86910669D01*
X45329110Y-86503925D01*
X45415000Y-86072128D01*
X45415000Y-85631872D01*
X45329110Y-85200075D01*
X45224973Y-84948665D01*
X51905000Y-84948665D01*
X51905000Y-85231335D01*
X51960147Y-85508574D01*
X52068320Y-85769727D01*
X52225363Y-86004759D01*
X52425241Y-86204637D01*
X52660273Y-86361680D01*
X52921426Y-86469853D01*
X53198665Y-86525000D01*
X53481335Y-86525000D01*
X53758574Y-86469853D01*
X54019727Y-86361680D01*
X54254759Y-86204637D01*
X54454637Y-86004759D01*
X54611680Y-85769727D01*
X54640223Y-85700816D01*
X55615000Y-85700816D01*
X55615000Y-86003184D01*
X55673989Y-86299743D01*
X55789701Y-86579095D01*
X55957688Y-86830505D01*
X56171495Y-87044312D01*
X56422905Y-87212299D01*
X56702257Y-87328011D01*
X56998816Y-87387000D01*
X57301184Y-87387000D01*
X57597743Y-87328011D01*
X57877095Y-87212299D01*
X58128505Y-87044312D01*
X58194944Y-86977873D01*
X58200498Y-86996180D01*
X58259463Y-87106494D01*
X58338815Y-87203185D01*
X58435506Y-87282537D01*
X58545820Y-87341502D01*
X58665518Y-87377812D01*
X58790000Y-87390072D01*
X59404250Y-87387000D01*
X59563000Y-87228250D01*
X59563000Y-85979000D01*
X59817000Y-85979000D01*
X59817000Y-87228250D01*
X59975750Y-87387000D01*
X60590000Y-87390072D01*
X60714482Y-87377812D01*
X60834180Y-87341502D01*
X60944494Y-87282537D01*
X61041185Y-87203185D01*
X61120537Y-87106494D01*
X61179502Y-86996180D01*
X61215812Y-86876482D01*
X61228072Y-86752000D01*
X61225000Y-86137750D01*
X61066250Y-85979000D01*
X59817000Y-85979000D01*
X59563000Y-85979000D01*
X59543000Y-85979000D01*
X59543000Y-85725000D01*
X59563000Y-85725000D01*
X59563000Y-84475750D01*
X59817000Y-84475750D01*
X59817000Y-85725000D01*
X61066250Y-85725000D01*
X61225000Y-85566250D01*
X61228072Y-84952000D01*
X61227744Y-84948665D01*
X62065000Y-84948665D01*
X62065000Y-85231335D01*
X62120147Y-85508574D01*
X62228320Y-85769727D01*
X62385363Y-86004759D01*
X62585241Y-86204637D01*
X62820273Y-86361680D01*
X63081426Y-86469853D01*
X63358665Y-86525000D01*
X63641335Y-86525000D01*
X63918574Y-86469853D01*
X64179727Y-86361680D01*
X64414759Y-86204637D01*
X64614637Y-86004759D01*
X64771680Y-85769727D01*
X64879853Y-85508574D01*
X64935000Y-85231335D01*
X64935000Y-84948665D01*
X64879853Y-84671426D01*
X64771680Y-84410273D01*
X64614637Y-84175241D01*
X64414759Y-83975363D01*
X64179727Y-83818320D01*
X63918574Y-83710147D01*
X63641335Y-83655000D01*
X63358665Y-83655000D01*
X63081426Y-83710147D01*
X62820273Y-83818320D01*
X62585241Y-83975363D01*
X62385363Y-84175241D01*
X62228320Y-84410273D01*
X62120147Y-84671426D01*
X62065000Y-84948665D01*
X61227744Y-84948665D01*
X61215812Y-84827518D01*
X61179502Y-84707820D01*
X61120537Y-84597506D01*
X61041185Y-84500815D01*
X60944494Y-84421463D01*
X60834180Y-84362498D01*
X60714482Y-84326188D01*
X60590000Y-84313928D01*
X59975750Y-84317000D01*
X59817000Y-84475750D01*
X59563000Y-84475750D01*
X59404250Y-84317000D01*
X58790000Y-84313928D01*
X58665518Y-84326188D01*
X58545820Y-84362498D01*
X58435506Y-84421463D01*
X58338815Y-84500815D01*
X58259463Y-84597506D01*
X58200498Y-84707820D01*
X58194944Y-84726127D01*
X58128505Y-84659688D01*
X57877095Y-84491701D01*
X57597743Y-84375989D01*
X57301184Y-84317000D01*
X56998816Y-84317000D01*
X56702257Y-84375989D01*
X56422905Y-84491701D01*
X56171495Y-84659688D01*
X55957688Y-84873495D01*
X55789701Y-85124905D01*
X55673989Y-85404257D01*
X55615000Y-85700816D01*
X54640223Y-85700816D01*
X54719853Y-85508574D01*
X54775000Y-85231335D01*
X54775000Y-84948665D01*
X54719853Y-84671426D01*
X54611680Y-84410273D01*
X54454637Y-84175241D01*
X54254759Y-83975363D01*
X54019727Y-83818320D01*
X53758574Y-83710147D01*
X53481335Y-83655000D01*
X53198665Y-83655000D01*
X52921426Y-83710147D01*
X52660273Y-83818320D01*
X52425241Y-83975363D01*
X52225363Y-84175241D01*
X52068320Y-84410273D01*
X51960147Y-84671426D01*
X51905000Y-84948665D01*
X45224973Y-84948665D01*
X45160631Y-84793331D01*
X44916038Y-84427271D01*
X44604729Y-84115962D01*
X44238669Y-83871369D01*
X43831925Y-83702890D01*
X43400128Y-83617000D01*
X42959872Y-83617000D01*
X42528075Y-83702890D01*
X42121331Y-83871369D01*
X41755271Y-84115962D01*
X41443962Y-84427271D01*
X41199369Y-84793331D01*
X41030890Y-85200075D01*
X40945000Y-85631872D01*
X40792000Y-85631872D01*
X40792000Y-83464000D01*
X92583000Y-83464000D01*
X92583000Y-91825000D01*
G37*
X92583000Y-91825000D02*
X84954521Y-91825000D01*
X84934637Y-91795241D01*
X84734759Y-91595363D01*
X84499727Y-91438320D01*
X84495151Y-91436425D01*
X87844576Y-88087001D01*
X88776530Y-88087001D01*
X88819999Y-88091282D01*
X88863468Y-88087001D01*
X88863476Y-88087001D01*
X88993489Y-88074196D01*
X89160312Y-88023590D01*
X89314058Y-87941412D01*
X89448816Y-87830818D01*
X89476533Y-87797045D01*
X89883506Y-87390072D01*
X91070000Y-87390072D01*
X91194482Y-87377812D01*
X91314180Y-87341502D01*
X91424494Y-87282537D01*
X91521185Y-87203185D01*
X91600537Y-87106494D01*
X91659502Y-86996180D01*
X91695812Y-86876482D01*
X91708072Y-86752000D01*
X91708072Y-84952000D01*
X91695812Y-84827518D01*
X91659502Y-84707820D01*
X91600537Y-84597506D01*
X91521185Y-84500815D01*
X91424494Y-84421463D01*
X91314180Y-84362498D01*
X91194482Y-84326188D01*
X91070000Y-84313928D01*
X89270000Y-84313928D01*
X89145518Y-84326188D01*
X89025820Y-84362498D01*
X88915506Y-84421463D01*
X88818815Y-84500815D01*
X88739463Y-84597506D01*
X88680498Y-84707820D01*
X88674944Y-84726127D01*
X88608505Y-84659688D01*
X88357095Y-84491701D01*
X88077743Y-84375989D01*
X87781184Y-84317000D01*
X87478816Y-84317000D01*
X87347927Y-84343035D01*
X87208313Y-84268411D01*
X87041490Y-84217805D01*
X86911477Y-84205000D01*
X86911469Y-84205000D01*
X86868000Y-84200719D01*
X86824531Y-84205000D01*
X84954521Y-84205000D01*
X84934637Y-84175241D01*
X84734759Y-83975363D01*
X84499727Y-83818320D01*
X84238574Y-83710147D01*
X83961335Y-83655000D01*
X83678665Y-83655000D01*
X83401426Y-83710147D01*
X83140273Y-83818320D01*
X82905241Y-83975363D01*
X82705363Y-84175241D01*
X82548320Y-84410273D01*
X82440147Y-84671426D01*
X82385000Y-84948665D01*
X82385000Y-85231335D01*
X82440147Y-85508574D01*
X82548320Y-85769727D01*
X82705363Y-86004759D01*
X82905241Y-86204637D01*
X83140273Y-86361680D01*
X83401426Y-86469853D01*
X83678665Y-86525000D01*
X83961335Y-86525000D01*
X84238574Y-86469853D01*
X84499727Y-86361680D01*
X84734759Y-86204637D01*
X84934637Y-86004759D01*
X84954521Y-85975000D01*
X86095000Y-85975000D01*
X86095000Y-86003184D01*
X86153989Y-86299743D01*
X86269701Y-86579095D01*
X86437688Y-86830505D01*
X86517801Y-86910618D01*
X81974951Y-91453469D01*
X81941183Y-91481182D01*
X81913470Y-91514950D01*
X81913467Y-91514953D01*
X81830589Y-91615940D01*
X81748411Y-91769686D01*
X81697804Y-91936509D01*
X81680718Y-92109999D01*
X81685000Y-92153477D01*
X81684999Y-92742229D01*
X80895000Y-91952230D01*
X80895000Y-87390072D01*
X80910000Y-87390072D01*
X81034482Y-87377812D01*
X81154180Y-87341502D01*
X81264494Y-87282537D01*
X81361185Y-87203185D01*
X81440537Y-87106494D01*
X81499502Y-86996180D01*
X81535812Y-86876482D01*
X81548072Y-86752000D01*
X81548072Y-84952000D01*
X81535812Y-84827518D01*
X81499502Y-84707820D01*
X81440537Y-84597506D01*
X81361185Y-84500815D01*
X81264494Y-84421463D01*
X81154180Y-84362498D01*
X81034482Y-84326188D01*
X80910000Y-84313928D01*
X79110000Y-84313928D01*
X78985518Y-84326188D01*
X78865820Y-84362498D01*
X78755506Y-84421463D01*
X78658815Y-84500815D01*
X78579463Y-84597506D01*
X78520498Y-84707820D01*
X78514944Y-84726127D01*
X78448505Y-84659688D01*
X78197095Y-84491701D01*
X77917743Y-84375989D01*
X77621184Y-84317000D01*
X77318816Y-84317000D01*
X77022257Y-84375989D01*
X76742905Y-84491701D01*
X76491495Y-84659688D01*
X76277688Y-84873495D01*
X76109701Y-85124905D01*
X75993989Y-85404257D01*
X75935000Y-85700816D01*
X75935000Y-86003184D01*
X75993989Y-86299743D01*
X76109701Y-86579095D01*
X76277688Y-86830505D01*
X76491495Y-87044312D01*
X76742905Y-87212299D01*
X77022257Y-87328011D01*
X77318816Y-87387000D01*
X77621184Y-87387000D01*
X77917743Y-87328011D01*
X78197095Y-87212299D01*
X78448505Y-87044312D01*
X78514944Y-86977873D01*
X78520498Y-86996180D01*
X78579463Y-87106494D01*
X78658815Y-87203185D01*
X78755506Y-87282537D01*
X78865820Y-87341502D01*
X78985518Y-87377812D01*
X79110000Y-87390072D01*
X79125001Y-87390072D01*
X79125000Y-92275339D01*
X79120719Y-92318808D01*
X79125000Y-92362277D01*
X79125000Y-92362284D01*
X79137805Y-92492297D01*
X79188411Y-92659120D01*
X79270589Y-92812866D01*
X79381183Y-92947625D01*
X79414956Y-92975342D01*
X83115002Y-96675389D01*
X83115002Y-97621928D01*
X81750000Y-97621928D01*
X81625518Y-97634188D01*
X81505820Y-97670498D01*
X81395506Y-97729463D01*
X81298815Y-97808815D01*
X81219463Y-97905506D01*
X81160498Y-98015820D01*
X81124188Y-98135518D01*
X81111928Y-98260000D01*
X81111928Y-99860000D01*
X81124188Y-99984482D01*
X81160498Y-100104180D01*
X81219463Y-100214494D01*
X81298815Y-100311185D01*
X81395506Y-100390537D01*
X81505820Y-100449502D01*
X81625518Y-100485812D01*
X81633961Y-100486643D01*
X81435363Y-100685241D01*
X81415479Y-100715000D01*
X75367463Y-100715000D01*
X75323997Y-100710719D01*
X75280531Y-100715000D01*
X75280521Y-100715000D01*
X75150508Y-100727805D01*
X74983685Y-100778411D01*
X74829939Y-100860589D01*
X74829937Y-100860590D01*
X74829938Y-100860590D01*
X74728951Y-100943468D01*
X74728949Y-100943470D01*
X74695181Y-100971183D01*
X74667468Y-101004951D01*
X71258659Y-104413761D01*
X71285000Y-104281335D01*
X71285000Y-103998665D01*
X71229853Y-103721426D01*
X71121680Y-103460273D01*
X70964637Y-103225241D01*
X70764759Y-103025363D01*
X70529727Y-102868320D01*
X70268574Y-102760147D01*
X69991335Y-102705000D01*
X69708665Y-102705000D01*
X69431426Y-102760147D01*
X69170273Y-102868320D01*
X68935241Y-103025363D01*
X68735363Y-103225241D01*
X68578320Y-103460273D01*
X68470147Y-103721426D01*
X68415000Y-103998665D01*
X68415000Y-104281335D01*
X68470147Y-104558574D01*
X68578320Y-104819727D01*
X68735363Y-105054759D01*
X68935241Y-105254637D01*
X69170273Y-105411680D01*
X69431426Y-105519853D01*
X69708665Y-105575000D01*
X69991335Y-105575000D01*
X70123761Y-105548658D01*
X66178658Y-109493761D01*
X66205000Y-109361335D01*
X66205000Y-109078665D01*
X66149853Y-108801426D01*
X66041680Y-108540273D01*
X65884637Y-108305241D01*
X65684759Y-108105363D01*
X65449727Y-107948320D01*
X65188574Y-107840147D01*
X64911335Y-107785000D01*
X64628665Y-107785000D01*
X64351426Y-107840147D01*
X64090273Y-107948320D01*
X63855241Y-108105363D01*
X63655363Y-108305241D01*
X63498320Y-108540273D01*
X63390147Y-108801426D01*
X63335000Y-109078665D01*
X63335000Y-109361335D01*
X63390147Y-109638574D01*
X63498320Y-109899727D01*
X63655363Y-110134759D01*
X63855241Y-110334637D01*
X64090273Y-110491680D01*
X64351426Y-110599853D01*
X64628665Y-110655000D01*
X64911335Y-110655000D01*
X65043762Y-110628658D01*
X64174956Y-111497464D01*
X64141183Y-111525181D01*
X64030589Y-111659940D01*
X63948411Y-111813686D01*
X63897805Y-111980509D01*
X63885000Y-112110522D01*
X63885000Y-112110529D01*
X63880719Y-112153998D01*
X63885000Y-112197467D01*
X63885000Y-113165478D01*
X63855241Y-113185363D01*
X63655363Y-113385241D01*
X63498320Y-113620273D01*
X63390147Y-113881426D01*
X63335000Y-114158665D01*
X63335000Y-114441335D01*
X63390147Y-114718574D01*
X63498320Y-114979727D01*
X63655363Y-115214759D01*
X63855241Y-115414637D01*
X64090273Y-115571680D01*
X64351426Y-115679853D01*
X64628665Y-115735000D01*
X64911335Y-115735000D01*
X65188574Y-115679853D01*
X65449727Y-115571680D01*
X65684759Y-115414637D01*
X65884637Y-115214759D01*
X66041680Y-114979727D01*
X66149853Y-114718574D01*
X66205000Y-114441335D01*
X66205000Y-114158665D01*
X68415000Y-114158665D01*
X68415000Y-114441335D01*
X68470147Y-114718574D01*
X68578320Y-114979727D01*
X68735363Y-115214759D01*
X68935241Y-115414637D01*
X69170273Y-115571680D01*
X69431426Y-115679853D01*
X69708665Y-115735000D01*
X69991335Y-115735000D01*
X70268574Y-115679853D01*
X70529727Y-115571680D01*
X70764759Y-115414637D01*
X70964637Y-115214759D01*
X71121680Y-114979727D01*
X71229853Y-114718574D01*
X71285000Y-114441335D01*
X71285000Y-114158665D01*
X76035000Y-114158665D01*
X76035000Y-114441335D01*
X76090147Y-114718574D01*
X76198320Y-114979727D01*
X76355363Y-115214759D01*
X76555241Y-115414637D01*
X76790273Y-115571680D01*
X77051426Y-115679853D01*
X77328665Y-115735000D01*
X77611335Y-115735000D01*
X77888574Y-115679853D01*
X78149727Y-115571680D01*
X78384759Y-115414637D01*
X78584637Y-115214759D01*
X78741680Y-114979727D01*
X78849853Y-114718574D01*
X78905000Y-114441335D01*
X78905000Y-114158665D01*
X78849853Y-113881426D01*
X78741680Y-113620273D01*
X78584637Y-113385241D01*
X78384759Y-113185363D01*
X78149727Y-113028320D01*
X77888574Y-112920147D01*
X77611335Y-112865000D01*
X77328665Y-112865000D01*
X77051426Y-112920147D01*
X76790273Y-113028320D01*
X76555241Y-113185363D01*
X76355363Y-113385241D01*
X76198320Y-113620273D01*
X76090147Y-113881426D01*
X76035000Y-114158665D01*
X71285000Y-114158665D01*
X71229853Y-113881426D01*
X71121680Y-113620273D01*
X70964637Y-113385241D01*
X70764759Y-113185363D01*
X70529727Y-113028320D01*
X70268574Y-112920147D01*
X69991335Y-112865000D01*
X69708665Y-112865000D01*
X69431426Y-112920147D01*
X69170273Y-113028320D01*
X68935241Y-113185363D01*
X68735363Y-113385241D01*
X68578320Y-113620273D01*
X68470147Y-113881426D01*
X68415000Y-114158665D01*
X66205000Y-114158665D01*
X66149853Y-113881426D01*
X66041680Y-113620273D01*
X65884637Y-113385241D01*
X65684759Y-113185363D01*
X65655000Y-113165479D01*
X65655000Y-112520576D01*
X68489728Y-109685848D01*
X68578320Y-109899727D01*
X68735363Y-110134759D01*
X68935241Y-110334637D01*
X69170273Y-110491680D01*
X69431426Y-110599853D01*
X69708665Y-110655000D01*
X69991335Y-110655000D01*
X70268574Y-110599853D01*
X70529727Y-110491680D01*
X70764759Y-110334637D01*
X70964637Y-110134759D01*
X71121680Y-109899727D01*
X71229853Y-109638574D01*
X71285000Y-109361335D01*
X71285000Y-109078665D01*
X76035000Y-109078665D01*
X76035000Y-109361335D01*
X76090147Y-109638574D01*
X76198320Y-109899727D01*
X76355363Y-110134759D01*
X76555241Y-110334637D01*
X76790273Y-110491680D01*
X77051426Y-110599853D01*
X77328665Y-110655000D01*
X77611335Y-110655000D01*
X77888574Y-110599853D01*
X78149727Y-110491680D01*
X78384759Y-110334637D01*
X78584637Y-110134759D01*
X78741680Y-109899727D01*
X78849853Y-109638574D01*
X78905000Y-109361335D01*
X78905000Y-109078665D01*
X78849853Y-108801426D01*
X78741680Y-108540273D01*
X78584637Y-108305241D01*
X78384759Y-108105363D01*
X78149727Y-107948320D01*
X77888574Y-107840147D01*
X77611335Y-107785000D01*
X77328665Y-107785000D01*
X77051426Y-107840147D01*
X76790273Y-107948320D01*
X76555241Y-108105363D01*
X76355363Y-108305241D01*
X76198320Y-108540273D01*
X76090147Y-108801426D01*
X76035000Y-109078665D01*
X71285000Y-109078665D01*
X71229853Y-108801426D01*
X71121680Y-108540273D01*
X70964637Y-108305241D01*
X70764759Y-108105363D01*
X70529727Y-107948320D01*
X70315848Y-107859728D01*
X74176911Y-103998665D01*
X76035000Y-103998665D01*
X76035000Y-104281335D01*
X76090147Y-104558574D01*
X76198320Y-104819727D01*
X76355363Y-105054759D01*
X76555241Y-105254637D01*
X76790273Y-105411680D01*
X77051426Y-105519853D01*
X77328665Y-105575000D01*
X77611335Y-105575000D01*
X77888574Y-105519853D01*
X78149727Y-105411680D01*
X78384759Y-105254637D01*
X78584637Y-105054759D01*
X78741680Y-104819727D01*
X78849853Y-104558574D01*
X78905000Y-104281335D01*
X78905000Y-103998665D01*
X78849853Y-103721426D01*
X78741680Y-103460273D01*
X78584637Y-103225241D01*
X78384759Y-103025363D01*
X78149727Y-102868320D01*
X77888574Y-102760147D01*
X77611335Y-102705000D01*
X77328665Y-102705000D01*
X77051426Y-102760147D01*
X76790273Y-102868320D01*
X76555241Y-103025363D01*
X76355363Y-103225241D01*
X76198320Y-103460273D01*
X76090147Y-103721426D01*
X76035000Y-103998665D01*
X74176911Y-103998665D01*
X75690577Y-102485000D01*
X81415479Y-102485000D01*
X81435363Y-102514759D01*
X81635241Y-102714637D01*
X81867759Y-102870000D01*
X81635241Y-103025363D01*
X81435363Y-103225241D01*
X81278320Y-103460273D01*
X81170147Y-103721426D01*
X81115000Y-103998665D01*
X81115000Y-104281335D01*
X81170147Y-104558574D01*
X81278320Y-104819727D01*
X81435363Y-105054759D01*
X81635241Y-105254637D01*
X81870273Y-105411680D01*
X81880865Y-105416067D01*
X81694869Y-105527615D01*
X81486481Y-105716586D01*
X81318963Y-105942580D01*
X81198754Y-106196913D01*
X81158096Y-106330961D01*
X81280085Y-106553000D01*
X82423000Y-106553000D01*
X82423000Y-106533000D01*
X82677000Y-106533000D01*
X82677000Y-106553000D01*
X82697000Y-106553000D01*
X82697000Y-106807000D01*
X82677000Y-106807000D01*
X82677000Y-106827000D01*
X82423000Y-106827000D01*
X82423000Y-106807000D01*
X81280085Y-106807000D01*
X81158096Y-107029039D01*
X81198754Y-107163087D01*
X81318963Y-107417420D01*
X81486481Y-107643414D01*
X81694869Y-107832385D01*
X81936119Y-107977070D01*
X82091656Y-108032767D01*
X80504950Y-109619474D01*
X80471183Y-109647186D01*
X80443470Y-109680954D01*
X80443467Y-109680957D01*
X80360589Y-109781944D01*
X80278411Y-109935690D01*
X80227804Y-110102513D01*
X80210718Y-110276003D01*
X80215000Y-110319482D01*
X80214999Y-114076530D01*
X80210718Y-114119999D01*
X80214999Y-114163468D01*
X80214999Y-114163475D01*
X80227804Y-114293488D01*
X80278410Y-114460311D01*
X80360588Y-114614057D01*
X80471182Y-114748816D01*
X80504955Y-114776533D01*
X81121983Y-115393561D01*
X81115000Y-115428665D01*
X81115000Y-115711335D01*
X81170147Y-115988574D01*
X81278320Y-116249727D01*
X81435363Y-116484759D01*
X81635241Y-116684637D01*
X81867759Y-116840000D01*
X81635241Y-116995363D01*
X81435363Y-117195241D01*
X81278320Y-117430273D01*
X81170147Y-117691426D01*
X81115000Y-117968665D01*
X81115000Y-118251335D01*
X81170147Y-118528574D01*
X81278320Y-118789727D01*
X81435363Y-119024759D01*
X81635241Y-119224637D01*
X81870273Y-119381680D01*
X82131426Y-119489853D01*
X82408665Y-119545000D01*
X82691335Y-119545000D01*
X82968574Y-119489853D01*
X83229727Y-119381680D01*
X83464759Y-119224637D01*
X83664637Y-119024759D01*
X83821680Y-118789727D01*
X83929853Y-118528574D01*
X83984130Y-118255708D01*
X86973470Y-121245049D01*
X87001183Y-121278817D01*
X87034951Y-121306530D01*
X87034953Y-121306532D01*
X87130273Y-121384759D01*
X87135941Y-121389411D01*
X87289687Y-121471589D01*
X87456510Y-121522195D01*
X87586523Y-121535000D01*
X87586531Y-121535000D01*
X87630000Y-121539281D01*
X87673469Y-121535000D01*
X88139424Y-121535000D01*
X89704152Y-123099729D01*
X89490273Y-123188320D01*
X89255241Y-123345363D01*
X89055363Y-123545241D01*
X88898320Y-123780273D01*
X88790147Y-124041426D01*
X88735000Y-124318665D01*
X88735000Y-124601335D01*
X88790147Y-124878574D01*
X88898320Y-125139727D01*
X89055363Y-125374759D01*
X89255241Y-125574637D01*
X89490273Y-125731680D01*
X89751426Y-125839853D01*
X90028665Y-125895000D01*
X90311335Y-125895000D01*
X90588574Y-125839853D01*
X90849727Y-125731680D01*
X91084759Y-125574637D01*
X91284637Y-125374759D01*
X91304521Y-125345000D01*
X92583000Y-125345000D01*
X92583000Y-130429000D01*
X85852000Y-130429000D01*
X85827224Y-130431440D01*
X85803399Y-130438667D01*
X85781443Y-130450403D01*
X85762197Y-130466197D01*
X85746403Y-130485443D01*
X85734667Y-130507399D01*
X85727440Y-130531224D01*
X85725000Y-130556000D01*
X85725000Y-139040000D01*
X40792000Y-139040000D01*
X40792000Y-136431872D01*
X40945000Y-136431872D01*
X40945000Y-136872128D01*
X41030890Y-137303925D01*
X41199369Y-137710669D01*
X41443962Y-138076729D01*
X41755271Y-138388038D01*
X42121331Y-138632631D01*
X42528075Y-138801110D01*
X42959872Y-138887000D01*
X43400128Y-138887000D01*
X43831925Y-138801110D01*
X44238669Y-138632631D01*
X44604729Y-138388038D01*
X44916038Y-138076729D01*
X45160631Y-137710669D01*
X45262054Y-137465810D01*
X64696036Y-137465810D01*
X64704728Y-137527337D01*
X64797725Y-137736882D01*
X64929816Y-137924258D01*
X65095924Y-138082264D01*
X65289666Y-138204828D01*
X65503596Y-138287239D01*
X65729493Y-138326331D01*
X65913000Y-138166598D01*
X65913000Y-137287000D01*
X66167000Y-137287000D01*
X66167000Y-138166598D01*
X66350507Y-138326331D01*
X66576404Y-138287239D01*
X66790334Y-138204828D01*
X66984076Y-138082264D01*
X67150184Y-137924258D01*
X67282275Y-137736882D01*
X67375272Y-137527337D01*
X67383964Y-137465810D01*
X67258163Y-137287000D01*
X66167000Y-137287000D01*
X65913000Y-137287000D01*
X64821837Y-137287000D01*
X64696036Y-137465810D01*
X45262054Y-137465810D01*
X45329110Y-137303925D01*
X45415000Y-136872128D01*
X45415000Y-136431872D01*
X45329110Y-136000075D01*
X45160631Y-135593331D01*
X44916038Y-135227271D01*
X44657806Y-134969039D01*
X51948096Y-134969039D01*
X51988754Y-135103087D01*
X52108963Y-135357420D01*
X52276481Y-135583414D01*
X52484869Y-135772385D01*
X52726119Y-135917070D01*
X52990960Y-136011909D01*
X53213000Y-135890624D01*
X53213000Y-134747000D01*
X53467000Y-134747000D01*
X53467000Y-135890624D01*
X53689040Y-136011909D01*
X53953881Y-135917070D01*
X54195131Y-135772385D01*
X54403519Y-135583414D01*
X54571037Y-135357420D01*
X54691246Y-135103087D01*
X54731904Y-134969039D01*
X54609915Y-134747000D01*
X53467000Y-134747000D01*
X53213000Y-134747000D01*
X52070085Y-134747000D01*
X51948096Y-134969039D01*
X44657806Y-134969039D01*
X44604729Y-134915962D01*
X44238669Y-134671369D01*
X43831925Y-134502890D01*
X43400128Y-134417000D01*
X42959872Y-134417000D01*
X42528075Y-134502890D01*
X42121331Y-134671369D01*
X41755271Y-134915962D01*
X41443962Y-135227271D01*
X41199369Y-135593331D01*
X41030890Y-136000075D01*
X40945000Y-136431872D01*
X40792000Y-136431872D01*
X40792000Y-134270961D01*
X51948096Y-134270961D01*
X52070085Y-134493000D01*
X53213000Y-134493000D01*
X53213000Y-133349376D01*
X53467000Y-133349376D01*
X53467000Y-134493000D01*
X54609915Y-134493000D01*
X54617790Y-134478665D01*
X59525000Y-134478665D01*
X59525000Y-134761335D01*
X59580147Y-135038574D01*
X59688320Y-135299727D01*
X59845363Y-135534759D01*
X60045241Y-135734637D01*
X60280273Y-135891680D01*
X60541426Y-135999853D01*
X60818665Y-136055000D01*
X61101335Y-136055000D01*
X61378574Y-135999853D01*
X61639727Y-135891680D01*
X61642241Y-135890000D01*
X64649388Y-135890000D01*
X64671785Y-136117400D01*
X64738115Y-136336060D01*
X64838929Y-136524669D01*
X64797725Y-136583118D01*
X64704728Y-136792663D01*
X64696036Y-136854190D01*
X64821837Y-137033000D01*
X65586891Y-137033000D01*
X65587600Y-137033215D01*
X65758021Y-137050000D01*
X66321979Y-137050000D01*
X66492400Y-137033215D01*
X66493109Y-137033000D01*
X67258163Y-137033000D01*
X67383964Y-136854190D01*
X67375272Y-136792663D01*
X67282275Y-136583118D01*
X67241071Y-136524669D01*
X67341885Y-136336060D01*
X67408215Y-136117400D01*
X67430612Y-135890000D01*
X67408215Y-135662600D01*
X67344907Y-135453902D01*
X67379502Y-135389180D01*
X67415812Y-135269482D01*
X67428072Y-135145000D01*
X67428072Y-134095000D01*
X67415812Y-133970518D01*
X67379502Y-133850820D01*
X67320537Y-133740506D01*
X67241185Y-133643815D01*
X67144494Y-133564463D01*
X67034180Y-133505498D01*
X66914482Y-133469188D01*
X66790000Y-133456928D01*
X65290000Y-133456928D01*
X65165518Y-133469188D01*
X65045820Y-133505498D01*
X64935506Y-133564463D01*
X64838815Y-133643815D01*
X64759463Y-133740506D01*
X64700498Y-133850820D01*
X64664188Y-133970518D01*
X64651928Y-134095000D01*
X64651928Y-135145000D01*
X64664188Y-135269482D01*
X64700498Y-135389180D01*
X64735093Y-135453902D01*
X64671785Y-135662600D01*
X64649388Y-135890000D01*
X61642241Y-135890000D01*
X61874759Y-135734637D01*
X62074637Y-135534759D01*
X62231680Y-135299727D01*
X62339853Y-135038574D01*
X62395000Y-134761335D01*
X62395000Y-134478665D01*
X62339853Y-134201426D01*
X62231680Y-133940273D01*
X62074637Y-133705241D01*
X61874759Y-133505363D01*
X61639727Y-133348320D01*
X61378574Y-133240147D01*
X61101335Y-133185000D01*
X60818665Y-133185000D01*
X60541426Y-133240147D01*
X60280273Y-133348320D01*
X60045241Y-133505363D01*
X59845363Y-133705241D01*
X59688320Y-133940273D01*
X59580147Y-134201426D01*
X59525000Y-134478665D01*
X54617790Y-134478665D01*
X54731904Y-134270961D01*
X54691246Y-134136913D01*
X54571037Y-133882580D01*
X54403519Y-133656586D01*
X54195131Y-133467615D01*
X53953881Y-133322930D01*
X53689040Y-133228091D01*
X53467000Y-133349376D01*
X53213000Y-133349376D01*
X52990960Y-133228091D01*
X52726119Y-133322930D01*
X52484869Y-133467615D01*
X52276481Y-133656586D01*
X52108963Y-133882580D01*
X51988754Y-134136913D01*
X51948096Y-134270961D01*
X40792000Y-134270961D01*
X40792000Y-130217098D01*
X43335000Y-130217098D01*
X43335000Y-130686902D01*
X43426654Y-131147679D01*
X43606440Y-131581721D01*
X43867450Y-131972349D01*
X44199651Y-132304550D01*
X44590279Y-132565560D01*
X45024321Y-132745346D01*
X45485098Y-132837000D01*
X45954902Y-132837000D01*
X46415679Y-132745346D01*
X46849721Y-132565560D01*
X47240349Y-132304550D01*
X47572550Y-131972349D01*
X47833560Y-131581721D01*
X48013346Y-131147679D01*
X48105000Y-130686902D01*
X48105000Y-130217098D01*
X48013346Y-129756321D01*
X47994160Y-129710000D01*
X55411928Y-129710000D01*
X55411928Y-131910000D01*
X55424188Y-132034482D01*
X55460498Y-132154180D01*
X55519463Y-132264494D01*
X55598815Y-132361185D01*
X55695506Y-132440537D01*
X55805820Y-132499502D01*
X55925518Y-132535812D01*
X56050000Y-132548072D01*
X58250000Y-132548072D01*
X58374482Y-132535812D01*
X58494180Y-132499502D01*
X58604494Y-132440537D01*
X58701185Y-132361185D01*
X58780537Y-132264494D01*
X58839502Y-132154180D01*
X58875812Y-132034482D01*
X58888072Y-131910000D01*
X58888072Y-129710000D01*
X58875812Y-129585518D01*
X58839502Y-129465820D01*
X58780537Y-129355506D01*
X58701185Y-129258815D01*
X58604494Y-129179463D01*
X58494180Y-129120498D01*
X58374482Y-129084188D01*
X58250000Y-129071928D01*
X56050000Y-129071928D01*
X55925518Y-129084188D01*
X55805820Y-129120498D01*
X55695506Y-129179463D01*
X55598815Y-129258815D01*
X55519463Y-129355506D01*
X55460498Y-129465820D01*
X55424188Y-129585518D01*
X55411928Y-129710000D01*
X47994160Y-129710000D01*
X47833560Y-129322279D01*
X47572550Y-128931651D01*
X47240349Y-128599450D01*
X46849721Y-128338440D01*
X46415679Y-128158654D01*
X45954902Y-128067000D01*
X45485098Y-128067000D01*
X45024321Y-128158654D01*
X44590279Y-128338440D01*
X44199651Y-128599450D01*
X43867450Y-128931651D01*
X43606440Y-129322279D01*
X43426654Y-129756321D01*
X43335000Y-130217098D01*
X40792000Y-130217098D01*
X40792000Y-125452702D01*
X56336903Y-125452702D01*
X56408486Y-125696671D01*
X56663996Y-125817571D01*
X56938184Y-125886300D01*
X57220512Y-125900217D01*
X57500130Y-125858787D01*
X57766292Y-125763603D01*
X57891514Y-125696671D01*
X57963097Y-125452702D01*
X57150000Y-124639605D01*
X56336903Y-125452702D01*
X40792000Y-125452702D01*
X40792000Y-124530512D01*
X55709783Y-124530512D01*
X55751213Y-124810130D01*
X55846397Y-125076292D01*
X55913329Y-125201514D01*
X56157298Y-125273097D01*
X56970395Y-124460000D01*
X57329605Y-124460000D01*
X58142702Y-125273097D01*
X58386671Y-125201514D01*
X58507571Y-124946004D01*
X58576300Y-124671816D01*
X58590217Y-124389488D01*
X58548787Y-124109870D01*
X58453603Y-123843708D01*
X58386671Y-123718486D01*
X58142702Y-123646903D01*
X57329605Y-124460000D01*
X56970395Y-124460000D01*
X56157298Y-123646903D01*
X55913329Y-123718486D01*
X55792429Y-123973996D01*
X55723700Y-124248184D01*
X55709783Y-124530512D01*
X40792000Y-124530512D01*
X40792000Y-123467298D01*
X56336903Y-123467298D01*
X57150000Y-124280395D01*
X57963097Y-123467298D01*
X57891514Y-123223329D01*
X57636004Y-123102429D01*
X57361816Y-123033700D01*
X57079488Y-123019783D01*
X56799870Y-123061213D01*
X56533708Y-123156397D01*
X56408486Y-123223329D01*
X56336903Y-123467298D01*
X40792000Y-123467298D01*
X40792000Y-113666514D01*
X41592500Y-113666514D01*
X41592500Y-113917485D01*
X41615470Y-114150703D01*
X41706245Y-114449948D01*
X41853655Y-114725734D01*
X42052037Y-114967463D01*
X42293765Y-115165845D01*
X42569551Y-115313255D01*
X42868796Y-115404030D01*
X43180000Y-115434681D01*
X43491203Y-115404030D01*
X43790448Y-115313255D01*
X44066234Y-115165845D01*
X44307963Y-114967463D01*
X44455163Y-114788101D01*
X44610563Y-114973315D01*
X44853077Y-115167969D01*
X45128906Y-115311571D01*
X45347020Y-115382563D01*
X45593000Y-115262594D01*
X45593000Y-113919000D01*
X45573000Y-113919000D01*
X45573000Y-113665000D01*
X45593000Y-113665000D01*
X45593000Y-112321406D01*
X45847000Y-112321406D01*
X45847000Y-113665000D01*
X45867000Y-113665000D01*
X45867000Y-113919000D01*
X45847000Y-113919000D01*
X45847000Y-115262594D01*
X46092980Y-115382563D01*
X46311094Y-115311571D01*
X46586923Y-115167969D01*
X46727941Y-115054781D01*
X46776963Y-115146494D01*
X46856315Y-115243185D01*
X46953006Y-115322537D01*
X47063320Y-115381502D01*
X47183018Y-115417812D01*
X47307500Y-115430072D01*
X48138494Y-115430072D01*
X51901928Y-119193507D01*
X51901928Y-120180000D01*
X51914188Y-120304482D01*
X51950498Y-120424180D01*
X52009463Y-120534494D01*
X52088815Y-120631185D01*
X52185506Y-120710537D01*
X52295820Y-120769502D01*
X52415518Y-120805812D01*
X52540000Y-120818072D01*
X54140000Y-120818072D01*
X54264482Y-120805812D01*
X54384180Y-120769502D01*
X54494494Y-120710537D01*
X54591185Y-120631185D01*
X54670537Y-120534494D01*
X54729502Y-120424180D01*
X54765812Y-120304482D01*
X54778072Y-120180000D01*
X54778072Y-119238665D01*
X55715000Y-119238665D01*
X55715000Y-119521335D01*
X55770147Y-119798574D01*
X55878320Y-120059727D01*
X56035363Y-120294759D01*
X56235241Y-120494637D01*
X56470273Y-120651680D01*
X56731426Y-120759853D01*
X57008665Y-120815000D01*
X57291335Y-120815000D01*
X57568574Y-120759853D01*
X57829727Y-120651680D01*
X58064759Y-120494637D01*
X58264637Y-120294759D01*
X58421680Y-120059727D01*
X58529853Y-119798574D01*
X58585000Y-119521335D01*
X58585000Y-119238665D01*
X58529853Y-118961426D01*
X58421680Y-118700273D01*
X58264637Y-118465241D01*
X58064759Y-118265363D01*
X57829727Y-118108320D01*
X57568574Y-118000147D01*
X57291335Y-117945000D01*
X57008665Y-117945000D01*
X56731426Y-118000147D01*
X56470273Y-118108320D01*
X56235241Y-118265363D01*
X56035363Y-118465241D01*
X55878320Y-118700273D01*
X55770147Y-118961426D01*
X55715000Y-119238665D01*
X54778072Y-119238665D01*
X54778072Y-118580000D01*
X54765812Y-118455518D01*
X54729502Y-118335820D01*
X54670537Y-118225506D01*
X54591185Y-118128815D01*
X54494494Y-118049463D01*
X54384180Y-117990498D01*
X54264482Y-117954188D01*
X54140000Y-117941928D01*
X53153507Y-117941928D01*
X49850572Y-114638994D01*
X49850572Y-114158665D01*
X55715000Y-114158665D01*
X55715000Y-114441335D01*
X55770147Y-114718574D01*
X55878320Y-114979727D01*
X56035363Y-115214759D01*
X56235241Y-115414637D01*
X56470273Y-115571680D01*
X56731426Y-115679853D01*
X57008665Y-115735000D01*
X57291335Y-115735000D01*
X57568574Y-115679853D01*
X57829727Y-115571680D01*
X58064759Y-115414637D01*
X58264637Y-115214759D01*
X58421680Y-114979727D01*
X58529853Y-114718574D01*
X58585000Y-114441335D01*
X58585000Y-114158665D01*
X58529853Y-113881426D01*
X58421680Y-113620273D01*
X58264637Y-113385241D01*
X58064759Y-113185363D01*
X57829727Y-113028320D01*
X57568574Y-112920147D01*
X57291335Y-112865000D01*
X57008665Y-112865000D01*
X56731426Y-112920147D01*
X56470273Y-113028320D01*
X56235241Y-113185363D01*
X56035363Y-113385241D01*
X55878320Y-113620273D01*
X55770147Y-113881426D01*
X55715000Y-114158665D01*
X49850572Y-114158665D01*
X49850572Y-112792000D01*
X49838312Y-112667518D01*
X49802002Y-112547820D01*
X49743037Y-112437506D01*
X49663685Y-112340815D01*
X49566994Y-112261463D01*
X49456680Y-112202498D01*
X49336982Y-112166188D01*
X49212500Y-112153928D01*
X47307500Y-112153928D01*
X47183018Y-112166188D01*
X47063320Y-112202498D01*
X46953006Y-112261463D01*
X46856315Y-112340815D01*
X46776963Y-112437506D01*
X46727941Y-112529219D01*
X46586923Y-112416031D01*
X46311094Y-112272429D01*
X46092980Y-112201437D01*
X45847000Y-112321406D01*
X45593000Y-112321406D01*
X45347020Y-112201437D01*
X45128906Y-112272429D01*
X44853077Y-112416031D01*
X44610563Y-112610685D01*
X44455162Y-112795900D01*
X44307963Y-112616537D01*
X44066235Y-112418155D01*
X43790449Y-112270745D01*
X43491204Y-112179970D01*
X43180000Y-112149319D01*
X42868797Y-112179970D01*
X42569552Y-112270745D01*
X42293766Y-112418155D01*
X42052037Y-112616537D01*
X41853655Y-112858265D01*
X41706245Y-113134051D01*
X41615470Y-113433296D01*
X41592500Y-113666514D01*
X40792000Y-113666514D01*
X40792000Y-111618665D01*
X51905000Y-111618665D01*
X51905000Y-111901335D01*
X51960147Y-112178574D01*
X52068320Y-112439727D01*
X52225363Y-112674759D01*
X52425241Y-112874637D01*
X52660273Y-113031680D01*
X52921426Y-113139853D01*
X53198665Y-113195000D01*
X53481335Y-113195000D01*
X53758574Y-113139853D01*
X54019727Y-113031680D01*
X54254759Y-112874637D01*
X54454637Y-112674759D01*
X54611680Y-112439727D01*
X54719853Y-112178574D01*
X54775000Y-111901335D01*
X54775000Y-111618665D01*
X54719853Y-111341426D01*
X54611680Y-111080273D01*
X54454637Y-110845241D01*
X54254759Y-110645363D01*
X54019727Y-110488320D01*
X53758574Y-110380147D01*
X53481335Y-110325000D01*
X53198665Y-110325000D01*
X52921426Y-110380147D01*
X52660273Y-110488320D01*
X52425241Y-110645363D01*
X52225363Y-110845241D01*
X52068320Y-111080273D01*
X51960147Y-111341426D01*
X51905000Y-111618665D01*
X40792000Y-111618665D01*
X40792000Y-110974702D01*
X44946903Y-110974702D01*
X45018486Y-111218671D01*
X45273996Y-111339571D01*
X45548184Y-111408300D01*
X45830512Y-111422217D01*
X46110130Y-111380787D01*
X46376292Y-111285603D01*
X46501514Y-111218671D01*
X46573097Y-110974702D01*
X45760000Y-110161605D01*
X44946903Y-110974702D01*
X40792000Y-110974702D01*
X40792000Y-110052512D01*
X44319783Y-110052512D01*
X44361213Y-110332130D01*
X44456397Y-110598292D01*
X44523329Y-110723514D01*
X44767298Y-110795097D01*
X45580395Y-109982000D01*
X45939605Y-109982000D01*
X46752702Y-110795097D01*
X46996671Y-110723514D01*
X47010324Y-110694659D01*
X47145363Y-110896759D01*
X47345241Y-111096637D01*
X47580273Y-111253680D01*
X47841426Y-111361853D01*
X48118665Y-111417000D01*
X48401335Y-111417000D01*
X48678574Y-111361853D01*
X48939727Y-111253680D01*
X49174759Y-111096637D01*
X49374637Y-110896759D01*
X49531680Y-110661727D01*
X49639853Y-110400574D01*
X49695000Y-110123335D01*
X49695000Y-109840665D01*
X49639853Y-109563426D01*
X49531680Y-109302273D01*
X49374637Y-109067241D01*
X49210098Y-108902702D01*
X52526903Y-108902702D01*
X52598486Y-109146671D01*
X52853996Y-109267571D01*
X53128184Y-109336300D01*
X53410512Y-109350217D01*
X53690130Y-109308787D01*
X53956292Y-109213603D01*
X54081514Y-109146671D01*
X54101467Y-109078665D01*
X55715000Y-109078665D01*
X55715000Y-109361335D01*
X55770147Y-109638574D01*
X55878320Y-109899727D01*
X56035363Y-110134759D01*
X56235241Y-110334637D01*
X56470273Y-110491680D01*
X56731426Y-110599853D01*
X57008665Y-110655000D01*
X57291335Y-110655000D01*
X57568574Y-110599853D01*
X57829727Y-110491680D01*
X58064759Y-110334637D01*
X58264637Y-110134759D01*
X58421680Y-109899727D01*
X58529853Y-109638574D01*
X58585000Y-109361335D01*
X58585000Y-109078665D01*
X58529853Y-108801426D01*
X58421680Y-108540273D01*
X58264637Y-108305241D01*
X58064759Y-108105363D01*
X57829727Y-107948320D01*
X57568574Y-107840147D01*
X57291335Y-107785000D01*
X57008665Y-107785000D01*
X56731426Y-107840147D01*
X56470273Y-107948320D01*
X56235241Y-108105363D01*
X56035363Y-108305241D01*
X55878320Y-108540273D01*
X55770147Y-108801426D01*
X55715000Y-109078665D01*
X54101467Y-109078665D01*
X54153097Y-108902702D01*
X53340000Y-108089605D01*
X52526903Y-108902702D01*
X49210098Y-108902702D01*
X49174759Y-108867363D01*
X48939727Y-108710320D01*
X48678574Y-108602147D01*
X48401335Y-108547000D01*
X48118665Y-108547000D01*
X47841426Y-108602147D01*
X47580273Y-108710320D01*
X47345241Y-108867363D01*
X47145363Y-109067241D01*
X47011308Y-109267869D01*
X46996671Y-109240486D01*
X46752702Y-109168903D01*
X45939605Y-109982000D01*
X45580395Y-109982000D01*
X44767298Y-109168903D01*
X44523329Y-109240486D01*
X44402429Y-109495996D01*
X44333700Y-109770184D01*
X44319783Y-110052512D01*
X40792000Y-110052512D01*
X40792000Y-108989298D01*
X44946903Y-108989298D01*
X45760000Y-109802395D01*
X46573097Y-108989298D01*
X46501514Y-108745329D01*
X46246004Y-108624429D01*
X45971816Y-108555700D01*
X45689488Y-108541783D01*
X45409870Y-108583213D01*
X45143708Y-108678397D01*
X45018486Y-108745329D01*
X44946903Y-108989298D01*
X40792000Y-108989298D01*
X40792000Y-105880000D01*
X41741928Y-105880000D01*
X41741928Y-107480000D01*
X41754188Y-107604482D01*
X41790498Y-107724180D01*
X41849463Y-107834494D01*
X41928815Y-107931185D01*
X42025506Y-108010537D01*
X42135820Y-108069502D01*
X42255518Y-108105812D01*
X42380000Y-108118072D01*
X43980000Y-108118072D01*
X44104482Y-108105812D01*
X44224180Y-108069502D01*
X44334494Y-108010537D01*
X44431185Y-107931185D01*
X44510537Y-107834494D01*
X44569502Y-107724180D01*
X44605812Y-107604482D01*
X44618072Y-107480000D01*
X44618072Y-107029040D01*
X46868091Y-107029040D01*
X46962930Y-107293881D01*
X47107615Y-107535131D01*
X47296586Y-107743519D01*
X47522580Y-107911037D01*
X47776913Y-108031246D01*
X47910961Y-108071904D01*
X48133000Y-107949915D01*
X48133000Y-106807000D01*
X48387000Y-106807000D01*
X48387000Y-107949915D01*
X48609039Y-108071904D01*
X48743087Y-108031246D01*
X48850427Y-107980512D01*
X51899783Y-107980512D01*
X51941213Y-108260130D01*
X52036397Y-108526292D01*
X52103329Y-108651514D01*
X52347298Y-108723097D01*
X53160395Y-107910000D01*
X53519605Y-107910000D01*
X54332702Y-108723097D01*
X54576671Y-108651514D01*
X54697571Y-108396004D01*
X54766300Y-108121816D01*
X54780217Y-107839488D01*
X54738787Y-107559870D01*
X54643603Y-107293708D01*
X54576671Y-107168486D01*
X54332702Y-107096903D01*
X53519605Y-107910000D01*
X53160395Y-107910000D01*
X52347298Y-107096903D01*
X52103329Y-107168486D01*
X51982429Y-107423996D01*
X51913700Y-107698184D01*
X51899783Y-107980512D01*
X48850427Y-107980512D01*
X48997420Y-107911037D01*
X49223414Y-107743519D01*
X49412385Y-107535131D01*
X49557070Y-107293881D01*
X49651909Y-107029040D01*
X49530624Y-106807000D01*
X48387000Y-106807000D01*
X48133000Y-106807000D01*
X46989376Y-106807000D01*
X46868091Y-107029040D01*
X44618072Y-107029040D01*
X44618072Y-106330960D01*
X46868091Y-106330960D01*
X46989376Y-106553000D01*
X48133000Y-106553000D01*
X48133000Y-105410085D01*
X48387000Y-105410085D01*
X48387000Y-106553000D01*
X49530624Y-106553000D01*
X49651909Y-106330960D01*
X49557070Y-106066119D01*
X49412385Y-105824869D01*
X49223414Y-105616481D01*
X48997420Y-105448963D01*
X48743087Y-105328754D01*
X48609039Y-105288096D01*
X48387000Y-105410085D01*
X48133000Y-105410085D01*
X47910961Y-105288096D01*
X47776913Y-105328754D01*
X47522580Y-105448963D01*
X47296586Y-105616481D01*
X47107615Y-105824869D01*
X46962930Y-106066119D01*
X46868091Y-106330960D01*
X44618072Y-106330960D01*
X44618072Y-105880000D01*
X44605812Y-105755518D01*
X44569502Y-105635820D01*
X44510537Y-105525506D01*
X44431185Y-105428815D01*
X44334494Y-105349463D01*
X44224180Y-105290498D01*
X44152207Y-105268665D01*
X51905000Y-105268665D01*
X51905000Y-105551335D01*
X51960147Y-105828574D01*
X52068320Y-106089727D01*
X52225363Y-106324759D01*
X52425241Y-106524637D01*
X52625869Y-106658692D01*
X52598486Y-106673329D01*
X52526903Y-106917298D01*
X53340000Y-107730395D01*
X54153097Y-106917298D01*
X54081514Y-106673329D01*
X54052659Y-106659676D01*
X54254759Y-106524637D01*
X54454637Y-106324759D01*
X54611680Y-106089727D01*
X54719853Y-105828574D01*
X54775000Y-105551335D01*
X54775000Y-105268665D01*
X54719853Y-104991426D01*
X54611680Y-104730273D01*
X54454637Y-104495241D01*
X54254759Y-104295363D01*
X54019727Y-104138320D01*
X53758574Y-104030147D01*
X53600306Y-103998665D01*
X55715000Y-103998665D01*
X55715000Y-104281335D01*
X55770147Y-104558574D01*
X55878320Y-104819727D01*
X56035363Y-105054759D01*
X56235241Y-105254637D01*
X56470273Y-105411680D01*
X56731426Y-105519853D01*
X57008665Y-105575000D01*
X57291335Y-105575000D01*
X57568574Y-105519853D01*
X57829727Y-105411680D01*
X58064759Y-105254637D01*
X58264637Y-105054759D01*
X58421680Y-104819727D01*
X58529853Y-104558574D01*
X58585000Y-104281335D01*
X58585000Y-103998665D01*
X58529853Y-103721426D01*
X58421680Y-103460273D01*
X58264637Y-103225241D01*
X58064759Y-103025363D01*
X57829727Y-102868320D01*
X57568574Y-102760147D01*
X57410306Y-102728665D01*
X60795000Y-102728665D01*
X60795000Y-103011335D01*
X60850147Y-103288574D01*
X60958320Y-103549727D01*
X61115363Y-103784759D01*
X61315241Y-103984637D01*
X61345001Y-104004522D01*
X61345000Y-119302535D01*
X61340719Y-119346004D01*
X61345000Y-119389473D01*
X61345000Y-119389480D01*
X61350029Y-119440537D01*
X61357805Y-119519494D01*
X61366474Y-119548072D01*
X61408411Y-119686316D01*
X61490589Y-119840062D01*
X61601183Y-119974821D01*
X61634956Y-120002538D01*
X64657418Y-123025000D01*
X64628665Y-123025000D01*
X64351426Y-123080147D01*
X64090273Y-123188320D01*
X63855241Y-123345363D01*
X63655363Y-123545241D01*
X63498320Y-123780273D01*
X63390147Y-124041426D01*
X63335000Y-124318665D01*
X63335000Y-124601335D01*
X63390147Y-124878574D01*
X63498320Y-125139727D01*
X63655363Y-125374759D01*
X63855241Y-125574637D01*
X64090273Y-125731680D01*
X64351426Y-125839853D01*
X64628665Y-125895000D01*
X64911335Y-125895000D01*
X65188574Y-125839853D01*
X65449727Y-125731680D01*
X65684759Y-125574637D01*
X65884637Y-125374759D01*
X66041680Y-125139727D01*
X66149853Y-124878574D01*
X66205000Y-124601335D01*
X66205000Y-124572583D01*
X68785000Y-127152583D01*
X68785000Y-129894575D01*
X68657663Y-129704002D01*
X68415998Y-129462337D01*
X68131831Y-129272463D01*
X67816081Y-129141675D01*
X67480883Y-129075000D01*
X67139117Y-129075000D01*
X66803919Y-129141675D01*
X66488169Y-129272463D01*
X66204002Y-129462337D01*
X65962337Y-129704002D01*
X65772463Y-129988169D01*
X65641675Y-130303919D01*
X65575000Y-130639117D01*
X65575000Y-130980883D01*
X65641675Y-131316081D01*
X65772463Y-131631831D01*
X65962337Y-131915998D01*
X66204002Y-132157663D01*
X66488169Y-132347537D01*
X66803919Y-132478325D01*
X67139117Y-132545000D01*
X67480883Y-132545000D01*
X67816081Y-132478325D01*
X68131831Y-132347537D01*
X68415998Y-132157663D01*
X68657663Y-131915998D01*
X68784999Y-131725426D01*
X68784999Y-133126530D01*
X68780718Y-133169999D01*
X68784999Y-133213468D01*
X68784999Y-133213475D01*
X68797804Y-133343488D01*
X68848410Y-133510311D01*
X68930588Y-133664057D01*
X69041182Y-133798816D01*
X69074955Y-133826533D01*
X69691983Y-134443561D01*
X69685000Y-134478665D01*
X69685000Y-134761335D01*
X69740147Y-135038574D01*
X69848320Y-135299727D01*
X70005363Y-135534759D01*
X70205241Y-135734637D01*
X70437759Y-135890000D01*
X70205241Y-136045363D01*
X70005363Y-136245241D01*
X69848320Y-136480273D01*
X69740147Y-136741426D01*
X69685000Y-137018665D01*
X69685000Y-137301335D01*
X69740147Y-137578574D01*
X69848320Y-137839727D01*
X70005363Y-138074759D01*
X70205241Y-138274637D01*
X70440273Y-138431680D01*
X70701426Y-138539853D01*
X70978665Y-138595000D01*
X71261335Y-138595000D01*
X71538574Y-138539853D01*
X71799727Y-138431680D01*
X72034759Y-138274637D01*
X72234637Y-138074759D01*
X72391680Y-137839727D01*
X72499853Y-137578574D01*
X72555000Y-137301335D01*
X72555000Y-137018665D01*
X72499853Y-136741426D01*
X72391680Y-136480273D01*
X72311317Y-136360000D01*
X77301928Y-136360000D01*
X77301928Y-137960000D01*
X77314188Y-138084482D01*
X77350498Y-138204180D01*
X77409463Y-138314494D01*
X77488815Y-138411185D01*
X77585506Y-138490537D01*
X77695820Y-138549502D01*
X77815518Y-138585812D01*
X77940000Y-138598072D01*
X79540000Y-138598072D01*
X79664482Y-138585812D01*
X79784180Y-138549502D01*
X79894494Y-138490537D01*
X79991185Y-138411185D01*
X80070537Y-138314494D01*
X80129502Y-138204180D01*
X80165812Y-138084482D01*
X80178072Y-137960000D01*
X80178072Y-136360000D01*
X80165812Y-136235518D01*
X80129502Y-136115820D01*
X80070537Y-136005506D01*
X79991185Y-135908815D01*
X79894494Y-135829463D01*
X79784180Y-135770498D01*
X79664482Y-135734188D01*
X79656039Y-135733357D01*
X79854637Y-135534759D01*
X80011680Y-135299727D01*
X80119853Y-135038574D01*
X80175000Y-134761335D01*
X80175000Y-134478665D01*
X80119853Y-134201426D01*
X80011680Y-133940273D01*
X79854637Y-133705241D01*
X79654759Y-133505363D01*
X79422241Y-133350000D01*
X79654759Y-133194637D01*
X79854637Y-132994759D01*
X80011680Y-132759727D01*
X80119853Y-132498574D01*
X80175000Y-132221335D01*
X80175000Y-131938665D01*
X80119853Y-131661426D01*
X80011680Y-131400273D01*
X79854637Y-131165241D01*
X79654759Y-130965363D01*
X79419727Y-130808320D01*
X79158574Y-130700147D01*
X78881335Y-130645000D01*
X78598665Y-130645000D01*
X78321426Y-130700147D01*
X78060273Y-130808320D01*
X77825241Y-130965363D01*
X77625363Y-131165241D01*
X77468320Y-131400273D01*
X77360147Y-131661426D01*
X77305000Y-131938665D01*
X77305000Y-132221335D01*
X77360147Y-132498574D01*
X77468320Y-132759727D01*
X77625363Y-132994759D01*
X77825241Y-133194637D01*
X78057759Y-133350000D01*
X77825241Y-133505363D01*
X77625363Y-133705241D01*
X77468320Y-133940273D01*
X77360147Y-134201426D01*
X77305000Y-134478665D01*
X77305000Y-134761335D01*
X77360147Y-135038574D01*
X77468320Y-135299727D01*
X77625363Y-135534759D01*
X77823961Y-135733357D01*
X77815518Y-135734188D01*
X77695820Y-135770498D01*
X77585506Y-135829463D01*
X77488815Y-135908815D01*
X77409463Y-136005506D01*
X77350498Y-136115820D01*
X77314188Y-136235518D01*
X77301928Y-136360000D01*
X72311317Y-136360000D01*
X72234637Y-136245241D01*
X72034759Y-136045363D01*
X71802241Y-135890000D01*
X72034759Y-135734637D01*
X72234637Y-135534759D01*
X72391680Y-135299727D01*
X72499853Y-135038574D01*
X72555000Y-134761335D01*
X72555000Y-134478665D01*
X72499853Y-134201426D01*
X72391680Y-133940273D01*
X72234637Y-133705241D01*
X72034759Y-133505363D01*
X71802241Y-133350000D01*
X72034759Y-133194637D01*
X72234637Y-132994759D01*
X72391680Y-132759727D01*
X72499853Y-132498574D01*
X72555000Y-132221335D01*
X72555000Y-131938665D01*
X72499853Y-131661426D01*
X72391680Y-131400273D01*
X72234637Y-131165241D01*
X72034759Y-130965363D01*
X71799727Y-130808320D01*
X71538574Y-130700147D01*
X71261335Y-130645000D01*
X70978665Y-130645000D01*
X70701426Y-130700147D01*
X70554999Y-130760799D01*
X70554999Y-126829468D01*
X70559280Y-126786002D01*
X70554999Y-126742536D01*
X70554999Y-126742526D01*
X70542194Y-126612513D01*
X70491588Y-126445690D01*
X70409410Y-126291944D01*
X70298816Y-126157186D01*
X70265048Y-126129473D01*
X70024065Y-125888490D01*
X70268574Y-125839853D01*
X70529727Y-125731680D01*
X70764759Y-125574637D01*
X70964637Y-125374759D01*
X71121680Y-125139727D01*
X71229853Y-124878574D01*
X71285000Y-124601335D01*
X71285000Y-124318665D01*
X71229853Y-124041426D01*
X71121680Y-123780273D01*
X70964637Y-123545241D01*
X70764759Y-123345363D01*
X70529727Y-123188320D01*
X70268574Y-123080147D01*
X69991335Y-123025000D01*
X69708665Y-123025000D01*
X69431426Y-123080147D01*
X69170273Y-123188320D01*
X68935241Y-123345363D01*
X68735363Y-123545241D01*
X68578320Y-123780273D01*
X68470147Y-124041426D01*
X68421510Y-124285936D01*
X64944064Y-120808490D01*
X65188574Y-120759853D01*
X65449727Y-120651680D01*
X65684759Y-120494637D01*
X65884637Y-120294759D01*
X66041680Y-120059727D01*
X66149853Y-119798574D01*
X66205000Y-119521335D01*
X66205000Y-119238665D01*
X68415000Y-119238665D01*
X68415000Y-119521335D01*
X68470147Y-119798574D01*
X68578320Y-120059727D01*
X68735363Y-120294759D01*
X68935241Y-120494637D01*
X69170273Y-120651680D01*
X69431426Y-120759853D01*
X69708665Y-120815000D01*
X69991335Y-120815000D01*
X70268574Y-120759853D01*
X70529727Y-120651680D01*
X70764759Y-120494637D01*
X70964637Y-120294759D01*
X71121680Y-120059727D01*
X71229853Y-119798574D01*
X71285000Y-119521335D01*
X71285000Y-119238665D01*
X76035000Y-119238665D01*
X76035000Y-119521335D01*
X76090147Y-119798574D01*
X76198320Y-120059727D01*
X76355363Y-120294759D01*
X76555241Y-120494637D01*
X76790273Y-120651680D01*
X77051426Y-120759853D01*
X77328665Y-120815000D01*
X77611335Y-120815000D01*
X77888574Y-120759853D01*
X78149727Y-120651680D01*
X78384759Y-120494637D01*
X78581026Y-120298370D01*
X78575000Y-120328665D01*
X78575000Y-120611335D01*
X78630147Y-120888574D01*
X78738320Y-121149727D01*
X78895363Y-121384759D01*
X79094513Y-121583909D01*
X77646439Y-123031983D01*
X77611335Y-123025000D01*
X77328665Y-123025000D01*
X77051426Y-123080147D01*
X76790273Y-123188320D01*
X76555241Y-123345363D01*
X76355363Y-123545241D01*
X76198320Y-123780273D01*
X76090147Y-124041426D01*
X76035000Y-124318665D01*
X76035000Y-124601335D01*
X76090147Y-124878574D01*
X76198320Y-125139727D01*
X76355363Y-125374759D01*
X76555241Y-125574637D01*
X76790273Y-125731680D01*
X77051426Y-125839853D01*
X77328665Y-125895000D01*
X77611335Y-125895000D01*
X77888574Y-125839853D01*
X78149727Y-125731680D01*
X78384759Y-125574637D01*
X78584637Y-125374759D01*
X78741680Y-125139727D01*
X78849853Y-124878574D01*
X78905000Y-124601335D01*
X78905000Y-124318665D01*
X81115000Y-124318665D01*
X81115000Y-124601335D01*
X81170147Y-124878574D01*
X81278320Y-125139727D01*
X81435363Y-125374759D01*
X81635241Y-125574637D01*
X81870273Y-125731680D01*
X82131426Y-125839853D01*
X82408665Y-125895000D01*
X82691335Y-125895000D01*
X82968574Y-125839853D01*
X83229727Y-125731680D01*
X83464759Y-125574637D01*
X83664637Y-125374759D01*
X83821680Y-125139727D01*
X83929853Y-124878574D01*
X83985000Y-124601335D01*
X83985000Y-124318665D01*
X83929853Y-124041426D01*
X83821680Y-123780273D01*
X83664637Y-123545241D01*
X83464759Y-123345363D01*
X83229727Y-123188320D01*
X82968574Y-123080147D01*
X82691335Y-123025000D01*
X82408665Y-123025000D01*
X82131426Y-123080147D01*
X81870273Y-123188320D01*
X81635241Y-123345363D01*
X81435363Y-123545241D01*
X81278320Y-123780273D01*
X81170147Y-124041426D01*
X81115000Y-124318665D01*
X78905000Y-124318665D01*
X78898017Y-124283561D01*
X80605049Y-122576530D01*
X80638817Y-122548817D01*
X80702232Y-122471547D01*
X80749410Y-122414060D01*
X80831588Y-122260314D01*
X80831589Y-122260313D01*
X80882195Y-122093490D01*
X80895000Y-121963477D01*
X80895000Y-121963467D01*
X80899281Y-121920001D01*
X80895000Y-121876535D01*
X80895000Y-121604521D01*
X80924759Y-121584637D01*
X81124637Y-121384759D01*
X81281680Y-121149727D01*
X81389853Y-120888574D01*
X81445000Y-120611335D01*
X81445000Y-120328665D01*
X81389853Y-120051426D01*
X81281680Y-119790273D01*
X81124637Y-119555241D01*
X80924759Y-119355363D01*
X80689727Y-119198320D01*
X80428574Y-119090147D01*
X80151335Y-119035000D01*
X79868665Y-119035000D01*
X79591426Y-119090147D01*
X79330273Y-119198320D01*
X79095241Y-119355363D01*
X78898974Y-119551630D01*
X78905000Y-119521335D01*
X78905000Y-119238665D01*
X78849853Y-118961426D01*
X78741680Y-118700273D01*
X78584637Y-118465241D01*
X78384759Y-118265363D01*
X78149727Y-118108320D01*
X77888574Y-118000147D01*
X77611335Y-117945000D01*
X77328665Y-117945000D01*
X77051426Y-118000147D01*
X76790273Y-118108320D01*
X76555241Y-118265363D01*
X76355363Y-118465241D01*
X76198320Y-118700273D01*
X76090147Y-118961426D01*
X76035000Y-119238665D01*
X71285000Y-119238665D01*
X71229853Y-118961426D01*
X71121680Y-118700273D01*
X70964637Y-118465241D01*
X70764759Y-118265363D01*
X70529727Y-118108320D01*
X70268574Y-118000147D01*
X69991335Y-117945000D01*
X69708665Y-117945000D01*
X69431426Y-118000147D01*
X69170273Y-118108320D01*
X68935241Y-118265363D01*
X68735363Y-118465241D01*
X68578320Y-118700273D01*
X68470147Y-118961426D01*
X68415000Y-119238665D01*
X66205000Y-119238665D01*
X66149853Y-118961426D01*
X66041680Y-118700273D01*
X65884637Y-118465241D01*
X65684759Y-118265363D01*
X65449727Y-118108320D01*
X65188574Y-118000147D01*
X64911335Y-117945000D01*
X64628665Y-117945000D01*
X64351426Y-118000147D01*
X64090273Y-118108320D01*
X63855241Y-118265363D01*
X63655363Y-118465241D01*
X63498320Y-118700273D01*
X63390147Y-118961426D01*
X63341510Y-119205936D01*
X63115000Y-118979426D01*
X63115000Y-104004521D01*
X63144759Y-103984637D01*
X63344637Y-103784759D01*
X63395354Y-103708856D01*
X63390147Y-103721426D01*
X63335000Y-103998665D01*
X63335000Y-104281335D01*
X63390147Y-104558574D01*
X63498320Y-104819727D01*
X63655363Y-105054759D01*
X63855241Y-105254637D01*
X64090273Y-105411680D01*
X64351426Y-105519853D01*
X64628665Y-105575000D01*
X64911335Y-105575000D01*
X65188574Y-105519853D01*
X65449727Y-105411680D01*
X65684759Y-105254637D01*
X65884637Y-105054759D01*
X66041680Y-104819727D01*
X66149853Y-104558574D01*
X66205000Y-104281335D01*
X66205000Y-103998665D01*
X66149853Y-103721426D01*
X66041680Y-103460273D01*
X65884637Y-103225241D01*
X65684759Y-103025363D01*
X65449727Y-102868320D01*
X65188574Y-102760147D01*
X64911335Y-102705000D01*
X64628665Y-102705000D01*
X64351426Y-102760147D01*
X64090273Y-102868320D01*
X63855241Y-103025363D01*
X63655363Y-103225241D01*
X63604646Y-103301144D01*
X63609853Y-103288574D01*
X63665000Y-103011335D01*
X63665000Y-102728665D01*
X63609853Y-102451426D01*
X63501680Y-102190273D01*
X63344637Y-101955241D01*
X63144759Y-101755363D01*
X62909727Y-101598320D01*
X62648574Y-101490147D01*
X62371335Y-101435000D01*
X62088665Y-101435000D01*
X61811426Y-101490147D01*
X61550273Y-101598320D01*
X61315241Y-101755363D01*
X61115363Y-101955241D01*
X60958320Y-102190273D01*
X60850147Y-102451426D01*
X60795000Y-102728665D01*
X57410306Y-102728665D01*
X57291335Y-102705000D01*
X57008665Y-102705000D01*
X56731426Y-102760147D01*
X56470273Y-102868320D01*
X56235241Y-103025363D01*
X56035363Y-103225241D01*
X55878320Y-103460273D01*
X55770147Y-103721426D01*
X55715000Y-103998665D01*
X53600306Y-103998665D01*
X53481335Y-103975000D01*
X53198665Y-103975000D01*
X52921426Y-104030147D01*
X52660273Y-104138320D01*
X52425241Y-104295363D01*
X52225363Y-104495241D01*
X52068320Y-104730273D01*
X51960147Y-104991426D01*
X51905000Y-105268665D01*
X44152207Y-105268665D01*
X44104482Y-105254188D01*
X43980000Y-105241928D01*
X42380000Y-105241928D01*
X42255518Y-105254188D01*
X42135820Y-105290498D01*
X42025506Y-105349463D01*
X41928815Y-105428815D01*
X41849463Y-105525506D01*
X41790498Y-105635820D01*
X41754188Y-105755518D01*
X41741928Y-105880000D01*
X40792000Y-105880000D01*
X40792000Y-102489000D01*
X50038000Y-102489000D01*
X50062776Y-102486560D01*
X50086601Y-102479333D01*
X50108557Y-102467597D01*
X50127803Y-102451803D01*
X50143597Y-102432557D01*
X50155333Y-102410601D01*
X50162560Y-102386776D01*
X50165000Y-102362000D01*
X50165000Y-98918665D01*
X55715000Y-98918665D01*
X55715000Y-99201335D01*
X55770147Y-99478574D01*
X55878320Y-99739727D01*
X56035363Y-99974759D01*
X56235241Y-100174637D01*
X56470273Y-100331680D01*
X56731426Y-100439853D01*
X57008665Y-100495000D01*
X57291335Y-100495000D01*
X57568574Y-100439853D01*
X57829727Y-100331680D01*
X58064759Y-100174637D01*
X58264637Y-99974759D01*
X58421680Y-99739727D01*
X58529853Y-99478574D01*
X58585000Y-99201335D01*
X58585000Y-98918665D01*
X60795000Y-98918665D01*
X60795000Y-99201335D01*
X60850147Y-99478574D01*
X60958320Y-99739727D01*
X61115363Y-99974759D01*
X61315241Y-100174637D01*
X61550273Y-100331680D01*
X61811426Y-100439853D01*
X62088665Y-100495000D01*
X62371335Y-100495000D01*
X62648574Y-100439853D01*
X62909727Y-100331680D01*
X63144759Y-100174637D01*
X63344637Y-99974759D01*
X63500000Y-99742241D01*
X63655363Y-99974759D01*
X63855241Y-100174637D01*
X64090273Y-100331680D01*
X64351426Y-100439853D01*
X64628665Y-100495000D01*
X64911335Y-100495000D01*
X65188574Y-100439853D01*
X65449727Y-100331680D01*
X65684759Y-100174637D01*
X65884637Y-99974759D01*
X66041680Y-99739727D01*
X66149853Y-99478574D01*
X66205000Y-99201335D01*
X66205000Y-98918665D01*
X68415000Y-98918665D01*
X68415000Y-99201335D01*
X68470147Y-99478574D01*
X68578320Y-99739727D01*
X68735363Y-99974759D01*
X68935241Y-100174637D01*
X69170273Y-100331680D01*
X69431426Y-100439853D01*
X69708665Y-100495000D01*
X69991335Y-100495000D01*
X70268574Y-100439853D01*
X70529727Y-100331680D01*
X70764759Y-100174637D01*
X70964637Y-99974759D01*
X71121680Y-99739727D01*
X71229853Y-99478574D01*
X71243684Y-99409039D01*
X76078096Y-99409039D01*
X76118754Y-99543087D01*
X76238963Y-99797420D01*
X76406481Y-100023414D01*
X76614869Y-100212385D01*
X76856119Y-100357070D01*
X77120960Y-100451909D01*
X77343000Y-100330624D01*
X77343000Y-99187000D01*
X77597000Y-99187000D01*
X77597000Y-100330624D01*
X77819040Y-100451909D01*
X78083881Y-100357070D01*
X78325131Y-100212385D01*
X78533519Y-100023414D01*
X78701037Y-99797420D01*
X78821246Y-99543087D01*
X78861904Y-99409039D01*
X78739915Y-99187000D01*
X77597000Y-99187000D01*
X77343000Y-99187000D01*
X76200085Y-99187000D01*
X76078096Y-99409039D01*
X71243684Y-99409039D01*
X71285000Y-99201335D01*
X71285000Y-98918665D01*
X71243685Y-98710961D01*
X76078096Y-98710961D01*
X76200085Y-98933000D01*
X77343000Y-98933000D01*
X77343000Y-97789376D01*
X77597000Y-97789376D01*
X77597000Y-98933000D01*
X78739915Y-98933000D01*
X78861904Y-98710961D01*
X78821246Y-98576913D01*
X78701037Y-98322580D01*
X78533519Y-98096586D01*
X78325131Y-97907615D01*
X78083881Y-97762930D01*
X77819040Y-97668091D01*
X77597000Y-97789376D01*
X77343000Y-97789376D01*
X77120960Y-97668091D01*
X76856119Y-97762930D01*
X76614869Y-97907615D01*
X76406481Y-98096586D01*
X76238963Y-98322580D01*
X76118754Y-98576913D01*
X76078096Y-98710961D01*
X71243685Y-98710961D01*
X71229853Y-98641426D01*
X71121680Y-98380273D01*
X70964637Y-98145241D01*
X70764759Y-97945363D01*
X70529727Y-97788320D01*
X70268574Y-97680147D01*
X69991335Y-97625000D01*
X69708665Y-97625000D01*
X69431426Y-97680147D01*
X69170273Y-97788320D01*
X68935241Y-97945363D01*
X68735363Y-98145241D01*
X68578320Y-98380273D01*
X68470147Y-98641426D01*
X68415000Y-98918665D01*
X66205000Y-98918665D01*
X66149853Y-98641426D01*
X66041680Y-98380273D01*
X65884637Y-98145241D01*
X65684759Y-97945363D01*
X65449727Y-97788320D01*
X65188574Y-97680147D01*
X64915708Y-97625870D01*
X69972913Y-92568665D01*
X72225000Y-92568665D01*
X72225000Y-92851335D01*
X72280147Y-93128574D01*
X72388320Y-93389727D01*
X72545363Y-93624759D01*
X72745241Y-93824637D01*
X72980273Y-93981680D01*
X73241426Y-94089853D01*
X73518665Y-94145000D01*
X73801335Y-94145000D01*
X74078574Y-94089853D01*
X74339727Y-93981680D01*
X74574759Y-93824637D01*
X74774637Y-93624759D01*
X74931680Y-93389727D01*
X75039853Y-93128574D01*
X75095000Y-92851335D01*
X75095000Y-92568665D01*
X75039853Y-92291426D01*
X74931680Y-92030273D01*
X74774637Y-91795241D01*
X74574759Y-91595363D01*
X74339727Y-91438320D01*
X74078574Y-91330147D01*
X73801335Y-91275000D01*
X73518665Y-91275000D01*
X73241426Y-91330147D01*
X72980273Y-91438320D01*
X72745241Y-91595363D01*
X72545363Y-91795241D01*
X72388320Y-92030273D01*
X72280147Y-92291426D01*
X72225000Y-92568665D01*
X69972913Y-92568665D01*
X70445051Y-92096528D01*
X70478817Y-92068817D01*
X70589411Y-91934059D01*
X70671589Y-91780313D01*
X70722195Y-91613490D01*
X70735000Y-91483477D01*
X70735000Y-91483467D01*
X70739281Y-91440001D01*
X70735000Y-91396535D01*
X70735000Y-87390072D01*
X70750000Y-87390072D01*
X70874482Y-87377812D01*
X70994180Y-87341502D01*
X71104494Y-87282537D01*
X71201185Y-87203185D01*
X71280537Y-87106494D01*
X71339502Y-86996180D01*
X71375812Y-86876482D01*
X71388072Y-86752000D01*
X71388072Y-84952000D01*
X71387744Y-84948665D01*
X72225000Y-84948665D01*
X72225000Y-85231335D01*
X72280147Y-85508574D01*
X72388320Y-85769727D01*
X72545363Y-86004759D01*
X72745241Y-86204637D01*
X72980273Y-86361680D01*
X73241426Y-86469853D01*
X73518665Y-86525000D01*
X73801335Y-86525000D01*
X74078574Y-86469853D01*
X74339727Y-86361680D01*
X74574759Y-86204637D01*
X74774637Y-86004759D01*
X74931680Y-85769727D01*
X75039853Y-85508574D01*
X75095000Y-85231335D01*
X75095000Y-84948665D01*
X75039853Y-84671426D01*
X74931680Y-84410273D01*
X74774637Y-84175241D01*
X74574759Y-83975363D01*
X74339727Y-83818320D01*
X74078574Y-83710147D01*
X73801335Y-83655000D01*
X73518665Y-83655000D01*
X73241426Y-83710147D01*
X72980273Y-83818320D01*
X72745241Y-83975363D01*
X72545363Y-84175241D01*
X72388320Y-84410273D01*
X72280147Y-84671426D01*
X72225000Y-84948665D01*
X71387744Y-84948665D01*
X71375812Y-84827518D01*
X71339502Y-84707820D01*
X71280537Y-84597506D01*
X71201185Y-84500815D01*
X71104494Y-84421463D01*
X70994180Y-84362498D01*
X70874482Y-84326188D01*
X70750000Y-84313928D01*
X68950000Y-84313928D01*
X68825518Y-84326188D01*
X68705820Y-84362498D01*
X68595506Y-84421463D01*
X68498815Y-84500815D01*
X68419463Y-84597506D01*
X68360498Y-84707820D01*
X68354944Y-84726127D01*
X68288505Y-84659688D01*
X68037095Y-84491701D01*
X67757743Y-84375989D01*
X67461184Y-84317000D01*
X67158816Y-84317000D01*
X66862257Y-84375989D01*
X66582905Y-84491701D01*
X66331495Y-84659688D01*
X66117688Y-84873495D01*
X65949701Y-85124905D01*
X65833989Y-85404257D01*
X65775000Y-85700816D01*
X65775000Y-86003184D01*
X65833989Y-86299743D01*
X65949701Y-86579095D01*
X66117688Y-86830505D01*
X66331495Y-87044312D01*
X66582905Y-87212299D01*
X66862257Y-87328011D01*
X67158816Y-87387000D01*
X67461184Y-87387000D01*
X67757743Y-87328011D01*
X68037095Y-87212299D01*
X68288505Y-87044312D01*
X68354944Y-86977873D01*
X68360498Y-86996180D01*
X68419463Y-87106494D01*
X68498815Y-87203185D01*
X68595506Y-87282537D01*
X68705820Y-87341502D01*
X68825518Y-87377812D01*
X68950000Y-87390072D01*
X68965001Y-87390072D01*
X68965000Y-91073421D01*
X62406439Y-97631983D01*
X62371335Y-97625000D01*
X62088665Y-97625000D01*
X61811426Y-97680147D01*
X61550273Y-97788320D01*
X61315241Y-97945363D01*
X61115363Y-98145241D01*
X60958320Y-98380273D01*
X60850147Y-98641426D01*
X60795000Y-98918665D01*
X58585000Y-98918665D01*
X58529853Y-98641426D01*
X58421680Y-98380273D01*
X58264637Y-98145241D01*
X58064759Y-97945363D01*
X57829727Y-97788320D01*
X57568574Y-97680147D01*
X57291335Y-97625000D01*
X57008665Y-97625000D01*
X56731426Y-97680147D01*
X56470273Y-97788320D01*
X56235241Y-97945363D01*
X56035363Y-98145241D01*
X55878320Y-98380273D01*
X55770147Y-98641426D01*
X55715000Y-98918665D01*
X50165000Y-98918665D01*
X50165000Y-92568665D01*
X51905000Y-92568665D01*
X51905000Y-92851335D01*
X51960147Y-93128574D01*
X52068320Y-93389727D01*
X52225363Y-93624759D01*
X52425241Y-93824637D01*
X52660273Y-93981680D01*
X52921426Y-94089853D01*
X53198665Y-94145000D01*
X53481335Y-94145000D01*
X53758574Y-94089853D01*
X54019727Y-93981680D01*
X54254759Y-93824637D01*
X54454637Y-93624759D01*
X54611680Y-93389727D01*
X54719853Y-93128574D01*
X54775000Y-92851335D01*
X54775000Y-92568665D01*
X62065000Y-92568665D01*
X62065000Y-92851335D01*
X62120147Y-93128574D01*
X62228320Y-93389727D01*
X62385363Y-93624759D01*
X62585241Y-93824637D01*
X62820273Y-93981680D01*
X63081426Y-94089853D01*
X63358665Y-94145000D01*
X63641335Y-94145000D01*
X63918574Y-94089853D01*
X64179727Y-93981680D01*
X64414759Y-93824637D01*
X64614637Y-93624759D01*
X64771680Y-93389727D01*
X64879853Y-93128574D01*
X64935000Y-92851335D01*
X64935000Y-92568665D01*
X64879853Y-92291426D01*
X64771680Y-92030273D01*
X64614637Y-91795241D01*
X64414759Y-91595363D01*
X64179727Y-91438320D01*
X63918574Y-91330147D01*
X63641335Y-91275000D01*
X63358665Y-91275000D01*
X63081426Y-91330147D01*
X62820273Y-91438320D01*
X62585241Y-91595363D01*
X62385363Y-91795241D01*
X62228320Y-92030273D01*
X62120147Y-92291426D01*
X62065000Y-92568665D01*
X54775000Y-92568665D01*
X54719853Y-92291426D01*
X54611680Y-92030273D01*
X54454637Y-91795241D01*
X54254759Y-91595363D01*
X54019727Y-91438320D01*
X53758574Y-91330147D01*
X53481335Y-91275000D01*
X53198665Y-91275000D01*
X52921426Y-91330147D01*
X52660273Y-91438320D01*
X52425241Y-91595363D01*
X52225363Y-91795241D01*
X52068320Y-92030273D01*
X51960147Y-92291426D01*
X51905000Y-92568665D01*
X50165000Y-92568665D01*
X50165000Y-88900000D01*
X50162560Y-88875224D01*
X50155333Y-88851399D01*
X50143597Y-88829443D01*
X50127803Y-88810197D01*
X50108557Y-88794403D01*
X50086601Y-88782667D01*
X50062776Y-88775440D01*
X50038000Y-88773000D01*
X40792000Y-88773000D01*
X40792000Y-85631872D01*
X40945000Y-85631872D01*
X40945000Y-86072128D01*
X41030890Y-86503925D01*
X41199369Y-86910669D01*
X41443962Y-87276729D01*
X41755271Y-87588038D01*
X42121331Y-87832631D01*
X42528075Y-88001110D01*
X42959872Y-88087000D01*
X43400128Y-88087000D01*
X43831925Y-88001110D01*
X44238669Y-87832631D01*
X44604729Y-87588038D01*
X44916038Y-87276729D01*
X45160631Y-86910669D01*
X45329110Y-86503925D01*
X45415000Y-86072128D01*
X45415000Y-85631872D01*
X45329110Y-85200075D01*
X45224973Y-84948665D01*
X51905000Y-84948665D01*
X51905000Y-85231335D01*
X51960147Y-85508574D01*
X52068320Y-85769727D01*
X52225363Y-86004759D01*
X52425241Y-86204637D01*
X52660273Y-86361680D01*
X52921426Y-86469853D01*
X53198665Y-86525000D01*
X53481335Y-86525000D01*
X53758574Y-86469853D01*
X54019727Y-86361680D01*
X54254759Y-86204637D01*
X54454637Y-86004759D01*
X54611680Y-85769727D01*
X54640223Y-85700816D01*
X55615000Y-85700816D01*
X55615000Y-86003184D01*
X55673989Y-86299743D01*
X55789701Y-86579095D01*
X55957688Y-86830505D01*
X56171495Y-87044312D01*
X56422905Y-87212299D01*
X56702257Y-87328011D01*
X56998816Y-87387000D01*
X57301184Y-87387000D01*
X57597743Y-87328011D01*
X57877095Y-87212299D01*
X58128505Y-87044312D01*
X58194944Y-86977873D01*
X58200498Y-86996180D01*
X58259463Y-87106494D01*
X58338815Y-87203185D01*
X58435506Y-87282537D01*
X58545820Y-87341502D01*
X58665518Y-87377812D01*
X58790000Y-87390072D01*
X59404250Y-87387000D01*
X59563000Y-87228250D01*
X59563000Y-85979000D01*
X59817000Y-85979000D01*
X59817000Y-87228250D01*
X59975750Y-87387000D01*
X60590000Y-87390072D01*
X60714482Y-87377812D01*
X60834180Y-87341502D01*
X60944494Y-87282537D01*
X61041185Y-87203185D01*
X61120537Y-87106494D01*
X61179502Y-86996180D01*
X61215812Y-86876482D01*
X61228072Y-86752000D01*
X61225000Y-86137750D01*
X61066250Y-85979000D01*
X59817000Y-85979000D01*
X59563000Y-85979000D01*
X59543000Y-85979000D01*
X59543000Y-85725000D01*
X59563000Y-85725000D01*
X59563000Y-84475750D01*
X59817000Y-84475750D01*
X59817000Y-85725000D01*
X61066250Y-85725000D01*
X61225000Y-85566250D01*
X61228072Y-84952000D01*
X61227744Y-84948665D01*
X62065000Y-84948665D01*
X62065000Y-85231335D01*
X62120147Y-85508574D01*
X62228320Y-85769727D01*
X62385363Y-86004759D01*
X62585241Y-86204637D01*
X62820273Y-86361680D01*
X63081426Y-86469853D01*
X63358665Y-86525000D01*
X63641335Y-86525000D01*
X63918574Y-86469853D01*
X64179727Y-86361680D01*
X64414759Y-86204637D01*
X64614637Y-86004759D01*
X64771680Y-85769727D01*
X64879853Y-85508574D01*
X64935000Y-85231335D01*
X64935000Y-84948665D01*
X64879853Y-84671426D01*
X64771680Y-84410273D01*
X64614637Y-84175241D01*
X64414759Y-83975363D01*
X64179727Y-83818320D01*
X63918574Y-83710147D01*
X63641335Y-83655000D01*
X63358665Y-83655000D01*
X63081426Y-83710147D01*
X62820273Y-83818320D01*
X62585241Y-83975363D01*
X62385363Y-84175241D01*
X62228320Y-84410273D01*
X62120147Y-84671426D01*
X62065000Y-84948665D01*
X61227744Y-84948665D01*
X61215812Y-84827518D01*
X61179502Y-84707820D01*
X61120537Y-84597506D01*
X61041185Y-84500815D01*
X60944494Y-84421463D01*
X60834180Y-84362498D01*
X60714482Y-84326188D01*
X60590000Y-84313928D01*
X59975750Y-84317000D01*
X59817000Y-84475750D01*
X59563000Y-84475750D01*
X59404250Y-84317000D01*
X58790000Y-84313928D01*
X58665518Y-84326188D01*
X58545820Y-84362498D01*
X58435506Y-84421463D01*
X58338815Y-84500815D01*
X58259463Y-84597506D01*
X58200498Y-84707820D01*
X58194944Y-84726127D01*
X58128505Y-84659688D01*
X57877095Y-84491701D01*
X57597743Y-84375989D01*
X57301184Y-84317000D01*
X56998816Y-84317000D01*
X56702257Y-84375989D01*
X56422905Y-84491701D01*
X56171495Y-84659688D01*
X55957688Y-84873495D01*
X55789701Y-85124905D01*
X55673989Y-85404257D01*
X55615000Y-85700816D01*
X54640223Y-85700816D01*
X54719853Y-85508574D01*
X54775000Y-85231335D01*
X54775000Y-84948665D01*
X54719853Y-84671426D01*
X54611680Y-84410273D01*
X54454637Y-84175241D01*
X54254759Y-83975363D01*
X54019727Y-83818320D01*
X53758574Y-83710147D01*
X53481335Y-83655000D01*
X53198665Y-83655000D01*
X52921426Y-83710147D01*
X52660273Y-83818320D01*
X52425241Y-83975363D01*
X52225363Y-84175241D01*
X52068320Y-84410273D01*
X51960147Y-84671426D01*
X51905000Y-84948665D01*
X45224973Y-84948665D01*
X45160631Y-84793331D01*
X44916038Y-84427271D01*
X44604729Y-84115962D01*
X44238669Y-83871369D01*
X43831925Y-83702890D01*
X43400128Y-83617000D01*
X42959872Y-83617000D01*
X42528075Y-83702890D01*
X42121331Y-83871369D01*
X41755271Y-84115962D01*
X41443962Y-84427271D01*
X41199369Y-84793331D01*
X41030890Y-85200075D01*
X40945000Y-85631872D01*
X40792000Y-85631872D01*
X40792000Y-83464000D01*
X92583000Y-83464000D01*
X92583000Y-91825000D01*
G36*
X92583000Y-121424809D02*
G01*
X92426323Y-121268133D01*
X92433306Y-121233029D01*
X92433306Y-120950359D01*
X92378159Y-120673120D01*
X92269986Y-120411967D01*
X92112943Y-120176935D01*
X91913065Y-119977057D01*
X91678033Y-119820014D01*
X91416880Y-119711841D01*
X91139641Y-119656694D01*
X90856971Y-119656694D01*
X90579732Y-119711841D01*
X90318579Y-119820014D01*
X90083547Y-119977057D01*
X89883669Y-120176935D01*
X89726626Y-120411967D01*
X89665974Y-120558394D01*
X89162536Y-120054956D01*
X89134819Y-120021183D01*
X89000061Y-119910589D01*
X88846315Y-119828411D01*
X88679492Y-119777805D01*
X88549479Y-119765000D01*
X88549471Y-119765000D01*
X88506002Y-119760719D01*
X88462533Y-119765000D01*
X87996579Y-119765000D01*
X85541579Y-117310000D01*
X88731928Y-117310000D01*
X88731928Y-118910000D01*
X88744188Y-119034482D01*
X88780498Y-119154180D01*
X88839463Y-119264494D01*
X88918815Y-119361185D01*
X89015506Y-119440537D01*
X89125820Y-119499502D01*
X89245518Y-119535812D01*
X89370000Y-119548072D01*
X90970000Y-119548072D01*
X91094482Y-119535812D01*
X91214180Y-119499502D01*
X91324494Y-119440537D01*
X91421185Y-119361185D01*
X91500537Y-119264494D01*
X91559502Y-119154180D01*
X91595812Y-119034482D01*
X91608072Y-118910000D01*
X91608072Y-117310000D01*
X91595812Y-117185518D01*
X91559502Y-117065820D01*
X91500537Y-116955506D01*
X91421185Y-116858815D01*
X91324494Y-116779463D01*
X91214180Y-116720498D01*
X91094482Y-116684188D01*
X91086039Y-116683357D01*
X91284637Y-116484759D01*
X91441680Y-116249727D01*
X91549853Y-115988574D01*
X91605000Y-115711335D01*
X91605000Y-115428665D01*
X91549853Y-115151426D01*
X91441680Y-114890273D01*
X91284637Y-114655241D01*
X91084759Y-114455363D01*
X90852241Y-114300000D01*
X91084759Y-114144637D01*
X91284637Y-113944759D01*
X91441680Y-113709727D01*
X91549853Y-113448574D01*
X91605000Y-113171335D01*
X91605000Y-112888665D01*
X91549853Y-112611426D01*
X91441680Y-112350273D01*
X91284637Y-112115241D01*
X91084759Y-111915363D01*
X90849727Y-111758320D01*
X90588574Y-111650147D01*
X90311335Y-111595000D01*
X90028665Y-111595000D01*
X89751426Y-111650147D01*
X89490273Y-111758320D01*
X89255241Y-111915363D01*
X89055363Y-112115241D01*
X88898320Y-112350273D01*
X88790147Y-112611426D01*
X88735000Y-112888665D01*
X88735000Y-113171335D01*
X88790147Y-113448574D01*
X88898320Y-113709727D01*
X89055363Y-113944759D01*
X89255241Y-114144637D01*
X89487759Y-114300000D01*
X89255241Y-114455363D01*
X89055363Y-114655241D01*
X88898320Y-114890273D01*
X88790147Y-115151426D01*
X88735000Y-115428665D01*
X88735000Y-115711335D01*
X88790147Y-115988574D01*
X88898320Y-116249727D01*
X89055363Y-116484759D01*
X89253961Y-116683357D01*
X89245518Y-116684188D01*
X89125820Y-116720498D01*
X89015506Y-116779463D01*
X88918815Y-116858815D01*
X88839463Y-116955506D01*
X88780498Y-117065820D01*
X88744188Y-117185518D01*
X88731928Y-117310000D01*
X85541579Y-117310000D01*
X83978017Y-115746439D01*
X83985000Y-115711335D01*
X83985000Y-115428665D01*
X83929853Y-115151426D01*
X83821680Y-114890273D01*
X83664637Y-114655241D01*
X83464759Y-114455363D01*
X83232241Y-114300000D01*
X83464759Y-114144637D01*
X83664637Y-113944759D01*
X83821680Y-113709727D01*
X83929853Y-113448574D01*
X83985000Y-113171335D01*
X83985000Y-112888665D01*
X83929853Y-112611426D01*
X83821680Y-112350273D01*
X83664637Y-112115241D01*
X83464759Y-111915363D01*
X83435000Y-111895479D01*
X83435000Y-110348578D01*
X85295061Y-108488518D01*
X85328828Y-108460806D01*
X85439422Y-108326048D01*
X85521600Y-108172302D01*
X85572206Y-108005479D01*
X85585011Y-107875466D01*
X85585011Y-107875458D01*
X85589292Y-107831989D01*
X85585011Y-107788520D01*
X85585011Y-98918665D01*
X88735000Y-98918665D01*
X88735000Y-99201335D01*
X88790147Y-99478574D01*
X88898320Y-99739727D01*
X89055363Y-99974759D01*
X89255241Y-100174637D01*
X89487759Y-100330000D01*
X89255241Y-100485363D01*
X89055363Y-100685241D01*
X88898320Y-100920273D01*
X88790147Y-101181426D01*
X88735000Y-101458665D01*
X88735000Y-101741335D01*
X88790147Y-102018574D01*
X88898320Y-102279727D01*
X89055363Y-102514759D01*
X89255241Y-102714637D01*
X89487759Y-102870000D01*
X89255241Y-103025363D01*
X89055363Y-103225241D01*
X88898320Y-103460273D01*
X88790147Y-103721426D01*
X88735000Y-103998665D01*
X88735000Y-104281335D01*
X88790147Y-104558574D01*
X88898320Y-104819727D01*
X89055363Y-105054759D01*
X89255241Y-105254637D01*
X89487759Y-105410000D01*
X89255241Y-105565363D01*
X89055363Y-105765241D01*
X88898320Y-106000273D01*
X88790147Y-106261426D01*
X88735000Y-106538665D01*
X88735000Y-106821335D01*
X88790147Y-107098574D01*
X88898320Y-107359727D01*
X89055363Y-107594759D01*
X89255241Y-107794637D01*
X89490273Y-107951680D01*
X89751426Y-108059853D01*
X90028665Y-108115000D01*
X90311335Y-108115000D01*
X90588574Y-108059853D01*
X90849727Y-107951680D01*
X91084759Y-107794637D01*
X91284637Y-107594759D01*
X91441680Y-107359727D01*
X91549853Y-107098574D01*
X91605000Y-106821335D01*
X91605000Y-106538665D01*
X91549853Y-106261426D01*
X91441680Y-106000273D01*
X91284637Y-105765241D01*
X91084759Y-105565363D01*
X90852241Y-105410000D01*
X91084759Y-105254637D01*
X91284637Y-105054759D01*
X91441680Y-104819727D01*
X91549853Y-104558574D01*
X91605000Y-104281335D01*
X91605000Y-103998665D01*
X91549853Y-103721426D01*
X91441680Y-103460273D01*
X91284637Y-103225241D01*
X91084759Y-103025363D01*
X90852241Y-102870000D01*
X91084759Y-102714637D01*
X91284637Y-102514759D01*
X91441680Y-102279727D01*
X91549853Y-102018574D01*
X91605000Y-101741335D01*
X91605000Y-101458665D01*
X91549853Y-101181426D01*
X91441680Y-100920273D01*
X91284637Y-100685241D01*
X91084759Y-100485363D01*
X90852241Y-100330000D01*
X91084759Y-100174637D01*
X91284637Y-99974759D01*
X91441680Y-99739727D01*
X91549853Y-99478574D01*
X91605000Y-99201335D01*
X91605000Y-98918665D01*
X91549853Y-98641426D01*
X91441680Y-98380273D01*
X91284637Y-98145241D01*
X91084759Y-97945363D01*
X90849727Y-97788320D01*
X90588574Y-97680147D01*
X90311335Y-97625000D01*
X90028665Y-97625000D01*
X89751426Y-97680147D01*
X89490273Y-97788320D01*
X89255241Y-97945363D01*
X89055363Y-98145241D01*
X88898320Y-98380273D01*
X88790147Y-98641426D01*
X88735000Y-98918665D01*
X85585011Y-98918665D01*
X85585011Y-95483482D01*
X85589292Y-95440013D01*
X85585011Y-95396544D01*
X85585011Y-95396536D01*
X85572206Y-95266523D01*
X85521600Y-95099700D01*
X85439422Y-94945954D01*
X85328828Y-94811196D01*
X85295060Y-94783483D01*
X84495152Y-93983575D01*
X84499727Y-93981680D01*
X84734759Y-93824637D01*
X84934637Y-93624759D01*
X84954521Y-93595000D01*
X92583000Y-93595000D01*
X92583000Y-121424809D01*
G37*
X92583000Y-121424809D02*
X92426323Y-121268133D01*
X92433306Y-121233029D01*
X92433306Y-120950359D01*
X92378159Y-120673120D01*
X92269986Y-120411967D01*
X92112943Y-120176935D01*
X91913065Y-119977057D01*
X91678033Y-119820014D01*
X91416880Y-119711841D01*
X91139641Y-119656694D01*
X90856971Y-119656694D01*
X90579732Y-119711841D01*
X90318579Y-119820014D01*
X90083547Y-119977057D01*
X89883669Y-120176935D01*
X89726626Y-120411967D01*
X89665974Y-120558394D01*
X89162536Y-120054956D01*
X89134819Y-120021183D01*
X89000061Y-119910589D01*
X88846315Y-119828411D01*
X88679492Y-119777805D01*
X88549479Y-119765000D01*
X88549471Y-119765000D01*
X88506002Y-119760719D01*
X88462533Y-119765000D01*
X87996579Y-119765000D01*
X85541579Y-117310000D01*
X88731928Y-117310000D01*
X88731928Y-118910000D01*
X88744188Y-119034482D01*
X88780498Y-119154180D01*
X88839463Y-119264494D01*
X88918815Y-119361185D01*
X89015506Y-119440537D01*
X89125820Y-119499502D01*
X89245518Y-119535812D01*
X89370000Y-119548072D01*
X90970000Y-119548072D01*
X91094482Y-119535812D01*
X91214180Y-119499502D01*
X91324494Y-119440537D01*
X91421185Y-119361185D01*
X91500537Y-119264494D01*
X91559502Y-119154180D01*
X91595812Y-119034482D01*
X91608072Y-118910000D01*
X91608072Y-117310000D01*
X91595812Y-117185518D01*
X91559502Y-117065820D01*
X91500537Y-116955506D01*
X91421185Y-116858815D01*
X91324494Y-116779463D01*
X91214180Y-116720498D01*
X91094482Y-116684188D01*
X91086039Y-116683357D01*
X91284637Y-116484759D01*
X91441680Y-116249727D01*
X91549853Y-115988574D01*
X91605000Y-115711335D01*
X91605000Y-115428665D01*
X91549853Y-115151426D01*
X91441680Y-114890273D01*
X91284637Y-114655241D01*
X91084759Y-114455363D01*
X90852241Y-114300000D01*
X91084759Y-114144637D01*
X91284637Y-113944759D01*
X91441680Y-113709727D01*
X91549853Y-113448574D01*
X91605000Y-113171335D01*
X91605000Y-112888665D01*
X91549853Y-112611426D01*
X91441680Y-112350273D01*
X91284637Y-112115241D01*
X91084759Y-111915363D01*
X90849727Y-111758320D01*
X90588574Y-111650147D01*
X90311335Y-111595000D01*
X90028665Y-111595000D01*
X89751426Y-111650147D01*
X89490273Y-111758320D01*
X89255241Y-111915363D01*
X89055363Y-112115241D01*
X88898320Y-112350273D01*
X88790147Y-112611426D01*
X88735000Y-112888665D01*
X88735000Y-113171335D01*
X88790147Y-113448574D01*
X88898320Y-113709727D01*
X89055363Y-113944759D01*
X89255241Y-114144637D01*
X89487759Y-114300000D01*
X89255241Y-114455363D01*
X89055363Y-114655241D01*
X88898320Y-114890273D01*
X88790147Y-115151426D01*
X88735000Y-115428665D01*
X88735000Y-115711335D01*
X88790147Y-115988574D01*
X88898320Y-116249727D01*
X89055363Y-116484759D01*
X89253961Y-116683357D01*
X89245518Y-116684188D01*
X89125820Y-116720498D01*
X89015506Y-116779463D01*
X88918815Y-116858815D01*
X88839463Y-116955506D01*
X88780498Y-117065820D01*
X88744188Y-117185518D01*
X88731928Y-117310000D01*
X85541579Y-117310000D01*
X83978017Y-115746439D01*
X83985000Y-115711335D01*
X83985000Y-115428665D01*
X83929853Y-115151426D01*
X83821680Y-114890273D01*
X83664637Y-114655241D01*
X83464759Y-114455363D01*
X83232241Y-114300000D01*
X83464759Y-114144637D01*
X83664637Y-113944759D01*
X83821680Y-113709727D01*
X83929853Y-113448574D01*
X83985000Y-113171335D01*
X83985000Y-112888665D01*
X83929853Y-112611426D01*
X83821680Y-112350273D01*
X83664637Y-112115241D01*
X83464759Y-111915363D01*
X83435000Y-111895479D01*
X83435000Y-110348578D01*
X85295061Y-108488518D01*
X85328828Y-108460806D01*
X85439422Y-108326048D01*
X85521600Y-108172302D01*
X85572206Y-108005479D01*
X85585011Y-107875466D01*
X85585011Y-107875458D01*
X85589292Y-107831989D01*
X85585011Y-107788520D01*
X85585011Y-98918665D01*
X88735000Y-98918665D01*
X88735000Y-99201335D01*
X88790147Y-99478574D01*
X88898320Y-99739727D01*
X89055363Y-99974759D01*
X89255241Y-100174637D01*
X89487759Y-100330000D01*
X89255241Y-100485363D01*
X89055363Y-100685241D01*
X88898320Y-100920273D01*
X88790147Y-101181426D01*
X88735000Y-101458665D01*
X88735000Y-101741335D01*
X88790147Y-102018574D01*
X88898320Y-102279727D01*
X89055363Y-102514759D01*
X89255241Y-102714637D01*
X89487759Y-102870000D01*
X89255241Y-103025363D01*
X89055363Y-103225241D01*
X88898320Y-103460273D01*
X88790147Y-103721426D01*
X88735000Y-103998665D01*
X88735000Y-104281335D01*
X88790147Y-104558574D01*
X88898320Y-104819727D01*
X89055363Y-105054759D01*
X89255241Y-105254637D01*
X89487759Y-105410000D01*
X89255241Y-105565363D01*
X89055363Y-105765241D01*
X88898320Y-106000273D01*
X88790147Y-106261426D01*
X88735000Y-106538665D01*
X88735000Y-106821335D01*
X88790147Y-107098574D01*
X88898320Y-107359727D01*
X89055363Y-107594759D01*
X89255241Y-107794637D01*
X89490273Y-107951680D01*
X89751426Y-108059853D01*
X90028665Y-108115000D01*
X90311335Y-108115000D01*
X90588574Y-108059853D01*
X90849727Y-107951680D01*
X91084759Y-107794637D01*
X91284637Y-107594759D01*
X91441680Y-107359727D01*
X91549853Y-107098574D01*
X91605000Y-106821335D01*
X91605000Y-106538665D01*
X91549853Y-106261426D01*
X91441680Y-106000273D01*
X91284637Y-105765241D01*
X91084759Y-105565363D01*
X90852241Y-105410000D01*
X91084759Y-105254637D01*
X91284637Y-105054759D01*
X91441680Y-104819727D01*
X91549853Y-104558574D01*
X91605000Y-104281335D01*
X91605000Y-103998665D01*
X91549853Y-103721426D01*
X91441680Y-103460273D01*
X91284637Y-103225241D01*
X91084759Y-103025363D01*
X90852241Y-102870000D01*
X91084759Y-102714637D01*
X91284637Y-102514759D01*
X91441680Y-102279727D01*
X91549853Y-102018574D01*
X91605000Y-101741335D01*
X91605000Y-101458665D01*
X91549853Y-101181426D01*
X91441680Y-100920273D01*
X91284637Y-100685241D01*
X91084759Y-100485363D01*
X90852241Y-100330000D01*
X91084759Y-100174637D01*
X91284637Y-99974759D01*
X91441680Y-99739727D01*
X91549853Y-99478574D01*
X91605000Y-99201335D01*
X91605000Y-98918665D01*
X91549853Y-98641426D01*
X91441680Y-98380273D01*
X91284637Y-98145241D01*
X91084759Y-97945363D01*
X90849727Y-97788320D01*
X90588574Y-97680147D01*
X90311335Y-97625000D01*
X90028665Y-97625000D01*
X89751426Y-97680147D01*
X89490273Y-97788320D01*
X89255241Y-97945363D01*
X89055363Y-98145241D01*
X88898320Y-98380273D01*
X88790147Y-98641426D01*
X88735000Y-98918665D01*
X85585011Y-98918665D01*
X85585011Y-95483482D01*
X85589292Y-95440013D01*
X85585011Y-95396544D01*
X85585011Y-95396536D01*
X85572206Y-95266523D01*
X85521600Y-95099700D01*
X85439422Y-94945954D01*
X85328828Y-94811196D01*
X85295060Y-94783483D01*
X84495152Y-93983575D01*
X84499727Y-93981680D01*
X84734759Y-93824637D01*
X84934637Y-93624759D01*
X84954521Y-93595000D01*
X92583000Y-93595000D01*
X92583000Y-121424809D01*
%TO.N,GNDREF*%
G36*
X123800001Y-139040000D02*
G01*
X114944260Y-139040000D01*
X114956534Y-139025044D01*
X117435049Y-136546530D01*
X117468817Y-136518817D01*
X117507691Y-136471450D01*
X117540171Y-136431872D01*
X119177000Y-136431872D01*
X119177000Y-136872128D01*
X119262890Y-137303925D01*
X119431369Y-137710669D01*
X119675962Y-138076729D01*
X119987271Y-138388038D01*
X120353331Y-138632631D01*
X120760075Y-138801110D01*
X121191872Y-138887000D01*
X121632128Y-138887000D01*
X122063925Y-138801110D01*
X122470669Y-138632631D01*
X122836729Y-138388038D01*
X123148038Y-138076729D01*
X123392631Y-137710669D01*
X123561110Y-137303925D01*
X123647000Y-136872128D01*
X123647000Y-136431872D01*
X123561110Y-136000075D01*
X123392631Y-135593331D01*
X123148038Y-135227271D01*
X122836729Y-134915962D01*
X122470669Y-134671369D01*
X122063925Y-134502890D01*
X121632128Y-134417000D01*
X121191872Y-134417000D01*
X120760075Y-134502890D01*
X120353331Y-134671369D01*
X119987271Y-134915962D01*
X119675962Y-135227271D01*
X119431369Y-135593331D01*
X119262890Y-136000075D01*
X119177000Y-136431872D01*
X117540171Y-136431872D01*
X117579410Y-136384060D01*
X117598415Y-136348504D01*
X117661589Y-136230313D01*
X117712195Y-136063490D01*
X117725000Y-135933477D01*
X117725000Y-135933467D01*
X117729281Y-135890001D01*
X117725000Y-135846535D01*
X117725000Y-134986578D01*
X122286579Y-130425000D01*
X122572533Y-130425000D01*
X122616002Y-130429281D01*
X122659471Y-130425000D01*
X122659479Y-130425000D01*
X122789492Y-130412195D01*
X122956315Y-130361589D01*
X123110061Y-130279411D01*
X123244819Y-130168817D01*
X123272536Y-130135044D01*
X123800001Y-129607580D01*
X123800001Y-139040000D01*
G37*
X123800001Y-139040000D02*
X114944260Y-139040000D01*
X114956534Y-139025044D01*
X117435049Y-136546530D01*
X117468817Y-136518817D01*
X117507691Y-136471450D01*
X117540171Y-136431872D01*
X119177000Y-136431872D01*
X119177000Y-136872128D01*
X119262890Y-137303925D01*
X119431369Y-137710669D01*
X119675962Y-138076729D01*
X119987271Y-138388038D01*
X120353331Y-138632631D01*
X120760075Y-138801110D01*
X121191872Y-138887000D01*
X121632128Y-138887000D01*
X122063925Y-138801110D01*
X122470669Y-138632631D01*
X122836729Y-138388038D01*
X123148038Y-138076729D01*
X123392631Y-137710669D01*
X123561110Y-137303925D01*
X123647000Y-136872128D01*
X123647000Y-136431872D01*
X123561110Y-136000075D01*
X123392631Y-135593331D01*
X123148038Y-135227271D01*
X122836729Y-134915962D01*
X122470669Y-134671369D01*
X122063925Y-134502890D01*
X121632128Y-134417000D01*
X121191872Y-134417000D01*
X120760075Y-134502890D01*
X120353331Y-134671369D01*
X119987271Y-134915962D01*
X119675962Y-135227271D01*
X119431369Y-135593331D01*
X119262890Y-136000075D01*
X119177000Y-136431872D01*
X117540171Y-136431872D01*
X117579410Y-136384060D01*
X117598415Y-136348504D01*
X117661589Y-136230313D01*
X117712195Y-136063490D01*
X117725000Y-135933477D01*
X117725000Y-135933467D01*
X117729281Y-135890001D01*
X117725000Y-135846535D01*
X117725000Y-134986578D01*
X122286579Y-130425000D01*
X122572533Y-130425000D01*
X122616002Y-130429281D01*
X122659471Y-130425000D01*
X122659479Y-130425000D01*
X122789492Y-130412195D01*
X122956315Y-130361589D01*
X123110061Y-130279411D01*
X123244819Y-130168817D01*
X123272536Y-130135044D01*
X123800001Y-129607580D01*
X123800001Y-139040000D01*
G36*
X120449461Y-127797040D02*
G01*
X120435000Y-127869740D01*
X120435000Y-128162260D01*
X120492068Y-128449158D01*
X120604010Y-128719411D01*
X120766525Y-128962632D01*
X120973368Y-129169475D01*
X121012679Y-129195742D01*
X116244956Y-133963466D01*
X116211183Y-133991183D01*
X116100589Y-134125942D01*
X116018411Y-134279688D01*
X115967805Y-134446511D01*
X115955000Y-134576524D01*
X115955000Y-134576531D01*
X115950719Y-134620000D01*
X115955000Y-134663470D01*
X115955001Y-135523420D01*
X113933422Y-137545000D01*
X102220579Y-137545000D01*
X101800539Y-137124960D01*
X101815000Y-137052260D01*
X101815000Y-136759740D01*
X101757932Y-136472842D01*
X101645990Y-136202589D01*
X101483475Y-135959368D01*
X101351620Y-135827513D01*
X101424180Y-135805502D01*
X101534494Y-135746537D01*
X101631185Y-135667185D01*
X101710537Y-135570494D01*
X101769502Y-135460180D01*
X101805812Y-135340482D01*
X101818072Y-135216000D01*
X101815000Y-134651750D01*
X101656250Y-134493000D01*
X100457000Y-134493000D01*
X100457000Y-134513000D01*
X100203000Y-134513000D01*
X100203000Y-134493000D01*
X99003750Y-134493000D01*
X98845000Y-134651750D01*
X98841928Y-135216000D01*
X98854188Y-135340482D01*
X98890498Y-135460180D01*
X98949463Y-135570494D01*
X99028815Y-135667185D01*
X99125506Y-135746537D01*
X99235820Y-135805502D01*
X99308380Y-135827513D01*
X99176525Y-135959368D01*
X99014010Y-136202589D01*
X98902068Y-136472842D01*
X98845000Y-136759740D01*
X98845000Y-137052260D01*
X98902068Y-137339158D01*
X99014010Y-137609411D01*
X99176525Y-137852632D01*
X99383368Y-138059475D01*
X99626589Y-138221990D01*
X99896842Y-138333932D01*
X100183740Y-138391000D01*
X100476260Y-138391000D01*
X100548960Y-138376539D01*
X101197470Y-139025049D01*
X101209740Y-139040000D01*
X95898106Y-139040000D01*
X95996521Y-138942837D01*
X96130294Y-138745380D01*
X96222974Y-138525619D01*
X96271000Y-138292000D01*
X96271000Y-137967000D01*
X95188000Y-137967000D01*
X95188000Y-137987000D01*
X94934000Y-137987000D01*
X94934000Y-137967000D01*
X93851000Y-137967000D01*
X93851000Y-138292000D01*
X93899026Y-138525619D01*
X93991706Y-138745380D01*
X94125479Y-138942837D01*
X94223894Y-139040000D01*
X88148106Y-139040000D01*
X88246521Y-138942837D01*
X88380294Y-138745380D01*
X88472974Y-138525619D01*
X88521000Y-138292000D01*
X88521000Y-137967000D01*
X87438000Y-137967000D01*
X87438000Y-137987000D01*
X87184000Y-137987000D01*
X87184000Y-137967000D01*
X87164000Y-137967000D01*
X87164000Y-137713000D01*
X87184000Y-137713000D01*
X87184000Y-136471450D01*
X87438000Y-136471450D01*
X87438000Y-137713000D01*
X88521000Y-137713000D01*
X88521000Y-137388000D01*
X93851000Y-137388000D01*
X93851000Y-137713000D01*
X94934000Y-137713000D01*
X94934000Y-136471450D01*
X95188000Y-136471450D01*
X95188000Y-137713000D01*
X96271000Y-137713000D01*
X96271000Y-137388000D01*
X96222974Y-137154381D01*
X96130294Y-136934620D01*
X95996521Y-136737163D01*
X95826797Y-136569598D01*
X95627644Y-136438364D01*
X95406715Y-136348504D01*
X95374677Y-136346365D01*
X95188000Y-136471450D01*
X94934000Y-136471450D01*
X94747323Y-136346365D01*
X94715285Y-136348504D01*
X94494356Y-136438364D01*
X94295203Y-136569598D01*
X94125479Y-136737163D01*
X93991706Y-136934620D01*
X93899026Y-137154381D01*
X93851000Y-137388000D01*
X88521000Y-137388000D01*
X88472974Y-137154381D01*
X88380294Y-136934620D01*
X88246521Y-136737163D01*
X88076797Y-136569598D01*
X87877644Y-136438364D01*
X87656715Y-136348504D01*
X87624677Y-136346365D01*
X87438000Y-136471450D01*
X87184000Y-136471450D01*
X86997323Y-136346365D01*
X86965285Y-136348504D01*
X86744356Y-136438364D01*
X86545203Y-136569598D01*
X86487000Y-136627061D01*
X86487000Y-135263293D01*
X86589137Y-135366469D01*
X86811021Y-135516357D01*
X87057883Y-135620078D01*
X87123742Y-135632519D01*
X87334000Y-135509518D01*
X87334000Y-134167000D01*
X87588000Y-134167000D01*
X87588000Y-135509518D01*
X87798258Y-135632519D01*
X87803104Y-135631604D01*
X87882063Y-135749774D01*
X88026226Y-135893937D01*
X88195744Y-136007205D01*
X88384102Y-136085226D01*
X88584061Y-136125000D01*
X88787939Y-136125000D01*
X88987898Y-136085226D01*
X89176256Y-136007205D01*
X89345774Y-135893937D01*
X89489937Y-135749774D01*
X89603205Y-135580256D01*
X89681226Y-135391898D01*
X89721000Y-135191939D01*
X89721000Y-134988061D01*
X92651000Y-134988061D01*
X92651000Y-135191939D01*
X92690774Y-135391898D01*
X92768795Y-135580256D01*
X92882063Y-135749774D01*
X93026226Y-135893937D01*
X93195744Y-136007205D01*
X93384102Y-136085226D01*
X93584061Y-136125000D01*
X93787939Y-136125000D01*
X93987898Y-136085226D01*
X94176256Y-136007205D01*
X94345774Y-135893937D01*
X94489937Y-135749774D01*
X94568896Y-135631604D01*
X94573742Y-135632519D01*
X94784000Y-135509518D01*
X94784000Y-134167000D01*
X95038000Y-134167000D01*
X95038000Y-135509518D01*
X95248258Y-135632519D01*
X95314117Y-135620078D01*
X95560979Y-135516357D01*
X95782863Y-135366469D01*
X95971242Y-135176173D01*
X96118876Y-134952783D01*
X96220092Y-134704883D01*
X96271000Y-134442000D01*
X96271000Y-134167000D01*
X95038000Y-134167000D01*
X94784000Y-134167000D01*
X94162266Y-134167000D01*
X93987898Y-134094774D01*
X93787939Y-134055000D01*
X93584061Y-134055000D01*
X93384102Y-134094774D01*
X93195744Y-134172795D01*
X93026226Y-134286063D01*
X92882063Y-134430226D01*
X92768795Y-134599744D01*
X92690774Y-134788102D01*
X92651000Y-134988061D01*
X89721000Y-134988061D01*
X89681226Y-134788102D01*
X89603205Y-134599744D01*
X89489937Y-134430226D01*
X89345774Y-134286063D01*
X89176256Y-134172795D01*
X88987898Y-134094774D01*
X88787939Y-134055000D01*
X88584061Y-134055000D01*
X88384102Y-134094774D01*
X88209734Y-134167000D01*
X87588000Y-134167000D01*
X87334000Y-134167000D01*
X87314000Y-134167000D01*
X87314000Y-133913000D01*
X87334000Y-133913000D01*
X87334000Y-132570482D01*
X87588000Y-132570482D01*
X87588000Y-133913000D01*
X88821000Y-133913000D01*
X88821000Y-133638000D01*
X93551000Y-133638000D01*
X93551000Y-133913000D01*
X94784000Y-133913000D01*
X94784000Y-132570482D01*
X95038000Y-132570482D01*
X95038000Y-133913000D01*
X96271000Y-133913000D01*
X96271000Y-133638000D01*
X96247375Y-133516000D01*
X98841928Y-133516000D01*
X98845000Y-134080250D01*
X99003750Y-134239000D01*
X100203000Y-134239000D01*
X100203000Y-133039750D01*
X100457000Y-133039750D01*
X100457000Y-134239000D01*
X101656250Y-134239000D01*
X101815000Y-134080250D01*
X101818072Y-133516000D01*
X101805812Y-133391518D01*
X101769502Y-133271820D01*
X101710537Y-133161506D01*
X101631185Y-133064815D01*
X101534494Y-132985463D01*
X101424180Y-132926498D01*
X101304482Y-132890188D01*
X101180000Y-132877928D01*
X100615750Y-132881000D01*
X100457000Y-133039750D01*
X100203000Y-133039750D01*
X100044250Y-132881000D01*
X99480000Y-132877928D01*
X99355518Y-132890188D01*
X99235820Y-132926498D01*
X99125506Y-132985463D01*
X99028815Y-133064815D01*
X98949463Y-133161506D01*
X98890498Y-133271820D01*
X98854188Y-133391518D01*
X98841928Y-133516000D01*
X96247375Y-133516000D01*
X96220092Y-133375117D01*
X96118876Y-133127217D01*
X95971242Y-132903827D01*
X95782863Y-132713531D01*
X95560979Y-132563643D01*
X95314117Y-132459922D01*
X95248258Y-132447481D01*
X95038000Y-132570482D01*
X94784000Y-132570482D01*
X94573742Y-132447481D01*
X94507883Y-132459922D01*
X94261021Y-132563643D01*
X94039137Y-132713531D01*
X93850758Y-132903827D01*
X93703124Y-133127217D01*
X93601908Y-133375117D01*
X93551000Y-133638000D01*
X88821000Y-133638000D01*
X88770092Y-133375117D01*
X88668876Y-133127217D01*
X88521242Y-132903827D01*
X88332863Y-132713531D01*
X88110979Y-132563643D01*
X87864117Y-132459922D01*
X87798258Y-132447481D01*
X87588000Y-132570482D01*
X87334000Y-132570482D01*
X87123742Y-132447481D01*
X87057883Y-132459922D01*
X86811021Y-132563643D01*
X86589137Y-132713531D01*
X86487000Y-132816707D01*
X86487000Y-132232061D01*
X90151000Y-132232061D01*
X90151000Y-132435939D01*
X90190774Y-132635898D01*
X90268795Y-132824256D01*
X90382063Y-132993774D01*
X90526226Y-133137937D01*
X90695744Y-133251205D01*
X90884102Y-133329226D01*
X91084061Y-133369000D01*
X91287939Y-133369000D01*
X91487898Y-133329226D01*
X91676256Y-133251205D01*
X91845774Y-133137937D01*
X91989937Y-132993774D01*
X92103205Y-132824256D01*
X92181226Y-132635898D01*
X92221000Y-132435939D01*
X92221000Y-132232061D01*
X92181226Y-132032102D01*
X92103205Y-131843744D01*
X91989937Y-131674226D01*
X91845774Y-131530063D01*
X91676256Y-131416795D01*
X91487898Y-131338774D01*
X91287939Y-131299000D01*
X91084061Y-131299000D01*
X90884102Y-131338774D01*
X90695744Y-131416795D01*
X90526226Y-131530063D01*
X90382063Y-131674226D01*
X90268795Y-131843744D01*
X90190774Y-132032102D01*
X90151000Y-132232061D01*
X86487000Y-132232061D01*
X86487000Y-131191000D01*
X93218000Y-131191000D01*
X93242776Y-131188560D01*
X93266601Y-131181333D01*
X93288557Y-131169597D01*
X93307803Y-131153803D01*
X93323597Y-131134557D01*
X93335333Y-131112601D01*
X93342560Y-131088776D01*
X93345000Y-131064000D01*
X93345000Y-125345000D01*
X117997422Y-125345000D01*
X120449461Y-127797040D01*
G37*
X120449461Y-127797040D02*
X120435000Y-127869740D01*
X120435000Y-128162260D01*
X120492068Y-128449158D01*
X120604010Y-128719411D01*
X120766525Y-128962632D01*
X120973368Y-129169475D01*
X121012679Y-129195742D01*
X116244956Y-133963466D01*
X116211183Y-133991183D01*
X116100589Y-134125942D01*
X116018411Y-134279688D01*
X115967805Y-134446511D01*
X115955000Y-134576524D01*
X115955000Y-134576531D01*
X115950719Y-134620000D01*
X115955000Y-134663470D01*
X115955001Y-135523420D01*
X113933422Y-137545000D01*
X102220579Y-137545000D01*
X101800539Y-137124960D01*
X101815000Y-137052260D01*
X101815000Y-136759740D01*
X101757932Y-136472842D01*
X101645990Y-136202589D01*
X101483475Y-135959368D01*
X101351620Y-135827513D01*
X101424180Y-135805502D01*
X101534494Y-135746537D01*
X101631185Y-135667185D01*
X101710537Y-135570494D01*
X101769502Y-135460180D01*
X101805812Y-135340482D01*
X101818072Y-135216000D01*
X101815000Y-134651750D01*
X101656250Y-134493000D01*
X100457000Y-134493000D01*
X100457000Y-134513000D01*
X100203000Y-134513000D01*
X100203000Y-134493000D01*
X99003750Y-134493000D01*
X98845000Y-134651750D01*
X98841928Y-135216000D01*
X98854188Y-135340482D01*
X98890498Y-135460180D01*
X98949463Y-135570494D01*
X99028815Y-135667185D01*
X99125506Y-135746537D01*
X99235820Y-135805502D01*
X99308380Y-135827513D01*
X99176525Y-135959368D01*
X99014010Y-136202589D01*
X98902068Y-136472842D01*
X98845000Y-136759740D01*
X98845000Y-137052260D01*
X98902068Y-137339158D01*
X99014010Y-137609411D01*
X99176525Y-137852632D01*
X99383368Y-138059475D01*
X99626589Y-138221990D01*
X99896842Y-138333932D01*
X100183740Y-138391000D01*
X100476260Y-138391000D01*
X100548960Y-138376539D01*
X101197470Y-139025049D01*
X101209740Y-139040000D01*
X95898106Y-139040000D01*
X95996521Y-138942837D01*
X96130294Y-138745380D01*
X96222974Y-138525619D01*
X96271000Y-138292000D01*
X96271000Y-137967000D01*
X95188000Y-137967000D01*
X95188000Y-137987000D01*
X94934000Y-137987000D01*
X94934000Y-137967000D01*
X93851000Y-137967000D01*
X93851000Y-138292000D01*
X93899026Y-138525619D01*
X93991706Y-138745380D01*
X94125479Y-138942837D01*
X94223894Y-139040000D01*
X88148106Y-139040000D01*
X88246521Y-138942837D01*
X88380294Y-138745380D01*
X88472974Y-138525619D01*
X88521000Y-138292000D01*
X88521000Y-137967000D01*
X87438000Y-137967000D01*
X87438000Y-137987000D01*
X87184000Y-137987000D01*
X87184000Y-137967000D01*
X87164000Y-137967000D01*
X87164000Y-137713000D01*
X87184000Y-137713000D01*
X87184000Y-136471450D01*
X87438000Y-136471450D01*
X87438000Y-137713000D01*
X88521000Y-137713000D01*
X88521000Y-137388000D01*
X93851000Y-137388000D01*
X93851000Y-137713000D01*
X94934000Y-137713000D01*
X94934000Y-136471450D01*
X95188000Y-136471450D01*
X95188000Y-137713000D01*
X96271000Y-137713000D01*
X96271000Y-137388000D01*
X96222974Y-137154381D01*
X96130294Y-136934620D01*
X95996521Y-136737163D01*
X95826797Y-136569598D01*
X95627644Y-136438364D01*
X95406715Y-136348504D01*
X95374677Y-136346365D01*
X95188000Y-136471450D01*
X94934000Y-136471450D01*
X94747323Y-136346365D01*
X94715285Y-136348504D01*
X94494356Y-136438364D01*
X94295203Y-136569598D01*
X94125479Y-136737163D01*
X93991706Y-136934620D01*
X93899026Y-137154381D01*
X93851000Y-137388000D01*
X88521000Y-137388000D01*
X88472974Y-137154381D01*
X88380294Y-136934620D01*
X88246521Y-136737163D01*
X88076797Y-136569598D01*
X87877644Y-136438364D01*
X87656715Y-136348504D01*
X87624677Y-136346365D01*
X87438000Y-136471450D01*
X87184000Y-136471450D01*
X86997323Y-136346365D01*
X86965285Y-136348504D01*
X86744356Y-136438364D01*
X86545203Y-136569598D01*
X86487000Y-136627061D01*
X86487000Y-135263293D01*
X86589137Y-135366469D01*
X86811021Y-135516357D01*
X87057883Y-135620078D01*
X87123742Y-135632519D01*
X87334000Y-135509518D01*
X87334000Y-134167000D01*
X87588000Y-134167000D01*
X87588000Y-135509518D01*
X87798258Y-135632519D01*
X87803104Y-135631604D01*
X87882063Y-135749774D01*
X88026226Y-135893937D01*
X88195744Y-136007205D01*
X88384102Y-136085226D01*
X88584061Y-136125000D01*
X88787939Y-136125000D01*
X88987898Y-136085226D01*
X89176256Y-136007205D01*
X89345774Y-135893937D01*
X89489937Y-135749774D01*
X89603205Y-135580256D01*
X89681226Y-135391898D01*
X89721000Y-135191939D01*
X89721000Y-134988061D01*
X92651000Y-134988061D01*
X92651000Y-135191939D01*
X92690774Y-135391898D01*
X92768795Y-135580256D01*
X92882063Y-135749774D01*
X93026226Y-135893937D01*
X93195744Y-136007205D01*
X93384102Y-136085226D01*
X93584061Y-136125000D01*
X93787939Y-136125000D01*
X93987898Y-136085226D01*
X94176256Y-136007205D01*
X94345774Y-135893937D01*
X94489937Y-135749774D01*
X94568896Y-135631604D01*
X94573742Y-135632519D01*
X94784000Y-135509518D01*
X94784000Y-134167000D01*
X95038000Y-134167000D01*
X95038000Y-135509518D01*
X95248258Y-135632519D01*
X95314117Y-135620078D01*
X95560979Y-135516357D01*
X95782863Y-135366469D01*
X95971242Y-135176173D01*
X96118876Y-134952783D01*
X96220092Y-134704883D01*
X96271000Y-134442000D01*
X96271000Y-134167000D01*
X95038000Y-134167000D01*
X94784000Y-134167000D01*
X94162266Y-134167000D01*
X93987898Y-134094774D01*
X93787939Y-134055000D01*
X93584061Y-134055000D01*
X93384102Y-134094774D01*
X93195744Y-134172795D01*
X93026226Y-134286063D01*
X92882063Y-134430226D01*
X92768795Y-134599744D01*
X92690774Y-134788102D01*
X92651000Y-134988061D01*
X89721000Y-134988061D01*
X89681226Y-134788102D01*
X89603205Y-134599744D01*
X89489937Y-134430226D01*
X89345774Y-134286063D01*
X89176256Y-134172795D01*
X88987898Y-134094774D01*
X88787939Y-134055000D01*
X88584061Y-134055000D01*
X88384102Y-134094774D01*
X88209734Y-134167000D01*
X87588000Y-134167000D01*
X87334000Y-134167000D01*
X87314000Y-134167000D01*
X87314000Y-133913000D01*
X87334000Y-133913000D01*
X87334000Y-132570482D01*
X87588000Y-132570482D01*
X87588000Y-133913000D01*
X88821000Y-133913000D01*
X88821000Y-133638000D01*
X93551000Y-133638000D01*
X93551000Y-133913000D01*
X94784000Y-133913000D01*
X94784000Y-132570482D01*
X95038000Y-132570482D01*
X95038000Y-133913000D01*
X96271000Y-133913000D01*
X96271000Y-133638000D01*
X96247375Y-133516000D01*
X98841928Y-133516000D01*
X98845000Y-134080250D01*
X99003750Y-134239000D01*
X100203000Y-134239000D01*
X100203000Y-133039750D01*
X100457000Y-133039750D01*
X100457000Y-134239000D01*
X101656250Y-134239000D01*
X101815000Y-134080250D01*
X101818072Y-133516000D01*
X101805812Y-133391518D01*
X101769502Y-133271820D01*
X101710537Y-133161506D01*
X101631185Y-133064815D01*
X101534494Y-132985463D01*
X101424180Y-132926498D01*
X101304482Y-132890188D01*
X101180000Y-132877928D01*
X100615750Y-132881000D01*
X100457000Y-133039750D01*
X100203000Y-133039750D01*
X100044250Y-132881000D01*
X99480000Y-132877928D01*
X99355518Y-132890188D01*
X99235820Y-132926498D01*
X99125506Y-132985463D01*
X99028815Y-133064815D01*
X98949463Y-133161506D01*
X98890498Y-133271820D01*
X98854188Y-133391518D01*
X98841928Y-133516000D01*
X96247375Y-133516000D01*
X96220092Y-133375117D01*
X96118876Y-133127217D01*
X95971242Y-132903827D01*
X95782863Y-132713531D01*
X95560979Y-132563643D01*
X95314117Y-132459922D01*
X95248258Y-132447481D01*
X95038000Y-132570482D01*
X94784000Y-132570482D01*
X94573742Y-132447481D01*
X94507883Y-132459922D01*
X94261021Y-132563643D01*
X94039137Y-132713531D01*
X93850758Y-132903827D01*
X93703124Y-133127217D01*
X93601908Y-133375117D01*
X93551000Y-133638000D01*
X88821000Y-133638000D01*
X88770092Y-133375117D01*
X88668876Y-133127217D01*
X88521242Y-132903827D01*
X88332863Y-132713531D01*
X88110979Y-132563643D01*
X87864117Y-132459922D01*
X87798258Y-132447481D01*
X87588000Y-132570482D01*
X87334000Y-132570482D01*
X87123742Y-132447481D01*
X87057883Y-132459922D01*
X86811021Y-132563643D01*
X86589137Y-132713531D01*
X86487000Y-132816707D01*
X86487000Y-132232061D01*
X90151000Y-132232061D01*
X90151000Y-132435939D01*
X90190774Y-132635898D01*
X90268795Y-132824256D01*
X90382063Y-132993774D01*
X90526226Y-133137937D01*
X90695744Y-133251205D01*
X90884102Y-133329226D01*
X91084061Y-133369000D01*
X91287939Y-133369000D01*
X91487898Y-133329226D01*
X91676256Y-133251205D01*
X91845774Y-133137937D01*
X91989937Y-132993774D01*
X92103205Y-132824256D01*
X92181226Y-132635898D01*
X92221000Y-132435939D01*
X92221000Y-132232061D01*
X92181226Y-132032102D01*
X92103205Y-131843744D01*
X91989937Y-131674226D01*
X91845774Y-131530063D01*
X91676256Y-131416795D01*
X91487898Y-131338774D01*
X91287939Y-131299000D01*
X91084061Y-131299000D01*
X90884102Y-131338774D01*
X90695744Y-131416795D01*
X90526226Y-131530063D01*
X90382063Y-131674226D01*
X90268795Y-131843744D01*
X90190774Y-132032102D01*
X90151000Y-132232061D01*
X86487000Y-132232061D01*
X86487000Y-131191000D01*
X93218000Y-131191000D01*
X93242776Y-131188560D01*
X93266601Y-131181333D01*
X93288557Y-131169597D01*
X93307803Y-131153803D01*
X93323597Y-131134557D01*
X93335333Y-131112601D01*
X93342560Y-131088776D01*
X93345000Y-131064000D01*
X93345000Y-125345000D01*
X117997422Y-125345000D01*
X120449461Y-127797040D01*
G36*
X122050351Y-95031928D02*
G01*
X121070000Y-95031928D01*
X120945518Y-95044188D01*
X120825820Y-95080498D01*
X120715506Y-95139463D01*
X120618815Y-95218815D01*
X120539463Y-95315506D01*
X120480498Y-95425820D01*
X120444188Y-95545518D01*
X120431928Y-95670000D01*
X120431928Y-95782853D01*
X120353872Y-95806531D01*
X120327753Y-95814454D01*
X120195723Y-95885026D01*
X120165568Y-95909774D01*
X120079999Y-95979999D01*
X120056201Y-96008997D01*
X116149999Y-99915200D01*
X116149999Y-97014802D01*
X116879802Y-96285000D01*
X116941939Y-96285000D01*
X117141898Y-96245226D01*
X117330256Y-96167205D01*
X117499774Y-96053937D01*
X117643937Y-95909774D01*
X117757205Y-95740256D01*
X117835226Y-95551898D01*
X117875000Y-95351939D01*
X117875000Y-95148061D01*
X117835226Y-94948102D01*
X117757205Y-94759744D01*
X117643937Y-94590226D01*
X117499774Y-94446063D01*
X117330256Y-94332795D01*
X117141898Y-94254774D01*
X116941939Y-94215000D01*
X116738061Y-94215000D01*
X116538102Y-94254774D01*
X116349744Y-94332795D01*
X116180226Y-94446063D01*
X116036063Y-94590226D01*
X115922795Y-94759744D01*
X115844774Y-94948102D01*
X115805000Y-95148061D01*
X115805000Y-95210198D01*
X114878997Y-96136202D01*
X114849999Y-96160000D01*
X114826201Y-96188998D01*
X114826200Y-96188999D01*
X114755025Y-96275725D01*
X114684453Y-96407755D01*
X114640997Y-96551016D01*
X114626323Y-96700001D01*
X114630000Y-96737333D01*
X114629999Y-104176677D01*
X114626323Y-104213999D01*
X114629999Y-104251321D01*
X114629999Y-104251331D01*
X114640996Y-104362984D01*
X114670275Y-104459506D01*
X114684453Y-104506245D01*
X114755025Y-104638275D01*
X114771261Y-104658058D01*
X114849998Y-104754000D01*
X114879002Y-104777803D01*
X120478790Y-110377592D01*
X120435000Y-110597740D01*
X120435000Y-110890260D01*
X120492068Y-111177158D01*
X120604010Y-111447411D01*
X120766525Y-111690632D01*
X120973368Y-111897475D01*
X121155534Y-112019195D01*
X121038645Y-112088822D01*
X120822412Y-112283731D01*
X120648359Y-112517080D01*
X120523175Y-112779901D01*
X120478524Y-112927110D01*
X120599845Y-113157000D01*
X121793000Y-113157000D01*
X121793000Y-113137000D01*
X122047000Y-113137000D01*
X122047000Y-113157000D01*
X122067000Y-113157000D01*
X122067000Y-113411000D01*
X122047000Y-113411000D01*
X122047000Y-114604814D01*
X122276891Y-114725481D01*
X122535001Y-114633922D01*
X122535002Y-118909207D01*
X122205750Y-118911000D01*
X122047000Y-119069750D01*
X122047000Y-120269000D01*
X122067000Y-120269000D01*
X122067000Y-120523000D01*
X122047000Y-120523000D01*
X122047000Y-120543000D01*
X121793000Y-120543000D01*
X121793000Y-120523000D01*
X120593750Y-120523000D01*
X120435000Y-120681750D01*
X120431928Y-121246000D01*
X120444188Y-121370482D01*
X120480498Y-121490180D01*
X120508731Y-121543000D01*
X93345000Y-121543000D01*
X93345000Y-119546000D01*
X120431928Y-119546000D01*
X120435000Y-120110250D01*
X120593750Y-120269000D01*
X121793000Y-120269000D01*
X121793000Y-119069750D01*
X121634250Y-118911000D01*
X121070000Y-118907928D01*
X120945518Y-118920188D01*
X120825820Y-118956498D01*
X120715506Y-119015463D01*
X120618815Y-119094815D01*
X120539463Y-119191506D01*
X120480498Y-119301820D01*
X120444188Y-119421518D01*
X120431928Y-119546000D01*
X93345000Y-119546000D01*
X93345000Y-113640890D01*
X120478524Y-113640890D01*
X120523175Y-113788099D01*
X120648359Y-114050920D01*
X120822412Y-114284269D01*
X121038645Y-114479178D01*
X121288748Y-114628157D01*
X121563109Y-114725481D01*
X121793000Y-114604814D01*
X121793000Y-113411000D01*
X120599845Y-113411000D01*
X120478524Y-113640890D01*
X93345000Y-113640890D01*
X93345000Y-93595000D01*
X120613424Y-93595000D01*
X122050351Y-95031928D01*
G37*
X122050351Y-95031928D02*
X121070000Y-95031928D01*
X120945518Y-95044188D01*
X120825820Y-95080498D01*
X120715506Y-95139463D01*
X120618815Y-95218815D01*
X120539463Y-95315506D01*
X120480498Y-95425820D01*
X120444188Y-95545518D01*
X120431928Y-95670000D01*
X120431928Y-95782853D01*
X120353872Y-95806531D01*
X120327753Y-95814454D01*
X120195723Y-95885026D01*
X120165568Y-95909774D01*
X120079999Y-95979999D01*
X120056201Y-96008997D01*
X116149999Y-99915200D01*
X116149999Y-97014802D01*
X116879802Y-96285000D01*
X116941939Y-96285000D01*
X117141898Y-96245226D01*
X117330256Y-96167205D01*
X117499774Y-96053937D01*
X117643937Y-95909774D01*
X117757205Y-95740256D01*
X117835226Y-95551898D01*
X117875000Y-95351939D01*
X117875000Y-95148061D01*
X117835226Y-94948102D01*
X117757205Y-94759744D01*
X117643937Y-94590226D01*
X117499774Y-94446063D01*
X117330256Y-94332795D01*
X117141898Y-94254774D01*
X116941939Y-94215000D01*
X116738061Y-94215000D01*
X116538102Y-94254774D01*
X116349744Y-94332795D01*
X116180226Y-94446063D01*
X116036063Y-94590226D01*
X115922795Y-94759744D01*
X115844774Y-94948102D01*
X115805000Y-95148061D01*
X115805000Y-95210198D01*
X114878997Y-96136202D01*
X114849999Y-96160000D01*
X114826201Y-96188998D01*
X114826200Y-96188999D01*
X114755025Y-96275725D01*
X114684453Y-96407755D01*
X114640997Y-96551016D01*
X114626323Y-96700001D01*
X114630000Y-96737333D01*
X114629999Y-104176677D01*
X114626323Y-104213999D01*
X114629999Y-104251321D01*
X114629999Y-104251331D01*
X114640996Y-104362984D01*
X114670275Y-104459506D01*
X114684453Y-104506245D01*
X114755025Y-104638275D01*
X114771261Y-104658058D01*
X114849998Y-104754000D01*
X114879002Y-104777803D01*
X120478790Y-110377592D01*
X120435000Y-110597740D01*
X120435000Y-110890260D01*
X120492068Y-111177158D01*
X120604010Y-111447411D01*
X120766525Y-111690632D01*
X120973368Y-111897475D01*
X121155534Y-112019195D01*
X121038645Y-112088822D01*
X120822412Y-112283731D01*
X120648359Y-112517080D01*
X120523175Y-112779901D01*
X120478524Y-112927110D01*
X120599845Y-113157000D01*
X121793000Y-113157000D01*
X121793000Y-113137000D01*
X122047000Y-113137000D01*
X122047000Y-113157000D01*
X122067000Y-113157000D01*
X122067000Y-113411000D01*
X122047000Y-113411000D01*
X122047000Y-114604814D01*
X122276891Y-114725481D01*
X122535001Y-114633922D01*
X122535002Y-118909207D01*
X122205750Y-118911000D01*
X122047000Y-119069750D01*
X122047000Y-120269000D01*
X122067000Y-120269000D01*
X122067000Y-120523000D01*
X122047000Y-120523000D01*
X122047000Y-120543000D01*
X121793000Y-120543000D01*
X121793000Y-120523000D01*
X120593750Y-120523000D01*
X120435000Y-120681750D01*
X120431928Y-121246000D01*
X120444188Y-121370482D01*
X120480498Y-121490180D01*
X120508731Y-121543000D01*
X93345000Y-121543000D01*
X93345000Y-119546000D01*
X120431928Y-119546000D01*
X120435000Y-120110250D01*
X120593750Y-120269000D01*
X121793000Y-120269000D01*
X121793000Y-119069750D01*
X121634250Y-118911000D01*
X121070000Y-118907928D01*
X120945518Y-118920188D01*
X120825820Y-118956498D01*
X120715506Y-119015463D01*
X120618815Y-119094815D01*
X120539463Y-119191506D01*
X120480498Y-119301820D01*
X120444188Y-119421518D01*
X120431928Y-119546000D01*
X93345000Y-119546000D01*
X93345000Y-113640890D01*
X120478524Y-113640890D01*
X120523175Y-113788099D01*
X120648359Y-114050920D01*
X120822412Y-114284269D01*
X121038645Y-114479178D01*
X121288748Y-114628157D01*
X121563109Y-114725481D01*
X121793000Y-114604814D01*
X121793000Y-113411000D01*
X120599845Y-113411000D01*
X120478524Y-113640890D01*
X93345000Y-113640890D01*
X93345000Y-93595000D01*
X120613424Y-93595000D01*
X122050351Y-95031928D01*
G36*
X120539463Y-97724494D02*
G01*
X120618815Y-97821185D01*
X120715506Y-97900537D01*
X120825820Y-97959502D01*
X120898380Y-97981513D01*
X120766525Y-98113368D01*
X120604010Y-98356589D01*
X120492068Y-98626842D01*
X120435000Y-98913740D01*
X120435000Y-99206260D01*
X120492068Y-99493158D01*
X120604010Y-99763411D01*
X120766525Y-100006632D01*
X120973368Y-100213475D01*
X121216589Y-100375990D01*
X121486842Y-100487932D01*
X121773740Y-100545000D01*
X122066260Y-100545000D01*
X122353158Y-100487932D01*
X122535002Y-100412610D01*
X122535002Y-103797419D01*
X122156493Y-104175928D01*
X121070000Y-104175928D01*
X120945518Y-104188188D01*
X120825820Y-104224498D01*
X120715506Y-104283463D01*
X120618815Y-104362815D01*
X120539463Y-104459506D01*
X120480498Y-104569820D01*
X120444188Y-104689518D01*
X120431928Y-104814000D01*
X120431928Y-106514000D01*
X120444188Y-106638482D01*
X120480498Y-106758180D01*
X120539463Y-106868494D01*
X120618815Y-106965185D01*
X120715506Y-107044537D01*
X120825820Y-107103502D01*
X120898380Y-107125513D01*
X120766525Y-107257368D01*
X120604010Y-107500589D01*
X120492068Y-107770842D01*
X120435000Y-108057740D01*
X120435000Y-108184198D01*
X116149999Y-103899198D01*
X116149999Y-102060000D01*
X116216939Y-102060000D01*
X116416898Y-102020226D01*
X116605256Y-101942205D01*
X116774774Y-101828937D01*
X116918937Y-101684774D01*
X117032205Y-101515256D01*
X117110226Y-101326898D01*
X117150000Y-101126939D01*
X117150000Y-101064801D01*
X120522341Y-97692461D01*
X120539463Y-97724494D01*
G37*
X120539463Y-97724494D02*
X120618815Y-97821185D01*
X120715506Y-97900537D01*
X120825820Y-97959502D01*
X120898380Y-97981513D01*
X120766525Y-98113368D01*
X120604010Y-98356589D01*
X120492068Y-98626842D01*
X120435000Y-98913740D01*
X120435000Y-99206260D01*
X120492068Y-99493158D01*
X120604010Y-99763411D01*
X120766525Y-100006632D01*
X120973368Y-100213475D01*
X121216589Y-100375990D01*
X121486842Y-100487932D01*
X121773740Y-100545000D01*
X122066260Y-100545000D01*
X122353158Y-100487932D01*
X122535002Y-100412610D01*
X122535002Y-103797419D01*
X122156493Y-104175928D01*
X121070000Y-104175928D01*
X120945518Y-104188188D01*
X120825820Y-104224498D01*
X120715506Y-104283463D01*
X120618815Y-104362815D01*
X120539463Y-104459506D01*
X120480498Y-104569820D01*
X120444188Y-104689518D01*
X120431928Y-104814000D01*
X120431928Y-106514000D01*
X120444188Y-106638482D01*
X120480498Y-106758180D01*
X120539463Y-106868494D01*
X120618815Y-106965185D01*
X120715506Y-107044537D01*
X120825820Y-107103502D01*
X120898380Y-107125513D01*
X120766525Y-107257368D01*
X120604010Y-107500589D01*
X120492068Y-107770842D01*
X120435000Y-108057740D01*
X120435000Y-108184198D01*
X116149999Y-103899198D01*
X116149999Y-102060000D01*
X116216939Y-102060000D01*
X116416898Y-102020226D01*
X116605256Y-101942205D01*
X116774774Y-101828937D01*
X116918937Y-101684774D01*
X117032205Y-101515256D01*
X117110226Y-101326898D01*
X117150000Y-101126939D01*
X117150000Y-101064801D01*
X120522341Y-97692461D01*
X120539463Y-97724494D01*
G36*
X123800000Y-94278419D02*
G01*
X121636536Y-92114956D01*
X121608819Y-92081183D01*
X121474061Y-91970589D01*
X121320315Y-91888411D01*
X121153492Y-91837805D01*
X121023479Y-91825000D01*
X121023471Y-91825000D01*
X120980002Y-91820719D01*
X120936533Y-91825000D01*
X93345000Y-91825000D01*
X93345000Y-90551000D01*
X118364000Y-90551000D01*
X118388776Y-90548560D01*
X118412601Y-90541333D01*
X118434557Y-90529597D01*
X118453803Y-90513803D01*
X118469597Y-90494557D01*
X118481333Y-90472601D01*
X118488560Y-90448776D01*
X118491000Y-90424000D01*
X118491000Y-85631872D01*
X119177000Y-85631872D01*
X119177000Y-86072128D01*
X119262890Y-86503925D01*
X119431369Y-86910669D01*
X119675962Y-87276729D01*
X119987271Y-87588038D01*
X120353331Y-87832631D01*
X120760075Y-88001110D01*
X121191872Y-88087000D01*
X121632128Y-88087000D01*
X122063925Y-88001110D01*
X122470669Y-87832631D01*
X122836729Y-87588038D01*
X123148038Y-87276729D01*
X123392631Y-86910669D01*
X123561110Y-86503925D01*
X123647000Y-86072128D01*
X123647000Y-85631872D01*
X123561110Y-85200075D01*
X123392631Y-84793331D01*
X123148038Y-84427271D01*
X122836729Y-84115962D01*
X122470669Y-83871369D01*
X122063925Y-83702890D01*
X121632128Y-83617000D01*
X121191872Y-83617000D01*
X120760075Y-83702890D01*
X120353331Y-83871369D01*
X119987271Y-84115962D01*
X119675962Y-84427271D01*
X119431369Y-84793331D01*
X119262890Y-85200075D01*
X119177000Y-85631872D01*
X118491000Y-85631872D01*
X118491000Y-83464000D01*
X123800000Y-83464000D01*
X123800000Y-94278419D01*
G37*
X123800000Y-94278419D02*
X121636536Y-92114956D01*
X121608819Y-92081183D01*
X121474061Y-91970589D01*
X121320315Y-91888411D01*
X121153492Y-91837805D01*
X121023479Y-91825000D01*
X121023471Y-91825000D01*
X120980002Y-91820719D01*
X120936533Y-91825000D01*
X93345000Y-91825000D01*
X93345000Y-90551000D01*
X118364000Y-90551000D01*
X118388776Y-90548560D01*
X118412601Y-90541333D01*
X118434557Y-90529597D01*
X118453803Y-90513803D01*
X118469597Y-90494557D01*
X118481333Y-90472601D01*
X118488560Y-90448776D01*
X118491000Y-90424000D01*
X118491000Y-85631872D01*
X119177000Y-85631872D01*
X119177000Y-86072128D01*
X119262890Y-86503925D01*
X119431369Y-86910669D01*
X119675962Y-87276729D01*
X119987271Y-87588038D01*
X120353331Y-87832631D01*
X120760075Y-88001110D01*
X121191872Y-88087000D01*
X121632128Y-88087000D01*
X122063925Y-88001110D01*
X122470669Y-87832631D01*
X122836729Y-87588038D01*
X123148038Y-87276729D01*
X123392631Y-86910669D01*
X123561110Y-86503925D01*
X123647000Y-86072128D01*
X123647000Y-85631872D01*
X123561110Y-85200075D01*
X123392631Y-84793331D01*
X123148038Y-84427271D01*
X122836729Y-84115962D01*
X122470669Y-83871369D01*
X122063925Y-83702890D01*
X121632128Y-83617000D01*
X121191872Y-83617000D01*
X120760075Y-83702890D01*
X120353331Y-83871369D01*
X119987271Y-84115962D01*
X119675962Y-84427271D01*
X119431369Y-84793331D01*
X119262890Y-85200075D01*
X119177000Y-85631872D01*
X118491000Y-85631872D01*
X118491000Y-83464000D01*
X123800000Y-83464000D01*
X123800000Y-94278419D01*
%TD*%
M02*
